<svg width="147" height="32" viewBox="0 0 147 32" fill="none" xmlns="http://www.w3.org/2000/svg">
<path d="M34.3959 17.4598C34.207 18.2014 34.4909 18.8326 34.8223 19.3654C35.7119 20.7956 36.6624 22.1902 37.6507 23.5529C38.1182 24.1976 38.9267 24.35 39.6509 24.4175C41.5149 24.5912 43.387 24.7195 45.258 24.7572C46.5399 24.783 47.825 24.6176 49.1097 24.5583C49.377 24.546 49.6478 24.63 49.9181 24.6599C50.4654 24.7206 50.8148 25.0436 50.8766 25.5698C50.9862 26.5049 51.1191 27.4541 51.0656 28.387C51.0166 29.2422 50.1742 29.8445 49.2024 29.8386C46.6682 29.8232 44.1315 29.8302 41.6011 29.7129C39.8349 29.631 38.069 29.4158 36.3181 29.156C34.4548 28.8796 33.0458 27.8442 32.1497 26.1606C31.2086 24.3925 30.3214 22.595 29.3837 20.8249C29.0164 20.1317 28.6683 19.4162 27.9532 18.9765C27.0215 18.4035 26.2056 18.793 26.0409 19.8422C25.7966 21.398 26.1556 22.8883 26.3533 24.4063C26.5184 25.6741 26.5815 26.962 26.5911 28.2417C26.5979 29.1623 26.1024 29.7137 25.116 29.8375C24.0947 29.9656 23.0443 30.0035 22.0202 29.9168C21.1471 29.8428 20.4322 28.8874 20.3858 27.8821C20.3355 26.7923 20.3997 25.6975 20.3684 24.6062C20.3145 22.7246 20.2425 20.8431 20.1456 18.9633C20.0587 17.2762 19.9039 15.5925 19.8231 13.9051C19.7232 11.819 19.6501 9.73099 19.6012 7.64293C19.5675 6.20473 18.9891 5.61669 17.5887 5.69094C16.641 5.74119 15.7762 5.51009 15.2821 4.6366C14.7662 3.72438 15.085 2.33618 15.7571 1.54112C16.3854 0.797917 17.2375 0.717602 18.0668 0.563733C19.864 0.230247 21.6856 0.130662 23.5062 0.229267C25.1862 0.32026 26.8626 0.495904 28.5371 0.668601C29.697 0.788226 30.8516 0.96207 32.0076 1.11897C33.774 1.35873 35.0869 2.26796 35.9313 3.86086C36.5791 5.08268 36.89 6.39748 36.961 7.7727C37.0128 8.778 37.0999 9.78728 37.0592 10.7901C37.0097 12.0085 36.8893 13.2291 36.71 14.4352C36.5851 15.2755 36.0578 15.9101 35.3155 16.316C34.8569 16.5667 34.5288 16.8974 34.3959 17.4598ZM25.0393 9.2571C25.0144 9.71652 24.9212 10.1852 24.9805 10.6332C25.0676 11.2905 25.3312 11.8931 26.0929 12.0078C26.8297 12.1188 27.578 12.2842 28.3124 12.2469C29.2914 12.1972 30.2009 11.8103 30.5969 10.8102C31.146 9.42378 30.1762 8.09259 28.7824 7.78905C28.0578 7.63124 27.2871 7.66917 26.5367 7.65748C25.342 7.63888 25.0554 7.94183 25.0393 9.2571Z" fill="white"/>
<path d="M116.015 22.636C116.015 24.4194 116.015 26.1464 116.015 27.8734C116.014 29.2046 115.485 29.7454 114.153 29.7289C113.326 29.7186 112.487 29.7449 111.678 29.6076C110.676 29.4376 110.264 28.6256 110.126 27.6969C110.029 27.0378 110.013 26.3622 110.014 25.6941C110.015 25.3888 110.145 25.0842 110.211 24.7782C110.227 24.7059 110.224 24.6288 110.224 24.5539C110.225 23.1988 110.253 21.8429 110.213 20.4889C110.194 19.8361 110.109 19.1449 109.459 18.767C108.678 18.3128 107.588 18.6898 106.997 19.5967C106.325 20.6283 106.09 21.8219 105.763 22.9857C105.396 24.2871 105.056 25.6083 104.54 26.8515C103.793 28.6544 102.42 29.6147 100.416 29.6334C98.4267 29.6519 96.438 29.768 94.4492 29.8481C93.8066 29.8739 93.162 29.9798 92.5235 29.947C91.0604 29.8718 89.5977 29.761 88.1404 29.6091C87.4498 29.5371 86.8593 29.1849 86.7453 28.4207C86.6474 27.7648 86.562 27.0725 86.6668 26.4289C86.7966 25.6315 87.5385 25.396 88.2193 25.2445C88.6977 25.138 89.202 25.1326 89.6959 25.1183C91.3394 25.0707 92.9885 25.1066 94.6258 24.9817C96.0877 24.8701 97.5526 24.6618 98.8493 23.846C99.9527 23.1518 100.538 22.1125 100.871 20.8871C101.365 19.0694 101.748 17.2352 101.769 15.3375C101.778 14.5373 101.835 13.7377 101.875 12.938C101.986 10.7206 101.995 8.49409 102.539 6.31948C102.973 4.58618 103.703 2.98894 104.748 1.55919C105.363 0.716951 106.342 0.415791 107.315 0.228274C108.373 0.0241758 109.433 -0.0845546 110.531 0.0802248C111.689 0.254142 112.872 0.293708 114.046 0.3176C115.061 0.338272 116.079 0.260583 117.095 0.215581C118.053 0.173142 118.997 0.878777 119.198 1.95637C119.36 2.83257 119.285 3.7165 118.823 4.54216C118.464 5.18502 117.868 5.35138 117.249 5.50575C116.968 5.5759 116.67 5.574 116.385 5.63168C115.754 5.75934 115.429 6.14259 115.465 6.809C115.556 8.51493 115.684 10.2189 115.789 11.9241C115.837 12.7045 115.887 13.4857 115.9 14.2672C115.946 17.0379 115.978 19.8088 116.015 22.636ZM110.116 11.096C110.152 10.8046 110.222 10.5124 110.216 10.2219C110.205 9.64892 110.133 9.07732 110.118 8.50432C110.098 7.70045 109.85 7.35632 109.136 7.21232C108.591 7.10246 107.665 7.58902 107.571 8.14137C107.402 9.13597 107.245 10.1478 107.248 11.152C107.25 11.9533 107.774 12.5149 109.022 12.4967C109.66 12.4873 110.04 12.0343 110.116 11.096Z" fill="white"/>
<path d="M57.1161 12.9533C57.1161 12.465 57.1281 12.0267 57.114 11.5893C57.0443 9.42606 56.9354 7.26345 56.9122 5.09985C56.9048 4.41294 57.053 3.70341 57.2498 3.04062C57.4802 2.26428 58.0369 1.79866 58.8747 1.67203C59.8788 1.52028 60.8599 1.1641 61.8975 1.45178C62.4004 1.59119 62.823 1.82609 63.0079 2.34017C63.1744 2.80335 63.4905 2.96882 63.9441 2.91938C64.8876 2.81655 65.8284 2.64259 66.7737 2.61438C68.0642 2.57586 69.3578 2.6455 70.6501 2.67039C70.7602 2.67251 70.8699 2.69103 70.9801 2.6947C72.1417 2.73338 73.304 2.75653 74.4648 2.81213C75.6377 2.8683 76.8137 2.9136 77.98 3.04168C79.2611 3.18237 80.0561 4.04995 80.4742 5.18503C81.2018 7.16084 81.3033 9.22583 81.0633 11.3144C80.9913 11.9413 80.9767 12.5753 80.9444 13.2065C80.8305 15.437 80.7147 17.6675 80.6126 19.8986C80.5867 20.4638 80.6385 21.0333 80.6022 21.5974C80.5419 22.536 80.0324 23.1368 79.0964 23.1761C77.9581 23.224 76.8059 23.1916 75.6742 23.0635C74.7576 22.9597 74.3753 22.3834 74.3743 21.4471C74.3723 19.5322 74.3594 17.6171 74.3775 15.7023C74.3983 13.5129 74.4501 11.3238 74.4815 9.13456C74.4844 8.93414 74.4441 8.73194 74.4124 8.53242C74.3428 8.0944 74.2076 7.70616 73.6833 7.65323C72.8782 7.57195 72.4439 7.7213 72.2179 8.3339C71.9794 8.98038 71.7663 9.66885 71.7249 10.3503C71.6476 11.6222 71.6626 12.9038 71.712 14.1785C71.7875 16.1291 71.9817 18.0764 72.0093 20.0268C72.0214 20.8833 71.9993 21.8392 71.2337 22.4739C70.961 22.7 70.6256 22.9103 70.2882 22.9835C69.1676 23.2265 68.0684 23.1789 67.1088 22.4317C66.6591 22.0815 66.4808 21.5988 66.4636 21.024C66.4019 18.9544 66.3247 16.8853 66.244 14.8163C66.1772 13.1036 66.1033 11.391 66.0194 9.67901C65.9959 9.19908 65.9729 8.71023 65.8645 8.24586C65.7465 7.74067 65.0412 7.44927 64.3372 7.54084C63.8729 7.60123 63.3964 8.12236 63.3561 8.66078C63.3021 9.38431 63.256 10.1097 63.2435 10.8349C63.197 13.5497 63.1814 16.265 63.1202 18.9793C63.0972 19.9969 62.9934 21.0134 62.9022 22.0281C62.8579 22.5206 62.5126 22.8475 62.0863 22.9561C61.2798 23.1615 60.4557 23.3343 59.6289 23.4119C57.9325 23.571 57.2039 22.4001 57.0067 21.0005C56.7659 19.291 56.9387 17.5914 57.0988 15.8853C57.1881 14.9328 57.1156 13.9647 57.1161 12.9533Z" fill="white"/>
<path d="M97.1525 22.9462C95.9339 23.6239 94.683 23.5964 93.3839 23.4518C92.4125 23.3437 91.4162 23.4835 90.4385 23.4097C89.2973 23.3236 88.1499 23.1954 87.0311 22.9594C85.2877 22.5916 84.5271 21.0308 84.5201 19.4595C84.5159 18.4991 84.6966 17.5388 84.7139 16.577C84.7293 15.7241 84.646 14.8682 84.5829 14.0155C84.5421 13.4639 84.4246 12.917 84.4015 12.3654C84.3119 10.2227 84.2103 8.07936 84.1917 5.93554C84.1855 5.21174 84.3206 4.45433 84.5513 3.76736C85.0714 2.2187 86.0842 1.7355 87.5415 2.41797C89.0496 3.12422 90.4816 2.91923 91.9782 2.63672C92.782 2.48501 93.5892 2.30994 94.4019 2.2581C96.2242 2.14186 97.8654 3.18073 98.5589 4.92555C99.38 6.99131 99.3498 9.07097 98.3877 11.0971C98.2007 11.4909 97.8976 11.8265 97.6753 12.2054C97.3231 12.8056 97.3929 13.3878 97.7925 13.9471C98.9723 15.5985 99.3783 17.4717 99.1856 19.46C99.047 20.89 98.4252 22.107 97.1525 22.9462ZM93.1274 16.5372C92.2396 16.4006 91.3548 16.2248 90.4619 16.1527C90.2123 16.1326 89.8757 16.3622 89.6893 16.5757C89.3287 16.9887 89.4709 18.245 89.8621 18.6477C90.4488 19.2518 92.1846 19.4793 92.8932 19.0451C93.8785 18.4413 94.024 17.3103 93.1274 16.5372ZM88.9531 8.88017C89.0692 9.61388 89.5122 10.177 90.1245 10.23C90.9639 10.3026 91.8235 10.2899 92.5775 9.85977C92.8772 9.68881 93.2626 9.30376 93.2506 9.03254C93.2347 8.67764 92.9354 8.24133 92.6313 8.01247C91.8688 7.43857 90.9401 7.4565 90.0489 7.57033C89.336 7.66138 89.0201 8.07693 88.9531 8.88017Z" fill="white"/>
<path d="M39.1914 8.6364C39.1165 7.43397 38.9948 6.2855 38.9792 5.13557C38.9572 3.50283 39.446 3.14784 40.757 2.94425C41.3947 2.84521 42.0606 2.89135 42.7108 2.92601C43.6654 2.97689 44.1181 3.68088 44.1878 4.61256C44.2781 5.82146 44.2586 7.03831 44.3158 8.25031C44.4142 10.3316 44.5472 12.4112 44.6409 14.4927C44.6772 15.3007 44.63 16.1124 44.6536 16.9214C44.6643 17.2861 44.7029 17.6665 44.819 18.0084C45.2443 19.2606 46.6114 19.2223 47.5354 18.5317C48.1072 18.1043 48.3981 17.4748 48.4071 16.813C48.4238 15.5875 48.3076 14.3602 48.2454 13.1337C48.237 12.9667 48.2111 12.8002 48.2107 12.6334C48.2076 11.4506 48.2235 10.2676 48.2051 9.08509C48.1858 7.85305 48.1387 6.62139 48.0968 5.38981C48.0413 3.76175 48.5922 3.12297 50.1317 2.95711C51.0243 2.86095 51.9609 3.00977 52.8563 3.17038C53.5221 3.28979 53.8955 4.11751 53.7426 4.7974C53.3003 6.76425 53.3778 8.74975 53.548 10.7378C53.5528 10.7938 53.5522 10.8504 53.5531 10.9066C53.5904 13.1334 53.7064 15.3627 53.6383 17.5862C53.589 19.1933 53.4305 20.8333 52.4302 22.2083C52.082 22.6868 51.6243 22.9389 50.9942 22.9921C49.6881 23.1024 48.3913 23.3229 47.0889 23.4833C45.3366 23.699 43.5946 24.1237 41.8139 23.6581C40.5342 23.3235 39.8792 22.6761 39.7552 21.362C39.6036 19.7552 39.4772 18.1431 39.4242 16.5304C39.3449 14.1173 39.3413 11.7016 39.2975 9.28722C39.2939 9.08746 39.2286 8.88885 39.1914 8.6364Z" fill="white"/>
<path d="M120.261 6.41305C123.6 6.48831 126.886 6.55659 130.172 6.64283C131.155 6.66863 131.301 6.8598 131.374 8.1647C131.407 8.76328 131.41 9.36774 131.364 9.96459C131.346 10.1962 131.203 10.4617 131.036 10.631C129.485 12.2086 128.544 14.1582 127.708 16.1698C126.888 18.1416 126.408 20.2122 126.048 22.3123C125.967 22.7852 125.952 23.271 125.927 23.7519C125.888 24.479 125.515 24.8795 124.793 24.8855C123.328 24.8976 121.863 24.8989 120.398 24.8855C119.473 24.8771 119.137 24.4991 119.25 23.5646C119.424 22.1173 119.824 20.7273 120.4 19.3917C121.552 16.7193 122.981 14.2011 124.563 11.7687C124.612 11.6935 124.628 11.5964 124.692 11.4178C124.047 11.4178 123.435 11.4147 122.824 11.4207C122.717 11.4217 122.611 11.4775 122.503 11.4801C120.823 11.5213 119.142 11.5399 117.463 11.6061C116.942 11.6267 116.833 11.3762 116.911 10.9638C117.179 9.54284 117.423 8.12244 117.369 6.66465C117.364 6.54822 117.603 6.31752 117.728 6.31819C118.555 6.3226 119.382 6.3757 120.261 6.41305Z" fill="white"/>
<path d="M135.742 24.8891C135.615 24.8891 135.54 24.8909 135.466 24.8888C134.498 24.8611 134.094 24.481 134.295 23.5495C134.591 22.176 134.898 20.7825 135.414 19.4847C136.497 16.7648 137.982 14.2486 139.572 11.7999C139.63 11.7115 139.655 11.6021 139.746 11.3793C139.101 11.3793 138.52 11.3686 137.94 11.3839C137.668 11.3911 137.398 11.471 137.127 11.479C135.595 11.5243 134.062 11.5397 132.531 11.6054C132.007 11.628 131.85 11.4024 131.941 10.9456C132.223 9.52619 132.449 8.10389 132.4 6.64676C132.397 6.53591 132.649 6.31226 132.776 6.31724C133.912 6.36194 135.047 6.45004 136.182 6.5174C136.972 6.56425 137.762 6.62702 138.552 6.63297C140.685 6.64901 142.817 6.63798 144.95 6.63938C145.116 6.63949 145.287 6.62918 145.447 6.66393C146.276 6.84384 146.35 6.95027 146.406 8.1896C146.432 8.77008 146.43 9.35387 146.4 9.93388C146.389 10.1385 146.305 10.3874 146.167 10.5295C144.162 12.5986 143.042 15.1561 142.149 17.8507C141.611 19.4778 141.23 21.1346 141.065 22.8421C141.031 23.1913 140.994 23.5403 140.953 23.8887C140.876 24.5507 140.478 24.8848 139.745 24.8876C138.428 24.8928 137.111 24.8891 135.742 24.8891Z" fill="white"/>
<path d="M19.0723 29.3624C17.3242 27.7789 15.2948 26.8311 13.0864 26.247C11.4668 25.8187 9.81255 25.6005 8.14158 25.6878C5.64219 25.8185 3.18905 26.2401 0.842341 27.1599C0.428847 27.322 0.218699 27.2976 0.10092 26.8067C-0.20315 25.5392 0.235657 24.4113 0.677334 23.2785C0.750671 23.0904 0.863207 22.9183 0.952778 22.7363C1.23475 22.1635 1.62354 21.8466 2.30498 21.6983C3.76421 21.3806 5.23021 21.3203 6.69171 21.4188C8.32673 21.5289 9.90569 21.9815 11.4113 22.6573C14.1899 23.9046 16.4907 25.8019 18.5326 28.0449C18.8908 28.4384 19.2112 28.868 19.5352 29.2917C19.6076 29.3865 19.6218 29.5268 19.7128 29.7917C19.4177 29.5949 19.261 29.4904 19.0723 29.3624Z" fill="white"/>
<path d="M9.37075 20.2641C8.10043 20.0684 6.87803 19.8771 5.55361 19.6698C5.61694 19.3871 5.69152 19.005 5.78883 18.6288C6.12228 17.34 6.59064 16.121 7.40655 15.0443C7.64634 14.7278 7.85157 14.6783 8.13674 14.8186C9.21183 15.3475 10.3395 15.8009 11.3309 16.4616C12.6196 17.3204 13.9079 18.2368 14.9986 19.3304C17.0191 21.3563 18.4184 23.8039 19.1118 26.6245C19.2041 27 19.2232 27.3938 19.1501 27.8093C18.7833 27.1904 18.4332 26.5606 18.0469 25.9545C16.5203 23.5594 14.3631 21.9597 11.7598 20.9581C11.0025 20.6667 10.2003 20.495 9.37075 20.2641Z" fill="white"/>
<path d="M14.2497 13.8459C13.6863 12.2135 13.1482 10.6184 12.5659 9.04C12.428 8.66612 12.6167 8.47244 12.8414 8.37618C14.339 7.73465 15.8588 7.16374 17.5949 7.34377C17.0252 9.56532 16.8895 11.8 17.1331 14.0615C17.3738 16.297 17.5927 18.535 17.8267 20.825C16.223 18.7259 15.287 16.2825 14.2497 13.8459Z" fill="white"/>
<path d="M11.3554 28.7566C11.3554 30.014 10.7185 30.5664 9.63358 30.2987C8.98754 30.1392 8.54572 29.3931 8.69257 28.7095C8.83922 28.027 9.62194 27.4409 10.2372 27.6075C10.8856 27.7832 11.295 28.0065 11.3554 28.7566Z" fill="white"/>
<path d="M15.0691 30.3922C15.4434 31.0811 15.2942 31.6568 14.7168 31.9115C14.1831 32.147 13.5622 31.9022 13.4379 31.3005C13.3754 30.998 13.4926 30.5244 13.7072 30.3253C14.1091 29.9524 14.5999 29.9271 15.0691 30.3922Z" fill="white"/>
<path d="M3.40064 30.7442C2.78751 30.8951 2.49129 30.4612 2.38799 30.0823C2.30467 29.7767 2.47289 29.3141 2.68075 29.0374C2.90603 28.7376 3.70878 28.9616 3.99024 29.3233C4.23081 29.6324 4.15388 30.2487 3.82471 30.5284C3.71602 30.6207 3.57318 30.6719 3.40064 30.7442Z" fill="white"/>
</svg>
