<svg xmlns="http://www.w3.org/2000/svg" xmlns:xlink="http://www.w3.org/1999/xlink" preserveAspectRatio="xMidYMid meet" width="486" height="415" viewBox="0 0 486 415" style="width:100%;height:100%"><defs><animateTransform repeatCount="indefinite" dur="2.002002s" begin="0s" xlink:href="#_R_G_L_4_G" fill="freeze" attributeName="transform" from="0.75 0.75" to="0.75 0.75" type="scale" additive="sum" keyTimes="0;0.5;1" values="0.75 0.75;1 1;0.75 0.75" keySplines="0.333 0 0.667 1;0.333 0 0.833 1" calcMode="spline"/><animateTransform repeatCount="indefinite" dur="2.002002s" begin="0s" xlink:href="#_R_G_L_4_G" fill="freeze" attributeName="transform" from="-33.182 -27.195" to="-33.182 -27.195" type="translate" additive="sum" keyTimes="0;1" values="-33.182 -27.195;-33.182 -27.195" keySplines="0 0 1 1" calcMode="spline"/><animateTransform repeatCount="indefinite" dur="2.002002s" begin="0s" xlink:href="#_R_G_L_3_G" fill="freeze" attributeName="transform" from="0.75 0.75" to="0.75 0.75" type="scale" additive="sum" keyTimes="0;0.4166666;1" values="0.75 0.75;1 1;0.75 0.75" keySplines="0.333 0 0.667 1;0.333 0 0.833 1" calcMode="spline"/><animateTransform repeatCount="indefinite" dur="2.002002s" begin="0s" xlink:href="#_R_G_L_3_G" fill="freeze" attributeName="transform" from="-24.851 -26.637" to="-24.851 -26.637" type="translate" additive="sum" keyTimes="0;1" values="-24.851 -26.637;-24.851 -26.637" keySplines="0 0 1 1" calcMode="spline"/><animateTransform repeatCount="indefinite" dur="2.002002s" begin="0s" xlink:href="#_R_G_L_2_G" fill="freeze" attributeName="transform" from="0.75 0.75" to="0.75 0.75" type="scale" additive="sum" keyTimes="0;0.5833333;1" values="0.75 0.75;1 1;0.75 0.75" keySplines="0.333 0 0.667 1;0.333 0 0.833 1" calcMode="spline"/><animateTransform repeatCount="indefinite" dur="2.002002s" begin="0s" xlink:href="#_R_G_L_2_G" fill="freeze" attributeName="transform" from="-27.201 -29.662" to="-27.201 -29.662" type="translate" additive="sum" keyTimes="0;1" values="-27.201 -29.662;-27.201 -29.662" keySplines="0 0 1 1" calcMode="spline"/><animateTransform repeatCount="indefinite" dur="2.002002s" begin="0s" xlink:href="#_R_G_L_1_G" fill="freeze" attributeName="transform" from="0" to="0" type="rotate" additive="sum" keyTimes="0;0.5;1" values="0;5;0" keySplines="0.333 0 0.667 1;0.333 0 0.667 1" calcMode="spline"/><animateTransform repeatCount="indefinite" dur="2.002002s" begin="0s" xlink:href="#_R_G_L_1_G" fill="freeze" attributeName="transform" from="-18.788 -28.985" to="-18.788 -28.985" type="translate" additive="sum" keyTimes="0;1" values="-18.788 -28.985;-18.788 -28.985" keySplines="0 0 1 1" calcMode="spline"/><animateTransform repeatCount="indefinite" dur="2.002002s" begin="0s" xlink:href="#_R_G_L_0_G" fill="freeze" attributeName="transform" from="0" to="0" type="rotate" additive="sum" keyTimes="0;0.5;1" values="0;-15;0" keySplines="0.333 0 0.667 1;0.333 0 0.667 1" calcMode="spline"/><animateTransform repeatCount="indefinite" dur="2.002002s" begin="0s" xlink:href="#_R_G_L_0_G" fill="freeze" attributeName="transform" from="-16.851 -41.201" to="-16.851 -41.201" type="translate" additive="sum" keyTimes="0;1" values="-16.851 -41.201;-16.851 -41.201" keySplines="0 0 1 1" calcMode="spline"/><animate attributeType="XML" attributeName="opacity" dur="2s" from="0" to="1" xlink:href="#time_group"/></defs><g id="_R_G"><g id="_R_G_L_6_G" transform=" translate(219.245, 274.5) translate(-290.495, -151.75)"><path id="_R_G_L_6_G_D_0_P_0" fill="#fff9e1" fill-opacity="1" fill-rule="nonzero" d=" M155.51 303.25 C155.51,303.25 550.81,303.25 550.81,303.25 C550.81,303.25 580.74,253.26 511.57,204.35 C449.51,160.48 484.43,61.99 367.95,48.05 C289.99,38.72 190.25,0.25 112.25,108.25 C0.25,246.25 155.51,303.25 155.51,303.25z "/></g><g id="_R_G_L_5_G" transform=" translate(225.932, 263.494) translate(-85.026, -173.756)"><path id="_R_G_L_5_G_D_0_P_0" fill="#2c2b4d" fill-opacity="1" fill-rule="nonzero" d=" M28.02 239.5 C25.95,246.92 24.44,253.54 22.92,266.74 C20.04,291.67 24.32,311.04 27.45,347.26 C27.45,347.26 63.97,347.26 63.97,347.26 C69.88,324.28 76.95,299.54 81.41,285.62 C91.43,312.45 99.52,331.29 106.97,347.26 C106.97,347.26 153.7,347.26 153.7,347.26 C145.7,321.14 128.91,277.01 119.63,248.45 C85.79,204.4 54.61,218.47 28.01,239.5 C28.01,239.5 28.02,239.5 28.02,239.5z "/><path id="_R_G_L_5_G_D_1_P_0" fill="#000000" fill-opacity="1" fill-rule="nonzero" d=" M87.47 301.46 C85.53,296.5 83.52,291.23 81.42,285.61 C85.53,269.82 86.46,266.57 90.17,253.57 C88.56,269.72 87.67,287.96 87.47,301.46z "/><path id="_R_G_L_5_G_D_2_P_0" fill="#2c2b4d" fill-opacity="1" fill-rule="nonzero" d=" M79.57 5.31 C87.23,5.31 115.81,20.55 113.57,40.69 C111.33,60.83 93.25,66.26 94.63,73.29 C96.01,80.32 123.37,82.38 113.68,110.11 C78.46,121.55 37.28,129.86 18.44,132.42 C5.04,124.43 0.25,127.5 4.72,114.62 C9.19,101.73 11.74,101.09 9.83,91.82 C7.91,82.56 13.34,75.21 26.11,71.37 C38.87,67.54 38.24,61.78 38.24,51.23 C38.24,40.69 36.16,25.5 48.77,12.87 C61.38,0.25 74.78,0.51 79.57,5.31z "/><path id="_R_G_L_5_G_D_3_P_0" fill="#444378" fill-opacity="1" fill-rule="nonzero" d=" M70.37 14.05 C71.12,19.09 70.81,24.24 69.75,29.2 C69.19,31.83 68.24,34.32 67.15,36.77 C66.22,38.84 64.95,40.68 63.77,42.6 C67.05,38.89 69.57,34.54 70.63,29.65 C71.73,24.55 71.92,19.09 70.36,14.05 C70.36,14.05 70.37,14.05 70.37,14.05z "/><path id="_R_G_L_5_G_D_4_P_0" fill="#444378" fill-opacity="1" fill-rule="nonzero" d=" M63.77 29.18 C63.61,32.29 61.87,35.37 60.13,37.85 C57.89,41.05 54.83,43.51 52.36,46.5 C49.8,49.59 48.34,53.06 47.97,57.05 C47.61,61.01 47.97,65 47.63,68.96 C47.42,71.38 46.93,73.84 45.52,75.88 C44.27,77.71 42.47,78.91 40.58,80 C43.66,78.54 46.23,76.57 47.41,73.25 C48.74,69.53 48.62,65.42 48.7,61.52 C48.78,57.56 49.02,53.58 51.01,50.04 C52.95,46.58 55.99,44.03 58.48,41 C60.08,39.06 61.54,36.96 62.49,34.63 C63.19,32.93 63.85,31.04 63.78,29.18 C63.78,29.18 63.77,29.18 63.77,29.18z "/><path id="_R_G_L_5_G_D_5_P_0" fill="#ffad88" fill-opacity="1" fill-rule="nonzero" d=" M105.91 103.65 C112.08,105.53 115.27,109.26 118.89,116.13 C122.51,123 129.11,135.58 132.3,142.18 C137.83,127.48 147.49,105.32 147.62,101.69 C147.71,99.35 148.48,96.68 146.57,91.79 C143.65,84.25 143.03,64.33 147.71,71 C156.89,80.2 165.93,84.7 167.42,90.19 C162.73,97.43 161.88,99.92 161.03,103.79 C160.18,107.66 153.36,150.78 147.96,164.87 C142.55,178.99 135.05,178.51 133.69,178.51 C129.54,178.51 120.04,168.85 112.94,156.7 C106.56,136.88 99.85,119.58 105.92,103.65 C105.92,103.65 105.91,103.65 105.91,103.65z "/><path id="_R_G_L_5_G_D_6_P_0" fill="#ef895c" fill-opacity="1" fill-rule="nonzero" d=" M132.29 142.19 C131.51,143.54 130.89,144.98 130.37,146.45 C129.81,148.05 129.31,149.86 129.53,151.56 C130.21,148.38 131.65,145.39 132.29,142.19 C132.29,142.19 132.29,142.19 132.29,142.19z "/><path id="_R_G_L_5_G_D_7_P_0" fill="#fff9e0" fill-opacity="1" fill-rule="nonzero" d=" M151.92 78.23 C149.1,74.97 147.93,71.73 146.22,67.08 C144.29,61.83 144.02,48.05 142.63,32.31 C142.63,32.31 163.59,32.31 163.59,32.31 C162.21,48.05 161.93,61.83 160,67.08 C158.3,71.73 157.12,74.97 154.3,78.23 C154.3,78.23 154.3,113.42 154.3,113.42 C157.36,113.92 160.93,116.03 160.93,116.03 C160.93,116.03 145.29,116.03 145.29,116.03 C145.29,116.03 148.86,113.91 151.91,113.42 C151.91,113.42 151.91,78.23 151.91,78.23 C151.91,78.23 151.92,78.23 151.92,78.23z "/><path id="_R_G_L_5_G_D_8_P_0" fill="#ffc757" fill-opacity="1" fill-rule="nonzero" d=" M161.69 46.47 C161.04,55.9 160.51,63.32 159.23,66.8 C159.23,66.8 159.18,66.92 159.18,66.92 C157.56,71.34 156.47,74.31 154.02,77.29 C154.02,77.29 152.21,77.29 152.21,77.29 C149.76,74.31 148.67,71.34 147.05,66.92 C147.05,66.92 147,66.8 147,66.8 C145.72,63.32 145.19,55.9 144.53,46.47 C144.53,46.47 161.69,46.47 161.69,46.47z "/><path id="_R_G_L_5_G_D_9_P_0" fill="#ffea9e" fill-opacity="1" fill-rule="nonzero" d=" M151.83 65.94 C151.83,66.29 152.11,66.58 152.47,66.58 C152.82,66.58 153.11,66.29 153.11,65.94 C153.11,65.58 152.82,65.3 152.47,65.3 C152.11,65.3 151.83,65.58 151.83,65.94z "/><path id="_R_G_L_5_G_D_10_P_0" fill="#ffea9e" fill-opacity="1" fill-rule="nonzero" d=" M147.71 49.37 C147.71,49.73 147.99,50.02 148.35,50.02 C148.7,50.02 148.99,49.73 148.99,49.37 C148.99,49.02 148.7,48.73 148.35,48.73 C147.99,48.73 147.71,49.02 147.71,49.37z "/><path id="_R_G_L_5_G_D_11_P_0" fill="#ffea9e" fill-opacity="1" fill-rule="nonzero" d=" M153.68 68.88 C153.68,69.24 153.97,69.52 154.32,69.52 C154.67,69.52 154.96,69.24 154.96,68.88 C154.96,68.53 154.67,68.24 154.32,68.24 C153.97,68.24 153.68,68.52 153.68,68.88z "/><path id="_R_G_L_5_G_D_12_P_0" fill="#ffea9e" fill-opacity="1" fill-rule="nonzero" d=" M153.68 59.09 C153.68,59.44 153.97,59.73 154.32,59.73 C154.67,59.73 154.96,59.44 154.96,59.09 C154.96,58.73 154.67,58.45 154.32,58.45 C153.97,58.45 153.68,58.73 153.68,59.09z "/><path id="_R_G_L_5_G_D_13_P_0" fill="#ffea9e" fill-opacity="1" fill-rule="nonzero" d=" M149.4 58.16 C149.4,58.67 149.82,59.09 150.33,59.09 C150.84,59.09 151.25,58.67 151.25,58.16 C151.25,57.65 150.84,57.24 150.33,57.24 C149.82,57.24 149.4,57.65 149.4,58.16z "/><path id="_R_G_L_5_G_D_14_P_0" fill="#ffea9e" fill-opacity="1" fill-rule="nonzero" d=" M156.11 51.71 C156.11,52.22 156.53,52.64 157.04,52.64 C157.55,52.64 157.96,52.22 157.96,51.71 C157.96,51.2 157.55,50.78 157.04,50.78 C156.53,50.78 156.11,51.2 156.11,51.71z "/><path id="_R_G_L_5_G_D_15_P_0" fill="#ffffff" fill-opacity="1" fill-rule="nonzero" d=" M146.79 59.09 C148.63,65.66 149.65,68.57 151.25,72.93 C149.08,69.16 147.71,66.96 146.79,59.09z "/><path id="_R_G_L_5_G_D_16_P_0" fill="#ffad88" fill-opacity="1" fill-rule="nonzero" d=" M149.9 71.53 C147.59,69.22 147.57,66.32 150.12,66.32 C148.66,61.09 154.66,64.5 159.56,68.06 C159.22,62.83 159.69,55.13 161.88,55.13 C164.07,55.13 163.21,66.02 163.5,71.12 C164.25,71.75 164.83,72.25 165.12,72.56 C167.2,74.63 166.77,75.59 166.72,77.51 C168.34,79.14 168.53,81.3 167.41,83.11 C169.51,84.92 169.8,87.21 167.41,90.19 C162.94,84.97 153.68,79.94 150.32,76.91 C146.85,73.78 147.41,71.53 149.9,71.53 C149.9,71.53 149.9,71.53 149.9,71.53z "/><path id="_R_G_L_5_G_D_17_P_0" fill="#ef895c" fill-opacity="1" fill-rule="nonzero" d=" M161.69 85.03 C160.13,85.52 158.69,86.66 157.53,87.79 C156.23,89.05 155.14,90.49 154.32,92.11 C155.54,90.91 156.6,89.57 157.84,88.38 C159.05,87.19 160.31,86.03 161.69,85.03z "/><path id="_R_G_L_5_G_D_18_P_0" fill="#ef895c" fill-opacity="1" fill-rule="nonzero" d=" M148.99 75.52 C149.03,76.62 149.07,77.73 149.08,78.84 C149.08,79.35 149.08,79.86 149.08,80.37 C149.08,80.93 149.11,80.95 149.48,81.36 C151.04,83.13 151.53,85.41 151.83,87.68 C152.16,85.04 151.45,82.53 149.62,80.59 C149.64,80.67 149.67,80.74 149.71,80.81 C149.65,79.05 149.49,77.22 148.99,75.52 C149.12,75.95 149.02,76.41 148.99,75.52z "/><path id="_R_G_L_5_G_D_19_P_0" fill="#ef895c" fill-opacity="1" fill-rule="nonzero" d=" M166.72 77.51 C161.64,73.16 156.06,69.37 150.12,66.32 C152.84,68.25 155.64,70.07 158.37,71.97 C161.15,73.83 163.9,75.72 166.72,77.5 C166.72,77.5 166.72,77.51 166.72,77.51z "/><path id="_R_G_L_5_G_D_20_P_0" fill="#ef895c" fill-opacity="1" fill-rule="nonzero" d=" M167.41 83.1 C161.99,78.7 156.13,74.67 149.89,71.53 C155.64,75.5 161.43,79.49 167.41,83.1z "/><path id="_R_G_L_5_G_D_21_P_0" fill="#ef895c" fill-opacity="1" fill-rule="nonzero" d=" M148.19 72.15 C146.88,73.41 148.7,75.63 149.58,76.55 C151.01,78.05 152.76,79.17 154.45,80.35 C157.5,82.42 160.59,84.43 163.59,86.55 C160.99,84.15 158.12,82.12 155.22,80.1 C153.6,78.98 151.91,77.93 150.39,76.66 C149.38,75.82 147.01,73.65 148.19,72.15z "/><path id="_R_G_L_5_G_D_22_P_0" fill="#ef895c" fill-opacity="1" fill-rule="nonzero" d=" M163.5 71.12 C162.6,69.8 161.05,68.62 159.56,68.05 C160.44,69.37 162.02,70.58 163.5,71.12z "/><path id="_R_G_L_5_G_D_23_P_0" fill="#4340b7" fill-opacity="1" fill-rule="nonzero" d=" M81.01 93.74 C94.74,99.5 97.21,100.18 105.91,103.65 C103.67,110.37 104.71,122.61 108.79,128.58 C113.57,135.62 121.91,146.44 114.09,161.3 C109,170.98 108.79,201.78 119.64,248.45 C107.19,251.96 95.86,248.93 89.32,242.38 C82.77,235.82 71.12,223.84 64.1,225.76 C57.07,227.67 46.54,237.9 28.03,239.5 C20.53,227.9 36.33,211.69 43.67,197.95 C51.01,184.2 40.8,162.15 37.93,147.13 C37.93,132.75 35.56,111.16 26.94,94.22 C29.04,92.11 42.37,89.74 48.25,87.78 C55.48,89.76 72.08,91.99 81.02,93.75 C81.02,93.75 81.01,93.74 81.01,93.74z "/><path id="_R_G_L_5_G_D_24_P_0" fill="#ffde68" fill-opacity="1" fill-rule="nonzero" d=" M37.92 99.25 C40.79,98.75 43.65,98.33 46.57,98.18 C50.52,97.98 54.47,98.13 58.41,98.45 C62.51,98.79 66.59,99.34 70.69,99.61 C73.64,99.81 76.53,99.78 79.47,100.26 C88.18,101.68 96.71,104.25 105.17,106.73 C99.03,104.22 92.64,102.14 86.22,100.49 C82.55,99.55 78.81,98.7 75.02,98.52 C71.89,98.36 68.78,98.21 65.66,97.93 C60.64,97.45 55.56,97.02 50.51,97.26 C46.22,97.46 42.06,98.14 37.91,99.26 C37.91,99.26 37.92,99.25 37.92,99.25z "/><path id="_R_G_L_5_G_D_25_P_0" fill="#ffde68" fill-opacity="1" fill-rule="nonzero" d=" M105.67 120.66 C99.76,117.94 93.51,115.77 87.22,114.18 C85.32,113.7 83.39,113.29 81.44,113.01 C79.42,112.73 77.39,112.7 75.35,112.66 C71.22,112.61 67.07,112.53 62.94,112.75 C58.14,113 53.27,113.42 48.58,114.52 C46.38,115.03 44.19,115.54 42.05,116.24 C40.67,116.68 39.3,117.14 37.92,117.59 C40.79,116.9 43.64,116.18 46.54,115.65 C50.49,114.94 54.43,114.46 58.44,114.16 C62.48,113.86 66.55,113.84 70.61,113.88 C74.6,113.91 78.61,113.78 82.57,114.38 C90.45,115.56 98.14,118.13 105.67,120.65 C105.67,120.65 105.67,120.66 105.67,120.66z "/><path id="_R_G_L_5_G_D_26_P_0" fill="#ffde68" fill-opacity="1" fill-rule="nonzero" d=" M111.38 132.42 C104.24,131.27 96.98,130.91 89.75,131.21 C85.67,131.39 81.61,132.25 77.52,132.12 C73.42,131.99 69.39,131.39 65.33,130.82 C60.24,130.12 55.1,129.56 49.96,129.9 C45.84,130.17 41.9,130.94 37.92,131.98 C40.81,131.46 43.69,130.99 46.63,130.8 C50.47,130.54 54.31,130.66 58.13,131.07 C62.21,131.49 66.24,132.23 70.3,132.79 C74.37,133.35 78.39,133.54 82.47,133.08 C85.17,132.78 87.84,132.42 90.54,132.25 C93.21,132.07 95.87,131.97 98.54,131.96 C101.1,131.95 103.66,131.99 106.22,132.11 C106.63,132.13 111.38,132.33 111.38,132.42z "/><path id="_R_G_L_5_G_D_27_P_0" fill="#ffde68" fill-opacity="1" fill-rule="nonzero" d=" M117.27 148.2 C110.87,147.21 104.33,146.78 97.87,146.74 C93.79,146.71 89.71,146.92 85.69,147.59 C81.61,148.27 77.55,148.89 73.43,149.23 C66.88,149.77 60.3,149.87 53.73,150.03 C48.7,150.16 43.68,150.3 38.65,150.49 C45.13,150.72 51.61,150.9 58.09,150.91 C66.23,150.92 74.48,150.83 82.52,149.4 C85.72,148.83 88.92,148.22 92.16,148 C95.51,147.77 98.86,147.67 102.22,147.68 C107.24,147.69 112.25,147.91 117.27,148.19 C117.27,148.19 117.27,148.2 117.27,148.2z "/><path id="_R_G_L_5_G_D_28_P_0" fill="#ffde68" fill-opacity="1" fill-rule="nonzero" d=" M112.3 166.37 C106.03,164.65 99.41,163.7 92.92,163.41 C88.77,163.23 84.7,163.69 80.58,164.12 C76.42,164.43 72.26,164.73 68.09,164.85 C63.28,164.98 58.48,164.96 53.67,164.84 C49.87,164.74 46.09,164.33 42.31,163.91 C45.22,164.48 48.12,164.97 51.06,165.33 C54.94,165.81 58.86,165.96 62.76,166.04 C66.83,166.14 70.9,166.01 74.97,165.8 C77.06,165.69 79.15,165.54 81.22,165.31 C83.26,165.08 85.33,164.77 87.38,164.64 C95.69,164.11 104.1,164.98 112.3,166.37z "/><path id="_R_G_L_5_G_D_29_P_0" fill="#ffde68" fill-opacity="1" fill-rule="nonzero" d=" M110.74 180.74 C104.01,181.25 97.23,181.67 90.49,181.21 C88.48,181.08 86.49,180.84 84.51,180.46 C82.59,180.03 80.68,179.54 78.73,179.31 C74.66,178.85 70.57,178.83 66.48,179.06 C59.61,179.41 52.78,180.48 46.06,181.88 C53.03,181.11 59.99,180.39 67.01,180.17 C71.09,180.04 75.29,180.05 79.34,180.68 C81.32,180.99 83.25,181.52 85.22,181.84 C87.19,182.16 89.18,182.3 91.18,182.36 C97.67,182.56 104.36,181.98 110.74,180.74z "/><path id="_R_G_L_5_G_D_30_P_0" fill="#ffde68" fill-opacity="1" fill-rule="nonzero" d=" M111.38 198.73 C104.58,197.59 97.53,197.08 90.64,197.29 C88.57,197.38 86.51,197.45 84.45,197.71 C82.49,197.96 80.54,198.21 78.59,198.5 C75.53,198.96 72.45,199.15 69.36,199.27 C61.56,199.58 53.8,198.51 46.06,197.76 C52.87,199.17 59.73,200.18 66.68,200.43 C70.31,200.55 74.03,200.44 77.63,199.93 C81,199.44 84.38,198.84 87.78,198.61 C95.65,198.07 103.51,198.27 111.38,198.73z "/><path id="_R_G_L_5_G_D_31_P_0" fill="#ffde68" fill-opacity="1" fill-rule="nonzero" d=" M113.73 218.17 C106.97,217.82 100.2,217.48 93.47,216.84 C89.43,216.45 85.41,216.07 81.42,215.35 C78.64,214.85 75.87,214.26 73.08,213.87 C65.47,212.82 57.81,212.75 50.17,213.56 C46.57,213.95 43.01,214.5 39.44,215.14 C36.88,215.6 34.34,216.26 31.81,216.84 C34.58,216.41 37.36,215.88 40.15,215.55 C43.98,215.09 47.8,214.67 51.65,214.38 C55.65,214.09 59.65,214.18 63.65,214.26 C67.33,214.33 71.14,214.73 74.77,215.41 C77.66,215.94 80.57,216.54 83.48,216.92 C87.4,217.45 91.37,217.74 95.32,217.93 C101.45,218.22 107.59,218.37 113.72,218.17 C113.72,218.17 113.73,218.17 113.73,218.17z "/><path id="_R_G_L_5_G_D_32_P_0" fill="#ffde68" fill-opacity="1" fill-rule="nonzero" d=" M116.73 235.02 C109.76,235.6 102.52,234.74 95.79,232.92 C91.84,231.84 88.28,229.97 84.63,228.19 C81,226.42 77.27,224.94 73.37,223.89 C60.6,220.45 47.02,223.14 34.74,227.22 C31.81,228.19 28.93,229.31 26.05,230.43 C32.39,228.41 38.74,226.39 45.29,225.16 C49.24,224.42 53.18,223.85 57.19,223.62 C60.81,223.4 64.43,223.65 68.02,224.1 C73.63,224.79 79.03,226.88 84.12,229.25 C85.93,230.1 87.7,231.04 89.54,231.81 C91.33,232.56 93.18,233.19 95.05,233.7 C98.89,234.68 102.83,235.26 106.79,235.42 C110.08,235.55 113.45,235.52 116.72,235.02 C116.72,235.02 116.73,235.02 116.73,235.02z "/><path id="_R_G_L_5_G_D_33_P_0" fill="#000000" fill-opacity="1" fill-rule="nonzero" d=" M63.77 187.47 C75.58,199.3 100.46,214.07 105.59,208.93 C110.72,203.8 105.91,237.97 63.77,187.47z "/><path id="_R_G_L_5_G_D_34_P_0" fill="#ffad88" fill-opacity="1" fill-rule="nonzero" d=" M28.02 93.74 C22.97,94.47 16.85,116.44 13.34,142.65 C9.83,168.86 10.79,172.7 20.68,187.08 C30.58,201.46 48.93,226.87 57.07,235.02 C61.33,233 64.76,231.11 69.48,226.38 C59.52,210.73 37.6,175.88 34.41,168.85 C36.65,152.88 41.75,128.05 43.35,116.97 C44.94,105.89 43.67,91.51 28.03,93.74 C28.03,93.74 28.02,93.74 28.02,93.74z "/><path id="_R_G_L_5_G_D_35_P_0" fill="#ffad88" fill-opacity="1" fill-rule="nonzero" d=" M87.63 15.29 C86.14,28.08 82.29,35.57 71.43,43.45 C60.58,51.34 58.02,53.68 57.17,56.66 C58.23,67.74 59.73,80.96 48.24,87.78 C59.42,107.24 69.48,130.89 86.25,127.55 C99.3,124.96 85.26,104.82 81.01,93.75 C81.01,87.56 81.65,84.8 82.92,80.48 C90.05,81.17 98.88,80.96 101.75,72.65 C104.63,64.34 109.52,29.18 87.63,15.29 C87.63,15.29 87.63,15.29 87.63,15.29z "/><path id="_R_G_L_5_G_D_36_P_0" fill="#ef895c" fill-opacity="1" fill-rule="nonzero" d=" M89.44 56.25 C91.22,56.35 93.09,56.41 94.79,55.76 C95.69,55.41 96.57,54.9 97.03,54.01 C97.51,53.06 97.26,51.97 96.61,51.16 C96.03,50.44 95.18,50.05 94.38,49.61 C93.44,49.06 92.49,48.51 91.66,47.78 C90.24,46.54 89.45,45.03 88.76,43.3 C89.05,44.9 89.51,46.27 90.48,47.59 C91.65,49.19 93.47,50.06 95.09,51.09 C95.76,51.52 96.41,52.21 96.37,53.07 C96.32,53.99 95.45,54.62 94.7,54.99 C93.06,55.79 91.22,56 89.44,56.25 C89.44,56.25 89.44,56.25 89.44,56.25z "/><path id="_R_G_L_5_G_D_37_P_0" fill="#2c2b4d" fill-opacity="1" fill-rule="nonzero" d=" M75.92 45.28 C76.08,46.5 77.05,47.38 78.08,47.24 C79.12,47.11 79.83,46.01 79.67,44.79 C79.51,43.57 78.54,42.69 77.5,42.83 C76.47,42.96 75.76,44.06 75.92,45.28z "/><path id="_R_G_L_5_G_D_38_P_0" fill="#ef895c" fill-opacity="1" fill-rule="nonzero" d=" M80.33 41.57 C78.8,40.01 75.83,40.68 74.64,42.32 C75.59,42.16 76.5,41.84 77.46,41.71 C78.42,41.58 79.37,41.55 80.33,41.57z "/><path id="_R_G_L_5_G_D_39_P_0" fill="#2c2b4d" fill-opacity="1" fill-rule="nonzero" d=" M81.36 38.8 C81.68,37.55 79.91,36.9 77.24,37.36 C74.43,37.84 72.35,39.06 72.74,39.9 C73.12,40.73 75.35,39.8 76.74,39.62 C78.14,39.44 81.03,40.05 81.36,38.8 C81.36,38.8 81.36,38.8 81.36,38.8z "/><path id="_R_G_L_5_G_D_40_P_0" fill="#2c2b4d" fill-opacity="1" fill-rule="nonzero" d=" M98.82 42.66 C98.97,43.88 98.26,44.97 97.22,45.1 C96.19,45.23 95.23,44.35 95.07,43.13 C94.92,41.91 95.64,40.81 96.67,40.68 C97.71,40.55 98.67,41.44 98.82,42.66z "/><path id="_R_G_L_5_G_D_41_P_0" fill="#ef895c" fill-opacity="1" fill-rule="nonzero" d=" M93.62 40.19 C94.54,39.92 95.48,39.71 96.43,39.59 C97.39,39.47 98.36,39.56 99.32,39.47 C97.76,38.18 94.71,38.28 93.62,40.18 C93.62,40.18 93.62,40.19 93.62,40.19z "/><path id="_R_G_L_5_G_D_42_P_0" fill="#2c2b4d" fill-opacity="1" fill-rule="nonzero" d=" M91.93 37.76 C91.3,36.64 92.85,35.56 95.55,35.33 C98.39,35.08 100.71,35.74 100.55,36.64 C100.39,37.55 98,37.21 96.6,37.38 C95.2,37.56 92.56,38.87 91.93,37.75 C91.93,37.75 91.93,37.76 91.93,37.76z "/><path id="_R_G_L_5_G_D_43_P_0" fill="#ffffff" fill-opacity="1" fill-rule="nonzero" d=" M97.84 61.11 C94.19,62.39 89.5,63.67 85.03,61.86 C88.12,66.55 94.79,73.26 97.84,61.11z "/><path id="_R_G_L_5_G_D_44_P_0" fill="#ef895c" fill-opacity="1" fill-rule="nonzero" d=" M82.93 80.48 C82.34,82.44 81.9,84.08 81.58,85.87 C74.7,83.08 71.41,78.7 67.39,73.08 C71.97,77.66 77.29,79.73 82.93,80.48 C82.93,80.48 82.93,80.48 82.93,80.48z "/></g><g id="_R_G_L_4_G" transform=" translate(384.493, 193.803)"><path id="_R_G_L_4_G_D_0_P_0" fill="#f7cf91" fill-opacity="1" fill-rule="nonzero" d=" M36.13 28.19 C36.13,29.2 35.31,30.02 34.3,30.02 C33.29,30.02 32.47,29.2 32.47,28.19 C32.47,27.19 33.29,26.37 34.3,26.37 C35.31,26.37 36.13,27.19 36.13,28.19z "/><path id="_R_G_L_4_G_D_1_P_0" fill="#f7cf91" fill-opacity="1" fill-rule="nonzero" d=" M38.12 23.95 C38.12,23.95 40.56,19.1 43.51,16.33 C46.46,13.56 52.2,11.22 51.24,13.21 C50.29,15.2 43.29,18.5 38.11,23.95 C38.11,23.95 38.12,23.95 38.12,23.95z "/><path id="_R_G_L_4_G_D_2_P_0" fill="#f7cf91" fill-opacity="1" fill-rule="nonzero" d=" M30.04 33.13 C30.04,33.13 24.13,37.2 21.44,42.58 C18.74,47.94 20.48,49.94 21.44,48.81 C22.39,47.69 24.13,40.32 30.04,33.13z "/><path id="_R_G_L_4_G_D_3_P_0" fill="#f7cf91" fill-opacity="1" fill-rule="nonzero" d=" M37.69 32.62 C37.69,32.62 40.04,40.67 43.6,44.48 C47.17,48.29 47.51,45.34 46.56,43.87 C45.6,42.4 40.39,36.86 37.69,32.62z "/><path id="_R_G_L_4_G_D_4_P_0" fill="#f7cf91" fill-opacity="1" fill-rule="nonzero" d=" M40.21 28.71 C40.21,28.71 47.51,26.2 53.34,26.37 C59.17,26.54 61.25,28.37 59.25,28.71 C57.25,29.06 50.56,26.89 40.22,28.71 C40.22,28.71 40.21,28.71 40.21,28.71z "/><path id="_R_G_L_4_G_D_5_P_0" fill="#f7cf91" fill-opacity="1" fill-rule="nonzero" d=" M28.3 26.38 C28.3,26.38 23.78,23.86 16.39,22.91 C9,21.96 6.65,25.58 7.26,26.37 C7.87,27.16 13.69,23.69 28.3,26.38z "/><path id="_R_G_L_4_G_D_6_P_0" fill="#f7cf91" fill-opacity="1" fill-rule="nonzero" d=" M32.12 22.76 C32.12,22.76 26.91,15.81 26.21,10.36 C25.52,4.9 27.95,5.16 28.3,6.72 C28.65,8.29 28.47,13.94 32.12,22.76z "/><path id="_R_G_L_4_G_D_7_P_0" fill="#e277a5" fill-opacity="1" fill-rule="nonzero" d=" M40.99 26.07 C40.61,25.8 42.12,24.12 44.08,23.04 C46.03,21.96 48.9,20.49 49.51,21.04 C50.11,21.61 46.72,22.99 44.94,23.94 C43.16,24.89 41.47,26.41 40.98,26.06 C40.98,26.06 40.99,26.07 40.99,26.07z "/><path id="_R_G_L_4_G_D_8_P_0" fill="#e277a5" fill-opacity="1" fill-rule="nonzero" d=" M42.35 31.27 C42.62,30.84 45.42,31.4 47.25,32.62 C49.07,33.82 49.63,34.96 49.25,35.34 C48.85,35.74 47.04,34.26 45.26,33.48 C43.48,32.7 41.97,31.88 42.35,31.27z "/><path id="_R_G_L_4_G_D_9_P_0" fill="#e277a5" fill-opacity="1" fill-rule="nonzero" d=" M34.3 35.41 C33.86,35.21 32.6,37.98 32.47,40.4 C32.33,42.82 34.03,44.12 34.3,43.13 C34.57,42.13 34.25,40.83 34.3,38.97 C34.35,37.11 34.64,35.57 34.3,35.4 C34.3,35.4 34.3,35.41 34.3,35.41z "/><path id="_R_G_L_4_G_D_10_P_0" fill="#e277a5" fill-opacity="1" fill-rule="nonzero" d=" M25.02 32.14 C24.8,31.63 23.69,31.74 21.96,32.14 C20.22,32.53 16.52,34.82 16.92,35.4 C17.31,35.99 18.39,35.9 20,35.17 C21.62,34.43 25.52,33.35 25.03,32.14 C25.03,32.14 25.02,32.14 25.02,32.14z "/><path id="_R_G_L_4_G_D_11_P_0" fill="#e277a5" fill-opacity="1" fill-rule="nonzero" d=" M28.3 22.76 C28.8,22.4 27.87,21.4 26.09,19.71 C24.3,18.02 21.6,16.38 20.97,16.68 C20.35,16.98 20.52,17.85 21.52,18.59 C22.51,19.32 27.26,23.51 28.3,22.76z "/><path id="_R_G_L_4_G_D_12_P_0" fill="#e277a5" fill-opacity="1" fill-rule="nonzero" d=" M35.17 20.57 C34.6,20.65 34.23,18.81 34.46,16.64 C34.69,14.46 35.34,10.87 36.39,10.78 C37.44,10.7 37.3,12.69 36.96,14.25 C36.61,15.81 36.47,20.4 35.17,20.57 C35.17,20.57 35.17,20.57 35.17,20.57z "/><path id="_R_G_L_4_G_D_13_P_0" fill="#e277a5" fill-opacity="1" fill-rule="nonzero" d=" M0.32 27.27 C0.25,27.12 4.74,24.25 5.02,25.99 C5.3,27.72 0.5,27.67 0.32,27.27z "/><path id="_R_G_L_4_G_D_14_P_0" fill="#e277a5" fill-opacity="1" fill-rule="nonzero" d=" M27.22 0.39 C26.85,0.25 26.09,4.29 27.22,4.25 C28.34,4.2 27.87,0.65 27.22,0.39z "/><path id="_R_G_L_4_G_D_15_P_0" fill="#e277a5" fill-opacity="1" fill-rule="nonzero" d=" M52.64 11.74 C51.87,10.86 55.72,8.8 55.94,9.02 C56.16,9.24 53.64,12.91 52.64,11.74z "/><path id="_R_G_L_4_G_D_16_P_0" fill="#e277a5" fill-opacity="1" fill-rule="nonzero" d=" M62.24 28.75 C62.5,27.42 66.11,28.88 66.07,29.32 C66.02,29.75 61.98,30.09 62.24,28.75z "/><path id="_R_G_L_4_G_D_17_P_0" fill="#e277a5" fill-opacity="1" fill-rule="nonzero" d=" M47.6 47.45 C46.61,48.34 49.97,51.2 50.44,50.79 C50.9,50.38 48.99,46.17 47.6,47.45z "/><path id="_R_G_L_4_G_D_18_P_0" fill="#e277a5" fill-opacity="1" fill-rule="nonzero" d=" M19.99 50.39 C18.62,49.44 17.87,53.68 18.27,53.91 C18.68,54.14 21.08,51.14 19.99,50.39z "/><path id="_R_G_L_4_G_D_19_P_0" fill="#f7cf91" fill-opacity="1" fill-rule="nonzero" d=" M34.85 47.05 C34.85,47.59 34.41,48.03 33.86,48.03 C33.32,48.03 32.88,47.59 32.88,47.05 C32.88,46.5 33.32,46.06 33.86,46.06 C34.41,46.06 34.85,46.5 34.85,47.05z "/><path id="_R_G_L_4_G_D_20_P_0" fill="#f7cf91" fill-opacity="1" fill-rule="nonzero" d=" M14.83 36.39 C14.83,36.93 14.39,37.37 13.84,37.37 C13.3,37.37 12.86,36.93 12.86,36.39 C12.86,35.84 13.3,35.4 13.84,35.4 C14.39,35.4 14.83,35.84 14.83,36.39z "/><path id="_R_G_L_4_G_D_21_P_0" fill="#f7cf91" fill-opacity="1" fill-rule="nonzero" d=" M53.32 36.77 C53.32,37.31 52.88,37.75 52.34,37.75 C51.79,37.75 51.35,37.31 51.35,36.77 C51.35,36.23 51.79,35.79 52.34,35.79 C52.88,35.79 53.32,36.23 53.32,36.77z "/><path id="_R_G_L_4_G_D_22_P_0" fill="#f7cf91" fill-opacity="1" fill-rule="nonzero" d=" M37.77 8.01 C37.77,8.55 37.32,8.99 36.78,8.99 C36.24,8.99 35.8,8.55 35.8,8.01 C35.8,7.47 36.24,7.03 36.78,7.03 C37.32,7.03 37.77,7.47 37.77,8.01z "/><path id="_R_G_L_4_G_D_23_P_0" fill="#f7cf91" fill-opacity="1" fill-rule="nonzero" d=" M53.32 19.74 C53.32,20.28 52.88,20.72 52.34,20.72 C51.79,20.72 51.35,20.28 51.35,19.74 C51.35,19.2 51.79,18.76 52.34,18.76 C52.88,18.76 53.32,19.2 53.32,19.74z "/><path id="_R_G_L_4_G_D_24_P_0" fill="#f7cf91" fill-opacity="1" fill-rule="nonzero" d=" M18.85 14.96 C18.85,15.5 18.41,15.94 17.86,15.94 C17.32,15.94 16.88,15.5 16.88,14.96 C16.88,14.41 17.32,13.97 17.86,13.97 C18.41,13.97 18.85,14.41 18.85,14.96z "/></g><g id="_R_G_L_3_G" transform=" translate(362.546, 239.696)"><path id="_R_G_L_3_G_D_0_P_0" fill="#f6d18c" fill-opacity="1" fill-rule="nonzero" d=" M25.1 26.52 C26.08,26.52 26.88,25.72 26.88,24.74 C26.88,23.76 26.08,22.97 25.1,22.97 C24.11,22.97 23.31,23.76 23.31,24.74 C23.31,25.72 24.11,26.52 25.1,26.52z "/><path id="_R_G_L_3_G_D_1_P_0" fill="#f6d18c" fill-opacity="1" fill-rule="nonzero" d=" M19.66 23.75 C20.13,24 16.45,19.33 11.75,18.29 C7.06,17.24 5.23,19.24 7.15,20.02 C9.06,20.79 14.69,21.03 19.66,23.74 C19.66,23.74 19.66,23.75 19.66,23.75z "/><path id="_R_G_L_3_G_D_2_P_0" fill="#f6d18c" fill-opacity="1" fill-rule="nonzero" d=" M22.71 30.16 C22.31,29.47 17.67,34.74 16.62,37 C15.57,39.25 16.53,41.67 18.44,39.08 C20.35,36.48 23.04,30.77 22.7,30.16 C22.7,30.16 22.71,30.16 22.71,30.16z "/><path id="_R_G_L_3_G_D_3_P_0" fill="#f6d18c" fill-opacity="1" fill-rule="nonzero" d=" M28.45 28.77 C27.88,28.3 31.78,29.64 34.59,32.24 C37.4,34.84 38.09,40.38 35.66,37.96 C33.23,35.54 31.26,31.12 28.45,28.77z "/><path id="_R_G_L_3_G_D_4_P_0" fill="#f6d18c" fill-opacity="1" fill-rule="nonzero" d=" M30.5 23.75 C29.9,23.83 34.96,21.23 39.04,21.32 C43.13,21.41 44.43,23.5 41.39,23.75 C38.35,24.01 34.21,23.3 30.5,23.75z "/><path id="_R_G_L_3_G_D_5_P_0" fill="#f6d18c" fill-opacity="1" fill-rule="nonzero" d=" M26.48 19.71 C26.38,20.31 29.31,14.95 29.47,11.31 C29.64,7.67 28.22,4.56 27.41,6.64 C26.59,8.72 27.24,14.9 26.48,19.72 C26.48,19.72 26.48,19.71 26.48,19.71z "/><path id="_R_G_L_3_G_D_6_P_0" fill="#ae48c9" fill-opacity="1" fill-rule="nonzero" d=" M29.41 21.74 C29.41,21.74 29.39,21.48 29.46,21.04 C29.53,20.6 29.7,19.98 29.99,19.29 C30.3,18.61 30.72,17.83 31.33,17.12 C31.62,16.76 31.99,16.43 32.35,16.1 C32.73,15.78 33.09,15.45 33.48,15.15 C33.87,14.85 34.25,14.53 34.65,14.26 C35.05,13.99 35.44,13.71 35.83,13.47 C36.22,13.24 36.6,13.01 36.96,12.8 C37.33,12.61 37.69,12.43 38.01,12.27 C38.66,11.93 39.22,11.72 39.61,11.55 C40,11.4 40.23,11.3 40.23,11.3 C40.23,11.3 40.3,11.44 40.3,11.44 C40.3,11.44 40.09,11.58 39.74,11.8 C39.4,12.03 38.87,12.32 38.3,12.75 C38.01,12.95 37.7,13.18 37.37,13.42 C37.06,13.67 36.72,13.93 36.37,14.2 C36.02,14.48 35.69,14.79 35.35,15.09 C35,15.4 34.68,15.74 34.34,16.06 C34.03,16.4 33.72,16.76 33.43,17.11 C33.16,17.48 32.87,17.82 32.61,18.15 C32.33,18.48 32.07,18.8 31.81,19.1 C31.54,19.39 31.32,19.69 31.08,19.95 C30.2,21.01 29.57,21.78 29.57,21.78 C29.57,21.78 29.42,21.74 29.42,21.74 C29.42,21.74 29.41,21.74 29.41,21.74z "/><path id="_R_G_L_3_G_D_7_P_0" fill="#ae48c9" fill-opacity="1" fill-rule="nonzero" d=" M30.43 26.87 C30.43,26.87 30.69,26.73 31.18,26.57 C31.66,26.41 32.37,26.25 33.23,26.2 C34.09,26.15 35.13,26.17 36.18,26.41 C37.25,26.64 38.3,27.12 39.34,27.57 C39.86,27.82 40.36,28.07 40.86,28.34 C41.33,28.63 41.8,28.91 42.25,29.18 C42.68,29.49 43.1,29.79 43.49,30.06 C43.88,30.35 44.21,30.67 44.53,30.93 C45.19,31.46 45.66,31.98 46.01,32.32 C46.35,32.66 46.54,32.86 46.54,32.86 C46.54,32.86 46.43,32.98 46.43,32.98 C46.43,32.98 46.21,32.81 45.82,32.53 C45.62,32.39 45.39,32.22 45.12,32.01 C44.86,31.8 44.54,31.6 44.19,31.38 C43.85,31.17 43.48,30.91 43.07,30.68 C42.66,30.46 42.24,30.22 41.79,29.97 C41.33,29.76 40.86,29.53 40.37,29.31 C39.88,29.11 39.37,28.92 38.87,28.74 C38.35,28.59 37.85,28.41 37.33,28.31 C36.82,28.21 36.32,28.09 35.83,28.01 C35.35,27.9 34.87,27.79 34.43,27.7 C33.98,27.6 33.56,27.53 33.16,27.45 C31.59,27.16 30.46,27.02 30.46,27.02 C30.46,27.02 30.43,26.87 30.43,26.87 C30.43,26.87 30.43,26.87 30.43,26.87z "/><path id="_R_G_L_3_G_D_8_P_0" fill="#ae48c9" fill-opacity="1" fill-rule="nonzero" d=" M25.99 31.82 C25.99,31.82 26.01,33.14 26.41,34.98 C26.59,35.9 26.9,36.95 27.22,38.08 C27.4,38.64 27.52,39.24 27.73,39.83 C27.91,40.42 28.12,41.02 28.38,41.61 C28.38,41.61 28.75,42.49 28.75,42.49 C28.9,42.77 29.04,43.06 29.18,43.34 C29.46,43.9 29.74,44.46 30.05,44.98 C30.36,45.5 30.64,46.02 30.94,46.48 C31.24,46.95 31.52,47.39 31.79,47.8 C32.31,48.63 32.83,49.25 33.14,49.72 C33.48,50.19 33.67,50.46 33.67,50.46 C33.67,50.46 33.55,50.56 33.55,50.56 C33.55,50.56 33.33,50.32 32.93,49.9 C32.55,49.47 31.96,48.89 31.34,48.13 C31.02,47.75 30.69,47.34 30.33,46.9 C29.97,46.47 29.65,45.95 29.28,45.46 C28.91,44.96 28.57,44.41 28.23,43.86 C28.06,43.58 27.89,43.3 27.71,43.02 C27.71,43.02 27.24,42.14 27.24,42.14 C26.91,41.56 26.62,40.95 26.35,40.34 C26.04,39.75 25.84,39.13 25.64,38.53 C25.47,37.92 25.32,37.32 25.26,36.74 C25.23,36.45 25.2,36.17 25.17,35.89 C25.15,35.61 25.16,35.35 25.15,35.09 C25.13,34.58 25.21,34.11 25.25,33.7 C25.32,33.29 25.39,32.93 25.49,32.65 C25.66,32.07 25.84,31.77 25.84,31.77 C25.84,31.77 25.99,31.81 25.99,31.81 C25.99,31.81 25.99,31.82 25.99,31.82z "/><path id="_R_G_L_3_G_D_9_P_0" fill="#ae48c9" fill-opacity="1" fill-rule="nonzero" d=" M19.68 28.15 C19.68,28.15 19.36,28.15 18.83,28.19 C18.56,28.22 18.24,28.22 17.87,28.27 C17.51,28.3 17.1,28.37 16.67,28.43 C16.45,28.46 16.23,28.52 15.99,28.56 C15.75,28.59 15.52,28.64 15.27,28.71 C15.03,28.77 14.77,28.83 14.52,28.88 C14.27,28.96 14.01,29.03 13.74,29.1 C13.21,29.21 12.68,29.42 12.11,29.55 C11.57,29.76 11.01,29.95 10.47,30.22 C9.95,30.51 9.38,30.73 8.9,31.07 C8.41,31.4 7.88,31.67 7.45,32.03 C7,32.38 6.56,32.72 6.15,33.03 C5.75,33.38 5.38,33.71 5.04,34.01 C4.87,34.17 4.71,34.31 4.56,34.45 C4.41,34.6 4.27,34.75 4.15,34.89 C3.89,35.15 3.66,35.39 3.48,35.59 C3.1,35.97 2.88,36.19 2.88,36.19 C2.88,36.19 2.76,36.1 2.76,36.1 C2.76,36.1 2.94,35.84 3.25,35.4 C3.42,35.18 3.61,34.92 3.84,34.61 C3.95,34.46 4.07,34.3 4.2,34.12 C4.34,33.97 4.49,33.79 4.64,33.62 C4.95,33.27 5.29,32.89 5.64,32.48 C6.02,32.1 6.45,31.72 6.88,31.32 C7.3,30.9 7.82,30.57 8.3,30.17 C8.78,29.76 9.35,29.47 9.88,29.11 C10.41,28.77 11.01,28.51 11.57,28.19 C12.16,27.96 12.72,27.67 13.32,27.53 C13.62,27.45 13.9,27.38 14.19,27.31 C14.48,27.27 14.77,27.23 15.05,27.21 C15.6,27.13 16.15,27.17 16.63,27.18 C17.61,27.25 18.4,27.45 18.93,27.64 C19.47,27.83 19.74,28.01 19.74,28.01 C19.74,28.01 19.69,28.16 19.69,28.16 C19.69,28.16 19.68,28.15 19.68,28.15z "/><path id="_R_G_L_3_G_D_10_P_0" fill="#ae48c9" fill-opacity="1" fill-rule="nonzero" d=" M22.19 20.88 C22.19,20.88 22.11,20.53 21.9,19.94 C21.78,19.65 21.67,19.31 21.48,18.93 C21.32,18.55 21.07,18.14 20.83,17.69 C20.55,17.26 20.28,16.79 19.91,16.33 C19.59,15.85 19.16,15.42 18.77,14.92 C18.55,14.69 18.32,14.46 18.11,14.22 C17.9,13.97 17.67,13.73 17.41,13.51 C17.15,13.28 16.9,13.06 16.64,12.84 C16.39,12.61 16.08,12.43 15.81,12.22 C15.81,12.22 14.95,11.63 14.95,11.63 C14.65,11.46 14.35,11.29 14.05,11.12 C13.75,10.96 13.45,10.79 13.15,10.62 C12.84,10.49 12.53,10.35 12.23,10.21 C11.61,9.96 11.04,9.66 10.46,9.48 C9.89,9.28 9.34,9.09 8.84,8.91 C8.34,8.72 7.86,8.62 7.43,8.51 C7.01,8.4 6.64,8.29 6.34,8.22 C5.74,8.05 5.39,7.96 5.39,7.96 C5.39,7.96 5.41,7.8 5.41,7.8 C5.41,7.8 5.77,7.85 6.39,7.94 C6.71,7.99 7.09,8.04 7.52,8.11 C7.95,8.18 8.45,8.22 8.98,8.37 C9.51,8.49 10.08,8.62 10.69,8.77 C11.3,8.88 11.91,9.15 12.57,9.36 C12.89,9.47 13.22,9.58 13.55,9.7 C13.87,9.85 14.2,9.99 14.53,10.14 C14.86,10.29 15.19,10.44 15.53,10.6 C15.53,10.6 16.49,11.15 16.49,11.15 C16.81,11.34 17.15,11.51 17.45,11.73 C17.76,11.95 18.05,12.16 18.35,12.38 C18.66,12.58 18.94,12.82 19.2,13.07 C19.47,13.31 19.73,13.57 19.99,13.82 C20.42,14.38 20.88,14.89 21.18,15.49 C21.33,15.78 21.51,16.04 21.63,16.33 C21.74,16.61 21.85,16.89 21.96,17.16 C22.13,17.7 22.28,18.2 22.34,18.66 C22.42,19.11 22.43,19.51 22.44,19.83 C22.43,20.49 22.34,20.86 22.34,20.86 C22.34,20.86 22.18,20.86 22.18,20.86 C22.18,20.86 22.19,20.88 22.19,20.88z "/><path id="_R_G_L_3_G_D_11_P_0" fill="#ae48c9" fill-opacity="1" fill-rule="nonzero" d=" M15.41 42.45 C14.85,41.92 13.75,42.62 12.54,44.1 C11.32,45.57 11.15,46.36 11.75,46.7 C12.36,47.05 13.52,46.91 14.39,45.69 C15.26,44.48 16.19,43.21 15.41,42.45z "/><path id="_R_G_L_3_G_D_12_P_0" fill="#ae48c9" fill-opacity="1" fill-rule="nonzero" d=" M39.66 40.72 C39.25,41.36 39.71,42.11 40.27,42.98 C40.82,43.84 41.92,44.08 42.27,43.72 C42.62,43.37 42.32,42.51 41.46,41.53 C40.59,40.55 39.91,40.34 39.66,40.72z "/><path id="_R_G_L_3_G_D_13_P_0" fill="#ae48c9" fill-opacity="1" fill-rule="nonzero" d=" M45.16 22.97 C45.25,23.51 45.57,23.81 46.96,24.16 C48.36,24.5 49.11,24.29 49.28,23.82 C49.45,23.35 48.47,22.84 47.48,22.57 C46.5,22.31 45.11,22.61 45.16,22.97z "/><path id="_R_G_L_3_G_D_14_P_0" fill="#ae48c9" fill-opacity="1" fill-rule="nonzero" d=" M27.66 3.81 C26.98,3.66 26.85,3.25 26.88,2.21 C26.91,1.18 27.48,0.25 27.97,0.37 C28.46,0.48 28.52,1.58 28.44,2.33 C28.35,3.09 28.08,3.9 27.66,3.81z "/><path id="_R_G_L_3_G_D_15_P_0" fill="#ae48c9" fill-opacity="1" fill-rule="nonzero" d=" M4.02 18.61 C3.96,17.8 3.5,17.34 2.39,17.23 C1.29,17.11 0.37,17.51 0.3,18 C0.25,18.5 1.35,18.91 2.16,18.96 C2.97,19.02 4.04,18.99 4.01,18.62 C4.01,18.62 4.02,18.61 4.02,18.61z "/><path id="_R_G_L_3_G_D_16_P_0" fill="#f6d18c" fill-opacity="1" fill-rule="nonzero" d=" M3.43 7.41 C3.43,7.76 3.15,8.04 2.8,8.04 C2.44,8.04 2.16,7.76 2.16,7.41 C2.16,7.05 2.44,6.77 2.8,6.77 C3.15,6.77 3.43,7.05 3.43,7.41z "/><path id="_R_G_L_3_G_D_17_P_0" fill="#f6d18c" fill-opacity="1" fill-rule="nonzero" d=" M43.7 10.31 C43.7,10.66 43.42,10.94 43.06,10.94 C42.71,10.94 42.43,10.66 42.43,10.31 C42.43,9.95 42.71,9.67 43.06,9.67 C43.42,9.67 43.7,9.95 43.7,10.31z "/><path id="_R_G_L_3_G_D_18_P_0" fill="#f6d18c" fill-opacity="1" fill-rule="nonzero" d=" M49.11 34.25 C49.11,34.6 48.82,34.89 48.47,34.89 C48.11,34.89 47.83,34.6 47.83,34.25 C47.83,33.9 48.11,33.61 48.47,33.61 C48.82,33.61 49.11,33.9 49.11,34.25z "/><path id="_R_G_L_3_G_D_19_P_0" fill="#f6d18c" fill-opacity="1" fill-rule="nonzero" d=" M35.85 52.39 C35.85,52.74 35.57,53.02 35.21,53.02 C34.86,53.02 34.57,52.74 34.57,52.39 C34.57,52.03 34.86,51.75 35.21,51.75 C35.57,51.75 35.85,52.03 35.85,52.39z "/><path id="_R_G_L_3_G_D_20_P_0" fill="#f6d18c" fill-opacity="1" fill-rule="nonzero" d=" M2.16 37.92 C2.16,38.27 1.87,38.55 1.52,38.55 C1.16,38.55 0.88,38.27 0.88,37.92 C0.88,37.56 1.16,37.28 1.52,37.28 C1.87,37.28 2.16,37.56 2.16,37.92z "/></g><g id="_R_G_L_2_G" transform=" translate(413.191, 239.202)"><path id="_R_G_L_2_G_D_0_P_0" fill="#ae48c9" fill-opacity="1" fill-rule="nonzero" d=" M25.52 29 C26.48,29 27.26,28.23 27.26,27.27 C27.26,26.32 26.48,25.55 25.52,25.55 C24.56,25.55 23.79,26.32 23.79,27.27 C23.79,28.23 24.56,29 25.52,29z "/><path id="_R_G_L_2_G_D_1_P_0" fill="#ae48c9" fill-opacity="1" fill-rule="nonzero" d=" M32.08 22.8 C38.41,15.58 45.94,9.1 53.03,2.62 C54.03,1.72 52.54,0.25 51.56,1.15 C44.46,7.63 36.94,14.1 30.61,21.34 C29.72,22.34 31.2,23.82 32.08,22.8z "/><path id="_R_G_L_2_G_D_2_P_0" fill="#ae48c9" fill-opacity="1" fill-rule="nonzero" d=" M21.22 32.25 C14.1,39.72 8.84,48.78 2.63,56.97 C1.82,58.04 3.63,59.07 4.44,58.01 C10.55,49.96 15.71,41.06 22.71,33.72 C23.63,32.74 22.16,31.27 21.23,32.25 C21.23,32.25 21.22,32.25 21.22,32.25z "/><path id="_R_G_L_2_G_D_3_P_0" fill="#ae48c9" fill-opacity="1" fill-rule="nonzero" d=" M30.61 32.5 C34.32,35.63 37.4,39.72 40.82,43.18 C44.42,46.84 47.68,50.87 51.65,54.16 C52.67,55 54.15,53.54 53.12,52.69 C49.48,49.67 46.46,46.01 43.18,42.62 C39.53,38.84 36.09,34.41 32.08,31.04 C31.07,30.18 29.57,31.64 30.61,32.5z "/><path id="_R_G_L_2_G_D_4_P_0" fill="#ae48c9" fill-opacity="1" fill-rule="nonzero" d=" M1.35 11.02 C4.74,13.29 8.11,15.55 11.51,17.8 C14.52,19.79 17.75,21.52 20.44,23.93 C21.44,24.83 22.92,23.36 21.92,22.47 C19.42,20.22 16.52,18.58 13.71,16.76 C9.91,14.3 6.16,11.75 2.41,9.23 C1.29,8.48 0.25,10.28 1.35,11.03 C1.35,11.03 1.35,11.02 1.35,11.02z "/><path id="_R_G_L_2_G_D_5_P_0" fill="#ae48c9" fill-opacity="1" fill-rule="nonzero" d=" M24.39 8.22 C24.18,10.14 24.61,12.03 24.85,13.93 C25.17,16.42 25.32,18.96 25.44,21.47 C25.5,22.8 27.59,22.81 27.53,21.47 C27.41,19.21 27.19,16.97 27,14.71 C26.82,12.55 26.24,10.4 26.48,8.22 C26.63,6.89 24.54,6.9 24.39,8.22z "/><path id="_R_G_L_2_G_D_6_P_0" fill="#ae48c9" fill-opacity="1" fill-rule="nonzero" d=" M32.39 27.09 C37.58,27.05 42.59,25.49 47.77,25.44 C49.12,25.44 49.12,23.35 47.77,23.36 C42.59,23.4 37.57,24.97 32.39,25.01 C31.04,25.02 31.04,27.1 32.39,27.09z "/><path id="_R_G_L_2_G_D_7_P_0" fill="#ae48c9" fill-opacity="1" fill-rule="nonzero" d=" M25.39 33.61 C26.16,38.47 25.77,43.42 26.86,48.24 C27.16,49.55 29.17,49 28.87,47.69 C27.78,42.88 28.16,37.91 27.4,33.06 C27.19,31.74 25.18,32.3 25.39,33.61z "/><path id="_R_G_L_2_G_D_8_P_0" fill="#ae48c9" fill-opacity="1" fill-rule="nonzero" d=" M2.23 31.95 C7.62,31.4 12.99,30.71 18.33,29.83 C19.66,29.61 19.09,27.61 17.78,27.83 C12.62,28.69 7.43,29.34 2.24,29.87 C0.91,30.01 0.9,32.09 2.24,31.95 C2.24,31.95 2.23,31.95 2.23,31.95z "/><path id="_R_G_L_2_G_D_9_P_0" fill="#e476a7" fill-opacity="1" fill-rule="nonzero" d=" M23.12 38.41 C22.89,38.18 16.8,46.03 18.31,47.13 C19.81,48.23 23.12,38.41 23.12,38.41z "/><path id="_R_G_L_2_G_D_10_P_0" fill="#e476a7" fill-opacity="1" fill-rule="nonzero" d=" M30.54 38.4 C30.54,38.4 32.8,49.67 34.53,49.26 C36.28,48.86 30.54,38.4 30.54,38.4z "/><path id="_R_G_L_2_G_D_11_P_0" fill="#e476a7" fill-opacity="1" fill-rule="nonzero" d=" M35.4 29.87 C35.4,29.87 50.53,32.58 50.01,34.37 C49.48,36.16 35.4,29.87 35.4,29.87z "/><path id="_R_G_L_2_G_D_12_P_0" fill="#e476a7" fill-opacity="1" fill-rule="nonzero" d=" M34.42 22.88 C34.42,22.88 46.94,15.13 47.77,16.38 C48.62,17.63 34.42,22.88 34.42,22.88z "/><path id="_R_G_L_2_G_D_13_P_0" fill="#e476a7" fill-opacity="1" fill-rule="nonzero" d=" M29.67 17.39 C29.67,17.39 31.52,6.36 33.61,7 C35.7,7.63 29.67,17.39 29.67,17.39z "/><path id="_R_G_L_2_G_D_14_P_0" fill="#e476a7" fill-opacity="1" fill-rule="nonzero" d=" M16.8 24.84 C16.8,24.84 7.01,19.53 6.31,21.09 C5.62,22.65 16.8,24.84 16.8,24.84z "/><path id="_R_G_L_2_G_D_15_P_0" fill="#e476a7" fill-opacity="1" fill-rule="nonzero" d=" M18.07 31.77 C18.02,31.77 7.24,34.77 8.34,36.68 C9.44,38.58 18.02,31.77 18.02,31.77 "/><path id="_R_G_L_2_G_D_16_P_0" fill="#ae48c9" fill-opacity="1" fill-rule="nonzero" d=" M54.01 35.5 C54.01,35.95 53.65,36.31 53.2,36.31 C52.75,36.31 52.39,35.95 52.39,35.5 C52.39,35.05 52.75,34.69 53.2,34.69 C53.65,34.69 54.01,35.05 54.01,35.5z "/><path id="_R_G_L_2_G_D_17_P_0" fill="#ae48c9" fill-opacity="1" fill-rule="nonzero" d=" M18.13 50.09 C18.13,50.53 17.77,50.9 17.32,50.9 C16.87,50.9 16.51,50.53 16.51,50.09 C16.51,49.64 16.87,49.28 17.32,49.28 C17.77,49.28 18.13,49.64 18.13,50.09z "/><path id="_R_G_L_2_G_D_18_P_0" fill="#ae48c9" fill-opacity="1" fill-rule="nonzero" d=" M36.49 51.7 C36.49,52.14 36.13,52.51 35.68,52.51 C35.23,52.51 34.87,52.14 34.87,51.7 C34.87,51.25 35.23,50.89 35.68,50.89 C36.13,50.89 36.49,51.25 36.49,51.7z "/><path id="_R_G_L_2_G_D_19_P_0" fill="#ae48c9" fill-opacity="1" fill-rule="nonzero" d=" M50.83 15.27 C50.83,15.72 50.47,16.08 50.02,16.08 C49.57,16.08 49.21,15.72 49.21,15.27 C49.21,14.82 49.57,14.46 50.02,14.46 C50.47,14.46 50.83,14.82 50.83,15.27z "/><path id="_R_G_L_2_G_D_20_P_0" fill="#ae48c9" fill-opacity="1" fill-rule="nonzero" d=" M35.68 4.28 C35.68,4.73 35.31,5.09 34.86,5.09 C34.42,5.09 34.05,4.73 34.05,4.28 C34.05,3.83 34.42,3.47 34.86,3.47 C35.31,3.47 35.68,3.83 35.68,4.28z "/><path id="_R_G_L_2_G_D_21_P_0" fill="#ae48c9" fill-opacity="1" fill-rule="nonzero" d=" M4.34 20.37 C4.34,20.82 3.98,21.18 3.53,21.18 C3.08,21.18 2.72,20.82 2.72,20.37 C2.72,19.92 3.08,19.56 3.53,19.56 C3.98,19.56 4.34,19.92 4.34,20.37z "/><path id="_R_G_L_2_G_D_22_P_0" fill="#ae48c9" fill-opacity="1" fill-rule="nonzero" d=" M16.43 8.75 C16.43,9.16 16.1,9.49 15.69,9.49 C15.28,9.49 14.95,9.16 14.95,8.75 C14.95,8.34 15.28,8.01 15.69,8.01 C16.1,8.01 16.43,8.34 16.43,8.75z "/><path id="_R_G_L_2_G_D_23_P_0" fill="#ae48c9" fill-opacity="1" fill-rule="nonzero" d=" M6.74 38.41 C6.74,38.85 6.38,39.22 5.93,39.22 C5.48,39.22 5.12,38.85 5.12,38.41 C5.12,37.96 5.48,37.6 5.93,37.6 C6.38,37.6 6.74,37.96 6.74,38.41z "/><path id="_R_G_L_2_G_D_24_P_0" fill="#e476a7" fill-opacity="1" fill-rule="nonzero" d=" M21.96 19.07 C21.96,19.07 15.92,12.53 17.14,11.48 C18.35,10.42 21.96,19.07 21.96,19.07z "/></g><g id="_R_G_L_1_G" transform=" translate(334.469, 338.517)"><path id="_R_G_L_1_G_D_0_P_0" fill="#d1caff" fill-opacity="1" fill-rule="nonzero" d=" M36.28 2.25 C35.88,1.64 30.54,0.25 17.83,2.49 C5.12,4.73 0.58,7.87 0.42,8.58 C0.25,9.28 1.61,14.92 4.63,19.19 C8.67,24.89 13.73,27.48 21.98,26.03 C30.24,24.57 34.1,20.4 35.95,13.67 C37.33,8.62 36.68,2.86 36.28,2.25z "/><path id="_R_G_L_1_G_D_1_P_0" fill="#3739ba" fill-opacity="1" fill-rule="nonzero" d=" M2.11 8.76 C2.31,9.89 3.78,10.5 18.78,7.86 C33.77,5.22 35.06,4.21 34.84,2.99 C34.63,1.77 26.34,2.45 18.08,3.91 C9.83,5.36 1.88,7.44 2.11,8.76z "/><path id="_R_G_L_1_G_D_2_P_0" fill="#f7d18c" fill-opacity="1" fill-rule="nonzero" d=" M4.98 14.85 C4.98,14.85 9.25,12.81 17.25,13.08 C25.26,13.35 34.29,10.59 34.29,10.59 C34.29,10.59 34.17,14.92 30.29,18.94 C26.87,22.47 20.76,24.44 15.79,23.69 C10.84,22.95 6.97,19.16 4.97,14.86 C4.97,14.86 4.98,14.85 4.98,14.85z "/><path id="_R_G_L_1_G_D_3_P_0" fill="#ffffff" fill-opacity="1" fill-rule="nonzero" d=" M13.61 16.11 C13.73,16.77 13.28,17.4 12.62,17.52 C11.96,17.64 11.32,17.2 11.21,16.54 C11.09,15.88 11.54,15.25 12.2,15.13 C12.86,15.01 13.5,15.45 13.61,16.11z "/><path id="_R_G_L_1_G_D_4_P_0" fill="#ffffff" fill-opacity="1" fill-rule="nonzero" d=" M21.16 18.21 C21.37,19.39 20.58,20.51 19.39,20.72 C18.2,20.93 17.07,20.15 16.86,18.97 C16.65,17.79 17.44,16.67 18.63,16.46 C19.82,16.25 20.95,17.03 21.16,18.21z "/><path id="_R_G_L_1_G_D_5_P_0" fill="#ffffff" fill-opacity="1" fill-rule="nonzero" d=" M15.39 19.55 C15.45,19.86 15.24,20.17 14.92,20.22 C14.6,20.28 14.3,20.07 14.25,19.75 C14.19,19.44 14.4,19.14 14.72,19.09 C15.03,19.03 15.34,19.24 15.39,19.55z "/><path id="_R_G_L_1_G_D_6_P_0" fill="#ffffff" fill-opacity="1" fill-rule="nonzero" d=" M23.14 15.93 C23.54,15.86 23.81,15.47 23.74,15.08 C23.67,14.68 23.28,14.41 22.88,14.48 C22.48,14.55 22.21,14.93 22.28,15.33 C22.35,15.73 22.73,16 23.14,15.93z "/><path id="_R_G_L_1_G_D_7_P_0" fill="#ffffff" fill-opacity="1" fill-rule="nonzero" d=" M28.87 15.51 C29,16.23 28.52,16.92 27.79,17.05 C27.06,17.18 26.37,16.7 26.24,15.98 C26.11,15.25 26.6,14.57 27.33,14.44 C28.06,14.31 28.74,14.79 28.87,15.51z "/><path id="_R_G_L_1_G_D_8_P_0" fill="#ffffff" fill-opacity="1" fill-rule="nonzero" d=" M25.53 19 C25.95,18.92 26.23,18.52 26.16,18.11 C26.08,17.7 25.69,17.42 25.27,17.49 C24.85,17.57 24.57,17.96 24.65,18.38 C24.72,18.79 25.12,19.07 25.53,19z "/><path id="_R_G_L_1_G_D_9_P_0" fill="#ffffff" fill-opacity="1" fill-rule="nonzero" d=" M4.31 12.62 C3.49,12.93 3.83,15.65 5.88,18.16 C7.91,20.68 10.33,21.97 11.02,21.08 C11.71,20.18 9.46,18.56 7.8,16.92 C6.14,15.27 5.9,12.01 4.31,12.62z "/><path id="_R_G_L_1_G_D_10_P_0" fill="#d1caff" fill-opacity="1" fill-rule="nonzero" d=" M27.89 56.37 C20.24,57.72 20.05,57.04 19.93,56.35 C19.81,55.66 23.38,52.96 24.24,51.58 C25.1,50.19 25.31,48.41 25.31,48.41 C25.31,48.41 21.19,25.06 21.19,25.06 C21.19,25.06 23.47,24.66 23.47,24.66 C23.47,24.66 27.58,48.01 27.58,48.01 C27.58,48.01 28.39,49.61 29.68,50.62 C30.97,51.62 35.24,52.94 35.36,53.63 C35.48,54.32 35.55,55.02 27.89,56.37z "/><path id="_R_G_L_1_G_D_11_P_0" fill="#3739ba" fill-opacity="1" fill-rule="nonzero" d=" M26.59 49 C26.59,49 25.93,51.74 24.9,52.84 C23.87,53.95 21.73,55.64 21.78,55.92 C21.83,56.2 23.49,56 27.69,55.26 C31.9,54.52 33.07,54.27 32.99,53.8 C32.91,53.33 30.83,53.16 29.57,52.12 C28.3,51.08 26.58,49.01 26.58,49.01 C26.58,49.01 26.59,49 26.59,49z "/><path id="_R_G_L_1_G_D_12_P_0" stroke="#ffffff" stroke-linecap="round" stroke-linejoin="round" fill="none" stroke-width="1" stroke-opacity="1" d=" M22.86 29.18 C22.86,29.18 25.86,46.22 25.86,46.22 "/></g><g id="_R_G_L_0_G" transform=" translate(368.317, 335.872)"><path id="_R_G_L_0_G_D_0_P_0" fill="#d1caff" fill-opacity="1" fill-rule="nonzero" d=" M7.86 80.59 C0.25,79.02 0.32,78.32 0.47,77.63 C0.61,76.95 4.92,75.75 6.23,74.78 C7.55,73.82 8.4,72.23 8.4,72.23 C8.4,72.23 13.85,45.7 13.85,45.7 C13.85,45.7 16.11,46.17 16.11,46.17 C16.11,46.17 10.66,72.7 10.66,72.7 C10.66,72.7 10.82,74.49 11.64,75.9 C12.47,77.3 15.96,80.1 15.82,80.79 C15.68,81.48 15.47,82.15 7.86,80.59z "/><path id="_R_G_L_0_G_D_1_P_0" fill="#3739ba" fill-opacity="1" fill-rule="nonzero" d=" M9.37 73.26 C9.37,73.26 7.75,75.56 6.38,76.21 C5.02,76.85 2.4,77.63 2.34,77.91 C2.29,78.19 3.9,78.63 8.09,79.49 C12.27,80.35 13.46,80.54 13.55,80.07 C13.65,79.61 11.77,78.68 10.98,77.25 C10.2,75.82 9.36,73.26 9.36,73.26 C9.36,73.26 9.37,73.26 9.37,73.26z "/><path id="_R_G_L_0_G_D_2_P_0" stroke="#ffffff" stroke-linecap="round" stroke-linejoin="round" fill="none" stroke-width="1" stroke-opacity="1" d=" M13.2 53.45 C13.2,53.45 9.72,70.4 9.72,70.4 "/><path id="_R_G_L_0_G_D_3_P_0" fill="#d1caff" fill-opacity="1" fill-rule="nonzero" d=" M23.77 1.16 C19.9,0.37 13.63,0.25 13.51,0.81 C13.51,0.81 6.63,34.34 6.63,34.34 C5.66,39.02 8.97,45.41 14.45,46.54 C19.93,47.67 25.49,43.09 26.45,38.41 C26.45,38.41 33.34,4.89 33.34,4.89 C33.45,4.33 27.64,1.96 23.77,1.16z "/><path id="_R_G_L_0_G_D_4_P_0" fill="#3739ba" fill-opacity="1" fill-rule="nonzero" d=" M14.31 1.76 C14.45,1.1 20.15,1.35 23.59,2.05 C27.04,2.76 32.23,4.76 32.1,5.41 C31.96,6.07 26.94,5.13 23.05,4.33 C19.15,3.53 14.17,2.4 14.3,1.75 C14.3,1.75 14.31,1.76 14.31,1.76z "/><path id="_R_G_L_0_G_D_5_P_0" fill="#e476a7" fill-opacity="1" fill-rule="nonzero" d=" M12.47 14.07 C12.47,14.07 16.63,14.87 19.57,17.28 C22.52,19.7 28.58,20.11 28.58,20.11 C28.58,20.11 25.17,36.73 25.17,36.73 C24.83,38.37 21.1,45.95 14.84,44.66 C8.57,43.37 7.97,35.98 8.54,33.17 C8.54,33.17 12.47,14.07 12.47,14.07z "/><path id="_R_G_L_0_G_D_6_P_0" fill="#ffffff" fill-opacity="1" fill-rule="nonzero" d=" M17.49 25.54 C18.74,25.8 19.96,25 20.21,23.76 C20.47,22.53 19.66,21.31 18.41,21.06 C17.16,20.8 15.94,21.6 15.69,22.84 C15.43,24.07 16.24,25.29 17.49,25.54z "/><path id="_R_G_L_0_G_D_7_P_0" fill="#ffffff" fill-opacity="1" fill-rule="nonzero" d=" M22.14 22.16 C22.55,22.24 22.94,21.99 23.02,21.58 C23.11,21.18 22.85,20.79 22.44,20.71 C22.04,20.62 21.64,20.88 21.56,21.28 C21.48,21.69 21.74,22.08 22.14,22.16z "/><path id="_R_G_L_0_G_D_8_P_0" fill="#ffffff" fill-opacity="1" fill-rule="nonzero" d=" M22.5 28.91 C22.34,29.69 21.58,30.19 20.79,30.02 C20.01,29.86 19.5,29.1 19.66,28.33 C19.82,27.56 20.58,27.06 21.37,27.22 C22.15,27.38 22.66,28.14 22.5,28.91z "/><path id="_R_G_L_0_G_D_9_P_0" fill="#ffffff" fill-opacity="1" fill-rule="nonzero" d=" M14.97 29.64 C15.51,29.75 16.04,29.4 16.15,28.87 C16.26,28.33 15.91,27.8 15.36,27.69 C14.82,27.58 14.3,27.92 14.18,28.46 C14.07,29 14.42,29.53 14.97,29.64z "/><path id="_R_G_L_0_G_D_10_P_0" fill="#ffffff" fill-opacity="1" fill-rule="nonzero" d=" M17.01 35.77 C16.71,37.23 15.27,38.17 13.8,37.87 C12.33,37.57 11.37,36.13 11.67,34.67 C11.97,33.21 13.41,32.27 14.89,32.57 C16.36,32.88 17.31,34.31 17.01,35.77z "/><path id="_R_G_L_0_G_D_11_P_0" fill="#ffffff" fill-opacity="1" fill-rule="nonzero" d=" M18.28 33.41 C18.69,33.5 19.1,33.23 19.18,32.82 C19.27,32.41 19,32.01 18.58,31.92 C18.17,31.84 17.76,32.1 17.68,32.51 C17.59,32.93 17.86,33.33 18.28,33.41z "/><path id="_R_G_L_0_G_D_12_P_0" fill="#ffffff" fill-opacity="1" fill-rule="nonzero" d=" M21.13 38.47 C20.96,39.29 20.16,39.81 19.34,39.64 C18.52,39.47 17.99,38.67 18.16,37.86 C18.33,37.05 19.13,36.52 19.95,36.69 C20.77,36.86 21.3,37.66 21.13,38.47z "/><path id="_R_G_L_0_G_D_13_P_0" fill="#ffffff" fill-opacity="1" fill-rule="nonzero" d=" M15.26 5.66 C14.44,5.49 13.95,6.89 12.99,11.57 C12.99,11.57 8.72,32.36 8.72,32.36 C8.34,34.19 8.5,35.05 9.19,35.19 C9.88,35.33 10.46,34.41 11.06,31.48 C11.06,31.48 15.71,8.87 15.71,8.87 C16.15,6.75 16.01,5.81 15.26,5.66 C15.26,5.66 15.26,5.66 15.26,5.66z "/></g></g><g id="time_group"/></svg>