<svg width="117" height="114" viewBox="0 0 117 114" fill="none" xmlns="http://www.w3.org/2000/svg">
<path d="M59.71 106.48C83.2926 106.48 102.41 87.3625 102.41 63.78C102.41 40.1974 83.2926 21.08 59.71 21.08C36.1275 21.08 17.01 40.1974 17.01 63.78C17.01 87.3625 36.1275 106.48 59.71 106.48Z" fill="#D1CAFF"/>
<path d="M48.5801 30.1C48.5801 30.1 46.0101 35.7 43.5301 47.58C43.5301 47.58 31.7301 49.38 26.0701 52.54C26.0701 52.54 27.6301 41.14 31.6301 35.68C31.6301 35.68 39.0701 32 48.5801 30.1Z" fill="#A9A4FF"/>
<path d="M35.29 29.04C35.29 29.04 32.76 33.29 31.62 35.69L24.98 39.36C24.98 39.36 28.61 33.17 35.29 29.05V29.04Z" fill="#A9A4FF"/>
<path d="M70.7 30.0699C70.7 30.0699 74.7199 37.7299 75.7599 47.5599C75.7599 47.5599 86.62 48.9399 93.16 52.5399C93.16 52.5399 91.6399 42.7399 87.6299 35.6099C87.6299 35.6099 81.15 31.6799 70.7 30.0799V30.0699Z" fill="#A9A4FF"/>
<path d="M43.5 79.83C43.5 79.83 59.63 82.87 75.91 79.83C75.91 79.83 74.33 88.84 70.76 97.33C70.76 97.33 57.89 99.8 48.51 97.3C48.51 97.3 44.39 87.49 43.5 79.83Z" fill="#A9A4FF"/>
<path d="M87.71 91.77C87.71 91.77 86.02 96.15 82.95 99.59C82.95 99.59 90.62 93.61 94.31 88.14L87.71 91.76V91.77Z" fill="#A9A4FF"/>
<path d="M93.1599 52.54C93.1599 52.54 96.6999 63.15 93.1999 75.15C93.1999 75.15 100.17 71.78 102.41 68.66V58.78C102.41 58.78 100.22 55.49 93.1599 52.53V52.54Z" fill="#A9A4FF"/>
<path d="M75.77 47.56C75.77 47.56 63.07 44.77 43.53 47.58C43.53 47.58 44.52 37.21 48.58 30.1C48.58 30.1 61.8 27.75 70.71 30.07C70.71 30.07 75.45 37.73 75.77 47.56Z" fill="white"/>
<path d="M26.06 52.54C26.06 52.54 23.71 62.99 26.02 74.76C26.02 74.76 21 72.59 17.02 69.47C17.02 69.47 17.22 62.48 17.02 57.38C17.02 57.38 20.97 54.4 26.07 52.53L26.06 52.54Z" fill="white"/>
<path d="M31.55 91.69C31.55 91.69 26.99 83.43 26.02 74.76C26.02 74.76 34.17 78.74 43.51 79.82C43.51 79.82 43.9 88.63 48.52 97.29C48.52 97.29 37.01 94.62 31.55 91.68V91.69Z" fill="white"/>
<path d="M70.77 97.33C70.77 97.33 82.6 94.58 87.71 91.77C87.71 91.77 91.8 82.86 93.2 75.16C93.2 75.16 84.81 78.71 75.91 79.83C75.91 79.83 75.04 88.1 70.76 97.33H70.77Z" fill="white"/>
<path d="M84.12 28.48C84.12 28.48 86.72 33.13 87.63 35.61C87.63 35.61 80.62 31.1 70.7 30.08C70.7 30.08 68.24 24.15 64.72 21.1C64.72 21.1 75.64 22.53 84.12 28.48Z" fill="white"/>
<path d="M53.8801 21.47C53.8801 21.47 42.3101 33.34 42.3101 63.77C42.3101 94.2 53.8801 106.07 53.8801 106.07" stroke="#3739BA" stroke-miterlimit="10"/>
<path d="M35.67 28.48C35.67 28.48 24.98 43.63 24.98 63.77C24.98 83.91 35.67 99.06 35.67 99.06" stroke="#3739BA" stroke-miterlimit="10"/>
<path d="M65.4199 21.47C65.4199 21.47 76.9899 33.34 76.9899 63.77C76.9899 94.2 65.4199 106.07 65.4199 106.07" stroke="#3739BA" stroke-miterlimit="10"/>
<path d="M83.6299 28.48C83.6299 28.48 94.3199 43.63 94.3199 63.77C94.3199 83.91 83.6299 99.06 83.6299 99.06" stroke="#3739BA" stroke-miterlimit="10"/>
<path d="M102.01 57.93C102.01 57.93 90.1399 46.36 59.7099 46.36C29.2799 46.36 17.4099 57.93 17.4099 57.93" stroke="#3739BA" stroke-miterlimit="10"/>
<path d="M94.9999 39.73C94.9999 39.73 79.8499 29.04 59.7099 29.04C39.5699 29.04 24.4199 39.73 24.4199 39.73" stroke="#3739BA" stroke-miterlimit="10"/>
<path d="M102.01 69.48C102.01 69.48 90.1399 81.05 59.7099 81.05C29.2799 81.05 17.4099 69.48 17.4099 69.48" stroke="#3739BA" stroke-miterlimit="10"/>
<path d="M94.9999 87.6801C94.9999 87.6801 79.8499 98.3701 59.7099 98.3701C39.5699 98.3701 24.4199 87.6801 24.4199 87.6801" stroke="#3739BA" stroke-miterlimit="10"/>
<path d="M59.71 106.48C83.2926 106.48 102.41 87.3625 102.41 63.78C102.41 40.1974 83.2926 21.08 59.71 21.08C36.1275 21.08 17.01 40.1974 17.01 63.78C17.01 87.3625 36.1275 106.48 59.71 106.48Z" stroke="#3739BA" stroke-width="2" stroke-miterlimit="10"/>
<path d="M59.71 21.07V1" stroke="#3739BA" stroke-width="2" stroke-miterlimit="10" stroke-linecap="round"/>
<g clip-path="url(#clip0_3564_239)">
<path d="M32.799 92.2774C31.6365 91.5843 30.3978 90.8442 29.159 90.1066C27.9105 89.3863 26.6595 88.6636 25.4871 87.9903C25.2315 87.8418 24.9808 87.7007 24.7326 87.5596L37.9653 88.9383L25.5043 85.2081C25.6346 85.1982 25.7624 85.1908 25.8951 85.1784C27.0208 85.0918 28.2202 85.0002 29.4196 84.9061C30.619 84.7923 31.8159 84.6784 32.9416 84.572C34.0648 84.468 35.1118 84.3319 36.0089 84.2353C37.803 84.0249 38.9975 83.8467 38.9975 83.8467C38.9975 83.8467 37.7908 83.8764 35.9868 83.9754C35.0872 84.0324 34.0328 84.0794 32.9072 84.1685C31.7815 84.2551 30.5796 84.3492 29.3802 84.4408C28.1833 84.5546 26.9839 84.6685 25.8607 84.7749C25.5707 84.8022 25.2831 84.8319 25.0054 84.8616L35.945 77.416L24.1845 83.1289C24.3688 82.8839 24.5532 82.6388 24.74 82.3839C25.6321 81.1784 26.5833 79.8913 27.5345 78.6066C28.4684 77.3096 29.4024 76.0101 30.2798 74.7923C31.1572 73.5769 31.9462 72.421 32.6393 71.4383C34.0107 69.468 34.893 68.1314 34.893 68.1314C34.893 68.1314 33.8903 69.3789 32.4303 71.2848C31.7078 72.2428 30.8475 73.3467 29.9554 74.5546C29.0632 75.7601 28.112 77.0472 27.1609 78.3319C26.2269 79.6289 25.293 80.9284 24.418 82.1438C24.0936 82.5942 23.7839 83.0324 23.484 83.4606C23.4767 83.4532 23.4693 83.4457 23.4619 83.4408L27.0503 69.8962L21.8472 81.6883C21.9258 80.4754 22.0069 79.1982 22.0905 77.9136C22.1568 76.5497 22.2232 75.1858 22.2871 73.9086C22.351 72.6314 22.3756 71.4358 22.4149 70.4111C22.4764 68.3641 22.4764 66.9952 22.4764 66.9952C22.4764 66.9952 22.324 68.3542 22.1544 70.3962C22.0782 71.416 21.9676 72.6091 21.8865 73.8839C21.8054 75.1611 21.7169 76.5225 21.6284 77.8863C21.5621 79.2502 21.4957 80.614 21.4318 81.8938C21.422 82.0769 21.4146 82.2576 21.4097 82.4358C21.2598 82.416 21.1074 82.4012 20.9525 82.3987L15.4373 69.8987L18.3399 81.6933C18.2342 81.5546 18.131 81.4185 18.0204 81.2774C17.1749 80.1883 16.2705 79.0249 15.3685 77.8616C14.4493 76.7106 13.53 75.5621 12.6698 74.4829C11.8096 73.4037 10.9789 72.4185 10.2809 71.5645C8.8701 69.8641 7.90174 68.7551 7.90174 68.7551C7.90174 68.7551 8.75459 69.9581 10.0769 71.7279C10.7454 72.6066 11.5098 73.6462 12.3552 74.7353C13.2007 75.8244 14.1052 76.9878 15.0072 78.1512C15.9264 79.3022 16.8456 80.4507 17.7083 81.5274C17.9958 81.8913 18.2785 82.2353 18.5587 82.5744L18.6938 83.1339C18.6938 83.1339 18.6889 83.1363 18.6865 83.1388L6.53767 77.416L17.0766 85.1462C16.0394 85.02 14.9629 84.8913 13.8791 84.7601C12.6084 84.6264 11.3353 84.4952 10.1457 84.3715C8.95366 84.2452 7.83783 84.1636 6.88422 84.0744C4.97207 83.916 3.69402 83.8467 3.69402 83.8467C3.69402 83.8467 4.95486 84.0645 6.85472 84.3343C7.80342 84.4606 8.91188 84.6289 10.1014 84.7725C11.291 84.916 12.5617 85.0695 13.8299 85.2205C14.8744 85.3294 15.9067 85.4383 16.907 85.5423L4.52475 88.9358L16.3958 88.5522C16.0271 88.7428 15.6536 88.9358 15.2726 89.1388C13.9528 89.8368 12.542 90.5819 11.1313 91.3269C9.73278 92.0893 8.33185 92.8541 7.01939 93.5695C5.70694 94.2824 4.49771 94.9804 3.45316 95.5645C1.37142 96.7452 0.00244141 97.567 0.00244141 97.567C0.00244141 97.567 1.4427 96.8789 3.57605 95.7972C4.63781 95.2477 5.88882 94.6264 7.20864 93.9284C8.52847 93.2304 9.93923 92.4853 11.35 91.7403C12.7509 90.9779 14.1494 90.2131 15.4619 89.4977C16.005 89.2032 16.5236 88.9136 17.0275 88.6289L10.3349 99.067L19.237 90.1314C18.6422 91.3269 17.9786 92.6586 17.2683 94.0819C16.4425 95.7774 15.5602 97.5868 14.6778 99.3938C13.8151 101.211 12.9525 103.027 12.1414 104.733C11.3303 106.436 10.6053 108.042 9.96873 109.409C8.71035 112.151 7.90419 113.998 7.90419 113.998C7.90419 113.998 8.84306 112.218 10.2022 109.522C10.8732 108.171 11.6769 106.604 12.5002 104.909C13.326 103.213 14.2084 101.404 15.0883 99.5942C15.951 97.7774 16.8136 95.9606 17.6247 94.2551C18.303 92.7947 18.9372 91.4309 19.5024 90.2056L21.245 103.062L22.233 90.0621C22.383 90.5596 22.5378 91.0695 22.6926 91.5893C23.2923 93.5175 23.9289 95.5769 24.5655 97.6339C25.2241 99.6834 25.8828 101.735 26.4973 103.659C27.1289 105.577 27.7188 107.367 28.2251 108.901C29.25 111.966 29.9677 113.998 29.9677 113.998C29.9677 113.998 29.3901 111.921 28.4733 108.822C28.0063 107.275 27.4632 105.468 26.8807 103.537C26.2834 101.609 25.6444 99.5497 25.0054 97.4928C24.3467 95.4433 23.6905 93.3913 23.0736 91.468C22.8991 90.9433 22.732 90.4309 22.5673 89.9284L32.16 99.0621L24.2533 87.7155C24.2533 87.7155 24.2533 87.7106 24.2558 87.7081C24.5925 87.9136 24.9341 88.124 25.288 88.3343C26.4506 89.0274 27.6893 89.7675 28.928 90.5051C30.1766 91.2254 31.4276 91.9482 32.5975 92.6239C33.7674 93.3022 34.8783 93.9012 35.8221 94.4334C37.717 95.4804 38.9975 96.1462 38.9975 96.1462C38.9975 96.1462 37.7908 95.3517 35.9523 94.2081C35.0282 93.6438 33.9615 92.968 32.799 92.2774Z" fill="white"/>
</g>
<g clip-path="url(#clip1_3564_239)">
<path d="M110.64 43.8151C109.448 43.1073 108.177 42.3514 106.907 41.5981C105.626 40.8625 104.343 40.1243 103.141 39.4367C102.878 39.2851 102.621 39.141 102.367 38.9969L115.939 40.4049L103.158 36.5954C103.292 36.5853 103.423 36.5777 103.559 36.565C104.714 36.4766 105.944 36.383 107.174 36.287C108.404 36.1707 109.632 36.0544 110.786 35.9457C111.938 35.8395 113.012 35.7005 113.932 35.6019C115.772 35.387 116.997 35.205 116.997 35.205C116.997 35.205 115.76 35.2354 113.909 35.3365C112.987 35.3946 111.905 35.4426 110.751 35.5336C109.596 35.6221 108.364 35.7182 107.134 35.8117C105.906 35.928 104.676 36.0443 103.524 36.153C103.226 36.1808 102.931 36.2111 102.647 36.2415L113.867 28.6375L101.805 34.4719C101.994 34.2217 102.183 33.9714 102.374 33.711C103.289 32.4799 104.265 31.1654 105.24 29.8534C106.198 28.5288 107.156 27.2017 108.056 25.9579C108.956 24.7167 109.765 23.5362 110.476 22.5326C111.883 20.5204 112.788 19.1553 112.788 19.1553C112.788 19.1553 111.759 20.4294 110.262 22.3759C109.521 23.3542 108.638 24.4816 107.723 25.7152C106.808 26.9463 105.833 28.2608 104.857 29.5728C103.899 30.8975 102.941 32.2246 102.044 33.4658C101.711 33.9259 101.394 34.3733 101.086 34.8107C101.079 34.8031 101.071 34.7955 101.063 34.7904L104.744 20.9577L99.4073 33.0007C99.4879 31.762 99.5711 30.4576 99.6568 29.1456C99.7249 27.7527 99.793 26.3599 99.8585 25.0555C99.924 23.7511 99.9493 22.5301 99.9896 21.4835C100.053 19.3929 100.053 17.995 100.053 17.995C100.053 17.995 99.8963 19.3828 99.7224 21.4683C99.6442 22.5098 99.5308 23.7283 99.4476 25.0302C99.3644 26.3346 99.2737 27.7249 99.1829 29.1178C99.1149 30.5107 99.0468 31.9036 98.9813 33.2105C98.9712 33.3976 98.9636 33.5821 98.9586 33.7641C98.8048 33.7439 98.6485 33.7287 98.4897 33.7262L92.833 20.9602L95.8101 33.0057C95.7017 32.8642 95.5958 32.7251 95.4824 32.581C94.6152 31.4688 93.6876 30.2806 92.7625 29.0925C91.8197 27.9171 90.8769 26.7441 89.9946 25.6419C89.1123 24.5398 88.2603 23.5337 87.5444 22.6615C86.0975 20.9248 85.1043 19.7923 85.1043 19.7923C85.1043 19.7923 85.979 21.0209 87.3352 22.8284C88.0208 23.7258 88.8048 24.7875 89.672 25.8998C90.5391 27.0121 91.4668 28.2002 92.3919 29.3883C93.3347 30.5638 94.2775 31.7367 95.1623 32.8364C95.4572 33.208 95.7471 33.5594 96.0345 33.9057L96.1731 34.477C96.1731 34.477 96.1681 34.4795 96.1655 34.482L83.7052 28.6375L94.5144 36.5322C93.4506 36.4033 92.3465 36.2718 91.2349 36.1378C89.9316 36.0013 88.6258 35.8673 87.4058 35.7409C86.1832 35.612 85.0387 35.5286 84.0607 35.4376C82.0995 35.2758 80.7887 35.205 80.7887 35.205C80.7887 35.205 82.0818 35.4275 84.0304 35.703C85.0034 35.8319 86.1403 36.0038 87.3604 36.1505C88.5805 36.2971 89.8837 36.4538 91.1844 36.608C92.2558 36.7192 93.3145 36.8305 94.3405 36.9366L81.6407 40.4024L93.8162 40.0106C93.438 40.2052 93.0549 40.4024 92.6642 40.6097C91.3105 41.3226 89.8635 42.0835 88.4166 42.8444C86.9823 43.623 85.5454 44.4041 84.1993 45.1347C82.8532 45.8627 81.613 46.5756 80.5416 47.1722C78.4065 48.378 77.0024 49.2172 77.0024 49.2172C77.0024 49.2172 78.4796 48.5145 80.6677 47.4098C81.7567 46.8486 83.0397 46.2141 84.3934 45.5012C85.7471 44.7883 87.194 44.0274 88.641 43.2665C90.0778 42.4879 91.5121 41.7068 92.8583 40.9762C93.4153 40.6754 93.9472 40.3797 94.464 40.0889L87.5999 50.7492L96.7302 41.6234C96.1202 42.8444 95.4395 44.2044 94.711 45.6579C93.864 47.3896 92.9591 49.2375 92.0541 51.0828C91.1693 52.9383 90.2845 54.7938 89.4527 56.5355C88.6208 58.2747 87.8772 59.9154 87.2243 61.3108C85.9336 64.1117 85.1068 65.9975 85.1068 65.9975C85.1068 65.9975 86.0697 64.18 87.4637 61.4271C88.1519 60.0468 88.9762 58.4466 89.8207 56.715C90.6677 54.9834 91.5726 53.1355 92.4751 51.2876C93.3599 49.4321 94.2447 47.5766 95.0766 45.8349C95.7723 44.3434 96.4227 42.9505 97.0024 41.6992L98.7897 54.8292L99.803 41.5526C99.9568 42.0607 100.116 42.5815 100.274 43.1123C100.89 45.0816 101.542 47.1848 102.195 49.2855C102.871 51.3786 103.546 53.4742 104.177 55.4384C104.824 57.3976 105.429 59.2252 105.949 60.7925C107 63.9221 107.736 65.9975 107.736 65.9975C107.736 65.9975 107.144 63.8766 106.203 60.7117C105.724 59.1317 105.167 57.2863 104.57 55.3146C103.957 53.3453 103.302 51.2421 102.647 49.1414C101.971 47.0483 101.298 44.9527 100.665 42.9885C100.486 42.4525 100.315 41.9293 100.146 41.4161L109.985 50.7441L101.875 39.1561C101.875 39.1561 101.875 39.1511 101.878 39.1486C102.223 39.3584 102.573 39.5733 102.936 39.7881C104.129 40.4959 105.399 41.2518 106.67 42.0051C107.95 42.7407 109.233 43.4789 110.433 44.169C111.633 44.8616 112.773 45.4734 113.741 46.0169C115.684 47.0862 116.997 47.7662 116.997 47.7662C116.997 47.7662 115.76 46.9548 113.874 45.7869C112.926 45.2105 111.832 44.5204 110.64 43.8151Z" fill="white"/>
</g>
<defs>
<clipPath id="clip0_3564_239">
<rect width="39" height="47" fill="white" transform="translate(0 67)"/>
</clipPath>
<clipPath id="clip1_3564_239">
<rect width="40" height="48" fill="white" transform="translate(77 18)"/>
</clipPath>
</defs>
</svg>
