<svg width="209" height="165" viewBox="0 0 209 165" fill="none" xmlns="http://www.w3.org/2000/svg">
<g clip-path="url(#clip0_3539_494)">
<path d="M126.487 38.0093H1.18677V164.483H126.487V38.0093Z" fill="#4EB6EC"/>
<path d="M1.18677 158.896L47.0031 38.0093H56.7993L9.1924 163.624H1.18677V158.886V158.896ZM125.664 85.495L96.0571 163.634H87.4997L125.675 62.9005V85.495H125.664ZM125.664 163.634H109.143L125.664 120.039V163.634ZM31.096 163.634H21.2997L68.8963 38.0196H78.6925L31.0856 163.634H31.096ZM52.7497 163.634H44.1923L91.7992 38.0196H100.357L52.7497 163.634ZM74.4034 163.634H65.846L113.453 38.0196H122.01L74.4034 163.634ZM1.18677 126.939V101.086L25.0891 37.9989H34.8854L1.18677 126.939ZM1.18677 69.1388V38.0093H12.9818L1.18677 69.1388Z" fill="#7ED5F5"/>
<path d="M73.1542 38.4541H63.1082V165H73.1542V38.4541Z" fill="#8E4BA2"/>
<path d="M126.591 90.5746H0V107.676H126.591V90.5746Z" fill="#8E4BA2"/>
<path d="M42.9118 38.4438C41.777 38.4438 40.33 36.4988 39.6845 35.7229C37.6961 33.3228 32.9281 25.6361 36.8945 23.0187C39.8927 21.0427 44.2339 25.5119 45.9724 27.4569C46.597 28.15 47.1696 28.8846 47.7422 29.6191C47.8151 29.7122 48.7 30.7674 48.7104 30.6019C48.9186 28.3363 47.2321 25.0567 46.8781 22.7807C46.0973 17.7735 46.139 12.3732 47.4403 7.44873C48.0753 5.04858 49.6057 0.186208 52.7704 0.0517165C55.4147 -0.0620837 57.2677 3.21743 58.1422 5.24515C60.0265 9.63163 60.4846 14.3699 61.0051 19.0564C61.1717 20.6082 60.8177 24.0325 61.6922 25.3774C61.8483 25.6154 61.7546 24.8188 61.7651 24.5291C61.7963 23.836 61.8379 23.1532 61.8796 22.46C61.9941 20.8151 62.1711 19.1702 62.4001 17.5252C63.0664 12.6525 64.0554 7.44873 66.8662 3.28985C67.9593 1.67596 69.7811 -0.465557 71.9985 0.0724075C74.1743 0.600027 75.1321 3.0726 75.5485 5.02789C76.5687 9.78681 75.8191 15.0009 75.3507 19.7909C75.1633 21.6738 74.9551 23.5566 74.7573 25.4499C74.6948 26.0292 74.6324 26.6086 74.5699 27.1879C74.5491 27.4155 74.3929 28.088 74.5178 27.8914C75.08 27.0534 75.1321 25.3878 75.4131 24.4464C76.1211 22.0876 76.9955 19.7495 78.224 17.5976C79.0776 16.1079 80.0874 14.6906 81.3055 13.4595C84.6888 10.0144 90.5291 8.86606 91.0809 15.1147C91.466 19.4391 89.5505 24.0532 87.864 27.9535C87.2498 29.3811 86.5835 30.7881 85.886 32.1641C85.7924 32.3503 85.428 33.3642 85.1677 33.4055C85.1469 33.4055 85.6987 32.1848 85.7507 32.102C86.188 31.3778 86.6981 30.695 87.2394 30.0536C88.7802 28.2535 91.7992 25.3774 94.4226 26.743C98.6076 28.9156 94.7141 35.6505 93.0068 38.2783L42.9013 38.4541L42.9118 38.4438Z" fill="#8E4BA2"/>
<path d="M123.874 74.4771L94.9849 93.5024L116.951 83.0845C116.951 83.0845 120.73 86.4365 118.398 93.4817H125.779C128.85 80.6016 123.884 74.4771 123.884 74.4771H123.874Z" fill="#FFBF73"/>
<path d="M72.7274 82.4224L95.8594 93.5024L66.9705 74.4771C66.9705 74.4771 61.9943 80.6016 65.0758 93.4817H71.2075C68.7507 85.9813 72.7274 82.4121 72.7274 82.4121V82.4224Z" fill="#FFBF73"/>
<path d="M101.835 93.5024C101.929 89.8298 98.9305 86.7882 95.1411 86.6951C91.3517 86.602 88.2182 89.4987 88.1245 93.1713L94.9746 93.3369L101.825 93.5024H101.835Z" fill="#FFBF73"/>
<path d="M136.606 93.0369H50.3762L58.4651 165L129.641 164.917L136.606 93.0369Z" fill="#662668"/>
<path d="M53.468 115.207L59.9537 101.458L66.0334 115.249L73.9349 101.965L79.8377 115.124L89.2279 102.927L94.9224 115.373L102.668 102.875L108.643 115.942L115.046 103.382L121.771 116.635L128.631 103.807L134.066 115.269" stroke="#9A599E" stroke-width="0.8" stroke-miterlimit="10"/>
<path d="M55.04 129.308L60.797 116.862L66.8767 130.653L74.7782 117.369L80.681 130.529L90.0712 118.332L95.7657 130.777L103.511 118.28L109.487 131.346L115.889 118.787L122.625 132.039L129.485 119.211L132.983 127.746" stroke="#9A599E" stroke-width="0.8" stroke-miterlimit="10"/>
<path d="M56.1956 143.719L61.6298 132.288L67.7095 146.078L75.611 132.795L81.5138 145.954L90.904 133.757L96.5985 146.192L104.344 133.695L110.319 146.761L116.722 134.202L123.457 147.454L130.318 134.626L131.807 140.109" stroke="#9A599E" stroke-width="0.8" stroke-miterlimit="10"/>
<path d="M57.6116 158.193L62.4732 147.692L68.5529 161.483L76.4545 148.199L82.3572 161.358L91.7474 149.161L97.4419 161.607L105.187 149.109L111.152 162.176L117.555 149.616L124.28 162.869L131.141 150.04" stroke="#9A599E" stroke-width="0.8" stroke-miterlimit="10"/>
<path d="M99.0868 92.4782H92.4241V164.762H99.0868V92.4782Z" fill="#FFBF73"/>
<path d="M133.243 126.122H53.7908V133.477H133.243V126.122Z" fill="#FFBF73"/>
<path d="M129.891 104.169L136.543 163.79L200.849 164.059L209 102.462L129.891 104.158V104.169Z" fill="#FF5046"/>
<path d="M173.823 102.824H162.871V163.945H173.823V102.824Z" fill="#FFF9E1"/>
<path d="M132.317 125.842L205.898 124.342L204.95 134.419L133.285 134.522L132.317 125.842Z" fill="#7ED5F5"/>
<path d="M170.325 107.986C170.325 107.986 183.973 61.1831 200.463 74.084C212.165 83.2397 186.399 103.134 170.325 107.986Z" fill="#FFF9E1"/>
<path d="M169.42 107.893C169.42 107.893 152.315 62.228 136.845 76.2979C125.862 86.2916 153.034 104.241 169.42 107.893Z" fill="#FFF9E1"/>
<path d="M170.294 107.79H168.378V163.862H170.294V107.79Z" fill="#7ED5F5"/>
<path d="M204.742 128.046H133.389V130.601H204.742V128.046Z" fill="#FFF9E1"/>
<path d="M168.93 109.445C168.93 109.445 166.13 75.7703 176.249 82.4121C183.432 87.1296 175.405 104.044 168.93 109.445Z" fill="#7ED5F5"/>
<path d="M169.451 108.907C169.451 108.907 162.039 75.9358 154.366 85.2674C148.922 91.8989 161.653 105.669 169.451 108.907Z" fill="#7ED5F5"/>
</g>
<defs>
<clipPath id="clip0_3539_494">
<rect width="209" height="165" fill="white"/>
</clipPath>
</defs>
</svg>
