<svg width="340" height="326" viewBox="0 0 340 326" fill="none" xmlns="http://www.w3.org/2000/svg">
<g clip-path="url(#clip0_5528_6682)">
<path d="M116.997 292.176C117.794 290.489 117.077 288.475 115.393 287.676C115.076 287.525 114.743 287.445 114.413 287.397C114.124 283.725 112.818 277.749 107.797 272.926C111.473 274.667 115.104 276.152 118.698 277.454C121.762 280.777 124.584 283.394 127.097 285.45C128.961 287.272 131.92 290.963 133.08 296.794C132.75 296.955 132.465 297.221 132.295 297.577C131.898 298.417 132.256 299.418 133.092 299.816C133.931 300.213 134.93 299.854 135.328 299.017C135.725 298.177 135.366 297.176 134.53 296.778C134.364 296.698 134.191 296.656 134.018 296.637C133.304 292.981 131.923 290.142 130.505 288.042C133.685 290.277 136.179 291.502 137.803 292.157C137.707 293.08 138.184 294.007 139.071 294.427C140.195 294.96 141.54 294.482 142.072 293.356C142.603 292.23 142.126 290.883 141.002 290.351C139.942 289.847 138.7 290.251 138.11 291.239C136.032 290.389 132.436 288.552 127.764 284.754C126.918 283.936 126.278 283.474 126.076 283.333C124.382 281.864 122.569 280.152 120.654 278.147C127.546 280.527 134.303 282.265 140.973 283.856C141.358 283.997 151.458 287.801 157.082 299.309C156.793 299.524 156.547 299.8 156.383 300.146C155.852 301.272 156.329 302.619 157.453 303.151C158.577 303.684 159.922 303.206 160.454 302.08C160.985 300.954 160.508 299.607 159.384 299.075C158.916 298.853 158.414 298.815 157.946 298.918C154.247 291.335 148.659 286.99 144.983 284.802C145.322 284.882 145.662 284.963 146.001 285.04C151.894 286.419 157.684 287.775 163.381 289.472C164.94 290.014 167.489 291.114 170.333 293.196C170.551 293.366 176.709 298.321 173.087 308.523C172.267 308.418 171.438 308.831 171.066 309.617C170.602 310.595 171.018 311.763 171.995 312.228C172.972 312.693 174.138 312.276 174.602 311.298C175.015 310.429 174.727 309.412 173.971 308.87C176.053 303.029 175.079 298.77 173.692 296.053C176.92 299.203 180.414 303.915 183.008 310.804C182.457 311.099 181.987 311.561 181.698 312.17C180.981 313.684 181.625 315.493 183.136 316.211C184.648 316.93 186.454 316.282 187.171 314.771C187.889 313.257 187.242 311.448 185.733 310.73C185.144 310.451 184.51 310.384 183.914 310.49C180.546 301.515 175.617 296.057 171.284 292.772C171.054 292.554 170.906 292.439 170.897 292.432C170.842 292.391 170.778 292.365 170.714 292.349C170.24 292.006 169.773 291.688 169.318 291.393C178.826 294.729 188.074 299.399 197.121 307.151C197.083 307.215 197.038 307.276 197.003 307.346C196.401 308.62 196.942 310.137 198.213 310.74C199.481 311.343 200.999 310.801 201.601 309.527C202.203 308.254 201.662 306.737 200.391 306.134C199.494 305.707 198.479 305.861 197.742 306.435C187.741 297.862 177.516 293.023 166.987 289.6C169.577 289.924 172.024 290.28 174.32 290.659C174.538 290.707 175.092 290.819 175.905 290.925C187.725 292.978 195.401 295.534 198.931 296.881C198.71 297.987 199.244 299.142 200.311 299.649C201.563 300.245 203.062 299.71 203.657 298.452C204.253 297.198 203.718 295.697 202.463 295.101C201.316 294.556 199.971 294.966 199.296 296.002C196.305 294.86 190.386 292.865 181.548 291.031C184.939 290.704 188.856 289.543 191.812 286.393C191.821 286.399 191.831 286.406 191.84 286.412C192.926 286.929 194.223 286.464 194.739 285.376C195.254 284.289 194.79 282.987 193.704 282.474C192.619 281.957 191.318 282.422 190.806 283.51C190.441 284.283 190.575 285.161 191.072 285.79C186.419 290.691 179.197 290.402 176.024 289.982C175.534 289.899 175.037 289.812 174.535 289.732C174.483 289.719 174.445 289.713 174.439 289.709C174.419 289.703 174.4 289.709 174.381 289.706C170.631 289.09 166.5 288.529 161.975 288.077C157.415 286.775 152.797 285.665 148.115 284.565C157.921 284.328 167.512 279.728 171.396 277.631C171.576 277.826 171.793 277.996 172.05 278.115C173.106 278.619 174.371 278.166 174.874 277.105C175.377 276.046 174.925 274.779 173.865 274.276C172.809 273.772 171.544 274.225 171.041 275.286C170.807 275.78 170.788 276.316 170.932 276.8C166.196 279.359 152.819 285.707 141.226 282.942C135.795 281.646 130.306 280.251 124.734 278.493C125.118 278.493 125.515 278.493 125.932 278.474C129.512 278.304 134.844 277.108 140.717 272.656C140.881 272.794 141.057 272.922 141.262 273.019C142.523 273.618 144.029 273.08 144.627 271.816C145.226 270.552 144.688 269.045 143.426 268.445C142.165 267.845 140.66 268.384 140.061 269.648C139.705 270.398 139.76 271.235 140.122 271.915C128.715 280.546 119.239 276.636 119.139 276.595C119.117 276.585 119.098 276.585 119.075 276.579C114.848 275.049 110.57 273.266 106.224 271.104C108.533 271.38 111.588 271.226 115.092 269.782C115.149 269.776 115.204 269.763 115.258 269.734C115.367 269.677 115.476 269.625 115.582 269.571C115.931 269.417 116.286 269.247 116.642 269.067C121.544 266.921 125.189 267.624 126.918 268.227C126.883 268.772 127.174 269.308 127.699 269.558C128.385 269.882 129.205 269.59 129.528 268.904C129.851 268.217 129.56 267.396 128.875 267.072C128.337 266.816 127.715 266.947 127.318 267.348C125.935 266.838 123.434 266.274 120.071 266.963C121.131 266.197 122.214 265.305 123.312 264.266C123.402 264.327 123.492 264.388 123.591 264.436C124.763 264.994 126.166 264.49 126.723 263.316C127.28 262.143 126.777 260.738 125.605 260.18C124.433 259.622 123.03 260.125 122.473 261.299C122.111 262.066 122.204 262.928 122.636 263.589C120.353 265.738 118.156 267.242 116.104 268.265C115.838 268.384 115.566 268.516 115.29 268.65C108.661 271.617 103.675 269.693 102.42 269.099C102.311 269.042 102.199 268.984 102.087 268.929C102.071 268.92 102.051 268.92 102.035 268.913C95.9989 265.594 89.8375 261.498 83.5223 256.325C83.3206 256.158 83.0195 256.19 82.853 256.392C82.8274 256.424 82.8082 256.456 82.7922 256.491C82.6993 256.684 82.7473 256.921 82.9203 257.062C89.8503 262.739 96.5913 267.124 103.182 270.616C111.268 275.434 113.103 283.061 113.458 287.39C112.379 287.548 111.399 288.224 110.896 289.286C110.099 290.973 110.816 292.987 112.501 293.786C114.185 294.584 116.196 293.866 116.994 292.179L116.997 292.176Z" fill="#9ACBC6"/>
<path d="M122.838 248.21C124.651 247.296 125.544 245.651 124.981 244.461C124.417 243.271 122.611 242.989 120.798 243.903C118.89 244.865 117.449 247.344 116.968 248.252C117.417 247.328 118.56 244.685 118.252 242.488C117.958 240.4 116.722 238.992 115.466 239.169C114.211 239.345 113.414 241.045 113.708 243.133C114.016 245.307 115.819 247.508 116.517 248.29C115.787 247.536 113.734 245.59 111.655 245.198C109.66 244.823 108.005 245.596 107.793 246.895C107.582 248.194 108.895 249.525 110.89 249.9C113.036 250.304 115.681 249.137 116.523 248.726C115.69 249.159 113.173 250.599 112.165 252.598C111.226 254.455 111.438 256.341 112.562 256.966C113.686 257.591 115.293 256.716 116.232 254.862C117.25 252.848 116.959 249.823 116.837 248.884C116.981 249.82 117.538 252.809 119.075 254.461C120.491 255.985 122.278 256.376 123.184 255.465C124.09 254.551 123.77 252.681 122.355 251.158C120.83 249.519 118.015 248.835 117.096 248.653C118.022 248.813 120.885 249.198 122.835 248.213L122.838 248.21ZM116.798 248.592C116.798 248.592 116.792 248.595 116.786 248.598C116.786 248.598 116.779 248.598 116.779 248.601C116.789 248.595 116.798 248.592 116.798 248.592ZM116.808 248.592H116.798C116.798 248.592 116.798 248.598 116.798 248.608C116.798 248.614 116.798 248.624 116.802 248.637C116.798 248.608 116.795 248.595 116.795 248.595C116.795 248.595 116.805 248.595 116.818 248.598C116.811 248.598 116.808 248.598 116.805 248.598L116.808 248.592Z" fill="#9ACBC6"/>
<path d="M190.851 270.469C192.663 269.555 193.557 267.909 192.993 266.719C192.43 265.529 190.624 265.247 188.811 266.161C186.902 267.123 185.461 269.603 184.981 270.51C185.429 269.587 186.572 266.944 186.265 264.747C185.97 262.659 184.734 261.251 183.479 261.427C182.224 261.604 181.426 263.304 181.721 265.392C182.028 267.566 183.831 269.766 184.529 270.549C183.799 269.795 181.746 267.848 179.668 267.457C177.673 267.082 176.017 267.855 175.803 269.154C175.591 270.453 176.904 271.784 178.9 272.159C181.045 272.563 183.69 271.399 184.533 270.985C183.7 271.418 181.183 272.858 180.174 274.856C179.236 276.713 179.447 278.599 180.571 279.225C181.695 279.85 183.303 278.974 184.241 277.121C185.259 275.106 184.968 272.082 184.846 271.142C184.99 272.079 185.548 275.068 187.085 276.72C188.5 278.243 190.287 278.634 191.194 277.724C192.1 276.81 191.78 274.94 190.364 273.416C188.84 271.777 186.025 271.094 185.106 270.911C186.031 271.072 188.894 271.457 190.844 270.472L190.851 270.469ZM184.811 270.85C184.811 270.85 184.805 270.854 184.798 270.857C184.798 270.857 184.792 270.857 184.792 270.86C184.802 270.854 184.811 270.85 184.811 270.85ZM184.821 270.85H184.811C184.811 270.85 184.811 270.857 184.811 270.863C184.811 270.87 184.811 270.879 184.814 270.892C184.811 270.863 184.808 270.85 184.808 270.85C184.808 270.85 184.818 270.85 184.83 270.854C184.824 270.854 184.821 270.854 184.818 270.854L184.821 270.85Z" fill="#F3A5A4"/>
<path d="M127.523 305.55C128.92 305.329 129.861 304.428 129.739 303.52C129.618 302.612 128.481 302.041 127.085 302.26C125.615 302.494 124.132 303.828 123.623 304.328C124.116 303.809 125.435 302.301 125.695 300.781C125.941 299.334 125.423 298.135 124.552 297.987C123.68 297.84 122.793 298.796 122.547 300.242C122.291 301.75 123.018 303.591 123.315 304.261C122.992 303.607 122.044 301.878 120.747 301.175C119.505 300.502 118.24 300.662 117.823 301.48C117.407 302.295 117.996 303.459 119.239 304.133C120.577 304.857 122.576 304.646 123.226 304.553C122.582 304.665 120.606 305.082 119.514 306.192C118.499 307.221 118.24 308.52 118.851 309.174C119.463 309.829 120.715 309.591 121.733 308.559C122.835 307.439 123.287 305.371 123.405 304.723C123.299 305.374 123.04 307.475 123.706 308.899C124.321 310.21 125.426 310.849 126.22 310.438C127.014 310.024 127.2 308.716 126.585 307.407C125.922 305.996 124.199 304.944 123.629 304.627C124.209 304.931 126.025 305.794 127.527 305.557L127.523 305.55ZM123.437 304.517C123.437 304.517 123.434 304.517 123.427 304.517C123.427 304.517 123.424 304.517 123.421 304.517C123.431 304.517 123.434 304.517 123.437 304.517ZM123.443 304.521L123.437 304.517C123.437 304.517 123.437 304.524 123.437 304.527C123.437 304.533 123.437 304.537 123.434 304.546C123.434 304.527 123.437 304.517 123.437 304.517C123.437 304.517 123.443 304.517 123.45 304.524C123.447 304.524 123.443 304.521 123.44 304.521H123.443Z" fill="#F3A5A4"/>
<path d="M110.246 290.197C107.976 298.776 112.177 337.922 113.987 322.398C115.911 305.89 110.759 288.952 110.759 288.952C110.752 288.962 110.746 288.975 110.74 288.981C109.901 285.53 108.748 282.461 107.403 279.751C113.804 286.168 132.769 298.959 126.736 290.649C122.278 284.507 109.286 278.673 106.093 277.303C103.054 272.095 99.3582 268.378 96.1558 265.844C94.6923 264.686 93.2577 263.717 91.9095 262.899C96.8412 264.522 110.88 268.458 105.914 264.943C100.892 261.389 92.5051 261.812 90.6669 262.171C86.9169 260.067 84.1596 259.275 84.118 259.262C83.913 259.205 83.7017 259.323 83.6441 259.529C83.6376 259.551 83.6344 259.577 83.6312 259.599C83.6152 259.782 83.7305 259.952 83.9098 260.003C83.9675 260.019 89.5813 261.629 95.6755 266.447C96.1911 266.854 96.7259 267.306 97.2639 267.781C97.2222 270.299 98.1702 282.477 99.6433 290.63C101.12 298.792 104.2 303.125 103.249 293.218C101.696 277.066 98.705 270.132 97.6546 268.124C102.506 272.502 107.909 279.529 110.246 290.194V290.197Z" fill="#749895"/>
<path d="M96.3736 262.069C101.055 260.949 104.008 257.643 103.355 254.593C102.702 251.542 98.6921 249.903 94.0102 251.026C89.0881 252.203 84.4094 257.136 82.8114 258.964C84.3454 257.075 88.4284 251.607 88.9088 246.372C89.3635 241.395 87.282 237.472 84.2909 237.196C81.2999 236.92 78.5394 240.4 78.0815 245.378C77.6075 250.564 80.5665 256.616 81.7546 258.807C80.4833 256.671 76.8069 251.061 72.2243 249.021C67.8274 247.065 63.5842 247.947 62.3897 250.827C61.1952 253.707 63.4977 257.495 67.8946 259.452C72.6246 261.556 79.356 260.311 81.5304 259.82C79.3752 260.366 72.7847 262.309 69.3709 266.367C66.1973 270.135 65.6593 274.603 67.9106 276.659C70.1619 278.715 74.3474 277.576 77.521 273.808C80.9668 269.718 81.9435 262.582 82.1741 260.346C81.9916 262.585 81.6585 269.782 84.3005 274.43C86.7375 278.715 90.6477 280.594 93.232 278.987C95.8196 277.377 96.1046 272.884 93.6675 268.602C91.0448 263.993 84.9218 260.879 82.9011 259.949C84.9474 260.824 91.3426 263.275 96.3736 262.072V262.069ZM82.2318 259.65C82.2318 259.65 82.2158 259.654 82.1997 259.66C82.1933 259.66 82.1869 259.66 82.1805 259.663C82.2093 259.657 82.2254 259.65 82.2318 259.65ZM82.2542 259.66L82.235 259.65C82.235 259.65 82.235 259.667 82.235 259.689C82.235 259.705 82.2318 259.727 82.2286 259.756C82.235 259.689 82.235 259.654 82.235 259.654C82.235 259.654 82.2574 259.663 82.2862 259.676C82.2734 259.67 82.2638 259.667 82.2574 259.663L82.2542 259.66Z" fill="#F3A5A4"/>
<path d="M255.197 273.561C254.137 272.024 252.036 271.639 250.505 272.701C250.217 272.9 249.98 273.147 249.775 273.413C246.457 271.829 240.635 269.975 233.952 271.915C237.299 269.596 240.398 267.191 243.319 264.724C247.726 263.727 251.399 262.592 254.435 261.437C256.942 260.731 261.614 260.01 267.235 261.921C267.209 262.29 267.295 262.665 267.52 262.993C268.048 263.756 269.092 263.948 269.854 263.419C270.616 262.893 270.808 261.844 270.28 261.081C269.752 260.318 268.708 260.125 267.946 260.654C267.795 260.76 267.673 260.889 267.568 261.03C264.048 259.824 260.903 259.599 258.377 259.779C261.899 258.137 264.208 256.588 265.582 255.507C266.335 256.052 267.372 256.1 268.179 255.542C269.204 254.833 269.46 253.428 268.753 252.402C268.045 251.376 266.642 251.119 265.617 251.828C264.653 252.495 264.381 253.775 264.942 254.779C263.168 256.158 259.783 258.355 254.159 260.51C253.029 260.834 252.308 261.158 252.087 261.264C249.97 261.998 247.581 262.713 244.891 263.374C250.396 258.586 255.277 253.595 259.988 248.605C260.301 248.342 268.64 241.484 281.405 242.36C281.447 242.716 281.562 243.069 281.78 243.386C282.488 244.413 283.89 244.669 284.915 243.96C285.94 243.252 286.196 241.847 285.488 240.82C284.781 239.794 283.378 239.538 282.353 240.246C281.927 240.541 281.642 240.958 281.498 241.414C273.095 240.83 266.543 243.508 262.812 245.599C263.049 245.346 263.289 245.089 263.526 244.836C267.667 240.413 271.734 236.07 276.048 231.978C277.297 230.897 279.522 229.236 282.744 227.808C283 227.703 290.366 224.842 297.376 233.081C296.873 233.739 296.818 234.666 297.312 235.381C297.926 236.272 299.143 236.494 300.034 235.878C300.924 235.262 301.145 234.043 300.53 233.152C299.982 232.36 298.961 232.1 298.115 232.485C294.106 227.76 289.936 226.474 286.894 226.317C291.23 225.092 297.052 224.415 304.306 225.615C304.286 226.24 304.45 226.878 304.831 227.433C305.782 228.812 307.668 229.159 309.045 228.206C310.422 227.254 310.765 225.364 309.817 223.985C308.866 222.606 306.98 222.263 305.603 223.212C305.065 223.584 304.69 224.101 304.485 224.668C295.041 223.103 287.855 224.646 282.849 226.766C282.545 226.856 282.372 226.926 282.36 226.933C282.295 226.962 282.241 227 282.196 227.051C281.661 227.292 281.152 227.539 280.672 227.786C288.31 221.208 296.975 215.521 308.197 211.551C308.235 211.618 308.261 211.685 308.305 211.749C309.103 212.907 310.688 213.199 311.844 212.397C313 211.599 313.292 210.011 312.491 208.853C311.694 207.695 310.108 207.404 308.952 208.205C308.136 208.77 307.761 209.729 307.889 210.653C295.477 215.04 286.177 221.49 277.953 228.912C279.529 226.827 281.059 224.883 282.536 223.081C282.686 222.917 283.061 222.491 283.557 221.84C291.24 212.612 297.292 207.234 300.219 204.847C301.065 205.595 302.333 205.704 303.303 205.033C304.443 204.244 304.732 202.676 303.944 201.534C303.156 200.392 301.59 200.104 300.45 200.893C299.406 201.614 299.089 202.987 299.646 204.09C297.164 206.114 292.479 210.248 286.475 217C287.887 213.895 288.841 209.915 287.595 205.781C287.605 205.774 287.615 205.771 287.624 205.765C288.614 205.081 288.86 203.722 288.178 202.73C287.496 201.739 286.138 201.492 285.149 202.176C284.159 202.859 283.913 204.219 284.595 205.21C285.082 205.915 285.908 206.236 286.702 206.121C288.614 212.606 284.752 218.725 282.801 221.269C282.484 221.65 282.164 222.038 281.841 222.433C281.806 222.471 281.78 222.5 281.773 222.504C281.761 222.52 281.754 222.536 281.741 222.552C279.333 225.499 276.784 228.799 274.129 232.497C270.725 235.801 267.456 239.252 264.163 242.764C268.861 234.14 269.681 223.523 269.809 219.104C270.069 219.046 270.322 218.94 270.555 218.78C271.519 218.113 271.76 216.791 271.093 215.826C270.427 214.861 269.108 214.62 268.144 215.287C267.18 215.954 266.94 217.276 267.606 218.241C267.917 218.69 268.368 218.975 268.861 219.091C268.704 224.479 267.507 239.255 259.321 247.925C255.485 251.988 251.536 256.052 247.229 260.003C247.425 259.67 247.62 259.327 247.812 258.955C249.455 255.763 251.088 250.542 250.175 243.223C250.377 243.149 250.576 243.059 250.761 242.931C251.911 242.135 252.196 240.561 251.405 239.409C250.611 238.258 249.039 237.972 247.889 238.765C246.742 239.56 246.454 241.135 247.245 242.286C247.716 242.969 248.465 243.341 249.237 243.367C250.998 257.575 242.88 263.839 242.794 263.903C242.775 263.916 242.765 263.935 242.749 263.951C239.313 266.854 235.63 269.673 231.589 272.358C232.982 270.491 234.378 267.768 234.881 264.006C234.903 263.955 234.919 263.897 234.922 263.836C234.929 263.711 234.935 263.595 234.945 263.474C234.986 263.095 235.018 262.704 235.041 262.303C235.636 256.979 238.067 254.166 239.454 252.966C239.908 253.268 240.517 253.284 240.994 252.954C241.619 252.521 241.775 251.664 241.343 251.039C240.911 250.413 240.056 250.256 239.431 250.689C238.941 251.029 238.743 251.632 238.89 252.177C237.76 253.124 236.021 255.01 234.935 258.271C234.804 256.969 234.573 255.584 234.224 254.111C234.32 254.063 234.42 254.018 234.509 253.954C235.576 253.217 235.845 251.751 235.108 250.68C234.372 249.612 232.908 249.342 231.838 250.08C230.772 250.818 230.503 252.287 231.24 253.355C231.723 254.054 232.514 254.403 233.302 254.358C234.019 257.415 234.221 260.071 234.08 262.364C234.051 262.656 234.026 262.954 234.006 263.262C233.257 270.494 229.097 273.859 227.96 274.648C227.855 274.715 227.749 274.783 227.646 274.853C227.63 274.863 227.621 274.879 227.608 274.892C221.719 278.468 215.096 281.762 207.465 284.655C207.218 284.748 207.097 285.023 207.19 285.267C207.202 285.306 207.222 285.338 207.244 285.37C207.366 285.546 207.593 285.623 207.801 285.543C216.175 282.371 223.336 278.718 229.651 274.744C237.859 270.138 245.375 272.361 249.295 274.218C248.891 275.232 248.987 276.422 249.653 277.387C250.713 278.923 252.814 279.308 254.345 278.246C255.876 277.185 256.263 275.081 255.203 273.548L255.197 273.561Z" fill="#9ACBC6"/>
<path d="M220.102 246.51C220.217 244.48 219.24 242.883 217.93 242.777C216.621 242.671 215.474 244.095 215.359 246.125C215.237 248.261 216.659 250.75 217.203 251.619C216.627 250.769 214.917 248.454 212.861 247.626C210.907 246.837 209.072 247.206 208.599 248.383C208.125 249.56 209.194 251.1 211.148 251.889C213.181 252.71 215.983 252.245 217.011 252.03C215.996 252.287 213.287 253.095 211.907 254.702C210.584 256.244 210.424 258.069 211.442 258.9C212.461 259.734 214.267 259.259 215.589 257.717C217.011 256.058 217.325 253.181 217.392 252.242C217.351 253.181 217.338 256.084 218.558 257.957C219.695 259.699 221.431 260.459 222.535 259.795C223.637 259.134 223.685 257.3 222.551 255.558C221.318 253.669 218.558 252.405 217.684 252.043C218.564 252.386 221.427 253.396 223.624 252.89C225.648 252.421 226.881 251.068 226.545 249.827C226.209 248.585 224.431 247.925 222.407 248.393C220.23 248.896 218.231 250.997 217.61 251.703C218.212 250.981 219.977 248.691 220.098 246.507L220.102 246.51ZM217.412 251.94C217.412 251.94 217.412 251.947 217.412 251.953C217.412 251.953 217.412 251.959 217.412 251.963C217.412 251.95 217.412 251.943 217.412 251.94ZM217.418 251.931L217.412 251.937C217.412 251.937 217.418 251.937 217.428 251.943C217.434 251.943 217.444 251.95 217.453 251.953C217.428 251.943 217.412 251.937 217.412 251.937C217.412 251.937 217.418 251.927 217.428 251.918C217.424 251.921 217.421 251.927 217.418 251.927V251.931Z" fill="#9ACBC6"/>
<path d="M272.025 271.117C272.531 269.795 272.224 268.528 271.378 268.179C270.533 267.829 269.47 268.532 268.961 269.853C268.426 271.245 268.842 273.198 269.018 273.891C268.817 273.205 268.173 271.306 266.985 270.318C265.858 269.381 264.561 269.234 263.997 269.914C263.433 270.594 263.814 271.841 264.945 272.781C266.12 273.759 268.077 274.048 268.804 274.122C268.077 274.077 266.107 274.035 264.852 274.808C263.648 275.549 263.155 276.726 263.654 277.496C264.151 278.266 265.451 278.336 266.655 277.595C267.949 276.797 268.769 274.956 269.012 274.35C268.785 274.962 268.16 276.887 268.573 278.388C268.957 279.783 269.947 280.658 270.821 280.453C271.692 280.248 272.112 279.045 271.731 277.647C271.314 276.13 269.752 274.706 269.249 274.279C269.761 274.696 271.446 275.972 273.009 276.104C274.45 276.226 275.554 275.591 275.596 274.693C275.638 273.798 274.597 272.98 273.156 272.861C271.606 272.73 269.835 273.698 269.271 274.035C269.825 273.686 271.478 272.541 272.025 271.12V271.117ZM269.089 274.144C269.089 274.144 269.089 274.148 269.086 274.154C269.086 274.154 269.086 274.157 269.086 274.16C269.086 274.151 269.089 274.147 269.092 274.144H269.089ZM269.095 274.141L269.089 274.144C269.089 274.144 269.092 274.147 269.098 274.151C269.102 274.154 269.108 274.157 269.114 274.164C269.098 274.151 269.092 274.144 269.092 274.144C269.092 274.144 269.098 274.141 269.105 274.135C269.102 274.135 269.098 274.138 269.095 274.141Z" fill="#F3A5A4"/>
<path d="M250.111 278.423C256.394 284.684 292.345 300.611 279.826 291.281C266.514 281.358 249.291 277.358 249.291 277.358C249.295 277.368 249.304 277.381 249.308 277.39C245.903 276.393 242.675 275.857 239.655 275.671C248.404 273.33 268.948 263.275 258.745 264.352C251.203 265.148 239.665 273.5 236.885 275.584C230.865 275.616 225.802 276.964 222.007 278.474C220.275 279.164 218.718 279.924 217.338 280.684C221.21 277.22 231.627 267.008 226.106 269.558C220.521 272.137 216.694 279.622 216.086 281.396C212.39 283.596 210.325 285.591 210.296 285.62C210.145 285.768 210.142 286.015 210.289 286.165C210.305 286.181 210.325 286.197 210.344 286.21C210.491 286.316 210.699 286.303 210.834 286.169C210.875 286.127 215.077 282.063 222.289 279.186C222.9 278.942 223.557 278.705 224.236 278.474C226.391 279.77 237.398 285.036 245.183 287.833C252.981 290.636 258.268 290.126 249.224 286.002C234.48 279.273 226.99 278.4 224.729 278.307C230.942 276.287 239.716 275.116 250.108 278.42L250.111 278.423Z" fill="#749895"/>
<path d="M218.853 276.393C220.223 271.774 218.843 267.56 215.878 266.601C212.912 265.642 209.492 268.301 208.121 272.919C206.68 277.778 208.605 284.302 209.386 286.601C208.519 284.324 205.832 278.051 201.547 275.02C197.473 272.137 193.035 271.983 191.302 274.436C189.57 276.893 191.197 281.027 195.273 283.911C199.52 286.916 206.235 287.374 208.72 287.442C206.235 287.477 199.549 287.859 195.494 290.816C191.603 293.654 190.246 297.772 192.138 300.249C194.031 302.725 198.46 302.622 202.347 299.787C206.53 296.737 208.823 290.274 209.486 288.144C208.88 290.287 207.266 296.974 209.066 301.964C210.738 306.602 214.334 309.303 217.235 308.376C220.137 307.452 221.248 303.251 219.576 298.613C217.764 293.581 212.08 289.161 210.264 287.846C212.108 289.122 218.164 293.013 223.506 293.042C228.428 293.071 232.011 290.62 231.912 287.573C231.813 284.523 228.072 282.031 223.147 282.002C217.85 281.97 212.096 285.726 210.28 287.015C212.064 285.678 217.376 281.358 218.853 276.389V276.393ZM209.691 287.448C209.691 287.448 209.687 287.464 209.681 287.48C209.681 287.483 209.678 287.493 209.675 287.5C209.681 287.471 209.687 287.455 209.687 287.448H209.691ZM209.71 287.432L209.691 287.445C209.691 287.445 209.703 287.455 209.723 287.467C209.735 287.477 209.751 287.49 209.777 287.506C209.723 287.467 209.691 287.448 209.691 287.448C209.691 287.448 209.71 287.432 209.735 287.413C209.726 287.423 209.716 287.429 209.71 287.432Z" fill="#F3A5A4"/>
<path d="M308.2 144.383C306.342 144.534 304.959 146.163 305.109 148.023C305.138 148.376 305.234 148.7 305.359 149.011C302.33 151.096 297.818 155.217 296.152 161.985C295.822 157.924 295.291 154.034 294.618 150.265C295.96 145.945 296.812 142.189 297.334 138.982C297.978 136.455 299.688 132.041 304.152 128.122C304.456 128.327 304.828 128.443 305.222 128.411C306.144 128.337 306.832 127.526 306.759 126.599C306.685 125.675 305.875 124.985 304.949 125.059C304.027 125.133 303.339 125.944 303.412 126.871C303.428 127.054 303.479 127.227 303.547 127.388C300.745 129.835 298.977 132.452 297.869 134.732C298.211 130.855 298.026 128.08 297.779 126.345C298.628 125.967 299.188 125.091 299.108 124.11C299.009 122.869 297.92 121.942 296.681 122.044C295.441 122.144 294.516 123.234 294.618 124.475C294.714 125.646 295.685 126.522 296.831 126.538C297.135 128.767 297.344 132.802 296.396 138.754C296.111 139.896 296.031 140.682 296.011 140.929C295.586 143.132 295.012 145.56 294.24 148.226C292.851 141.057 290.977 134.328 289.017 127.747C288.947 127.343 287.186 116.682 294.327 106.049C294.657 106.194 295.019 106.268 295.4 106.239C296.639 106.139 297.565 105.049 297.462 103.808C297.363 102.566 296.274 101.639 295.035 101.742C293.795 101.842 292.87 102.932 292.972 104.173C293.014 104.69 293.232 105.145 293.555 105.501C288.848 112.499 287.887 119.52 287.832 123.802C287.73 123.468 287.631 123.135 287.528 122.798C285.773 116.996 284.054 111.297 282.67 105.507C282.36 103.885 282.036 101.123 282.414 97.6143C282.452 97.3385 283.66 89.5223 294.289 87.5626C294.606 88.3259 295.377 88.8391 296.245 88.7685C297.321 88.6819 298.125 87.7358 298.035 86.6581C297.949 85.5805 297.004 84.7754 295.928 84.862C294.971 84.939 294.234 85.6959 294.144 86.6228C288.053 87.739 284.857 90.7122 283.202 93.2716C284.31 88.8968 286.638 83.5118 291.301 77.8188C291.832 78.1492 292.463 78.3256 293.136 78.271C294.804 78.1363 296.043 76.6738 295.909 75.0028C295.774 73.3318 294.311 72.0906 292.646 72.2253C290.977 72.36 289.738 73.8257 289.872 75.4935C289.924 76.1446 290.183 76.7283 290.574 77.1934C284.499 84.6022 282.241 91.607 281.569 97.0081C281.495 97.316 281.469 97.502 281.469 97.5149C281.46 97.5854 281.469 97.6496 281.489 97.7137C281.428 98.2974 281.389 98.8619 281.36 99.404C279.493 89.4902 278.904 79.1306 281.085 67.4111C281.162 67.4111 281.236 67.4207 281.312 67.4143C282.712 67.3021 283.756 66.0704 283.644 64.6689C283.532 63.2673 282.302 62.2217 280.902 62.3339C279.503 62.4462 278.459 63.6778 278.571 65.0794C278.651 66.0704 279.292 66.8755 280.153 67.2251C277.742 80.1858 278.667 91.4755 280.973 102.319C279.958 99.9107 279.042 97.6111 278.219 95.4301C278.152 95.2184 277.972 94.6796 277.658 93.9227C273.521 82.6458 271.897 74.7077 271.295 70.9744C272.362 70.6152 273.095 69.5696 272.999 68.3957C272.887 67.0102 271.676 65.9806 270.293 66.0929C268.909 66.2052 267.881 67.4175 267.994 68.8031C268.096 70.07 269.124 71.0321 270.357 71.0995C270.866 74.2619 272.099 80.3943 274.933 88.977C272.954 86.1995 269.992 83.3835 265.794 82.3924C265.794 82.3796 265.794 82.37 265.794 82.3571C265.697 81.1576 264.647 80.2628 263.449 80.3622C262.252 80.4584 261.358 81.5104 261.457 82.7099C261.554 83.9095 262.604 84.8043 263.802 84.7049C264.653 84.6343 265.345 84.0795 265.64 83.3322C272.205 84.9166 275.564 91.328 276.787 94.2883C276.957 94.7566 277.133 95.228 277.316 95.7059C277.332 95.7573 277.345 95.7925 277.345 95.799C277.351 95.8182 277.364 95.8342 277.37 95.8503C278.715 99.4104 280.294 103.275 282.164 107.425C283.317 112.031 284.669 116.592 286.058 121.201C280.947 112.814 272.179 106.794 268.423 104.475C268.503 104.221 268.538 103.949 268.516 103.666C268.42 102.499 267.398 101.627 266.232 101.723C265.067 101.819 264.196 102.842 264.292 104.01C264.388 105.177 265.409 106.049 266.575 105.953C267.119 105.908 267.59 105.658 267.939 105.293C272.519 108.121 284.697 116.547 288.101 127.987C289.696 133.347 291.233 138.806 292.502 144.518C292.313 144.181 292.111 143.841 291.887 143.488C289.949 140.47 286.25 136.442 279.465 133.571C279.503 133.36 279.525 133.142 279.506 132.917C279.394 131.525 278.174 130.486 276.784 130.598C275.394 130.71 274.357 131.932 274.469 133.324C274.581 134.716 275.801 135.756 277.191 135.643C278.02 135.576 278.715 135.111 279.122 134.457C292.29 140.034 293.645 150.208 293.658 150.314C293.658 150.336 293.67 150.355 293.677 150.378C294.468 154.81 295.064 159.413 295.368 164.259C294.452 162.12 292.793 159.544 289.792 157.228C289.757 157.184 289.719 157.142 289.667 157.107C289.562 157.039 289.466 156.972 289.363 156.908C289.056 156.683 288.732 156.459 288.399 156.241C284.092 153.062 282.875 149.55 282.533 147.748C283.022 147.504 283.34 146.984 283.291 146.407C283.231 145.65 282.568 145.086 281.812 145.147C281.056 145.207 280.493 145.871 280.553 146.628C280.601 147.225 281.024 147.696 281.569 147.841C281.818 149.294 282.584 151.747 284.861 154.316C283.669 153.781 282.356 153.287 280.909 152.854C280.915 152.745 280.925 152.639 280.915 152.527C280.81 151.231 279.676 150.265 278.382 150.371C277.088 150.477 276.124 151.612 276.23 152.908C276.336 154.204 277.469 155.169 278.763 155.064C279.609 154.996 280.307 154.483 280.662 153.777C283.663 154.682 286.062 155.836 287.973 157.107C288.21 157.28 288.457 157.45 288.713 157.62C294.593 161.889 295.422 167.174 295.534 168.557C295.541 168.682 295.547 168.807 295.553 168.932C295.553 168.951 295.563 168.967 295.566 168.983C295.714 175.879 295.252 183.272 293.936 191.335C293.895 191.595 294.071 191.838 294.327 191.88C294.365 191.887 294.404 191.887 294.442 191.883C294.654 191.867 294.836 191.707 294.871 191.486C296.316 182.637 296.735 174.596 296.46 167.136C296.581 157.713 302.263 152.308 305.827 149.836C306.502 150.692 307.578 151.205 308.744 151.109C310.602 150.958 311.985 149.329 311.834 147.469C311.684 145.608 310.057 144.223 308.2 144.374V144.383Z" fill="#9ACBC6"/>
<path d="M252.504 91.1804C250.806 90.0643 248.936 90.1124 248.19 91.1964C247.444 92.2805 248.1 93.9868 249.801 95.1029C251.588 96.2768 254.451 96.2864 255.475 96.2512C254.451 96.3249 251.594 96.6521 249.852 98.0184C248.193 99.3173 247.594 101.094 248.376 102.095C249.157 103.096 251.024 102.938 252.68 101.636C254.406 100.283 255.408 97.6207 255.735 96.62C255.447 97.6303 254.79 100.382 255.491 102.384C256.164 104.301 257.663 105.35 258.892 104.885C260.122 104.42 260.615 102.614 259.943 100.696C259.219 98.6342 256.888 96.9215 256.109 96.3955C256.9 96.899 259.405 98.3648 261.637 98.2397C263.712 98.1242 265.236 96.9985 265.214 95.7123C265.191 94.4262 263.632 93.4672 261.56 93.5827C259.309 93.7078 256.836 95.4718 256.087 96.0459C256.827 95.4525 259.129 93.4736 259.789 91.3151C260.397 89.3266 259.843 87.5786 258.601 87.2482C257.358 86.9179 255.898 88.1303 255.29 90.1188C254.636 92.2581 255.453 95.042 255.751 95.9336C255.427 95.0516 254.329 92.3767 252.504 91.1772V91.1804ZM255.853 96.2287C255.853 96.2287 255.86 96.2319 255.866 96.2351L255.872 96.2383C255.863 96.2319 255.856 96.2287 255.853 96.2255V96.2287ZM255.85 96.2191V96.2287C255.85 96.2287 255.856 96.2255 255.863 96.2191C255.869 96.2159 255.876 96.2095 255.885 96.203C255.863 96.2223 255.85 96.2319 255.85 96.2319C255.85 96.2319 255.85 96.2223 255.844 96.2095C255.844 96.2159 255.847 96.2191 255.85 96.2223V96.2191Z" fill="#F3A5A4"/>
<path d="M314.502 128.565C313.612 127.465 312.363 127.099 311.639 127.657C310.915 128.215 310.989 129.488 311.879 130.589C312.814 131.746 314.713 132.365 315.399 132.558C314.704 132.391 312.741 132 311.293 132.535C309.919 133.045 309.144 134.094 309.449 134.925C309.756 135.752 311.024 136.047 312.401 135.537C313.833 135.008 315.062 133.453 315.492 132.863C315.088 133.472 314.067 135.159 314.108 136.631C314.147 138.046 314.918 139.062 315.831 139.014C316.744 138.966 317.455 137.876 317.416 136.461C317.375 134.938 316.193 133.308 315.786 132.795C316.203 133.299 317.554 134.803 319.059 135.194C320.459 135.56 321.711 135.137 321.967 134.277C322.226 133.417 321.394 132.452 319.994 132.086C318.476 131.689 316.462 132.333 315.841 132.555C316.456 132.32 318.403 131.496 319.299 130.207C320.125 129.017 320.129 127.74 319.373 127.259C318.62 126.775 317.394 127.269 316.568 128.459C315.681 129.739 315.633 131.759 315.642 132.414C315.617 131.759 315.453 129.751 314.496 128.568L314.502 128.565ZM315.655 132.625C315.655 132.625 315.655 132.628 315.661 132.632C315.661 132.632 315.661 132.635 315.665 132.635C315.658 132.628 315.655 132.625 315.655 132.622V132.625ZM315.655 132.619V132.625C315.655 132.625 315.658 132.625 315.665 132.622C315.668 132.622 315.674 132.619 315.684 132.616C315.665 132.622 315.655 132.625 315.655 132.625C315.655 132.625 315.655 132.619 315.655 132.609C315.655 132.612 315.655 132.616 315.655 132.619Z" fill="#F3A5A4"/>
<path d="M309.862 151.228C318.415 148.909 350.164 125.691 335.836 131.881C320.603 138.466 308.53 151.404 308.53 151.404C308.539 151.404 308.555 151.404 308.565 151.404C306 153.858 303.925 156.391 302.253 158.915C304.6 150.156 306.179 127.311 302.01 136.698C298.929 143.636 300.379 157.819 300.793 161.276C297.808 166.514 296.441 171.581 295.854 175.626C295.585 177.473 295.464 179.205 295.432 180.78C294.372 175.69 290.753 161.549 290.196 167.614C289.632 173.746 294.192 180.809 295.422 182.223C295.477 186.527 296.172 189.318 296.181 189.356C296.232 189.561 296.444 189.686 296.649 189.635C296.671 189.629 296.694 189.622 296.716 189.609C296.879 189.532 296.972 189.346 296.927 189.164C296.914 189.106 295.499 183.429 296.617 175.735C296.713 175.08 296.834 174.394 296.975 173.692C299.172 172.47 309.231 165.555 315.543 160.202C321.864 154.839 324.068 149.999 315.978 155.782C302.791 165.205 298.288 171.267 297.078 173.182C298.439 166.783 301.811 158.585 309.865 151.228H309.862Z" fill="#749895"/>
<path d="M292.476 177.325C289.168 173.826 284.832 172.919 282.52 175.007C280.208 177.098 280.797 181.395 284.105 184.895C287.586 188.577 294.186 190.167 296.569 190.639C294.167 190.254 287.397 189.446 282.635 191.646C278.104 193.737 275.753 197.509 277.008 200.238C278.267 202.968 282.654 203.625 287.186 201.534C291.906 199.353 295.662 193.76 296.962 191.633C295.752 193.805 292.739 199.799 293.267 204.793C293.776 209.584 296.658 212.824 299.745 212.423C302.832 212.019 304.959 208.128 304.45 203.337C303.902 198.182 299.46 192.964 297.952 191.325C299.502 192.919 304.479 197.666 309.692 198.599C314.537 199.469 318.672 197.701 319.322 194.722C319.972 191.742 316.897 188.679 312.052 187.81C306.794 186.867 300.133 189.587 298.087 190.504C300.114 189.542 306.506 186.235 309.202 181.617C311.687 177.361 311.36 173.031 308.677 171.591C305.99 170.151 301.965 172.152 299.48 176.408C296.806 180.988 297.174 187.855 297.379 190.074C297.113 187.861 296.037 181.091 292.476 177.329V177.325ZM297.456 190.799C297.456 190.799 297.468 190.809 297.478 190.822C297.481 190.825 297.488 190.831 297.491 190.838C297.472 190.819 297.456 190.802 297.452 190.799H297.456ZM297.456 190.774V190.796C297.456 190.796 297.472 190.79 297.491 190.78C297.507 190.774 297.526 190.764 297.552 190.754C297.491 190.783 297.459 190.799 297.459 190.799H297.456C297.456 190.799 297.456 190.777 297.452 190.745C297.452 190.758 297.452 190.77 297.456 190.777V190.774Z" fill="#F3A5A4"/>
<path d="M223.003 33.8242C222.206 35.5113 222.923 37.5255 224.607 38.3241C224.924 38.4748 225.257 38.555 225.587 38.6031C225.876 42.2755 227.182 48.2507 232.204 53.0745C228.527 51.3329 224.896 49.8479 221.303 48.5458C218.238 45.223 215.417 42.6058 212.903 40.5499C211.039 38.7282 208.08 35.0366 206.921 29.2057C207.25 29.0454 207.535 28.7791 207.705 28.4231C208.102 27.5828 207.744 26.5821 206.908 26.1844C206.069 25.7867 205.07 26.1459 204.672 26.9831C204.275 27.8234 204.634 28.824 205.47 29.2218C205.636 29.3019 205.809 29.3404 205.982 29.3629C206.696 33.0192 208.077 35.8577 209.495 37.9584C206.315 35.723 203.821 34.4978 202.197 33.8435C202.293 32.9198 201.816 31.9929 200.929 31.5727C199.805 31.0403 198.46 31.5182 197.928 32.6439C197.397 33.7697 197.874 35.1168 198.998 35.6492C200.058 36.1527 201.3 35.7486 201.89 34.7608C203.968 35.6107 207.564 37.4485 212.237 41.2459C213.082 42.0638 213.722 42.5257 213.924 42.6668C215.618 44.1357 217.431 45.8484 219.346 47.853C212.454 45.4732 205.697 43.7348 199.027 42.144C198.642 42.0029 188.542 38.199 182.919 26.6912C183.207 26.4763 183.453 26.2005 183.617 25.8541C184.148 24.7283 183.671 23.3813 182.547 22.8488C181.423 22.3164 180.078 22.7943 179.546 23.9201C179.015 25.0458 179.492 26.3929 180.616 26.9253C181.084 27.1466 181.586 27.1851 182.054 27.0825C185.753 34.6645 191.341 39.0104 195.017 41.1978C194.678 41.1176 194.338 41.0375 193.999 40.9605C188.106 39.5813 182.316 38.2247 176.619 36.528C175.06 35.986 172.511 34.8859 169.667 32.8043C169.449 32.6343 163.291 27.679 166.913 17.4766C167.733 17.5824 168.562 17.1687 168.934 16.3829C169.398 15.4047 168.982 14.2372 168.005 13.7722C167.028 13.3071 165.863 13.7241 165.398 14.7023C164.985 15.5715 165.273 16.5882 166.029 17.1302C163.947 22.9707 164.921 27.23 166.308 29.9466C163.08 26.797 159.586 22.0855 156.992 15.1962C157.543 14.9011 158.013 14.4393 158.302 13.8299C159.019 12.3161 158.375 10.5071 156.864 9.7887C155.352 9.07026 153.546 9.71814 152.829 11.2288C152.111 12.7426 152.758 14.5515 154.27 15.27C154.859 15.549 155.493 15.6164 156.089 15.5105C159.458 24.4846 164.386 29.9434 168.719 33.2277C168.95 33.4458 169.097 33.5612 169.107 33.5676C169.161 33.6093 169.225 33.635 169.289 33.651C169.763 33.9942 170.231 34.3117 170.685 34.6068C161.177 31.2712 151.929 26.6014 142.882 18.8493C142.92 18.7852 142.965 18.7242 143.001 18.6537C143.603 17.3804 143.061 15.8633 141.79 15.2604C140.522 14.6574 139.004 15.1994 138.402 16.4727C137.8 17.746 138.341 19.2631 139.612 19.866C140.509 20.2926 141.524 20.1387 142.261 19.5646C152.262 28.1377 162.487 32.9775 173.017 36.3997C170.426 36.0758 167.979 35.7198 165.683 35.3413C165.465 35.2932 164.911 35.1809 164.098 35.0751C152.278 33.0224 144.602 30.4662 141.073 29.1191C141.294 28.0126 140.759 26.858 139.692 26.3512C138.44 25.7547 136.942 26.2903 136.346 27.5475C135.75 28.8016 136.285 30.3026 137.54 30.8992C138.687 31.4444 140.032 31.0339 140.708 29.9979C143.699 31.1397 149.617 33.1347 158.455 34.9692C155.064 35.2964 151.147 36.4574 148.192 39.607C148.182 39.6006 148.172 39.5942 148.163 39.5878C147.077 39.0714 145.777 39.5364 145.265 40.6237C144.749 41.711 145.213 43.0132 146.299 43.5263C147.385 44.0427 148.685 43.5776 149.197 42.4904C149.562 41.7174 149.428 40.8386 148.931 40.21C153.584 35.3092 160.806 35.5979 163.979 36.018C164.469 36.1014 164.966 36.188 165.469 36.2682C165.52 36.281 165.558 36.2874 165.565 36.2907C165.584 36.2971 165.603 36.2907 165.622 36.2939C169.372 36.9097 173.503 37.4709 178.028 37.9232C182.589 39.2253 187.207 40.3351 191.888 41.4352C182.083 41.6725 172.491 46.2718 168.607 48.3694C168.428 48.1737 168.21 48.0037 167.954 47.8851C166.897 47.3815 165.632 47.8337 165.129 48.8954C164.626 49.9538 165.078 51.2206 166.138 51.7242C167.195 52.2277 168.46 51.7755 168.962 50.7139C169.196 50.22 169.215 49.6843 169.071 49.2C173.808 46.6406 187.184 40.2934 198.777 43.0581C204.208 44.3538 209.697 45.749 215.269 47.5066C214.885 47.5066 214.488 47.5066 214.071 47.5258C210.491 47.6958 205.159 48.8922 199.286 53.3439C199.123 53.206 198.947 53.0777 198.742 52.9815C197.48 52.3817 195.975 52.9205 195.376 54.1842C194.777 55.4479 195.315 56.9553 196.577 57.5551C197.839 58.1548 199.344 57.616 199.942 56.3523C200.298 55.6018 200.244 54.7647 199.882 54.0848C211.289 45.4539 220.765 49.3636 220.864 49.4053C220.886 49.4149 220.905 49.4149 220.928 49.4214C225.155 50.9512 229.433 52.7345 233.779 54.8962C231.47 54.6204 228.415 54.7743 224.912 56.2176C224.854 56.224 224.8 56.2369 224.745 56.2657C224.636 56.3235 224.527 56.3748 224.422 56.4293C224.073 56.5833 223.72 56.7532 223.362 56.9329C218.459 59.0785 214.814 58.3761 213.085 57.7732C213.12 57.2279 212.829 56.6923 212.304 56.4421C211.618 56.1182 210.799 56.4101 210.475 57.0964C210.152 57.7828 210.443 58.6039 211.128 58.9278C211.666 59.1844 212.288 59.0529 212.685 58.652C214.068 59.1619 216.569 59.7264 219.932 59.0369C218.872 59.8034 217.789 60.695 216.691 61.7342C216.601 61.6733 216.512 61.6123 216.412 61.5642C215.24 61.0061 213.838 61.5097 213.281 62.6836C212.723 63.8574 213.226 65.2622 214.398 65.8203C215.57 66.3784 216.973 65.8748 217.53 64.7009C217.892 63.9344 217.799 63.0716 217.367 62.4109C219.65 60.262 221.847 58.7578 223.9 57.7347C224.165 57.616 224.438 57.4845 224.713 57.3498C231.342 54.3831 236.328 56.3074 237.584 56.9008C237.692 56.9585 237.805 57.0163 237.917 57.0708C237.933 57.0804 237.952 57.0804 237.968 57.0868C244.004 60.4064 250.166 64.5021 256.481 69.6755C256.683 69.8423 256.984 69.8102 257.15 69.6081C257.176 69.576 257.195 69.544 257.211 69.5087C257.301 69.3163 257.256 69.0789 257.083 68.9378C250.153 63.2609 243.412 58.8765 236.821 55.3837C228.735 50.5664 226.9 42.9394 226.545 38.6095C227.624 38.4524 228.604 37.7756 229.107 36.714C229.904 35.027 229.187 33.0128 227.502 32.2142C225.818 31.4156 223.807 32.134 223.009 33.821L223.003 33.8242Z" fill="#9ACBC6"/>
<path d="M217.162 77.7899C215.349 78.704 214.456 80.3494 215.019 81.5393C215.583 82.7292 217.389 83.0114 219.202 82.0974C221.11 81.1352 222.551 78.6559 223.032 77.7483C222.584 78.672 221.44 81.3148 221.748 83.5118C222.042 85.5997 223.278 87.0077 224.534 86.8313C225.789 86.6549 226.587 84.9551 226.292 82.8671C225.984 80.6926 224.182 78.4923 223.483 77.7098C224.214 78.4635 226.266 80.4103 228.345 80.8016C230.34 81.1769 231.995 80.4039 232.21 79.1049C232.421 77.806 231.108 76.475 229.113 76.0997C226.968 75.6956 224.322 76.863 223.48 77.2736C224.313 76.8406 226.83 75.4005 227.839 73.4024C228.777 71.5453 228.566 69.6594 227.442 69.034C226.318 68.4086 224.71 69.2842 223.772 71.138C222.753 73.1522 223.045 76.1767 223.166 77.1164C223.022 76.1799 222.465 73.1907 220.928 71.5389C219.512 70.0154 217.725 69.6241 216.819 70.535C215.913 71.4491 216.233 73.319 217.649 74.8424C219.173 76.4814 221.988 77.1645 222.907 77.3473C221.981 77.187 219.119 76.8021 217.168 77.7867L217.162 77.7899ZM223.202 77.4083C223.202 77.4083 223.208 77.4051 223.214 77.4019C223.214 77.4019 223.221 77.4019 223.221 77.3987C223.211 77.4051 223.202 77.4083 223.202 77.4083ZM223.192 77.4083H223.202C223.202 77.4083 223.202 77.4019 223.202 77.3922C223.202 77.3858 223.202 77.3762 223.198 77.3634C223.202 77.3922 223.205 77.4051 223.205 77.4051C223.205 77.4051 223.195 77.4051 223.182 77.4019C223.189 77.4019 223.192 77.4019 223.195 77.4019L223.192 77.4083Z" fill="#9ACBC6"/>
<path d="M149.149 55.5313C147.337 56.4454 146.443 58.0907 147.007 59.2806C147.57 60.4705 149.377 60.7528 151.189 59.8387C153.098 58.8765 154.539 56.3973 155.019 55.4896C154.571 56.4133 153.428 59.0561 153.735 61.2531C154.03 63.3411 155.266 64.7491 156.521 64.5727C157.776 64.3963 158.574 62.6964 158.279 60.6084C157.972 58.4339 156.169 56.2337 155.471 55.4511C156.201 56.2048 158.254 58.1516 160.332 58.5429C162.327 58.9182 163.983 58.1452 164.194 56.8463C164.405 55.5473 163.092 54.2163 161.097 53.841C158.952 53.4369 156.307 54.6012 155.464 55.0149C156.297 54.5819 158.814 53.1418 159.823 51.1437C160.761 49.2867 160.55 47.4008 159.426 46.7753C158.302 46.1499 156.694 47.0255 155.756 48.8793C154.737 50.8935 155.029 53.918 155.15 54.8577C155.006 53.9212 154.449 50.932 152.912 49.2802C151.497 47.7568 149.71 47.3655 148.803 48.2764C147.897 49.1904 148.217 51.0603 149.633 52.5838C151.157 54.2227 153.972 54.9059 154.891 55.0887C153.966 54.9283 151.103 54.5434 149.152 55.5281L149.149 55.5313ZM155.189 55.1496C155.189 55.1496 155.195 55.1464 155.202 55.1432C155.202 55.1432 155.208 55.1432 155.208 55.14C155.198 55.1464 155.189 55.1496 155.189 55.1496ZM155.179 55.1496H155.189C155.189 55.1496 155.189 55.1432 155.189 55.1368C155.189 55.1304 155.189 55.1207 155.186 55.1079C155.189 55.1368 155.192 55.1496 155.192 55.1496C155.192 55.1496 155.182 55.1496 155.17 55.1464C155.176 55.1464 155.179 55.1464 155.182 55.1464L155.179 55.1496Z" fill="#F3A5A4"/>
<path d="M212.477 20.4498C211.08 20.6711 210.139 21.5723 210.261 22.48C210.382 23.3877 211.519 23.9586 212.915 23.7405C214.385 23.5063 215.868 22.1721 216.377 21.6718C215.884 22.1913 214.565 23.6988 214.305 25.219C214.059 26.6655 214.578 27.8651 215.449 28.0126C216.32 28.1601 217.207 27.2044 217.453 25.7579C217.709 24.2504 216.983 22.4094 216.685 21.7391C217.008 22.3934 217.956 24.1221 219.253 24.8245C220.496 25.4981 221.761 25.3377 222.177 24.5198C222.593 23.702 222.004 22.5409 220.761 21.8674C219.423 21.1426 217.424 21.3542 216.774 21.4473C217.418 21.335 219.394 20.918 220.486 19.8083C221.501 18.7788 221.761 17.4798 221.149 16.8255C220.537 16.1712 219.285 16.4086 218.267 17.4413C217.165 18.5607 216.714 20.6294 216.595 21.2773C216.701 20.6262 216.96 18.5254 216.294 17.1014C215.679 15.7896 214.574 15.1513 213.78 15.5619C212.986 15.9756 212.8 17.2842 213.415 18.5928C214.078 20.004 215.801 21.056 216.371 21.3735C215.791 21.0688 213.975 20.206 212.474 20.4434L212.477 20.4498ZM216.563 21.4825C216.563 21.4825 216.566 21.4825 216.573 21.4825C216.573 21.4825 216.576 21.4825 216.579 21.4825C216.569 21.4825 216.566 21.4825 216.563 21.4825ZM216.557 21.4793L216.563 21.4825C216.563 21.4825 216.563 21.4761 216.563 21.4729C216.563 21.4665 216.563 21.4633 216.566 21.4537C216.566 21.4729 216.563 21.4825 216.563 21.4825C216.563 21.4825 216.557 21.4825 216.55 21.4761C216.553 21.4761 216.557 21.4793 216.56 21.4793H216.557Z" fill="#F3A5A4"/>
<path d="M229.75 35.8031C232.021 27.2236 227.819 -11.9215 226.01 3.60181C224.085 20.1098 229.238 37.0476 229.238 37.0476C229.244 37.038 229.251 37.0251 229.257 37.0187C230.096 40.4698 231.249 43.5392 232.594 46.2493C226.193 39.8315 207.228 27.0408 213.261 35.3509C217.719 41.4929 230.711 47.327 233.904 48.6965C236.943 53.9052 240.639 57.6224 243.841 60.1562C245.305 61.314 246.739 62.2826 248.087 63.1005C243.156 61.4776 229.116 57.5422 234.083 61.0575C239.105 64.6111 247.492 64.1878 249.33 63.8286C253.08 65.9326 255.837 66.7248 255.879 66.7376C256.084 66.7953 256.295 66.6767 256.353 66.4714C256.359 66.4489 256.362 66.4233 256.366 66.4008C256.382 66.218 256.266 66.048 256.087 65.9967C256.029 65.9807 250.416 64.3706 244.321 59.5532C243.806 59.1459 243.271 58.6937 242.733 58.219C242.775 55.7013 241.827 43.5231 240.354 35.3702C238.877 27.2076 235.797 22.8745 236.748 32.7819C238.301 48.9338 241.292 55.868 242.342 57.8758C237.491 53.4978 232.088 46.4706 229.75 35.8064V35.8031Z" fill="#749895"/>
<path d="M243.627 63.9312C238.945 65.0506 235.992 68.3573 236.645 71.4074C237.299 74.4576 241.308 76.0965 245.99 74.974C250.912 73.7969 255.591 68.864 257.189 67.0359C255.655 68.925 251.572 74.3934 251.091 79.6278C250.637 84.6055 252.718 88.528 255.709 88.8039C258.7 89.0797 261.461 85.5998 261.919 80.622C262.393 75.4358 259.434 69.3836 258.245 67.193C259.517 69.3291 263.193 74.9387 267.776 76.9785C272.173 78.935 276.416 78.053 277.61 75.1728C278.805 72.2927 276.502 68.5048 272.105 66.5484C267.376 64.4444 260.644 65.6888 258.47 66.1795C260.625 65.6343 267.215 63.6907 270.629 59.6334C273.803 55.8648 274.341 51.3971 272.089 49.3412C269.838 47.2853 265.653 48.4239 262.479 52.1925C259.033 56.2818 258.057 63.418 257.826 65.6535C258.008 63.4148 258.342 56.2176 255.7 51.5703C253.263 47.2853 249.352 45.4058 246.768 47.0127C244.181 48.6227 243.896 53.1162 246.333 57.3979C248.955 62.0068 255.078 65.1211 257.099 66.0512C255.053 65.1756 248.657 62.7253 243.627 63.928V63.9312ZM257.768 66.3495C257.768 66.3495 257.784 66.3463 257.8 66.3399C257.807 66.3399 257.813 66.3399 257.82 66.3367C257.791 66.3431 257.775 66.3495 257.768 66.3495ZM257.746 66.3399L257.765 66.3495C257.765 66.3495 257.765 66.3335 257.765 66.311C257.765 66.295 257.768 66.2725 257.772 66.2437C257.765 66.311 257.765 66.3463 257.765 66.3463C257.765 66.3463 257.743 66.3399 257.714 66.3271C257.727 66.3335 257.736 66.3367 257.743 66.3399H257.746Z" fill="#F3A5A4"/>
<path d="M84.8032 52.4394C85.8632 53.9757 87.964 54.3606 89.4948 53.299C89.783 53.1001 90.02 52.8532 90.2249 52.587C93.5426 54.1714 99.3646 56.0252 106.048 54.0848C102.701 56.4037 99.6016 58.8091 96.681 61.2756C92.2745 62.273 88.6013 63.4084 85.5654 64.563C83.0579 65.2687 78.3856 65.9903 72.7654 64.0787C72.791 63.7099 72.7046 63.3346 72.4804 63.0075C71.952 62.2442 70.908 62.0517 70.1458 62.5809C69.3837 63.1069 69.1915 64.1557 69.7199 64.9191C70.2483 65.6824 71.2923 65.8748 72.0545 65.3456C72.205 65.2398 72.3267 65.1115 72.4324 64.9704C75.9518 66.1763 79.0966 66.4008 81.6233 66.2212C78.1006 67.8634 75.7917 69.4125 74.4179 70.4933C73.6653 69.9481 72.6277 69.9 71.8207 70.4581C70.7959 71.1669 70.5397 72.5717 71.2475 73.598C71.9552 74.6244 73.3579 74.8809 74.3826 74.1721C75.3466 73.505 75.6188 72.2253 75.0583 71.2214C76.8325 69.8423 80.2206 67.6453 85.8408 65.49C86.9713 65.166 87.6918 64.8421 87.9128 64.7362C90.0296 64.0018 92.4186 63.2865 95.1086 62.6258C89.6036 67.4143 84.7232 72.4049 80.0125 77.3955C79.6986 77.6585 71.3596 84.5157 58.5948 83.6401C58.5532 83.2841 58.4379 82.9313 58.2201 82.6137C57.5124 81.5874 56.1097 81.3308 55.0849 82.0396C54.0602 82.7485 53.804 84.1533 54.5117 85.1796C55.2194 86.2059 56.6221 86.4625 57.6469 85.7537C58.0728 85.4586 58.3578 85.0417 58.5019 84.5862C66.905 85.17 73.4571 82.4919 77.1879 80.4007C76.951 80.6541 76.7108 80.9107 76.4738 81.1641C72.3331 85.5869 68.266 89.9296 63.9524 94.0221C62.7035 95.103 60.4778 96.7644 57.2562 98.1916C57 98.2975 49.6345 101.158 42.6244 92.9188C43.1272 92.2613 43.1816 91.3344 42.6884 90.6192C42.0736 89.7276 40.8567 89.5062 39.9664 90.122C39.0761 90.7379 38.8552 91.9566 39.47 92.8483C40.0176 93.6405 41.0392 93.9003 41.8846 93.5154C45.894 98.2397 50.0636 99.5259 53.1059 99.683C48.7698 100.908 42.9478 101.585 35.6944 100.385C35.7136 99.76 35.5503 99.1217 35.1692 98.5669C34.2181 97.1877 32.3319 96.8414 30.9548 97.7939C29.5778 98.7465 29.2352 100.636 30.1831 102.015C31.1342 103.394 33.0204 103.737 34.3974 102.788C34.9354 102.416 35.3101 101.899 35.5151 101.332C44.9589 102.897 52.1451 101.354 57.1505 99.234C57.4547 99.1442 57.6277 99.0736 57.6405 99.0672C57.7045 99.0384 57.759 98.9999 57.8038 98.9486C58.3386 98.708 58.8478 98.461 59.3281 98.2141C51.6904 104.792 43.0247 110.479 31.8035 114.449C31.765 114.382 31.7394 114.315 31.6946 114.251C30.8972 113.093 29.312 112.801 28.1559 113.603C26.9999 114.401 26.7085 115.989 27.5091 117.147C28.3065 118.305 29.8916 118.596 31.0477 117.795C31.8643 117.23 32.239 116.271 32.1109 115.348C44.5234 110.96 53.8232 104.51 62.047 97.0883C60.4714 99.1731 58.9406 101.117 57.4643 102.919C57.3138 103.083 56.9391 103.509 56.4428 104.16C48.7602 113.388 42.7077 118.766 39.7807 121.153C38.9352 120.405 37.6671 120.296 36.6967 120.967C35.5567 121.756 35.2685 123.324 36.0563 124.466C36.8441 125.608 38.41 125.896 39.5501 125.107C40.5941 124.386 40.9111 123.013 40.3539 121.91C42.8358 119.886 47.5209 115.752 53.5254 109C52.1131 112.105 51.1588 116.085 52.4045 120.219C52.3949 120.226 52.3853 120.229 52.3757 120.235C51.3862 120.919 51.1396 122.278 51.8217 123.27C52.5038 124.261 53.8616 124.508 54.8512 123.824C55.8407 123.141 56.0873 121.781 55.4052 120.79C54.9184 120.085 54.0922 119.764 53.298 119.879C51.3862 113.394 55.2483 107.275 57.1985 104.731C57.5156 104.35 57.8358 103.962 58.1593 103.567C58.1945 103.529 58.2201 103.5 58.2265 103.497C58.2393 103.48 58.2457 103.464 58.2585 103.448C60.6667 100.501 63.2159 97.2006 65.8706 93.5025C69.2748 90.199 72.5444 86.748 75.8365 83.236C71.1386 91.8604 70.3188 102.477 70.1907 106.896C69.9313 106.954 69.6783 107.06 69.4445 107.22C68.4806 107.887 68.2404 109.209 68.9065 110.174C69.5726 111.14 70.892 111.38 71.8559 110.713C72.8199 110.046 73.06 108.724 72.3939 107.759C72.0833 107.31 71.6318 107.025 71.1386 106.909C71.2955 101.521 72.4932 86.7448 80.6786 78.0754C84.515 74.0118 88.4636 69.9481 92.7708 65.9967C92.5755 66.3303 92.3801 66.6735 92.188 67.0455C90.5452 70.2368 88.9119 75.4583 89.8246 82.7773C89.6229 82.8511 89.4243 82.9409 89.2386 83.0692C88.0889 83.8646 87.8039 85.4394 88.5949 86.5908C89.3891 87.7422 90.9615 88.0277 92.1111 87.2355C93.2608 86.4401 93.5458 84.8653 92.7548 83.7139C92.2841 83.0307 91.5347 82.6587 90.7629 82.633C89.0016 68.4246 97.1197 62.1608 97.2062 62.0966C97.2254 62.0838 97.235 62.0646 97.251 62.0485C100.687 59.1459 104.37 56.3267 108.411 53.6422C107.018 55.5088 105.622 58.2318 105.119 61.994C105.097 62.0453 105.081 62.103 105.078 62.164C105.071 62.2891 105.065 62.4045 105.055 62.5264C105.014 62.9049 104.982 63.2962 104.959 63.6971C104.364 69.0212 101.933 71.834 100.546 73.0335C100.092 72.7321 99.4831 72.716 99.0059 73.0464C98.3814 73.4794 98.2245 74.3357 98.6568 74.9611C99.0892 75.5866 99.9442 75.7437 100.569 75.3107C101.059 74.9707 101.257 74.3678 101.11 73.8225C102.24 72.8764 103.979 70.9905 105.065 67.7287C105.196 69.0308 105.427 70.4164 105.776 71.8885C105.68 71.9366 105.58 71.9815 105.491 72.0457C104.424 72.7834 104.155 74.2491 104.892 75.3203C105.628 76.3884 107.092 76.6578 108.162 75.9201C109.228 75.1824 109.497 73.7135 108.76 72.6455C108.277 71.9463 107.486 71.5967 106.698 71.6416C105.981 68.585 105.779 65.9294 105.92 63.6361C105.949 63.3443 105.974 63.046 105.994 62.7381C106.743 55.5056 110.903 52.1412 112.04 51.3522C112.145 51.2848 112.251 51.2175 112.354 51.1469C112.37 51.1373 112.379 51.1212 112.392 51.1084C118.281 47.5323 124.904 44.2384 132.535 41.3454C132.782 41.2524 132.903 40.9765 132.81 40.7328C132.798 40.6943 132.778 40.6622 132.756 40.6301C132.634 40.4537 132.407 40.3768 132.199 40.4569C123.825 43.629 116.664 47.2821 110.349 51.2559C102.141 55.8616 94.625 53.639 90.7053 51.7819C91.1088 50.7684 91.0127 49.5785 90.3466 48.6131C89.2866 47.0768 87.1858 46.6919 85.6551 47.7536C84.1211 48.8152 83.7369 50.9192 84.7968 52.4523L84.8032 52.4394Z" fill="#9ACBC6"/>
<path d="M119.898 79.4898C119.783 81.5201 120.76 83.1173 122.07 83.2231C123.379 83.329 124.526 81.9049 124.641 79.8747C124.763 77.7386 123.341 75.2498 122.797 74.3806C123.373 75.2305 125.083 77.5462 127.139 78.3737C129.093 79.1627 130.927 78.7939 131.401 77.6168C131.875 76.4397 130.806 74.9002 128.852 74.1112C126.819 73.2901 124.017 73.7552 122.989 73.9701C124.004 73.7135 126.713 72.9052 128.093 71.2984C129.416 69.7557 129.576 67.9307 128.558 67.1C127.539 66.2661 125.733 66.7408 124.411 68.2835C122.989 69.9417 122.675 72.8186 122.608 73.7584C122.649 72.8186 122.662 69.916 121.442 68.043C120.305 66.3014 118.569 65.5413 117.465 66.2052C116.363 66.8659 116.315 68.7005 117.449 70.442C118.682 72.3311 121.442 73.5948 122.316 73.9572C121.436 73.6141 118.573 72.6038 116.376 73.1105C114.352 73.5788 113.119 74.9323 113.455 76.1735C113.791 77.4147 115.569 78.0754 117.593 77.6071C119.77 77.1036 121.769 75.0028 122.39 74.2972C121.788 75.0189 120.023 77.3089 119.902 79.493L119.898 79.4898ZM122.588 74.0599C122.588 74.0599 122.588 74.0535 122.588 74.047C122.588 74.047 122.588 74.0406 122.588 74.0374C122.588 74.0502 122.588 74.0567 122.588 74.0599ZM122.582 74.0695L122.588 74.0631C122.588 74.0631 122.582 74.0631 122.572 74.0567C122.566 74.0567 122.556 74.0502 122.547 74.047C122.572 74.0567 122.588 74.0631 122.588 74.0631C122.588 74.0631 122.582 74.0727 122.572 74.0823C122.576 74.0791 122.579 74.0727 122.582 74.0727V74.0695Z" fill="#9ACBC6"/>
<path d="M66.6456 127.349C66.5303 129.379 67.5071 130.977 68.8168 131.083C70.1266 131.188 71.2731 129.764 71.3884 127.734C71.5101 125.598 70.0882 123.106 69.5438 122.24C70.1202 123.09 71.8303 125.406 73.8862 126.233C75.8397 127.022 77.6747 126.653 78.1486 125.476C78.6226 124.299 77.553 122.76 75.5995 121.971C73.566 121.149 70.7639 121.615 69.7359 121.829C70.7511 121.573 73.4603 120.765 74.8406 119.158C76.1632 117.615 76.3233 115.79 75.3049 114.959C74.2865 114.125 72.4804 114.6 71.1578 116.143C69.7359 117.801 69.4221 120.678 69.3548 121.618C69.3965 120.678 69.4093 117.775 68.1892 115.902C67.0523 114.161 65.3166 113.401 64.2118 114.065C63.1102 114.725 63.0621 116.56 64.1958 118.301C65.4287 120.191 68.1892 121.454 69.0634 121.817C68.1828 121.473 65.3198 120.463 63.123 120.97C61.0991 121.438 59.8661 122.792 60.2024 124.033C60.5386 125.274 62.316 125.935 64.3399 125.467C66.5175 124.963 68.5158 122.862 69.1371 122.157C68.535 122.878 66.7705 125.168 66.6488 127.352L66.6456 127.349ZM69.3356 121.919C69.3356 121.919 69.3356 121.913 69.3356 121.906C69.3356 121.906 69.3356 121.9 69.3356 121.897C69.3356 121.91 69.3356 121.916 69.3356 121.919ZM69.3292 121.929L69.3356 121.922C69.3356 121.922 69.3292 121.922 69.3196 121.916C69.3132 121.916 69.3036 121.91 69.294 121.906C69.3196 121.916 69.3356 121.922 69.3356 121.922C69.3356 121.922 69.3292 121.929 69.3196 121.938C69.3228 121.935 69.326 121.929 69.3292 121.929Z" fill="#F3A5A4"/>
<path d="M67.9746 54.8834C67.4686 56.2048 67.776 57.4717 68.6215 57.8213C69.4669 58.1709 70.5301 57.4685 71.0393 56.1471C71.5741 54.7551 71.1578 52.8019 70.9817 52.1091C71.1834 52.7955 71.8271 54.6942 73.0152 55.682C74.1424 56.6186 75.4394 56.7661 76.003 56.0861C76.5666 55.4062 76.1856 54.1586 75.0551 53.2188C73.8798 52.2406 71.9232 51.9519 71.1962 51.8782C71.9232 51.9231 73.8926 51.9648 75.148 51.1918C76.3521 50.4509 76.8453 49.2738 76.3457 48.5041C75.8493 47.7343 74.5491 47.6638 73.345 48.4047C72.0513 49.2033 71.2314 51.0443 70.9881 51.6504C71.2154 51.0379 71.8399 49.1135 71.4268 47.6125C71.0425 46.2173 70.053 45.3417 69.1787 45.5469C68.3076 45.7522 67.8881 46.955 68.2692 48.3533C68.6855 49.8704 70.2483 51.2944 70.7511 51.721C70.2387 51.3041 68.5542 50.0276 66.9915 49.8961C65.5504 49.7742 64.4455 50.4092 64.4039 51.3073C64.3623 52.2021 65.4031 53.02 66.8441 53.1386C68.3941 53.2701 70.165 52.3015 70.7287 51.9648C70.1746 52.3144 68.5222 53.4594 67.9746 54.8802V54.8834ZM70.9112 51.8557C70.9112 51.8557 70.9112 51.8525 70.9144 51.8461C70.9144 51.8461 70.9144 51.8429 70.9144 51.8397C70.9144 51.8493 70.9112 51.8525 70.908 51.8557H70.9112ZM70.9048 51.8589L70.9112 51.8557C70.9112 51.8557 70.908 51.8525 70.9016 51.8493C70.8984 51.8461 70.892 51.8429 70.8856 51.8365C70.9016 51.8493 70.908 51.8557 70.908 51.8557C70.908 51.8557 70.9016 51.8589 70.8952 51.8653C70.8984 51.8653 70.9016 51.8621 70.9048 51.8589Z" fill="#F3A5A4"/>
<path d="M89.8887 47.5771C83.6056 41.3165 47.6554 25.389 60.1736 34.7191C73.486 44.6425 90.7085 48.642 90.7085 48.642C90.7053 48.6324 90.6957 48.6195 90.6925 48.6099C94.0966 49.6074 97.3247 50.143 100.345 50.329C91.5956 52.6703 71.0521 62.7252 81.255 61.6476C88.7967 60.8522 100.335 52.5004 103.115 50.4156C109.135 50.3835 114.198 49.0365 117.993 47.5258C119.725 46.8363 121.282 46.0761 122.662 45.316C118.79 48.7799 108.373 58.9919 113.894 56.4421C119.479 53.8635 123.306 46.3776 123.914 44.604C127.61 42.4038 129.675 40.4088 129.704 40.38C129.855 40.2324 129.858 39.9855 129.711 39.8347C129.695 39.8187 129.675 39.8026 129.656 39.7898C129.509 39.684 129.301 39.6968 129.166 39.8315C129.125 39.8732 124.923 43.9369 117.711 46.8138C117.1 47.0576 116.443 47.2949 115.764 47.5258C113.609 46.2301 102.602 40.9637 94.8172 38.1669C87.0193 35.3637 81.7322 35.8737 90.7757 39.9983C105.52 46.7272 113.01 47.5996 115.271 47.6926C109.058 49.7132 100.284 50.8839 89.8919 47.5804L89.8887 47.5771Z" fill="#749895"/>
<path d="M121.147 49.6074C119.777 54.2259 121.157 58.4403 124.122 59.3993C127.085 60.3583 130.508 57.6994 131.879 53.0809C133.32 48.2218 131.395 41.6982 130.614 39.3985C131.482 41.6757 134.168 47.9492 138.453 50.9801C142.527 53.8635 146.965 54.0174 148.698 51.5638C150.43 49.107 148.803 44.9728 144.727 42.0895C140.48 39.0842 133.765 38.6256 131.28 38.5582C133.765 38.5229 140.451 38.1413 144.506 35.1841C148.397 32.3457 149.754 28.2275 147.862 25.7514C145.969 23.2754 141.54 23.378 137.653 26.2133C133.47 29.2634 131.177 35.7262 130.514 37.8558C131.12 35.7133 132.734 29.0261 130.934 24.0355C129.262 19.3978 125.666 16.6972 122.765 17.6241C119.863 18.5478 118.752 22.7494 120.424 27.3872C122.236 32.4194 127.92 36.8391 129.736 38.1541C127.892 36.8776 121.836 32.9871 116.494 32.9583C111.572 32.9294 107.989 35.3798 108.088 38.4267C108.187 41.4736 111.928 43.9689 116.853 43.9978C122.15 44.0299 127.904 40.2741 129.72 38.9848C127.936 40.3222 122.624 44.6425 121.147 49.6106V49.6074ZM130.309 38.5518C130.309 38.5518 130.313 38.5358 130.319 38.5197C130.319 38.5165 130.322 38.5069 130.325 38.5005C130.319 38.5293 130.313 38.5454 130.313 38.5518H130.309ZM130.29 38.5678L130.309 38.555C130.309 38.555 130.297 38.5454 130.277 38.5326C130.265 38.5229 130.249 38.5101 130.223 38.4941C130.277 38.5326 130.309 38.5518 130.309 38.5518C130.309 38.5518 130.29 38.5678 130.265 38.5871C130.274 38.5775 130.284 38.571 130.29 38.5678Z" fill="#F3A5A4"/>
<path d="M31.8003 181.617C33.6577 181.466 35.0412 179.837 34.8906 177.976C34.8618 177.624 34.7657 177.3 34.6409 176.989C37.6703 174.904 42.1825 170.783 43.8478 164.015C44.1776 168.076 44.7092 171.966 45.3817 175.735C44.0399 180.055 43.1881 183.811 42.6661 187.018C42.0224 189.545 40.3123 193.958 35.8482 197.878C35.5439 197.673 35.1725 197.557 34.7786 197.589C33.8563 197.663 33.1677 198.474 33.2414 199.401C33.3151 200.325 34.1253 201.015 35.0508 200.941C35.9731 200.867 36.6616 200.056 36.5879 199.129C36.5719 198.946 36.5207 198.773 36.4534 198.612C39.2555 196.165 41.0232 193.548 42.1313 191.268C41.7886 195.145 41.9744 197.92 42.2209 199.655C41.3723 200.033 40.8119 200.909 40.8919 201.89C40.9912 203.131 42.08 204.058 43.3194 203.956C44.5587 203.856 45.4842 202.766 45.3817 201.525C45.2856 200.354 44.3153 199.478 43.1689 199.462C42.8646 197.233 42.6565 193.198 43.6044 187.246C43.8894 186.104 43.9695 185.318 43.9887 185.071C44.4146 182.868 44.9878 180.44 45.7596 177.774C47.1494 184.943 49.0228 191.672 50.9827 198.253C51.0532 198.657 52.8145 209.318 45.6731 219.95C45.3433 219.806 44.9814 219.732 44.6003 219.761C43.361 219.861 42.4355 220.951 42.538 222.192C42.6405 223.434 43.7261 224.361 44.9654 224.258C46.2047 224.158 47.1302 223.068 47.0277 221.827C46.9861 221.31 46.7684 220.855 46.4449 220.499C51.1524 213.501 52.1132 206.48 52.1676 202.198C52.2701 202.532 52.3694 202.865 52.4718 203.202C54.2268 209.004 55.9464 214.703 57.3299 220.493C57.6405 222.115 57.964 224.877 57.5861 228.386C57.5476 228.662 56.3403 236.478 45.7116 238.437C45.3945 237.674 44.6227 237.161 43.7549 237.231C42.6789 237.318 41.8751 238.264 41.9648 239.342C42.0512 240.419 42.9959 241.225 44.0719 241.138C45.0295 241.061 45.766 240.304 45.8557 239.377C51.9466 238.261 55.1426 235.288 56.7983 232.728C55.6903 237.103 53.3621 242.488 48.6994 248.181C48.1678 247.851 47.5369 247.674 46.8644 247.729C45.196 247.864 43.9566 249.326 44.0911 250.997C44.2256 252.668 45.6891 253.909 47.3544 253.775C49.0228 253.64 50.2622 252.174 50.1277 250.506C50.0764 249.855 49.817 249.272 49.4264 248.807C55.5013 241.398 57.759 234.393 58.4315 228.992C58.5052 228.684 58.5308 228.498 58.5308 228.485C58.5404 228.415 58.5308 228.35 58.5116 228.286C58.5724 227.703 58.6108 227.138 58.6397 226.596C60.5067 236.51 61.0959 246.869 58.9151 258.589C58.8382 258.589 58.7646 258.579 58.6877 258.586C57.2883 258.698 56.2443 259.93 56.3564 261.331C56.4684 262.733 57.6982 263.778 59.0976 263.666C60.4971 263.554 61.541 262.322 61.429 260.921C61.3489 259.93 60.7084 259.124 59.847 258.775C62.2584 245.814 61.3329 234.524 59.0272 223.681C60.0423 226.089 60.9582 228.389 61.7812 230.57C61.8485 230.782 62.0278 231.32 62.3416 232.077C66.4791 243.354 68.1028 251.292 68.7048 255.026C67.6384 255.385 66.9051 256.43 67.0011 257.604C67.1132 258.99 68.3237 260.019 69.7072 259.907C71.0906 259.795 72.1186 258.582 72.0065 257.197C71.904 255.93 70.8761 254.968 69.6431 254.9C69.1339 251.738 67.901 245.606 65.0669 237.023C67.046 239.8 70.0082 242.616 74.2066 243.608C74.2066 243.62 74.2066 243.63 74.2066 243.643C74.3026 244.842 75.353 245.737 76.5507 245.638C77.7484 245.542 78.6419 244.49 78.5458 243.29C78.4497 242.09 77.3993 241.196 76.2016 241.295C75.3498 241.366 74.6581 241.921 74.3635 242.668C67.7985 241.083 64.4392 234.672 63.2159 231.712C63.0462 231.243 62.87 230.772 62.6875 230.294C62.6715 230.243 62.6587 230.207 62.6587 230.201C62.6523 230.182 62.6395 230.166 62.6331 230.15C61.2881 226.59 59.7093 222.725 57.8391 218.575C56.6862 213.969 55.3348 209.408 53.9449 204.799C59.056 213.186 67.8242 219.206 71.5806 221.525C71.5005 221.779 71.4653 222.051 71.4877 222.334C71.5838 223.501 72.6054 224.373 73.771 224.277C74.9367 224.181 75.8078 223.158 75.7117 221.99C75.6156 220.823 74.594 219.95 73.4284 220.047C72.884 220.092 72.4132 220.342 72.0641 220.707C67.4847 217.879 55.306 209.453 51.9018 198.013C50.307 192.653 48.7699 187.194 47.5017 181.482C47.6907 181.819 47.8924 182.159 48.1166 182.512C50.054 185.53 53.7528 189.558 60.5387 192.429C60.5003 192.64 60.4778 192.858 60.4971 193.083C60.6091 194.475 61.8293 195.514 63.2191 195.402C64.6089 195.29 65.6465 194.068 65.5344 192.676C65.4224 191.284 64.2022 190.244 62.8124 190.357C61.983 190.424 61.2881 190.889 60.8814 191.543C47.7131 185.966 46.3584 175.792 46.3456 175.686C46.3456 175.664 46.3328 175.645 46.3264 175.622C45.5354 171.19 44.9398 166.587 44.6356 161.741C45.5514 163.88 47.2103 166.456 50.2109 168.772C50.2462 168.816 50.2846 168.858 50.3358 168.893C50.4415 168.961 50.5376 169.028 50.6401 169.092C50.9475 169.317 51.2709 169.541 51.604 169.759C55.9112 172.938 57.1281 176.45 57.4708 178.252C56.9808 178.496 56.6638 179.016 56.7118 179.593C56.7727 180.35 57.4356 180.914 58.1913 180.853C58.9471 180.793 59.5107 180.129 59.4499 179.372C59.4018 178.775 58.9791 178.304 58.4347 178.159C58.1849 176.706 57.4196 174.253 55.1426 171.684C56.3339 172.219 57.6469 172.713 59.0944 173.146C59.088 173.255 59.0784 173.361 59.088 173.473C59.1937 174.769 60.3273 175.735 61.6211 175.629C62.9149 175.523 63.8788 174.388 63.7731 173.092C63.6674 171.796 62.5338 170.831 61.24 170.936C60.3946 171.004 59.6965 171.517 59.341 172.223C56.3403 171.318 53.9417 170.164 52.0299 168.893C51.7929 168.72 51.5463 168.55 51.2902 168.38C45.4105 164.111 44.5811 158.826 44.469 157.443C44.4626 157.318 44.4562 157.193 44.4498 157.068C44.4498 157.049 44.4402 157.033 44.437 157.017C44.2897 150.121 44.7508 142.728 46.067 134.665C46.1087 134.405 45.9325 134.162 45.6763 134.12C45.6379 134.113 45.5995 134.113 45.5611 134.117C45.3497 134.133 45.1672 134.293 45.1319 134.514C43.6876 143.363 43.2681 151.404 43.5435 158.864C43.4218 168.287 37.7408 173.692 34.1765 176.164C33.5008 175.308 32.4248 174.795 31.2591 174.891C29.4017 175.042 28.0183 176.671 28.1688 178.531C28.3193 180.392 29.9461 181.777 31.8035 181.626L31.8003 181.617Z" fill="#9ACBC6"/>
<path d="M87.4965 234.82C89.1937 235.936 91.064 235.888 91.8101 234.804C92.5563 233.719 91.8998 232.013 90.1993 230.897C88.4124 229.723 85.5494 229.714 84.5246 229.749C85.5494 229.675 88.406 229.348 90.1481 227.982C91.8069 226.683 92.4058 224.906 91.6244 223.905C90.843 222.904 88.976 223.062 87.3203 224.364C85.5942 225.717 84.5919 228.379 84.2652 229.38C84.5535 228.37 85.21 225.618 84.5086 223.616C83.8361 221.698 82.3374 220.65 81.1077 221.115C79.878 221.58 79.3848 223.386 80.0573 225.303C80.781 227.366 83.1124 229.078 83.8906 229.604C83.0996 229.101 80.5953 227.635 78.3632 227.76C76.2881 227.876 74.7637 229.002 74.7861 230.288C74.8085 231.574 76.3681 232.533 78.4433 232.417C80.6946 232.292 83.1668 230.528 83.9162 229.954C83.1764 230.547 80.8739 232.526 80.2142 234.685C79.6057 236.673 80.1598 238.421 81.4023 238.752C82.6448 239.082 84.1051 237.87 84.7136 235.881C85.3669 233.742 84.5503 230.958 84.2524 230.066C84.5759 230.948 85.6743 233.623 87.4997 234.823L87.4965 234.82ZM84.1468 229.771C84.1468 229.771 84.1404 229.768 84.1339 229.765L84.1275 229.762C84.1372 229.768 84.1436 229.771 84.1468 229.774V229.771ZM84.15 229.781V229.771C84.15 229.771 84.1436 229.774 84.1372 229.781C84.1308 229.784 84.1243 229.79 84.1147 229.797C84.1372 229.778 84.15 229.768 84.15 229.768C84.15 229.768 84.15 229.778 84.1564 229.791C84.1564 229.784 84.1532 229.781 84.15 229.778V229.781Z" fill="#F3A5A4"/>
<path d="M25.498 197.435C26.3882 198.535 27.6372 198.901 28.3609 198.343C29.0846 197.785 29.011 196.512 28.1207 195.411C27.1856 194.254 25.2866 193.635 24.6013 193.442C25.2962 193.609 27.2593 194 28.7068 193.465C30.0806 192.955 30.8556 191.906 30.5513 191.075C30.2439 190.248 28.9758 189.953 27.5987 190.463C26.1673 190.992 24.9375 192.547 24.5084 193.137C24.9119 192.528 25.9335 190.841 25.8919 189.369C25.8534 187.954 25.0816 186.938 24.169 186.986C23.2563 187.034 22.5453 188.124 22.5838 189.539C22.6254 191.062 23.8071 192.692 24.2138 193.205C23.7975 192.701 22.4461 191.197 20.9409 190.806C19.5415 190.44 18.2893 190.863 18.0332 191.723C17.7738 192.583 18.6064 193.548 20.0058 193.914C21.5238 194.311 23.5381 193.667 24.1594 193.445C23.5445 193.679 21.5974 194.504 20.7008 195.793C19.8745 196.983 19.8713 198.26 20.6271 198.741C21.3797 199.225 22.6062 198.731 23.4324 197.541C24.3195 196.261 24.3675 194.241 24.3579 193.586C24.3867 194.241 24.5468 196.249 25.5044 197.432L25.498 197.435ZM24.3451 193.375C24.3451 193.375 24.3451 193.372 24.3387 193.368C24.3387 193.368 24.3387 193.365 24.3355 193.365C24.3419 193.372 24.3451 193.375 24.3451 193.378V193.375ZM24.3451 193.381V193.375C24.3451 193.375 24.3419 193.375 24.3355 193.378C24.3323 193.378 24.3259 193.381 24.3163 193.384C24.3355 193.378 24.3451 193.375 24.3451 193.375C24.3451 193.375 24.3451 193.381 24.3451 193.391C24.3451 193.388 24.3451 193.384 24.3451 193.381Z" fill="#F3A5A4"/>
<path d="M30.1382 174.772C21.5846 177.091 -10.164 200.309 4.16355 194.119C19.4006 187.534 31.4704 174.596 31.4704 174.596C31.4608 174.596 31.4448 174.596 31.4352 174.596C34.0003 172.142 36.0755 169.609 37.7472 167.085C35.3998 175.844 33.821 198.689 37.9905 189.302C41.0712 182.364 39.6206 168.181 39.2075 164.724C42.1921 159.486 43.5595 154.419 44.1456 150.374C44.4146 148.527 44.5362 146.795 44.5683 145.22C45.6283 150.31 49.247 164.451 49.8042 158.386C50.3678 152.254 45.8076 145.191 44.5779 143.777C44.5234 139.473 43.8285 136.682 43.8189 136.644C43.7677 136.439 43.5563 136.314 43.3514 136.365C43.3289 136.371 43.3065 136.378 43.2841 136.391C43.1208 136.468 43.0279 136.654 43.0728 136.836C43.0856 136.894 44.501 142.571 43.3834 150.265C43.2873 150.92 43.1656 151.606 43.0247 152.308C40.8279 153.53 30.7691 160.445 24.4572 165.798C18.1356 171.161 15.9324 176.001 24.0217 170.218C37.2091 160.795 41.7117 154.733 42.9222 152.818C41.5612 159.217 38.1891 167.415 30.135 174.772H30.1382Z" fill="#749895"/>
<path d="M47.5209 148.675C50.829 152.174 55.165 153.081 57.4771 150.993C59.7893 148.902 59.2 144.605 55.892 141.105C52.4109 137.423 45.8108 135.833 43.4282 135.361C45.83 135.746 52.5999 136.554 57.3619 134.354C61.8933 132.263 64.2438 128.491 62.9885 125.762C61.7299 123.032 57.3427 122.375 52.8113 124.466C48.0909 126.647 44.3345 132.24 43.0343 134.367C44.2448 132.195 47.2583 126.201 46.7299 121.207C46.2207 116.416 43.3385 113.176 40.2514 113.577C37.1643 113.981 35.0379 117.872 35.5471 122.663C36.0947 127.817 40.5364 133.036 42.0448 134.675C40.4948 133.081 35.5183 128.334 30.3048 127.401C25.4595 126.531 21.3252 128.299 20.6751 131.278C20.025 134.258 23.0994 137.321 27.9446 138.19C33.2029 139.133 39.8639 136.413 41.9103 135.496C39.8831 136.458 33.4911 139.765 30.7947 144.383C28.3097 148.639 28.6363 152.969 31.3199 154.409C34.0067 155.849 38.0322 153.848 40.5172 149.592C43.1912 145.012 42.823 138.145 42.618 135.926C42.8838 138.139 43.9598 144.909 47.5209 148.671V148.675ZM42.5411 135.201C42.5411 135.201 42.5283 135.191 42.5187 135.178C42.5155 135.175 42.5091 135.169 42.5059 135.162C42.5251 135.181 42.5411 135.197 42.5443 135.201H42.5411ZM42.5411 135.226V135.204C42.5411 135.204 42.5251 135.21 42.5059 135.22C42.4899 135.226 42.4707 135.236 42.4451 135.246C42.5059 135.217 42.5379 135.201 42.5379 135.201H42.5411C42.5411 135.201 42.5411 135.226 42.5443 135.255C42.5443 135.242 42.5443 135.23 42.5411 135.223V135.226Z" fill="#F3A5A4"/>
</g>
<defs>
<clipPath id="clip0_5528_6682">
<rect width="339" height="326" fill="white" transform="translate(0.5)"/>
</clipPath>
</defs>
</svg>
