<svg width="197" height="64" viewBox="0 0 197 64" fill="none" xmlns="http://www.w3.org/2000/svg">
<g clip-path="url(#clip0_3335_1260)">
<path d="M195.164 -5.71826C148.742 45.0357 62.8918 67.419 2.01074 29.1635" stroke="white" stroke-linecap="round" stroke-linejoin="round"/>
<path d="M7.64824 38.8459C8.29034 37.5674 8.60576 36.9309 9.23659 35.6523C11.0502 36.2888 11.9571 36.5986 13.782 37.19C13.2638 38.4066 13.0047 39.0149 12.4865 40.2315C13.9172 41.6622 14.2607 43.7912 13.1117 45.4134C11.7487 47.3397 8.76347 47.7846 6.52175 46.3765C4.27441 44.9684 3.67737 42.2874 5.11364 40.423C5.74448 39.6063 6.6513 39.0712 7.64824 38.8459Z" fill="#DFBB6E"/>
<path d="M9.39943 35.3367C11.1004 36.0633 11.9622 36.4125 13.6801 37.0997C13.9448 37.2067 14.2377 37.0997 14.3391 36.8575C14.4405 36.6209 14.3109 36.3449 14.0518 36.2379C12.3396 35.5564 11.4891 35.2015 9.78807 34.4806C9.52898 34.3736 9.23046 34.4693 9.12344 34.7059C9.01643 34.9424 9.14034 35.2241 9.39943 35.3311V35.3367Z" fill="white"/>
<path d="M8.9436 36.3338C10.6559 37.0604 11.5176 37.4152 13.2468 38.108C13.5115 38.215 13.81 38.108 13.9114 37.8658C14.0128 37.6293 13.8833 37.3533 13.6185 37.2462C11.895 36.5591 11.0389 36.2042 9.33787 35.4777C9.07878 35.365 8.78026 35.4664 8.67325 35.703C8.56623 35.9395 8.69014 36.2211 8.94924 36.3282L8.9436 36.3338Z" fill="white"/>
<path d="M8.48732 37.325C10.2108 38.0572 11.0726 38.412 12.813 39.1105C13.0778 39.2175 13.3763 39.1105 13.4777 38.8739C13.5791 38.6373 13.4495 38.3613 13.1848 38.2543C11.4556 37.5615 10.5939 37.2067 8.88159 36.4801C8.6225 36.3675 8.31835 36.4688 8.21133 36.7054C8.10432 36.942 8.22823 37.2236 8.48732 37.3306V37.325Z" fill="white"/>
<path d="M11.9404 38.733C11.349 40.0791 10.7463 41.4309 10.1492 42.7771C10.0028 43.1037 9.85073 43.453 9.92395 43.8134C9.99717 44.1739 10.3914 44.5231 10.7801 44.4499C11.1068 44.3879 11.2757 44.05 11.2194 43.7458C11.1631 43.4473 10.9265 43.1882 10.6674 42.9798C9.64796 42.18 8.07087 42.0392 6.99508 42.6588C6.83737 42.7489 6.68529 42.8615 6.6177 43.0193C6.55011 43.177 6.60081 43.3966 6.77541 43.4867C7.07393 43.6501 7.37808 43.3459 7.52453 43.0812C8.47641 41.3577 9.1692 39.5046 9.6029 37.5952" stroke="white" stroke-linecap="round" stroke-linejoin="round"/>
<path d="M13.4834 46.9116C13.8946 47.458 14.3057 47.9987 14.7225 48.5394" stroke="#DFBB6E" stroke-linecap="round" stroke-linejoin="round"/>
<path d="M10.498 48.3872C10.6107 49.0687 10.7233 49.7446 10.8416 50.4262" stroke="#DFBB6E" stroke-linecap="round" stroke-linejoin="round"/>
<path d="M6.51613 47.5986C6.22324 48.2069 5.93036 48.8096 5.63184 49.4179" stroke="#DFBB6E" stroke-linecap="round" stroke-linejoin="round"/>
<path d="M3.14821 44.7036C2.43289 45.0359 1.71194 45.3682 0.985352 45.6949" stroke="#DFBB6E" stroke-linecap="round" stroke-linejoin="round"/>
<path d="M2.10616 42.1577C1.49786 42.2422 0.895186 42.3267 0.28125 42.4055" stroke="#DFBB6E" stroke-linecap="round" stroke-linejoin="round"/>
<path d="M129.642 43.6048C129.135 42.2755 128.887 41.6053 128.386 40.276C130.121 39.4762 130.982 39.065 132.695 38.2314C133.23 39.4424 133.494 40.0451 134.035 41.2561C136.091 41.273 137.91 42.5234 138.333 44.4384C138.834 46.7083 137.116 49.0626 134.508 49.6259C131.9 50.1891 129.462 48.7416 129.056 46.4548C128.881 45.4522 129.118 44.4553 129.642 43.6104V43.6048Z" fill="#DFBB6E"/>
<path d="M128.267 39.9493C129.991 39.2847 130.853 38.9467 132.559 38.2427C132.818 38.1357 132.948 37.8597 132.847 37.6175C132.745 37.3809 132.447 37.2739 132.193 37.3809C130.492 38.0793 129.636 38.4173 127.918 39.0763C127.659 39.1777 127.524 39.4537 127.62 39.6902C127.715 39.9324 128.008 40.0394 128.273 39.9437L128.267 39.9493Z" fill="white"/>
<path d="M128.684 40.9574C130.419 40.2928 131.281 39.9492 132.999 39.2451C133.258 39.1381 133.387 38.8565 133.286 38.6199C133.184 38.3834 132.886 38.2763 132.627 38.3834C130.92 39.0818 130.058 39.4254 128.335 40.09C128.07 40.1914 127.935 40.4674 128.031 40.7039C128.132 40.9461 128.425 41.0531 128.69 40.9517L128.684 40.9574Z" fill="white"/>
<path d="M129.095 41.9659C130.835 41.2957 131.703 40.9521 133.432 40.2424C133.697 40.1354 133.826 39.8538 133.719 39.6172C133.618 39.3807 133.319 39.2736 133.055 39.3863C131.337 40.0903 130.475 40.4339 128.74 41.0986C128.475 41.1999 128.34 41.4759 128.436 41.7181C128.532 41.9547 128.83 42.0673 129.095 41.9659Z" fill="white"/>
<path d="M132.548 40.5801C133.128 41.9319 133.714 43.2837 134.305 44.6354C134.452 44.9621 134.61 45.3113 134.925 45.5141C135.24 45.7169 135.781 45.6887 135.995 45.3677C136.17 45.1029 136.04 44.7481 135.775 44.5791C135.511 44.4101 135.156 44.3932 134.824 44.427C133.517 44.5678 132.317 45.5535 132.041 46.7251C132.002 46.8997 131.979 47.0799 132.052 47.2376C132.126 47.3953 132.323 47.508 132.509 47.4573C132.835 47.3615 132.818 46.9447 132.723 46.6631C132.086 44.81 131.191 43.0415 130.081 41.408" stroke="white" stroke-linecap="round" stroke-linejoin="round"/>
<path d="M139.707 45.2158C140.4 45.3116 141.093 45.4073 141.791 45.4974" stroke="#EDEEEB" stroke-linecap="round" stroke-linejoin="round"/>
<path d="M138.766 48.2856C139.357 48.6743 139.948 49.0686 140.545 49.4516" stroke="#EDEEEB" stroke-linecap="round" stroke-linejoin="round"/>
<path d="M135.426 50.4707C135.685 51.0903 135.944 51.7098 136.203 52.3294" stroke="#EDEEEB" stroke-linecap="round" stroke-linejoin="round"/>
<path d="M130.92 50.7749C130.678 51.4959 130.435 52.2224 130.188 52.9434" stroke="#EDEEEB" stroke-linecap="round" stroke-linejoin="round"/>
<path d="M128.278 49.7275C127.924 50.2063 127.569 50.6794 127.214 51.1525" stroke="#EDEEEB" stroke-linecap="round" stroke-linejoin="round"/>
<path d="M158.852 29.8617C158.119 28.6395 157.759 28.0255 157.032 26.7977C158.592 25.7219 159.364 25.1755 160.896 24.0659C161.634 25.1642 162.006 25.7162 162.749 26.8145C164.771 26.4879 166.782 27.406 167.537 29.2196C168.432 31.3656 167.171 33.9621 164.704 34.9591C162.242 35.956 159.589 34.9365 158.784 32.7568C158.435 31.7993 158.485 30.7854 158.852 29.8617Z" fill="#DFBB6E"/>
<path d="M156.852 26.4936C158.429 25.553 159.207 25.0743 160.761 24.0998C160.998 23.9534 161.071 23.6549 160.93 23.4409C160.789 23.2268 160.48 23.1705 160.243 23.3169C158.7 24.2857 157.917 24.7645 156.351 25.6995C156.114 25.8403 156.03 26.1332 156.165 26.3528C156.3 26.5725 156.61 26.6344 156.847 26.488L156.852 26.4936Z" fill="white"/>
<path d="M157.438 27.4171C159.021 26.4709 159.804 25.9921 161.369 25.0121C161.606 24.8656 161.685 24.5671 161.538 24.3531C161.392 24.139 161.088 24.0827 160.851 24.2348C159.297 25.2092 158.514 25.688 156.937 26.6286C156.695 26.775 156.61 27.0679 156.751 27.2876C156.886 27.5072 157.196 27.5692 157.438 27.4228V27.4171Z" fill="white"/>
<path d="M158.024 28.3413C159.612 27.3894 160.406 26.905 161.972 25.9193C162.209 25.7672 162.288 25.4743 162.147 25.2603C162 25.0463 161.696 24.9899 161.454 25.142C159.894 26.1221 159.105 26.6065 157.523 27.5527C157.28 27.6992 157.196 27.992 157.337 28.2117C157.478 28.4314 157.782 28.4933 158.03 28.3469L158.024 28.3413Z" fill="white"/>
<path d="M161.161 26.3979C161.972 27.6315 162.789 28.8593 163.606 30.0872C163.808 30.3857 164.022 30.7011 164.372 30.8419C164.721 30.9828 165.245 30.8701 165.397 30.5153C165.521 30.2224 165.329 29.9013 165.036 29.7774C164.743 29.6591 164.394 29.6986 164.073 29.7887C162.817 30.1435 161.814 31.3151 161.747 32.5092C161.736 32.6838 161.747 32.8696 161.848 33.0104C161.95 33.1512 162.164 33.2301 162.338 33.1456C162.642 32.9992 162.552 32.5936 162.406 32.3289C161.454 30.6167 160.26 29.0283 158.88 27.6089" stroke="white" stroke-linecap="round" stroke-linejoin="round"/>
<path d="M169.023 29.7549C169.722 29.7323 170.42 29.7098 171.119 29.6816" stroke="#DFBB6E" stroke-linecap="round" stroke-linejoin="round"/>
<path d="M168.641 32.9258C169.294 33.213 169.947 33.4947 170.601 33.7706" stroke="#DFBB6E" stroke-linecap="round" stroke-linejoin="round"/>
<path d="M165.751 35.6353C166.117 36.1985 166.483 36.7674 166.849 37.3306" stroke="#DFBB6E" stroke-linecap="round" stroke-linejoin="round"/>
<path d="M161.38 36.6938C161.273 37.443 161.161 38.1977 161.048 38.9468" stroke="#DFBB6E" stroke-linecap="round" stroke-linejoin="round"/>
<path d="M158.598 36.1025C158.339 36.632 158.074 37.1558 157.804 37.6853" stroke="#DFBB6E" stroke-linecap="round" stroke-linejoin="round"/>
<path d="M99.1754 51.1692C98.9445 49.7668 98.8262 49.0627 98.5953 47.6602C100.46 47.1927 101.383 46.9449 103.231 46.438C103.518 47.7278 103.665 48.3699 103.957 49.6597C105.979 50.054 107.517 51.6198 107.551 53.5799C107.59 55.9061 105.439 57.9056 102.763 57.9845C100.088 58.0634 97.9814 56.1821 98.0433 53.8615C98.0715 52.8421 98.4939 51.9071 99.1811 51.1692H99.1754Z" fill="#DFBB6E"/>
<path d="M98.5391 47.3111C100.364 46.9732 101.276 46.7986 103.09 46.4212C103.366 46.3649 103.546 46.1114 103.49 45.8579C103.434 45.6045 103.169 45.4468 102.887 45.5031C101.079 45.8748 100.172 46.0551 98.3532 46.3874C98.0772 46.4381 97.8914 46.6859 97.9364 46.9394C97.9871 47.1928 98.2518 47.3562 98.5278 47.3055L98.5391 47.3111Z" fill="white"/>
<path d="M98.7478 48.3811C100.584 48.0431 101.496 47.8629 103.321 47.4855C103.597 47.4292 103.783 47.1757 103.727 46.9223C103.671 46.6688 103.4 46.5111 103.124 46.573C101.305 46.9504 100.392 47.125 98.5675 47.463C98.2915 47.5137 98.1 47.7615 98.1507 48.015C98.2014 48.2684 98.4662 48.4318 98.7478 48.3811Z" fill="white"/>
<path d="M98.9611 49.4516C100.803 49.1137 101.727 48.9334 103.563 48.5504C103.844 48.4941 104.025 48.2407 103.968 47.9872C103.912 47.7337 103.642 47.576 103.366 47.638C101.541 48.0154 100.623 48.1956 98.7865 48.5335C98.5048 48.5842 98.319 48.8321 98.3697 49.0855C98.4203 49.339 98.6851 49.5023 98.9667 49.4516H98.9611Z" fill="white"/>
<path d="M102.622 48.7192C102.932 50.1555 103.236 51.5974 103.552 53.0337C103.625 53.3829 103.715 53.7546 103.991 54.0081C104.267 54.2616 104.797 54.3348 105.073 54.0588C105.298 53.8279 105.236 53.4561 105.011 53.2421C104.785 53.0281 104.442 52.9436 104.104 52.9154C102.797 52.814 101.423 53.5631 100.916 54.6615C100.843 54.8248 100.781 54.9994 100.826 55.1684C100.865 55.3374 101.04 55.4838 101.231 55.4669C101.569 55.4331 101.637 55.0219 101.597 54.7234C101.344 52.7802 100.809 50.8765 100.037 49.0684" stroke="white" stroke-linecap="round" stroke-linejoin="round"/>
<path d="M108.745 54.605C109.404 54.8246 110.069 55.0499 110.733 55.264" stroke="#DFBB6E" stroke-linecap="round" stroke-linejoin="round"/>
<path d="M107.207 57.4551C107.708 57.9507 108.215 58.4408 108.722 58.9364" stroke="#DFBB6E" stroke-linecap="round" stroke-linejoin="round"/>
<path d="M103.49 58.9868C103.62 59.6458 103.749 60.3048 103.879 60.9638" stroke="#DFBB6E" stroke-linecap="round" stroke-linejoin="round"/>
<path d="M99.0062 58.4575C98.6232 59.1221 98.2402 59.7924 97.8516 60.457" stroke="#DFBB6E" stroke-linecap="round" stroke-linejoin="round"/>
<path d="M96.624 56.937C96.1846 57.3425 95.7397 57.7425 95.2891 58.1424" stroke="#DFBB6E" stroke-linecap="round" stroke-linejoin="round"/>
<path d="M36.5314 49.1868C36.8863 47.8069 37.0665 47.1197 37.4213 45.7397C39.3307 46.0157 40.2883 46.1396 42.2033 46.3649C41.9498 47.6604 41.8259 48.3081 41.5668 49.6036C43.2735 50.7301 44.0564 52.7521 43.2791 54.5714C42.3554 56.723 39.5335 57.7481 37.0327 56.8019C34.5319 55.8556 33.3716 53.3379 34.3855 51.2257C34.8248 50.2964 35.6077 49.598 36.5371 49.1812L36.5314 49.1868Z" fill="#DFBB6E"/>
<path d="M37.5118 45.4019C39.3367 45.7849 40.2491 45.9651 42.0797 46.3031C42.3613 46.3538 42.626 46.1904 42.6767 45.937C42.7274 45.6835 42.5415 45.4357 42.2656 45.385C40.4406 45.0471 39.5338 44.8668 37.7145 44.4894C37.4386 44.4331 37.1682 44.5908 37.1119 44.8387C37.0555 45.0921 37.2358 45.3399 37.5118 45.4019Z" fill="white"/>
<path d="M37.2694 46.4666C39.0999 46.8496 40.0236 47.0299 41.8598 47.3735C42.1414 47.4241 42.4062 47.2608 42.4625 47.0073C42.5132 46.7539 42.3273 46.5061 42.0457 46.4554C40.2151 46.1118 39.297 45.9316 37.4721 45.5542C37.1961 45.4979 36.9201 45.6499 36.8638 45.9034C36.8075 46.1568 36.9877 46.4047 37.2637 46.4666H37.2694Z" fill="white"/>
<path d="M37.0272 47.5252C38.869 47.9082 39.7927 48.0941 41.6401 48.4377C41.9218 48.4884 42.1921 48.325 42.2428 48.0716C42.2935 47.8181 42.1076 47.5703 41.826 47.5196C39.9842 47.176 39.0661 46.9958 37.2299 46.6128C36.9483 46.5564 36.678 46.7085 36.6216 46.962C36.5653 47.2154 36.7455 47.4633 37.0272 47.5252Z" fill="white"/>
<path d="M40.7104 48.2408C40.4118 49.6827 40.1077 51.1189 39.8035 52.5609C39.7303 52.9101 39.6571 53.2874 39.8035 53.6254C39.95 53.9633 40.4118 54.2337 40.778 54.0816C41.0821 53.9577 41.1779 53.5916 41.0596 53.31C40.9413 53.0283 40.654 52.8199 40.3555 52.6679C39.1896 52.0765 37.6125 52.2454 36.6944 53.0678C36.5593 53.1861 36.4297 53.3269 36.4015 53.4958C36.3734 53.6648 36.4635 53.8676 36.655 53.9239C36.9817 54.0253 37.2126 53.6704 37.3027 53.3832C37.8716 51.502 38.1532 49.5475 38.1758 47.5874" stroke="white" stroke-linecap="round" stroke-linejoin="round"/>
<path d="M43.9551 55.9683C44.4733 56.4245 44.9914 56.8751 45.5153 57.3257" stroke="#DFBB6E" stroke-linecap="round" stroke-linejoin="round"/>
<path d="M41.3477 58.0073C41.6067 58.6494 41.8658 59.2972 42.1249 59.9393" stroke="#DFBB6E" stroke-linecap="round" stroke-linejoin="round"/>
<path d="M37.2868 58.0073C37.1291 58.6607 36.9714 59.3141 36.8193 59.9674" stroke="#DFBB6E" stroke-linecap="round" stroke-linejoin="round"/>
<path d="M33.3659 55.8159C32.7351 56.2834 32.1042 56.7509 31.4678 57.2128" stroke="#DFBB6E" stroke-linecap="round" stroke-linejoin="round"/>
<path d="M31.8004 53.5181C31.2259 53.7208 30.6514 53.9236 30.0713 54.1207" stroke="#DFBB6E" stroke-linecap="round" stroke-linejoin="round"/>
<path d="M67.7243 53.1912C67.7975 51.7718 67.8313 51.0621 67.9045 49.6371C69.8308 49.547 70.7939 49.4906 72.709 49.3555C72.7202 50.6735 72.7259 51.3325 72.7315 52.6561C74.6296 53.4446 75.8012 55.2808 75.4069 57.2127C74.9394 59.4995 72.3879 61.0315 69.7519 60.5753C67.1159 60.1191 65.4656 57.8661 66.0233 55.5962C66.2711 54.6049 66.8907 53.7713 67.7186 53.1855L67.7243 53.1912Z" fill="#DFBB6E"/>
<path d="M67.9268 49.2936C69.7912 49.3274 70.7205 49.333 72.5792 49.3218C72.8609 49.3218 73.0918 49.1077 73.0918 48.8543C73.0918 48.5952 72.8609 48.3868 72.5792 48.3924C70.7262 48.3981 69.7968 48.3924 67.9437 48.3643C67.6621 48.3643 67.4256 48.5614 67.4199 48.8205C67.4199 49.0796 67.6396 49.2936 67.9268 49.2992V49.2936Z" fill="white"/>
<path d="M67.9045 50.3805C69.7745 50.4143 70.7151 50.42 72.585 50.4087C72.8723 50.4087 73.1032 50.1947 73.0976 49.9412C73.0976 49.6821 72.8667 49.4737 72.5794 49.4793C70.7151 49.485 69.7857 49.4793 67.9214 49.4512C67.6398 49.4512 67.4032 49.6483 67.3976 49.9074C67.3919 50.1665 67.6172 50.3805 67.9045 50.3862V50.3805Z" fill="white"/>
<path d="M67.8819 51.4679C69.7632 51.5017 70.7038 51.5074 72.585 51.4961C72.8723 51.4961 73.1032 51.2821 73.1032 51.0286C73.1032 50.7695 72.8723 50.5611 72.585 50.5667C70.715 50.5724 69.7744 50.5667 67.9044 50.5386C67.6172 50.5386 67.3806 50.7357 67.375 50.9948C67.375 51.2539 67.6003 51.4679 67.8819 51.4736V51.4679Z" fill="white"/>
<path d="M71.6331 51.479C71.6275 52.9491 71.6219 54.4192 71.6163 55.8892C71.6163 56.2497 71.6163 56.6271 71.8359 56.9312C72.05 57.2354 72.5569 57.41 72.8835 57.196C73.1539 57.0157 73.1764 56.6384 73.0018 56.3849C72.8272 56.1314 72.5062 55.9794 72.1851 55.8836C70.9235 55.5231 69.414 55.985 68.6818 56.965C68.5747 57.1058 68.479 57.2692 68.4846 57.4438C68.4902 57.6184 68.6254 57.793 68.8169 57.8155C69.1549 57.8493 69.3126 57.4607 69.3407 57.1622C69.5154 55.2077 69.4027 53.242 69.031 51.3101" stroke="white" stroke-linecap="round" stroke-linejoin="round"/>
<path d="M76.3643 58.4575C76.9613 58.8067 77.564 59.1559 78.1666 59.4995" stroke="#DFBB6E" stroke-linecap="round" stroke-linejoin="round"/>
<path d="M74.2354 60.9414C74.6184 61.5272 75.0014 62.1073 75.3956 62.6931" stroke="#DFBB6E" stroke-linecap="round" stroke-linejoin="round"/>
<path d="M70.2585 61.7075C70.2416 62.3778 70.219 63.048 70.2021 63.7183" stroke="#DFBB6E" stroke-linecap="round" stroke-linejoin="round"/>
<path d="M65.9787 60.2993C65.4605 60.8795 64.9367 61.454 64.4072 62.0285" stroke="#DFBB6E" stroke-linecap="round" stroke-linejoin="round"/>
<path d="M63.9787 58.3335C63.4549 58.6433 62.9367 58.9474 62.4072 59.2516" stroke="#DFBB6E" stroke-linecap="round" stroke-linejoin="round"/>
</g>
<defs>
<clipPath id="clip0_3335_1260">
<rect width="196.127" height="70" fill="white" transform="translate(0 -6)"/>
</clipPath>
</defs>
</svg>
