<svg width="313" height="429" viewBox="0 0 313 429" fill="none" xmlns="http://www.w3.org/2000/svg">
<g clip-path="url(#clip0_3438_2485)">
<path d="M164.698 429C158.039 429 151.346 428.554 144.636 427.653C105.367 422.388 70.4772 402.148 46.3767 370.666C22.2844 339.185 11.926 300.299 17.2089 261.164C24.9632 203.781 66.5461 155.728 121.879 139.116C119.524 137.843 117.443 136.066 115.767 133.876C112.641 129.793 111.297 124.743 111.985 119.652C113.404 109.147 123.157 101.75 133.681 103.163L241.304 117.602C251.845 119.015 259.267 128.719 257.849 139.223C256.755 147.339 250.692 153.604 243.129 155.373C292.084 185.97 319.444 243.279 311.69 300.671C306.407 339.805 286.096 374.576 254.507 398.585C228.317 418.496 197.001 428.992 164.69 428.992L164.698 429ZM131.102 107.717C123.928 107.717 117.666 113.015 116.68 120.288C115.61 128.214 121.208 135.529 129.161 136.595L131.027 136.843C132.155 136.992 133.017 137.926 133.076 139.066C133.134 140.199 132.371 141.215 131.259 141.48C73.7199 155.158 29.7733 203.5 21.9029 261.792C16.7859 299.671 26.8126 337.326 50.1418 367.798C73.4711 398.271 107.25 417.867 145.267 422.967C183.267 428.066 221.06 418.074 251.638 394.833C282.215 371.584 301.879 337.921 306.996 300.034C314.874 241.742 285.317 183.532 233.458 155.183C232.455 154.637 231.991 153.455 232.347 152.373C232.704 151.29 233.79 150.629 234.91 150.769L236.776 151.017C244.754 152.092 252.077 146.505 253.147 138.579C254.217 130.653 248.619 123.33 240.665 122.264L133.042 107.825C132.387 107.734 131.732 107.693 131.093 107.693L131.102 107.717Z" fill="white"/>
<path d="M212.335 118.462C212.228 118.462 212.128 118.462 212.02 118.437L161.704 111.684C161.082 111.602 160.518 111.271 160.137 110.775C159.755 110.279 159.59 109.651 159.673 109.031L161.223 97.5431C161.613 94.6255 162.467 91.8155 163.753 89.1789C151.852 78.6825 146.047 63.2766 148.161 47.5815C149.845 35.1014 156.322 24.0099 166.398 16.3566C176.475 8.70322 188.932 5.41377 201.446 7.09156C213.969 8.76934 225.091 15.2243 232.779 25.2662C240.458 35.3081 243.767 47.7055 242.084 60.1855C239.961 75.8807 230.274 89.2037 216.018 96.1959C216.565 99.0803 216.631 102.014 216.242 104.932L214.691 116.42C214.608 117.04 214.276 117.602 213.778 117.982C213.364 118.296 212.858 118.47 212.344 118.47L212.335 118.462ZM164.682 107.329L210.304 113.445L211.539 104.296C211.946 101.328 211.755 98.353 210.992 95.452C210.702 94.3363 211.266 93.1709 212.327 92.6998C226.036 86.6333 235.399 74.2442 237.39 59.5491C238.907 48.3171 235.93 37.1594 229.013 28.1176C222.097 19.084 212.078 13.2737 200.816 11.7612C189.554 10.2488 178.341 13.2159 169.276 20.1088C160.212 27.0018 154.381 36.9858 152.864 48.2096C150.882 62.9047 156.629 77.327 168.24 86.7821C169.135 87.5177 169.376 88.7822 168.795 89.7906C167.294 92.394 166.324 95.2123 165.926 98.1795L164.69 107.337L164.682 107.329Z" fill="white"/>
<path d="M165.718 127.503C85.8277 116.792 12.0748 172.845 1.31832 252.469C-9.43818 332.094 46.8157 405.586 126.714 416.305C206.612 427.025 280.357 370.972 291.105 291.348C301.862 211.723 245.616 138.231 165.718 127.512V127.503ZM131.101 383.791C69.1912 375.485 25.593 318.539 33.9278 256.833C42.2627 195.135 99.4123 151.695 161.331 160.001C223.241 168.307 266.83 225.261 258.496 286.959C250.161 348.657 193.02 392.097 131.101 383.791Z" fill="#1B5FEA"/>
<path d="M170.876 89.3192C146.278 86.0214 128.953 63.392 132.27 38.8782C135.579 14.3644 158.287 -2.89279 182.885 0.404922C207.475 3.70263 224.799 26.332 221.49 50.8459C218.181 75.3597 195.474 92.6169 170.876 89.3192ZM181.127 13.4057C163.719 11.0667 147.655 23.2823 145.308 40.6304C142.969 57.9785 155.218 73.9877 172.626 76.3184C190.025 78.6491 206.09 66.4418 208.437 49.0937C210.784 31.7456 198.526 15.7364 181.127 13.4057Z" fill="white"/>
<path d="M222.743 110.932L115.12 96.493C105.856 95.2532 97.3386 101.725 96.0863 110.957C94.8423 120.189 101.336 128.677 110.6 129.925L218.223 144.364C227.486 145.603 236.004 139.132 237.256 129.9C238.5 120.668 232.006 112.18 222.743 110.932Z" fill="#9EADEF"/>
<path d="M173.87 67.1444C159.979 65.2766 147.199 74.9961 145.324 88.8399L143.773 100.328L194.089 107.081L195.64 95.5924C197.514 81.7486 187.761 69.0123 173.87 67.1444Z" fill="#1B5FEA"/>
<path d="M177.119 149.805C98.3271 131.131 22.4678 188.8 19.7035 269.472C17.6583 329.188 59.0293 383.264 117.35 397.088C196.142 415.762 271.992 358.102 274.756 277.421C276.811 217.705 235.43 163.62 177.109 149.796L177.119 149.805Z" fill="white"/>
<path d="M175.346 156.348L176.551 156.634C178.825 157.198 181.072 157.827 183.289 158.519L183.586 157.564C188.921 159.228 194.087 161.251 199.059 163.6L198.631 164.504C203.627 166.864 208.426 169.557 213.003 172.55L213.55 171.713C218.203 174.755 222.629 178.105 226.8 181.728L226.145 182.483C230.301 186.093 234.204 189.977 237.827 194.101L238.578 193.441C242.237 197.605 245.613 202.012 248.679 206.626L247.846 207.18C250.886 211.754 253.618 216.533 256.019 221.485L256.919 221.049C259.33 226.023 261.409 231.169 263.129 236.454L262.179 236.763C263.872 241.965 265.215 247.301 266.182 252.739L267.166 252.564C268.13 257.979 268.724 263.494 268.924 269.078L267.925 269.114C268.023 271.846 268.026 274.595 267.931 277.357L267.931 277.357C267.842 279.933 267.676 282.483 267.433 285.007L268.428 285.103C267.928 290.304 267.108 295.393 265.989 300.353L265.014 300.133C263.878 305.17 262.432 310.073 260.699 314.824L261.639 315.167C259.861 320.042 257.783 324.759 255.43 329.299L254.543 328.839C252.18 333.397 249.539 337.775 246.643 341.954L247.465 342.524C244.523 346.771 241.32 350.813 237.883 354.631L237.14 353.962C233.718 357.764 230.062 361.341 226.198 364.675L226.852 365.432C222.953 368.796 218.844 371.914 214.552 374.765L213.999 373.932C209.75 376.754 205.32 379.312 200.736 381.586L201.181 382.482C196.581 384.764 191.826 386.763 186.944 388.459L186.616 387.514C181.814 389.181 176.888 390.553 171.862 391.609L172.068 392.588C167.065 393.639 161.965 394.381 156.79 394.795L156.711 393.799C151.67 394.202 146.559 394.291 141.4 394.049L141.353 395.048C136.274 394.809 131.149 394.252 126.001 393.359L126.172 392.374C123.674 391.941 121.169 391.428 118.662 390.834C115.973 390.196 113.322 389.469 110.711 388.655L110.414 389.609C105.079 387.945 99.9137 385.923 94.942 383.574L95.3692 382.67C90.3737 380.31 85.575 377.618 80.9983 374.625L80.451 375.462C75.7981 372.42 71.3729 369.07 67.2013 365.447L67.857 364.692C63.7008 361.083 59.7981 357.199 56.1751 353.076L55.4239 353.736C51.7654 349.572 48.3897 345.166 45.3233 340.551L46.1562 339.998C43.1171 335.424 40.3843 330.645 37.9838 325.693L37.084 326.13C34.6726 321.156 32.5937 316.01 30.8733 310.726L31.8242 310.416C30.1309 305.215 28.7879 299.879 27.8203 294.442L26.8358 294.617C25.8722 289.202 25.2777 283.687 25.0767 278.104L26.076 278.068C25.9776 275.335 25.9743 272.587 26.0688 269.825C26.1571 267.249 26.3239 264.699 26.5666 262.175L25.5712 262.079C26.0716 256.878 26.8921 251.789 28.0109 246.829L28.9864 247.049C30.1225 242.012 31.5689 237.109 33.302 232.358L32.3626 232.015C34.1411 227.14 36.2192 222.423 38.5722 217.883L39.4601 218.343C41.8226 213.785 44.4646 209.407 47.3608 205.228L46.5389 204.659C49.4819 200.412 52.685 196.37 56.122 192.552L56.8652 193.221C60.2875 189.419 63.9437 185.842 67.8075 182.508L67.1542 181.751C71.0536 178.387 75.1626 175.27 79.4544 172.419L80.0077 173.252C84.2568 170.43 88.6866 167.872 93.2708 165.597L92.8263 164.702C97.4265 162.419 102.181 160.42 107.063 158.725L107.392 159.67C112.193 158.002 117.119 156.631 122.145 155.574L121.939 154.595C126.942 153.544 132.043 152.801 137.217 152.387L137.297 153.384C142.338 152.981 147.449 152.891 152.608 153.134L152.655 152.135C157.734 152.373 162.859 152.93 168.007 153.823L167.836 154.808C170.335 155.241 172.839 155.754 175.346 156.348Z" stroke="#0D3072" stroke-width="2" stroke-dasharray="16 16"/>
<path d="M131.195 216.32V218.552H124.115V223.472H129.635V225.704H124.115V233H121.379V216.32H131.195ZM132.819 226.328C132.819 225 133.091 223.824 133.635 222.8C134.195 221.776 134.947 220.984 135.891 220.424C136.851 219.848 137.907 219.56 139.059 219.56C140.099 219.56 141.003 219.768 141.771 220.184C142.555 220.584 143.179 221.088 143.643 221.696V219.776H146.403V233H143.643V231.032C143.179 231.656 142.547 232.176 141.747 232.592C140.947 233.008 140.035 233.216 139.011 233.216C137.875 233.216 136.835 232.928 135.891 232.352C134.947 231.76 134.195 230.944 133.635 229.904C133.091 228.848 132.819 227.656 132.819 226.328ZM143.643 226.376C143.643 225.464 143.451 224.672 143.067 224C142.699 223.328 142.211 222.816 141.603 222.464C140.995 222.112 140.339 221.936 139.635 221.936C138.931 221.936 138.275 222.112 137.667 222.464C137.059 222.8 136.563 223.304 136.179 223.976C135.811 224.632 135.627 225.416 135.627 226.328C135.627 227.24 135.811 228.04 136.179 228.728C136.563 229.416 137.059 229.944 137.667 230.312C138.291 230.664 138.947 230.84 139.635 230.84C140.339 230.84 140.995 230.664 141.603 230.312C142.211 229.96 142.699 229.448 143.067 228.776C143.451 228.088 143.643 227.288 143.643 226.376ZM152.732 215.24V233H149.996V215.24H152.732ZM159.517 222.008V229.328C159.517 229.824 159.629 230.184 159.853 230.408C160.093 230.616 160.493 230.72 161.053 230.72H162.733V233H160.573C159.341 233 158.397 232.712 157.741 232.136C157.085 231.56 156.757 230.624 156.757 229.328V222.008H155.197V219.776H156.757V216.488H159.517V219.776H162.733V222.008H159.517ZM164.342 226.328C164.342 225 164.614 223.824 165.158 222.8C165.718 221.776 166.47 220.984 167.414 220.424C168.374 219.848 169.43 219.56 170.582 219.56C171.622 219.56 172.526 219.768 173.294 220.184C174.078 220.584 174.702 221.088 175.166 221.696V219.776H177.926V233H175.166V231.032C174.702 231.656 174.07 232.176 173.27 232.592C172.47 233.008 171.558 233.216 170.534 233.216C169.398 233.216 168.358 232.928 167.414 232.352C166.47 231.76 165.718 230.944 165.158 229.904C164.614 228.848 164.342 227.656 164.342 226.328ZM175.166 226.376C175.166 225.464 174.974 224.672 174.59 224C174.222 223.328 173.734 222.816 173.126 222.464C172.518 222.112 171.862 221.936 171.158 221.936C170.454 221.936 169.798 222.112 169.19 222.464C168.582 222.8 168.086 223.304 167.702 223.976C167.334 224.632 167.15 225.416 167.15 226.328C167.15 227.24 167.334 228.04 167.702 228.728C168.086 229.416 168.582 229.944 169.19 230.312C169.814 230.664 170.47 230.84 171.158 230.84C171.862 230.84 172.518 230.664 173.126 230.312C173.734 229.96 174.222 229.448 174.59 228.776C174.974 228.088 175.166 227.288 175.166 226.376ZM188.192 219.56C189.232 219.56 190.16 219.776 190.976 220.208C191.808 220.64 192.456 221.28 192.92 222.128C193.384 222.976 193.616 224 193.616 225.2V233H190.904V225.608C190.904 224.424 190.608 223.52 190.016 222.896C189.424 222.256 188.616 221.936 187.592 221.936C186.568 221.936 185.752 222.256 185.144 222.896C184.552 223.52 184.256 224.424 184.256 225.608V233H181.52V219.776H184.256V221.288C184.704 220.744 185.272 220.32 185.96 220.016C186.664 219.712 187.408 219.56 188.192 219.56Z" fill="#0D3072"/>
<path d="M55.4366 271.978V269.338L63.2846 258.106H67.1966V269.05H69.3086V271.978H67.1966V275.386H63.8366V271.978H55.4366ZM64.0526 261.706L59.1326 269.05H64.0526V261.706ZM71.4478 266.41C71.4478 263.642 71.9438 261.474 72.9358 259.906C73.9438 258.338 75.6078 257.554 77.9278 257.554C80.2478 257.554 81.9038 258.338 82.8958 259.906C83.9038 261.474 84.4078 263.642 84.4078 266.41C84.4078 269.194 83.9038 271.378 82.8958 272.962C81.9038 274.546 80.2478 275.338 77.9278 275.338C75.6078 275.338 73.9438 274.546 72.9358 272.962C71.9438 271.378 71.4478 269.194 71.4478 266.41ZM81.0958 266.41C81.0958 265.226 81.0158 264.234 80.8558 263.434C80.7118 262.618 80.4078 261.954 79.9438 261.442C79.4958 260.93 78.8238 260.674 77.9278 260.674C77.0318 260.674 76.3518 260.93 75.8878 261.442C75.4398 261.954 75.1358 262.618 74.9758 263.434C74.8318 264.234 74.7598 265.226 74.7598 266.41C74.7598 267.626 74.8318 268.65 74.9758 269.482C75.1198 270.298 75.4238 270.962 75.8878 271.474C76.3518 271.97 77.0318 272.218 77.9278 272.218C78.8238 272.218 79.5038 271.97 79.9678 271.474C80.4318 270.962 80.7358 270.298 80.8798 269.482C81.0238 268.65 81.0958 267.626 81.0958 266.41Z" fill="#0D3072"/>
<path d="M54.3663 283.446C55.8863 283.446 57.1997 283.732 58.3063 284.306C59.4263 284.866 60.2797 285.672 60.8663 286.726C61.4663 287.779 61.7663 289.019 61.7663 290.446C61.7663 291.872 61.4663 293.112 60.8663 294.166C60.2797 295.206 59.4263 296.006 58.3063 296.566C57.1997 297.112 55.8863 297.386 54.3663 297.386H50.0263V283.446H54.3663ZM54.3663 295.886C56.1663 295.886 57.5397 295.412 58.4863 294.466C59.433 293.506 59.9063 292.166 59.9063 290.446C59.9063 288.712 59.4263 287.359 58.4663 286.386C57.5197 285.412 56.153 284.926 54.3663 284.926H51.8463V295.886H54.3663ZM65.987 286.426V297.386H64.167V286.426H65.987ZM67.027 283.326L62.767 285.606V284.246L67.027 281.746V283.326ZM68.4088 291.866C68.4088 290.746 68.6355 289.766 69.0888 288.926C69.5422 288.072 70.1622 287.412 70.9488 286.946C71.7488 286.479 72.6355 286.246 73.6088 286.246C74.5688 286.246 75.4022 286.452 76.1088 286.866C76.8155 287.279 77.3422 287.799 77.6888 288.426V286.426H79.5288V297.386H77.6888V295.346C77.3288 295.986 76.7888 296.519 76.0688 296.946C75.3622 297.359 74.5355 297.566 73.5888 297.566C72.6155 297.566 71.7355 297.326 70.9488 296.846C70.1622 296.366 69.5422 295.692 69.0888 294.826C68.6355 293.959 68.4088 292.972 68.4088 291.866ZM77.6888 291.886C77.6888 291.059 77.5222 290.339 77.1888 289.726C76.8555 289.112 76.4022 288.646 75.8288 288.326C75.2688 287.992 74.6488 287.826 73.9688 287.826C73.2888 287.826 72.6688 287.986 72.1088 288.306C71.5488 288.626 71.1022 289.092 70.7688 289.706C70.4355 290.319 70.2688 291.039 70.2688 291.866C70.2688 292.706 70.4355 293.439 70.7688 294.066C71.1022 294.679 71.5488 295.152 72.1088 295.486C72.6688 295.806 73.2888 295.966 73.9688 295.966C74.6488 295.966 75.2688 295.806 75.8288 295.486C76.4022 295.152 76.8555 294.679 77.1888 294.066C77.5222 293.439 77.6888 292.712 77.6888 291.886ZM86.4845 297.566C85.6445 297.566 84.8911 297.426 84.2245 297.146C83.5578 296.852 83.0311 296.452 82.6445 295.946C82.2578 295.426 82.0445 294.832 82.0045 294.166H83.8845C83.9378 294.712 84.1911 295.159 84.6445 295.506C85.1111 295.852 85.7178 296.026 86.4645 296.026C87.1578 296.026 87.7045 295.872 88.1045 295.566C88.5045 295.259 88.7045 294.872 88.7045 294.406C88.7045 293.926 88.4911 293.572 88.0645 293.346C87.6378 293.106 86.9778 292.872 86.0845 292.646C85.2711 292.432 84.6045 292.219 84.0845 292.006C83.5778 291.779 83.1378 291.452 82.7645 291.026C82.4045 290.586 82.2245 290.012 82.2245 289.306C82.2245 288.746 82.3911 288.232 82.7245 287.766C83.0578 287.299 83.5311 286.932 84.1445 286.666C84.7578 286.386 85.4578 286.246 86.2445 286.246C87.4578 286.246 88.4378 286.552 89.1845 287.166C89.9311 287.779 90.3311 288.619 90.3845 289.686H88.5645C88.5245 289.112 88.2911 288.652 87.8645 288.306C87.4511 287.959 86.8911 287.786 86.1845 287.786C85.5311 287.786 85.0111 287.926 84.6245 288.206C84.2378 288.486 84.0445 288.852 84.0445 289.306C84.0445 289.666 84.1578 289.966 84.3845 290.206C84.6245 290.432 84.9178 290.619 85.2645 290.766C85.6245 290.899 86.1178 291.052 86.7445 291.226C87.5311 291.439 88.1711 291.652 88.6645 291.866C89.1578 292.066 89.5778 292.372 89.9245 292.786C90.2845 293.199 90.4711 293.739 90.4845 294.406C90.4845 295.006 90.3178 295.546 89.9845 296.026C89.6511 296.506 89.1778 296.886 88.5645 297.166C87.9645 297.432 87.2711 297.566 86.4845 297.566Z" fill="#222222"/>
<line x1="102.5" y1="245.886" x2="102.5" y2="308.886" stroke="#222222"/>
<path d="M119.516 260.986V257.89H125.3V275.386H121.844V260.986H119.516Z" fill="#0D3072"/>
<path d="M124.626 283.446V297.386H122.806V291.066H115.706V297.386H113.886V283.446H115.706V289.566H122.806V283.446H124.626ZM129.553 288.206C129.873 287.579 130.327 287.092 130.913 286.746C131.513 286.399 132.24 286.226 133.093 286.226V288.106H132.613C130.573 288.106 129.553 289.212 129.553 291.426V297.386H127.733V286.426H129.553V288.206Z" fill="#222222"/>
<line x1="144.5" y1="245.886" x2="144.5" y2="308.886" stroke="#222222"/>
<path d="M169.298 260.794H161.522V264.898C161.858 264.482 162.338 264.146 162.962 263.89C163.586 263.618 164.25 263.482 164.954 263.482C166.234 263.482 167.282 263.762 168.098 264.322C168.914 264.882 169.506 265.602 169.874 266.482C170.242 267.346 170.426 268.274 170.426 269.266C170.426 271.106 169.898 272.586 168.842 273.706C167.802 274.826 166.314 275.386 164.378 275.386C162.554 275.386 161.098 274.93 160.01 274.018C158.922 273.106 158.306 271.914 158.162 270.442H161.426C161.57 271.082 161.89 271.594 162.386 271.978C162.898 272.362 163.546 272.554 164.33 272.554C165.274 272.554 165.986 272.258 166.466 271.666C166.946 271.074 167.186 270.29 167.186 269.314C167.186 268.322 166.938 267.57 166.442 267.058C165.962 266.53 165.25 266.266 164.306 266.266C163.634 266.266 163.074 266.434 162.626 266.77C162.178 267.106 161.858 267.554 161.666 268.114H158.45V257.842H169.298V260.794ZM176.871 270.466C176.999 271.17 177.287 271.714 177.735 272.098C178.199 272.466 178.815 272.65 179.583 272.65C180.575 272.65 181.295 272.242 181.743 271.426C182.191 270.594 182.415 269.202 182.415 267.25C182.047 267.762 181.527 268.162 180.855 268.45C180.199 268.738 179.487 268.882 178.719 268.882C177.695 268.882 176.767 268.674 175.935 268.258C175.119 267.826 174.471 267.194 173.991 266.362C173.511 265.514 173.271 264.49 173.271 263.29C173.271 261.514 173.799 260.106 174.855 259.066C175.911 258.01 177.351 257.482 179.175 257.482C181.447 257.482 183.047 258.21 183.975 259.666C184.919 261.122 185.391 263.314 185.391 266.242C185.391 268.322 185.207 270.026 184.839 271.354C184.487 272.682 183.871 273.69 182.991 274.378C182.127 275.066 180.943 275.41 179.439 275.41C178.255 275.41 177.247 275.186 176.415 274.738C175.583 274.274 174.943 273.674 174.495 272.938C174.063 272.186 173.815 271.362 173.751 270.466H176.871ZM179.415 266.146C180.247 266.146 180.903 265.89 181.383 265.378C181.863 264.866 182.103 264.178 182.103 263.314C182.103 262.37 181.847 261.642 181.335 261.13C180.839 260.602 180.159 260.338 179.295 260.338C178.431 260.338 177.743 260.61 177.231 261.154C176.735 261.682 176.487 262.386 176.487 263.266C176.487 264.114 176.727 264.81 177.207 265.354C177.703 265.882 178.439 266.146 179.415 266.146Z" fill="#0D3072"/>
<path d="M169.709 283.546V297.386H167.889V287.066L163.289 297.386H162.009L157.389 287.046V297.386H155.569V283.546H157.529L162.649 294.986L167.769 283.546H169.709ZM173.736 284.646C173.389 284.646 173.096 284.526 172.856 284.286C172.616 284.046 172.496 283.752 172.496 283.406C172.496 283.059 172.616 282.766 172.856 282.526C173.096 282.286 173.389 282.166 173.736 282.166C174.069 282.166 174.349 282.286 174.576 282.526C174.816 282.766 174.936 283.059 174.936 283.406C174.936 283.752 174.816 284.046 174.576 284.286C174.349 284.526 174.069 284.646 173.736 284.646ZM174.616 286.426V297.386H172.796V286.426H174.616ZM183.058 286.226C184.391 286.226 185.471 286.632 186.298 287.446C187.124 288.246 187.538 289.406 187.538 290.926V297.386H185.738V291.186C185.738 290.092 185.464 289.259 184.918 288.686C184.371 288.099 183.624 287.806 182.678 287.806C181.718 287.806 180.951 288.106 180.378 288.706C179.818 289.306 179.538 290.179 179.538 291.326V297.386H177.718V286.426H179.538V287.986C179.898 287.426 180.384 286.992 180.998 286.686C181.624 286.379 182.311 286.226 183.058 286.226Z" fill="#222222"/>
<line x1="199.5" y1="245.886" x2="199.5" y2="308.886" stroke="#222222"/>
<path d="M214.414 262.498C214.494 260.898 215.054 259.666 216.094 258.802C217.15 257.922 218.534 257.482 220.246 257.482C221.414 257.482 222.414 257.69 223.246 258.106C224.078 258.506 224.702 259.058 225.118 259.762C225.55 260.45 225.766 261.234 225.766 262.114C225.766 263.122 225.502 263.978 224.974 264.682C224.462 265.37 223.846 265.834 223.126 266.074V266.17C224.054 266.458 224.774 266.97 225.286 267.706C225.814 268.442 226.078 269.386 226.078 270.538C226.078 271.498 225.854 272.354 225.406 273.106C224.974 273.858 224.326 274.45 223.462 274.882C222.614 275.298 221.59 275.506 220.39 275.506C218.582 275.506 217.11 275.05 215.974 274.138C214.838 273.226 214.238 271.882 214.174 270.106H217.438C217.47 270.89 217.734 271.522 218.23 272.002C218.742 272.466 219.438 272.698 220.318 272.698C221.134 272.698 221.758 272.474 222.19 272.026C222.638 271.562 222.862 270.97 222.862 270.25C222.862 269.29 222.558 268.602 221.95 268.186C221.342 267.77 220.398 267.562 219.118 267.562H218.422V264.802H219.118C221.39 264.802 222.526 264.042 222.526 262.522C222.526 261.834 222.318 261.298 221.902 260.914C221.502 260.53 220.918 260.338 220.15 260.338C219.398 260.338 218.814 260.546 218.398 260.962C217.998 261.362 217.766 261.874 217.702 262.498H214.414ZM240.493 260.794H232.717V264.898C233.053 264.482 233.533 264.146 234.157 263.89C234.781 263.618 235.445 263.482 236.149 263.482C237.429 263.482 238.477 263.762 239.293 264.322C240.109 264.882 240.701 265.602 241.069 266.482C241.437 267.346 241.621 268.274 241.621 269.266C241.621 271.106 241.093 272.586 240.037 273.706C238.997 274.826 237.509 275.386 235.573 275.386C233.749 275.386 232.293 274.93 231.205 274.018C230.117 273.106 229.501 271.914 229.357 270.442H232.621C232.765 271.082 233.085 271.594 233.581 271.978C234.093 272.362 234.741 272.554 235.525 272.554C236.469 272.554 237.181 272.258 237.661 271.666C238.141 271.074 238.381 270.29 238.381 269.314C238.381 268.322 238.133 267.57 237.637 267.058C237.157 266.53 236.445 266.266 235.501 266.266C234.829 266.266 234.269 266.434 233.821 266.77C233.373 267.106 233.053 267.554 232.861 268.114H229.645V257.842H240.493V260.794Z" fill="#0D3072"/>
<path d="M215.132 297.526C214.212 297.526 213.385 297.366 212.652 297.046C211.932 296.712 211.365 296.259 210.952 295.686C210.539 295.099 210.325 294.426 210.312 293.666H212.252C212.319 294.319 212.585 294.872 213.052 295.326C213.532 295.766 214.225 295.986 215.132 295.986C215.999 295.986 216.679 295.772 217.172 295.346C217.679 294.906 217.932 294.346 217.932 293.666C217.932 293.132 217.785 292.699 217.492 292.366C217.199 292.032 216.832 291.779 216.392 291.606C215.952 291.432 215.359 291.246 214.612 291.046C213.692 290.806 212.952 290.566 212.392 290.326C211.845 290.086 211.372 289.712 210.972 289.206C210.585 288.686 210.392 287.992 210.392 287.126C210.392 286.366 210.585 285.692 210.972 285.106C211.359 284.519 211.899 284.066 212.592 283.746C213.299 283.426 214.105 283.266 215.012 283.266C216.319 283.266 217.385 283.592 218.212 284.246C219.052 284.899 219.525 285.766 219.632 286.846H217.632C217.565 286.312 217.285 285.846 216.792 285.446C216.299 285.032 215.645 284.826 214.832 284.826C214.072 284.826 213.452 285.026 212.972 285.426C212.492 285.812 212.252 286.359 212.252 287.066C212.252 287.572 212.392 287.986 212.672 288.306C212.965 288.626 213.319 288.872 213.732 289.046C214.159 289.206 214.752 289.392 215.512 289.606C216.432 289.859 217.172 290.112 217.732 290.366C218.292 290.606 218.772 290.986 219.172 291.506C219.572 292.012 219.772 292.706 219.772 293.586C219.772 294.266 219.592 294.906 219.232 295.506C218.872 296.106 218.339 296.592 217.632 296.966C216.925 297.339 216.092 297.526 215.132 297.526ZM232.45 291.486C232.45 291.832 232.43 292.199 232.39 292.586H223.63C223.697 293.666 224.063 294.512 224.73 295.126C225.41 295.726 226.23 296.026 227.19 296.026C227.977 296.026 228.63 295.846 229.15 295.486C229.683 295.112 230.057 294.619 230.27 294.006H232.23C231.937 295.059 231.35 295.919 230.47 296.586C229.59 297.239 228.497 297.566 227.19 297.566C226.15 297.566 225.217 297.332 224.39 296.866C223.577 296.399 222.937 295.739 222.47 294.886C222.003 294.019 221.77 293.019 221.77 291.886C221.77 290.752 221.997 289.759 222.45 288.906C222.903 288.052 223.537 287.399 224.35 286.946C225.177 286.479 226.123 286.246 227.19 286.246C228.23 286.246 229.15 286.472 229.95 286.926C230.75 287.379 231.363 288.006 231.79 288.806C232.23 289.592 232.45 290.486 232.45 291.486ZM230.57 291.106C230.57 290.412 230.417 289.819 230.11 289.326C229.803 288.819 229.383 288.439 228.85 288.186C228.33 287.919 227.75 287.786 227.11 287.786C226.19 287.786 225.403 288.079 224.75 288.666C224.11 289.252 223.743 290.066 223.65 291.106H230.57ZM239.373 286.246C240.319 286.246 241.146 286.452 241.853 286.866C242.573 287.279 243.106 287.799 243.453 288.426V286.426H245.293V297.626C245.293 298.626 245.079 299.512 244.653 300.286C244.226 301.072 243.613 301.686 242.813 302.126C242.026 302.566 241.106 302.786 240.053 302.786C238.613 302.786 237.413 302.446 236.453 301.766C235.493 301.086 234.926 300.159 234.753 298.986H236.553C236.753 299.652 237.166 300.186 237.793 300.586C238.419 300.999 239.173 301.206 240.053 301.206C241.053 301.206 241.866 300.892 242.493 300.266C243.133 299.639 243.453 298.759 243.453 297.626V295.326C243.093 295.966 242.559 296.499 241.853 296.926C241.146 297.352 240.319 297.566 239.373 297.566C238.399 297.566 237.513 297.326 236.713 296.846C235.926 296.366 235.306 295.692 234.853 294.826C234.399 293.959 234.173 292.972 234.173 291.866C234.173 290.746 234.399 289.766 234.853 288.926C235.306 288.072 235.926 287.412 236.713 286.946C237.513 286.479 238.399 286.246 239.373 286.246ZM243.453 291.886C243.453 291.059 243.286 290.339 242.953 289.726C242.619 289.112 242.166 288.646 241.593 288.326C241.033 287.992 240.413 287.826 239.733 287.826C239.053 287.826 238.433 287.986 237.873 288.306C237.313 288.626 236.866 289.092 236.533 289.706C236.199 290.319 236.033 291.039 236.033 291.866C236.033 292.706 236.199 293.439 236.533 294.066C236.866 294.679 237.313 295.152 237.873 295.486C238.433 295.806 239.053 295.966 239.733 295.966C240.413 295.966 241.033 295.806 241.593 295.486C242.166 295.152 242.619 294.679 242.953 294.066C243.286 293.439 243.453 292.712 243.453 291.886Z" fill="#222222"/>
</g>
<defs>
<clipPath id="clip0_3438_2485">
<rect width="313" height="429" fill="white"/>
</clipPath>
</defs>
</svg>
