<svg xmlns="http://www.w3.org/2000/svg" xmlns:xlink="http://www.w3.org/1999/xlink" preserveAspectRatio="xMidYMid meet" width="350" height="80" viewBox="0 0 350 80" style="width:100%;height:100%"><defs><animate repeatCount="indefinite" dur="2.002002s" begin="0s" xlink:href="#_R_G_L_8_G_D_0_P_0" fill="freeze" attributeName="fill" from="#e23f43" to="#e23f43" keyTimes="0;0.5;0.9833333;1" values="#e23f43;#ff5b5f;#e23f43;#e23f43" keySplines="0.333 0 0.667 1;0.333 0 0.667 1;0 0 0 0" calcMode="spline"/><animate repeatCount="indefinite" dur="2.002002s" begin="0s" xlink:href="#_R_G_L_7_G_D_0_P_0" fill="freeze" attributeName="fill" from="#f58450" to="#f58450" keyTimes="0;0.5;0.9833333;1" values="#f58450;#ff986a;#f58450;#f58450" keySplines="0.333 0 0.667 1;0.333 0 0.667 1;0 0 0 0" calcMode="spline"/><animate repeatCount="indefinite" dur="2.002002s" begin="0s" xlink:href="#_R_G_L_6_G_D_0_P_0" fill="freeze" attributeName="fill" from="#efe8e7" to="#efe8e7" keyTimes="0;0.5;0.9833333;1" values="#efe8e7;#f6f3f2;#efe8e7;#efe8e7" keySplines="0.333 0 0.667 1;0.333 0 0.667 1;0 0 0 0" calcMode="spline"/><animate repeatCount="indefinite" dur="2.002002s" begin="0s" xlink:href="#_R_G_L_5_G_D_0_P_0" fill="freeze" attributeName="fill" from="#00b16e" to="#00b16e" keyTimes="0;0.5;0.9833333;1" values="#00b16e;#00ea91;#00b16e;#00b16e" keySplines="0.333 0 0.667 1;0.333 0 0.667 1;0 0 0 0" calcMode="spline"/><animate repeatCount="indefinite" dur="2.002002s" begin="0s" xlink:href="#_R_G_L_4_G_D_0_P_0" fill="freeze" attributeName="fill" from="#e23f43" to="#e23f43" keyTimes="0;0.5;0.9833333;1" values="#e23f43;#ff5b5f;#e23f43;#e23f43" keySplines="0.333 0 0.667 1;0.333 0 0.667 1;0 0 0 0" calcMode="spline"/><animate repeatCount="indefinite" dur="2.002002s" begin="0s" xlink:href="#_R_G_L_3_G_D_0_P_0" fill="freeze" attributeName="fill" from="#f58450" to="#f58450" keyTimes="0;0.5;0.9833333;1" values="#f58450;#ff986a;#f58450;#f58450" keySplines="0.333 0 0.667 1;0.333 0 0.667 1;0 0 0 0" calcMode="spline"/><animate repeatCount="indefinite" dur="2.002002s" begin="0s" xlink:href="#_R_G_L_2_G_D_0_P_0" fill="freeze" attributeName="fill" from="#efe8e7" to="#efe8e7" keyTimes="0;0.5;0.9833333;1" values="#efe8e7;#f6f3f2;#efe8e7;#efe8e7" keySplines="0.333 0 0.667 1;0.333 0 0.667 1;0 0 0 0" calcMode="spline"/><animate repeatCount="indefinite" dur="2.002002s" begin="0s" xlink:href="#_R_G_L_1_G_D_0_P_0" fill="freeze" attributeName="fill" from="#00b16e" to="#00b16e" keyTimes="0;0.5;0.9833333;1" values="#00b16e;#00ea91;#00b16e;#00b16e" keySplines="0.333 0 0.667 1;0.333 0 0.667 1;0 0 0 0" calcMode="spline"/><animate attributeType="XML" attributeName="opacity" dur="2s" from="0" to="1" xlink:href="#time_group"/></defs><g id="_R_G"><g id="_R_G_L_8_G" transform=" translate(15.92, 32.859) translate(-15.849, -25.7)"><path id="_R_G_L_8_G_D_0_P_0" fill="#e23f43" fill-opacity="1" fill-rule="nonzero" d=" M26.76 12.16 C26.76,12.16 15.59,9.5 15.59,9.5 C7.12,15.88 0.25,36.54 9.88,49.78 C10.34,50.4 10.96,50.83 11.63,51.01 C12.31,51.15 13.05,51.05 13.73,50.7 C28.3,43.2 31.45,21.66 26.76,12.16z "/><path id="_R_G_L_8_G_D_1_P_0" fill="#ffffff" fill-opacity="1" fill-rule="nonzero" d=" M17.21 2.68 C17.21,2.68 15.59,9.5 15.59,9.5 C15.59,9.5 26.76,12.16 26.76,12.16 C26.76,12.16 28.38,5.34 28.38,5.34 C28.74,3.83 27.81,2.32 26.3,1.97 C26.3,1.97 20.58,0.61 20.58,0.61 C19.08,0.25 17.57,1.18 17.21,2.68z "/><path id="_R_G_L_8_G_D_2_P_0" fill="#be3f42" fill-opacity="1" fill-rule="nonzero" d=" M26.76 12.16 C26.76,12.16 24.74,11.68 24.74,11.68 C24.46,18.57 21.84,39.41 6.87,44.09 C7.6,46.09 8.59,48 9.88,49.78 C10.34,50.4 10.96,50.83 11.63,51.01 C12.3,51.15 13.05,51.05 13.73,50.7 C28.3,43.2 31.45,21.66 26.76,12.16z "/><path id="_R_G_L_8_G_D_3_P_0" fill="#ffffff" fill-opacity="1" fill-rule="nonzero" d=" M19.01 19.07 C18.59,20.87 16.78,21.98 14.98,21.55 C13.18,21.12 12.07,19.32 12.5,17.52 C12.93,15.72 14.73,14.61 16.53,15.03 C18.33,15.46 19.44,17.27 19.01,19.07z "/><path id="_R_G_L_8_G_D_4_P_0" fill="#ffffff" fill-opacity="1" fill-rule="nonzero" d=" M14.29 26.48 C14.06,27.45 13.08,28.05 12.11,27.82 C11.14,27.59 10.54,26.61 10.77,25.64 C11,24.67 11.98,24.07 12.95,24.3 C13.92,24.53 14.52,25.5 14.29,26.48z "/></g><g id="_R_G_L_7_G" transform=" translate(65.5, 43.456) translate(-15.309, -25.871)"><path id="_R_G_L_7_G_D_0_P_0" fill="#f58450" fill-opacity="1" fill-rule="nonzero" d=" M25.05 11.61 C25.05,11.61 13.72,9.72 13.72,9.72 C5.71,16.66 0.25,37.73 10.76,50.29 C11.25,50.88 11.9,51.26 12.58,51.4 C13.27,51.49 14,51.34 14.66,50.94 C28.68,42.48 30.37,20.77 25.05,11.61z "/><path id="_R_G_L_7_G_D_1_P_0" fill="#ffffff" fill-opacity="1" fill-rule="nonzero" d=" M14.88 2.8 C14.88,2.8 13.72,9.72 13.72,9.72 C13.72,9.72 25.05,11.61 25.05,11.61 C25.05,11.61 26.2,4.69 26.2,4.69 C26.45,3.17 25.43,1.73 23.9,1.47 C23.9,1.47 18.1,0.5 18.1,0.5 C16.57,0.25 15.13,1.28 14.88,2.8z "/><path id="_R_G_L_7_G_D_2_P_0" fill="#f26a56" fill-opacity="1" fill-rule="nonzero" d=" M25.04 11.61 C25.04,11.61 23,11.27 23,11.27 C23.18,18.16 21.98,39.13 7.37,44.82 C8.23,46.76 9.35,48.6 10.76,50.29 C11.25,50.88 11.9,51.26 12.58,51.4 C13.27,51.49 14,51.34 14.66,50.94 C28.68,42.48 30.37,20.77 25.04,11.61z "/><path id="_R_G_L_7_G_D_3_P_0" fill="#ffffff" fill-opacity="1" fill-rule="nonzero" d=" M17.79 19.03 C17.48,20.85 15.76,22.08 13.93,21.78 C12.11,21.48 10.88,19.75 11.18,17.93 C11.48,16.1 13.21,14.87 15.03,15.17 C16.86,15.48 18.09,17.2 17.79,19.03z "/><path id="_R_G_L_7_G_D_4_P_0" fill="#ffffff" fill-opacity="1" fill-rule="nonzero" d=" M13.58 26.74 C13.41,27.73 12.48,28.39 11.49,28.23 C10.51,28.06 9.84,27.13 10.01,26.14 C10.17,25.16 11.1,24.49 12.09,24.66 C13.08,24.82 13.74,25.75 13.58,26.74z "/></g><g id="_R_G_L_6_G" transform=" translate(113.745, 50.57) translate(-14.714, -25.924)"><path id="_R_G_L_6_G_D_0_P_0" fill="#efe8e7" fill-opacity="1" fill-rule="nonzero" d=" M23.26 11.02 C23.26,11.02 11.83,9.89 11.83,9.89 C4.3,17.34 0.25,38.73 11.57,50.56 C12.1,51.12 12.77,51.46 13.46,51.55 C14.15,51.6 14.88,51.4 15.51,50.96 C28.93,41.58 29.18,19.81 23.26,11.02z "/><path id="_R_G_L_6_G_D_1_P_0" fill="#ffffff" fill-opacity="1" fill-rule="nonzero" d=" M12.53 2.91 C12.53,2.91 11.83,9.89 11.83,9.89 C11.83,9.89 23.26,11.02 23.26,11.02 C23.26,11.02 23.95,4.05 23.95,4.05 C24.1,2.51 22.98,1.14 21.44,0.99 C21.44,0.99 15.59,0.4 15.59,0.4 C14.05,0.25 12.68,1.37 12.53,2.91z "/><path id="_R_G_L_6_G_D_2_P_0" fill="#dbd8d7" fill-opacity="1" fill-rule="nonzero" d=" M23.26 11.02 C23.26,11.02 21.2,10.82 21.2,10.82 C21.83,17.68 22.03,38.69 7.82,45.33 C8.81,47.21 10.05,48.97 11.57,50.57 C12.1,51.12 12.77,51.46 13.46,51.55 C14.15,51.6 14.88,51.4 15.51,50.96 C28.93,41.58 29.18,19.81 23.26,11.02z "/><path id="_R_G_L_6_G_D_3_P_0" fill="#ffffff" fill-opacity="1" fill-rule="nonzero" d=" M16.51 18.91 C16.33,20.75 14.69,22.09 12.84,21.91 C11,21.72 9.66,20.08 9.84,18.24 C10.03,16.4 11.67,15.06 13.51,15.24 C15.35,15.42 16.69,17.06 16.51,18.91z "/><path id="_R_G_L_6_G_D_4_P_0" fill="#ffffff" fill-opacity="1" fill-rule="nonzero" d=" M12.82 26.88 C12.72,27.87 11.83,28.6 10.84,28.5 C9.84,28.4 9.12,27.52 9.22,26.52 C9.32,25.53 10.2,24.8 11.2,24.9 C12.19,25 12.92,25.89 12.82,26.88z "/></g><g id="_R_G_L_5_G" transform=" translate(163.385, 54.049) translate(-14.661, -25.835)"><path id="_R_G_L_5_G_D_0_P_0" fill="#00b16e" fill-opacity="1" fill-rule="nonzero" d=" M20.88 10.22 C20.88,10.22 9.4,10.04 9.4,10.04 C2.51,18.09 0.25,39.74 12.51,50.6 C13.09,51.11 13.78,51.39 14.48,51.42 C15.17,51.41 15.88,51.15 16.47,50.66 C29.07,40.21 27.51,18.49 20.88,10.22z "/><path id="_R_G_L_5_G_D_1_P_0" fill="#ffffff" fill-opacity="1" fill-rule="nonzero" d=" M9.51 3.03 C9.51,3.03 9.4,10.04 9.4,10.04 C9.4,10.04 20.88,10.22 20.88,10.22 C20.88,10.22 20.99,3.21 20.99,3.21 C21.02,1.67 19.79,0.39 18.24,0.37 C18.24,0.37 12.36,0.27 12.36,0.27 C10.81,0.25 9.54,1.48 9.51,3.03z "/><path id="_R_G_L_5_G_D_2_P_0" fill="#008557" fill-opacity="1" fill-rule="nonzero" d=" M20.88 10.22 C20.88,10.22 18.81,10.19 18.81,10.19 C20.01,16.98 21.95,37.89 8.34,45.69 C9.49,47.48 10.86,49.14 12.51,50.6 C13.09,51.11 13.78,51.39 14.48,51.42 C15.17,51.41 15.88,51.15 16.47,50.66 C29.07,40.21 27.51,18.49 20.88,10.22z "/><path id="_R_G_L_5_G_D_3_P_0" fill="#ffffff" fill-opacity="1" fill-rule="nonzero" d=" M14.81 18.64 C14.78,20.49 13.26,21.96 11.41,21.93 C9.56,21.9 8.08,20.38 8.11,18.53 C8.14,16.68 9.66,15.2 11.51,15.24 C13.36,15.26 14.84,16.79 14.81,18.64z "/><path id="_R_G_L_5_G_D_4_P_0" fill="#ffffff" fill-opacity="1" fill-rule="nonzero" d=" M11.79 26.89 C11.78,27.89 10.95,28.69 9.95,28.67 C8.96,28.65 8.16,27.83 8.17,26.83 C8.19,25.83 9.01,25.04 10.01,25.05 C11.01,25.07 11.81,25.89 11.79,26.89z "/></g><g id="_R_G_L_4_G" transform=" translate(212.647, 53.101) translate(-14.633, -25.907)"><path id="_R_G_L_4_G_D_0_P_0" fill="#e23f43" fill-opacity="1" fill-rule="nonzero" d=" M18.43 9.96 C18.43,9.96 6.97,10.7 6.97,10.7 C0.76,19.28 0.25,41.05 13.35,50.88 C13.96,51.34 14.68,51.56 15.37,51.54 C16.06,51.48 16.75,51.16 17.3,50.62 C29.02,39.18 25.71,17.67 18.43,9.96z "/><path id="_R_G_L_4_G_D_1_P_0" fill="#ffffff" fill-opacity="1" fill-rule="nonzero" d=" M6.52 3.7 C6.52,3.7 6.97,10.7 6.97,10.7 C6.97,10.7 18.43,9.96 18.43,9.96 C18.43,9.96 17.98,2.96 17.98,2.96 C17.88,1.42 16.55,0.25 15.01,0.35 C15.01,0.35 9.13,0.73 9.13,0.73 C7.59,0.83 6.42,2.16 6.52,3.7z "/><path id="_R_G_L_4_G_D_2_P_0" fill="#be3f42" fill-opacity="1" fill-rule="nonzero" d=" M18.43 9.96 C18.43,9.96 16.36,10.09 16.36,10.09 C18.11,16.76 21.73,37.45 8.79,46.32 C10.08,48.01 11.59,49.56 13.35,50.88 C13.96,51.34 14.68,51.56 15.37,51.54 C16.06,51.48 16.75,51.16 17.3,50.62 C29.02,39.18 25.71,17.67 18.43,9.96z "/><path id="_R_G_L_4_G_D_3_P_0" fill="#ffffff" fill-opacity="1" fill-rule="nonzero" d=" M13.06 18.84 C13.18,20.68 11.78,22.27 9.93,22.39 C8.09,22.51 6.49,21.11 6.37,19.27 C6.25,17.42 7.65,15.83 9.5,15.71 C11.34,15.59 12.94,16.99 13.06,18.84z "/><path id="_R_G_L_4_G_D_4_P_0" fill="#ffffff" fill-opacity="1" fill-rule="nonzero" d=" M10.72 27.3 C10.78,28.3 10.03,29.16 9.03,29.23 C8.03,29.29 7.17,28.53 7.11,27.54 C7.04,26.54 7.8,25.68 8.79,25.62 C9.79,25.55 10.65,26.31 10.72,27.3z "/></g><g id="_R_G_L_3_G" transform=" translate(258.258, 48.465) translate(-15.31, -25.871)"><path id="_R_G_L_3_G_D_0_P_0" fill="#f58450" fill-opacity="1" fill-rule="nonzero" d=" M16.9 9.72 C16.9,9.72 5.57,11.61 5.57,11.61 C0.25,20.78 1.94,42.48 15.96,50.94 C16.62,51.34 17.35,51.49 18.04,51.4 C18.72,51.26 19.37,50.88 19.86,50.29 C30.37,37.73 24.91,16.66 16.9,9.72z "/><path id="_R_G_L_3_G_D_1_P_0" fill="#ffffff" fill-opacity="1" fill-rule="nonzero" d=" M4.42 4.7 C4.42,4.7 5.57,11.61 5.57,11.61 C5.57,11.61 16.9,9.72 16.9,9.72 C16.9,9.72 15.74,2.8 15.74,2.8 C15.49,1.28 14.05,0.25 12.52,0.5 C12.52,0.5 6.72,1.47 6.72,1.47 C5.19,1.73 4.16,3.17 4.42,4.7z "/><path id="_R_G_L_3_G_D_2_P_0" fill="#f26a56" fill-opacity="1" fill-rule="nonzero" d=" M16.9 9.72 C16.9,9.72 14.85,10.06 14.85,10.06 C17.26,16.52 22.94,36.74 10.97,46.87 C12.42,48.42 14.08,49.81 15.96,50.94 C16.62,51.34 17.35,51.49 18.04,51.4 C18.72,51.26 19.37,50.88 19.86,50.29 C30.37,37.73 24.91,16.66 16.9,9.72z "/><path id="_R_G_L_3_G_D_3_P_0" fill="#ffffff" fill-opacity="1" fill-rule="nonzero" d=" M12.44 19.09 C12.75,20.92 11.52,22.64 9.69,22.95 C7.87,23.25 6.14,22.02 5.84,20.2 C5.53,18.37 6.77,16.65 8.59,16.34 C10.41,16.04 12.14,17.27 12.44,19.09z "/><path id="_R_G_L_3_G_D_4_P_0" fill="#ffffff" fill-opacity="1" fill-rule="nonzero" d=" M10.97 27.75 C11.13,28.74 10.47,29.67 9.48,29.84 C8.5,30 7.56,29.34 7.4,28.35 C7.23,27.37 7.9,26.43 8.89,26.27 C9.87,26.1 10.8,26.77 10.97,27.75z "/></g><g id="_R_G_L_2_G" transform=" translate(299.563, 41.23) translate(-15.895, -25.679)"><path id="_R_G_L_2_G_D_0_P_0" fill="#efe8e7" fill-opacity="1" fill-rule="nonzero" d=" M16.03 9.48 C16.03,9.48 4.88,12.2 4.88,12.2 C0.25,21.74 3.54,43.26 18.14,50.66 C18.83,51.01 19.57,51.11 20.25,50.96 C20.92,50.78 21.54,50.35 21.99,49.72 C31.54,36.42 24.54,15.81 16.03,9.48z "/><path id="_R_G_L_2_G_D_1_P_0" fill="#ffffff" fill-opacity="1" fill-rule="nonzero" d=" M3.22 5.39 C3.22,5.39 4.88,12.2 4.88,12.2 C4.88,12.2 16.03,9.48 16.03,9.48 C16.03,9.48 14.37,2.67 14.37,2.67 C14,1.17 12.49,0.25 10.99,0.62 C10.99,0.62 5.27,2.01 5.27,2.01 C3.77,2.38 2.85,3.89 3.22,5.39z "/><path id="_R_G_L_2_G_D_2_P_0" fill="#dbd8d7" fill-opacity="1" fill-rule="nonzero" d=" M16.03 9.48 C16.03,9.48 14.02,9.97 14.02,9.97 C16.9,16.24 24.06,35.98 12.87,46.97 C14.43,48.41 16.18,49.67 18.14,50.66 C18.83,51.01 19.57,51.11 20.25,50.96 C20.92,50.78 21.54,50.35 21.99,49.72 C31.54,36.42 24.54,15.81 16.03,9.48z "/><path id="_R_G_L_2_G_D_3_P_0" fill="#ffffff" fill-opacity="1" fill-rule="nonzero" d=" M12.29 19.16 C12.72,20.96 11.62,22.77 9.83,23.21 C8.03,23.65 6.22,22.55 5.78,20.75 C5.34,18.95 6.44,17.14 8.24,16.7 C10.03,16.26 11.85,17.36 12.29,19.16z "/><path id="_R_G_L_2_G_D_4_P_0" fill="#ffffff" fill-opacity="1" fill-rule="nonzero" d=" M11.45 27.91 C11.69,28.88 11.1,29.86 10.12,30.09 C9.15,30.33 8.17,29.74 7.94,28.76 C7.7,27.79 8.3,26.82 9.27,26.58 C10.24,26.34 11.22,26.94 11.45,27.91z "/></g><g id="_R_G_L_1_G" transform=" translate(338.304, 30.062) translate(-16.396, -25.347)"><path id="_R_G_L_1_G_D_0_P_0" fill="#00b16e" fill-opacity="1" fill-rule="nonzero" d=" M15.58 9.19 C15.58,9.19 4.66,12.74 4.66,12.74 C0.75,22.59 5.62,43.8 20.74,50.1 C21.45,50.4 22.2,50.44 22.86,50.25 C23.52,50.02 24.1,49.54 24.5,48.88 C33.04,34.91 24.53,14.87 15.58,9.19z "/><path id="_R_G_L_1_G_D_1_P_0" fill="#ffffff" fill-opacity="1" fill-rule="nonzero" d=" M2 6.07 C2,6.07 4.16,12.73 4.16,12.73 C4.16,12.73 15.08,9.19 15.08,9.19 C15.08,9.19 12.92,2.53 12.92,2.53 C12.44,1.05 10.86,0.25 9.4,0.73 C9.4,0.73 3.8,2.54 3.8,2.54 C2.33,3.02 1.52,4.6 2,6.07z "/><path id="_R_G_L_1_G_D_2_P_0" fill="#008557" fill-opacity="1" fill-rule="nonzero" d=" M15.08 9.19 C15.08,9.19 13.11,9.83 13.11,9.83 C16.45,15.87 25.05,35.03 14.7,46.82 C16.37,48.14 18.21,49.26 20.24,50.1 C20.95,50.4 21.7,50.44 22.36,50.25 C23.02,50.02 23.6,49.54 24,48.88 C32.54,34.91 24.03,14.87 15.08,9.19z "/><path id="_R_G_L_1_G_D_3_P_0" fill="#ffffff" fill-opacity="1" fill-rule="nonzero" d=" M12.06 19.12 C12.63,20.88 11.67,22.77 9.91,23.34 C8.15,23.91 6.26,22.95 5.69,21.19 C5.12,19.43 6.08,17.54 7.84,16.97 C9.6,16.4 11.49,17.36 12.06,19.12z "/><path id="_R_G_L_1_G_D_4_P_0" fill="#ffffff" fill-opacity="1" fill-rule="nonzero" d=" M11.88 27.91 C12.19,28.86 11.67,29.88 10.72,30.19 C9.76,30.5 8.74,29.97 8.44,29.02 C8.13,28.07 8.65,27.05 9.6,26.74 C10.55,26.44 11.57,26.96 11.88,27.91z "/></g><g id="_R_G_L_0_G" transform=" translate(170.395, 16.813) translate(-170.645, -16.562)"><path id="_R_G_L_0_G_D_0_P_0" fill="#ffffff" fill-opacity="1" fill-rule="nonzero" d=" M341.04 2.22 C279.06,24.8 208.92,32.87 132.2,26.24 C102.75,23.69 75.31,19.18 51.22,14.05 C31.82,9.93 14.6,5.41 0.25,1.23 C0.25,1.23 0.46,0.25 0.46,0.25 C32.6,9.63 79.16,20.65 132.29,25.25 C208.24,31.82 277.72,23.94 339.19,1.83 C339.19,1.83 341.04,2.22 341.04,2.22z "/></g></g><g id="time_group"/></svg>