<svg width="343" height="341" viewBox="0 0 343 341" fill="none" xmlns="http://www.w3.org/2000/svg">
<path d="M246.622 211.211C249.57 212.897 253.339 211.876 255.026 208.929L286.768 153.475C289.515 148.671 295.667 147 300.472 149.746C305.277 152.492 306.949 158.642 304.202 163.445C302.515 166.393 303.536 170.16 306.484 171.846C309.433 173.532 313.201 172.511 314.888 169.564C321.009 158.866 317.287 145.19 306.585 139.072C295.883 132.953 282.202 136.674 276.081 147.372L244.339 202.826C242.653 205.773 243.674 209.54 246.622 211.226V211.211Z" fill="white"/>
<path d="M316.567 151.061L317.403 154.14C318.347 158.905 317.751 163.987 315.399 168.589L307.514 139.613C311.87 142.39 314.965 146.474 316.567 151.061Z" fill="#F47F45"/>
<path d="M300.402 136.651L310.191 172.612C308.945 172.743 307.653 172.503 306.484 171.838C303.536 170.152 302.507 166.393 304.202 163.438C306.949 158.634 305.277 152.492 300.472 149.739C299.597 149.236 298.677 148.888 297.74 148.671L294.328 136.14C296.347 136.032 298.39 136.194 300.402 136.651Z" fill="#F47F45"/>
<path d="M288.331 137.285L291.573 149.205C289.623 150.025 287.921 151.464 286.783 153.428L283.084 139.853C284.717 138.77 286.481 137.911 288.323 137.285H288.331Z" fill="#F47F45"/>
<path d="M276.074 147.348C276.662 146.32 277.319 145.36 278.039 144.463L282.512 160.893L278.488 167.924L273.915 151.123L276.074 147.348Z" fill="#F47F45"/>
<path d="M269.643 158.595L274.216 175.389L270.193 182.42L265.619 165.627L269.643 158.595Z" fill="#F47F45"/>
<path d="M261.34 173.091L265.913 189.884L261.89 196.916L257.316 180.123L261.34 173.091Z" fill="#F47F45"/>
<path d="M253.045 187.587L257.618 204.388L255.018 208.929C254.6 209.663 254.043 210.282 253.409 210.762L249.013 194.618L253.037 187.587H253.045Z" fill="#F47F45"/>
<g style="mix-blend-mode:multiply">
<path d="M303.25 151.332C308.055 154.078 309.727 160.228 306.98 165.031C305.564 167.499 306.051 170.531 307.978 172.449C307.467 172.318 306.964 172.109 306.477 171.838C303.528 170.152 302.499 166.393 304.194 163.438C306.67 159.106 305.556 153.691 301.795 150.651C302.29 150.837 302.778 151.061 303.25 151.332Z" fill="#F4EBEA"/>
<g style="mix-blend-mode:overlay">
<path d="M306.585 139.056C307.057 139.327 307.506 139.605 307.947 139.907C297.485 134.871 284.717 138.724 278.859 148.95L247.117 204.403C245.701 206.871 246.189 209.903 248.116 211.822C247.605 211.69 247.102 211.481 246.614 211.21C243.666 209.524 242.637 205.765 244.332 202.81L276.074 147.356C282.194 136.658 295.883 132.938 306.577 139.056H306.585Z" fill="white"/>
</g>
</g>
<path d="M294.606 148.455C291.442 148.733 288.455 150.504 286.76 153.467L255.018 208.921C254.407 209.981 253.532 210.793 252.519 211.319C252.457 210.182 252.712 209.014 253.323 207.946L285.065 152.492C288.47 146.544 294.606 148.455 294.606 148.455Z" fill="#F4EBEA"/>
<path d="M245.376 285.925H216.823V334.928H245.376V285.925Z" fill="#F47F45"/>
<g style="mix-blend-mode:overlay" opacity="0.37">
<path d="M221.249 285.925H216.823V334.928H221.249V285.925Z" fill="white"/>
</g>
<path d="M245.376 285.925H235.301V334.928H245.376V285.925Z" fill="#F26346"/>
<path d="M300.054 289.793C280.43 299.5 224.367 321.252 164.11 289.754C160.272 287.751 159.135 282.785 161.665 279.265L192.037 236.953C224.801 250.049 254.825 243.281 272.212 236.706L302.716 279.203C305.3 282.8 304.031 287.836 300.062 289.793H300.054Z" fill="#0EA865"/>
<path d="M186.853 244.163C220.877 263.733 268.575 263.052 290.025 261.536L272.197 236.706C254.809 243.281 224.785 250.049 192.022 236.953L186.845 244.163H186.853Z" fill="#025431"/>
<path d="M203.892 191.37C212.69 194.417 221.837 195.957 231.231 195.957C242.606 195.957 252.619 193.706 260.334 191.13L236.501 157.915C234.388 154.975 230.016 154.975 227.904 157.915L203.892 191.37Z" fill="#047547"/>
<path d="M192.61 176.843L228.933 126.247C230.535 124.011 233.862 124.011 235.464 126.247L271.756 176.804C273.203 178.823 272.491 181.646 270.262 182.753C259.251 188.198 227.795 200.404 193.987 182.729C191.836 181.6 191.194 178.815 192.61 176.843Z" fill="#0EA865"/>
<path d="M282.318 232.32C267.825 239.491 226.402 255.564 181.885 232.289C179.053 230.812 178.209 227.145 180.074 224.538L206.33 187.966C226.681 194.68 245.291 191.718 257.881 187.719L284.276 224.492C286.18 227.145 285.243 230.873 282.318 232.32Z" fill="#0EA865"/>
<g style="mix-blend-mode:overlay" opacity="0.44">
<path d="M228.933 126.247L192.091 300.916C182.953 298.34 173.582 294.705 164.11 289.754C160.272 287.751 159.135 282.785 161.665 279.265L192.037 236.953C188.679 235.615 185.297 234.068 181.893 232.289C179.06 230.812 178.217 227.145 180.082 224.538L206.337 187.966C202.275 186.628 198.158 184.903 193.995 182.729C191.836 181.6 191.202 178.815 192.618 176.843L228.94 126.247H228.933Z" fill="white"/>
</g>
<path d="M302.7 279.195L272.197 236.698C276.329 235.136 279.749 233.589 282.318 232.312C285.243 230.866 286.187 227.137 284.276 224.484L257.881 187.711C257.757 187.75 257.626 187.788 257.502 187.827C256.457 188.16 255.374 188.477 254.26 188.778C255.374 188.469 256.457 188.152 257.502 187.827C262.965 186.11 267.337 184.191 270.254 182.745C272.483 181.646 273.195 178.823 271.74 176.804L235.448 126.247C234.806 125.357 233.901 124.823 232.933 124.646C236.299 136.867 242.977 161.883 250.375 189.753C254.701 206.051 259.274 223.332 263.569 239.599C269.86 263.423 275.57 285.082 279.045 298.294C287.982 295.385 295.148 292.206 300.046 289.785C304.016 287.828 305.277 282.785 302.7 279.195Z" fill="#047547"/>
<path d="M202.074 193.899C224.127 202.044 250.182 201.565 266.734 200.049L257.881 187.719C245.283 191.725 226.681 194.68 206.33 187.966L202.074 193.899Z" fill="#047547"/>
<path d="M186.853 244.163C220.877 263.733 268.575 263.052 290.025 261.536L272.197 236.706C254.809 243.281 224.785 250.049 192.022 236.953L186.845 244.163H186.853Z" fill="#047547"/>
<path d="M233.204 99.2585L237.367 108.734C237.576 109.214 238.033 109.546 238.559 109.601L248.866 110.629C250.128 110.753 250.638 112.323 249.694 113.174L241.964 120.066C241.569 120.414 241.399 120.948 241.507 121.466L243.713 131.584C243.983 132.822 242.645 133.796 241.554 133.154L232.608 127.933C232.152 127.67 231.595 127.67 231.138 127.933L222.193 133.154C221.094 133.796 219.763 132.822 220.034 131.584L222.239 121.466C222.348 120.948 222.177 120.414 221.783 120.066L214.052 113.174C213.101 112.331 213.611 110.761 214.88 110.629L225.188 109.601C225.714 109.546 226.17 109.214 226.379 108.734L230.542 99.2585C231.053 98.0982 232.701 98.0982 233.212 99.2585H233.204Z" fill="#F47F45"/>
<g style="mix-blend-mode:overlay" opacity="0.33">
<path d="M236.346 109.368C232.655 112.865 227.408 116.493 223.091 119.239L216.738 113.584C215.933 112.865 216.366 111.527 217.434 111.426L226.186 110.544C226.627 110.506 227.021 110.219 227.199 109.809L230.736 101.765C231.169 100.775 232.577 100.775 233.003 101.765L236.346 109.368Z" fill="white"/>
</g>
<path d="M241.964 120.066C241.577 120.414 241.399 120.948 241.507 121.466L243.713 131.584C243.983 132.822 242.645 133.796 241.546 133.154L232.608 127.933C232.152 127.67 231.587 127.67 231.138 127.933L222.193 133.154C221.102 133.796 219.763 132.822 220.034 131.584L220.684 128.575C225.69 124.576 234.295 116.918 237.654 109.152C237.886 109.407 238.211 109.57 238.567 109.608L248.866 110.637C250.135 110.769 250.638 112.331 249.694 113.182L241.964 120.074V120.066Z" fill="#F26346"/>
<path d="M177.033 287.658H142.289V334.92H177.033V287.658Z" fill="#F47F45"/>
<g style="mix-blend-mode:overlay" opacity="0.37">
<path d="M147.675 287.658H142.289V334.92H147.675V287.658Z" fill="white"/>
</g>
<path d="M177.033 287.658H164.776V334.92H177.033V287.658Z" fill="#F26346"/>
<path d="M243.566 292.361C219.693 304.173 151.474 330.643 78.1552 292.314C73.4891 289.878 72.104 283.829 75.176 279.551L112.126 228.073C151.993 244 188.524 235.77 209.673 227.772L246.785 279.474C249.926 283.844 248.386 289.978 243.558 292.361H243.566Z" fill="#0EA865"/>
<path d="M105.834 236.845C147.226 260.662 205.277 259.834 231.37 257.985L209.68 227.772C188.532 235.77 151.992 244.008 112.133 228.073L105.834 236.845Z" fill="#025431"/>
<path d="M126.557 172.612C137.259 176.317 148.394 178.189 159.816 178.189C173.659 178.189 185.839 175.451 195.233 172.318L166.231 131.909C163.662 128.328 158.346 128.328 155.776 131.909L126.557 172.612Z" fill="#047547"/>
<path d="M112.838 154.937L157.03 93.372C158.98 90.6569 163.019 90.6569 164.977 93.372L209.139 154.89C210.903 157.342 210.036 160.785 207.328 162.123C193.933 168.752 155.653 183.603 114.517 162.1C111.894 160.73 111.12 157.342 112.845 154.937H112.838Z" fill="#0EA865"/>
<path d="M221.992 222.434C204.357 231.16 153.95 250.714 99.7911 222.396C96.3476 220.593 95.3185 216.13 97.5857 212.966L129.529 168.473C154.291 176.642 176.933 173.045 192.262 168.172L224.375 212.912C226.697 216.146 225.551 220.678 221.992 222.442V222.434Z" fill="#0EA865"/>
<g style="mix-blend-mode:overlay" opacity="0.44">
<path d="M157.03 93.372L112.203 305.898C101.083 302.765 89.685 298.34 78.1629 292.314C73.4968 289.878 72.1117 283.829 75.1837 279.551L112.133 228.073C108.048 226.441 103.931 224.562 99.791 222.396C96.3475 220.593 95.3183 216.13 97.5856 212.966L129.529 168.473C124.584 166.841 119.57 164.745 114.509 162.1C111.886 160.73 111.112 157.335 112.83 154.937L157.022 93.372H157.03Z" fill="white"/>
</g>
<path d="M246.792 279.474L209.68 227.772C214.71 225.869 218.865 223.981 221.992 222.434C225.551 220.671 226.696 216.138 224.375 212.905L192.262 168.164C192.107 168.21 191.952 168.265 191.797 168.303C190.528 168.705 189.213 169.092 187.851 169.463C189.213 169.084 190.528 168.698 191.797 168.303C198.445 166.215 203.761 163.879 207.32 162.123C210.029 160.785 210.895 157.35 209.131 154.89L164.969 93.372C164.188 92.2891 163.081 91.6393 161.905 91.4227C165.999 106.29 174.124 136.728 183.123 170.647C188.385 190.48 193.949 211.504 199.172 231.299C206.825 260.291 213.774 286.637 218.007 302.711C228.879 299.168 237.599 295.308 243.558 292.361C248.386 289.978 249.926 283.844 246.785 279.474H246.792Z" fill="#047547"/>
<path d="M124.352 175.69C151.18 185.599 182.883 185.019 203.033 183.17L192.262 168.164C176.933 173.037 154.299 176.634 129.529 168.466L124.352 175.683V175.69Z" fill="#047547"/>
<path d="M105.834 236.845C147.226 260.662 205.277 259.834 231.37 257.985L209.68 227.772C188.532 235.77 151.992 244.008 112.133 228.073L105.834 236.845Z" fill="#047547"/>
<path d="M162.23 60.5359L167.299 72.0692C167.554 72.657 168.111 73.0593 168.746 73.1212L181.281 74.3743C182.821 74.529 183.44 76.4396 182.287 77.4684L172.878 85.8533C172.398 86.2788 172.189 86.9285 172.321 87.5551L175.006 99.8619C175.338 101.37 173.713 102.554 172.375 101.772L161.495 95.4218C160.938 95.097 160.257 95.097 159.7 95.4218L148.82 101.772C147.481 102.554 145.856 101.37 146.189 99.8619L148.874 87.5551C149.013 86.9285 148.797 86.2788 148.317 85.8533L138.907 77.4684C137.754 76.4396 138.373 74.529 139.913 74.3743L152.449 73.1212C153.084 73.0593 153.641 72.657 153.896 72.0692L158.965 60.5359C159.584 59.1204 161.596 59.1204 162.215 60.5359H162.23Z" fill="#F47F45"/>
<g style="mix-blend-mode:overlay" opacity="0.33">
<path d="M166.053 72.835C161.565 77.0893 155.173 81.4984 149.919 84.84L142.188 77.9557C141.213 77.0816 141.732 75.4572 143.04 75.3257L153.687 74.2582C154.229 74.2118 154.701 73.8637 154.918 73.3687L159.22 63.5759C159.754 62.3692 161.456 62.3692 161.983 63.5759L166.045 72.8272L166.053 72.835Z" fill="white"/>
</g>
<path d="M172.886 85.8456C172.413 86.2711 172.197 86.9208 172.336 87.5474L175.021 99.8619C175.346 101.37 173.729 102.554 172.39 101.772L161.51 95.4141C160.953 95.0969 160.272 95.0969 159.715 95.4141L148.828 101.772C147.497 102.554 145.864 101.37 146.197 99.8619L146.986 96.2031C153.076 91.3299 163.546 82.0167 167.631 72.572C167.918 72.8814 168.312 73.0825 168.746 73.1212L181.281 74.3743C182.829 74.529 183.44 76.4318 182.287 77.4684L172.886 85.8533V85.8456Z" fill="#F26346"/>
<path d="M325.002 217.731C324.746 217.731 324.545 217.522 324.545 217.275V214.792L323.64 215.635C323.477 215.782 323.276 215.867 323.059 215.867C322.82 215.867 322.603 215.774 322.44 215.596C322.286 215.434 322.201 215.21 322.208 214.985C322.208 214.761 322.309 214.544 322.479 214.39L324.429 212.564L324.476 212.533L324.545 212.471V211.025L322.139 213.276C321.984 213.423 321.775 213.508 321.558 213.508C321.318 213.508 321.102 213.415 320.939 213.237C320.784 213.075 320.699 212.858 320.707 212.626C320.707 212.402 320.808 212.185 320.978 212.03L324.429 208.805L324.476 208.774L324.545 208.712V203.119L319.701 205.92L319.678 206.074L318.61 210.669C318.517 211.056 318.177 211.327 317.782 211.327C317.72 211.327 317.651 211.327 317.589 211.303C317.132 211.195 316.846 210.739 316.954 210.282L317.705 207.08L316.451 207.799L316.428 207.954L315.824 210.545C315.731 210.932 315.391 211.203 314.996 211.203C314.934 211.203 314.865 211.203 314.803 211.18C314.578 211.125 314.393 210.994 314.269 210.801C314.145 210.607 314.114 210.375 314.161 210.159L314.439 208.952L312.288 210.197C312.218 210.236 312.141 210.259 312.056 210.259C311.893 210.259 311.739 210.174 311.661 210.027C311.599 209.919 311.584 209.795 311.615 209.679C311.646 209.563 311.723 209.462 311.831 209.4L313.983 208.155L312.799 207.799C312.582 207.73 312.404 207.583 312.296 207.389C312.187 207.188 312.164 206.956 312.234 206.74C312.342 206.384 312.675 206.136 313.046 206.136C313.131 206.136 313.217 206.152 313.294 206.175L315.848 206.948L315.987 207.003L317.24 206.283L314.091 205.324C313.874 205.254 313.696 205.107 313.588 204.914C313.48 204.713 313.456 204.481 313.526 204.264C313.634 203.908 313.967 203.661 314.339 203.661C314.424 203.661 314.509 203.676 314.586 203.7L319.105 205.069L319.245 205.123L324.089 202.323L319.245 199.523L319.098 199.584L314.578 200.954C314.501 200.977 314.416 200.992 314.331 200.992C313.952 200.992 313.627 200.752 313.518 200.389C313.449 200.172 313.472 199.94 313.58 199.739C313.689 199.538 313.867 199.391 314.083 199.329L317.233 198.37L315.979 197.651L315.855 197.705L313.286 198.486C313.209 198.509 313.124 198.525 313.039 198.525C312.659 198.525 312.334 198.285 312.226 197.921C312.156 197.705 312.18 197.473 312.288 197.272C312.396 197.071 312.574 196.924 312.791 196.862L313.975 196.506L311.824 195.26C311.715 195.199 311.638 195.098 311.607 194.982C311.576 194.866 311.592 194.742 311.653 194.634C311.739 194.495 311.886 194.402 312.048 194.402C312.125 194.402 312.211 194.425 312.28 194.464L314.431 195.709L314.153 194.502C314.099 194.278 314.137 194.054 314.261 193.86C314.385 193.667 314.571 193.536 314.795 193.481C314.857 193.466 314.927 193.458 314.989 193.458C315.383 193.458 315.724 193.729 315.817 194.116L316.42 196.715L316.443 196.862L317.697 197.581L316.946 194.379C316.838 193.922 317.124 193.458 317.581 193.358C317.643 193.342 317.712 193.334 317.774 193.334C318.169 193.334 318.509 193.605 318.602 193.992L319.678 198.594L319.701 198.741L324.545 201.541V195.949L324.437 195.864L320.978 192.631C320.815 192.476 320.715 192.267 320.707 192.035C320.707 191.811 320.784 191.594 320.939 191.424C321.102 191.254 321.326 191.153 321.558 191.153C321.775 191.153 321.984 191.238 322.139 191.385L324.545 193.636V192.19L324.437 192.105L322.479 190.271C322.317 190.117 322.216 189.908 322.208 189.676C322.208 189.451 322.286 189.235 322.44 189.065C322.603 188.894 322.827 188.794 323.059 188.794C323.276 188.794 323.485 188.879 323.64 189.026L324.545 189.869V187.386C324.545 187.131 324.754 186.93 325.002 186.93C325.249 186.93 325.458 187.138 325.458 187.386V189.877L326.364 189.034C326.526 188.887 326.727 188.802 326.944 188.802C327.184 188.802 327.401 188.894 327.563 189.072C327.718 189.235 327.803 189.459 327.795 189.683C327.795 189.908 327.695 190.124 327.524 190.279L325.574 192.105L325.458 192.197V193.644L327.865 191.393C328.027 191.246 328.229 191.161 328.445 191.161C328.685 191.161 328.902 191.254 329.064 191.432C329.219 191.594 329.304 191.818 329.296 192.043C329.296 192.267 329.196 192.484 329.026 192.638L325.574 195.864L325.458 195.957V201.549L330.302 198.749L330.318 198.618L331.393 194C331.486 193.613 331.827 193.342 332.221 193.342C332.283 193.342 332.353 193.342 332.415 193.365C332.871 193.474 333.158 193.93 333.049 194.386L332.299 197.589L333.552 196.869L333.568 196.738L334.171 194.123C334.264 193.737 334.605 193.466 334.999 193.466C335.061 193.466 335.131 193.466 335.193 193.489C335.417 193.543 335.603 193.675 335.727 193.868C335.851 194.062 335.882 194.294 335.835 194.51L335.557 195.717L337.708 194.471C337.777 194.433 337.855 194.41 337.94 194.41C338.102 194.41 338.257 194.495 338.335 194.642C338.396 194.75 338.412 194.874 338.381 194.99C338.35 195.106 338.273 195.206 338.164 195.268L336.013 196.514L337.197 196.869C337.414 196.939 337.592 197.086 337.7 197.279C337.808 197.48 337.832 197.713 337.762 197.929C337.654 198.285 337.321 198.532 336.949 198.532C336.864 198.532 336.779 198.517 336.702 198.494L334.148 197.72L334.009 197.666L332.755 198.386L335.905 199.345C336.121 199.414 336.299 199.561 336.408 199.755C336.516 199.956 336.539 200.188 336.47 200.404C336.361 200.76 336.029 201.008 335.657 201.008C335.572 201.008 335.487 200.992 335.41 200.969L330.89 199.6L330.751 199.546L325.907 202.338L330.751 205.138L330.875 205.084L335.41 203.707C335.487 203.684 335.572 203.669 335.657 203.669C336.029 203.669 336.361 203.916 336.47 204.272C336.539 204.489 336.516 204.721 336.408 204.922C336.299 205.123 336.121 205.27 335.905 205.332L332.755 206.291L334.009 207.01L334.156 206.948L336.702 206.175C336.779 206.152 336.864 206.136 336.949 206.136C337.321 206.136 337.654 206.384 337.762 206.74C337.832 206.956 337.808 207.188 337.7 207.389C337.592 207.59 337.414 207.737 337.197 207.799L336.013 208.155L338.164 209.4C338.273 209.462 338.342 209.563 338.381 209.679C338.412 209.795 338.396 209.919 338.335 210.027C338.249 210.166 338.102 210.259 337.94 210.259C337.863 210.259 337.777 210.236 337.708 210.197L335.557 208.952L335.835 210.159C335.889 210.383 335.851 210.607 335.727 210.801C335.603 210.994 335.417 211.125 335.193 211.18C335.131 211.195 335.061 211.203 334.999 211.203C334.605 211.203 334.257 210.932 334.171 210.545L333.568 207.946L333.545 207.799L332.291 207.08L333.042 210.282C333.15 210.739 332.864 211.203 332.407 211.303C332.345 211.319 332.276 211.327 332.214 211.327C331.819 211.327 331.479 211.056 331.386 210.669L330.31 206.067L330.287 205.92L325.443 203.119V208.712L325.551 208.797L329.01 212.03C329.18 212.185 329.273 212.394 329.281 212.626C329.281 212.85 329.204 213.067 329.049 213.237C328.886 213.407 328.662 213.508 328.43 213.508C328.213 213.508 328.004 213.423 327.849 213.276L325.443 211.025V212.471L325.551 212.556L327.509 214.39C327.671 214.544 327.772 214.753 327.78 214.985C327.78 215.21 327.702 215.426 327.548 215.596C327.385 215.767 327.161 215.867 326.929 215.867C326.712 215.867 326.503 215.782 326.348 215.635L325.443 214.792V217.283C325.443 217.538 325.234 217.739 324.986 217.739L325.002 217.731Z" fill="white"/>
<path d="M204.372 66.7009C203.993 66.7009 203.683 66.3915 203.683 66.0125V61.9592L202.174 63.367C201.927 63.5991 201.609 63.7228 201.277 63.7228C200.905 63.7228 200.565 63.5759 200.317 63.3051C200.077 63.0499 199.953 62.7173 199.961 62.3614C199.969 62.0134 200.124 61.6885 200.379 61.4487L203.482 58.548L203.683 58.3855V55.9721L199.791 59.6154C199.543 59.8475 199.226 59.9713 198.893 59.9713C198.522 59.9713 198.181 59.8243 197.934 59.5536C197.694 59.2983 197.57 58.9657 197.578 58.6099C197.586 58.2618 197.74 57.9369 197.996 57.6971L203.482 52.5609L203.683 52.3985V43.4101L195.899 47.9043L195.868 48.0822V48.1441L194.15 55.4771C194.011 56.0727 193.484 56.4904 192.873 56.4904C192.772 56.4904 192.672 56.4827 192.571 56.4595C191.867 56.297 191.426 55.5854 191.589 54.8815L192.803 49.6911L190.714 50.8978L190.675 51.1608L189.716 55.2837C189.577 55.8793 189.05 56.297 188.439 56.297C188.339 56.297 188.238 56.2893 188.137 56.2661C187.797 56.1887 187.503 55.9799 187.317 55.6782C187.131 55.3765 187.069 55.0284 187.155 54.6881L187.619 52.6769L184.106 54.7036C184.005 54.7654 183.881 54.7964 183.765 54.7964C183.518 54.7964 183.293 54.6649 183.169 54.456C183.077 54.2936 183.053 54.1157 183.1 53.9378C183.146 53.7599 183.262 53.6129 183.417 53.5201L186.93 51.4934L184.957 50.8978C184.261 50.689 183.874 49.9541 184.083 49.258C184.253 48.7088 184.763 48.322 185.336 48.322C185.468 48.322 185.591 48.3375 185.715 48.3761L189.778 49.606L189.855 49.637L190.018 49.6989L192.107 48.4922L187 46.9451C186.303 46.7363 185.916 46.0014 186.125 45.3053C186.296 44.7561 186.806 44.3693 187.379 44.3693C187.511 44.3693 187.634 44.3925 187.758 44.4234L194.947 46.6048L195.187 46.6976L202.971 42.2034L195.187 37.7093L194.962 37.7943L187.75 39.9834C187.627 40.0221 187.495 40.0376 187.371 40.0376C186.799 40.0376 186.28 39.6508 186.118 39.1016C185.909 38.4054 186.303 37.6706 186.992 37.4617L192.099 35.9147L190.01 34.708L189.847 34.7699L189.755 34.8085L185.7 36.0384C185.576 36.0771 185.444 36.0926 185.321 36.0926C184.748 36.0926 184.23 35.7058 184.067 35.1566C183.858 34.4605 184.253 33.7256 184.941 33.5168L186.915 32.9212L183.402 30.8945C183.239 30.8017 183.131 30.6547 183.084 30.4768C183.038 30.2989 183.061 30.1133 183.154 29.9586C183.278 29.7497 183.502 29.6105 183.75 29.6105C183.866 29.6105 183.99 29.6414 184.09 29.7033L187.603 31.7299L187.139 29.7188C187.062 29.3784 187.116 29.0226 187.302 28.7287C187.487 28.4347 187.774 28.2259 188.122 28.1408C188.222 28.1176 188.323 28.1098 188.424 28.1098C189.035 28.1098 189.561 28.5275 189.7 29.1232L190.66 33.2538L190.699 33.509L192.788 34.7157L191.573 29.5254C191.411 28.8215 191.852 28.1098 192.556 27.9474C192.656 27.9242 192.757 27.9087 192.858 27.9087C193.469 27.9087 193.995 28.3264 194.134 28.922L195.837 36.2396V36.3324L195.875 36.4948L203.66 40.989V32.0007L203.451 31.8382L197.972 26.7098C197.446 26.2147 197.415 25.3793 197.911 24.8533C198.158 24.5826 198.499 24.4356 198.87 24.4356C199.203 24.4356 199.52 24.5594 199.768 24.7914L203.66 28.4347V26.0213L203.451 25.8589L200.364 22.9659C200.108 22.7261 199.961 22.4012 199.946 22.0531C199.93 21.7051 200.062 21.3647 200.302 21.1095C200.549 20.8387 200.89 20.6917 201.261 20.6917C201.594 20.6917 201.911 20.8155 202.159 21.0476L203.668 22.4554V18.4021C203.668 18.0231 203.977 17.7137 204.356 17.7137C204.736 17.7137 205.045 18.0231 205.045 18.4021V22.4554L206.554 21.0476C206.802 20.8155 207.119 20.6917 207.452 20.6917C207.823 20.6917 208.164 20.8387 208.411 21.1095C208.906 21.6354 208.876 22.4709 208.349 22.9659L205.246 25.8666L205.045 26.0291V28.4425L208.937 24.7992C209.185 24.5671 209.502 24.4433 209.835 24.4433C210.206 24.4433 210.547 24.5903 210.795 24.861C211.034 25.1163 211.158 25.4489 211.151 25.8047C211.143 26.1528 210.988 26.4777 210.733 26.7175L205.246 31.8537L205.177 31.9078L205.045 32.0161V41.0045L212.83 36.5103L212.868 36.2473L214.571 28.9375C214.71 28.3419 215.236 27.9242 215.848 27.9242C215.948 27.9242 216.049 27.9397 216.149 27.9629C216.49 28.0402 216.784 28.2491 216.97 28.5507C217.155 28.8524 217.209 29.2005 217.132 29.5409L215.925 34.7389L218.014 33.5322L218.037 33.3621V33.2615L219.012 29.1386C219.152 28.543 219.678 28.1253 220.289 28.1253C220.39 28.1253 220.49 28.133 220.591 28.1562C221.295 28.3187 221.736 29.0303 221.574 29.7342L221.102 31.7454L224.615 29.7188C224.715 29.6569 224.839 29.6259 224.955 29.6259C225.203 29.6259 225.427 29.7574 225.551 29.974C225.644 30.1365 225.667 30.3221 225.621 30.4923C225.574 30.6702 225.458 30.8172 225.304 30.91L221.79 32.9366L223.764 33.5322C224.096 33.6328 224.375 33.8571 224.545 34.1665C224.708 34.4759 224.746 34.8318 224.646 35.1644C224.476 35.7213 223.973 36.1003 223.392 36.1003C223.261 36.1003 223.137 36.0849 223.013 36.0462L218.951 34.8163L218.711 34.7235L216.621 35.9302L221.729 37.4772C222.061 37.5778 222.34 37.8021 222.51 38.1115C222.673 38.4209 222.711 38.7767 222.611 39.1093C222.44 39.6585 221.93 40.0453 221.357 40.0453C221.226 40.0453 221.102 40.0298 220.978 39.9912L213.781 37.8098L213.704 37.7789L213.542 37.717L205.757 42.2112L213.542 46.7053L213.789 46.6048L220.97 44.4234C221.094 44.3848 221.226 44.3693 221.349 44.3693C221.922 44.3693 222.44 44.7561 222.603 45.3053C222.704 45.6379 222.673 45.9937 222.502 46.3031C222.34 46.6125 222.061 46.8368 221.721 46.9374L216.614 48.4844L218.703 49.6911L218.951 49.5906L223.005 48.3607C223.129 48.322 223.261 48.3065 223.385 48.3065C223.957 48.3065 224.476 48.6933 224.638 49.2425C224.739 49.5751 224.708 49.9309 224.538 50.2403C224.375 50.5497 224.096 50.7741 223.756 50.8746L221.783 51.4702L225.296 53.4969C225.458 53.5897 225.567 53.7367 225.613 53.9146C225.66 54.0925 225.636 54.2781 225.543 54.4328C225.42 54.6417 225.195 54.7732 224.948 54.7732C224.832 54.7732 224.708 54.7422 224.607 54.6804L221.094 52.6537L221.566 54.6649C221.729 55.3688 221.287 56.0804 220.583 56.2429C220.483 56.2661 220.382 56.2738 220.282 56.2738C219.67 56.2738 219.144 55.8561 219.005 55.2605L218.045 51.1299L218.007 50.8746L215.917 49.6679L217.124 54.8583C217.287 55.5622 216.846 56.2738 216.142 56.4363C216.041 56.4595 215.94 56.4672 215.84 56.4672C215.229 56.4672 214.702 56.0495 214.563 55.4539L212.861 48.1364L212.822 47.8811L205.037 43.3869V52.3753L205.169 52.4835L205.246 52.5454L210.725 57.6739C210.98 57.9137 211.127 58.2386 211.143 58.5866C211.158 58.9347 211.027 59.2751 210.787 59.5303C210.539 59.8011 210.199 59.9481 209.827 59.9481C209.495 59.9481 209.177 59.8243 208.93 59.5922L205.037 55.9489V58.3623L205.246 58.5325L208.342 61.4255C208.868 61.9205 208.899 62.7559 208.403 63.2819C208.156 63.5527 207.815 63.6996 207.444 63.6996C207.111 63.6996 206.786 63.5759 206.546 63.3438L205.037 61.936V65.9893C205.037 66.3683 204.728 66.6777 204.349 66.6777L204.372 66.7009Z" fill="white"/>
<path d="M65.3563 177.237C64.9539 177.237 64.6289 176.913 64.6289 176.51V172.55L63.1896 173.896C62.9342 174.128 62.6092 174.259 62.261 174.259C61.8819 174.259 61.5259 174.105 61.2705 173.826C61.0229 173.563 60.8914 173.215 60.9069 172.852C60.9223 172.488 61.0694 172.155 61.3325 171.908L64.4354 169.007L64.5051 168.953L64.6212 168.86V166.563L60.7985 170.144C60.5432 170.384 60.2182 170.508 59.8699 170.508C59.4908 170.508 59.1348 170.353 58.8795 170.075C58.6318 169.812 58.5003 169.463 58.5158 169.1C58.5312 168.736 58.6783 168.404 58.9414 168.156L64.4354 163.02L64.6289 162.873V153.97L56.914 158.418L56.883 158.634L55.1729 165.983C55.0259 166.601 54.4842 167.035 53.8497 167.035C53.7491 167.035 53.6407 167.019 53.5401 166.996C52.8128 166.826 52.3562 166.099 52.5264 165.364L53.7181 160.259L51.7294 161.403L51.6985 161.62L50.7312 165.782C50.5842 166.4 50.0425 166.833 49.408 166.833C49.3074 166.833 49.1991 166.818 49.0985 166.795C48.7425 166.71 48.4485 166.501 48.255 166.191C48.0615 165.882 47.9996 165.519 48.0848 165.17L48.5336 163.252L45.1056 165.232C44.9972 165.294 44.8657 165.333 44.7419 165.333C44.4788 165.333 44.2389 165.194 44.1074 164.969C44.0068 164.799 43.9835 164.606 44.0377 164.412C44.0919 164.227 44.208 164.064 44.3782 163.971L47.8062 161.991L45.9258 161.419C45.5776 161.311 45.2913 161.078 45.1211 160.761C44.9508 160.444 44.9121 160.073 45.0205 159.725C45.1907 159.16 45.7246 158.758 46.3205 158.758C46.452 158.758 46.5836 158.781 46.7151 158.82L50.7776 160.05L51.002 160.143L52.9907 158.99L47.9764 157.466C47.2568 157.25 46.8544 156.492 47.0711 155.772C47.2413 155.207 47.7752 154.805 48.3711 154.805C48.5026 154.805 48.6342 154.828 48.7657 154.867L55.9622 157.048L56.1866 157.141L63.9015 152.686L56.1866 148.238L55.9854 148.315L48.7657 150.512C48.6342 150.551 48.5026 150.574 48.3711 150.574C47.7752 150.574 47.2413 150.18 47.0711 149.607C46.9627 149.259 47.0014 148.896 47.1717 148.571C47.3419 148.253 47.6282 148.014 47.9764 147.913L52.9907 146.389L51.002 145.237L50.8008 145.314L46.7151 146.559C46.5836 146.598 46.452 146.621 46.3205 146.621C45.7169 146.621 45.1984 146.235 45.0205 145.654C44.9121 145.306 44.9508 144.943 45.1211 144.618C45.2913 144.301 45.5776 144.061 45.9258 143.96L47.8062 143.388L44.3782 141.408C44.03 141.207 43.9062 140.758 44.1074 140.41C44.2389 140.186 44.4788 140.046 44.7419 140.046C44.8657 140.046 44.9972 140.077 45.1056 140.147L48.5336 142.127L48.0848 140.209C47.9996 139.853 48.0615 139.489 48.255 139.188C48.4485 138.878 48.7425 138.662 49.0985 138.584C49.1991 138.561 49.3074 138.546 49.408 138.546C50.0425 138.546 50.5842 138.979 50.7235 139.598L51.6907 143.736V143.829L51.7217 143.976L53.7104 145.128L52.5187 140.023C52.3485 139.296 52.805 138.561 53.5324 138.391C53.633 138.368 53.7413 138.352 53.8419 138.352C54.4765 138.352 55.0181 138.786 55.1574 139.404L56.8675 146.73V146.822L56.8985 146.969L64.6134 151.417V142.514L64.4432 142.382L58.9336 137.231C58.6705 136.983 58.5158 136.651 58.508 136.287C58.4926 135.924 58.6241 135.583 58.8717 135.312C59.1271 135.034 59.483 134.887 59.8622 134.887C60.2104 134.887 60.5354 135.018 60.7908 135.251L64.6134 138.832V136.535L64.4432 136.403L61.3247 133.487C61.0616 133.239 60.9069 132.907 60.8991 132.543C60.8836 132.18 61.0152 131.839 61.2628 131.569C61.5259 131.29 61.8741 131.143 62.2533 131.143C62.6015 131.143 62.9265 131.275 63.1819 131.507L64.6212 132.853V128.892C64.6212 128.49 64.9462 128.165 65.3485 128.165C65.7509 128.165 66.0759 128.49 66.0759 128.892V132.853L67.5152 131.507C67.7706 131.267 68.0956 131.143 68.4438 131.143C68.823 131.143 69.1712 131.298 69.4343 131.569C69.6819 131.832 69.8134 132.18 69.798 132.543C69.7825 132.907 69.6355 133.239 69.3724 133.487L66.2694 136.388L66.0759 136.535V138.832L69.8986 135.251C70.1539 135.011 70.4789 134.887 70.8271 134.887C71.2063 134.887 71.5623 135.042 71.8176 135.312C72.3283 135.862 72.2974 136.72 71.7557 137.231L66.2616 142.367L66.0682 142.514V151.417L73.7831 146.969L73.8063 146.815V146.753L75.5242 139.404C75.6712 138.786 76.2129 138.352 76.8397 138.352C76.9403 138.352 77.0486 138.368 77.1492 138.391C77.5052 138.476 77.7992 138.685 77.9927 138.994C78.1861 139.304 78.2403 139.667 78.1629 140.015L76.9712 145.121L78.9599 143.976L78.9831 143.821V143.759L79.9581 139.598C80.1052 138.979 80.6468 138.546 81.2814 138.546C81.382 138.546 81.4903 138.561 81.5909 138.584C81.9468 138.67 82.2409 138.878 82.4343 139.188C82.6278 139.497 82.682 139.861 82.6046 140.209L82.1558 142.127L85.5838 140.147C85.6921 140.085 85.8237 140.046 85.9475 140.046C86.2106 140.046 86.4504 140.186 86.582 140.41C86.7832 140.758 86.6594 141.207 86.3112 141.408L82.8832 143.388L84.7635 143.96C85.1117 144.069 85.3981 144.301 85.5683 144.618C85.7385 144.935 85.7772 145.306 85.6689 145.654C85.4909 146.235 84.9725 146.621 84.3689 146.621C84.2373 146.621 84.1058 146.598 83.9742 146.559L79.9117 145.322L79.8266 145.283L79.6873 145.229L77.6986 146.374L82.7129 147.898C83.0611 148.006 83.3475 148.238 83.5177 148.555C83.6879 148.872 83.7266 149.244 83.6183 149.592C83.4403 150.164 82.9219 150.559 82.3183 150.559C82.1867 150.559 82.0552 150.535 81.9236 150.497L74.7272 148.315L74.642 148.277L74.5028 148.223L66.7878 152.67L74.5028 157.126L74.704 157.048L81.9236 154.852C82.0552 154.813 82.1867 154.79 82.3183 154.79C82.9141 154.79 83.4403 155.184 83.6183 155.757C83.8349 156.476 83.4326 157.234 82.7129 157.451L77.6986 158.975L79.6873 160.127L79.8885 160.05L83.9742 158.804C84.1058 158.766 84.2373 158.742 84.3689 158.742C84.9647 158.742 85.4909 159.137 85.6689 159.709C85.7772 160.057 85.7385 160.421 85.5683 160.746C85.3981 161.063 85.1117 161.303 84.7635 161.403L82.8754 161.976L86.3034 163.956C86.4737 164.057 86.5897 164.211 86.6439 164.397C86.6981 164.583 86.6671 164.784 86.5742 164.954C86.4427 165.178 86.2028 165.317 85.9397 165.317C85.8159 165.317 85.6844 165.286 85.576 165.217L82.148 163.237L82.5968 165.155C82.682 165.511 82.6201 165.874 82.4266 166.176C82.2332 166.485 81.9391 166.702 81.5832 166.779C81.4826 166.803 81.3742 166.818 81.2736 166.818C80.6391 166.818 80.0974 166.385 79.9504 165.766L78.9909 161.628L78.9754 161.535L78.9522 161.388L76.9635 160.243L78.1552 165.348C78.2403 165.704 78.1784 166.068 77.9849 166.369C77.7915 166.679 77.4974 166.895 77.1415 166.973C77.0409 166.996 76.9325 167.011 76.8319 167.011C76.1974 167.011 75.6557 166.578 75.5087 165.959L73.7986 158.634L73.7831 158.541L73.7599 158.394L66.045 153.947V162.85L66.2152 162.981L71.7248 168.133C72.2742 168.644 72.2974 169.502 71.7867 170.051C71.5313 170.33 71.1754 170.485 70.7962 170.485C70.448 170.485 70.123 170.353 69.8676 170.121L66.045 166.54V168.837L66.2152 168.968L69.3414 171.885C69.6045 172.132 69.7593 172.465 69.767 172.828C69.7825 173.192 69.6509 173.532 69.4033 173.803C69.148 174.081 68.792 174.236 68.4128 174.236C68.0646 174.236 67.7396 174.105 67.4843 173.873L66.045 172.527V176.487C66.045 176.889 65.72 177.214 65.3176 177.214L65.3563 177.237Z" fill="white"/>
<path d="M306.895 297.064H208.992V336.336H306.895V297.064Z" fill="#CE1B1B"/>
<path d="M306.902 295.184H208.999V300.877H306.902V295.184Z" fill="#AA0909"/>
<path d="M309.734 290.172H206.159V297.064H309.734V290.172Z" fill="#CE1B1B"/>
<g style="mix-blend-mode:overlay" opacity="0.44">
<path d="M220.018 297.064H208.992V336.336H220.018V297.064Z" fill="white"/>
</g>
<g style="mix-blend-mode:overlay" opacity="0.44">
<path d="M220.018 290.172H206.159V297.064H220.018V290.172Z" fill="white"/>
</g>
<path d="M306.894 297.064H286.597V336.336H306.894V297.064Z" fill="#AA0909"/>
<path d="M309.734 290.172H293.105V297.064H309.734V290.172Z" fill="#AA0909"/>
<path d="M241.229 290.172H235.943V336.343H241.229V290.172Z" fill="#F47F45"/>
<path d="M306.902 312.558H208.999V317.848H306.902V312.558Z" fill="#F47F45"/>
<path d="M215.081 268.621C201.331 284.796 236.114 290.172 236.114 290.172H240.509C240.509 290.172 225.133 256.794 215.081 268.621ZM217.79 270.965C223.183 262.835 236.787 287.387 236.787 287.387C236.787 287.387 212.396 279.087 217.79 270.965Z" fill="#F47F45"/>
<path d="M262.663 268.621C252.611 256.794 237.236 290.172 237.236 290.172H241.631C241.631 290.172 276.414 284.796 262.663 268.621ZM241.02 287.387C241.02 287.387 254.623 262.835 260.017 270.965C265.41 279.087 241.02 287.387 241.02 287.387Z" fill="#F47F45"/>
<path d="M109.348 291.758C107.034 289.267 107.181 285.368 109.673 283.055L156.527 239.599C160.582 235.832 160.822 229.473 157.061 225.412C153.292 221.351 146.932 221.119 142.869 224.879C140.378 227.192 136.478 227.045 134.164 224.554C131.85 222.063 131.997 218.165 134.489 215.852C143.527 207.474 157.695 208 166.084 217.035C174.464 226.07 173.938 240.233 164.9 248.618L118.045 292.075C115.554 294.387 111.654 294.241 109.34 291.75L109.348 291.758Z" fill="white"/>
<path d="M152.132 210.035L148.944 209.919C144.092 210.081 139.271 211.814 135.317 215.14L165.333 216.262C161.634 212.649 156.96 210.561 152.132 210.035Z" fill="#CE1B1B"/>
<path d="M169.829 222.519L132.57 221.119C132.724 222.357 133.251 223.564 134.164 224.554C136.477 227.045 140.37 227.192 142.869 224.879C146.924 221.112 153.292 221.351 157.061 225.412C157.75 226.155 158.299 226.967 158.717 227.834L171.701 228.321C171.353 226.333 170.726 224.376 169.829 222.519Z" fill="#CE1B1B"/>
<path d="M171.941 234.416L159.591 233.952C159.235 236.033 158.222 238.021 156.558 239.568L170.626 240.094C171.315 238.253 171.748 236.342 171.941 234.408V234.416Z" fill="#CE1B1B"/>
<path d="M164.907 248.626C165.774 247.821 166.563 246.963 167.275 246.058L150.259 245.423L144.316 250.931L161.719 251.581L164.907 248.626Z" fill="#CE1B1B"/>
<path d="M155.405 257.436L138.002 256.779L132.067 262.294L149.47 262.944L155.405 257.436Z" fill="#CE1B1B"/>
<path d="M143.155 268.792L125.752 268.142L119.817 273.649L137.22 274.299L143.155 268.792Z" fill="#CE1B1B"/>
<path d="M130.914 280.155L113.511 279.505L109.68 283.063C109.061 283.643 108.581 284.316 108.256 285.043L124.979 285.67L130.921 280.162L130.914 280.155Z" fill="#CE1B1B"/>
<g style="mix-blend-mode:multiply">
<path d="M166.091 217.043C165.728 216.648 165.348 216.269 164.954 215.906C172.228 224.956 171.361 238.261 162.717 246.274L115.863 289.731C113.774 291.665 110.709 291.881 108.411 290.435C108.659 290.907 108.968 291.348 109.348 291.757C111.661 294.248 115.554 294.395 118.053 292.082L164.907 248.626C173.946 240.249 174.472 226.078 166.091 217.043Z" fill="#F4EBEA"/>
<path d="M154.879 223.061C151.11 219 144.75 218.768 140.687 222.527C138.598 224.461 135.533 224.678 133.235 223.231C133.483 223.703 133.792 224.144 134.172 224.554C136.485 227.045 140.378 227.192 142.877 224.879C146.537 221.483 152.07 221.344 155.877 224.322C155.583 223.881 155.25 223.455 154.879 223.061Z" fill="#F4EBEA"/>
</g>
<g style="mix-blend-mode:overlay">
<path d="M159.638 230.827C160.079 233.975 159.034 237.278 156.535 239.599L109.68 283.055C108.783 283.891 108.187 284.927 107.908 286.033C109.03 285.832 110.114 285.322 111.011 284.486L157.866 241.03C162.896 236.366 159.646 230.827 159.646 230.827H159.638Z" fill="white"/>
</g>
<path d="M124.089 272.559H51.7759V337.349H124.089V272.559Z" fill="#F47F45"/>
<path d="M124.081 272.559H115.615V337.349H124.081V272.559Z" fill="#F26346"/>
<path d="M124.089 272.559H51.7759V278.731H124.089V272.559Z" fill="#F26346"/>
<g style="mix-blend-mode:overlay" opacity="0.44">
<path d="M71.0361 272.559H51.7759V337.349H71.0361V272.559Z" fill="white"/>
</g>
<path d="M129.714 262.557H46.1503V272.559H129.714V262.557Z" fill="#F47F45"/>
<path d="M129.714 262.557H113.039V272.559H129.714V262.557Z" fill="#F26346"/>
<g style="mix-blend-mode:overlay" opacity="0.44">
<path d="M64.7682 262.557H46.1503V272.559H64.7682V262.557Z" fill="white"/>
</g>
<path d="M55.5676 262.518H86.8142C84.3535 258.542 70.8659 237.603 54.6932 240.798C43.8289 242.94 46.0188 251.975 50.2051 258.481C51.4664 260.445 53.3855 261.853 55.5599 262.518H55.5676Z" fill="#CE1B1B"/>
<path d="M83.038 262.518H84.8797C82.2719 258.349 63.3986 236.915 54.1438 244.023C45.2449 250.861 75.1219 259.966 83.0303 262.518H83.038Z" fill="#930C0C"/>
<path d="M120.297 262.518H89.0505C91.5113 258.542 104.999 237.603 121.172 240.798C132.036 242.94 129.846 251.975 125.66 258.481C124.398 260.445 122.479 261.853 120.305 262.518H120.297Z" fill="#CE1B1B"/>
<path d="M92.819 262.518H90.9773C93.585 258.349 112.458 236.915 121.713 244.023C130.612 250.861 100.735 259.966 92.8267 262.518H92.819Z" fill="#930C0C"/>
<path d="M83.3089 262.518C81.5756 262.518 80.3761 260.693 81.15 259.146C82.3881 256.655 84.9649 254.946 87.9363 254.946C90.9078 254.946 93.4768 256.655 94.7227 259.146C95.4965 260.701 94.2971 262.518 92.5637 262.518H83.3089Z" fill="#930C0C"/>
<path d="M85.0499 262.557V272.559V301.806V308.218V337.349H91.4726V308.218V301.806V272.559V262.557H85.0499Z" fill="#CE1B1B"/>
<path d="M124.089 301.806H51.7759V308.218H124.089V301.806Z" fill="#CE1B1B"/>
<path d="M58.8099 322.606C50.3676 320.262 48.2396 326.373 48.2396 326.373C48.2396 326.373 44.7729 325.731 42.2657 325.723C41.9562 325.723 41.6622 325.731 41.3913 325.754C41.3681 325.576 41.3294 325.398 41.2907 325.205C41.2675 325.104 41.2443 324.996 41.2211 324.895C40.6562 322.459 39.2401 319.225 39.2401 319.225C39.2401 319.225 44.711 315.775 40.5246 308.079C40.5246 308.079 48.6187 307.359 47.489 298.711C47.489 298.711 57.0378 299.508 58.0438 292.918C58.0438 292.918 62.7254 294.047 66.9659 292.516C67.1748 292.438 67.3837 292.353 67.5926 292.268C67.8248 292.175 68.0415 292.067 68.2659 291.959C68.1498 292.415 68.0647 292.887 68.0105 293.343C67.4766 297.814 69.6278 302.13 69.6278 302.13C63.4218 304.59 66.3545 313.71 66.3545 313.71C57.6724 314.561 58.7944 322.606 58.7944 322.606H58.8099Z" fill="#047547"/>
<g style="mix-blend-mode:overlay" opacity="0.37">
<path d="M67.6004 292.276L67.7397 292.632L41.7473 325.313L41.2907 325.212C41.2675 325.112 41.2443 325.004 41.2211 324.903C40.6562 322.466 39.2401 319.233 39.2401 319.233C39.2401 319.233 44.711 315.783 40.5246 308.087C40.5246 308.087 48.6187 307.367 47.489 298.719C47.489 298.719 57.0378 299.516 58.0438 292.926C58.0438 292.926 62.7254 294.055 66.9659 292.523C67.1748 292.446 67.3837 292.361 67.5926 292.276H67.6004Z" fill="white"/>
</g>
<path d="M68.0182 293.343L67.7396 292.632L68.2736 291.959L68.0182 293.343Z" fill="#047547"/>
<path d="M31.4633 306.702C29.993 315.335 36.2919 316.835 36.2919 316.835C36.2919 316.835 36.0056 320.347 36.2532 322.838C36.2841 323.147 36.3228 323.433 36.3692 323.704C36.199 323.75 36.021 323.797 35.8353 323.859C35.7347 323.89 35.6341 323.921 35.5335 323.959C33.1657 324.771 30.0936 326.504 30.0936 326.504C30.0936 326.504 26.1007 321.414 18.8656 326.357C18.8656 326.357 17.3257 318.382 8.83695 320.386C8.83695 320.386 8.65897 310.809 1.99644 310.485C1.99644 310.485 2.6387 305.712 0.688694 301.651C0.595837 301.45 0.487503 301.249 0.379169 301.055C0.263097 300.839 0.131548 300.63 0 300.421C0.472026 300.491 0.944053 300.529 1.40834 300.537C5.91194 300.614 9.9822 298.031 9.9822 298.031C13.062 303.948 21.837 300.104 21.837 300.104C23.5704 308.651 31.4555 306.717 31.4555 306.717L31.4633 306.702Z" fill="#047547"/>
<g style="mix-blend-mode:overlay" opacity="0.37">
<path d="M0.37915 301.048L0.719628 300.877L35.8895 323.402L35.8353 323.866C35.7347 323.897 35.6341 323.928 35.5335 323.967C33.1656 324.779 30.0936 326.512 30.0936 326.512C30.0936 326.512 26.1007 321.422 18.8656 326.365C18.8656 326.365 17.3257 318.39 8.83693 320.393C8.83693 320.393 8.65896 310.817 1.99642 310.492C1.99642 310.492 2.63869 305.72 0.688676 301.659C0.595818 301.457 0.487484 301.256 0.37915 301.063V301.048Z" fill="white"/>
</g>
<path d="M1.40834 300.529L0.719647 300.877L0 300.413L1.40834 300.529Z" fill="#047547"/>
<path d="M49.733 310.732C41.6544 314.112 43.7591 320.231 43.7591 320.231C43.7591 320.231 40.6329 321.871 38.6674 323.418C38.4198 323.611 38.1954 323.797 38.002 323.982C37.8704 323.859 37.7389 323.743 37.5841 323.619C37.5067 323.549 37.4216 323.48 37.3365 323.418C35.3787 321.855 32.2757 320.192 32.2757 320.192C32.2757 320.192 34.4424 314.097 26.387 310.639C26.387 310.639 32.299 305.07 26.062 298.974C26.062 298.974 34.0555 293.699 30.7668 287.898C30.7668 287.898 35.1466 285.886 37.5299 282.065C37.646 281.88 37.7621 281.678 37.8704 281.485C37.9942 281.269 38.1026 281.052 38.2031 280.828C38.3966 281.261 38.621 281.678 38.8609 282.073C41.2133 285.917 45.5699 287.967 45.5699 287.967C42.2192 293.738 50.1663 299.091 50.1663 299.091C43.8752 305.132 49.733 310.755 49.733 310.755V310.732Z" fill="#047547"/>
<g style="mix-blend-mode:overlay" opacity="0.37">
<path d="M37.8626 281.462L38.1954 281.655L38.0096 323.41L37.5918 323.611C37.5144 323.542 37.4293 323.472 37.3442 323.41C35.3864 321.848 32.2834 320.184 32.2834 320.184C32.2834 320.184 34.4501 314.089 26.3947 310.631C26.3947 310.631 32.3066 305.062 26.0697 298.967C26.0697 298.967 34.0632 293.691 30.7745 287.89C30.7745 287.89 35.1543 285.879 37.5376 282.058C37.6537 281.872 37.7698 281.671 37.8781 281.477L37.8626 281.462Z" fill="white"/>
</g>
<path d="M38.8531 282.05L38.1876 281.663L38.1954 280.804L38.8531 282.05Z" fill="#047547"/>
<path d="M54.8131 333.122C55.551 328.096 52.0736 323.424 47.0461 322.686C42.0186 321.949 37.3448 325.425 36.6069 330.45C35.869 335.476 39.3464 340.148 44.3739 340.886C49.4014 341.623 54.0752 338.147 54.8131 333.122Z" fill="#CE1B1B"/>
<g style="mix-blend-mode:overlay" opacity="0.37">
<path d="M46.6842 335.33C44.5175 333.667 44.1151 330.565 45.7788 328.407C47.4425 326.241 50.5455 325.839 52.7044 327.502C54.8711 329.165 55.2735 332.267 53.6098 334.425C51.9461 336.591 48.8431 336.993 46.6842 335.33Z" fill="white"/>
</g>
<path d="M52.9985 337.403C53.2771 337.04 53.5325 336.653 53.7491 336.258C51.4045 338.416 47.7753 338.641 45.1598 336.63C42.2348 334.379 41.6854 330.186 43.9372 327.262C45.9491 324.648 49.5086 323.936 52.333 325.414C52.0235 325.089 51.683 324.787 51.3116 324.501C47.28 321.407 41.5074 322.165 38.4121 326.187C35.3169 330.209 36.0752 335.988 40.0991 339.082C44.1306 342.176 49.9033 341.418 52.9985 337.395V337.403Z" fill="#A50E0E"/>
<path d="M50.6925 332.236C50.1044 331.787 49.9961 330.952 50.4449 330.364C50.8937 329.776 51.7294 329.668 52.3175 330.117C52.9056 330.565 53.014 331.401 52.5651 331.988C52.1163 332.576 51.2806 332.685 50.6925 332.236Z" fill="#A50E0E"/>
<path d="M31.6877 329.289C27.6561 326.195 26.9055 320.424 30.0008 316.394C33.096 312.364 38.8687 311.614 42.9003 314.708C46.9318 317.802 47.6824 323.573 44.5872 327.603C41.4919 331.633 35.7193 332.383 31.6877 329.289Z" fill="#CE1B1B"/>
<g style="mix-blend-mode:overlay" opacity="0.37">
<path d="M38.2651 325.53C36.0984 323.866 35.696 320.765 37.3597 318.607C39.0234 316.441 42.1264 316.038 44.2854 317.701C46.452 319.365 46.8544 322.466 45.1907 324.625C43.527 326.79 40.424 327.193 38.2651 325.53Z" fill="white"/>
</g>
<path d="M44.5795 327.603C44.858 327.239 45.1134 326.852 45.3301 326.458C42.9854 328.616 39.3562 328.84 36.7407 326.829C33.8157 324.578 33.2663 320.386 35.5181 317.462C37.53 314.847 41.0896 314.136 43.914 315.613C43.6045 315.288 43.264 314.986 42.8925 314.7C38.861 311.606 33.0883 312.364 29.9931 316.386C26.8978 320.409 27.6562 326.187 31.68 329.281C35.7116 332.375 41.4842 331.617 44.5795 327.595V327.603Z" fill="#A50E0E"/>
<path d="M42.2734 322.435C41.6853 321.987 41.577 321.151 42.0258 320.564C42.4746 319.976 43.3104 319.867 43.8985 320.316C44.4866 320.765 44.5949 321.6 44.1461 322.188C43.6973 322.776 42.8615 322.884 42.2734 322.435Z" fill="#A50E0E"/>
<path d="M22.7501 338.455C18.7185 335.361 17.9679 329.591 21.0632 325.56C24.1584 321.53 29.9311 320.78 33.9626 323.874C37.9942 326.968 38.7448 332.739 35.6495 336.769C32.5543 340.799 26.7816 341.549 22.7501 338.455Z" fill="#CE1B1B"/>
<g style="mix-blend-mode:overlay" opacity="0.37">
<path d="M29.3353 334.688C27.1686 333.025 26.7662 329.923 28.4299 327.765C30.0936 325.599 33.1966 325.197 35.3556 326.86C37.5145 328.523 37.9246 331.625 36.2609 333.783C34.5972 335.949 31.4942 336.351 29.3353 334.688Z" fill="white"/>
</g>
<path d="M35.6494 336.769C35.928 336.405 36.1833 336.019 36.4 335.624C34.0554 337.782 30.4262 338.006 27.8107 335.995C24.8857 333.744 24.3363 329.552 26.588 326.628C28.6 324.013 32.1595 323.302 34.9839 324.779C34.6744 324.454 34.3339 324.153 33.9625 323.866C29.9309 320.772 24.1583 321.53 21.063 325.553C17.9678 329.575 18.7261 335.353 22.7499 338.447C26.7815 341.541 32.5542 340.783 35.6494 336.761V336.769Z" fill="#A50E0E"/>
<path d="M33.3358 331.594C32.7477 331.145 32.6394 330.31 33.0882 329.722C33.537 329.134 34.3727 329.026 34.9608 329.475C35.5489 329.923 35.6573 330.759 35.2085 331.346C34.7596 331.934 33.9239 332.043 33.3358 331.594Z" fill="#A50E0E"/>
<path d="M188.563 286.807H115.376V337.264H188.563V286.807Z" fill="white"/>
<path d="M188.563 286.807H178.163V337.264H188.563V286.807Z" fill="#EDE7E6"/>
<path d="M167.066 286.807H161.743V337.264H167.066V286.807Z" fill="#CE1B1B"/>
<path d="M188.563 309.378H115.376V314.7H188.563V309.378Z" fill="#CE1B1B"/>
<path d="M166.517 286.807C166.517 286.807 161.154 269.774 147.651 276.596C134.148 283.419 161.789 286.807 161.789 286.807H166.517Z" fill="#CE1B1B"/>
<path d="M162.276 286.807C162.276 286.807 167.639 269.774 181.142 276.596C194.645 283.419 167.004 286.807 167.004 286.807H162.276Z" fill="#CE1B1B"/>
<path d="M207.305 319.279C207.305 329.606 198.932 337.976 188.609 337.976C188.408 337.976 188.199 337.976 187.998 337.96C185.87 337.898 183.843 337.473 181.947 336.746C180.183 336.088 178.557 335.152 177.103 334C175.741 332.955 174.541 331.702 173.52 330.318C172.189 328.5 171.175 326.435 170.572 324.207C170.138 322.637 169.914 320.989 169.914 319.279C169.914 318.684 169.945 318.096 170.007 317.516C170.835 308.605 177.931 301.512 186.845 300.684C187.425 300.622 188.021 300.591 188.617 300.591C190.327 300.591 191.968 300.823 193.539 301.249C195.767 301.852 197.833 302.865 199.652 304.196C201.045 305.217 202.283 306.416 203.335 307.777C204.488 309.239 205.417 310.864 206.082 312.619C206.809 314.522 207.235 316.541 207.297 318.668C207.312 318.87 207.312 319.071 207.312 319.272L207.305 319.279Z" fill="#0EA865"/>
<path d="M188.872 330.147C188.687 330.147 188.54 330.001 188.54 329.815V328.02L187.89 328.631C187.774 328.74 187.627 328.794 187.472 328.794C187.302 328.794 187.139 328.724 187.023 328.6C186.915 328.484 186.853 328.322 186.861 328.16C186.861 327.997 186.938 327.842 187.054 327.734L188.455 326.419L188.486 326.396L188.54 326.349V325.305L186.806 326.93C186.69 327.038 186.543 327.092 186.389 327.092C186.218 327.092 186.056 327.022 185.94 326.899C185.824 326.783 185.769 326.62 185.777 326.458C185.777 326.295 185.855 326.141 185.971 326.032L188.455 323.704L188.486 323.681L188.54 323.634V319.604L185.05 321.623L185.034 321.732L184.261 325.042C184.199 325.321 183.951 325.514 183.665 325.514C183.618 325.514 183.572 325.514 183.525 325.499C183.193 325.421 182.991 325.089 183.069 324.764L183.611 322.451L182.705 322.969L182.69 323.077L182.256 324.949C182.194 325.228 181.947 325.421 181.661 325.421C181.614 325.421 181.568 325.421 181.521 325.406C181.359 325.367 181.227 325.274 181.142 325.135C181.057 324.996 181.026 324.833 181.065 324.671L181.266 323.805L179.711 324.702C179.664 324.733 179.602 324.748 179.548 324.748C179.432 324.748 179.324 324.686 179.262 324.586C179.215 324.508 179.208 324.423 179.231 324.338C179.254 324.253 179.308 324.184 179.386 324.137L180.941 323.24L180.09 322.985C179.935 322.938 179.803 322.83 179.726 322.683C179.649 322.536 179.633 322.374 179.68 322.211C179.757 321.956 179.997 321.778 180.268 321.778C180.33 321.778 180.391 321.786 180.446 321.801L182.287 322.358L182.388 322.397L183.293 321.878L181.026 321.19C180.871 321.144 180.74 321.035 180.662 320.888C180.585 320.741 180.569 320.579 180.616 320.424C180.693 320.169 180.933 319.991 181.204 319.991C181.266 319.991 181.328 319.999 181.382 320.014L184.64 321.004L184.74 321.043L188.23 319.024L184.74 317.005L184.64 317.044L181.382 318.034C181.32 318.05 181.266 318.057 181.204 318.057C180.933 318.057 180.693 317.879 180.616 317.624C180.569 317.469 180.585 317.299 180.662 317.16C180.74 317.013 180.871 316.912 181.026 316.858L183.293 316.17L182.388 315.652L182.295 315.69L180.446 316.255C180.391 316.27 180.33 316.278 180.268 316.278C179.997 316.278 179.757 316.1 179.68 315.845C179.633 315.69 179.649 315.52 179.726 315.373C179.803 315.226 179.935 315.126 180.09 315.072L180.941 314.816L179.386 313.919C179.308 313.873 179.254 313.803 179.231 313.718C179.208 313.633 179.223 313.54 179.262 313.47C179.324 313.37 179.432 313.308 179.548 313.308C179.602 313.308 179.664 313.323 179.711 313.354L181.266 314.252L181.065 313.385C181.026 313.223 181.057 313.06 181.142 312.921C181.227 312.782 181.366 312.681 181.521 312.65C181.568 312.643 181.614 312.635 181.661 312.635C181.947 312.635 182.194 312.828 182.256 313.107L182.69 314.979L182.705 315.087L183.611 315.605L183.069 313.292C182.991 312.96 183.2 312.635 183.525 312.558C183.572 312.55 183.618 312.542 183.665 312.542C183.951 312.542 184.199 312.735 184.261 313.014L185.034 316.332L185.05 316.441L188.54 318.46V314.429L188.462 314.368L185.971 312.032C185.855 311.923 185.785 311.769 185.777 311.606C185.777 311.444 185.831 311.289 185.94 311.165C186.056 311.041 186.218 310.972 186.389 310.972C186.543 310.972 186.69 311.034 186.806 311.134L188.54 312.759V311.714L188.462 311.653L187.046 310.33C186.93 310.214 186.861 310.067 186.853 309.904C186.853 309.742 186.907 309.587 187.015 309.463C187.131 309.34 187.294 309.27 187.464 309.27C187.619 309.27 187.766 309.332 187.882 309.433L188.532 310.044V308.249C188.532 308.063 188.679 307.916 188.865 307.916C189.05 307.916 189.197 308.063 189.197 308.249V310.044L189.847 309.433C189.964 309.324 190.111 309.27 190.265 309.27C190.436 309.27 190.598 309.34 190.714 309.463C190.822 309.579 190.884 309.742 190.877 309.904C190.877 310.067 190.799 310.222 190.683 310.33L189.283 311.645L189.197 311.714V312.759L190.931 311.134C191.047 311.026 191.194 310.972 191.349 310.972C191.519 310.972 191.681 311.041 191.797 311.165C191.914 311.281 191.968 311.444 191.96 311.606C191.96 311.769 191.883 311.923 191.767 312.032L189.283 314.36L189.197 314.429V318.46L192.687 316.441L192.703 316.34L193.477 313.014C193.539 312.735 193.786 312.542 194.073 312.542C194.119 312.542 194.165 312.542 194.212 312.558C194.545 312.635 194.746 312.968 194.668 313.292L194.127 315.605L195.032 315.087L195.048 314.986L195.489 313.099C195.55 312.821 195.798 312.627 196.084 312.627C196.131 312.627 196.177 312.627 196.224 312.643C196.386 312.681 196.518 312.774 196.603 312.913C196.688 313.053 196.719 313.215 196.68 313.377L196.479 314.244L198.034 313.347C198.089 313.316 198.143 313.3 198.197 313.3C198.313 313.3 198.421 313.362 198.483 313.463C198.53 313.54 198.537 313.625 198.514 313.71C198.491 313.795 198.437 313.865 198.359 313.911L196.804 314.809L197.655 315.064C197.81 315.11 197.942 315.218 198.019 315.365C198.096 315.512 198.112 315.675 198.065 315.837C197.988 316.093 197.748 316.27 197.477 316.27C197.415 316.27 197.353 316.263 197.299 316.247L195.458 315.69L195.357 315.652L194.452 316.17L196.719 316.858C196.874 316.905 197.005 317.013 197.083 317.16C197.16 317.307 197.175 317.469 197.129 317.624C197.052 317.879 196.812 318.057 196.541 318.057C196.479 318.057 196.417 318.05 196.363 318.034L193.105 317.044L193.005 317.005L189.515 319.024L193.005 321.043L193.097 321.004L196.371 320.014C196.433 319.999 196.487 319.991 196.549 319.991C196.82 319.991 197.059 320.169 197.137 320.424C197.183 320.579 197.168 320.749 197.09 320.888C197.013 321.035 196.881 321.136 196.727 321.19L194.459 321.878L195.365 322.397L195.473 322.35L197.307 321.793C197.369 321.778 197.423 321.77 197.485 321.77C197.756 321.77 197.996 321.948 198.073 322.203C198.12 322.358 198.104 322.528 198.027 322.675C197.949 322.822 197.818 322.923 197.663 322.977L196.812 323.232L198.367 324.129C198.445 324.176 198.499 324.245 198.522 324.331C198.545 324.416 198.53 324.508 198.491 324.578C198.429 324.679 198.321 324.741 198.205 324.741C198.151 324.741 198.089 324.725 198.042 324.694L196.487 323.797L196.688 324.663C196.727 324.826 196.696 324.988 196.611 325.127C196.525 325.267 196.386 325.367 196.231 325.398C196.185 325.406 196.139 325.414 196.092 325.414C195.806 325.414 195.558 325.22 195.496 324.942L195.063 323.07L195.048 322.961L194.142 322.443L194.684 324.756C194.761 325.089 194.552 325.414 194.227 325.491C194.181 325.499 194.134 325.506 194.088 325.506C193.802 325.506 193.554 325.313 193.492 325.034L192.718 321.716L192.703 321.608L189.213 319.589V323.619L189.29 323.681L191.782 326.017C191.898 326.133 191.968 326.28 191.975 326.442C191.975 326.605 191.921 326.759 191.813 326.883C191.697 327.007 191.534 327.077 191.364 327.077C191.209 327.077 191.062 327.015 190.946 326.914L189.213 325.29V326.334L189.29 326.396L190.706 327.719C190.822 327.827 190.892 327.982 190.9 328.144C190.9 328.306 190.846 328.461 190.737 328.585C190.621 328.709 190.459 328.778 190.289 328.778C190.134 328.778 189.987 328.716 189.871 328.616L189.221 328.005V329.799C189.221 329.985 189.074 330.132 188.888 330.132L188.872 330.147Z" fill="white"/>
<path d="M188.609 300.591C187.781 300.591 186.969 300.653 186.172 300.754C195.342 301.953 202.422 309.788 202.422 319.279C202.422 328.771 195.342 336.606 186.172 337.805C186.969 337.906 187.781 337.968 188.609 337.968C198.932 337.968 207.305 329.598 207.305 319.279C207.305 308.961 198.932 300.591 188.609 300.591Z" fill="#047547"/>
<path d="M182.806 294.148H194.421C195.914 294.148 197.129 295.362 197.129 296.855V302.896H180.097V296.855C180.097 295.362 181.312 294.148 182.806 294.148Z" fill="#F47F45"/>
<path d="M342.188 319.279C342.188 329.606 333.815 337.976 323.493 337.976C323.292 337.976 323.083 337.976 322.882 337.96C320.754 337.898 318.726 337.473 316.83 336.746C315.066 336.088 313.441 335.152 311.986 334C310.624 332.955 309.425 331.702 308.403 330.318C307.072 328.5 306.059 326.435 305.455 324.207C305.022 322.637 304.797 320.989 304.797 319.279C304.797 318.684 304.828 318.096 304.89 317.516C305.718 308.605 312.814 301.512 321.729 300.684C322.309 300.622 322.905 300.591 323.501 300.591C325.211 300.591 326.851 300.823 328.422 301.249C330.651 301.852 332.717 302.865 334.535 304.196C335.928 305.217 337.166 306.416 338.218 307.777C339.371 309.239 340.3 310.864 340.966 312.619C341.693 314.522 342.119 316.541 342.18 318.668C342.196 318.87 342.196 319.071 342.196 319.272L342.188 319.279Z" fill="#CE1B1B"/>
<path d="M323.756 330.147C323.57 330.147 323.423 330.001 323.423 329.815V328.02L322.773 328.631C322.657 328.74 322.51 328.794 322.355 328.794C322.185 328.794 322.023 328.724 321.906 328.6C321.798 328.484 321.736 328.322 321.744 328.16C321.744 327.997 321.821 327.842 321.937 327.734L323.338 326.419L323.369 326.396L323.423 326.349V325.305L321.69 326.93C321.574 327.038 321.427 327.092 321.272 327.092C321.102 327.092 320.939 327.022 320.823 326.899C320.707 326.783 320.653 326.62 320.661 326.458C320.661 326.295 320.738 326.141 320.854 326.032L323.338 323.704L323.369 323.681L323.423 323.634V319.604L319.933 321.623L319.918 321.732L319.144 325.042C319.082 325.321 318.834 325.514 318.548 325.514C318.502 325.514 318.455 325.514 318.409 325.499C318.076 325.421 317.875 325.089 317.952 324.764L318.494 322.451L317.589 322.969L317.573 323.077L317.14 324.949C317.078 325.228 316.83 325.421 316.544 325.421C316.498 325.421 316.451 325.421 316.405 325.406C316.242 325.367 316.111 325.274 316.025 325.135C315.94 324.996 315.909 324.833 315.948 324.671L316.149 323.805L314.594 324.702C314.548 324.733 314.486 324.748 314.431 324.748C314.315 324.748 314.207 324.686 314.145 324.586C314.099 324.508 314.091 324.423 314.114 324.338C314.137 324.253 314.192 324.184 314.269 324.137L315.824 323.24L314.973 322.985C314.818 322.938 314.687 322.83 314.609 322.683C314.532 322.536 314.517 322.374 314.563 322.211C314.64 321.956 314.88 321.778 315.151 321.778C315.213 321.778 315.275 321.786 315.329 321.801L317.171 322.358L317.271 322.397L318.177 321.878L315.909 321.19C315.755 321.144 315.623 321.035 315.546 320.888C315.468 320.741 315.453 320.579 315.499 320.424C315.577 320.169 315.817 319.991 316.087 319.991C316.149 319.991 316.211 319.999 316.265 320.014L319.523 321.004L319.624 321.043L323.114 319.024L319.624 317.005L319.523 317.044L316.265 318.034C316.203 318.05 316.149 318.057 316.087 318.057C315.817 318.057 315.577 317.879 315.499 317.624C315.453 317.469 315.468 317.299 315.546 317.16C315.623 317.013 315.755 316.912 315.909 316.858L318.177 316.17L317.271 315.652L317.178 315.69L315.329 316.255C315.275 316.27 315.213 316.278 315.151 316.278C314.88 316.278 314.64 316.1 314.563 315.845C314.517 315.69 314.532 315.52 314.609 315.373C314.687 315.226 314.818 315.126 314.973 315.072L315.824 314.816L314.269 313.919C314.192 313.873 314.137 313.803 314.114 313.718C314.091 313.633 314.106 313.54 314.145 313.47C314.207 313.37 314.315 313.308 314.431 313.308C314.486 313.308 314.548 313.323 314.594 313.354L316.149 314.252L315.948 313.385C315.909 313.223 315.94 313.06 316.025 312.921C316.111 312.782 316.25 312.681 316.405 312.65C316.451 312.643 316.498 312.635 316.544 312.635C316.83 312.635 317.078 312.828 317.14 313.107L317.573 314.979L317.589 315.087L318.494 315.605L317.952 313.292C317.875 312.96 318.084 312.635 318.409 312.558C318.455 312.55 318.502 312.542 318.548 312.542C318.834 312.542 319.082 312.735 319.144 313.014L319.918 316.332L319.933 316.441L323.423 318.46V314.429L323.346 314.368L320.854 312.032C320.738 311.923 320.668 311.769 320.661 311.606C320.661 311.444 320.715 311.289 320.823 311.165C320.939 311.041 321.102 310.972 321.272 310.972C321.427 310.972 321.574 311.034 321.69 311.134L323.423 312.759V311.714L323.346 311.653L321.93 310.33C321.814 310.214 321.744 310.067 321.736 309.904C321.736 309.742 321.79 309.587 321.899 309.463C322.015 309.34 322.177 309.27 322.348 309.27C322.502 309.27 322.657 309.332 322.765 309.433L323.415 310.044V308.249C323.415 308.063 323.562 307.916 323.748 307.916C323.934 307.916 324.081 308.063 324.081 308.249V310.044L324.731 309.433C324.847 309.324 324.994 309.27 325.149 309.27C325.319 309.27 325.481 309.34 325.598 309.463C325.706 309.579 325.768 309.742 325.76 309.904C325.76 310.067 325.683 310.222 325.567 310.33L324.166 311.645L324.081 311.714V312.759L325.814 311.134C325.93 311.026 326.077 310.972 326.232 310.972C326.402 310.972 326.565 311.041 326.681 311.165C326.797 311.281 326.851 311.444 326.843 311.606C326.843 311.769 326.766 311.923 326.65 312.032L324.166 314.36L324.081 314.429V318.46L327.571 316.441L327.586 316.34L328.36 313.014C328.422 312.735 328.67 312.542 328.956 312.542C329.002 312.542 329.049 312.542 329.095 312.558C329.428 312.635 329.629 312.968 329.552 313.292L329.01 315.605L329.915 315.087L329.931 314.986L330.372 313.099C330.434 312.821 330.682 312.627 330.968 312.627C331.014 312.627 331.061 312.627 331.107 312.643C331.27 312.681 331.401 312.774 331.486 312.913C331.571 313.053 331.602 313.215 331.564 313.377L331.362 314.244L332.918 313.347C332.972 313.316 333.026 313.3 333.08 313.3C333.196 313.3 333.305 313.362 333.367 313.463C333.413 313.54 333.421 313.625 333.398 313.71C333.374 313.795 333.32 313.865 333.243 313.911L331.688 314.809L332.539 315.064C332.693 315.11 332.825 315.218 332.902 315.365C332.98 315.512 332.995 315.675 332.949 315.837C332.871 316.093 332.632 316.27 332.361 316.27C332.299 316.27 332.237 316.263 332.183 316.247L330.341 315.69L330.24 315.652L329.335 316.17L331.602 316.858C331.757 316.905 331.889 317.013 331.966 317.16C332.043 317.307 332.059 317.469 332.012 317.624C331.935 317.879 331.695 318.057 331.424 318.057C331.362 318.057 331.301 318.05 331.246 318.034L327.989 317.044L327.888 317.005L324.398 319.024L327.888 321.043L327.981 321.004L331.254 320.014C331.316 319.999 331.37 319.991 331.432 319.991C331.703 319.991 331.943 320.169 332.02 320.424C332.067 320.579 332.051 320.749 331.974 320.888C331.896 321.035 331.765 321.136 331.61 321.19L329.343 321.878L330.248 322.397L330.357 322.35L332.19 321.793C332.252 321.778 332.307 321.77 332.368 321.77C332.639 321.77 332.879 321.948 332.957 322.203C333.003 322.358 332.987 322.528 332.91 322.675C332.833 322.822 332.701 322.923 332.546 322.977L331.695 323.232L333.251 324.129C333.328 324.176 333.382 324.245 333.405 324.331C333.429 324.416 333.413 324.508 333.374 324.578C333.313 324.679 333.204 324.741 333.088 324.741C333.034 324.741 332.972 324.725 332.926 324.694L331.37 323.797L331.571 324.663C331.61 324.826 331.579 324.988 331.494 325.127C331.409 325.267 331.27 325.367 331.115 325.398C331.068 325.406 331.022 325.414 330.976 325.414C330.689 325.414 330.442 325.22 330.38 324.942L329.946 323.07L329.931 322.961L329.026 322.443L329.567 324.756C329.645 325.089 329.436 325.414 329.111 325.491C329.064 325.499 329.018 325.506 328.971 325.506C328.685 325.506 328.437 325.313 328.376 325.034L327.602 321.716L327.586 321.608L324.096 319.589V323.619L324.174 323.681L326.665 326.017C326.789 326.133 326.851 326.28 326.859 326.442C326.859 326.605 326.805 326.759 326.696 326.883C326.58 327.007 326.418 327.077 326.248 327.077C326.093 327.077 325.946 327.015 325.83 326.914L324.096 325.29V326.334L324.174 326.396L325.59 327.719C325.706 327.827 325.776 327.982 325.783 328.144C325.783 328.306 325.729 328.461 325.621 328.585C325.505 328.709 325.342 328.778 325.172 328.778C325.017 328.778 324.87 328.716 324.754 328.616L324.104 328.005V329.799C324.104 329.985 323.957 330.132 323.771 330.132L323.756 330.147Z" fill="white"/>
<path d="M323.493 300.591C322.665 300.591 321.852 300.653 321.055 300.754C330.225 301.953 337.305 309.788 337.305 319.279C337.305 328.771 330.225 336.606 321.055 337.805C321.852 337.906 322.665 337.968 323.493 337.968C333.815 337.968 342.188 329.598 342.188 319.279C342.188 308.961 333.815 300.591 323.493 300.591Z" fill="#AA0909"/>
<path d="M317.681 294.148H329.296C330.79 294.148 332.005 295.362 332.005 296.855V302.896H314.973V296.855C314.973 295.362 316.188 294.148 317.681 294.148Z" fill="white"/>
<path d="M225.536 322.265C225.536 330.936 218.502 337.968 209.835 337.968C209.665 337.968 209.487 337.968 209.317 337.952C207.529 337.898 205.827 337.542 204.233 336.931C202.755 336.374 201.385 335.593 200.162 334.626C199.025 333.744 198.011 332.7 197.152 331.532C196.038 330.008 195.187 328.268 194.676 326.396C194.312 325.081 194.119 323.689 194.119 322.258C194.119 321.755 194.142 321.26 194.196 320.78C194.893 313.292 200.851 307.336 208.342 306.64C208.829 306.586 209.332 306.563 209.827 306.563C211.259 306.563 212.644 306.756 213.959 307.12C215.832 307.63 217.565 308.473 219.098 309.595C220.266 310.454 221.311 311.459 222.193 312.604C223.168 313.826 223.942 315.195 224.499 316.673C225.11 318.266 225.474 319.968 225.52 321.755C225.536 321.925 225.536 322.095 225.536 322.265Z" fill="white"/>
<path d="M209.835 306.57C209.139 306.57 208.458 306.617 207.784 306.71C215.484 307.715 221.435 314.298 221.435 322.265C221.435 330.233 215.484 336.823 207.784 337.821C208.458 337.906 209.139 337.96 209.835 337.96C218.51 337.96 225.536 330.929 225.536 322.265C225.536 313.602 218.502 306.57 209.835 306.57Z" fill="#F4EBEA"/>
<path d="M204.96 301.164H214.71C215.964 301.164 216.985 302.185 216.985 303.438V308.512H202.677V303.438C202.677 302.185 203.699 301.164 204.952 301.164H204.96Z" fill="#F47F45"/>
<path d="M209.061 314.252L211.537 318.707L216.536 319.674L213.062 323.402L213.681 328.453L209.061 326.303L204.449 328.453L205.068 323.402L201.594 319.674L206.593 318.707L209.061 314.252Z" fill="#F47F45"/>
<path d="M257.943 43.3096L263.244 53.667L274.866 53.0792L268.544 62.841L274.866 72.6106L263.244 72.015L257.943 82.3725L252.642 72.015L241.028 72.6106L247.35 62.841L241.028 53.0792L252.642 53.667L257.943 43.3096Z" fill="#F47F45"/>
<path d="M263.244 53.667L257.943 43.3096V62.841L263.244 53.667Z" fill="#F25E2A"/>
<path d="M257.943 62.841H268.544L274.866 53.0792L257.943 62.841Z" fill="#F25E2A"/>
<path d="M252.642 53.667L241.028 53.0792L257.943 62.841L252.642 53.667Z" fill="#F25E2A"/>
<path d="M257.943 62.841L263.244 72.015L274.866 72.6106L257.943 62.841Z" fill="#F25E2A"/>
<path d="M257.943 62.841L252.642 72.015L257.943 82.3725V62.841Z" fill="#F25E2A"/>
<path d="M247.35 62.841L241.028 72.6106L257.943 62.841H247.35Z" fill="#F25E2A"/>
<path d="M92.5946 188.237L98.9631 200.675L112.93 199.971L105.332 211.698L112.93 223.432L98.9631 222.728L92.5946 235.167L86.2338 222.728L72.2665 223.432L79.8653 211.698L72.2665 199.971L86.2338 200.675L92.5946 188.237Z" fill="#F47F45"/>
<path d="M98.9631 200.675L92.5946 188.237V211.698L98.9631 200.675Z" fill="#F25E2A"/>
<path d="M92.5946 211.698H105.332L112.93 199.971L92.5946 211.698Z" fill="#F25E2A"/>
<path d="M86.2338 200.675L72.2665 199.971L92.5946 211.698L86.2338 200.675Z" fill="#F25E2A"/>
<path d="M92.5946 211.698L98.9631 222.728L112.93 223.432L92.5946 211.698Z" fill="#F25E2A"/>
<path d="M92.5945 211.698L86.2338 222.728L92.5945 235.167V211.698Z" fill="#F25E2A"/>
<path d="M79.8653 211.698L72.2665 223.432L92.5946 211.698H79.8653Z" fill="#F25E2A"/>
<path d="M305.502 252.261L312.497 265.945L327.849 265.164L319.5 278.066L327.849 290.969L312.497 290.187L305.502 303.863L298.499 290.187L283.146 290.969L291.496 278.066L283.146 265.164L298.499 265.945L305.502 252.261Z" fill="#F47F45"/>
<path d="M312.497 265.945L305.502 252.261V278.066L312.497 265.945Z" fill="#F25E2A"/>
<path d="M305.502 278.066H319.5L327.849 265.164L305.502 278.066Z" fill="#F25E2A"/>
<path d="M298.499 265.945L283.146 265.164L305.502 278.066L298.499 265.945Z" fill="#F25E2A"/>
<path d="M305.502 278.066L312.497 290.187L327.849 290.969L305.502 278.066Z" fill="#F25E2A"/>
<path d="M305.502 278.066L298.499 290.187L305.502 303.863V278.066Z" fill="#F25E2A"/>
<path d="M291.496 278.066L283.146 290.969L305.502 278.066H291.496Z" fill="#F25E2A"/>
<path d="M41.0895 224.028C42.2177 224.028 43.1324 223.114 43.1324 221.986C43.1324 220.858 42.2177 219.944 41.0895 219.944C39.9613 219.944 39.0466 220.858 39.0466 221.986C39.0466 223.114 39.9613 224.028 41.0895 224.028Z" fill="white"/>
<path d="M18.556 110.467C19.5475 110.467 20.3512 109.663 20.3512 108.672C20.3512 107.681 19.5475 106.878 18.556 106.878C17.5645 106.878 16.7607 107.681 16.7607 108.672C16.7607 109.663 17.5645 110.467 18.556 110.467Z" fill="white"/>
<path d="M200.588 95.6307C201.464 95.6307 202.174 94.9207 202.174 94.045C202.174 93.1692 201.464 92.4592 200.588 92.4592C199.712 92.4592 199.002 93.1692 199.002 94.045C199.002 94.9207 199.712 95.6307 200.588 95.6307Z" fill="white"/>
<path d="M331.448 3.14824C331.448 4.02232 330.736 4.73396 329.861 4.73396C328.987 4.73396 328.275 4.02232 328.275 3.14824C328.275 2.27416 328.987 1.56252 329.861 1.56252C330.736 1.56252 331.448 2.27416 331.448 3.14824Z" fill="white"/>
<path d="M136.145 36.928C137.346 36.928 138.319 35.9548 138.319 34.7544C138.319 33.554 137.346 32.5808 136.145 32.5808C134.944 32.5808 133.97 33.554 133.97 34.7544C133.97 35.9548 134.944 36.928 136.145 36.928Z" fill="white"/>
<path d="M27.2846 40.8343C27.806 40.8343 28.2287 40.4118 28.2287 39.8906C28.2287 39.3694 27.806 38.9469 27.2846 38.9469C26.7632 38.9469 26.3406 39.3694 26.3406 39.8906C26.3406 40.4118 26.7632 40.8343 27.2846 40.8343Z" fill="white"/>
<path d="M61.1776 58.517C62.1093 58.517 62.8646 57.7621 62.8646 56.8308C62.8646 55.8994 62.1093 55.1445 61.1776 55.1445C60.246 55.1445 59.4907 55.8994 59.4907 56.8308C59.4907 57.7621 60.246 58.517 61.1776 58.517Z" fill="white"/>
<path d="M252.967 29.595C253.687 29.595 254.267 30.1751 254.267 30.8945C254.267 31.6139 253.687 32.194 252.967 32.194C252.248 32.194 251.667 31.6139 251.667 30.8945C251.667 30.1751 252.248 29.595 252.967 29.595Z" fill="white"/>
<path d="M101.741 139.992C102.737 139.992 103.544 139.185 103.544 138.19C103.544 137.195 102.737 136.388 101.741 136.388C100.745 136.388 99.938 137.195 99.938 138.19C99.938 139.185 100.745 139.992 101.741 139.992Z" fill="white"/>
<path d="M51.7603 192.368C53.286 192.368 54.5228 191.131 54.5228 189.606C54.5228 188.081 53.286 186.845 51.7603 186.845C50.2346 186.845 48.9978 188.081 48.9978 189.606C48.9978 191.131 50.2346 192.368 51.7603 192.368Z" fill="white"/>
<path d="M64.4742 98.9182C64.4742 99.8851 63.6849 100.674 62.7176 100.674C61.7504 100.674 60.9611 99.8851 60.9611 98.9182C60.9611 97.9513 61.7504 97.1623 62.7176 97.1623C63.6849 97.1623 64.4742 97.9513 64.4742 98.9182Z" fill="white"/>
<path d="M194.343 205.239C195.322 205.239 196.115 204.446 196.115 203.468C196.115 202.489 195.322 201.696 194.343 201.696C193.365 201.696 192.571 202.489 192.571 203.468C192.571 204.446 193.365 205.239 194.343 205.239Z" fill="white"/>
<path d="M182.14 268.211C182.14 269.093 181.428 269.805 180.546 269.805C179.664 269.805 178.952 269.093 178.952 268.211C178.952 267.33 179.664 266.618 180.546 266.618C181.428 266.618 182.14 267.33 182.14 268.211Z" fill="white"/>
<path d="M255.436 330.426C255.436 331.083 254.902 331.617 254.244 331.617C253.586 331.617 253.052 331.083 253.052 330.426C253.052 329.768 253.586 329.235 254.244 329.235C254.902 329.235 255.436 329.768 255.436 330.426Z" fill="white"/>
<path d="M91.9832 11.0614C92.5046 11.0614 92.9273 10.6389 92.9273 10.1177C92.9273 9.59649 92.5046 9.17399 91.9832 9.17399C91.4619 9.17399 91.0392 9.59649 91.0392 10.1177C91.0392 10.6389 91.4619 11.0614 91.9832 11.0614Z" fill="white"/>
<path d="M263.971 135.606C263.971 136.303 263.406 136.875 262.702 136.875C261.998 136.875 261.433 136.31 261.433 135.606C261.433 134.902 261.998 134.338 262.702 134.338C263.406 134.338 263.971 134.902 263.971 135.606Z" fill="white"/>
<path d="M136.833 198.308C138.146 198.308 139.209 197.245 139.209 195.933C139.209 194.622 138.146 193.559 136.833 193.559C135.521 193.559 134.458 194.622 134.458 195.933C134.458 197.245 135.521 198.308 136.833 198.308Z" fill="white"/>
<path d="M332.229 141.524C332.229 142.336 331.571 142.994 330.759 142.994C329.946 142.994 329.289 142.336 329.289 141.524C329.289 140.712 329.946 140.054 330.759 140.054C331.571 140.054 332.229 140.712 332.229 141.524Z" fill="white"/>
<path d="M334.783 242.128C334.783 242.554 334.435 242.902 334.009 242.902C333.583 242.902 333.235 242.554 333.235 242.128C333.235 241.703 333.583 241.355 334.009 241.355C334.435 241.355 334.783 241.703 334.783 242.128Z" fill="white"/>
<path d="M276.801 307.22C276.801 307.994 276.174 308.628 275.393 308.628C274.611 308.628 273.984 308.001 273.984 307.22C273.984 306.439 274.611 305.812 275.393 305.812C276.174 305.812 276.801 306.439 276.801 307.22Z" fill="white"/>
<path d="M253.393 242.77C254.312 242.77 255.057 242.026 255.057 241.107C255.057 240.189 254.312 239.444 253.393 239.444C252.474 239.444 251.729 240.189 251.729 241.107C251.729 242.026 252.474 242.77 253.393 242.77Z" fill="white"/>
<path d="M302.074 185.158C302.074 186.326 301.13 187.278 299.953 187.278C298.777 187.278 297.833 186.326 297.833 185.158C297.833 183.99 298.777 183.039 299.953 183.039C301.13 183.039 302.074 183.99 302.074 185.158Z" fill="white"/>
<path d="M204.612 130.447C205.488 130.447 206.198 129.737 206.198 128.861C206.198 127.985 205.488 127.276 204.612 127.276C203.736 127.276 203.025 127.985 203.025 128.861C203.025 129.737 203.736 130.447 204.612 130.447Z" fill="white"/>
<path d="M237.429 221.939C237.429 223.107 236.485 224.059 235.309 224.059C234.133 224.059 233.189 223.107 233.189 221.939C233.189 220.771 234.133 219.82 235.309 219.82C236.485 219.82 237.429 220.764 237.429 221.939Z" fill="white"/>
<path d="M229.258 176.038C230.177 176.038 230.921 175.294 230.921 174.375C230.921 173.457 230.177 172.712 229.258 172.712C228.339 172.712 227.594 173.457 227.594 174.375C227.594 175.294 228.339 176.038 229.258 176.038Z" fill="white"/>
<path d="M258.082 2.25095C258.082 2.8543 257.595 3.34162 256.991 3.34162C256.388 3.34162 255.9 2.8543 255.9 2.25095C255.9 1.6476 256.388 1.16028 256.991 1.16028C257.595 1.16028 258.082 1.6476 258.082 2.25095Z" fill="white"/>
<path d="M271.369 107.264C272.053 107.264 272.607 106.71 272.607 106.027C272.607 105.343 272.053 104.789 271.369 104.789C270.685 104.789 270.131 105.343 270.131 106.027C270.131 106.71 270.685 107.264 271.369 107.264Z" fill="white"/>
<path d="M156.001 141.864C156.001 143.171 154.941 144.231 153.633 144.231C152.325 144.231 151.265 143.171 151.265 141.864C151.265 140.557 152.325 139.497 153.633 139.497C154.941 139.497 156.001 140.557 156.001 141.864Z" fill="white"/>
<path d="M333.382 54.4947C333.382 54.9434 333.018 55.2992 332.577 55.2992C332.136 55.2992 331.773 54.9356 331.773 54.4947C331.773 54.0538 332.136 53.6903 332.577 53.6903C333.018 53.6903 333.382 54.0538 333.382 54.4947Z" fill="white"/>
<path d="M234.829 88.4833C234.829 89.6668 233.87 90.6337 232.678 90.6337C231.486 90.6337 230.527 89.6746 230.527 88.4833C230.527 87.2921 231.486 86.3329 232.678 86.3329C233.87 86.3329 234.829 87.2921 234.829 88.4833Z" fill="white"/>
<path d="M14.2923 267.539C14.2923 268.273 13.6965 268.861 12.9691 268.861C12.2417 268.861 11.6459 268.266 11.6459 267.539C11.6459 266.811 12.2417 266.216 12.9691 266.216C13.6965 266.216 14.2923 266.811 14.2923 267.539Z" fill="white"/>
<path d="M175.485 1.84872C175.485 2.86977 174.657 3.69744 173.636 3.69744C172.615 3.69744 171.787 2.86977 171.787 1.84872C171.787 0.82767 172.615 0 173.636 0C174.657 0 175.485 0.82767 175.485 1.84872Z" fill="white"/>
<path d="M104.62 175.861C104.62 176.882 103.792 177.709 102.77 177.709C101.749 177.709 100.921 176.882 100.921 175.861C100.921 174.839 101.749 174.012 102.77 174.012C103.792 174.012 104.62 174.839 104.62 175.861Z" fill="white"/>
<path d="M100.975 290.729C100.975 291.85 100.062 292.763 98.9398 292.763C97.8178 292.763 96.9047 291.85 96.9047 290.729C96.9047 289.607 97.8178 288.694 98.9398 288.694C100.062 288.694 100.975 289.607 100.975 290.729Z" fill="white"/>
</svg>
