<svg width="240" height="174" viewBox="0 0 240 174" fill="none" xmlns="http://www.w3.org/2000/svg">
<path d="M192.986 130.084C194.4 144.612 200.492 158.647 210.137 169.62C206.935 172.316 202.521 172.896 198.343 173.207C185.77 174.142 173.099 173.83 160.586 172.272C165.976 158.745 168.91 144.524 168.921 129.97C177.321 130.166 184.586 129.893 192.986 130.09V130.084Z" fill="#C47640"/>
<path d="M235.441 153.081C232.596 154.322 229.015 153.601 226.877 151.359C225.906 154.289 223.263 156.597 220.226 157.171C217.188 157.74 213.882 156.542 211.924 154.158C209.72 158.844 205.038 162.278 199.9 162.983C194.757 163.688 189.323 161.643 185.935 157.734C184.536 160.419 180.479 161.222 178.154 159.276C174.694 163.016 168.866 164.355 164.112 162.513C159.364 160.659 155.986 155.738 155.986 150.648C153.82 152.37 150.569 152.605 148.178 151.195C145.787 149.79 144.411 146.843 144.883 144.114C139.91 146.766 133.884 147.411 128.455 145.875C126.487 145.317 124.403 144.289 123.718 142.37C123.066 140.544 123.943 138.466 125.308 137.089C126.684 135.716 128.477 134.863 130.172 133.923C133.686 131.96 136.888 129.456 139.641 126.542C142.678 123.359 145.184 119.691 147.021 115.705L217.32 118.187C222.222 123.409 227.129 128.614 232.042 133.824C232.974 134.814 233.911 135.809 234.838 136.799C237.229 139.341 239.756 142.179 239.981 145.651C240.179 148.74 238.282 151.862 235.436 153.092L235.441 153.081Z" fill="#265E4B"/>
<g style="mix-blend-mode:multiply">
<path d="M232.042 133.813C227.047 135.743 221.119 135.322 216.574 132.457C214.49 137.067 208.02 139.013 203.727 136.323C200.032 139.948 193.479 140.117 189.608 136.684C185.013 140.686 178.686 142.638 172.627 141.933C166.568 141.222 160.866 137.87 157.324 132.928C152.422 134.666 146.38 131.993 144.4 127.192C142.816 126.968 141.231 126.755 139.641 126.531C142.678 123.348 145.184 119.68 147.021 115.694L217.32 118.176C222.222 123.398 227.129 128.603 232.042 133.813Z" fill="#66CCAA"/>
</g>
<path d="M230.369 123.879C229.925 126.859 226.772 128.838 223.751 129.007C220.73 129.177 217.819 127.974 215.033 126.798C214.479 129.352 212.456 131.533 209.95 132.293C207.445 133.059 204.555 132.364 202.663 130.555C201.485 132.518 199.335 133.857 197.054 134.065C194.779 134.278 192.421 133.343 190.902 131.626C186.949 136.416 180.539 139.068 174.354 138.455C168.164 137.848 162.385 134.01 159.451 128.543C157.258 129.691 154.533 129.756 152.296 128.696C150.059 127.646 148.37 125.508 147.865 123.091C145.212 123.611 142.448 124.141 139.849 123.398C137.25 122.66 134.92 120.237 135.26 117.564C135.605 114.835 138.336 113.184 140.628 111.648C144.033 109.357 146.999 106.448 149.412 103.146C152.033 99.5481 153.985 95.4638 155.092 91.1554L213.619 95.9176C214.924 101.484 217.517 106.733 221.076 111.2C222.435 112.9 223.96 114.6 225.627 116.06C226.109 116.492 226.608 116.886 227.118 117.274C229.202 118.805 230.786 121.085 230.369 123.873V123.879Z" fill="#265E4B"/>
<g style="mix-blend-mode:multiply">
<path d="M225.627 116.066C221.004 117.575 215.724 117.17 211.491 114.748C209.292 118.499 205.142 121.036 200.799 121.287C196.451 121.533 192.026 119.488 189.422 116.011C185.77 118.761 180.276 118.772 176.613 116.027C172.978 120.724 165.899 122.381 160.548 119.778C155.207 117.17 152.153 110.587 153.645 104.841C152.23 104.283 150.815 103.72 149.412 103.157C152.033 99.5591 153.985 95.4748 155.092 91.1664L213.619 95.9286C214.924 101.495 217.517 106.743 221.076 111.21C222.435 112.911 223.96 114.611 225.627 116.071V116.066Z" fill="#66CCAA"/>
</g>
<path d="M226.169 108.624C224.239 110.363 221.536 111.046 218.937 111.03C216.338 111.014 213.789 110.363 211.272 109.718C208.98 113.173 204.961 115.442 200.805 115.612C196.654 115.781 192.465 113.857 189.888 110.598C186.68 113.529 180.961 113.015 178.324 109.554C175.72 113.824 169.886 115.776 165.225 113.955C160.564 112.129 157.631 106.727 158.64 101.839C156.847 102.654 154.566 102.216 153.195 100.795C151.824 99.3787 151.473 97.0823 152.351 95.3272C149.362 95.7701 146.188 96.202 143.413 95.0155C140.639 93.8181 138.616 90.3572 140.069 87.7109C141.368 85.3598 144.466 84.8896 147.065 84.1788C147.855 83.9656 148.633 83.7031 149.384 83.3805C149.384 83.3805 149.384 83.386 149.39 83.3805C154.1 81.4888 158.113 77.8856 160.444 73.3749L210.861 74.2333C212.166 79.597 214.457 84.7092 217.55 89.2965C219.612 92.3528 222.03 95.185 224.76 97.6728C226.038 98.8319 227.42 99.9855 228.083 101.582C229.075 103.971 228.099 106.886 226.169 108.619V108.624Z" fill="#265E4B"/>
<g style="mix-blend-mode:multiply">
<path d="M217.555 89.3018C215.762 89.9251 213.641 89.6791 212.199 88.438C211.354 90.7781 209.216 92.5988 206.77 93.069C204.325 93.5447 201.665 92.648 200.004 90.8C198.365 93.9657 193.775 95.1467 190.804 93.1674C188.161 98.1866 182.118 101.183 176.515 100.275C170.905 99.3622 166.135 94.6054 165.225 89.0066C161.206 90.4172 156.255 87.8092 155.163 83.703C153.332 84.5232 151.144 84.3482 149.401 83.3914C154.111 81.4996 158.124 77.8965 160.455 73.3857L210.872 74.2441C212.177 79.6078 214.468 84.72 217.561 89.3073L217.555 89.3018Z" fill="#66CCAA"/>
</g>
<path d="M219.853 80.8928C217.024 82.205 213.728 82.0519 210.658 81.4778C210.241 83.9218 208.196 86.0214 205.756 86.497C203.31 86.9782 200.624 85.8081 199.313 83.6922C199.33 85.9776 197.586 88.1592 195.349 88.6567C193.106 89.1543 190.601 87.9131 189.647 85.83C188.418 90.6032 183.506 94.1462 178.576 93.8181C173.641 93.4901 169.25 89.3238 168.668 84.4358C166.738 86.0214 163.871 86.3604 161.634 85.2723C159.391 84.1788 157.889 81.7129 157.96 79.2306C155.322 79.6899 152.554 80.1492 150.004 79.3455C147.454 78.5417 145.217 76.0321 145.694 73.4022C145.985 71.7674 147.24 70.4497 148.644 69.5694C150.059 68.6946 151.649 68.1588 153.157 67.448C155.388 66.3819 157.406 64.8947 159.089 63.1013C161.573 60.4933 163.372 57.2619 164.178 53.7627L204.341 55.1679C206.847 59.0225 210.175 62.3413 214.035 64.8509C214.682 65.2719 215.351 65.6711 216.026 66.0483C217.693 66.9778 219.453 67.7597 220.982 68.886C222.518 70.0123 223.85 71.5596 224.234 73.4241C224.859 76.475 222.688 79.586 219.853 80.8983V80.8928Z" fill="#265E4B"/>
<g style="mix-blend-mode:multiply">
<path d="M214.03 64.8455C212.917 66.3928 211.409 67.6503 209.671 68.4322C206.88 69.6843 203.552 69.6733 200.772 68.4103C199.171 71.3683 195.919 73.353 192.564 73.4405C189.202 73.5225 185.863 71.6854 184.125 68.8204C183.555 69.9139 182.398 70.6903 181.159 70.7832C179.92 70.8817 178.653 70.2912 177.924 69.2961C176.142 72.418 171.761 73.4788 168.46 72.0463C165.154 70.6138 163.032 67.1418 162.61 63.577C161.458 64.0472 160.098 63.8121 159.089 63.1013C161.573 60.4933 163.372 57.2619 164.178 53.7627L204.341 55.1679C206.847 59.0225 210.175 62.3413 214.035 64.8509L214.03 64.8455Z" fill="#66CCAA"/>
</g>
<path d="M209.413 48.1311C206.578 45.0255 202.844 42.9095 199.511 40.3453C192.684 35.0964 187.475 27.7917 184.684 19.6614C184.421 18.896 183.341 18.9397 183.116 19.7161C181.488 25.2876 177.178 31.1761 173.225 34.8285C168.504 39.1916 162.774 42.2862 157.044 45.2114C155.849 45.8238 154.632 46.4416 153.678 47.3766C152.723 48.317 152.055 49.6456 152.235 50.9687C152.444 52.4505 153.678 53.626 155.065 54.1891C156.452 54.7523 157.987 54.8234 159.484 54.8835C158.322 56.4855 158.727 58.9951 160.334 60.1543C161.935 61.3134 164.452 60.9143 165.62 59.3177C166.031 61.1986 166.453 63.1013 167.347 64.8126C168.235 66.5185 169.666 68.0385 171.514 68.6017C174.563 69.5366 178.17 67.2129 178.571 64.0581C179.168 65.5836 180.764 66.6716 182.403 66.6716C184.048 66.6716 185.644 65.5945 186.247 64.069C187.174 66.9669 190.381 68.9461 193.397 68.4759C196.413 68.0057 198.858 65.1462 198.858 62.1062C200.684 64.2221 203.672 65.2828 206.43 64.7908C209.188 64.2987 211.623 62.2757 212.604 59.6622C214.079 55.731 212.248 51.2257 209.413 48.1256V48.1311Z" fill="#265E4B"/>
<path d="M205.109 44.2546C195.195 48.4099 183.834 48.4209 173.943 44.189C171.251 43.0353 168.69 41.5864 166.311 39.8805C165.91 39.5907 165.526 40.2578 165.921 40.5421C174.65 46.8025 185.688 49.3613 196.298 47.6007C199.395 47.0868 202.422 46.2065 205.312 44.9927C205.761 44.8068 205.564 44.0632 205.109 44.2546Z" fill="white"/>
<path d="M201.446 41.3458C196.599 45.2278 190.436 46.9665 184.366 47.7647C181.077 48.1967 177.759 48.388 174.447 48.5521C171.234 48.7106 168.016 48.7926 164.808 48.6341C161.145 48.4482 157.499 47.9288 153.985 46.8517C153.513 46.704 153.31 47.4476 153.782 47.5898C160.142 49.5417 166.864 49.6565 173.461 49.3667C180.035 49.077 186.784 48.727 193.073 46.6275C196.292 45.5504 199.341 44.014 201.994 41.8871C202.378 41.5809 201.835 41.0396 201.452 41.3458H201.446Z" fill="#F8A12E"/>
<path d="M212.884 63.9925C207.286 69.307 200.119 72.9047 192.514 74.2661C184.723 75.6603 176.537 74.5613 169.337 71.2917C167.308 70.3677 165.351 69.2742 163.509 68.0221C161.782 66.8521 159.884 65.5016 159.133 63.4731C158.963 63.0138 158.218 63.2107 158.393 63.6754C159.056 65.4578 160.449 66.7372 161.946 67.8472C163.602 69.0719 165.362 70.1545 167.193 71.1004C170.851 72.9867 174.798 74.3153 178.856 75.0206C186.806 76.4039 195.014 75.3268 202.356 71.997C206.436 70.149 210.192 67.6175 213.438 64.5393C213.794 64.2003 213.251 63.659 212.895 63.998L212.884 63.9925Z" fill="#F8A12E"/>
<path d="M214.49 64.8728C208.196 71.2918 200.042 75.8025 191.275 77.8146C182.338 79.8594 172.923 79.1268 164.359 75.89C159.495 74.0529 154.933 71.412 150.947 68.0823C150.569 67.7652 150.026 68.3065 150.404 68.6236C157.598 74.627 166.546 78.3996 175.862 79.4494C185.068 80.4827 194.455 78.6784 202.691 74.4739C207.258 72.1447 211.447 69.0774 215.039 65.4196C215.384 65.0642 214.841 64.5229 214.496 64.8783L214.49 64.8728Z" fill="white"/>
<path d="M216.289 87.1476C207.801 91.8771 198.271 94.5124 188.616 95.4146C183.813 95.8629 178.976 95.8957 174.168 95.5677C169.058 95.2123 163.849 94.496 159.117 92.4293C154.665 90.4883 150.656 87.2843 148.474 82.8829C148.255 82.44 147.591 82.8282 147.811 83.2711C149.774 87.2351 153.211 90.2915 157.104 92.3145C161.623 94.6655 166.711 95.6442 171.744 96.1308C181.592 97.0822 191.675 96.4917 201.26 93.9657C206.628 92.5496 211.826 90.5047 216.673 87.8037C217.106 87.5632 216.717 86.9016 216.283 87.1422L216.289 87.1476Z" fill="#F8A12E"/>
<path d="M224.102 96.8854C219.749 99.6465 214.677 100.942 209.594 101.511C204.232 102.112 198.759 102.107 193.381 101.697C182.979 100.904 172.633 98.1156 163.849 92.3692C159.358 89.4331 155.344 85.7534 152.192 81.4067C151.907 81.013 151.238 81.3903 151.528 81.7949C157.253 89.6791 165.614 95.3217 174.733 98.6241C180.046 100.549 185.616 101.697 191.231 102.271C196.769 102.84 202.4 102.905 207.944 102.435C213.717 101.948 219.546 100.685 224.492 97.547C224.908 97.2845 224.524 96.6175 224.102 96.8854Z" fill="white"/>
<path d="M222.15 112.359C214.052 118.477 204.122 122.003 194 122.627C188.917 122.938 183.791 122.528 178.839 121.347C173.565 120.09 168.564 117.919 163.871 115.235C158.371 112.085 153.288 108.269 148.364 104.305C147.981 103.999 147.438 104.535 147.822 104.846C152.252 108.416 156.803 111.867 161.672 114.83C166.42 117.717 171.498 120.139 176.865 121.632C181.811 123.004 186.971 123.611 192.097 123.48C197.23 123.348 202.356 122.485 207.242 120.915C212.127 119.346 216.793 117.077 220.999 114.147C221.52 113.786 222.03 113.408 222.54 113.026C222.929 112.73 222.545 112.063 222.15 112.364V112.359Z" fill="#F8A12E"/>
<path d="M223.938 114.185C213.652 119.499 202.302 122.725 190.754 123.638C179.377 124.535 167.868 123.141 157.017 119.609C150.925 117.624 145.058 114.967 139.553 111.703C139.125 111.451 138.742 112.113 139.164 112.364C144.115 115.3 149.357 117.75 154.791 119.663C160.219 121.577 165.834 122.96 171.53 123.78C177.266 124.606 183.072 124.868 188.857 124.54C194.647 124.212 200.404 123.31 206.019 121.856C211.661 120.396 217.155 118.373 222.392 115.825C223.039 115.508 223.686 115.185 224.322 114.857C224.76 114.628 224.371 113.966 223.932 114.196L223.938 114.185Z" fill="white"/>
<path d="M230.446 131.954C225.15 135.59 219.365 138.494 213.284 140.577C207.209 142.66 200.854 143.945 194.444 144.355C188.111 144.759 181.74 144.306 175.533 142.999C169.469 141.719 163.58 139.653 158.048 136.87C152.515 134.092 147.339 130.604 142.711 126.492C142.141 125.984 141.576 125.464 141.023 124.939C140.666 124.601 140.118 125.142 140.48 125.481C145.02 129.784 150.124 133.48 155.624 136.465C161.124 139.45 167.012 141.73 173.093 143.223C179.262 144.732 185.633 145.421 191.982 145.235C198.474 145.044 204.939 143.972 211.146 142.075C217.353 140.178 223.313 137.455 228.779 133.972C229.47 133.529 230.156 133.075 230.83 132.61C231.236 132.332 230.852 131.67 230.441 131.949L230.446 131.954Z" fill="#F8A12E"/>
<path d="M228.555 130.265C222.869 133.07 216.941 135.361 210.85 137.116C204.763 138.871 198.518 140.09 192.213 140.746C185.902 141.402 179.541 141.49 173.214 141.014C166.892 140.538 160.619 139.494 154.484 137.909C148.348 136.328 142.349 134.207 136.592 131.561C135.874 131.233 135.161 130.894 134.454 130.549C134.01 130.336 133.62 130.998 134.065 131.211C139.794 133.994 145.771 136.274 151.907 138.007C158.069 139.746 164.391 140.938 170.763 141.566C177.134 142.195 183.56 142.25 189.937 141.719C196.292 141.195 202.603 140.112 208.766 138.483C214.956 136.848 220.999 134.655 226.8 131.949C227.513 131.615 228.226 131.271 228.933 130.927C229.377 130.708 228.988 130.046 228.544 130.265H228.555Z" fill="white"/>
<path d="M145.415 139.018C144.4 141.883 140.886 143.524 137.661 142.392C134.443 141.26 132.743 137.777 133.752 134.912C134.766 132.047 138.199 130.648 141.417 131.779C144.636 132.911 146.423 136.153 145.409 139.013L145.415 139.018Z" fill="#BD212E"/>
<g style="mix-blend-mode:multiply">
<path d="M145.365 135.552C145.343 135.629 145.321 135.711 145.294 135.787C144.28 138.652 140.765 140.292 137.541 139.161C135.616 138.483 134.24 136.963 133.659 135.246C132.88 138.04 134.569 141.304 137.661 142.392C140.88 143.524 144.4 141.883 145.415 139.018C145.82 137.87 145.771 136.662 145.365 135.552Z" fill="#DE6872"/>
</g>
<path d="M231.625 140.774C232.212 143.753 230.024 146.952 226.674 147.608C223.324 148.264 220.083 146.132 219.496 143.152C218.91 140.172 221.147 137.225 224.497 136.569C227.847 135.913 231.038 137.794 231.625 140.774Z" fill="#BD212E"/>
<g style="mix-blend-mode:multiply">
<path d="M229.816 137.816C229.838 137.898 229.859 137.974 229.876 138.056C230.463 141.036 228.275 144.235 224.925 144.891C222.923 145.284 220.966 144.672 219.584 143.486C220.341 146.285 223.455 148.242 226.679 147.608C230.029 146.952 232.217 143.748 231.631 140.774C231.395 139.576 230.737 138.565 229.816 137.816Z" fill="#DE6872"/>
</g>
<path d="M216.097 120.522C216.448 122.31 215.132 124.234 213.12 124.628C211.107 125.021 209.155 123.737 208.804 121.949C208.454 120.161 209.797 118.389 211.809 117.99C213.821 117.596 215.741 118.728 216.091 120.516L216.097 120.522Z" fill="#BD212E"/>
<g style="mix-blend-mode:multiply">
<path d="M215.006 118.739C215.017 118.788 215.033 118.832 215.044 118.881C215.395 120.669 214.079 122.594 212.067 122.993C210.866 123.228 209.687 122.862 208.854 122.151C209.309 123.835 211.179 125.011 213.12 124.628C215.132 124.234 216.448 122.31 216.097 120.522C215.954 119.805 215.56 119.193 215.006 118.745V118.739Z" fill="#DE6872"/>
</g>
<path d="M200.964 46.2228C201.315 48.0107 199.999 49.9353 197.986 50.3345C195.974 50.7281 194.022 49.4432 193.671 47.6553C193.32 45.8675 194.664 44.096 196.676 43.6968C198.688 43.3032 200.607 44.4349 200.958 46.2228H200.964Z" fill="#BD212E"/>
<g style="mix-blend-mode:multiply">
<path d="M199.872 44.4459C199.883 44.4951 199.9 44.5389 199.911 44.5881C200.262 46.376 198.946 48.3006 196.934 48.6997C195.733 48.9348 194.554 48.5685 193.72 47.8577C194.176 49.5417 196.045 50.7172 197.986 50.3345C199.999 49.9408 201.315 48.0162 200.964 46.2229C200.821 45.5066 200.426 44.8943 199.872 44.4459Z" fill="#DE6872"/>
</g>
<path d="M189.323 80.5646C189.619 82.3634 188.248 84.2497 186.225 84.5833C184.202 84.9168 182.294 83.5772 181.992 81.7784C181.696 79.9796 183.094 78.2464 185.118 77.9128C187.141 77.5793 189.027 78.7658 189.323 80.5701V80.5646Z" fill="#BD212E"/>
<g style="mix-blend-mode:multiply">
<path d="M188.287 78.7549C188.298 78.8041 188.309 78.8478 188.32 78.897C188.616 80.6958 187.245 82.5822 185.222 82.9157C184.01 83.118 182.848 82.7134 182.036 81.9753C182.442 83.6702 184.273 84.9004 186.225 84.5778C188.248 84.2443 189.625 82.358 189.323 80.5592C189.202 79.8374 188.824 79.2141 188.287 78.7494V78.7549Z" fill="#DE6872"/>
</g>
<path d="M166.557 98.3233C165.647 100.609 162.752 101.833 160.18 100.816C157.609 99.7995 156.342 96.9291 157.253 94.6436C158.163 92.3582 160.981 91.3303 163.553 92.3472C166.124 93.3642 167.467 96.0378 166.557 98.3233Z" fill="#BD212E"/>
<g style="mix-blend-mode:multiply">
<path d="M166.623 95.5184C166.601 95.584 166.585 95.6442 166.557 95.7098C165.647 97.9952 162.752 99.2199 160.18 98.203C158.645 97.5961 157.582 96.3276 157.159 94.9115C156.447 97.1477 157.708 99.8378 160.175 100.816C162.747 101.833 165.642 100.609 166.552 98.3233C166.919 97.4047 166.914 96.426 166.618 95.5184H166.623Z" fill="#DE6872"/>
</g>
<path d="M173.981 146.34C173.751 148.565 171.514 150.347 169.008 150.085C166.508 149.822 164.688 147.619 164.918 145.394C165.148 143.168 167.369 141.577 169.869 141.834C172.369 142.097 174.212 144.109 173.976 146.334L173.981 146.34Z" fill="#FFC036"/>
<g style="mix-blend-mode:multiply">
<path d="M173.351 143.863C173.351 143.923 173.351 143.983 173.34 144.043C173.11 146.269 170.872 148.051 168.367 147.788C166.87 147.635 165.625 146.782 164.907 145.645C164.83 147.783 166.601 149.828 169.008 150.079C171.509 150.342 173.746 148.559 173.981 146.334C174.075 145.443 173.828 144.584 173.345 143.857L173.351 143.863Z" fill="#FFD475"/>
</g>
<path d="M177.266 125.519C177.035 127.744 174.798 129.527 172.293 129.264C169.792 129.002 167.972 126.798 168.202 124.573C168.432 122.348 170.653 120.757 173.153 121.014C175.654 121.276 177.496 123.288 177.26 125.514L177.266 125.519Z" fill="#FFC036"/>
<g style="mix-blend-mode:multiply">
<path d="M176.63 123.042C176.63 123.102 176.63 123.162 176.619 123.223C176.388 125.448 174.151 127.23 171.646 126.968C170.149 126.815 168.904 125.962 168.186 124.825C168.109 126.962 169.88 129.007 172.287 129.259C174.787 129.521 177.024 127.739 177.26 125.514C177.353 124.622 177.107 123.764 176.624 123.037L176.63 123.042Z" fill="#FFD475"/>
</g>
<path d="M210.098 73.7576C209.868 75.9829 207.631 77.7653 205.125 77.5029C202.625 77.2404 200.805 75.037 201.035 72.8117C201.265 70.5864 203.486 68.9953 205.986 69.2523C208.486 69.5148 210.329 71.5268 210.093 73.7521L210.098 73.7576Z" fill="#FFC036"/>
<g style="mix-blend-mode:multiply">
<path d="M209.462 71.2807C209.462 71.3409 209.462 71.401 209.451 71.4612C209.221 73.6865 206.984 75.4689 204.478 75.2065C202.981 75.0534 201.737 74.2004 201.018 73.0632C200.942 75.201 202.713 77.2459 205.12 77.4974C207.62 77.7598 209.857 75.9774 210.093 73.7521C210.186 72.8609 209.939 72.0025 209.457 71.2753L209.462 71.2807Z" fill="#FFD475"/>
</g>
<path d="M165.779 74.944C164.962 77.0272 162.33 78.1535 159.989 77.2404C157.647 76.3273 156.474 73.7193 157.291 71.6361C158.108 69.553 160.668 68.6016 163.01 69.5147C165.351 70.4278 166.59 72.8554 165.773 74.9385L165.779 74.944Z" fill="#FFC036"/>
<g style="mix-blend-mode:multiply">
<path d="M165.823 72.3907C165.801 72.4508 165.79 72.5055 165.768 72.5656C164.951 74.6488 162.319 75.7751 159.978 74.862C158.579 74.3153 157.603 73.1671 157.214 71.8822C156.573 73.9216 157.735 76.3656 159.989 77.2404C162.33 78.1535 164.962 77.0272 165.779 74.944C166.108 74.1075 166.097 73.2163 165.823 72.3907Z" fill="#FFD475"/>
</g>
<path d="M211.025 96.9455C210.795 99.1708 208.558 100.953 206.052 100.691C203.552 100.428 201.731 98.2249 201.962 95.9996C202.192 93.7743 204.412 92.1832 206.913 92.4402C209.413 92.7026 211.255 94.7147 211.02 96.94L211.025 96.9455Z" fill="#FFC036"/>
<g style="mix-blend-mode:multiply">
<path d="M210.389 94.4686C210.389 94.5287 210.389 94.5889 210.378 94.649C210.148 96.8743 207.911 98.6568 205.405 98.3943C203.908 98.2412 202.663 97.3883 201.945 96.251C201.868 98.3888 203.639 100.434 206.046 100.685C208.547 100.948 210.784 99.1652 211.02 96.9399C211.113 96.0487 210.866 95.1903 210.384 94.4631L210.389 94.4686Z" fill="#FFD475"/>
</g>
<path d="M188.002 51.5373C187.771 53.7626 185.534 55.545 183.028 55.2826C180.523 55.0201 178.708 52.8167 178.938 50.5914C179.168 48.3661 181.389 46.775 183.889 47.032C186.39 47.2944 188.232 49.3065 187.996 51.5318L188.002 51.5373Z" fill="#FFC036"/>
<g style="mix-blend-mode:multiply">
<path d="M187.371 49.0604C187.371 49.1205 187.371 49.1807 187.36 49.2408C187.13 51.4661 184.893 53.2486 182.387 52.9861C180.89 52.833 179.645 51.9801 178.927 50.8428C178.85 52.9806 180.621 55.0255 183.028 55.277C185.529 55.5395 187.766 53.757 188.002 51.5317C188.095 50.6405 187.848 49.7821 187.366 49.0549L187.371 49.0604Z" fill="#FFD475"/>
</g>
<path d="M182.168 18.4148C180.885 21.4329 179.596 24.451 178.313 27.4691C178.154 27.8409 177.995 28.2291 178.022 28.6337C178.055 29.1312 178.379 29.5741 178.785 29.8639C179.19 30.1536 179.673 30.3122 180.155 30.4489C183.149 31.3018 186.34 31.4495 189.394 30.8754C189.904 30.7769 190.469 30.6293 190.743 30.1864C191.127 29.5631 190.732 28.7703 190.359 28.1416C188.879 25.6101 187.771 22.8599 187.081 20.0113C186.905 19.2786 186.746 18.5241 186.351 17.8844C185.107 15.8723 182.985 16.4956 182.168 18.4148Z" fill="#F8A12E"/>
<path d="M184.065 20.6674L176.449 23.3684L176.674 15.3147L171.744 8.92308L179.497 6.64857L184.065 0L188.632 6.64857L196.385 8.92308L191.456 15.3147L191.681 23.3684L184.065 20.6674Z" fill="#F8A12E"/>
<path d="M223.713 113.545C222.342 113.671 221.054 114.469 220.341 115.639C219.129 117.624 219.524 120.478 217.78 122.025C216.651 123.026 214.995 123.108 213.487 123.02C211.979 122.933 210.4 122.736 209.018 123.338C207.9 123.824 207.05 124.776 205.97 125.344C203.93 126.416 201.468 125.957 199.171 126.121C198.058 126.197 196.906 126.449 196.034 127.148C195.163 127.848 194.664 129.095 195.091 130.123C195.503 131.101 196.632 131.626 197.696 131.637C198.759 131.643 199.779 131.233 200.75 130.801C201.726 130.369 202.707 129.91 203.771 129.811C206.31 129.576 208.744 131.451 211.25 131.003C213.624 130.577 215.154 128.253 217.32 127.187C219.294 126.213 221.624 126.367 223.795 126.711C225.967 127.05 228.171 127.559 230.347 127.225C232.524 126.886 234.712 125.443 235.107 123.288C235.392 121.736 234.69 120.134 233.632 118.963C232.19 117.367 230.183 116.41 228.368 115.317C226.921 114.447 225.489 113.397 223.702 113.545H223.713Z" fill="white"/>
<path d="M157.094 74.5777C159.254 76.8522 162.577 77.5684 165.702 77.8637C168.827 78.1589 172.079 78.1698 174.935 79.4657C176.027 79.9577 177.178 80.9692 176.876 82.1229C176.657 82.9594 175.774 83.4133 174.985 83.7686C173.57 84.3974 172.156 85.0317 170.735 85.6604C169.282 86.3111 167.731 86.9726 166.152 86.7485C164.117 86.4587 162.599 84.7801 161.354 83.1508C160.109 81.5215 158.837 79.7336 156.907 79.0228C154.341 78.0769 151.397 79.3399 148.77 78.5909C146.347 77.8965 144.603 75.3541 144.833 72.8499C145.069 70.2965 147.849 67.2238 150.629 67.8799C153.886 68.6508 155.043 72.418 157.094 74.5831V74.5777Z" fill="white"/>
<path d="M212.445 52.2645C212.73 53.2268 212.824 54.4078 212.089 55.0913C211.71 55.4412 211.19 55.5833 210.729 55.8184C208.152 57.158 208.146 61.1493 205.723 62.7459C204.243 63.7191 202.269 63.5004 200.596 62.9099C198.924 62.3194 197.361 61.4008 195.623 61.04C194.055 60.7119 192.383 60.8705 190.902 61.4829C189.668 61.9968 188.561 62.8115 187.272 63.145C185.978 63.4785 184.344 63.1341 183.813 61.9093C183.346 60.8322 183.939 59.5801 184.728 58.7163C185.792 57.5517 187.25 56.7479 188.808 56.4636C190.283 56.1957 191.807 56.3925 193.293 56.1848C194.779 55.977 196.347 55.2061 196.807 53.7845C197.054 53.0191 196.939 52.188 196.977 51.3843C197.016 50.5805 197.274 49.6893 197.986 49.3066C198.814 48.8637 199.999 49.2519 200.668 48.5903C201.128 48.1365 201.106 47.3875 200.947 46.7642C200.788 46.1408 200.519 45.5175 200.591 44.8724C200.706 43.8554 201.693 43.1009 202.707 42.9751C203.722 42.8494 204.736 43.2376 205.619 43.757C207.275 44.7247 208.136 46.1627 209.424 47.4804C210.795 48.8801 211.875 50.3509 212.445 52.2536V52.2645Z" fill="white"/>
<path d="M97.9585 106.158C98.8468 105.579 99.3786 104.507 99.3019 103.452C99.2251 102.397 98.5452 101.413 97.5856 100.964C97.624 99.5317 97.0812 98.0937 96.0997 97.0494C95.7817 96.7104 95.354 96.3878 94.888 96.4589C94.5096 96.5136 94.2081 96.8252 94.0545 97.1751C93.901 97.5251 93.8626 97.9133 93.8078 98.2905C93.1772 102.834 90.0738 106.962 85.8738 108.848L86.4989 109.412C87.1513 113.561 89.2075 117.427 91.4501 120.986C93.4569 120.549 95.2608 119.259 96.3191 117.504C97.3773 115.748 97.6734 113.556 97.1251 111.582C98.1669 111.194 98.9674 110.215 99.1319 109.116C99.3019 108.017 98.8358 106.847 97.9585 106.164V106.158Z" fill="#C47640"/>
<path d="M34.0367 130.516C34.0367 130.516 22.5497 169.823 23.2241 170.594C24.0794 171.572 33.3404 172.119 33.9709 170.944C34.4918 169.976 39.4266 131.878 39.4266 131.878L34.0367 130.516Z" fill="#915123"/>
<path d="M44.9042 131.659C44.9042 131.659 44.8274 134.601 44.7123 138.882C44.5258 145.771 44.2188 156.121 43.9227 163.229C43.7418 167.685 43.5663 170.884 43.4183 171.151C42.7822 172.332 33.5213 171.786 32.6659 170.807C32.474 170.583 32.9511 167.204 33.7242 162.48C34.9688 154.869 36.9976 143.792 38.2916 136.815C39.0208 132.917 39.5143 130.298 39.5143 130.298L44.9097 131.659H44.9042Z" fill="#C47640"/>
<path d="M73.482 130.303C73.482 130.303 65.9592 170.036 66.6336 170.807C67.489 171.786 76.7499 172.332 77.3804 171.157C77.9013 170.189 78.8718 131.665 78.8718 131.665L73.482 130.303Z" fill="#915123"/>
<path d="M85.1829 137.701C85.1829 137.701 87.0143 152.534 88.1986 162.316C88.7579 166.98 89.1746 170.495 89.1746 170.714C89.1746 171.376 80.0398 171.66 78.6142 171.091C78.1591 170.905 77.9946 167.455 77.9781 162.83C77.9507 153.311 78.5593 138.844 78.6032 137.679C78.6087 137.624 78.6087 137.602 78.6087 137.602C78.5045 137.63 78.4058 137.663 78.3016 137.684C77.8246 137.81 77.3476 137.936 76.876 138.056C76.3551 138.187 75.8233 138.319 75.3024 138.444C73.9755 138.762 72.687 139.04 71.4259 139.275C70.9872 139.357 70.554 139.44 70.1209 139.511C59.703 141.331 51.5497 140.664 44.6903 138.876C44.6629 138.871 44.63 138.86 44.6026 138.854C42.4642 138.302 40.4519 137.641 38.5383 136.913C38.4506 136.875 38.3574 136.848 38.2697 136.81C31.0484 133.95 26.0259 126.973 23.394 119.625C23.2679 119.291 23.1583 118.958 23.0431 118.624C20.7238 111.56 20.6909 103.884 22.2097 96.5847C22.3687 95.8247 22.5387 95.0756 22.7306 94.332H36.5534C36.5534 94.332 35.6981 106.683 43.3141 109.433C50.9246 112.184 67.6645 102.79 77.4627 102.982C87.2555 103.168 94.5809 110.571 94.4877 122.047C94.389 133.529 85.1665 137.695 85.1665 137.695L85.1829 137.701Z" fill="#C47640"/>
<path d="M21.124 71.6033C20.4715 70.0013 19.8191 68.3939 19.1611 66.7919C18.5963 65.414 17.9987 63.9815 16.8911 62.9864C15.5752 61.8054 13.7164 61.4118 11.9454 61.3899C10.1743 61.368 8.41425 61.6633 6.64321 61.6578C5.4808 61.6578 4.27452 61.5047 3.29305 60.8869C2.31158 60.269 1.61523 59.0826 1.87293 57.9508C2.21288 56.4636 3.97295 55.7364 5.49725 55.802C7.02154 55.8676 8.48004 56.4745 10.0043 56.6112C10.8323 56.6823 11.885 56.5675 12.6691 56.2668C14.0728 55.731 13.3161 53.8938 13.0091 52.8988C12.5485 51.3952 11.7425 49.99 10.6733 48.8363C9.19285 47.2398 7.197 46.1244 5.0586 45.6925C4.07713 45.4957 3.06276 45.4355 2.12515 45.102C1.18206 44.7685 0.28832 44.0796 0.0580303 43.1118C-0.166776 42.1604 0.337667 41.1216 1.14916 40.5694C1.96066 40.0171 3.0189 39.9023 3.97843 40.0992C4.94346 40.296 5.82623 40.7717 6.63773 41.3239C7.55889 41.9472 8.52391 42.7783 9.68084 42.8712C10.7062 42.9532 11.8192 42.3846 12.2798 41.4551C12.6088 40.7935 12.6527 40.0062 12.8665 39.3064C13.1132 38.5026 13.3819 37.7044 13.6232 36.8952C14.0234 35.5884 14.5663 34.2543 15.6081 33.3686C16.6498 32.4828 18.3167 32.1876 19.3859 33.0405C20.34 33.8005 20.5373 35.2166 20.1919 36.3812C19.8465 37.5458 19.0679 38.53 18.3222 39.4868C17.5765 40.4436 16.8253 41.4606 16.5621 42.6471C16.4031 43.3578 16.425 44.1014 16.6334 44.8013C16.935 45.8292 17.8123 46.8133 18.8815 46.7313C20.2577 46.622 21.0857 44.856 22.4674 44.8177C23.6188 44.7849 24.4413 46.0862 24.3152 47.2289C24.1836 48.3661 23.3995 49.3175 22.577 50.1158C21.7875 50.8867 20.8937 51.6248 20.3893 52.6254C20.0493 53.2924 19.5943 54.8616 19.9616 55.5505C20.2413 56.0699 20.8992 56.3488 21.4695 56.1902C21.9246 56.059 22.2755 55.6981 22.6703 55.4357C23.8162 54.6921 25.4941 54.9218 26.3988 55.9442C27.3035 56.9666 27.3199 58.6561 26.4371 59.6949C25.8176 60.4276 24.858 60.8103 24.222 61.532C23.4324 62.4233 23.3721 63.5824 23.6956 64.6704C24.0301 65.7968 25.2692 66.7044 26.0698 67.5518C26.2452 67.7377 26.4317 67.9455 26.4371 68.2025C26.4371 68.4376 26.2946 68.6399 26.1411 68.8203C25.5598 69.4764 24.7593 69.9849 24.0136 70.4278C23.1254 70.9527 22.1823 71.4885 21.1405 71.6033H21.124Z" fill="#4A2B16"/>
<path d="M36.3451 71.6033C36.9975 70.0013 37.65 68.3939 38.308 66.7919C38.8728 65.414 39.4704 63.9815 40.578 62.9864C41.8939 61.8054 43.7527 61.4118 45.5237 61.3899C47.2948 61.368 49.0548 61.6633 50.8259 61.6578C51.9883 61.6578 53.1946 61.5047 54.176 60.8869C55.1575 60.269 55.8539 59.0826 55.5962 57.9508C55.2562 56.4636 53.4961 55.7364 51.9718 55.802C50.4475 55.8676 48.989 56.4745 47.4647 56.6112C46.6368 56.6823 45.5841 56.5675 44.8 56.2668C43.3963 55.731 44.153 53.8938 44.46 52.8988C44.9206 51.3952 45.7266 49.99 46.7958 48.8363C48.2762 47.2398 50.2721 46.1244 52.4105 45.6925C53.392 45.4957 54.4063 45.4355 55.3439 45.102C56.287 44.7685 57.1808 44.0796 57.4111 43.1118C57.6359 42.1604 57.1314 41.1216 56.3199 40.5694C55.5084 40.0171 54.4502 39.9023 53.4907 40.0992C52.5256 40.296 51.6429 40.7717 50.8314 41.3239C49.9102 41.9472 48.9452 42.7783 47.7883 42.8712C46.7629 42.9532 45.6498 42.3846 45.1893 41.4551C44.8603 40.7935 44.8164 40.0062 44.6026 39.3064C44.3558 38.5026 44.0872 37.7044 43.8459 36.8952C43.4457 35.5884 42.9028 34.2543 41.861 33.3686C40.8193 32.4828 39.1524 32.1876 38.0832 33.0405C37.1291 33.8005 36.9317 35.2166 37.2772 36.3812C37.6226 37.5458 38.4012 38.53 39.1469 39.4868C39.8926 40.4436 40.6438 41.4606 40.907 42.6471C41.066 43.3578 41.0441 44.1014 40.8357 44.8013C40.5341 45.8292 39.6568 46.8133 38.5876 46.7313C37.2114 46.622 36.3834 44.856 35.0017 44.8177C33.8503 44.7849 33.0278 46.0862 33.1539 47.2289C33.2855 48.3661 34.0696 49.3175 34.892 50.1158C35.6816 50.8867 36.5753 51.6248 37.0798 52.6254C37.4197 53.2924 37.8748 54.8616 37.5075 55.5505C37.2278 56.0699 36.5699 56.3488 35.9996 56.1902C35.5445 56.059 35.1936 55.6981 34.7988 55.4357C33.6529 54.6921 31.975 54.9218 31.0703 55.9442C30.1656 56.9666 30.1492 58.6561 31.032 59.6949C31.6515 60.4276 32.6111 60.8103 33.2471 61.532C34.0367 62.4233 34.097 63.5824 33.7735 64.6704C33.439 65.7968 32.1998 66.7044 31.3993 67.5518C31.2239 67.7377 31.0374 67.9455 31.032 68.2025C31.032 68.4376 31.1745 68.6399 31.328 68.8203C31.9092 69.4764 32.7098 69.9849 33.4555 70.4278C34.3437 70.9527 35.2868 71.4885 36.3286 71.6033H36.3451Z" fill="#4A2B16"/>
<path d="M15.9425 63.3144C18.8705 66.9066 19.7972 72.4344 17.1379 74.5886C14.4786 76.7428 9.24222 74.7089 6.31425 71.1221C3.38628 67.5299 3.87976 63.7464 6.53906 61.5922C9.19835 59.4379 13.0146 59.7277 15.9425 63.3199V63.3144Z" fill="#C47640"/>
<path d="M15.9316 66.584C17.8781 68.9679 18.4922 72.6476 16.7266 74.0801C14.9611 75.5126 11.4738 74.1621 9.53282 71.7728C7.58633 69.3889 7.91531 66.8684 9.68087 65.4359C11.4464 64.0033 13.9851 64.1947 15.9316 66.584Z" fill="#FAC6A3"/>
<path d="M41.5266 63.3144C38.5986 66.9066 37.672 72.4344 40.3313 74.5886C42.9906 76.7428 48.2269 74.7089 51.1549 71.1221C54.0828 67.5299 53.5894 63.7464 50.9301 61.5922C48.2708 59.4379 44.4546 59.7277 41.5266 63.3199V63.3144Z" fill="#C47640"/>
<path d="M41.5376 66.584C39.5911 68.9679 38.977 72.6476 40.7425 74.0801C42.5081 75.5126 45.9953 74.1621 47.9363 71.7728C49.8828 69.3889 49.5538 66.8684 47.7883 65.4359C46.0227 64.0033 43.4841 64.1947 41.5376 66.584Z" fill="#FAC6A3"/>
<path d="M48.9068 90.7234C48.9068 92.7573 48.6382 94.6327 48.1228 96.3495C45.7102 104.524 37.9407 109.023 28.7346 109.023C19.5285 109.023 11.759 104.524 9.3464 96.3495C8.83647 94.6327 8.56232 92.7573 8.56232 90.7234C8.56232 79.0119 17.593 66.606 28.7346 66.606C39.8762 66.606 48.9068 79.0119 48.9068 90.7234Z" fill="#C47640"/>
<path d="M48.1227 96.3496C45.7102 104.524 37.9407 109.023 28.7346 109.023C19.5285 109.023 11.7589 104.524 9.34637 96.3496C13.2613 93.1237 20.477 90.964 28.7346 90.964C36.9921 90.964 44.2078 93.1237 48.1227 96.3496Z" fill="#FAC6A3"/>
<g style="mix-blend-mode:multiply">
<path d="M31.1251 66.8082C39.0208 70.4442 44.6848 80.1491 44.6848 89.4276C44.6848 91.4615 44.4161 93.3369 43.9007 95.0537C41.4882 103.228 33.7186 107.728 24.5125 107.728C22.7031 107.728 20.954 107.553 19.2872 107.208C22.1055 108.406 25.3186 109.023 28.7345 109.023C37.9406 109.023 45.7101 104.524 48.1227 96.3495C48.6326 94.6327 48.9068 92.7573 48.9068 90.7234C48.9068 79.8593 41.1427 68.4157 31.1251 66.8082Z" fill="#FFD4B5"/>
</g>
<path d="M23.9862 82.6806C23.6243 81.9261 22.9828 81.341 22.1823 81.084C20.6799 80.6029 18.9198 81.3465 18.1796 82.7298C17.7464 83.539 17.6478 84.4958 17.9055 85.3816C18.1248 86.1251 19.2927 85.808 19.0734 85.059C18.6841 83.7358 19.5394 82.3416 20.9321 82.1612C21.612 82.0737 22.3029 82.3197 22.7086 82.8829C23.1857 83.5499 23.2624 84.4083 23.3063 85.2011C23.3227 85.5237 23.5695 85.8026 23.9094 85.8026C24.222 85.8026 24.5345 85.5237 24.5126 85.2011C24.4632 84.3372 24.3645 83.4734 23.9862 82.6806Z" fill="#4A2B16"/>
<path d="M33.4829 82.6806C33.8448 81.9261 34.4863 81.341 35.2868 81.084C36.7892 80.6029 38.5493 81.3465 39.2895 82.7298C39.7227 83.539 39.8214 84.4958 39.5637 85.3816C39.3443 86.1251 38.1764 85.808 38.3958 85.059C38.7851 83.7358 37.9297 82.3416 36.537 82.1612C35.8571 82.0737 35.1662 82.3197 34.7605 82.8829C34.2834 83.5499 34.2067 84.4083 34.1628 85.2011C34.1464 85.5237 33.8996 85.8026 33.5597 85.8026C33.2471 85.8026 32.9346 85.5237 32.9565 85.2011C33.0059 84.3372 33.1046 83.4734 33.4829 82.6806Z" fill="#4A2B16"/>
<path d="M33.949 101.686C33.6638 101.205 32.9291 100.953 32.4411 101.292C30.3082 102.768 27.6599 102.812 25.494 101.385C24.9951 101.057 24.2768 101.287 23.9862 101.779C23.6737 102.315 23.882 102.954 24.381 103.282C27.139 105.098 30.8401 105.065 33.5597 103.189C34.0477 102.85 34.2725 102.227 33.9544 101.686H33.949Z" fill="#4A2B16"/>
<path d="M30.056 96.5627C30.0231 95.9886 29.5735 95.4364 28.9539 95.4637C28.3891 95.4911 27.8134 95.9504 27.8518 96.5627C27.9779 98.5748 28.0327 100.587 28.0218 102.599C28.0218 103.173 28.5317 103.725 29.1239 103.698C29.7215 103.671 30.226 103.217 30.226 102.599C30.2369 100.587 30.1821 98.5748 30.056 96.5627Z" fill="#4A2B16"/>
<path d="M35.6103 92.6863C35.6103 95.349 32.5343 98.1539 28.7346 98.1539C24.9348 98.1539 21.8588 95.349 21.8588 92.6863C21.8588 90.0236 24.9348 87.8694 28.7346 87.8694C32.5343 87.8694 35.6103 90.0291 35.6103 92.6863Z" fill="#4A2B16"/>
<g style="mix-blend-mode:multiply">
<path d="M36.0435 70.8597C36.4712 71.4721 36.4054 72.2539 35.9009 72.5984C35.3965 72.9428 34.6453 72.7296 34.2176 72.1172C33.7899 71.5049 33.8557 70.723 34.3602 70.3785C34.8646 70.0286 35.6158 70.2473 36.0435 70.8597Z" fill="#FFD4B5"/>
</g>
<g style="mix-blend-mode:multiply">
<path d="M34.0915 73.1725C34.3273 73.517 34.2944 73.9489 34.0147 74.1403C33.7351 74.3317 33.3129 74.2114 33.0771 73.8724C32.8414 73.5279 32.8743 73.096 33.1539 72.9046C33.4335 72.7133 33.8557 72.8335 34.0915 73.1725Z" fill="#FFD4B5"/>
</g>
<g style="mix-blend-mode:multiply">
<path d="M36.5643 73.845C36.9043 74.3371 36.8549 74.955 36.4547 75.2338C36.0544 75.5126 35.4513 75.3377 35.1113 74.8511C34.7714 74.359 34.8207 73.7411 35.221 73.4623C35.6212 73.1835 36.2244 73.3584 36.5643 73.845Z" fill="#FFD4B5"/>
</g>
<path d="M78.6141 137.679C78.6196 137.624 78.6196 137.602 78.6196 137.602C78.5154 137.63 78.4167 137.662 78.3126 137.684C77.8355 137.81 77.3585 137.936 76.887 138.056C76.3661 138.187 75.8342 138.319 75.3133 138.444C73.9864 138.761 72.6979 139.04 71.4368 139.275C70.9981 139.357 70.565 139.439 70.1318 139.511C59.6701 141.337 51.4948 140.653 44.6081 138.854C44.1968 136.514 43.8404 134.136 44.4052 131.834C45.0028 129.374 46.8945 127.006 49.6141 126.438C52.2899 125.885 54.9491 127.137 57.5975 127.777C60.7064 128.521 64.0565 128.422 67.1051 127.482C69.0736 126.88 70.9104 125.929 72.9391 125.514C74.9679 125.093 77.353 125.322 78.7293 126.727C79.5792 127.591 79.9191 128.772 80.0233 129.92C80.2755 132.583 79.5188 135.142 78.5977 137.679H78.6141Z" fill="#FAC6A3"/>
<path d="M29.9628 121.402C29.9628 123.015 29.1842 124.327 28.2246 124.327C27.2651 124.327 26.4865 123.02 26.4865 121.402C26.4865 119.784 27.2651 118.477 28.2246 118.477C29.1842 118.477 29.9628 119.789 29.9628 121.402Z" fill="#FAC6A3"/>
<path d="M31.9806 125.481C31.9806 126.345 31.5639 127.044 31.0485 127.044C30.533 127.044 30.1163 126.345 30.1163 125.481C30.1163 124.617 30.533 123.917 31.0485 123.917C31.5639 123.917 31.9806 124.617 31.9806 125.481Z" fill="#FAC6A3"/>
<path d="M33.6803 122.003C33.6803 122.988 33.2033 123.791 32.6166 123.791C32.0299 123.791 31.5529 122.993 31.5529 122.003C31.5529 121.014 32.0299 120.215 32.6166 120.215C33.2033 120.215 33.6803 121.014 33.6803 122.003Z" fill="#FAC6A3"/>
<path d="M43.9172 163.234C43.7363 167.69 43.5608 170.889 43.4128 171.157C42.7767 172.338 33.5158 171.791 32.6604 170.812C32.4685 170.588 32.9456 167.209 33.7187 162.485C35.4623 162.261 37.2114 162.086 38.9715 162.157C40.6712 162.223 42.3765 162.545 43.9172 163.234Z" fill="#4A2B16"/>
<path d="M89.18 170.714C89.18 171.376 80.0452 171.66 78.6196 171.091C78.1645 170.905 78 167.455 77.9836 162.83C81.2679 161.802 84.8265 161.627 88.1986 162.316C88.7578 166.98 89.1746 170.495 89.1746 170.714H89.18Z" fill="#4A2B16"/>
<path d="M109.599 23.1115C106.77 24.5823 110.548 35.4463 110.548 35.4463L117.462 36.5125C117.462 36.5125 113.081 25.5445 114.797 24.4018C114.797 24.4018 112.143 21.7883 109.599 23.1115Z" fill="#94131F"/>
<path d="M128.335 35.7416C128.335 35.7416 123.137 22.2531 120.817 21.7828C118.498 21.3126 111.326 21.329 109.599 23.1115C109.599 23.1115 112.346 22.6959 114.194 24.8119C116.042 26.9278 118.367 36.589 118.367 36.589L128.34 35.7361L128.335 35.7416Z" fill="#BD212E"/>
<path d="M146.396 26.1898C148.94 28.1089 143.402 38.1966 143.402 38.1966L136.406 38.1036C136.406 38.1036 142.558 28.0159 141.056 26.6053C141.056 26.6053 144.11 24.4729 146.396 26.1952V26.1898Z" fill="#94131F"/>
<path d="M125.813 35.5284C125.813 35.5284 133.187 23.0896 135.556 23.0131C137.925 22.9365 144.987 24.1394 146.396 26.1843C146.396 26.1843 143.753 25.3204 141.582 27.0974C139.411 28.8743 135.501 38.0161 135.501 38.0161L125.813 35.5229V35.5284Z" fill="#BD212E"/>
<path d="M132.935 35.7471C132.683 38.7487 129.749 40.9576 126.388 40.6788C123.027 40.4 120.505 37.7372 120.757 34.7301C121.009 31.7229 123.943 29.5195 127.304 29.7983C130.665 30.0772 133.187 32.7399 132.935 35.7471Z" fill="#E65764"/>
<path d="M145.135 41.991L144.631 51.428L144.521 53.4346L144.373 56.3324L144.269 58.339L144.11 61.2259L144.005 63.238L143.852 66.1249L143.742 68.1314L143.589 71.0129L143.485 73.0195L143.243 77.5739L102.943 72.7023L103.606 68.5743L103.924 66.6005L104.396 63.659L104.714 61.6852L105.191 58.7491L105.509 56.7753L105.98 53.8337L106.298 51.8545L106.77 48.9075L107.082 46.9391L108.376 38.9182L145.135 41.991Z" fill="#F8A12E"/>
<path d="M144.631 51.4281L144.526 53.4347C131.91 52.2318 119.321 50.7227 106.775 48.9075L107.088 46.9337C109.862 47.3383 112.637 47.7265 115.417 48.0928C125.133 49.3887 134.876 50.4986 144.636 51.4281H144.631Z" fill="white"/>
<path d="M144.373 56.3324L144.269 58.339C131.471 57.1526 118.706 55.649 105.98 53.8338L106.298 51.8545C108.623 52.188 110.948 52.5106 113.273 52.8223C123.614 54.2001 133.982 55.3647 144.373 56.3324Z" fill="white"/>
<path d="M144.11 61.226L144.005 63.238C131.032 62.0625 118.087 60.5644 105.191 58.7437L105.509 56.7699C107.384 57.0323 109.259 57.2893 111.14 57.5408C122.1 59.0007 133.094 60.2254 144.11 61.2205V61.226Z" fill="white"/>
<path d="M143.852 66.1249L143.748 68.1315C143.265 68.0877 142.777 68.0495 142.295 68.0057C129.629 66.8685 116.99 65.4196 104.396 63.6645L104.714 61.6907C106.139 61.8875 107.565 62.0843 108.996 62.2757C120.582 63.8176 132.206 65.1024 143.852 66.1249Z" fill="white"/>
<path d="M143.589 71.0129L143.485 73.0195C142.377 72.9266 141.264 72.8282 140.151 72.7298C127.935 71.6308 115.751 70.2475 103.606 68.5799L103.924 66.6061C104.9 66.7428 105.876 66.874 106.858 66.9997C119.068 68.6236 131.318 69.9632 143.594 71.0129H143.589Z" fill="white"/>
<path d="M106.879 33.5709L105.141 46.5892L146.308 50.5915L147.454 36.9608L106.879 33.5709Z" fill="#F8A12E"/>
<path d="M121.464 34.7902L115.981 74.277L129.557 75.9227L132.935 35.747L121.464 34.7902Z" fill="#BD212E"/>
<g style="mix-blend-mode:multiply">
<path d="M107.11 46.7806L144.685 50.4603L144.395 55.8568L106.808 48.6724L107.11 46.7806Z" fill="#FFD475"/>
</g>
<path d="M71.1572 42.33C69.6164 44.8013 76.9363 54.5063 76.9363 54.5063L82.6113 53.1941C82.6113 53.1941 74.7925 43.593 75.6259 41.8379C75.6259 41.8379 72.5444 40.1102 71.1627 42.3245L71.1572 42.33Z" fill="#FFA126"/>
<path d="M90.5234 48.645C90.5234 48.645 81.0541 36.7694 79.1021 37.0975C77.1502 37.4255 71.7274 39.9188 71.1517 42.33C71.1517 42.33 73.0598 40.9576 75.3298 42.4667C77.5943 43.9702 83.3186 52.9644 83.3186 52.9644L90.5179 48.6505L90.5234 48.645Z" fill="#FFC036"/>
<path d="M100.283 32.7071C102.997 33.7733 102.943 45.9167 102.943 45.9167L97.6075 48.2459C97.6075 48.2459 98.1284 35.8892 96.4122 34.9761C96.4122 34.9761 97.8488 31.7557 100.283 32.7125V32.7071Z" fill="#FFA126"/>
<path d="M88.5276 49.3066C88.5276 49.3066 89.0101 34.145 90.7756 33.2428C92.5412 32.3407 98.3807 31.116 100.283 32.707C100.283 32.707 97.9311 32.7453 97.0154 35.3041C96.0997 37.8629 96.8893 48.481 96.8893 48.481L88.5276 49.3066Z" fill="#FFC036"/>
<path d="M94.0216 47.0813C94.8112 49.4597 93.2924 52.1005 90.6331 52.9753C87.9738 53.8556 85.172 52.6418 84.3824 50.2634C83.5928 47.885 85.1116 45.2442 87.7709 44.3693C90.4302 43.4891 93.2321 44.7029 94.0216 47.0813Z" fill="#FFD270"/>
<path d="M76.2894 57.497L83.1926 85.0754L115.581 75.6931L105.383 47.8795L76.2894 57.497Z" fill="#BD212E"/>
<path d="M73.3998 53.8938L76.3278 64.408L109.1 54.0743L105.514 43.2867L73.3998 53.8938Z" fill="#D13D49"/>
<path d="M84.9362 50.083L93.6707 82.041L104.582 78.8807L94.0216 47.0813L84.9362 50.083Z" fill="#FFC036"/>
<g style="mix-blend-mode:multiply">
<path d="M77.8959 63.9159L107.812 54.5007L109.358 58.7162L78.2797 65.4577L77.8959 63.9159Z" fill="#EB8D94"/>
</g>
<path d="M157.499 133.633C154.22 137.881 149.631 140.954 144.839 143.382C134.278 148.729 122.32 151.293 110.487 150.73C105.459 150.49 100.377 149.675 95.8201 147.532C87.0088 143.393 81.1583 134.196 82.0082 124.469C82.4414 119.483 84.0753 114.693 85.4845 109.887C86.1479 107.624 86.7511 105.273 87.1897 102.9C87.261 102.512 87.3268 102.123 87.3871 101.735C87.6997 99.7833 87.8916 97.8095 87.8916 95.8357C87.8916 94.4141 87.4036 92.916 87.0252 91.5382C86.1863 88.449 84.4263 85.6004 81.9973 83.4954C80.1111 81.8606 77.863 80.6741 76.0152 79.001C74.1674 77.3225 72.6979 74.9168 73.0927 72.4564C73.504 69.8757 75.9056 67.9729 78.4442 67.3223C80.9829 66.6717 83.6586 67.0216 86.2576 67.3715C89.69 67.8417 93.1389 68.4705 96.5877 68.7712C100.667 69.1211 105.081 68.5306 108.173 65.857C110.778 63.6098 112.374 59.9794 115.652 58.9186C120.626 57.3112 125.489 62.7241 130.682 62.1281C133.182 61.8383 135.282 60.2035 137.25 58.6398C139.005 57.251 140.973 55.8459 142.986 54.8453C143.622 54.5282 144.356 54.3642 145.124 54.3204C146.561 54.222 148.112 54.5282 149.335 54.9383C151.43 55.6381 153.316 57.087 154.303 59.0608C155.284 61.0346 155.262 63.5387 154.023 65.3649C152.833 67.12 150.777 68.0386 149.181 69.4383C146.067 72.1666 144.811 77.0929 146.561 80.8983C148.737 85.6387 152.565 89.5753 155.454 93.8674C159.424 99.7559 162.275 106.497 162.911 113.562C163.547 120.626 161.831 128.012 157.499 133.633Z" fill="#77CABA"/>
<g style="mix-blend-mode:multiply">
<path d="M157.499 133.633C154.22 137.881 149.631 140.954 144.839 143.382C134.278 148.729 122.32 151.293 110.487 150.73C105.459 150.49 100.377 149.675 95.8201 147.532C87.0088 143.393 81.1583 134.196 82.0082 124.469C82.4414 119.483 84.0753 114.693 85.4845 109.887C86.1479 107.624 86.7511 105.273 87.1897 102.9C89.7668 103.917 92.3932 104.759 95.1183 105.234C100.36 106.153 106.084 105.584 110.438 102.528C112.483 101.095 114.161 99.1654 116.294 97.8532C118.964 96.2075 122.15 95.6498 125.259 95.1686C128.362 94.693 131.548 94.2337 134.311 92.7465C137.075 91.2593 139.383 88.4927 139.367 85.3598C139.345 81.5489 136.055 78.4269 135.688 74.6379C135.375 71.4613 137.174 68.4705 139.18 65.9827C141.187 63.495 143.528 61.1549 144.636 58.1587C145.08 56.9613 145.256 55.6108 145.124 54.3204C146.561 54.222 148.112 54.5282 149.335 54.9383C151.43 55.6381 153.316 57.087 154.303 59.0608C155.284 61.0346 155.262 63.5387 154.023 65.3649C152.833 67.12 150.777 68.0386 149.181 69.4383C146.067 72.1666 144.811 77.0929 146.561 80.8983C148.737 85.6387 152.565 89.5753 155.454 93.8674C159.424 99.7559 162.275 106.497 162.911 113.562C163.547 120.626 161.831 128.012 157.499 133.633Z" fill="#83DECC"/>
</g>
<path d="M110.443 151.681C106.43 157.127 104.933 163.606 106.446 170.195H93.8242C93.6378 170.227 93.2869 170.042 93.1004 170.074C94.1971 163.557 92.8318 156.657 89.3336 151.042C96.4561 151.2 103.321 151.523 110.443 151.681Z" fill="#E37922"/>
<path d="M162.615 152.053C158.601 157.499 157.105 163.978 158.618 170.566H145.996C145.809 170.599 145.458 170.413 145.272 170.446C146.369 163.929 145.003 157.029 141.505 151.414C148.628 151.572 155.492 151.895 162.615 152.053Z" fill="#E37922"/>
<path d="M181.433 162.611C158.157 164.262 132.156 165.454 108.804 165.23C97.3718 165.121 85.9231 164.596 74.5567 163.333C66.9407 162.485 51.9335 158.8 55.004 147.892C56.2322 143.524 61.0244 140.38 65.4822 142.255C67.4232 143.07 68.613 144.787 68.7556 146.876C68.7939 147.439 68.7556 148.018 68.624 148.565C68.3498 147.209 67.319 146.039 65.5205 146.055C57.8991 146.121 58.3103 156.887 65.5096 157.647C72.1935 158.352 76.0481 151.124 75.1708 145.366C74.2167 139.09 68.5746 134.956 62.3129 135.191C55.9745 135.426 50.623 139.768 48.7588 145.76C46.8287 151.949 49.3784 158.472 54.1048 162.671C59.5221 167.483 66.5843 168.948 73.5807 169.779C89.8764 171.715 106.391 172.026 122.78 171.709C141.461 171.348 162.79 170.484 181.422 169.167C185.622 168.872 185.655 162.305 181.422 162.606L181.433 162.611Z" fill="#E37922"/>
<path d="M106.523 151.681C102.509 157.127 101.013 163.606 102.526 170.195H89.9039C89.7174 170.227 89.3665 170.042 89.1801 170.074C90.2767 163.557 88.9114 156.657 85.4132 151.042C92.5357 151.2 99.4006 151.523 106.523 151.681Z" fill="#F8A12E"/>
<path d="M158.695 152.053C154.681 157.499 153.184 163.978 154.697 170.566H142.075C141.889 170.599 141.538 170.413 141.352 170.446C142.448 163.929 141.083 157.029 137.585 151.414C144.707 151.572 151.572 151.895 158.695 152.053Z" fill="#F8A12E"/>
<path d="M178.061 140.648C178.138 146.176 174.924 151.244 169.748 152.633C159.808 155.296 84.0698 157.723 76.7335 150.993C73.5587 148.084 74.606 142.89 75.0885 138.816C75.6204 134.377 76.7828 130.342 75.9494 125.771C75.4943 123.288 74.4415 120.839 72.654 119.024C71.212 117.564 68.624 116.973 67.6864 115.093C66.9955 113.693 67.6096 111.932 68.7227 110.833C72.7856 106.842 80.3742 107.148 84.991 109.822C88.2041 111.686 90.6331 114.814 91.7352 118.346C92.9031 122.086 91.1759 125.831 91.8448 129.751C92.2561 132.157 93.3253 134.541 95.2389 136.061C97.9311 138.198 101.676 138.253 105.119 138.209C110.317 138.149 115.515 138.084 120.719 138.024C121.503 138.013 122.287 138.007 123.071 137.996C126.235 137.958 129.689 137.816 132.096 135.754C134.103 134.032 134.947 131.238 134.832 128.597C134.723 125.957 133.768 123.425 132.694 121.008C131.312 117.892 129.437 114.103 130.824 110.669C132.003 107.75 134.799 106.618 137.579 105.628C140.984 104.409 144.367 102.922 147.251 100.707C150.327 98.3508 152.734 95.2671 155.969 93.0637C159.555 90.6251 164.463 88.9521 168.537 91.2703C170.127 92.1725 171.739 93.9221 172.062 95.8303C172.512 98.5367 169.069 101.112 168.257 103.671C166.711 108.564 167.561 113.638 169.178 118.395C169.414 119.078 169.666 119.756 169.924 120.423C170.149 120.992 170.374 121.528 170.598 122.031C173.307 128.045 177.968 133.797 178.061 140.648Z" fill="#BD212E"/>
<g style="mix-blend-mode:multiply">
<path d="M169.178 118.395C167.034 118.236 164.973 117.755 163.114 116.678C160.208 114.994 158.168 111.905 157.762 108.581C156.32 111.309 153.754 113.419 150.799 114.311C148.841 114.896 146.588 115.054 145.179 116.531C144.066 117.701 143.781 119.434 143.857 121.047C143.934 122.654 144.318 124.245 144.323 125.858C144.334 130.774 140.71 135.137 136.329 137.4C131.948 139.664 126.904 140.211 121.985 140.599C121.541 139.751 121.119 138.893 120.719 138.024C121.503 138.013 122.287 138.007 123.071 137.996C126.235 137.958 129.689 137.816 132.096 135.754C134.103 134.032 134.947 131.238 134.832 128.597C134.723 125.957 133.768 123.425 132.694 121.008C131.312 117.892 129.437 114.103 130.824 110.669C132.003 107.75 134.799 106.618 137.579 105.628C140.984 104.409 144.367 102.922 147.251 100.707C150.327 98.3508 152.734 95.2671 155.969 93.0637C159.555 90.6251 164.463 88.9521 168.537 91.2703C170.127 92.1725 171.739 93.9221 172.062 95.8303C172.512 98.5367 169.069 101.112 168.257 103.671C166.711 108.564 167.561 113.638 169.178 118.395Z" fill="#DE6872"/>
</g>
<path d="M162.938 87.1477C154.056 89.0067 149.724 98.9358 140.979 100.571C136.718 101.363 132.82 101.659 130.089 105.48C127.754 108.756 127.32 112.889 127.858 116.771C128.45 121.063 130.78 125.798 129.738 130.156C128.658 134.705 122.863 133.906 119.26 133.885C113.777 133.857 108.294 133.83 102.811 133.803C100.766 133.792 98.419 134.032 96.4342 133.409C94.1203 132.682 93.6707 130.593 93.7255 128.39C93.8352 123.912 95.3485 119.767 93.7968 115.339C92.5083 111.659 89.9806 108.411 86.5536 106.481C82.6442 104.278 77.7314 103.889 73.5094 105.415C69.3642 106.908 65.038 110.39 64.8187 115.125C64.6268 119.379 68.5582 123.824 73.0927 122.392C77.1118 121.123 78.5429 115.667 75.4449 112.769C75.1269 112.474 74.7924 112.26 74.4525 112.113C74.7266 111.971 75.0008 111.845 75.2585 111.746C77.693 110.779 80.5332 110.806 82.8964 111.965C85.1006 113.048 86.8168 115.131 87.5735 117.449C88.5495 120.445 87.6228 123.556 87.2884 126.58C86.6578 132.299 88.6975 138.023 94.685 139.74C97.6295 140.588 100.881 140.358 103.908 140.369C107.565 140.385 111.217 140.407 114.874 140.424C120.56 140.451 127.814 141.523 132.557 137.63C137.267 133.764 136.894 127.291 135.677 121.927C134.673 117.504 131.888 109.078 138.402 107.542C141.16 106.891 143.808 106.864 146.451 105.699C149.28 104.458 151.698 102.528 154.007 100.516C157.954 97.0768 164.391 90.3463 169.935 94.7586C170.637 95.3163 171.256 96.0599 171.717 96.8909C169.858 95.9943 167.55 95.9669 165.68 96.9565C162.445 98.6734 161.606 102.905 163.218 106.011C165.132 109.701 169.628 110.877 173.351 109.27C177.096 107.651 179.13 103.616 179.086 99.6521C178.987 91.3413 170.845 85.491 162.933 87.1477H162.938Z" fill="#F8A12E"/>
<path d="M177.513 162.611C154.237 164.262 128.236 165.454 104.884 165.23C93.4569 165.121 82.0027 164.596 70.6363 163.333C63.0203 162.485 48.0131 158.8 51.0836 147.892C52.3118 143.524 57.104 140.38 61.5618 142.255C63.5028 143.07 64.6926 144.787 64.8352 146.876C64.8735 147.439 64.8352 148.018 64.7036 148.565C64.4294 147.209 63.3986 146.039 61.6001 146.055C53.9787 146.121 54.3899 156.887 61.5892 157.647C68.2731 158.352 72.1277 151.124 71.2504 145.366C70.2963 139.09 64.6542 134.956 58.398 135.191C52.0596 135.426 46.7081 139.768 44.8438 145.76C42.9138 151.949 45.4634 158.472 50.1899 162.671C55.6071 167.483 62.6693 168.948 69.6658 169.779C85.9615 171.715 102.477 172.026 118.865 171.709C137.546 171.348 158.876 170.484 177.507 169.167C181.707 168.872 181.74 162.305 177.507 162.606L177.513 162.611Z" fill="#F8A12E"/>
<path d="M135.435 117.914C132.496 119.767 137.59 131.222 137.59 131.222L145.195 131.752C145.195 131.752 139.438 120.237 141.193 118.843C141.193 118.843 138.073 116.246 135.435 117.914Z" fill="#FFA126"/>
<path d="M156.935 129.926C156.935 129.926 150.059 115.754 147.493 115.453C144.927 115.153 137.146 115.82 135.43 117.914C135.43 117.914 138.374 117.214 140.573 119.346C142.772 121.473 146.177 131.758 146.177 131.758L156.929 129.926H156.935Z" fill="#FFC036"/>
<path d="M175.676 117.914C178.615 119.767 173.521 131.222 173.521 131.222L165.916 131.752C165.916 131.752 171.673 120.237 169.918 118.843C169.918 118.843 173.038 116.246 175.676 117.914Z" fill="#FFA126"/>
<path d="M154.177 129.926C154.177 129.926 161.052 115.754 163.618 115.453C166.184 115.153 173.965 115.82 175.681 117.914C175.681 117.914 172.737 117.214 170.538 119.346C168.339 121.473 164.934 131.758 164.934 131.758L154.182 129.926H154.177Z" fill="#FFC036"/>
<path d="M155.273 135.465C158.949 135.465 161.93 132.801 161.93 129.516C161.93 126.231 158.949 123.567 155.273 123.567C151.597 123.567 148.617 126.231 148.617 129.516C148.617 132.801 151.597 135.465 155.273 135.465Z" fill="#FFD270"/>
<path d="M135.55 135.186L132.732 172.365L176.937 174L175.747 135.186H135.55Z" fill="#32735D"/>
<path d="M133.439 129.516L132.732 143.808L177.809 144.42V129.516H133.439Z" fill="#77CABA"/>
<path d="M149.384 129.516L147.038 172.896L161.93 173.448V129.516H149.384Z" fill="#FFC036"/>
<g style="mix-blend-mode:multiply">
<path d="M134.893 143.835L176.032 144.42L176.213 150.309L134.734 145.924L134.893 143.835Z" fill="#EB8D94"/>
</g>
</svg>
