<svg xmlns="http://www.w3.org/2000/svg" xmlns:xlink="http://www.w3.org/1999/xlink" preserveAspectRatio="xMidYMid meet" width="240" height="174" viewBox="0 0 240 174" style="width:100%;height:100%"><defs><animate repeatCount="indefinite" dur="2.002002s" begin="0s" xlink:href="#_R_G_L_1_G_D_0_P_0" fill="freeze" attributeName="fill" from="#f8a12e" to="#f8a12e" keyTimes="0;0.25;0.5;0.75;1" values="#f8a12e;#ffdf3f;#f8a12e;#ffdf3f;#f8a12e" keySplines="0.167 0.167 0.833 0.833;0.167 0.167 0.833 0.833;0.167 0.167 0.833 0.833;0.167 0.167 0.833 0.833" calcMode="spline"/><animateMotion repeatCount="indefinite" dur="2.002002s" begin="0s" xlink:href="#_R_G_L_0_G" fill="freeze" keyTimes="0;0.25;0.5;0.75;1" path="M28.74 70.61 C28.74,70.61 28.74,72 28.74,72 C28.74,72 28.74,70.61 28.74,70.61 C28.74,70.61 28.74,72 28.74,72 C28.74,72 28.74,70.61 28.74,70.61 " keyPoints="0;0.25;0.5;0.75;1" keySplines="0.333 0 0.667 1;0.333 0 0.667 1;0.333 0 0.667 1;0.333 0 0.667 1" calcMode="spline"/><animateTransform repeatCount="indefinite" dur="2.002002s" begin="0s" xlink:href="#_R_G_L_0_G" fill="freeze" attributeName="transform" from="0" to="0" type="rotate" additive="sum" keyTimes="0;1" values="0;0" keySplines="0.167 0.167 0.833 0.833" calcMode="spline"/><animateTransform repeatCount="indefinite" dur="2.002002s" begin="0s" xlink:href="#_R_G_L_0_G" fill="freeze" attributeName="transform" from="-29.152 -38.668" to="-29.152 -38.668" type="translate" additive="sum" keyTimes="0;1" values="-29.152 -38.668;-29.152 -38.668" keySplines="0 0 1 1" calcMode="spline"/><animate attributeType="XML" attributeName="opacity" dur="2s" from="0" to="1" xlink:href="#time_group"/></defs><g id="_R_G"><g id="_R_G_L_2_G" transform=" translate(130.435, 95.007) translate(-109.994, -79.385)"><path id="_R_G_L_2_G_D_0_P_0" fill="#c47640" fill-opacity="1" fill-rule="nonzero" d=" M172.55 114.46 C173.96,128.99 180.05,143.02 189.7,154 C186.49,156.69 182.08,157.27 177.9,157.58 C165.33,158.52 152.66,158.21 140.15,156.65 C145.54,143.12 148.47,128.9 148.48,114.35 C156.88,114.54 164.15,114.27 172.55,114.47 C172.55,114.47 172.55,114.46 172.55,114.46z "/><path id="_R_G_L_2_G_D_1_P_0" fill="#265e4b" fill-opacity="1" fill-rule="nonzero" d=" M215 137.46 C212.16,138.7 208.57,137.98 206.44,135.74 C205.47,138.67 202.82,140.97 199.79,141.55 C196.75,142.12 193.44,140.92 191.48,138.54 C189.28,143.22 184.6,146.66 179.46,147.36 C174.32,148.07 168.88,146.02 165.49,142.11 C164.1,144.8 160.04,145.6 157.71,143.65 C154.25,147.39 148.43,148.73 143.67,146.89 C138.92,145.04 135.55,140.12 135.55,135.03 C133.38,136.75 130.13,136.98 127.74,135.57 C125.35,134.17 123.97,131.22 124.44,128.49 C119.47,131.14 113.44,131.79 108.01,130.25 C106.05,129.69 103.96,128.67 103.28,126.75 C102.63,124.92 103.5,122.84 104.87,121.47 C106.24,120.09 108.04,119.24 109.73,118.3 C113.25,116.34 116.45,113.83 119.2,110.92 C122.24,107.74 124.74,104.07 126.58,100.08 C126.58,100.08 196.88,102.56 196.88,102.56 C201.78,107.79 206.69,112.99 211.6,118.2 C212.53,119.19 213.47,120.19 214.4,121.18 C216.79,123.72 219.32,126.56 219.54,130.03 C219.74,133.12 217.84,136.24 215,137.47 C215,137.47 215,137.46 215,137.46z "/><path id="_R_G_L_2_G_D_2_P_0" fill="#66ccaa" fill-opacity="1" fill-rule="nonzero" d=" M211.6 118.19 C206.61,120.12 200.68,119.7 196.13,116.83 C194.05,121.44 187.58,123.39 183.29,120.7 C179.59,124.33 173.04,124.49 169.17,121.06 C164.57,125.06 158.25,127.02 152.19,126.31 C146.13,125.6 140.43,122.25 136.88,117.31 C131.98,119.04 125.94,116.37 123.96,111.57 C122.38,111.35 120.79,111.13 119.2,110.91 C122.24,107.73 124.74,104.06 126.58,100.07 C126.58,100.07 196.88,102.55 196.88,102.55 C201.78,107.78 206.69,112.98 211.6,118.19z "/><path id="_R_G_L_2_G_D_3_P_0" fill="#265e4b" fill-opacity="1" fill-rule="nonzero" d=" M209.93 108.26 C209.48,111.24 206.33,113.22 203.31,113.38 C200.29,113.55 197.38,112.35 194.59,111.18 C194.04,113.73 192.02,115.91 189.51,116.67 C187,117.44 184.11,116.74 182.22,114.93 C181.04,116.9 178.89,118.23 176.61,118.44 C174.34,118.66 171.98,117.72 170.46,116 C166.51,120.79 160.1,123.45 153.91,122.83 C147.72,122.23 141.94,118.39 139.01,112.92 C136.82,114.07 134.09,114.13 131.86,113.07 C129.62,112.02 127.93,109.89 127.42,107.47 C124.77,107.99 122.01,108.52 119.41,107.78 C116.81,107.04 114.48,104.61 114.82,101.94 C115.16,99.21 117.9,97.56 120.19,96.03 C123.59,93.73 126.56,90.83 128.97,87.52 C131.59,83.93 133.54,79.84 134.65,75.53 C134.65,75.53 193.18,80.3 193.18,80.3 C194.48,85.86 197.08,91.11 200.64,95.58 C201.99,97.28 203.52,98.98 205.19,100.44 C205.67,100.87 206.17,101.26 206.68,101.65 C208.76,103.18 210.35,105.46 209.93,108.25 C209.93,108.25 209.93,108.26 209.93,108.26z "/><path id="_R_G_L_2_G_D_4_P_0" fill="#66ccaa" fill-opacity="1" fill-rule="nonzero" d=" M205.19 100.44 C200.56,101.95 195.28,101.55 191.05,99.13 C188.85,102.88 184.7,105.41 180.36,105.67 C176.01,105.91 171.59,103.87 168.98,100.39 C165.33,103.14 159.84,103.15 156.17,100.41 C152.54,105.1 145.46,106.76 140.11,104.16 C134.77,101.55 131.71,94.96 133.2,89.22 C131.79,88.66 130.38,88.1 128.97,87.53 C131.59,83.94 133.54,79.85 134.65,75.54 C134.65,75.54 193.18,80.31 193.18,80.31 C194.48,85.87 197.08,91.12 200.64,95.59 C201.99,97.29 203.52,98.99 205.19,100.45 C205.19,100.45 205.19,100.44 205.19,100.44z "/><path id="_R_G_L_2_G_D_5_P_0" fill="#265e4b" fill-opacity="1" fill-rule="nonzero" d=" M205.73 93 C203.8,94.74 201.1,95.42 198.5,95.41 C195.9,95.39 193.35,94.74 190.83,94.1 C188.54,97.55 184.52,99.82 180.36,99.99 C176.21,100.16 172.02,98.23 169.45,94.98 C166.24,97.91 160.52,97.39 157.88,93.93 C155.28,98.2 149.45,100.15 144.79,98.33 C140.12,96.51 137.19,91.1 138.2,86.22 C136.41,87.03 134.13,86.59 132.76,85.17 C131.38,83.76 131.03,81.46 131.91,79.7 C128.92,80.15 125.75,80.58 122.97,79.39 C120.2,78.19 118.18,74.73 119.63,72.09 C120.93,69.74 124.03,69.27 126.62,68.56 C127.41,68.34 128.19,68.08 128.94,67.76 C128.94,67.76 128.94,67.76 128.95,67.76 C133.66,65.87 137.67,62.26 140,57.75 C140,57.75 190.42,58.61 190.42,58.61 C191.73,63.97 194.02,69.09 197.11,73.67 C199.17,76.73 201.59,79.56 204.32,82.05 C205.6,83.21 206.98,84.36 207.64,85.96 C208.63,88.35 207.66,91.26 205.73,93 C205.73,93 205.73,93 205.73,93z "/><path id="_R_G_L_2_G_D_6_P_0" fill="#66ccaa" fill-opacity="1" fill-rule="nonzero" d=" M197.11 73.68 C195.32,74.3 193.2,74.06 191.76,72.82 C190.91,75.16 188.78,76.98 186.33,77.45 C183.88,77.92 181.22,77.03 179.56,75.18 C177.92,78.34 173.33,79.52 170.36,77.55 C167.72,82.56 161.68,85.56 156.07,84.65 C150.46,83.74 145.69,78.98 144.78,73.38 C140.76,74.79 135.81,72.19 134.72,68.08 C132.89,68.9 130.7,68.72 128.96,67.77 C133.67,65.88 137.68,62.27 140.01,57.76 C140.01,57.76 190.43,58.62 190.43,58.62 C191.74,63.99 194.03,69.1 197.12,73.68 C197.12,73.68 197.11,73.68 197.11,73.68z "/><path id="_R_G_L_2_G_D_7_P_0" fill="#265e4b" fill-opacity="1" fill-rule="nonzero" d=" M199.41 65.27 C196.58,66.58 193.29,66.43 190.22,65.86 C189.8,68.3 187.76,70.4 185.32,70.87 C182.87,71.36 180.18,70.19 178.87,68.07 C178.89,70.36 177.15,72.54 174.91,73.03 C172.67,73.53 170.16,72.29 169.21,70.21 C167.98,74.98 163.07,78.52 158.14,78.19 C153.2,77.87 148.81,73.7 148.23,68.81 C146.3,70.4 143.43,70.74 141.19,69.65 C138.95,68.56 137.45,66.09 137.52,63.61 C134.88,64.07 132.11,64.53 129.56,63.72 C127.01,62.92 124.78,60.41 125.25,57.78 C125.54,56.15 126.8,54.83 128.2,53.95 C129.62,53.07 131.21,52.54 132.72,51.83 C134.95,50.76 136.97,49.27 138.65,47.48 C141.13,44.87 142.93,41.64 143.74,38.14 C143.74,38.14 183.9,39.55 183.9,39.55 C186.41,43.4 189.73,46.72 193.59,49.23 C194.24,49.65 194.91,50.05 195.59,50.43 C197.25,51.36 199.01,52.14 200.54,53.26 C202.08,54.39 203.41,55.94 203.79,57.8 C204.42,60.85 202.25,63.96 199.41,65.28 C199.41,65.28 199.41,65.27 199.41,65.27z "/><path id="_R_G_L_2_G_D_8_P_0" fill="#66ccaa" fill-opacity="1" fill-rule="nonzero" d=" M193.59 49.22 C192.48,50.77 190.97,52.03 189.23,52.81 C186.44,54.06 183.11,54.05 180.33,52.79 C178.73,55.75 175.48,57.73 172.12,57.82 C168.76,57.9 165.42,56.06 163.68,53.2 C163.11,54.29 161.96,55.07 160.72,55.16 C159.48,55.26 158.21,54.67 157.48,53.67 C155.7,56.8 151.32,57.86 148.02,56.42 C144.71,54.99 142.59,51.52 142.17,47.96 C141.02,48.43 139.66,48.19 138.65,47.48 C141.13,44.87 142.93,41.64 143.74,38.14 C143.74,38.14 183.9,39.55 183.9,39.55 C186.41,43.4 189.73,46.72 193.59,49.23 C193.59,49.23 193.59,49.22 193.59,49.22z "/><path id="_R_G_L_2_G_D_9_P_0" fill="#265e4b" fill-opacity="1" fill-rule="nonzero" d=" M188.97 32.51 C186.14,29.4 182.4,27.29 179.07,24.72 C172.24,19.47 167.03,12.17 164.24,4.04 C163.98,3.27 162.9,3.32 162.68,4.09 C161.05,9.66 156.74,15.55 152.78,19.2 C148.06,23.57 142.33,26.66 136.6,29.59 C135.41,30.2 134.19,30.82 133.24,31.75 C132.28,32.69 131.61,34.02 131.79,35.35 C132,36.83 133.24,38 134.62,38.57 C136.01,39.13 137.55,39.2 139.04,39.26 C137.88,40.86 138.29,43.37 139.89,44.53 C141.49,45.69 144.01,45.29 145.18,43.7 C145.59,45.58 146.01,47.48 146.91,49.19 C147.79,50.9 149.23,52.42 151.07,52.98 C154.12,53.91 157.73,51.59 158.13,48.44 C158.73,49.96 160.32,51.05 161.96,51.05 C163.61,51.05 165.2,49.97 165.81,48.45 C166.73,51.34 169.94,53.32 172.96,52.85 C175.97,52.38 178.42,49.52 178.42,46.48 C180.24,48.6 183.23,49.66 185.99,49.17 C188.75,48.68 191.18,46.65 192.16,44.04 C193.64,40.11 191.81,35.6 188.97,32.5 C188.97,32.5 188.97,32.51 188.97,32.51z "/><path id="_R_G_L_2_G_D_10_P_0" fill="#ffffff" fill-opacity="1" fill-rule="nonzero" d=" M184.67 28.63 C174.76,32.79 163.39,32.8 153.5,28.57 C150.81,27.41 148.25,25.96 145.87,24.26 C145.47,23.97 145.09,24.63 145.48,24.92 C154.21,31.18 165.25,33.74 175.86,31.98 C178.96,31.46 181.98,30.58 184.87,29.37 C185.32,29.18 185.12,28.44 184.67,28.63z "/><path id="_R_G_L_2_G_D_11_P_0" fill="#f8a12e" fill-opacity="1" fill-rule="nonzero" d=" M181.01 25.72 C176.16,29.6 170,31.34 163.93,32.14 C160.64,32.57 157.32,32.77 154.01,32.93 C150.79,33.09 147.57,33.17 144.37,33.01 C140.7,32.83 137.06,32.31 133.54,31.23 C133.07,31.08 132.87,31.83 133.34,31.97 C139.7,33.92 146.42,34.03 153.02,33.74 C159.59,33.45 166.34,33.1 172.63,31 C175.85,29.93 178.9,28.39 181.55,26.26 C181.94,25.96 181.39,25.42 181.01,25.72 C181.01,25.72 181.01,25.72 181.01,25.72z "/><path id="_R_G_L_2_G_D_12_P_0" fill="#f8a12e" fill-opacity="1" fill-rule="nonzero" d=" M192.44 48.37 C186.85,53.68 179.68,57.28 172.07,58.64 C164.28,60.04 156.1,58.94 148.9,55.67 C146.87,54.75 144.91,53.65 143.07,52.4 C141.34,51.23 139.44,49.88 138.69,47.85 C138.52,47.39 137.78,47.59 137.95,48.05 C138.62,49.84 140.01,51.11 141.51,52.23 C143.16,53.45 144.92,54.53 146.75,55.48 C150.41,57.36 154.36,58.69 158.42,59.4 C166.37,60.78 174.57,59.7 181.92,56.38 C186,54.53 189.75,52 193,48.92 C193.35,48.58 192.81,48.04 192.45,48.38 C192.45,48.38 192.44,48.37 192.44,48.37z "/><path id="_R_G_L_2_G_D_13_P_0" fill="#ffffff" fill-opacity="1" fill-rule="nonzero" d=" M194.05 49.25 C187.76,55.67 179.6,60.18 170.83,62.19 C161.9,64.24 152.48,63.5 143.92,60.27 C139.05,58.43 134.49,55.79 130.51,52.46 C130.13,52.14 129.59,52.68 129.96,53 C137.16,59 146.11,62.78 155.42,63.83 C164.63,64.86 174.01,63.06 182.25,58.85 C186.82,56.52 191.01,53.46 194.6,49.8 C194.94,49.44 194.4,48.9 194.06,49.26 C194.06,49.26 194.05,49.25 194.05,49.25z "/><path id="_R_G_L_2_G_D_14_P_0" fill="#f8a12e" fill-opacity="1" fill-rule="nonzero" d=" M195.85 71.52 C187.36,76.25 177.83,78.89 168.18,79.79 C163.37,80.24 158.54,80.27 153.73,79.95 C148.62,79.59 143.41,78.87 138.68,76.81 C134.22,74.87 130.22,71.66 128.03,67.26 C127.81,66.82 127.15,67.21 127.37,67.65 C129.33,71.61 132.77,74.67 136.66,76.69 C141.18,79.04 146.27,80.02 151.3,80.51 C161.15,81.46 171.23,80.87 180.82,78.34 C186.19,76.93 191.39,74.88 196.23,72.18 C196.67,71.94 196.28,71.28 195.84,71.52 C195.84,71.52 195.85,71.52 195.85,71.52z "/><path id="_R_G_L_2_G_D_15_P_0" fill="#ffffff" fill-opacity="1" fill-rule="nonzero" d=" M203.66 81.26 C199.31,84.02 194.24,85.32 189.15,85.89 C183.79,86.49 178.32,86.49 172.94,86.08 C162.54,85.28 152.19,82.49 143.41,76.75 C138.92,73.81 134.9,70.13 131.75,65.78 C131.47,65.39 130.8,65.77 131.09,66.17 C136.81,74.06 145.17,79.7 154.29,83 C159.61,84.93 165.18,86.08 170.79,86.65 C176.33,87.22 181.96,87.28 187.5,86.81 C193.28,86.33 199.11,85.06 204.05,81.93 C204.47,81.66 204.08,81 203.66,81.26z "/><path id="_R_G_L_2_G_D_16_P_0" fill="#f8a12e" fill-opacity="1" fill-rule="nonzero" d=" M201.71 96.74 C193.61,102.85 183.68,106.38 173.56,107 C168.48,107.32 163.35,106.91 158.4,105.72 C153.13,104.47 148.12,102.3 143.43,99.61 C137.93,96.46 132.85,92.65 127.92,88.68 C127.54,88.38 127,88.91 127.38,89.22 C131.81,92.79 136.36,96.24 141.23,99.21 C145.98,102.09 151.06,104.52 156.42,106.01 C161.37,107.38 166.53,107.99 171.66,107.86 C176.79,107.73 181.92,106.86 186.8,105.29 C191.69,103.72 196.35,101.45 200.56,98.52 C201.08,98.16 201.59,97.79 202.1,97.4 C202.49,97.11 202.11,96.44 201.71,96.74 C201.71,96.74 201.71,96.74 201.71,96.74z "/><path id="_R_G_L_2_G_D_17_P_0" fill="#ffffff" fill-opacity="1" fill-rule="nonzero" d=" M203.5 98.56 C193.21,103.88 181.86,107.1 170.31,108.02 C158.94,108.91 147.43,107.52 136.58,103.99 C130.48,102 124.62,99.35 119.11,96.08 C118.68,95.83 118.3,96.49 118.72,96.74 C123.67,99.68 128.92,102.13 134.35,104.04 C139.78,105.96 145.39,107.34 151.09,108.16 C156.82,108.98 162.63,109.25 168.42,108.92 C174.21,108.59 179.96,107.69 185.58,106.23 C191.22,104.77 196.71,102.75 201.95,100.2 C202.6,99.89 203.25,99.56 203.88,99.23 C204.32,99.01 203.93,98.34 203.49,98.57 C203.49,98.57 203.5,98.56 203.5,98.56z "/><path id="_R_G_L_2_G_D_18_P_0" fill="#f8a12e" fill-opacity="1" fill-rule="nonzero" d=" M210.01 116.33 C204.71,119.97 198.92,122.87 192.84,124.95 C186.77,127.04 180.41,128.32 174,128.73 C167.67,129.14 161.3,128.68 155.09,127.38 C149.03,126.1 143.14,124.03 137.61,121.25 C132.07,118.47 126.9,114.98 122.27,110.87 C121.7,110.36 121.14,109.84 120.58,109.32 C120.23,108.98 119.68,109.52 120.04,109.86 C124.58,114.16 129.68,117.86 135.18,120.84 C140.68,123.83 146.57,126.11 152.65,127.6 C158.82,129.11 165.19,129.8 171.54,129.61 C178.03,129.42 184.5,128.35 190.71,126.45 C196.91,124.56 202.87,121.83 208.34,118.35 C209.03,117.91 209.71,117.45 210.39,116.99 C210.8,116.71 210.41,116.05 210,116.33 C210,116.33 210.01,116.33 210.01,116.33z "/><path id="_R_G_L_2_G_D_19_P_0" fill="#ffffff" fill-opacity="1" fill-rule="nonzero" d=" M208.12 114.64 C202.43,117.45 196.5,119.74 190.41,121.49 C184.32,123.25 178.08,124.47 171.77,125.12 C165.46,125.78 159.1,125.87 152.77,125.39 C146.45,124.92 140.18,123.87 134.04,122.29 C127.91,120.71 121.91,118.58 116.15,115.94 C115.43,115.61 114.72,115.27 114.01,114.93 C113.57,114.71 113.18,115.38 113.62,115.59 C119.35,118.37 125.33,120.65 131.47,122.38 C137.63,124.12 143.95,125.32 150.32,125.94 C156.69,126.57 163.12,126.63 169.5,126.1 C175.85,125.57 182.16,124.49 188.33,122.86 C194.52,121.23 200.56,119.03 206.36,116.33 C207.07,115.99 207.79,115.65 208.49,115.3 C208.94,115.09 208.55,114.42 208.1,114.64 C208.1,114.64 208.12,114.64 208.12,114.64z "/><path id="_R_G_L_2_G_D_20_P_0" fill="#bd212e" fill-opacity="1" fill-rule="nonzero" d=" M124.97 123.4 C123.96,126.26 120.45,127.9 117.22,126.77 C114,125.64 112.3,122.15 113.31,119.29 C114.32,116.42 117.76,115.03 120.98,116.16 C124.2,117.29 125.98,120.53 124.97,123.39 C124.97,123.39 124.97,123.4 124.97,123.4z "/><path id="_R_G_L_2_G_D_21_P_0" fill="#de6872" fill-opacity="1" fill-rule="nonzero" d=" M124.92 119.93 C124.9,120.01 124.88,120.09 124.85,120.16 C123.84,123.03 120.32,124.67 117.1,123.54 C115.18,122.86 113.8,121.34 113.22,119.62 C112.44,122.42 114.13,125.68 117.22,126.77 C120.44,127.9 123.96,126.26 124.97,123.4 C125.38,122.25 125.33,121.04 124.92,119.93z "/><path id="_R_G_L_2_G_D_22_P_0" fill="#bd212e" fill-opacity="1" fill-rule="nonzero" d=" M211.18 125.15 C211.77,128.13 209.58,131.33 206.23,131.99 C202.88,132.64 199.64,130.51 199.06,127.53 C198.47,124.55 200.71,121.6 204.06,120.95 C207.41,120.29 210.6,122.17 211.18,125.15z "/><path id="_R_G_L_2_G_D_23_P_0" fill="#de6872" fill-opacity="1" fill-rule="nonzero" d=" M209.38 122.19 C209.4,122.28 209.42,122.35 209.44,122.43 C210.02,125.41 207.84,128.61 204.49,129.27 C202.48,129.66 200.53,129.05 199.14,127.86 C199.9,130.66 203.02,132.62 206.24,131.99 C209.59,131.33 211.78,128.13 211.19,125.15 C210.95,123.95 210.3,122.94 209.38,122.19z "/><path id="_R_G_L_2_G_D_24_P_0" fill="#bd212e" fill-opacity="1" fill-rule="nonzero" d=" M195.66 104.9 C196.01,106.69 194.69,108.61 192.68,109.01 C190.67,109.4 188.71,108.12 188.36,106.33 C188.01,104.54 189.36,102.77 191.37,102.37 C193.38,101.97 195.3,103.11 195.65,104.89 C195.65,104.89 195.66,104.9 195.66,104.9z "/><path id="_R_G_L_2_G_D_25_P_0" fill="#de6872" fill-opacity="1" fill-rule="nonzero" d=" M194.57 103.12 C194.58,103.17 194.59,103.21 194.6,103.26 C194.95,105.05 193.64,106.97 191.63,107.37 C190.43,107.6 189.25,107.24 188.41,106.53 C188.87,108.21 190.74,109.39 192.68,109.01 C194.69,108.61 196.01,106.69 195.66,104.9 C195.51,104.18 195.12,103.57 194.57,103.12 C194.57,103.12 194.57,103.12 194.57,103.12z "/><path id="_R_G_L_2_G_D_26_P_0" fill="#bd212e" fill-opacity="1" fill-rule="nonzero" d=" M180.52 30.6 C180.88,32.39 179.56,34.31 177.55,34.71 C175.53,35.11 173.58,33.82 173.23,32.03 C172.88,30.25 174.22,28.47 176.24,28.08 C178.25,27.68 180.17,28.81 180.52,30.6 C180.52,30.6 180.52,30.6 180.52,30.6z "/><path id="_R_G_L_2_G_D_27_P_0" fill="#de6872" fill-opacity="1" fill-rule="nonzero" d=" M179.43 28.82 C179.44,28.87 179.46,28.92 179.47,28.97 C179.82,30.75 178.51,32.68 176.49,33.08 C175.29,33.31 174.11,32.95 173.28,32.24 C173.74,33.92 175.61,35.09 177.55,34.71 C179.56,34.32 180.88,32.39 180.52,30.6 C180.38,29.88 179.99,29.27 179.43,28.82z "/><path id="_R_G_L_2_G_D_28_P_0" fill="#bd212e" fill-opacity="1" fill-rule="nonzero" d=" M168.88 64.94 C169.18,66.74 167.81,68.63 165.79,68.96 C163.76,69.29 161.85,67.96 161.55,66.16 C161.26,64.36 162.65,62.62 164.68,62.29 C166.7,61.96 168.59,63.14 168.88,64.95 C168.88,64.95 168.88,64.94 168.88,64.94z "/><path id="_R_G_L_2_G_D_29_P_0" fill="#de6872" fill-opacity="1" fill-rule="nonzero" d=" M167.85 63.13 C167.86,63.18 167.87,63.23 167.88,63.27 C168.18,65.07 166.8,66.96 164.78,67.29 C163.57,67.5 162.41,67.09 161.6,66.35 C162,68.05 163.83,69.28 165.79,68.96 C167.81,68.62 169.18,66.74 168.88,64.94 C168.76,64.22 168.38,63.59 167.85,63.13 C167.85,63.13 167.85,63.13 167.85,63.13z "/><path id="_R_G_L_2_G_D_30_P_0" fill="#bd212e" fill-opacity="1" fill-rule="nonzero" d=" M146.12 82.7 C145.21,84.99 142.31,86.21 139.74,85.19 C137.17,84.18 135.9,81.31 136.81,79.02 C137.72,76.74 140.54,75.71 143.11,76.73 C145.68,77.74 147.03,80.42 146.12,82.7z "/><path id="_R_G_L_2_G_D_31_P_0" fill="#de6872" fill-opacity="1" fill-rule="nonzero" d=" M146.18 79.9 C146.16,79.96 146.14,80.02 146.12,80.09 C145.21,82.37 142.31,83.6 139.74,82.58 C138.2,81.97 137.14,80.71 136.72,79.29 C136.01,81.53 137.27,84.22 139.73,85.19 C142.31,86.21 145.2,84.99 146.11,82.7 C146.48,81.78 146.47,80.8 146.18,79.9 C146.18,79.9 146.18,79.9 146.18,79.9z "/><path id="_R_G_L_2_G_D_32_P_0" fill="#ffc036" fill-opacity="1" fill-rule="nonzero" d=" M153.54 130.72 C153.31,132.94 151.07,134.72 148.57,134.46 C146.07,134.2 144.25,132 144.48,129.77 C144.71,127.55 146.93,125.95 149.43,126.21 C151.93,126.47 153.77,128.49 153.54,130.71 C153.54,130.71 153.54,130.72 153.54,130.72z "/><path id="_R_G_L_2_G_D_33_P_0" fill="#ffd475" fill-opacity="1" fill-rule="nonzero" d=" M152.91 128.24 C152.91,128.3 152.91,128.36 152.9,128.42 C152.67,130.65 150.43,132.43 147.93,132.17 C146.43,132.01 145.18,131.16 144.47,130.02 C144.39,132.16 146.16,134.21 148.57,134.46 C151.07,134.72 153.31,132.94 153.54,130.71 C153.63,129.82 153.39,128.96 152.9,128.24 C152.9,128.24 152.91,128.24 152.91,128.24z "/><path id="_R_G_L_2_G_D_34_P_0" fill="#ffc036" fill-opacity="1" fill-rule="nonzero" d=" M156.83 109.9 C156.59,112.12 154.36,113.9 151.85,113.64 C149.35,113.38 147.53,111.18 147.76,108.95 C147.99,106.73 150.21,105.13 152.71,105.39 C155.21,105.65 157.06,107.67 156.82,109.89 C156.82,109.89 156.83,109.9 156.83,109.9z "/><path id="_R_G_L_2_G_D_35_P_0" fill="#ffd475" fill-opacity="1" fill-rule="nonzero" d=" M156.19 107.42 C156.19,107.48 156.19,107.54 156.18,107.6 C155.95,109.83 153.71,111.61 151.2,111.35 C149.71,111.19 148.46,110.34 147.75,109.2 C147.67,111.34 149.44,113.38 151.85,113.64 C154.35,113.9 156.58,112.12 156.82,109.89 C156.91,109 156.67,108.14 156.18,107.41 C156.18,107.41 156.19,107.42 156.19,107.42z "/><path id="_R_G_L_2_G_D_36_P_0" fill="#ffc036" fill-opacity="1" fill-rule="nonzero" d=" M189.66 58.14 C189.43,60.36 187.19,62.14 184.68,61.88 C182.18,61.62 180.36,59.41 180.59,57.19 C180.82,54.96 183.05,53.37 185.55,53.63 C188.05,53.89 189.89,55.9 189.65,58.13 C189.65,58.13 189.66,58.14 189.66,58.14z "/><path id="_R_G_L_2_G_D_37_P_0" fill="#ffd475" fill-opacity="1" fill-rule="nonzero" d=" M189.02 55.66 C189.02,55.72 189.02,55.78 189.01,55.84 C188.78,58.06 186.54,59.85 184.04,59.58 C182.54,59.43 181.3,58.58 180.58,57.44 C180.5,59.58 182.27,61.62 184.68,61.88 C187.18,62.14 189.42,60.36 189.65,58.13 C189.75,57.24 189.5,56.38 189.02,55.65 C189.02,55.65 189.02,55.66 189.02,55.66z "/><path id="_R_G_L_2_G_D_38_P_0" fill="#ffc036" fill-opacity="1" fill-rule="nonzero" d=" M145.34 59.32 C144.52,61.4 141.89,62.53 139.55,61.62 C137.21,60.7 136.03,58.1 136.85,56.01 C137.67,53.93 140.23,52.98 142.57,53.89 C144.91,54.81 146.15,57.23 145.33,59.32 C145.33,59.32 145.34,59.32 145.34,59.32z "/><path id="_R_G_L_2_G_D_39_P_0" fill="#ffd475" fill-opacity="1" fill-rule="nonzero" d=" M145.38 56.77 C145.36,56.83 145.35,56.88 145.33,56.94 C144.51,59.03 141.88,60.15 139.54,59.24 C138.14,58.69 137.16,57.54 136.77,56.26 C136.13,58.3 137.29,60.74 139.55,61.62 C141.89,62.53 144.52,61.4 145.34,59.32 C145.67,58.48 145.66,57.59 145.38,56.77z "/><path id="_R_G_L_2_G_D_40_P_0" fill="#ffc036" fill-opacity="1" fill-rule="nonzero" d=" M190.58 81.32 C190.35,83.55 188.12,85.33 185.61,85.07 C183.11,84.81 181.29,82.6 181.52,80.38 C181.75,78.15 183.97,76.56 186.47,76.82 C188.97,77.08 190.81,79.09 190.58,81.32 C190.58,81.32 190.58,81.32 190.58,81.32z "/><path id="_R_G_L_2_G_D_41_P_0" fill="#ffd475" fill-opacity="1" fill-rule="nonzero" d=" M189.95 78.85 C189.95,78.9 189.95,78.96 189.94,79.02 C189.71,81.25 187.47,83.03 184.97,82.77 C183.47,82.62 182.22,81.77 181.51,80.63 C181.43,82.77 183.2,84.81 185.61,85.06 C188.11,85.32 190.34,83.54 190.58,81.32 C190.67,80.43 190.43,79.57 189.94,78.84 C189.94,78.84 189.95,78.85 189.95,78.85z "/><path id="_R_G_L_2_G_D_42_P_0" fill="#ffc036" fill-opacity="1" fill-rule="nonzero" d=" M167.56 35.92 C167.33,38.14 165.09,39.92 162.59,39.66 C160.08,39.4 158.27,37.19 158.5,34.97 C158.73,32.74 160.95,31.15 163.45,31.41 C165.95,31.67 167.79,33.68 167.56,35.91 C167.56,35.91 167.56,35.92 167.56,35.92z "/><path id="_R_G_L_2_G_D_43_P_0" fill="#ffd475" fill-opacity="1" fill-rule="nonzero" d=" M166.93 33.44 C166.93,33.5 166.93,33.56 166.92,33.62 C166.69,35.84 164.45,37.63 161.95,37.36 C160.45,37.21 159.21,36.36 158.49,35.22 C158.41,37.36 160.18,39.4 162.59,39.65 C165.09,39.92 167.33,38.14 167.56,35.91 C167.66,35.02 167.41,34.16 166.93,33.43 C166.93,33.43 166.93,33.44 166.93,33.44z "/><path id="_R_G_L_2_G_D_44_P_0" fill="#f8a12e" fill-opacity="1" fill-rule="nonzero" d=" M161.73 2.79 C160.44,5.81 159.16,8.83 157.87,11.85 C157.71,12.22 157.55,12.61 157.58,13.01 C157.61,13.51 157.94,13.95 158.34,14.24 C158.75,14.53 159.23,14.69 159.71,14.83 C162.71,15.68 165.9,15.83 168.95,15.25 C169.46,15.15 170.03,15.01 170.3,14.56 C170.69,13.94 170.29,13.15 169.92,12.52 C168.44,9.99 167.33,7.24 166.64,4.39 C166.46,3.66 166.31,2.9 165.91,2.26 C164.67,0.25 162.54,0.87 161.73,2.79z "/><path id="_R_G_L_2_G_D_45_P_0" fill="#ffffff" fill-opacity="1" fill-rule="nonzero" d=" M203.27 97.92 C201.9,98.05 200.61,98.85 199.9,100.02 C198.69,102 199.08,104.86 197.34,106.4 C196.21,107.4 194.55,107.49 193.05,107.4 C191.54,107.31 189.96,107.11 188.58,107.72 C187.46,108.2 186.61,109.15 185.53,109.72 C183.49,110.79 181.03,110.33 178.73,110.5 C177.62,110.57 176.46,110.83 175.59,111.53 C174.72,112.23 174.22,113.47 174.65,114.5 C175.06,115.48 176.19,116 177.26,116.01 C178.32,116.02 179.34,115.61 180.31,115.18 C181.29,114.75 182.27,114.29 183.33,114.19 C185.87,113.95 188.3,115.83 190.81,115.38 C193.18,114.95 194.71,112.63 196.88,111.56 C198.85,110.59 201.18,110.74 203.35,111.09 C205.53,111.43 207.73,111.94 209.91,111.6 C212.08,111.26 214.27,109.82 214.67,107.67 C214.95,106.11 214.25,104.51 213.19,103.34 C211.75,101.74 209.74,100.79 207.93,99.69 C206.48,98.82 205.05,97.77 203.26,97.92 C203.26,97.92 203.27,97.92 203.27,97.92z "/><path id="_R_G_L_2_G_D_46_P_0" fill="#ffffff" fill-opacity="1" fill-rule="nonzero" d=" M136.65 58.95 C138.81,61.23 142.14,61.95 145.26,62.24 C148.39,62.54 151.64,62.55 154.49,63.84 C155.59,64.33 156.74,65.35 156.44,66.5 C156.22,67.34 155.33,67.79 154.54,68.15 C153.13,68.78 151.71,69.41 150.29,70.04 C148.84,70.69 147.29,71.35 145.71,71.13 C143.68,70.84 142.16,69.16 140.91,67.53 C139.67,65.9 138.4,64.11 136.47,63.4 C133.9,62.45 130.96,63.72 128.33,62.97 C125.91,62.27 124.16,59.73 124.39,57.23 C124.63,54.67 127.41,51.6 130.19,52.26 C133.45,53.03 134.6,56.79 136.65,58.96 C136.65,58.96 136.65,58.95 136.65,58.95z "/><path id="_R_G_L_2_G_D_47_P_0" fill="#ffffff" fill-opacity="1" fill-rule="nonzero" d=" M192 36.64 C192.29,37.6 192.38,38.78 191.65,39.47 C191.27,39.82 190.75,39.96 190.29,40.2 C187.71,41.54 187.71,45.53 185.28,47.12 C183.8,48.1 181.83,47.88 180.16,47.29 C178.48,46.7 176.92,45.78 175.18,45.42 C173.61,45.09 171.94,45.25 170.46,45.86 C169.23,46.37 168.12,47.19 166.83,47.52 C165.54,47.86 163.9,47.51 163.37,46.29 C162.91,45.21 163.5,43.96 164.29,43.09 C165.35,41.93 166.81,41.13 168.37,40.84 C169.84,40.57 171.37,40.77 172.85,40.56 C174.34,40.35 175.91,39.58 176.37,38.16 C176.61,37.4 176.5,36.57 176.54,35.76 C176.58,34.96 176.83,34.07 177.55,33.68 C178.37,33.24 179.56,33.63 180.23,32.97 C180.69,32.51 180.67,31.77 180.51,31.14 C180.35,30.52 180.08,29.89 180.15,29.25 C180.27,28.23 181.25,27.48 182.27,27.35 C183.28,27.23 184.3,27.62 185.18,28.14 C186.83,29.1 187.7,30.54 188.98,31.86 C190.35,33.26 191.43,34.73 192,36.63 C192,36.63 192,36.64 192,36.64z "/><path id="_R_G_L_2_G_D_48_P_0" fill="#c47640" fill-opacity="1" fill-rule="nonzero" d=" M77.52 90.54 C78.41,89.96 78.94,88.88 78.86,87.83 C78.79,86.77 78.11,85.79 77.15,85.34 C77.18,83.91 76.64,82.47 75.66,81.43 C75.34,81.09 74.91,80.76 74.45,80.84 C74.07,80.89 73.77,81.2 73.61,81.55 C73.46,81.9 73.42,82.29 73.37,82.67 C72.74,87.21 69.63,91.34 65.43,93.23 C65.43,93.23 66.06,93.79 66.06,93.79 C66.71,97.94 68.77,101.8 71.01,105.36 C73.02,104.93 74.82,103.64 75.88,101.88 C76.94,100.13 77.23,97.93 76.69,95.96 C77.73,95.57 78.53,94.59 78.69,93.49 C78.86,92.39 78.4,91.22 77.52,90.54 C77.52,90.54 77.52,90.54 77.52,90.54z "/><path id="_R_G_L_2_G_D_49_P_0" fill="#915123" fill-opacity="1" fill-rule="nonzero" d=" M13.6 114.89 C13.6,114.89 2.11,154.2 2.78,154.97 C3.64,155.95 12.9,156.5 13.53,155.32 C14.05,154.35 18.99,116.26 18.99,116.26 C18.99,116.26 13.6,114.89 13.6,114.89z "/><path id="_R_G_L_2_G_D_50_P_0" fill="#c47640" fill-opacity="1" fill-rule="nonzero" d=" M24.46 116.04 C24.46,116.04 24.39,118.98 24.27,123.26 C24.09,130.15 23.78,140.5 23.48,147.61 C23.3,152.06 23.13,155.26 22.98,155.53 C22.34,156.71 13.08,156.16 12.23,155.18 C12.03,154.96 12.51,151.58 13.28,146.86 C14.53,139.25 16.56,128.17 17.85,121.19 C18.58,117.29 19.07,114.68 19.07,114.68 C19.07,114.68 24.47,116.04 24.47,116.04 C24.47,116.04 24.46,116.04 24.46,116.04z "/><path id="_R_G_L_2_G_D_51_P_0" fill="#915123" fill-opacity="1" fill-rule="nonzero" d=" M53.04 114.68 C53.04,114.68 45.52,154.41 46.19,155.19 C47.05,156.16 56.31,156.71 56.94,155.53 C57.46,154.57 58.43,116.04 58.43,116.04 C58.43,116.04 53.04,114.68 53.04,114.68z "/><path id="_R_G_L_2_G_D_52_P_0" fill="#c47640" fill-opacity="1" fill-rule="nonzero" d=" M64.74 122.08 C64.74,122.08 66.57,136.91 67.76,146.69 C68.32,151.36 68.73,154.87 68.73,155.09 C68.73,155.75 59.6,156.04 58.17,155.47 C57.72,155.28 57.55,151.83 57.54,147.21 C57.51,137.69 58.12,123.22 58.16,122.06 C58.17,122 58.17,121.98 58.17,121.98 C58.06,122.01 57.97,122.04 57.86,122.06 C57.38,122.19 56.91,122.31 56.44,122.43 C55.91,122.56 55.38,122.7 54.86,122.82 C53.54,123.14 52.25,123.42 50.99,123.65 C50.55,123.73 50.11,123.82 49.68,123.89 C39.26,125.71 31.11,125.04 24.25,123.25 C24.22,123.25 24.19,123.24 24.16,123.23 C22.02,122.68 20.01,122.02 18.1,121.29 C18.01,121.25 17.92,121.23 17.83,121.19 C10.61,118.33 5.59,111.35 2.95,104 C2.83,103.67 2.72,103.34 2.6,103 C0.28,95.94 0.25,88.26 1.77,80.96 C1.93,80.2 2.1,79.45 2.29,78.71 C2.29,78.71 16.11,78.71 16.11,78.71 C16.11,78.71 15.26,91.06 22.87,93.81 C30.48,96.56 47.22,87.17 57.02,87.36 C66.82,87.55 74.14,94.95 74.05,106.42 C73.95,117.91 64.73,122.07 64.73,122.07 C64.73,122.07 64.74,122.08 64.74,122.08z "/><path id="_R_G_L_2_G_D_53_P_0" fill="#fac6a3" fill-opacity="1" fill-rule="nonzero" d=" M58.17 122.06 C58.18,122 58.18,121.98 58.18,121.98 C58.08,122.01 57.98,122.04 57.87,122.06 C57.4,122.19 56.92,122.31 56.45,122.43 C55.93,122.56 55.39,122.7 54.87,122.82 C53.55,123.14 52.26,123.42 51,123.65 C50.56,123.73 50.13,123.82 49.69,123.89 C39.23,125.71 31.05,125.03 24.17,123.23 C23.76,120.89 23.4,118.51 23.96,116.21 C24.56,113.75 26.45,111.38 29.17,110.82 C31.85,110.26 34.51,111.51 37.16,112.15 C40.27,112.9 43.62,112.8 46.67,111.86 C48.63,111.26 50.47,110.31 52.5,109.89 C54.53,109.47 56.91,109.7 58.29,111.1 C59.14,111.97 59.48,113.15 59.58,114.3 C59.83,116.96 59.08,119.52 58.16,122.06 C58.16,122.06 58.17,122.06 58.17,122.06z "/><path id="_R_G_L_2_G_D_54_P_0" fill="#fac6a3" fill-opacity="1" fill-rule="nonzero" d=" M9.52 105.78 C9.52,107.39 8.74,108.7 7.78,108.7 C6.82,108.7 6.05,107.4 6.05,105.78 C6.05,104.16 6.82,102.85 7.78,102.85 C8.74,102.85 9.52,104.17 9.52,105.78z "/><path id="_R_G_L_2_G_D_55_P_0" fill="#fac6a3" fill-opacity="1" fill-rule="nonzero" d=" M11.54 109.86 C11.54,110.72 11.12,111.42 10.61,111.42 C10.09,111.42 9.68,110.72 9.68,109.86 C9.68,109 10.09,108.29 10.61,108.29 C11.12,108.29 11.54,109 11.54,109.86z "/><path id="_R_G_L_2_G_D_56_P_0" fill="#fac6a3" fill-opacity="1" fill-rule="nonzero" d=" M13.24 106.38 C13.24,107.37 12.76,108.17 12.18,108.17 C11.59,108.17 11.11,107.37 11.11,106.38 C11.11,105.39 11.59,104.59 12.18,104.59 C12.76,104.59 13.24,105.39 13.24,106.38z "/><path id="_R_G_L_2_G_D_57_P_0" fill="#4a2b16" fill-opacity="1" fill-rule="nonzero" d=" M23.48 147.61 C23.3,152.07 23.12,155.27 22.97,155.53 C22.34,156.72 13.08,156.17 12.22,155.19 C12.03,154.97 12.5,151.59 13.28,146.86 C15.02,146.64 16.77,146.46 18.53,146.53 C20.23,146.6 21.94,146.92 23.48,147.61z "/><path id="_R_G_L_2_G_D_58_P_0" fill="#4a2b16" fill-opacity="1" fill-rule="nonzero" d=" M68.74 155.09 C68.74,155.75 59.6,156.04 58.18,155.47 C57.72,155.28 57.56,151.83 57.54,147.21 C60.83,146.18 64.38,146.01 67.76,146.69 C68.32,151.36 68.73,154.87 68.73,155.09 C68.73,155.09 68.74,155.09 68.74,155.09z "/><path id="_R_G_L_2_G_D_59_P_0" fill="#94131f" fill-opacity="1" fill-rule="nonzero" d=" M89.16 7.49 C86.33,8.96 90.11,19.82 90.11,19.82 C90.11,19.82 97.02,20.89 97.02,20.89 C97.02,20.89 92.64,9.92 94.36,8.78 C94.36,8.78 91.7,6.17 89.16,7.49z "/><path id="_R_G_L_2_G_D_60_P_0" fill="#bd212e" fill-opacity="1" fill-rule="nonzero" d=" M107.9 20.12 C107.9,20.12 102.7,6.63 100.38,6.16 C98.06,5.69 90.89,5.71 89.16,7.49 C89.16,7.49 91.91,7.07 93.75,9.19 C95.6,11.31 97.93,20.97 97.93,20.97 C97.93,20.97 107.9,20.11 107.9,20.11 C107.9,20.11 107.9,20.12 107.9,20.12z "/><path id="_R_G_L_2_G_D_61_P_0" fill="#94131f" fill-opacity="1" fill-rule="nonzero" d=" M125.96 10.57 C128.5,12.49 122.96,22.57 122.96,22.57 C122.96,22.57 115.97,22.48 115.97,22.48 C115.97,22.48 122.12,12.39 120.62,10.98 C120.62,10.98 123.67,8.85 125.96,10.57 C125.96,10.57 125.96,10.57 125.96,10.57z "/><path id="_R_G_L_2_G_D_62_P_0" fill="#bd212e" fill-opacity="1" fill-rule="nonzero" d=" M105.37 19.91 C105.37,19.91 112.75,7.47 115.12,7.39 C117.48,7.31 124.55,8.52 125.96,10.56 C125.96,10.56 123.31,9.7 121.14,11.48 C118.97,13.25 115.06,22.39 115.06,22.39 C115.06,22.39 105.37,19.9 105.37,19.9 C105.37,19.9 105.37,19.91 105.37,19.91z "/><path id="_R_G_L_2_G_D_63_P_0" fill="#e65764" fill-opacity="1" fill-rule="nonzero" d=" M112.49 20.12 C112.24,23.13 109.31,25.33 105.95,25.06 C102.59,24.78 100.06,22.11 100.32,19.11 C100.57,16.1 103.5,13.9 106.86,14.17 C110.22,14.45 112.75,17.12 112.49,20.12z "/><path id="_R_G_L_2_G_D_64_P_0" fill="#f8a12e" fill-opacity="1" fill-rule="nonzero" d=" M124.69 26.37 C124.69,26.37 124.19,35.81 124.19,35.81 C124.19,35.81 124.08,37.81 124.08,37.81 C124.08,37.81 123.93,40.71 123.93,40.71 C123.93,40.71 123.83,42.72 123.83,42.72 C123.83,42.72 123.67,45.6 123.67,45.6 C123.67,45.6 123.56,47.61 123.56,47.61 C123.56,47.61 123.41,50.5 123.41,50.5 C123.41,50.5 123.3,52.51 123.3,52.51 C123.3,52.51 123.15,55.39 123.15,55.39 C123.15,55.39 123.04,57.4 123.04,57.4 C123.04,57.4 122.8,61.95 122.8,61.95 C122.8,61.95 82.5,57.08 82.5,57.08 C82.5,57.08 83.17,52.95 83.17,52.95 C83.17,52.95 83.48,50.98 83.48,50.98 C83.48,50.98 83.96,48.04 83.96,48.04 C83.96,48.04 84.27,46.06 84.27,46.06 C84.27,46.06 84.75,43.13 84.75,43.13 C84.75,43.13 85.07,41.15 85.07,41.15 C85.07,41.15 85.54,38.21 85.54,38.21 C85.54,38.21 85.86,36.23 85.86,36.23 C85.86,36.23 86.33,33.28 86.33,33.28 C86.33,33.28 86.64,31.32 86.64,31.32 C86.64,31.32 87.94,23.3 87.94,23.3 C87.94,23.3 124.69,26.37 124.69,26.37z "/><path id="_R_G_L_2_G_D_65_P_0" fill="#ffffff" fill-opacity="1" fill-rule="nonzero" d=" M124.19 35.81 C124.19,35.81 124.09,37.81 124.09,37.81 C111.47,36.61 98.88,35.1 86.34,33.28 C86.34,33.28 86.65,31.31 86.65,31.31 C89.42,31.71 92.2,32.1 94.98,32.47 C104.69,33.77 114.44,34.88 124.2,35.81 C124.2,35.81 124.19,35.81 124.19,35.81z "/><path id="_R_G_L_2_G_D_66_P_0" fill="#ffffff" fill-opacity="1" fill-rule="nonzero" d=" M123.93 40.71 C123.93,40.71 123.83,42.72 123.83,42.72 C111.03,41.53 98.27,40.03 85.54,38.21 C85.54,38.21 85.86,36.23 85.86,36.23 C88.18,36.57 90.51,36.89 92.83,37.2 C103.17,38.58 113.54,39.74 123.93,40.71z "/><path id="_R_G_L_2_G_D_67_P_0" fill="#ffffff" fill-opacity="1" fill-rule="nonzero" d=" M123.67 45.6 C123.67,45.6 123.56,47.62 123.56,47.62 C110.59,46.44 97.65,44.94 84.75,43.12 C84.75,43.12 85.07,41.15 85.07,41.15 C86.94,41.41 88.82,41.67 90.7,41.92 C101.66,43.38 112.65,44.6 123.67,45.6 C123.67,45.6 123.67,45.6 123.67,45.6z "/><path id="_R_G_L_2_G_D_68_P_0" fill="#ffffff" fill-opacity="1" fill-rule="nonzero" d=" M123.41 50.5 C123.41,50.5 123.31,52.51 123.31,52.51 C122.82,52.47 122.34,52.43 121.85,52.38 C109.19,51.25 96.55,49.8 83.96,48.04 C83.96,48.04 84.27,46.07 84.27,46.07 C85.7,46.27 87.12,46.46 88.56,46.65 C100.14,48.2 111.77,49.48 123.41,50.5z "/><path id="_R_G_L_2_G_D_69_P_0" fill="#ffffff" fill-opacity="1" fill-rule="nonzero" d=" M123.15 55.39 C123.15,55.39 123.04,57.4 123.04,57.4 C121.94,57.3 120.82,57.21 119.71,57.11 C107.49,56.01 95.31,54.63 83.17,52.96 C83.17,52.96 83.48,50.98 83.48,50.98 C84.46,51.12 85.44,51.25 86.42,51.38 C98.63,53 110.88,54.34 123.15,55.39 C123.15,55.39 123.15,55.39 123.15,55.39z "/><path id="_R_G_L_2_G_D_70_P_0" fill="#f8a12e" fill-opacity="1" fill-rule="nonzero" d=" M86.44 17.95 C86.44,17.95 84.7,30.97 84.7,30.97 C84.7,30.97 125.87,34.97 125.87,34.97 C125.87,34.97 127.01,21.34 127.01,21.34 C127.01,21.34 86.44,17.95 86.44,17.95z "/><path id="_R_G_L_2_G_D_71_P_0" fill="#bd212e" fill-opacity="1" fill-rule="nonzero" d=" M101.02 19.17 C101.02,19.17 95.54,58.66 95.54,58.66 C95.54,58.66 109.12,60.3 109.12,60.3 C109.12,60.3 112.49,20.13 112.49,20.13 C112.49,20.13 101.02,19.17 101.02,19.17z "/><path id="_R_G_L_2_G_D_72_P_0" fill="#ffd475" fill-opacity="1" fill-rule="nonzero" d=" M86.67 31.16 C86.67,31.16 124.25,34.84 124.25,34.84 C124.25,34.84 123.95,40.23 123.95,40.23 C123.95,40.23 86.37,33.05 86.37,33.05 C86.37,33.05 86.67,31.16 86.67,31.16z "/><path id="_R_G_L_2_G_D_73_P_0" fill="#ffa126" fill-opacity="1" fill-rule="nonzero" d=" M50.72 26.71 C49.18,29.18 56.5,38.88 56.5,38.88 C56.5,38.88 62.17,37.57 62.17,37.57 C62.17,37.57 54.35,27.97 55.19,26.22 C55.19,26.22 52.1,24.49 50.72,26.7 C50.72,26.7 50.72,26.71 50.72,26.71z "/><path id="_R_G_L_2_G_D_74_P_0" fill="#ffc036" fill-opacity="1" fill-rule="nonzero" d=" M70.08 33.02 C70.08,33.02 60.61,21.15 58.66,21.47 C56.71,21.8 51.29,24.3 50.71,26.71 C50.71,26.71 52.62,25.34 54.89,26.85 C57.15,28.35 62.88,37.34 62.88,37.34 C62.88,37.34 70.08,33.03 70.08,33.03 C70.08,33.03 70.08,33.02 70.08,33.02z "/><path id="_R_G_L_2_G_D_75_P_0" fill="#ffa126" fill-opacity="1" fill-rule="nonzero" d=" M79.84 17.08 C82.56,18.15 82.5,30.29 82.5,30.29 C82.5,30.29 77.17,32.62 77.17,32.62 C77.17,32.62 77.69,20.27 75.97,19.35 C75.97,19.35 77.41,16.13 79.84,17.09 C79.84,17.09 79.84,17.08 79.84,17.08z "/><path id="_R_G_L_2_G_D_76_P_0" fill="#ffc036" fill-opacity="1" fill-rule="nonzero" d=" M68.09 33.68 C68.09,33.68 68.57,18.52 70.33,17.62 C72.1,16.72 77.94,15.49 79.84,17.08 C79.84,17.08 77.49,17.12 76.58,19.68 C75.66,22.24 76.45,32.86 76.45,32.86 C76.45,32.86 68.09,33.68 68.09,33.68z "/><path id="_R_G_L_2_G_D_77_P_0" fill="#ffd270" fill-opacity="1" fill-rule="nonzero" d=" M73.58 31.46 C74.37,33.84 72.85,36.48 70.19,37.35 C67.53,38.23 64.73,37.02 63.94,34.64 C63.15,32.26 64.67,29.62 67.33,28.75 C69.99,27.87 72.79,29.08 73.58,31.46z "/><path id="_R_G_L_2_G_D_78_P_0" fill="#bd212e" fill-opacity="1" fill-rule="nonzero" d=" M55.85 41.88 C55.85,41.88 62.75,69.45 62.75,69.45 C62.75,69.45 95.14,60.07 95.14,60.07 C95.14,60.07 84.94,32.26 84.94,32.26 C84.94,32.26 55.85,41.88 55.85,41.88z "/><path id="_R_G_L_2_G_D_79_P_0" fill="#d13d49" fill-opacity="1" fill-rule="nonzero" d=" M52.96 38.27 C52.96,38.27 55.89,48.79 55.89,48.79 C55.89,48.79 88.66,38.45 88.66,38.45 C88.66,38.45 85.07,27.66 85.07,27.66 C85.07,27.66 52.96,38.27 52.96,38.27z "/><path id="_R_G_L_2_G_D_80_P_0" fill="#ffc036" fill-opacity="1" fill-rule="nonzero" d=" M64.5 34.46 C64.5,34.46 73.23,66.42 73.23,66.42 C73.23,66.42 84.14,63.26 84.14,63.26 C84.14,63.26 73.58,31.46 73.58,31.46 C73.58,31.46 64.5,34.46 64.5,34.46z "/><path id="_R_G_L_2_G_D_81_P_0" fill="#eb8d94" fill-opacity="1" fill-rule="nonzero" d=" M57.46 48.29 C57.46,48.29 87.37,38.88 87.37,38.88 C87.37,38.88 88.92,43.09 88.92,43.09 C88.92,43.09 57.84,49.84 57.84,49.84 C57.84,49.84 57.46,48.29 57.46,48.29z "/><path id="_R_G_L_2_G_D_82_P_0" fill="#77caba" fill-opacity="1" fill-rule="nonzero" d=" M137.06 118.01 C133.78,122.26 129.19,125.33 124.4,127.76 C113.84,133.11 101.88,135.67 90.05,135.11 C85.02,134.87 79.94,134.05 75.38,131.91 C66.57,127.77 60.72,118.57 61.57,108.85 C62,103.86 63.64,99.07 65.05,94.27 C65.71,92 66.31,89.65 66.75,87.28 C66.82,86.89 66.89,86.5 66.95,86.11 C67.26,84.16 67.45,82.19 67.45,80.21 C67.45,78.79 66.96,77.29 66.59,75.92 C65.75,72.83 63.99,69.98 61.56,67.87 C59.67,66.24 57.42,65.05 55.58,63.38 C53.73,61.7 52.26,59.3 52.65,56.83 C53.06,54.25 55.47,52.35 58,51.7 C60.54,51.05 63.22,51.4 65.82,51.75 C69.25,52.22 72.7,52.85 76.15,53.15 C80.23,53.5 84.64,52.91 87.73,50.24 C90.34,47.99 91.93,44.36 95.21,43.3 C100.19,41.69 105.05,47.1 110.24,46.51 C112.74,46.22 114.84,44.58 116.81,43.02 C118.57,41.63 120.53,40.22 122.55,39.22 C123.18,38.91 123.92,38.74 124.68,38.7 C126.12,38.6 127.67,38.91 128.9,39.32 C130.99,40.02 132.88,41.46 133.86,43.44 C134.84,45.41 134.82,47.92 133.58,49.74 C132.39,51.5 130.34,52.42 128.74,53.82 C125.63,56.54 124.37,61.47 126.12,65.28 C128.3,70.02 132.12,73.95 135.01,78.24 C138.98,84.13 141.83,90.88 142.47,97.94 C143.11,105 141.39,112.39 137.06,118.01z "/><path id="_R_G_L_2_G_D_83_P_0" fill="#83decc" fill-opacity="1" fill-rule="nonzero" d=" M137.06 118.01 C133.78,122.26 129.19,125.33 124.4,127.76 C113.84,133.11 101.88,135.67 90.05,135.11 C85.02,134.87 79.94,134.05 75.38,131.91 C66.57,127.77 60.72,118.57 61.57,108.85 C62,103.86 63.64,99.07 65.05,94.27 C65.71,92 66.31,89.65 66.75,87.28 C69.33,88.3 71.95,89.14 74.68,89.61 C79.92,90.53 85.64,89.96 90,86.91 C92.04,85.47 93.72,83.54 95.85,82.23 C98.52,80.59 101.71,80.03 104.82,79.55 C107.92,79.07 111.11,78.61 113.87,77.12 C116.64,75.64 118.94,72.87 118.93,69.74 C118.91,65.93 115.62,62.8 115.25,59.02 C114.94,55.84 116.73,52.85 118.74,50.36 C120.75,47.87 123.09,45.53 124.2,42.54 C124.64,41.34 124.82,39.99 124.68,38.7 C126.12,38.6 127.67,38.91 128.9,39.32 C130.99,40.02 132.88,41.46 133.86,43.44 C134.84,45.41 134.82,47.92 133.58,49.74 C132.39,51.5 130.34,52.42 128.74,53.82 C125.63,56.54 124.37,61.47 126.12,65.28 C128.3,70.02 132.13,73.95 135.01,78.24 C138.98,84.13 141.84,90.88 142.47,97.94 C143.11,105 141.39,112.39 137.06,118.01z "/><path id="_R_G_L_2_G_D_84_P_0" fill="#e37922" fill-opacity="1" fill-rule="nonzero" d=" M90 136.06 C85.99,141.51 84.49,147.98 86.01,154.57 C86.01,154.57 73.38,154.57 73.38,154.57 C73.2,154.6 72.85,154.42 72.66,154.45 C73.76,147.94 72.39,141.04 68.89,135.42 C76.01,135.58 82.88,135.9 90,136.06z "/><path id="_R_G_L_2_G_D_85_P_0" fill="#e37922" fill-opacity="1" fill-rule="nonzero" d=" M142.17 136.43 C138.16,141.88 136.66,148.35 138.18,154.94 C138.18,154.94 125.56,154.94 125.56,154.94 C125.37,154.98 125.02,154.79 124.83,154.82 C125.93,148.31 124.56,141.41 121.06,135.79 C128.19,135.95 135.05,136.27 142.17,136.43z "/><path id="_R_G_L_2_G_D_86_P_0" fill="#e37922" fill-opacity="1" fill-rule="nonzero" d=" M160.99 146.99 C137.72,148.64 111.72,149.83 88.36,149.61 C76.93,149.5 65.48,148.97 54.12,147.71 C46.5,146.86 31.49,143.18 34.56,132.27 C35.79,127.9 40.58,124.76 45.04,126.63 C46.98,127.45 48.17,129.16 48.32,131.25 C48.35,131.82 48.32,132.39 48.18,132.94 C47.91,131.59 46.88,130.42 45.08,130.43 C37.46,130.5 37.87,141.26 45.07,142.02 C51.75,142.73 55.61,135.5 54.73,129.74 C53.78,123.47 48.13,119.33 41.87,119.57 C35.53,119.8 30.18,124.15 28.32,130.14 C26.39,136.33 28.94,142.85 33.66,147.05 C39.08,151.86 46.14,153.32 53.14,154.16 C69.44,156.09 85.95,156.4 102.34,156.09 C121.02,155.73 142.35,154.86 160.98,153.54 C165.18,153.25 165.21,146.68 160.98,146.98 C160.98,146.98 160.99,146.99 160.99,146.99z "/><path id="_R_G_L_2_G_D_87_P_0" fill="#f8a12e" fill-opacity="1" fill-rule="nonzero" d=" M86.08 136.06 C82.07,141.51 80.57,147.98 82.09,154.57 C82.09,154.57 69.46,154.57 69.46,154.57 C69.28,154.6 68.93,154.42 68.74,154.45 C69.84,147.94 68.47,141.04 64.97,135.42 C72.1,135.58 78.96,135.9 86.08,136.06z "/><path id="_R_G_L_2_G_D_88_P_0" fill="#f8a12e" fill-opacity="1" fill-rule="nonzero" d=" M138.25 136.43 C134.24,141.88 132.74,148.35 134.26,154.94 C134.26,154.94 121.63,154.94 121.63,154.94 C121.45,154.98 121.1,154.79 120.91,154.82 C122.01,148.31 120.64,141.41 117.14,135.79 C124.27,135.95 131.13,136.27 138.25,136.43z "/><path id="_R_G_L_2_G_D_89_P_0" fill="#bd212e" fill-opacity="1" fill-rule="nonzero" d=" M157.62 125.03 C157.7,130.55 154.48,135.62 149.31,137.01 C139.37,139.67 63.63,142.1 56.29,135.37 C53.12,132.46 54.17,127.27 54.65,123.19 C55.18,118.76 56.34,114.72 55.51,110.15 C55.05,107.67 54,105.22 52.21,103.4 C50.77,101.94 48.18,101.35 47.25,99.47 C46.56,98.07 47.17,96.31 48.28,95.21 C52.35,91.22 59.93,91.53 64.55,94.2 C67.76,96.06 70.19,99.19 71.3,102.72 C72.46,106.46 70.74,110.21 71.41,114.13 C71.82,116.53 72.89,118.92 74.8,120.44 C77.49,122.58 81.24,122.63 84.68,122.59 C89.88,122.53 95.07,122.46 100.28,122.4 C101.06,122.39 101.85,122.39 102.63,122.37 C105.8,122.34 109.25,122.19 111.66,120.13 C113.66,118.41 114.51,115.62 114.39,112.98 C114.28,110.34 113.33,107.8 112.25,105.39 C110.87,102.27 109,98.48 110.38,95.05 C111.56,92.13 114.36,91 117.14,90.01 C120.54,88.79 123.93,87.3 126.81,85.09 C129.89,82.73 132.29,79.65 135.53,77.44 C139.11,75 144.02,73.33 148.1,75.65 C149.69,76.55 151.3,78.3 151.62,80.21 C152.07,82.92 148.63,85.49 147.82,88.05 C146.27,92.94 147.12,98.02 148.74,102.77 C148.97,103.46 149.23,104.13 149.48,104.8 C149.71,105.37 149.93,105.91 150.16,106.41 C152.87,112.42 157.53,118.18 157.62,125.03z "/><path id="_R_G_L_2_G_D_90_P_0" fill="#de6872" fill-opacity="1" fill-rule="nonzero" d=" M148.74 102.77 C146.59,102.61 144.53,102.13 142.67,101.06 C139.77,99.37 137.73,96.28 137.32,92.96 C135.88,95.69 133.31,97.8 130.36,98.69 C128.4,99.27 126.15,99.43 124.74,100.91 C123.63,102.08 123.34,103.81 123.42,105.42 C123.49,107.03 123.88,108.62 123.88,110.24 C123.89,115.15 120.27,119.52 115.89,121.78 C111.51,124.04 106.46,124.59 101.54,124.98 C101.1,124.13 100.68,123.27 100.28,122.4 C101.06,122.39 101.85,122.39 102.63,122.37 C105.79,122.34 109.25,122.19 111.66,120.13 C113.66,118.41 114.51,115.62 114.39,112.98 C114.28,110.34 113.33,107.8 112.25,105.39 C110.87,102.27 109,98.48 110.38,95.05 C111.56,92.13 114.36,91 117.14,90.01 C120.54,88.79 123.93,87.3 126.81,85.09 C129.89,82.73 132.29,79.64 135.53,77.44 C139.12,75 144.02,73.33 148.1,75.65 C149.69,76.55 151.3,78.3 151.62,80.21 C152.07,82.92 148.63,85.49 147.82,88.05 C146.27,92.94 147.12,98.02 148.74,102.77z "/><path id="_R_G_L_2_G_D_91_P_0" fill="#f8a12e" fill-opacity="1" fill-rule="nonzero" d=" M142.5 71.53 C133.62,73.38 129.28,83.31 120.54,84.95 C116.28,85.74 112.38,86.04 109.65,89.86 C107.31,93.13 106.88,97.27 107.42,101.15 C108.01,105.44 110.34,110.18 109.3,114.53 C108.22,119.08 102.42,118.28 98.82,118.26 C93.34,118.23 87.85,118.21 82.37,118.18 C80.33,118.17 77.98,118.41 75.99,117.79 C73.68,117.06 73.23,114.97 73.29,112.77 C73.4,108.29 74.91,104.14 73.36,99.72 C72.07,96.04 69.54,92.79 66.11,90.86 C62.2,88.66 57.29,88.27 53.07,89.79 C48.92,91.29 44.6,94.77 44.38,99.5 C44.19,103.76 48.12,108.2 52.65,106.77 C56.67,105.5 58.1,100.04 55.01,97.15 C54.69,96.85 54.35,96.64 54.01,96.49 C54.29,96.35 54.56,96.22 54.82,96.12 C57.25,95.16 60.09,95.18 62.46,96.34 C64.66,97.43 66.38,99.51 67.13,101.83 C68.11,104.82 67.18,107.93 66.85,110.96 C66.22,116.68 68.26,122.4 74.25,124.12 C77.19,124.97 80.44,124.74 83.47,124.75 C87.13,124.76 90.78,124.78 94.43,124.8 C100.12,124.83 107.37,125.9 112.12,122.01 C116.83,118.14 116.45,111.67 115.24,106.3 C114.23,101.88 111.45,93.46 117.96,91.92 C120.72,91.27 123.37,91.24 126.01,90.08 C128.84,88.84 131.26,86.91 133.57,84.89 C137.51,81.45 143.95,74.72 149.5,79.14 C150.2,79.69 150.82,80.44 151.28,81.27 C149.42,80.37 147.11,80.34 145.24,81.33 C142,83.05 141.17,87.28 142.78,90.39 C144.69,94.08 149.19,95.25 152.91,93.65 C156.66,92.03 158.69,87.99 158.65,84.03 C158.55,75.72 150.41,69.87 142.49,71.53 C142.49,71.53 142.5,71.53 142.5,71.53z "/><path id="_R_G_L_2_G_D_92_P_0" fill="#f8a12e" fill-opacity="1" fill-rule="nonzero" d=" M157.07 146.99 C133.8,148.64 107.8,149.83 84.44,149.61 C73.02,149.5 61.56,148.97 50.19,147.71 C42.58,146.86 27.57,143.18 30.64,132.27 C31.87,127.9 36.66,124.76 41.12,126.63 C43.06,127.45 44.25,129.16 44.39,131.25 C44.43,131.82 44.39,132.39 44.26,132.94 C43.99,131.59 42.96,130.42 41.16,130.43 C33.54,130.5 33.95,141.26 41.15,142.02 C47.83,142.73 51.69,135.5 50.81,129.74 C49.86,123.47 44.21,119.33 37.96,119.57 C31.62,119.8 26.27,124.15 24.4,130.14 C22.47,136.33 25.02,142.85 29.75,147.05 C35.17,151.86 42.23,153.32 49.22,154.16 C65.52,156.09 82.04,156.4 98.42,156.09 C117.1,155.73 138.44,154.86 157.07,153.54 C161.27,153.25 161.3,146.68 157.07,146.98 C157.07,146.98 157.07,146.99 157.07,146.99z "/><path id="_R_G_L_2_G_D_93_P_0" fill="#ffa126" fill-opacity="1" fill-rule="nonzero" d=" M115 102.29 C112.06,104.14 117.15,115.6 117.15,115.6 C117.15,115.6 124.76,116.13 124.76,116.13 C124.76,116.13 119,104.61 120.75,103.22 C120.75,103.22 117.63,100.62 115,102.29z "/><path id="_R_G_L_2_G_D_94_P_0" fill="#ffc036" fill-opacity="1" fill-rule="nonzero" d=" M136.5 114.3 C136.5,114.3 129.62,100.13 127.05,99.83 C124.49,99.53 116.71,100.2 114.99,102.29 C114.99,102.29 117.93,101.59 120.13,103.72 C122.33,105.85 125.74,116.14 125.74,116.14 C125.74,116.14 136.49,114.3 136.49,114.3 C136.49,114.3 136.5,114.3 136.5,114.3z "/><path id="_R_G_L_2_G_D_95_P_0" fill="#ffa126" fill-opacity="1" fill-rule="nonzero" d=" M155.24 102.29 C158.17,104.14 153.08,115.6 153.08,115.6 C153.08,115.6 145.48,116.13 145.48,116.13 C145.48,116.13 151.23,104.61 149.48,103.22 C149.48,103.22 152.6,100.62 155.24,102.29z "/><path id="_R_G_L_2_G_D_96_P_0" fill="#ffc036" fill-opacity="1" fill-rule="nonzero" d=" M133.74 114.3 C133.74,114.3 140.61,100.13 143.18,99.83 C145.74,99.53 153.52,100.2 155.24,102.29 C155.24,102.29 152.3,101.59 150.1,103.72 C147.9,105.85 144.49,116.14 144.49,116.14 C144.49,116.14 133.74,114.3 133.74,114.3 C133.74,114.3 133.74,114.3 133.74,114.3z "/><path id="_R_G_L_2_G_D_97_P_0" fill="#ffd270" fill-opacity="1" fill-rule="nonzero" d=" M134.83 119.84 C138.51,119.84 141.49,117.18 141.49,113.89 C141.49,110.61 138.51,107.94 134.83,107.94 C131.16,107.94 128.18,110.61 128.18,113.89 C128.18,117.18 131.16,119.84 134.83,119.84z "/><path id="_R_G_L_2_G_D_98_P_0" fill="#32735d" fill-opacity="1" fill-rule="nonzero" d=" M115.11 119.56 C115.11,119.56 112.29,156.74 112.29,156.74 C112.29,156.74 156.5,158.38 156.5,158.38 C156.5,158.38 155.31,119.56 155.31,119.56 C155.31,119.56 115.11,119.56 115.11,119.56z "/><path id="_R_G_L_2_G_D_99_P_0" fill="#77caba" fill-opacity="1" fill-rule="nonzero" d=" M113 113.89 C113,113.89 112.29,128.19 112.29,128.19 C112.29,128.19 157.37,128.8 157.37,128.8 C157.37,128.8 157.37,113.89 157.37,113.89 C157.37,113.89 113,113.89 113,113.89z "/><path id="_R_G_L_2_G_D_100_P_0" fill="#ffc036" fill-opacity="1" fill-rule="nonzero" d=" M128.94 113.89 C128.94,113.89 126.6,157.27 126.6,157.27 C126.6,157.27 141.49,157.83 141.49,157.83 C141.49,157.83 141.49,113.89 141.49,113.89 C141.49,113.89 128.94,113.89 128.94,113.89z "/><path id="_R_G_L_2_G_D_101_P_0" fill="#eb8d94" fill-opacity="1" fill-rule="nonzero" d=" M114.45 128.21 C114.45,128.21 155.59,128.8 155.59,128.8 C155.59,128.8 155.77,134.69 155.77,134.69 C155.77,134.69 114.29,130.3 114.29,130.3 C114.29,130.3 114.45,128.21 114.45,128.21z "/></g><g id="_R_G_L_1_G" transform=" translate(184.065, 11.684) translate(-12.571, -11.934)"><path id="_R_G_L_1_G_D_0_P_0" fill="#f8a12e" fill-opacity="1" fill-rule="nonzero" d=" M12.57 0.25 C12.57,0.25 8,6.9 8,6.9 C8,6.9 0.25,9.17 0.25,9.17 C0.25,9.17 5.18,15.56 5.18,15.56 C5.18,15.56 4.95,23.62 4.95,23.62 C4.95,23.62 12.57,20.92 12.57,20.92 C12.57,20.92 20.19,23.62 20.19,23.62 C20.19,23.62 19.96,15.56 19.96,15.56 C19.96,15.56 24.89,9.17 24.89,9.17 C24.89,9.17 17.14,6.9 17.14,6.9 C17.14,6.9 12.57,0.25 12.57,0.25z "/></g><g id="_R_G_L_0_G"><path id="_R_G_L_0_G_D_0_P_0" fill="#4a2b16" fill-opacity="1" fill-rule="nonzero" d=" M21.54 39.67 C20.89,38.06 20.24,36.46 19.58,34.85 C19.01,33.48 18.42,32.04 17.31,31.05 C15.99,29.87 14.13,29.47 12.36,29.45 C10.59,29.43 8.83,29.73 7.06,29.72 C5.9,29.72 4.69,29.57 3.71,28.95 C2.73,28.33 2.03,27.15 2.29,26.01 C2.63,24.53 4.39,23.8 5.91,23.87 C7.44,23.93 8.9,24.54 10.42,24.67 C11.25,24.74 12.3,24.63 13.09,24.33 C14.49,23.79 13.73,21.96 13.43,20.96 C12.97,19.46 12.16,18.05 11.09,16.9 C9.61,15.3 7.61,14.19 5.48,13.76 C4.49,13.56 3.48,13.5 2.54,13.17 C1.6,12.83 0.71,12.14 0.47,11.17 C0.25,10.22 0.76,9.18 1.57,8.63 C2.38,8.08 3.44,7.97 4.39,8.16 C5.36,8.36 6.24,8.83 7.06,9.39 C7.98,10.01 8.94,10.84 10.1,10.93 C11.12,11.02 12.24,10.45 12.7,9.52 C13.03,8.86 13.07,8.07 13.28,7.37 C13.53,6.56 13.8,5.77 14.04,4.96 C14.44,3.65 14.98,2.32 16.02,1.43 C17.07,0.55 18.73,0.25 19.8,1.1 C20.76,1.86 20.95,3.28 20.61,4.44 C20.26,5.61 19.49,6.59 18.74,7.55 C17.99,8.51 17.24,9.52 16.98,10.71 C16.82,11.42 16.84,12.16 17.05,12.86 C17.35,13.89 18.23,14.88 19.3,14.79 C20.68,14.68 21.5,12.92 22.88,12.88 C24.04,12.85 24.86,14.15 24.73,15.29 C24.6,16.43 23.82,17.38 22.99,18.18 C22.2,18.95 21.31,19.69 20.81,20.69 C20.47,21.35 20.01,22.92 20.38,23.61 C20.66,24.13 21.32,24.41 21.89,24.25 C22.34,24.12 22.69,23.76 23.09,23.5 C24.23,22.76 25.91,22.98 26.82,24.01 C27.72,25.03 27.74,26.72 26.85,27.76 C26.24,28.49 25.28,28.87 24.64,29.6 C23.85,30.49 23.79,31.65 24.11,32.73 C24.45,33.86 25.69,34.77 26.49,35.61 C26.66,35.8 26.85,36.01 26.85,36.27 C26.85,36.5 26.71,36.7 26.56,36.88 C25.98,37.54 25.18,38.05 24.43,38.49 C23.54,39.02 22.6,39.55 21.56,39.67 C21.56,39.67 21.54,39.67 21.54,39.67z "/><path id="_R_G_L_0_G_D_1_P_0" fill="#4a2b16" fill-opacity="1" fill-rule="nonzero" d=" M36.76 39.67 C37.41,38.06 38.07,36.46 38.73,34.85 C39.29,33.48 39.89,32.04 41,31.05 C42.31,29.87 44.17,29.47 45.94,29.45 C47.71,29.43 49.47,29.73 51.24,29.72 C52.41,29.72 53.61,29.57 54.59,28.95 C55.57,28.33 56.27,27.15 56.01,26.01 C55.67,24.53 53.91,23.8 52.39,23.87 C50.86,23.93 49.41,24.54 47.88,24.67 C47.05,24.74 46,24.63 45.22,24.33 C43.81,23.79 44.57,21.96 44.88,20.96 C45.34,19.46 46.15,18.05 47.21,16.9 C48.69,15.3 50.69,14.19 52.83,13.76 C53.81,13.56 54.82,13.5 55.76,13.17 C56.71,12.83 57.6,12.14 57.83,11.17 C58.05,10.22 57.55,9.18 56.74,8.63 C55.93,8.08 54.87,7.97 53.91,8.16 C52.94,8.36 52.06,8.83 51.25,9.39 C50.33,10.01 49.36,10.84 48.21,10.93 C47.18,11.02 46.07,10.45 45.61,9.52 C45.28,8.86 45.23,8.07 45.02,7.37 C44.77,6.56 44.5,5.77 44.26,4.96 C43.86,3.65 43.32,2.32 42.28,1.43 C41.24,0.55 39.57,0.25 38.5,1.1 C37.55,1.86 37.35,3.28 37.69,4.44 C38.04,5.61 38.82,6.59 39.57,7.55 C40.31,8.51 41.06,9.52 41.32,10.71 C41.48,11.42 41.46,12.16 41.25,12.86 C40.95,13.89 40.07,14.88 39,14.79 C37.63,14.68 36.8,12.92 35.42,12.88 C34.27,12.85 33.45,14.15 33.57,15.29 C33.7,16.43 34.49,17.38 35.31,18.18 C36.1,18.95 36.99,19.69 37.5,20.69 C37.84,21.35 38.29,22.92 37.93,23.61 C37.65,24.13 36.99,24.41 36.42,24.25 C35.96,24.12 35.61,23.76 35.22,23.5 C34.07,22.76 32.39,22.98 31.49,24.01 C30.58,25.03 30.57,26.72 31.45,27.76 C32.07,28.49 33.03,28.87 33.66,29.6 C34.45,30.49 34.51,31.65 34.19,32.73 C33.86,33.86 32.62,34.77 31.82,35.61 C31.64,35.8 31.45,36.01 31.45,36.27 C31.45,36.5 31.59,36.7 31.75,36.88 C32.33,37.54 33.13,38.05 33.87,38.49 C34.76,39.02 35.71,39.55 36.75,39.67 C36.75,39.67 36.76,39.67 36.76,39.67z "/><path id="_R_G_L_0_G_D_2_P_0" fill="#c47640" fill-opacity="1" fill-rule="nonzero" d=" M16.36 31.38 C19.29,34.97 20.22,40.5 17.56,42.65 C14.9,44.81 9.66,42.77 6.73,39.19 C3.8,35.59 4.3,31.81 6.96,29.65 C9.62,27.5 13.43,27.79 16.36,31.38 C16.36,31.38 16.36,31.38 16.36,31.38z "/><path id="_R_G_L_0_G_D_3_P_0" fill="#fac6a3" fill-opacity="1" fill-rule="nonzero" d=" M16.35 34.65 C18.3,37.03 18.91,40.71 17.14,42.14 C15.38,43.58 11.89,42.22 9.95,39.84 C8,37.45 8.33,34.93 10.1,33.5 C11.86,32.07 14.4,32.26 16.35,34.65z "/><path id="_R_G_L_0_G_D_4_P_0" fill="#c47640" fill-opacity="1" fill-rule="nonzero" d=" M41.94 31.38 C39.02,34.97 38.09,40.5 40.75,42.65 C43.41,44.81 48.64,42.77 51.57,39.19 C54.5,35.59 54.01,31.81 51.35,29.65 C48.69,27.5 44.87,27.79 41.94,31.38 C41.94,31.38 41.94,31.38 41.94,31.38z "/><path id="_R_G_L_0_G_D_5_P_0" fill="#fac6a3" fill-opacity="1" fill-rule="nonzero" d=" M41.96 34.65 C40.01,37.03 39.39,40.71 41.16,42.14 C42.93,43.58 46.41,42.22 48.35,39.84 C50.3,37.45 49.97,34.93 48.21,33.5 C46.44,32.07 43.9,32.26 41.96,34.65z "/><path id="_R_G_L_0_G_D_6_P_0" fill="#c47640" fill-opacity="1" fill-rule="nonzero" d=" M49.32 58.79 C49.32,60.82 49.06,62.7 48.54,64.41 C46.13,72.59 38.36,77.09 29.15,77.09 C19.95,77.09 12.18,72.59 9.76,64.41 C9.25,62.7 8.98,60.82 8.98,58.79 C8.98,47.08 18.01,34.67 29.15,34.67 C40.29,34.67 49.32,47.08 49.32,58.79z "/><path id="_R_G_L_0_G_D_7_P_0" fill="#fac6a3" fill-opacity="1" fill-rule="nonzero" d=" M48.54 64.41 C46.13,72.59 38.36,77.09 29.15,77.09 C19.95,77.09 12.18,72.59 9.76,64.41 C13.68,61.19 20.89,59.03 29.15,59.03 C37.41,59.03 44.63,61.19 48.54,64.41z "/><path id="_R_G_L_0_G_D_8_P_0" fill="#ffd4b5" fill-opacity="1" fill-rule="nonzero" d=" M31.54 34.87 C39.44,38.51 45.1,48.21 45.1,57.49 C45.1,59.52 44.83,61.4 44.32,63.12 C41.91,71.29 34.14,75.79 24.93,75.79 C23.12,75.79 21.37,75.62 19.7,75.27 C22.52,76.47 25.74,77.09 29.15,77.09 C38.36,77.09 46.13,72.59 48.54,64.41 C49.05,62.7 49.32,60.82 49.32,58.79 C49.32,47.92 41.56,36.48 31.54,34.87z "/><path id="_R_G_L_0_G_D_9_P_0" fill="#4a2b16" fill-opacity="1" fill-rule="nonzero" d=" M24.4 50.74 C24.04,49.99 23.4,49.4 22.6,49.15 C21.1,48.67 19.34,49.41 18.6,50.79 C18.16,51.6 18.06,52.56 18.32,53.44 C18.54,54.19 19.71,53.87 19.49,53.12 C19.1,51.8 19.96,50.4 21.35,50.22 C22.03,50.14 22.72,50.38 23.13,50.95 C23.6,51.61 23.68,52.47 23.72,53.26 C23.74,53.59 23.99,53.87 24.33,53.87 C24.64,53.87 24.95,53.59 24.93,53.26 C24.88,52.4 24.78,51.54 24.4,50.74z "/><path id="_R_G_L_0_G_D_10_P_0" fill="#4a2b16" fill-opacity="1" fill-rule="nonzero" d=" M33.9 50.74 C34.26,49.99 34.9,49.4 35.7,49.15 C37.21,48.67 38.97,49.41 39.71,50.79 C40.14,51.6 40.24,52.56 39.98,53.44 C39.76,54.19 38.59,53.87 38.81,53.12 C39.2,51.8 38.35,50.4 36.95,50.22 C36.27,50.14 35.58,50.38 35.18,50.95 C34.7,51.61 34.62,52.47 34.58,53.26 C34.56,53.59 34.32,53.87 33.98,53.87 C33.66,53.87 33.35,53.59 33.37,53.26 C33.42,52.4 33.52,51.54 33.9,50.74z "/><path id="_R_G_L_0_G_D_11_P_0" fill="#4a2b16" fill-opacity="1" fill-rule="nonzero" d=" M34.37 69.75 C34.08,69.27 33.35,69.02 32.86,69.35 C30.73,70.83 28.08,70.87 25.91,69.45 C25.41,69.12 24.69,69.35 24.4,69.84 C24.09,70.38 24.3,71.02 24.8,71.35 C27.56,73.16 31.26,73.13 33.98,71.25 C34.47,70.91 34.69,70.29 34.37,69.75 C34.37,69.75 34.37,69.75 34.37,69.75z "/><path id="_R_G_L_0_G_D_12_P_0" fill="#4a2b16" fill-opacity="1" fill-rule="nonzero" d=" M30.47 64.63 C30.44,64.05 29.99,63.5 29.37,63.53 C28.81,63.55 28.23,64.01 28.27,64.63 C28.4,66.64 28.45,68.65 28.44,70.66 C28.44,71.24 28.95,71.79 29.54,71.76 C30.14,71.73 30.64,71.28 30.64,70.66 C30.65,68.65 30.6,66.64 30.47,64.63z "/><path id="_R_G_L_0_G_D_13_P_0" fill="#4a2b16" fill-opacity="1" fill-rule="nonzero" d=" M36.03 60.75 C36.03,63.41 32.95,66.22 29.15,66.22 C25.35,66.22 22.28,63.41 22.28,60.75 C22.28,58.09 25.35,55.93 29.15,55.93 C32.95,55.93 36.03,58.09 36.03,60.75z "/><path id="_R_G_L_0_G_D_14_P_0" fill="#ffd4b5" fill-opacity="1" fill-rule="nonzero" d=" M36.46 38.92 C36.89,39.53 36.82,40.32 36.32,40.66 C35.81,41.01 35.06,40.79 34.64,40.18 C34.21,39.57 34.27,38.79 34.78,38.44 C35.28,38.09 36.03,38.31 36.46,38.92z "/><path id="_R_G_L_0_G_D_15_P_0" fill="#ffd4b5" fill-opacity="1" fill-rule="nonzero" d=" M34.51 41.24 C34.75,41.58 34.71,42.01 34.43,42.2 C34.15,42.39 33.73,42.27 33.5,41.94 C33.26,41.59 33.29,41.16 33.57,40.97 C33.85,40.78 34.27,40.9 34.51,41.24z "/><path id="_R_G_L_0_G_D_16_P_0" fill="#ffd4b5" fill-opacity="1" fill-rule="nonzero" d=" M36.98 41.91 C37.32,42.4 37.27,43.02 36.87,43.3 C36.47,43.58 35.87,43.4 35.53,42.91 C35.19,42.42 35.24,41.8 35.64,41.52 C36.04,41.25 36.64,41.42 36.98,41.91z "/></g></g><g id="time_group"/></svg>