<svg width="154" height="126" viewBox="0 0 154 126" fill="none" xmlns="http://www.w3.org/2000/svg">
<g clip-path="url(#clip0_4995_2)">
<path d="M113.831 51.2013C116.995 54.987 118.036 60.0636 118.749 64.9382C119.693 71.38 120.217 78.1046 118.122 84.2624C117.84 85.0942 117.501 85.9225 116.899 86.562C116.331 87.1583 115.106 87.7615 114.265 87.4029C113.416 87.0427 112.969 85.5063 112.66 84.6867C111.446 81.4215 110.767 77.9646 110.638 74.4871C110.552 72.2193 110.712 69.9433 110.567 67.68C110.165 61.3416 107.457 55.3077 107.181 48.9701C107.106 47.2587 107.209 45.542 107.083 43.8367C106.975 42.3702 106.702 40.9284 106.421 39.4849C108.559 41.7321 108.994 45.1133 110.748 47.6757C111.631 48.9666 112.828 50.0031 113.823 51.1996L113.831 51.2013Z" fill="#EAAD5A"/>
<path d="M100.222 83.4422C98.3709 85.7378 95.7996 87.3725 93.1852 88.6876C89.9059 90.3354 86.4453 91.6015 82.9171 92.585C78.7476 93.7466 74.4322 94.5169 70.1031 94.4197C65.774 94.3224 61.4103 93.3364 57.6606 91.1675C61.1364 91.0464 64.493 89.9183 67.8766 89.1064C69.7048 88.6699 71.555 88.3303 73.3785 87.876C81.0907 85.9859 88.2923 82.2606 96.075 80.6789C96.8291 80.5241 98.2975 80.1224 99.4634 80.1283C99.0413 79.8143 98.6192 79.5004 98.2052 79.1881C96.6357 78.0072 95.0068 76.7889 93.3285 75.7283C91.8799 74.8159 90.3291 73.9916 88.8233 73.1933C88.5967 73.0709 88.3701 72.9485 88.1435 72.8261C87.8441 73.7466 86.719 74.9245 86.279 75.3877C85.1131 76.6412 83.6506 77.6235 82.085 78.3326C79.4715 79.522 76.6012 80.0033 73.7607 80.3817C70.4456 80.8215 67.1217 81.1419 63.7824 81.3332C62.1079 81.4321 60.424 81.4954 58.7506 81.4265C53.0307 81.1929 47.4355 79.3814 42.4255 76.6077C43.6235 76.8637 44.8671 76.575 46.0623 76.2764C47.8406 75.8379 49.6188 75.3995 51.3954 74.9691C53.5355 74.446 55.6852 73.9164 57.8744 73.7644C60.1911 73.6052 62.5228 73.8605 64.8487 73.7788C68.8488 73.6401 72.7295 72.4944 76.6626 71.7458C78.5597 71.3823 80.4851 71.1254 82.4284 71.1073C82.9751 71.1028 84.0476 71.0726 85.1244 71.1441C83.5099 70.1806 81.9397 69.1255 80.5337 67.8442C79.2208 66.6408 77.8362 65.5401 76.4337 64.4861C76.0383 64.5304 75.6118 64.4002 75.1861 64.1443C75.2286 64.3042 75.2339 64.4816 75.1859 64.6732C74.9459 65.6311 73.3041 66.4252 72.5145 66.8329C69.2185 68.5613 65.4143 69.0931 61.6949 69.2142C55.6497 69.4171 49.5658 68.6296 43.7701 66.8942C42.3635 66.4691 40.9588 65.994 39.6929 65.2537C38.3658 64.484 37.2115 63.4477 36.096 62.3859C34.5398 60.8972 33.0469 59.3459 31.6253 57.7339C34.7336 59.1069 38.2741 58.9572 41.6642 59.129C45.2462 59.3069 48.808 59.8669 52.3916 60.0368C54.6114 60.143 56.8273 60.1057 59.0474 60.17C61.5415 60.249 64.0332 60.4618 66.5063 60.8051C68.873 61.1348 71.2758 61.6147 73.42 62.6961C73.5181 62.7499 73.6258 62.7974 73.7399 62.8546C73.5222 62.6081 73.3159 62.3471 73.1048 62.0684C72.8768 61.9121 72.6586 61.7495 72.4386 61.5948C69.1126 59.2448 65.6676 56.8199 62.6463 53.7268L60.4308 51.4469C59.3163 52.9797 54.6674 54.4704 53.7101 54.6335C50.9431 55.1026 48.1158 54.9296 45.3273 54.731C43.2094 54.5786 41.0787 54.4069 39.0162 53.9049C34.1491 52.7141 29.7781 49.6107 27.0526 45.4118C28.587 46.0312 30.2482 46.2403 31.895 46.438C37.4669 47.1028 43.0544 47.6114 48.6574 47.9636C50.5804 48.084 52.5148 48.19 54.4256 48.4507C55.5357 48.6046 56.9215 48.7651 58.1754 49.1167L49.9461 40.6734C49.9806 40.8317 49.9973 40.9946 49.9881 41.1607C49.7629 43.8345 43.9872 43.9923 42.1236 43.9094C39.3943 43.7901 36.7352 43.0473 34.1659 42.1132C30.7134 40.8622 27.3167 39.2196 24.7016 36.6388C23.189 35.1422 21.9749 33.3799 20.7768 31.6209C22.6813 32.3589 24.5841 33.1049 26.4967 33.8445C28.8516 34.7595 31.2209 35.6859 33.6896 36.213C36.5995 36.8397 39.5903 36.9122 42.5318 37.3859C43.6449 37.5657 46.5042 38.0308 48.341 39.015L45.4191 36.0097C44.8584 35.432 44.2817 34.851 43.7065 34.2619C43.5608 34.1142 43.423 33.9682 43.2772 33.8205C42.4351 35.376 34.754 34.1912 33.2852 33.6609C30.9717 32.83 28.7059 31.8495 26.5167 30.742C25.263 30.105 23.976 29.3856 23.2306 28.1988C27.0015 29.0874 30.8534 29.6654 34.7219 29.9193C36.6191 30.0429 38.6454 30.1511 40.3778 30.8282C39.3159 29.7103 38.2814 28.5813 37.2859 27.4267C36.3986 27.7387 33.4573 26.736 32.8067 26.5932C28.8759 25.747 25.0314 24.5241 21.3359 22.9457C24.8882 21.9672 28.6588 22.6543 32.2778 23.3437C33.0122 23.4871 33.7546 23.6322 34.461 23.8705C33.7737 22.9308 33.1333 21.9672 32.5462 20.9894C31.688 21.2822 30.4923 20.6488 29.7575 19.8168C26.993 16.6593 26.1243 12.3321 24.6646 8.38637C23.5646 5.42183 22.0832 2.59673 20.268 0.00491527C23.262 0.346744 25.8858 2.31649 27.6648 4.75811C29.4358 7.19806 30.4767 10.0832 31.4111 12.9548C31.9203 14.5126 33.8731 18.2663 33.45 19.8665C33.359 20.2255 33.2041 20.4873 33.0206 20.6845L33.796 20.2235C34.8489 21.9944 36.0988 23.7053 37.4685 25.3654C37.0077 24.3046 36.856 21.83 36.7484 21.2536C36.0467 17.2967 35.7275 13.2761 35.7954 9.25158C38.0471 12.1687 38.8324 15.9246 39.5557 19.5334C39.7697 20.6103 39.9867 21.7131 39.8861 22.809C39.7999 23.6728 39.1615 26.3955 37.8734 25.8438C39.3297 27.5722 40.9039 29.2578 42.4946 30.9048C41.7502 29.0633 41.8756 26.8726 41.9533 24.8316C42.0895 21.2074 41.9259 17.5717 41.4605 13.9742C42.4938 14.784 43.0549 16.0502 43.5226 17.2804C44.3457 19.432 45.041 21.6328 45.5958 23.8634C45.9543 25.2976 46.3114 32.6678 44.7278 33.18C44.7359 33.1817 44.7406 33.1995 44.7567 33.2028C45.3399 33.7935 45.9166 34.3745 46.4773 34.9522L49.0613 37.6022C48.7943 36.4975 48.6722 35.4227 48.6319 34.9274C48.2707 30.1761 48.7824 25.3449 47.8951 20.6611C47.7111 19.6827 47.4941 18.58 48.0653 17.7661C49.311 18.6449 49.8557 20.1933 50.2752 21.6569C51.3842 25.4714 52.1976 29.3758 52.7011 33.3169C52.864 34.5597 53.4404 39.4478 51.9688 40.5962L57.1078 45.8734C56.3562 43.9044 56.3102 41.5272 56.1583 39.5815C55.6944 33.4991 55.2386 27.4184 54.7764 21.328C55.1393 21.0756 55.5897 21.4961 55.8324 21.8653C59.3075 27.3528 61.6622 33.5489 62.74 39.9513C63.1797 42.5359 64.3436 50.8368 60.7107 49.5652L63.7095 52.6452C65.9747 54.969 68.518 56.9221 71.0766 58.7608C70.275 57.2769 69.6998 55.9574 69.5498 55.4646C68.6144 52.4753 68.238 49.3413 67.7257 46.2547C66.6579 39.804 65.0201 33.4706 63.3806 27.1452C68.9624 31.7835 73.1646 38.0593 75.3356 44.9815C76.3073 48.0791 76.8704 51.2853 77.2285 54.5079C77.4329 56.3217 78.7077 61.6901 77.6993 63.5219C79.0055 64.514 80.3001 65.5625 81.5442 66.6929C82.5894 67.6478 83.7451 68.4744 84.9561 69.2369C83.0145 66.2412 81.5659 60.5765 81.3077 59.1042C80.5051 54.5387 80.4884 49.867 79.8166 45.2781C79.4319 42.6714 78.8342 40.0793 78.8738 37.4511C78.916 34.1601 79.9205 30.6819 78.5206 27.7057C85.5251 35.7783 89.9287 46.0755 90.9195 56.7167C91.1503 59.1742 91.1696 61.6802 90.7589 64.1142C90.4973 65.6638 89.6424 70.2057 87.9538 70.9817C88.4825 71.2673 89.0112 71.5529 89.5335 71.8288C91.0618 72.6401 92.6335 73.4856 94.1271 74.4241C95.6432 75.3756 97.1005 76.4493 98.5111 77.5049C97.6954 75.7242 97.1353 73.5598 96.9116 72.4892C95.9824 68.0487 95.928 63.4783 95.0424 59.03C94.6331 56.989 94.0494 54.9792 93.7272 52.9228C92.7 46.4385 94.26 39.5822 92.1458 33.3602C94.1603 34.5407 95.2471 36.7972 96.1896 38.94C101.149 50.2422 105.37 62.3572 104.314 74.6575C104.195 76.0016 104.003 77.3807 103.312 78.5309C102.842 79.2986 102.397 79.786 101.965 80.0493C107.729 84.1292 114.159 87.3474 120.383 90.4643C122.742 91.6406 125.124 92.8299 127.552 93.9615C126.426 93.2334 126.131 92.7526 125.757 91.2311C125.39 89.7194 125.216 88.1638 125.158 86.6153C125.044 83.5104 125.382 80.4148 125.542 77.3246C125.83 71.9937 125.569 66.6335 124.761 61.3616C124.529 59.8443 124.249 58.317 124.281 56.7788C124.306 55.4406 124.563 54.1167 124.689 52.7742C124.892 50.6163 124.758 48.4224 124.289 46.302C125.979 48.4061 126.493 51.1991 127.682 53.6111C128.315 54.8923 129.138 56.07 129.906 57.2699C131.038 59.0236 132.07 60.8573 132.818 62.8004C134.074 66.0659 134.519 69.6003 134.543 73.0981C134.583 79.6889 133.155 86.2702 130.514 92.3068C130.262 92.876 129.99 93.458 129.52 93.8645C129.173 94.1622 128.683 94.3381 128.242 94.2804C131.61 95.8163 135.059 97.2093 138.611 98.2207L138.212 99.6243C135.047 98.7266 131.976 97.5377 128.982 96.2219C128.912 97.8614 128.339 99.7412 127.484 101.034C126.723 102.195 125.608 103.081 124.487 103.915C119.205 107.819 113.259 110.83 106.987 112.783C103.658 113.816 100.256 114.557 96.8467 115.288C94.8879 115.706 92.9114 116.128 90.8999 116.233C89.5158 116.308 88.0909 116.215 86.8059 115.689C93.0788 114.182 98.4384 110.269 104.201 107.371C106.084 106.425 108.023 105.575 109.771 104.391C111.714 103.072 113.367 101.373 115.231 99.9533C116.945 98.6453 118.835 97.5835 120.724 96.5298C122.168 95.7199 123.631 94.8973 125.247 94.5513C125.263 94.5547 125.283 94.5419 125.3 94.5372C123.413 93.6349 121.54 92.702 119.698 91.7838C118.123 90.9964 116.525 90.196 114.939 89.3811C114.398 91.5529 110.356 94.8568 109.342 95.621C106.976 97.3989 104.38 98.869 101.67 100.038C98.646 101.344 95.489 102.279 92.3131 103.142C87.7399 104.388 83.0209 105.486 78.3055 105.024C75.0792 104.709 71.9768 103.673 68.9067 102.644C70.1784 102.991 71.5147 102.579 72.7654 102.174C77.9768 100.481 83.1947 98.7968 88.4061 97.1034C90.9609 96.2797 93.5174 95.448 95.9785 94.3867C99.0849 93.0473 102.031 91.3473 105.132 89.9902C106.748 89.283 108.419 88.6714 110.141 88.2632C110.556 88.1643 111.252 87.964 111.993 87.8317C108.31 85.8697 104.674 83.7579 101.244 81.3443C101.23 82.0635 100.634 82.8724 100.236 83.3777L100.222 83.4422Z" fill="#EAAD5A"/>
</g>
<defs>
<clipPath id="clip0_4995_2">
<rect width="100" height="135.8" fill="white" transform="translate(0 97.9294) rotate(-78.3204)"/>
</clipPath>
</defs>
</svg>
