<svg width="154" height="126" viewBox="0 0 154 126" fill="none" xmlns="http://www.w3.org/2000/svg">
<g clip-path="url(#clip0_4995_6)">
<path d="M39.4012 51.2013C36.2376 54.987 35.1964 60.0636 34.4828 64.9382C33.5391 71.38 33.0149 78.1046 35.1106 84.2624C35.3918 85.0942 35.7309 85.9225 36.3333 86.562C36.9016 87.1583 38.1262 87.7615 38.9672 87.4029C39.8163 87.0427 40.2628 85.5063 40.5719 84.6867C41.7861 81.4215 42.4652 77.9646 42.5944 74.4871C42.6797 72.2193 42.5199 69.9433 42.665 67.68C43.0675 61.3416 45.7748 55.3077 46.0516 48.9701C46.126 47.2587 46.023 45.542 46.1491 43.8367C46.2573 42.3702 46.5302 40.9284 46.8112 39.4849C44.6729 41.7321 44.2383 45.1133 42.4843 47.6757C41.6009 48.9666 40.4046 50.0031 39.4093 51.1996L39.4012 51.2013Z" fill="#971EA1"/>
<path d="M53.0097 83.4422C54.8612 85.7378 57.4325 87.3725 60.0469 88.6876C63.3262 90.3354 66.7869 91.6015 70.3151 92.585C74.4846 93.7466 78.7999 94.5169 83.1291 94.4197C87.4582 94.3224 91.8218 93.3364 95.5716 91.1675C92.0957 91.0464 88.7391 89.9183 85.3556 89.1064C83.5273 88.6699 81.6772 88.3303 79.8536 87.876C72.1414 85.9859 64.9399 82.2606 57.1571 80.6789C56.403 80.5241 54.9346 80.1224 53.7688 80.1283C54.1909 79.8143 54.6129 79.5004 55.027 79.1881C56.5964 78.0072 58.2253 76.7889 59.9036 75.7283C61.3523 74.8159 62.9031 73.9916 64.4089 73.1933C64.6355 73.0709 64.862 72.9485 65.0886 72.8261C65.3881 73.7466 66.5132 74.9245 66.9532 75.3877C68.1191 76.6412 69.5816 77.6235 71.1471 78.3326C73.7607 79.522 76.6309 80.0033 79.4715 80.3817C82.7865 80.8215 86.1105 81.1419 89.4497 81.3332C91.1242 81.4321 92.8081 81.4954 94.4815 81.4265C100.201 81.1929 105.797 79.3814 110.807 76.6077C109.609 76.8637 108.365 76.575 107.17 76.2764C105.392 75.8379 103.613 75.3995 101.837 74.9691C99.6967 74.446 97.5469 73.9164 95.3577 73.7644C93.041 73.6052 90.7093 73.8605 88.3834 73.7788C84.3834 73.6401 80.5026 72.4944 76.5696 71.7458C74.6725 71.3823 72.747 71.1254 70.8038 71.1073C70.2571 71.1028 69.1845 71.0726 68.1078 71.1441C69.7222 70.1806 71.2925 69.1255 72.6984 67.8442C74.0114 66.6408 75.3959 65.5401 76.7985 64.4861C77.1938 64.5304 77.6203 64.4002 78.046 64.1443C78.0035 64.3042 77.9982 64.4816 78.0462 64.6732C78.2862 65.6311 79.9281 66.4252 80.7176 66.8329C84.0136 68.5613 87.8178 69.0931 91.5372 69.2142C97.5824 69.4171 103.666 68.6296 109.462 66.8942C110.869 66.4691 112.273 65.994 113.539 65.2537C114.866 64.484 116.021 63.4477 117.136 62.3859C118.692 60.8972 120.185 59.3459 121.607 57.7339C118.499 59.1069 114.958 58.9572 111.568 59.129C107.986 59.3069 104.424 59.8669 100.841 60.0368C98.6207 60.143 96.4048 60.1057 94.1847 60.17C91.6906 60.249 89.1989 60.4618 86.7259 60.8051C84.3591 61.1348 81.9563 61.6147 79.8121 62.6961C79.7141 62.7499 79.6063 62.7974 79.4922 62.8546C79.7099 62.6081 79.9163 62.3471 80.1273 62.0684C80.3553 61.9121 80.5736 61.7495 80.7935 61.5948C84.1196 59.2448 87.5645 56.8199 90.5858 53.7268L92.8013 51.4469C93.9158 52.9797 98.5648 54.4704 99.5221 54.6335C102.289 55.1026 105.116 54.9296 107.905 54.731C110.023 54.5786 112.153 54.4069 114.216 53.9049C119.083 52.7141 123.454 49.6107 126.18 45.4118C124.645 46.0312 122.984 46.2403 121.337 46.438C115.765 47.1028 110.178 47.6114 104.575 47.9636C102.652 48.084 100.717 48.19 98.8065 48.4507C97.6964 48.6046 96.3107 48.7651 95.0568 49.1167L103.286 40.6734C103.252 40.8317 103.235 40.9946 103.244 41.1607C103.469 43.8345 109.245 43.9923 111.108 43.9094C113.838 43.7901 116.497 43.0473 119.066 42.1132C122.519 40.8622 125.915 39.2196 128.531 36.6388C130.043 35.1422 131.257 33.3799 132.455 31.6209C130.551 32.3589 128.648 33.1049 126.735 33.8445C124.381 34.7595 122.011 35.6859 119.543 36.213C116.633 36.8397 113.642 36.9122 110.7 37.3859C109.587 37.5657 106.728 38.0308 104.891 39.015L107.813 36.0097C108.374 35.432 108.95 34.851 109.526 34.2619C109.671 34.1142 109.809 33.9682 109.955 33.8205C110.797 35.376 118.478 34.1912 119.947 33.6609C122.26 32.83 124.526 31.8495 126.715 30.742C127.969 30.105 129.256 29.3856 130.002 28.1988C126.231 29.0874 122.379 29.6654 118.51 29.9193C116.613 30.0429 114.587 30.1511 112.854 30.8282C113.916 29.7103 114.951 28.5813 115.946 27.4267C116.834 27.7387 119.775 26.736 120.425 26.5932C124.356 25.747 128.201 24.5241 131.896 22.9457C128.344 21.9672 124.573 22.6543 120.954 23.3437C120.22 23.4871 119.477 23.6322 118.771 23.8705C119.458 22.9308 120.099 21.9672 120.686 20.9894C121.544 21.2822 122.74 20.6488 123.475 19.8168C126.239 16.6593 127.108 12.3321 128.568 8.38637C129.668 5.42183 131.149 2.59673 132.964 0.00491527C129.97 0.346744 127.346 2.31649 125.567 4.75811C123.796 7.19806 122.755 10.0832 121.821 12.9548C121.312 14.5126 119.359 18.2663 119.782 19.8665C119.873 20.2255 120.028 20.4873 120.212 20.6845L119.436 20.2235C118.383 21.9944 117.133 23.7053 115.764 25.3654C116.224 24.3046 116.376 21.83 116.484 21.2536C117.185 17.2967 117.505 13.2761 117.437 9.25158C115.185 12.1687 114.4 15.9246 113.676 19.5334C113.462 20.6103 113.245 21.7131 113.346 22.809C113.432 23.6728 114.071 26.3955 115.359 25.8438C113.902 27.5722 112.328 29.2578 110.738 30.9048C111.482 29.0633 111.357 26.8726 111.279 24.8316C111.143 21.2074 111.306 17.5717 111.772 13.9742C110.738 14.784 110.177 16.0502 109.71 17.2804C108.886 19.432 108.191 21.6328 107.636 23.8634C107.278 25.2976 106.921 32.6678 108.504 33.18C108.496 33.1817 108.492 33.1995 108.475 33.2028C107.892 33.7935 107.315 34.3745 106.755 34.9522L104.171 37.6022C104.438 36.4975 104.56 35.4227 104.6 34.9274C104.961 30.1761 104.45 25.3449 105.337 20.6611C105.521 19.6827 105.738 18.58 105.167 17.7661C103.921 18.6449 103.376 20.1933 102.957 21.6569C101.848 25.4714 101.035 29.3758 100.531 33.3169C100.368 34.5597 99.7918 39.4478 101.263 40.5962L96.1243 45.8734C96.876 43.9044 96.9219 41.5272 97.0738 39.5815C97.5377 33.4991 97.9935 27.4184 98.4557 21.328C98.0929 21.0756 97.6425 21.4961 97.3997 21.8653C93.9246 27.3528 91.5699 33.5489 90.4921 39.9513C90.0524 42.5359 88.8885 50.8368 92.5215 49.5652L89.5226 52.6452C87.2574 54.969 84.7141 56.9221 82.1556 58.7608C82.9571 57.2769 83.5324 55.9574 83.6824 55.4646C84.6177 52.4753 84.9942 49.3413 85.5064 46.2547C86.5742 39.804 88.212 33.4706 89.8515 27.1452C84.2697 31.7835 80.0676 38.0593 77.8966 44.9815C76.9248 48.0791 76.3618 51.2853 76.0036 54.5079C75.7992 56.3217 74.5245 61.6901 75.5328 63.5219C74.2266 64.514 72.932 65.5625 71.688 66.6929C70.6428 67.6478 69.487 68.4744 68.2761 69.2369C70.2176 66.2412 71.6663 60.5765 71.9244 59.1042C72.7271 54.5387 72.7437 49.867 73.4155 45.2781C73.8003 42.6714 74.3979 40.0793 74.3584 37.4511C74.3162 34.1601 73.3117 30.6819 74.7115 27.7057C67.707 35.7783 63.3035 46.0755 62.3127 56.7167C62.0818 59.1742 62.0625 61.6802 62.4733 64.1142C62.7348 65.6638 63.5898 70.2057 65.2783 70.9817C64.7496 71.2673 64.2209 71.5529 63.6986 71.8288C62.1703 72.6401 60.5987 73.4856 59.105 74.4241C57.5889 75.3756 56.1316 76.4493 54.721 77.5049C55.5368 75.7242 56.0969 73.5598 56.3205 72.4892C57.2498 68.0487 57.3041 63.4783 58.1897 59.03C58.5991 56.989 59.1827 54.9792 59.5049 52.9228C60.5322 46.4385 58.9721 39.5822 61.0864 33.3602C59.0718 34.5407 57.985 36.7972 57.0426 38.94C52.0827 50.2422 47.8618 62.3572 48.9184 74.6575C49.0367 76.0016 49.2294 77.3807 49.9206 78.5309C50.3899 79.2986 50.8349 79.786 51.2672 80.0493C45.5028 84.1292 39.0733 87.3474 32.8495 90.4643C30.4899 91.6406 28.1077 92.8299 25.6801 93.9615C26.8058 93.2334 27.101 92.7526 27.475 91.2311C27.8425 89.7194 28.0163 88.1638 28.0741 86.6153C28.1879 83.5104 27.8502 80.4148 27.69 77.3246C27.4024 71.9937 27.663 66.6335 28.4707 61.3616C28.7028 59.8443 28.9832 58.317 28.9507 56.7788C28.9259 55.4406 28.6691 54.1167 28.5427 52.7742C28.3401 50.6163 28.4743 48.4224 28.9428 46.302C27.2535 48.4061 26.7393 51.1991 25.5503 53.6111C24.9168 54.8923 24.0939 56.07 23.326 57.2699C22.194 59.0236 21.1625 60.8573 20.4139 62.8004C19.1579 66.0659 18.713 69.6003 18.6888 73.0981C18.6491 79.6889 20.0768 86.2702 22.7184 92.3068C22.9704 92.876 23.2418 93.458 23.7121 93.8645C24.0591 94.1622 24.5489 94.3381 24.9903 94.2804C21.6219 95.8163 18.1736 97.2093 14.6212 98.2207L15.0205 99.6243C18.185 98.7266 21.2557 97.5377 24.2498 96.2219C24.32 97.8614 24.8933 99.7412 25.7483 101.034C26.5088 102.195 27.624 103.081 28.7453 103.915C34.0274 107.819 39.973 110.83 46.2456 112.783C49.5742 113.816 52.9766 114.557 56.3855 115.288C58.3442 115.706 60.3207 116.128 62.3323 116.233C63.7163 116.308 65.1412 116.215 66.4263 115.689C60.1533 114.182 54.7937 110.269 49.0311 107.371C47.1479 106.425 45.209 105.575 43.4614 104.391C41.5178 103.072 39.8652 101.373 38.0016 99.9533C36.2871 98.6453 34.3968 97.5835 32.5081 96.5298C31.0645 95.7199 29.6014 94.8973 27.985 94.5513C27.9689 94.5547 27.9495 94.5419 27.9317 94.5372C29.819 93.6349 31.6916 92.702 33.5337 91.7838C35.109 90.9964 36.7067 90.196 38.293 89.3811C38.8344 91.5529 42.8758 94.8568 43.8902 95.621C46.256 97.3989 48.852 98.869 51.5622 100.038C54.5862 101.344 57.7432 102.279 60.919 103.142C65.4922 104.388 70.2112 105.486 74.9266 105.024C78.153 104.709 81.2553 103.673 84.3254 102.644C83.0537 102.991 81.7175 102.579 80.4668 102.174C75.2553 100.481 70.0375 98.7968 64.826 97.1034C62.2712 96.2797 59.7148 95.448 57.2536 94.3867C54.1472 93.0473 51.2014 91.3473 48.0997 89.9902C46.4842 89.283 44.8129 88.6714 43.0912 88.2632C42.6762 88.1643 41.9799 87.964 41.2389 87.8317C44.9222 85.8697 48.5578 83.7579 51.9883 81.3443C52.0026 82.0635 52.598 82.8724 52.9964 83.3777L53.0097 83.4422Z" fill="#971EA1"/>
</g>
<defs>
<clipPath id="clip0_4995_6">
<rect width="100" height="135.8" fill="white" transform="matrix(-0.202439 -0.979295 -0.979295 0.202439 153.232 97.9294)"/>
</clipPath>
</defs>
</svg>
