<svg width="310" height="283" viewBox="0 0 310 283" fill="none" xmlns="http://www.w3.org/2000/svg">
<g clip-path="url(#clip0_4973_1133)">
<path d="M158.87 261C234.532 261 295.868 202.573 295.868 130.5C295.868 58.4268 234.532 0 158.87 0C83.2088 0 21.873 58.4268 21.873 130.5C21.873 202.573 83.2088 261 158.87 261Z" fill="#FBEFDE"/>
</g>
<g clip-path="url(#clip1_4973_1133)">
<path d="M208.651 216.754C205.859 220.096 204.94 224.577 204.31 228.88C203.477 234.566 203.014 240.501 204.864 245.936C205.112 246.671 205.412 247.402 205.943 247.966C206.445 248.493 207.526 249.025 208.268 248.709C209.018 248.391 209.412 247.034 209.685 246.311C210.756 243.429 211.356 240.378 211.47 237.308C211.545 235.306 211.404 233.297 211.532 231.3C211.888 225.705 214.277 220.379 214.522 214.785C214.587 213.274 214.496 211.759 214.608 210.254C214.703 208.959 214.944 207.687 215.192 206.413C213.305 208.396 212.921 211.381 211.373 213.642C210.593 214.782 209.537 215.697 208.659 216.753L208.651 216.754Z" fill="#971EA1"/>
<path d="M220.663 245.212C222.298 247.239 224.567 248.682 226.875 249.842C229.769 251.297 232.824 252.415 235.938 253.283C239.619 254.308 243.428 254.988 247.249 254.902C251.07 254.816 254.922 253.946 258.231 252.031C255.163 251.925 252.201 250.929 249.214 250.212C247.6 249.827 245.967 249.527 244.358 249.126C237.55 247.458 231.194 244.17 224.324 242.773C223.658 242.637 222.362 242.282 221.333 242.287C221.706 242.01 222.078 241.733 222.444 241.458C223.829 240.415 225.267 239.34 226.748 238.404C228.027 237.598 229.396 236.871 230.725 236.166C230.925 236.058 231.125 235.95 231.325 235.842C231.589 236.654 232.582 237.694 232.971 238.103C234 239.21 235.291 240.077 236.673 240.702C238.98 241.752 241.513 242.177 244.02 242.511C246.946 242.899 249.88 243.182 252.828 243.351C254.306 243.438 255.792 243.494 257.269 243.433C262.318 243.227 267.257 241.628 271.679 239.18C270.622 239.406 269.524 239.151 268.469 238.887C266.899 238.5 265.33 238.113 263.761 237.734C261.873 237.272 259.975 236.804 258.043 236.67C255.998 236.53 253.94 236.755 251.887 236.683C248.356 236.561 244.93 235.549 241.459 234.888C239.784 234.568 238.085 234.341 236.37 234.325C235.887 234.321 234.94 234.294 233.99 234.357C235.415 233.507 236.801 232.576 238.042 231.445C239.201 230.382 240.423 229.411 241.661 228.481C242.01 228.52 242.386 228.405 242.762 228.179C242.725 228.32 242.72 228.477 242.762 228.646C242.974 229.491 244.423 230.192 245.12 230.552C248.03 232.078 251.387 232.547 254.67 232.654C260.006 232.833 265.376 232.138 270.492 230.606C271.734 230.231 272.974 229.811 274.091 229.158C275.262 228.479 276.281 227.564 277.266 226.627C278.64 225.313 279.957 223.943 281.212 222.52C278.468 223.732 275.343 223.6 272.351 223.752C269.189 223.909 266.045 224.403 262.882 224.553C260.923 224.647 258.967 224.614 257.007 224.671C254.806 224.741 252.607 224.928 250.424 225.231C248.335 225.522 246.214 225.946 244.321 226.901C244.234 226.948 244.139 226.99 244.039 227.04C244.231 226.823 244.413 226.592 244.599 226.346C244.8 226.209 244.993 226.065 245.187 225.928C248.123 223.854 251.164 221.714 253.831 218.984L255.786 216.971C256.77 218.324 260.873 219.64 261.718 219.784C264.161 220.198 266.656 220.045 269.118 219.87C270.987 219.735 272.868 219.584 274.688 219.141C278.984 218.09 282.842 215.35 285.248 211.644C283.894 212.191 282.428 212.375 280.974 212.55C276.056 213.137 271.124 213.586 266.178 213.897C264.481 214.003 262.773 214.096 261.087 214.326C260.107 214.462 258.884 214.604 257.777 214.914L265.041 207.462C265.01 207.601 264.996 207.745 265.004 207.892C265.203 210.252 270.301 210.391 271.945 210.318C274.355 210.213 276.702 209.557 278.97 208.733C282.017 207.628 285.015 206.178 287.323 203.9C288.659 202.579 289.73 201.024 290.788 199.471C289.107 200.123 287.427 200.781 285.739 201.434C283.66 202.242 281.569 203.059 279.39 203.525C276.822 204.078 274.182 204.142 271.585 204.56C270.603 204.719 268.079 205.129 266.458 205.998L269.037 203.345C269.532 202.835 270.041 202.322 270.548 201.802C270.677 201.672 270.799 201.543 270.927 201.413C271.671 202.786 278.45 201.74 279.747 201.272C281.789 200.539 283.789 199.673 285.721 198.696C286.828 198.133 287.964 197.498 288.622 196.451C285.293 197.235 281.893 197.745 278.479 197.969C276.804 198.078 275.016 198.174 273.486 198.772C274.424 197.785 275.337 196.788 276.216 195.769C276.999 196.045 279.595 195.16 280.169 195.033C283.639 194.287 287.032 193.207 290.294 191.814C287.159 190.95 283.831 191.557 280.636 192.165C279.988 192.292 279.333 192.42 278.709 192.63C279.316 191.801 279.881 190.95 280.399 190.087C281.157 190.346 282.212 189.787 282.861 189.052C285.301 186.265 286.068 182.446 287.356 178.963C288.327 176.346 289.635 173.852 291.237 171.565C288.594 171.866 286.278 173.605 284.708 175.76C283.145 177.914 282.226 180.461 281.401 182.995C280.952 184.37 279.228 187.684 279.601 189.096C279.682 189.413 279.819 189.644 279.98 189.818L279.296 189.411C278.367 190.974 277.263 192.484 276.054 193.95C276.461 193.013 276.595 190.829 276.69 190.32C277.309 186.828 277.591 183.279 277.531 179.727C275.544 182.301 274.851 185.617 274.212 188.802C274.023 189.753 273.832 190.726 273.92 191.693C273.997 192.456 274.56 194.859 275.697 194.372C274.412 195.898 273.022 197.385 271.618 198.839C272.275 197.214 272.164 195.28 272.096 193.479C271.976 190.28 272.12 187.07 272.531 183.895C271.619 184.61 271.124 185.727 270.711 186.813C269.984 188.713 269.37 190.655 268.881 192.624C268.564 193.89 268.249 200.395 269.647 200.847C269.64 200.849 269.636 200.865 269.621 200.868C269.107 201.389 268.597 201.902 268.103 202.412L265.822 204.751C266.057 203.776 266.165 202.827 266.201 202.39C266.52 198.196 266.068 193.932 266.851 189.797C267.014 188.934 267.205 187.96 266.701 187.242C265.601 188.018 265.121 189.384 264.75 190.676C263.771 194.043 263.053 197.49 262.609 200.968C262.465 202.065 261.956 206.38 263.255 207.394L258.719 212.052C259.383 210.314 259.423 208.215 259.557 206.498C259.967 201.129 260.369 195.762 260.777 190.386C260.457 190.163 260.059 190.534 259.845 190.86C256.778 195.704 254.699 201.173 253.748 206.824C253.36 209.106 252.332 216.433 255.539 215.31L252.892 218.029C250.893 220.08 248.648 221.804 246.39 223.427C247.097 222.117 247.605 220.952 247.737 220.517C248.563 217.879 248.895 215.113 249.347 212.388C250.29 206.694 251.735 201.104 253.183 195.521C248.256 199.615 244.546 205.154 242.63 211.264C241.772 213.998 241.275 216.829 240.959 219.673C240.779 221.274 239.654 226.013 240.544 227.629C239.391 228.505 238.248 229.431 237.15 230.428C236.227 231.271 235.207 232.001 234.138 232.674C235.852 230.03 237.131 225.03 237.359 223.73C238.067 219.7 238.082 215.577 238.675 211.526C239.015 209.225 239.542 206.937 239.507 204.617C239.47 201.713 238.583 198.642 239.819 196.015C233.636 203.141 229.749 212.23 228.875 221.623C228.671 223.792 228.654 226.004 229.016 228.152C229.247 229.52 230.002 233.529 231.492 234.214C231.026 234.466 230.559 234.718 230.098 234.962C228.749 235.678 227.362 236.424 226.043 237.252C224.705 238.092 223.419 239.04 222.174 239.972C222.894 238.4 223.388 236.49 223.586 235.545C224.406 231.625 224.454 227.591 225.236 223.665C225.597 221.863 226.112 220.089 226.396 218.274C227.303 212.55 225.926 206.499 227.792 201.007C226.014 202.049 225.055 204.04 224.223 205.932C219.845 215.908 216.119 226.601 217.052 237.459C217.156 238.645 217.327 239.862 217.937 240.877C218.351 241.555 218.744 241.985 219.125 242.218C214.037 245.819 208.362 248.66 202.868 251.411C200.786 252.449 198.683 253.499 196.54 254.498C197.534 253.855 197.794 253.431 198.124 252.088C198.449 250.753 198.602 249.38 198.653 248.013C198.754 245.273 198.456 242.54 198.314 239.813C198.06 235.107 198.29 230.376 199.003 225.723C199.208 224.383 199.456 223.035 199.427 221.678C199.405 220.496 199.178 219.328 199.067 218.143C198.888 216.238 199.007 214.301 199.42 212.43C197.929 214.287 197.475 216.752 196.426 218.881C195.866 220.012 195.14 221.052 194.462 222.111C193.463 223.659 192.553 225.277 191.892 226.993C190.783 229.875 190.391 232.995 190.369 236.082C190.334 241.9 191.594 247.709 193.926 253.037C194.148 253.539 194.388 254.053 194.803 254.412C195.109 254.675 195.542 254.83 195.931 254.779C192.958 256.135 189.914 257.364 186.779 258.257L187.131 259.496C189.924 258.704 192.635 257.654 195.278 256.493C195.34 257.94 195.846 259.599 196.6 260.74C197.272 261.765 198.256 262.547 199.246 263.284C203.908 266.729 209.156 269.387 214.693 271.111C217.631 272.023 220.634 272.677 223.643 273.322C225.372 273.691 227.116 274.064 228.892 274.156C230.114 274.222 231.371 274.14 232.506 273.676C226.969 272.345 222.238 268.891 217.151 266.334C215.489 265.499 213.778 264.749 212.235 263.704C210.52 262.539 209.061 261.04 207.416 259.786C205.903 258.632 204.234 257.695 202.567 256.765C201.293 256.05 200.001 255.324 198.575 255.018C198.56 255.021 198.543 255.01 198.528 255.006C200.193 254.209 201.846 253.386 203.472 252.575C204.863 251.88 206.273 251.174 207.673 250.455C208.151 252.372 211.718 255.288 212.614 255.962C214.702 257.532 216.993 258.829 219.386 259.861C222.055 261.014 224.841 261.839 227.645 262.601C231.681 263.701 235.847 264.67 240.009 264.262C242.857 263.984 245.595 263.07 248.305 262.162C247.182 262.468 246.003 262.104 244.899 261.747C240.299 260.252 235.693 258.766 231.093 257.271C228.838 256.544 226.582 255.81 224.409 254.873C221.667 253.691 219.067 252.19 216.329 250.992C214.903 250.368 213.428 249.828 211.909 249.468C211.542 249.381 210.928 249.204 210.273 249.087C213.525 247.355 216.734 245.491 219.762 243.361C219.774 243.996 220.3 244.71 220.651 245.156L220.663 245.212Z" fill="#971EA1"/>
</g>
<g clip-path="url(#clip2_4973_1133)">
<path d="M101.349 216.754C104.141 220.096 105.06 224.577 105.69 228.88C106.523 234.566 106.986 240.501 105.136 245.936C104.888 246.671 104.588 247.402 104.056 247.966C103.555 248.493 102.474 249.025 101.732 248.709C100.982 248.391 100.588 247.034 100.315 246.311C99.2435 243.429 98.644 240.378 98.53 237.308C98.4547 235.306 98.5957 233.297 98.4677 231.3C98.1124 225.705 95.7228 220.379 95.4785 214.785C95.4128 213.274 95.5037 211.759 95.3924 210.254C95.2969 208.959 95.056 207.687 94.808 206.413C96.6954 208.396 97.0789 211.381 98.6272 213.642C99.407 214.782 100.463 215.697 101.341 216.753L101.349 216.754Z" fill="#EAAD5A"/>
<path d="M89.3367 245.212C87.7024 247.239 85.4328 248.682 83.1252 249.842C80.2306 251.297 77.176 252.415 74.0617 253.283C70.3814 254.308 66.5723 254.988 62.7512 254.902C58.93 254.816 55.0783 253.946 51.7685 252.031C54.8365 251.925 57.7993 250.929 60.7859 250.212C62.3996 249.827 64.0327 249.527 65.6423 249.126C72.4496 247.458 78.8062 244.17 85.6759 242.773C86.3415 242.637 87.6376 242.282 88.6667 242.287C88.2941 242.01 87.9216 241.733 87.5561 241.458C86.1708 240.415 84.733 239.34 83.2516 238.404C81.9729 237.598 80.6041 236.871 79.2749 236.166C79.0749 236.058 78.8749 235.95 78.6749 235.842C78.4106 236.654 77.4175 237.694 77.0292 238.103C76.0001 239.21 74.7092 240.077 73.3273 240.702C71.0204 241.752 68.4869 242.177 65.9796 242.511C63.0535 242.899 60.1195 243.182 57.1721 243.351C55.6941 243.438 54.2077 243.494 52.7306 243.433C47.6819 243.227 42.7431 241.628 38.3209 239.18C39.3784 239.406 40.476 239.151 41.531 238.887C43.1007 238.5 44.6703 238.113 46.2384 237.734C48.1274 237.272 50.0249 236.804 51.9573 236.67C54.0021 236.53 56.0603 236.755 58.1133 236.683C61.644 236.561 65.0694 235.549 68.541 234.888C70.2156 234.568 71.9151 234.341 73.6304 234.325C74.1129 234.321 75.0596 234.294 76.01 234.357C74.585 233.507 73.199 232.576 71.958 231.445C70.7991 230.382 69.577 229.411 68.339 228.481C67.99 228.52 67.6136 228.405 67.2378 228.179C67.2753 228.32 67.28 228.477 67.2377 228.646C67.0258 229.491 65.5766 230.192 64.8796 230.552C61.9704 232.078 58.6125 232.547 55.3295 232.654C49.9936 232.833 44.6234 232.138 39.5078 230.606C38.2662 230.231 37.0263 229.811 35.9089 229.158C34.7376 228.479 33.7186 227.564 32.734 226.627C31.3604 225.313 30.0427 223.943 28.7879 222.52C31.5315 223.732 34.6566 223.6 37.649 223.752C40.8107 223.909 43.9545 224.403 47.1177 224.553C49.0771 224.647 51.033 224.614 52.9926 224.671C55.1941 224.741 57.3934 224.928 59.5763 225.231C61.6654 225.522 63.7863 225.946 65.6789 226.901C65.7655 226.948 65.8606 226.99 65.9613 227.04C65.7691 226.823 65.587 226.592 65.4007 226.346C65.1995 226.209 65.0068 226.065 64.8127 225.928C61.8769 223.854 58.8361 221.714 56.1693 218.984L54.2137 216.971C53.23 218.324 49.1265 219.64 48.2815 219.784C45.8392 220.198 43.3436 220.045 40.8823 219.87C39.0128 219.735 37.1321 219.584 35.3117 219.141C31.0156 218.09 27.1574 215.35 24.7517 211.644C26.106 212.191 27.5723 212.375 29.0259 212.55C33.9441 213.137 38.876 213.586 43.8216 213.897C45.519 214.003 47.2265 214.096 48.9131 214.326C49.8929 214.462 51.1161 214.604 52.2229 214.914L44.9592 207.462C44.9896 207.601 45.0043 207.745 44.9962 207.892C44.7974 210.252 39.6994 210.391 38.0545 210.318C35.6454 210.213 33.2982 209.557 31.0304 208.733C27.983 207.628 24.9848 206.178 22.6766 203.9C21.3414 202.579 20.2697 201.024 19.2122 199.471C20.8933 200.123 22.5728 200.781 24.261 201.434C26.3396 202.242 28.431 203.059 30.61 203.525C33.1784 204.078 35.8184 204.142 38.4147 204.56C39.3973 204.719 41.9211 205.129 43.5424 205.998L40.9633 203.345C40.4684 202.835 39.9593 202.322 39.4517 201.802C39.323 201.672 39.2014 201.543 39.0727 201.413C38.3294 202.786 31.5495 201.74 30.253 201.272C28.2109 200.539 26.211 199.673 24.2787 198.696C23.1721 198.133 22.0361 197.498 21.3781 196.451C24.7066 197.235 28.1066 197.745 31.5212 197.969C33.1958 198.078 34.9843 198.174 36.5135 198.772C35.5761 197.785 34.6631 196.788 33.7843 195.769C33.0011 196.045 30.4049 195.16 29.8307 195.033C26.3611 194.287 22.9676 193.207 19.7057 191.814C22.8412 190.95 26.1694 191.557 29.3638 192.165C30.0121 192.292 30.6674 192.42 31.2909 192.63C30.6842 191.801 30.1189 190.95 29.6007 190.087C28.8432 190.346 27.7878 189.787 27.1392 189.052C24.6991 186.265 23.9323 182.446 22.6439 178.963C21.673 176.346 20.3653 173.852 18.7631 171.565C21.4058 171.866 23.7218 173.605 25.2921 175.76C26.8553 177.914 27.774 180.461 28.5989 182.995C29.0483 184.37 30.772 187.684 30.3985 189.096C30.3181 189.413 30.1814 189.644 30.0195 189.818L30.7039 189.411C31.6332 190.974 32.7366 192.484 33.9455 193.95C33.5388 193.013 33.4048 190.829 33.3099 190.32C32.6905 186.828 32.4088 183.279 32.4687 179.727C34.4562 182.301 35.1494 185.617 35.7878 188.802C35.9767 189.753 36.1683 190.726 36.0795 191.693C36.0034 192.456 35.4399 194.859 34.3029 194.372C35.5883 195.898 36.9779 197.385 38.3819 198.839C37.7248 197.214 37.8355 195.28 37.9041 193.479C38.0244 190.28 37.88 187.07 37.4692 183.895C38.3812 184.61 38.8764 185.727 39.2893 186.813C40.0158 188.713 40.6295 190.655 41.1193 192.624C41.4356 193.89 41.7509 200.395 40.3531 200.847C40.3602 200.849 40.3644 200.865 40.3786 200.868C40.8934 201.389 41.4025 201.902 41.8973 202.412L44.1781 204.751C43.9425 203.776 43.8347 202.827 43.7991 202.39C43.4803 198.196 43.932 193.932 43.1487 189.797C42.9864 188.934 42.7948 187.96 43.299 187.242C44.3986 188.018 44.8794 189.384 45.2497 190.676C46.2286 194.043 46.9465 197.49 47.3909 200.968C47.5347 202.065 48.0435 206.38 46.7445 207.394L51.2806 212.052C50.6171 210.314 50.5766 208.215 50.4425 206.498C50.033 201.129 49.6307 195.762 49.2227 190.386C49.543 190.163 49.9406 190.534 50.1548 190.86C53.2222 195.704 55.3006 201.173 56.252 206.824C56.6401 209.106 57.6675 216.433 54.4607 215.31L57.1077 218.029C59.1071 220.08 61.3521 221.804 63.6104 223.427C62.9029 222.117 62.3952 220.952 62.2628 220.517C61.4372 217.879 61.1049 215.113 60.6527 212.388C59.7102 206.694 58.2645 201.104 56.8174 195.521C61.7443 199.615 65.4535 205.154 67.3697 211.264C68.2275 213.998 68.7245 216.829 69.0406 219.673C69.221 221.274 70.3462 226.013 69.4561 227.629C70.6091 228.505 71.7518 229.431 72.8499 230.428C73.7725 231.271 74.7926 232.001 75.8615 232.674C74.1477 230.03 72.8691 225.03 72.6412 223.73C71.9327 219.7 71.918 215.577 71.325 211.526C70.9854 209.225 70.4579 206.937 70.4928 204.617C70.53 201.713 71.4167 198.642 70.1811 196.015C76.3637 203.141 80.2507 212.23 81.1252 221.623C81.329 223.792 81.346 226.004 80.9834 228.152C80.7526 229.52 79.9979 233.529 78.5075 234.214C78.9742 234.466 79.4408 234.718 79.9019 234.962C81.2509 235.678 82.6381 236.424 83.9565 237.252C85.2947 238.092 86.581 239.04 87.8262 239.972C87.1061 238.4 86.6117 236.49 86.4143 235.545C85.5941 231.625 85.5461 227.591 84.7644 223.665C84.4031 221.863 83.8879 220.089 83.6036 218.274C82.6968 212.55 84.0738 206.499 82.2076 201.007C83.9858 202.049 84.9451 204.04 85.777 205.932C90.1549 215.908 93.8806 226.601 92.948 237.459C92.8436 238.645 92.6734 239.862 92.0634 240.877C91.6491 241.555 91.2563 241.985 90.8748 242.218C95.9628 245.819 101.638 248.66 107.131 251.411C109.214 252.449 111.317 253.499 113.46 254.498C112.466 253.855 112.206 253.431 111.875 252.088C111.551 250.753 111.398 249.38 111.347 248.013C111.246 245.273 111.544 242.54 111.686 239.813C111.94 235.107 111.71 230.376 110.997 225.723C110.792 224.383 110.544 223.035 110.573 221.678C110.595 220.496 110.821 219.328 110.933 218.143C111.112 216.238 110.993 214.301 110.58 212.43C112.071 214.287 112.525 216.752 113.574 218.881C114.134 220.012 114.86 221.052 115.538 222.111C116.537 223.659 117.447 225.277 118.108 226.993C119.217 229.875 119.609 232.995 119.631 236.082C119.666 241.9 118.406 247.709 116.074 253.037C115.852 253.539 115.612 254.053 115.197 254.412C114.891 254.675 114.458 254.83 114.069 254.779C117.042 256.135 120.086 257.364 123.221 258.257L122.869 259.496C120.076 258.704 117.365 257.654 114.722 256.493C114.66 257.94 114.154 259.599 113.4 260.74C112.728 261.765 111.744 262.547 110.754 263.284C106.092 266.729 100.844 269.387 95.3072 271.111C92.3691 272.023 89.3659 272.677 86.357 273.322C84.6281 273.691 82.8835 274.064 81.1079 274.156C79.8862 274.222 78.6285 274.14 77.4942 273.676C83.0312 272.345 87.762 268.891 92.8485 266.334C94.5107 265.499 96.2222 264.749 97.7647 263.704C99.4803 262.539 100.939 261.04 102.584 259.786C104.097 258.632 105.766 257.695 107.433 256.765C108.707 256.05 109.999 255.324 111.425 255.018C111.44 255.021 111.457 255.01 111.472 255.006C109.806 254.209 108.154 253.386 106.528 252.575C105.137 251.88 103.727 251.174 102.327 250.455C101.849 252.372 98.2816 255.288 97.3862 255.962C95.298 257.532 93.0065 258.829 90.6143 259.861C87.9452 261.014 85.1586 261.839 82.3553 262.601C78.3187 263.701 74.1534 264.67 69.9912 264.262C67.1434 263.984 64.4051 263.07 61.6952 262.162C62.8176 262.468 63.9971 262.104 65.1011 261.747C69.7011 260.252 74.3067 258.766 78.9067 257.271C81.1618 256.544 83.4183 255.81 85.5907 254.873C88.3326 253.691 90.9328 252.19 93.6706 250.992C95.0965 250.368 96.5718 249.828 98.0914 249.468C98.4578 249.381 99.0724 249.204 99.7265 249.087C96.4753 247.355 93.2662 245.491 90.2383 243.361C90.2256 243.996 89.7001 244.71 89.3485 245.156L89.3367 245.212Z" fill="#EAAD5A"/>
</g>
<defs>
<clipPath id="clip0_4973_1133">
<rect width="274" height="261" fill="white" transform="translate(21.873)"/>
</clipPath>
<clipPath id="clip1_4973_1133">
<rect width="88.2673" height="119.867" fill="white" transform="matrix(-0.202439 -0.979295 -0.979295 0.202439 309.127 258)"/>
</clipPath>
<clipPath id="clip2_4973_1133">
<rect width="88.2673" height="119.867" fill="white" transform="translate(0.873047 258) rotate(-78.3204)"/>
</clipPath>
</defs>
</svg>
