<svg width="64" height="106" viewBox="0 0 64 106" fill="none" xmlns="http://www.w3.org/2000/svg">
<path d="M37.8386 79.4296L39.2559 75.7686L39.5463 16.7561L38.924 12.9543L38.288 11.7786L39.5808 9.32851L39.6292 0.0704038L28.4429 0.0211211L28.2839 15.0031L28.0073 0.0140808H26.2582C26.2167 6.89957 26.1545 17.263 26.1683 18.9879C26.1683 19.1639 26.1683 19.2554 26.1683 19.2414C26.1683 19.2273 26.1683 19.1428 26.1683 18.9879C26.0992 16.735 25.47 0 25.47 0H24.7164L24.4744 49.0926L25.6705 50.036L24.8616 51.2892L25.3317 54.3377L24.4399 55.8514L24.191 105.923L39.1038 106L39.2282 81.0911L37.8386 79.4366V79.4296Z" fill="#5F2430"/>
<g style="mix-blend-mode:multiply" opacity="0.25">
<path d="M26.915 26.6337C26.6523 29.2668 26.272 32.3012 25.1105 35.0188C24.9377 35.4271 24.7441 35.8143 24.5436 36.1875V36.5465C24.8063 36.0819 25.0552 35.5961 25.2695 35.0892C26.4448 32.3505 26.8251 29.2949 27.0878 26.6478C27.9797 17.805 27.9589 8.84968 27.0256 0.00695801H26.8528C27.7792 8.84264 27.7999 17.791 26.915 26.6266V26.6337Z" fill="#4A0B5A"/>
<path d="M29.5353 24.7819C29.3486 25.5915 29.1481 26.4082 28.9545 27.2249C27.0533 35.1946 25.0898 43.4319 26.7629 51.4438C27.0256 52.7111 27.392 53.9995 27.7377 55.2386C28.5881 58.266 29.4731 61.3989 29.0029 64.5178C28.6572 66.8411 27.5718 69.0448 26.5278 71.171C25.6705 72.91 24.7994 74.6912 24.3362 76.5358V77.3524C24.7026 75.2826 25.6705 73.3042 26.6868 71.2484C27.7377 69.1081 28.8301 66.8904 29.1827 64.5389C29.6528 61.3848 28.7679 58.2308 27.9106 55.1823C27.5649 53.9432 27.1984 52.6618 26.9357 51.3945C25.2695 43.4248 27.233 35.2017 29.1274 27.2601C29.321 26.4434 29.5145 25.6267 29.7081 24.8171C31.6578 16.4813 33.0198 7.75825 30.1713 0.020874H29.9847C32.8469 7.72305 31.4849 16.4461 29.5353 24.7749V24.7819Z" fill="#4A0B5A"/>
<path d="M27.233 105.937H27.4128C27.8414 104.585 28.2217 103.219 28.5051 101.825C29.5145 96.9319 29.2518 92.3768 27.7308 88.6595C27.3367 87.6879 26.8389 86.7375 26.3619 85.8081C25.5115 84.1677 24.6404 82.478 24.3085 80.6616V81.4361C24.7164 82.999 25.47 84.4634 26.2098 85.8856C26.6868 86.8079 27.1777 87.7583 27.5718 88.7158C29.0721 92.405 29.3348 96.9179 28.3323 101.776C28.0419 103.177 27.6617 104.557 27.2261 105.923L27.233 105.937Z" fill="#4A0B5A"/>
<path d="M25.6567 61.9905C25.954 59.7095 25.6498 57.3509 24.8201 55.2036L24.7026 55.4007C25.4838 57.4847 25.7742 59.7587 25.4838 61.9624C25.311 63.2719 24.9307 64.5462 24.3915 65.7431V66.1584C25.0275 64.8489 25.47 63.4338 25.6567 61.9835V61.9905Z" fill="#4A0B5A"/>
<path d="M24.2671 90.2577C25.2972 92.7923 25.6982 95.5802 25.3802 98.326C25.2004 99.8678 24.7994 101.367 24.2048 102.776V103.212C24.8893 101.677 25.3594 100.037 25.553 98.3471C25.8918 95.4324 25.4286 92.4684 24.2671 89.8071V90.2577Z" fill="#4A0B5A"/>
<path d="M33.4208 17.1082C33.1096 19.3611 32.681 21.6351 32.2593 23.8388C31.5679 27.4857 30.8489 31.2523 30.6829 35.0259C30.4894 39.3276 31.0148 43.6786 31.5195 47.8887C31.9551 51.5075 32.3975 55.2459 32.3975 58.9421C32.3975 62.7791 31.8928 66.6654 31.4158 70.432C30.7382 75.7475 30.04 81.239 30.7175 86.632C30.9526 88.4977 31.3536 90.3704 31.7407 92.1798C32.1141 93.9258 32.5082 95.7352 32.7432 97.5305C33.1719 100.79 32.9852 103.613 32.1901 105.965H32.3699C33.158 103.599 33.3378 100.769 32.9091 97.5093C32.6741 95.7 32.28 93.8906 31.9067 92.1446C31.5195 90.3422 31.1185 88.4765 30.8834 86.6108C30.2128 81.239 30.9111 75.7616 31.5817 70.4602C32.0588 66.6936 32.5565 62.7932 32.5635 58.9492C32.5635 55.2459 32.121 51.5004 31.6854 47.8746C31.1807 43.6715 30.6622 39.3276 30.8558 35.04C31.0217 31.2805 31.7407 27.5209 32.4321 23.881C32.8538 21.6774 33.2825 19.3963 33.5936 17.1434C34.5615 10.0467 33.9324 4.44252 31.6716 0.0493164H31.478C33.7526 4.42139 34.3956 10.0115 33.4208 17.1222V17.1082Z" fill="#4A0B5A"/>
<path d="M39.3804 51.3878C35.4741 48.0366 34.0292 42.2775 34.0222 37.6098C34.0222 34.0473 34.6445 30.4638 35.246 27.0069C35.6331 24.7751 36.041 22.4589 36.2692 20.1707C36.9536 13.3979 36.1655 6.48423 33.9946 0.0493164H33.8079C35.9857 6.47719 36.7808 13.3838 36.0964 20.1496C35.8682 22.4377 35.4603 24.7399 35.0731 26.9717C34.4647 30.4426 33.8425 34.0262 33.8494 37.6098C33.8494 42.362 35.3497 48.2337 39.3804 51.6131V51.3878Z" fill="#4A0B5A"/>
<path d="M39.4288 41.0595C38.7167 39.1586 38.3088 37.2788 38.0806 35.6736C37.5759 32.1111 37.6865 28.4431 37.7833 24.8877C37.811 23.9936 37.8317 23.0713 37.8525 22.1631C37.9838 14.7848 37.4584 7.35011 36.3107 0.0562744H36.1379C37.2925 7.35011 37.8179 14.7777 37.6865 22.156C37.6727 23.0642 37.6451 23.9725 37.6174 24.8807C37.5137 28.4361 37.41 32.1182 37.9147 35.6947C38.1567 37.4266 38.613 39.4824 39.4288 41.5241V41.0524V41.0595Z" fill="#4A0B5A"/>
<path d="M36.1448 58.7731C35.882 57.7171 35.5156 56.661 35.1561 55.6401C34.3749 53.4013 33.5729 51.0921 33.8632 48.7335L33.6904 48.7124C33.3931 51.1061 34.2089 53.4435 34.9971 55.6965C35.3497 56.7173 35.7161 57.7663 35.9788 58.8154C37.2993 64.1027 36.0134 69.5801 34.7689 74.8745C33.8287 78.8734 32.8608 83.0131 32.9714 87.1177C33.0474 89.7789 33.5798 92.4332 34.0914 95.0029C34.3749 96.418 34.6721 97.8824 34.8796 99.3257C35.246 101.818 35.3013 104.029 35.0455 105.979H35.2183C35.4741 104.015 35.4119 101.797 35.0455 99.2975C34.8312 97.8472 34.5339 96.3828 34.2504 94.9607C33.7388 92.398 33.2064 89.7578 33.1304 87.1106C33.0198 83.0272 33.9877 78.9086 34.921 74.9167C36.1655 69.6012 37.4584 64.1027 36.1309 58.7731H36.1448Z" fill="#4A0B5A"/>
<path d="M39.1522 97.1995C38.0115 95.3831 37.1196 93.1161 36.7048 90.3633C35.9443 85.259 36.9467 80.1336 37.9147 75.1701L39.2905 68.1016V67.1722L37.7418 75.1349C36.7739 80.1054 35.7714 85.2519 36.5319 90.3844C36.9606 93.285 37.9285 95.6506 39.1453 97.5233V97.1995H39.1522Z" fill="#4A0B5A"/>
</g>
<path d="M50.5529 34.9766L63.9654 34.7654L63.9862 30.7946L54.6389 30.5411L63.9862 30.3511L64 27.9432L51.9702 27.8869L48.1815 28.5417L47.3726 29.2176L46.2318 27.8517L14.581 27.6898L11.6634 28.7318L9.72756 28.077L8.60063 29.4147L7.19715 27.6546L0.0760506 27.6194L0.0483958 33.2587L9.81052 33.5755L0.0483958 33.5263L0.0345684 35.216L11.0412 35.6313L0.0345684 35.575L0 42.8055L12.1128 42.8689L12.7903 41.6579L13.7306 42.2704L18.1208 42.897L49.7993 43.066L50.5736 42.3831L52.7307 42.721L54.0443 41.8973L55.4132 43.0941L63.924 43.1364L63.9585 35.2089L50.5529 34.9766Z" fill="#5F2430"/>
<g style="mix-blend-mode:multiply" opacity="0.25">
<path d="M63.9792 31.6043C62.7901 31.8014 61.5871 31.8929 60.398 31.8718C57.75 31.8225 55.1021 31.2452 52.544 30.689C50.6358 30.2736 48.6585 29.8371 46.6881 29.6259C43.3004 29.2669 39.8366 29.5485 36.4904 29.8231C34.6514 29.9709 32.7501 30.1328 30.8765 30.1751C25.8917 30.3018 21.8058 29.471 18.6877 27.7109H18.3351C21.5154 29.5907 25.7189 30.4778 30.8834 30.3511C32.757 30.3018 34.6652 30.1469 36.5043 29.9991C39.8436 29.7245 43.2935 29.4429 46.6674 29.8019C48.6309 30.0131 50.6013 30.4426 52.5094 30.858C55.0744 31.4212 57.7293 31.9985 60.398 32.0478C60.4809 32.0478 60.557 32.0478 60.6399 32.0478C61.7599 32.0478 62.88 31.9633 63.9862 31.7803V31.5972L63.9792 31.6043Z" fill="#4A0B5A"/>
<path d="M13.6269 40.8976C12.5829 40.6935 11.4974 40.7709 10.4535 40.8413C9.94186 40.8765 9.40951 40.9187 8.88407 40.9187C7.81245 40.9258 6.727 40.785 5.68303 40.6512C4.97092 40.5597 4.23116 40.4611 3.50522 40.4118C2.15014 40.3203 0.995554 40.4259 0.00689697 40.7216V40.9047C0.98864 40.6019 2.14323 40.5034 3.49831 40.5949C4.22425 40.6442 4.9571 40.7357 5.66229 40.8272C6.71317 40.961 7.80554 41.1088 8.88407 41.0948C9.40951 41.0948 9.94186 41.0525 10.4604 41.0173C11.4905 40.9399 12.5622 40.8695 13.5854 41.0666C14.5326 41.2567 15.5143 41.8129 16.095 42.6084L16.3232 42.6436C15.7286 41.7425 14.657 41.1088 13.6199 40.8976H13.6269Z" fill="#4A0B5A"/>
<path d="M21.709 41.4327C20.5406 40.7287 19.1302 40.5245 17.8857 40.3414L7.54284 38.8418C4.90873 38.4617 2.33684 38.1801 0.020752 38.5954V38.7785C2.32301 38.3561 4.88799 38.6377 7.51519 39.0179L17.8581 40.5175C19.0887 40.6935 20.4784 40.8976 21.6191 41.5806C22.1376 41.8903 22.6423 42.362 22.988 42.9182H23.1885C22.8221 42.2916 22.2759 41.7706 21.709 41.4257V41.4327Z" fill="#4A0B5A"/>
<path d="M22.7114 33.0757C26.0922 33.8853 29.6251 33.5192 32.9506 33.0757C33.2756 33.0334 33.5936 32.9912 33.9185 32.9419C36.9467 32.5336 40.0855 32.1041 43.1483 32.4561C45.9622 32.78 48.6931 33.7515 51.3341 34.695L51.7766 34.8498C51.8665 34.878 51.9494 34.9132 52.0324 34.9414H52.5371C52.302 34.8499 52.067 34.7724 51.8319 34.6809L51.3894 34.526C48.7346 33.5826 45.9967 32.5969 43.1621 32.2731C40.0786 31.9211 36.9329 32.3435 33.8909 32.7589C33.5659 32.8011 33.2479 32.8433 32.923 32.8926C29.6113 33.3362 26.0991 33.6952 22.746 32.8926C19.4482 32.1041 16.7933 30.1891 15.4521 27.6827H15.2585C16.6136 30.2736 19.3237 32.2519 22.7114 33.0616V33.0757Z" fill="#4A0B5A"/>
<path d="M60.5017 37.0182C60.7713 37.0323 61.0409 37.0393 61.3036 37.0464C62.2232 37.0464 63.1081 36.9689 63.9516 36.807V36.624C62.8731 36.8352 61.7185 36.9126 60.5086 36.8422C57.8883 36.6944 55.4063 35.941 52.7376 35.0117H52.1776C55.0537 36.0185 57.6947 36.8563 60.5017 37.0182Z" fill="#4A0B5A"/>
<path d="M23.8176 39.4473C22.1445 39.1586 20.4161 39.0953 18.7499 39.0249C17.0284 38.9545 15.2516 38.8841 13.537 38.5743C12.1404 38.3208 10.7508 37.9054 9.40952 37.5041C8.21345 37.1451 6.9759 36.7719 5.72453 36.5185C4.11364 36.1876 2.01188 35.9975 0.0276489 36.5326V36.7156C1.99114 36.1735 4.08598 36.3636 5.68996 36.6945C6.92751 36.948 8.16506 37.3211 9.35421 37.6802C10.7024 38.0815 12.092 38.5039 13.5024 38.7573C15.2308 39.0671 17.0146 39.1375 18.743 39.2079C20.4092 39.2713 22.1238 39.3417 23.79 39.6233C26.8804 40.1513 29.7565 41.4186 32.4598 42.9745H32.8124C30.0261 41.3412 27.0394 39.9964 23.8246 39.4473H23.8176Z" fill="#4A0B5A"/>
<path d="M58.3723 39.229C56.471 38.8418 54.5697 38.2856 52.7376 37.7435C50.4699 37.0746 48.1262 36.3847 45.7548 36.0186C42.2703 35.4765 38.6821 35.6102 35.2183 35.744C34.5823 35.7651 33.9531 35.7933 33.3171 35.8144C29.5214 35.9341 25.1243 35.9552 21.0245 34.5894C17.3603 33.3714 14.4427 31.1396 12.7627 28.3375L12.5967 28.3938C14.2906 31.2452 17.2497 33.5192 20.9692 34.7513C25.0967 36.1171 29.5076 36.1031 33.324 35.9834C33.96 35.9623 34.5892 35.9411 35.2252 35.913C38.689 35.7792 42.2634 35.6454 45.734 36.1876C48.0916 36.5537 50.4353 37.2436 52.6961 37.9054C54.5352 38.4475 56.4364 39.0037 58.3446 39.3909C59.7066 39.6655 61.2898 39.8767 62.9353 39.8908C63.2672 39.8908 63.6059 39.8908 63.9447 39.8697V39.6866C61.9535 39.7852 60.0108 39.5458 58.3792 39.222L58.3723 39.229Z" fill="#4A0B5A"/>
<path d="M50.0896 42.8126C49.4674 42.4395 48.8313 42.0875 48.1884 41.7777C43.2796 39.384 37.7141 39.0883 32.3284 38.7996C29.4177 38.6447 26.4102 38.4828 23.5272 37.997C20.9553 37.5605 18.3973 36.8494 15.9222 36.1665C14.3044 35.7159 12.6313 35.2513 10.9651 34.864C6.66475 33.8713 3.13877 33.646 0.0414429 34.167V34.343C3.12495 33.815 6.6371 34.0403 10.9236 35.033C12.5829 35.4132 14.256 35.8849 15.8738 36.3284C18.3558 37.0184 20.9139 37.7295 23.4927 38.166C26.3895 38.6518 29.4039 38.8137 32.3145 38.9686C37.6796 39.2572 43.2312 39.5529 48.1054 41.9255C48.7276 42.2283 49.336 42.5662 49.9375 42.9253L50.0827 42.7985L50.0896 42.8126Z" fill="#4A0B5A"/>
<path d="M0.0553146 31.3086C1.85287 32.3294 3.89932 32.8926 5.9596 32.8997C6.2085 32.8997 6.4643 32.8997 6.71319 32.8786C7.79864 32.8152 9.74139 32.4843 10.6263 30.9847C11.0412 30.2877 11.1587 29.4076 10.9928 28.5065L10.7992 28.4431C10.9789 29.3443 10.8752 30.2243 10.4742 30.9002C9.63077 32.3294 7.74333 32.6462 6.69937 32.7096C4.38328 32.8504 2.06028 32.2731 0.0484009 31.1114V31.3086H0.0553146Z" fill="#4A0B5A"/>
<path d="M6.04256 27.6476C6.02873 27.8377 6.00108 28.0207 5.95268 28.2038C5.71762 29.0345 5.07465 29.7245 4.27266 30.0132C3.29783 30.3581 2.09485 30.1258 1.05088 29.3795C0.698282 29.1261 0.373338 28.8304 0.0760498 28.5206V28.767C0.345684 29.0416 0.636058 29.3021 0.954088 29.5274C1.70768 30.0624 2.53732 30.344 3.31857 30.3511C3.67117 30.3511 4.00994 30.2948 4.32797 30.1821C5.17835 29.8794 5.86281 29.1401 6.11861 28.2531C6.17392 28.0559 6.20849 27.8518 6.2154 27.6476H6.04256Z" fill="#4A0B5A"/>
<path d="M56.9065 41.3763C56.0562 41.5946 55.2749 41.9325 54.5766 42.362L54.7149 42.4817C55.3855 42.0733 56.1391 41.7495 56.948 41.5453C59.2019 40.968 61.5318 41.2566 63.3086 41.5735C63.516 41.6087 63.7234 41.6509 63.9308 41.6931V41.5171C63.7373 41.4819 63.5368 41.4397 63.3363 41.4045C61.5456 41.0877 59.195 40.792 56.9065 41.3763Z" fill="#4A0B5A"/>
</g>
<path d="M41.088 43.0167C35.0178 29.64 24.5851 26.0916 24.5851 26.0916C24.5851 26.0916 24.0735 25.7607 23.2784 26.4436C22.4833 27.1336 22.7184 27.725 22.7184 27.725C35.4188 34.0965 39.408 44.805 39.408 44.805C39.408 44.805 40.0233 45.0162 40.7493 44.3614C41.4683 43.7067 41.088 43.0167 41.088 43.0167Z" fill="#D4944B"/>
<path d="M22.7737 42.9322C28.7679 29.5203 39.1384 26.1973 39.1384 26.1973C39.1384 26.1973 39.6431 25.8593 40.4451 26.5422C41.2471 27.2252 41.012 27.8236 41.012 27.8236C28.3461 34.2726 24.4814 44.9528 24.4814 44.9528C24.4814 44.9528 23.7969 45.2133 23.071 44.5586C22.345 43.9109 22.7668 42.9252 22.7668 42.9252L22.7737 42.9322Z" fill="#EAAD5A"/>
</svg>
