<svg width="322" height="328" viewBox="0 0 322 328" fill="none" xmlns="http://www.w3.org/2000/svg">
<g clip-path="url(#clip0_4973_872)">
<path d="M161.122 270C239.269 270 302.619 209.558 302.619 135C302.619 60.4416 239.269 0 161.122 0C82.9755 0 19.625 60.4416 19.625 135C19.625 209.558 82.9755 270 161.122 270Z" fill="#FBEFDE"/>
</g>
<g clip-path="url(#clip1_4973_872)">
<path opacity="0.3" d="M302.836 74.8881C312.105 69.1487 314.924 57.0501 309.132 47.8652C303.34 38.6803 291.13 35.8871 281.86 41.6265C272.591 47.3659 269.772 59.4644 275.564 68.6493C281.357 77.8343 293.566 80.6275 302.836 74.8881Z" fill="#EAAD5A"/>
<path d="M292.21 141.747C297.593 141.747 301.996 141.338 305.582 140.657C322.208 137.512 321.617 128.682 321.617 128.682H263.75C263.75 128.682 261.929 141.747 292.202 141.747H292.21Z" fill="#EAAD5A"/>
<g style="mix-blend-mode:multiply" opacity="0.25">
<path d="M292.21 141.747C297.592 141.747 301.996 141.338 305.582 140.657C301.696 140.889 297.795 141.026 293.918 140.721C288.988 140.328 284.042 139.205 279.736 136.783C276.32 134.866 273.325 132.074 271.439 128.682H263.758C263.758 128.682 261.936 141.747 292.21 141.747Z" fill="#D4944B"/>
</g>
<path d="M264.195 128.682C264.195 131.385 276.952 134.633 292.687 134.633C308.423 134.633 321.18 131.393 321.18 128.682C321.18 125.971 306.845 124.832 291.109 124.832C275.373 124.832 264.195 125.979 264.195 128.682Z" fill="#D4944B"/>
<path d="M263.75 128.682C263.75 127.093 266.275 126.019 271.69 125.305C276.32 124.695 282.853 124.391 291.109 124.391C302.506 124.391 321.617 124.952 321.617 128.682C321.617 132.026 307.824 135.066 292.679 135.066C277.534 135.066 263.742 132.018 263.742 128.682H263.75ZM264.632 128.682C264.632 130.847 276.676 134.192 292.679 134.192C308.682 134.192 320.726 130.847 320.726 128.682C320.726 127.037 311.458 125.265 291.101 125.265C270.743 125.265 264.624 127.029 264.624 128.682H264.632Z" fill="#E0A58D"/>
<path d="M288.94 74.2369V134.192H296.37L296.403 74.694C296.403 74.0524 296.241 73.4187 295.941 72.8493C295.181 71.4296 293.659 68.6063 292.76 66.9861C292.598 66.6813 292.356 66.3445 292.008 66.3685C291.668 66.3926 291.481 66.7696 291.36 67.0824L289.183 72.8733C289.013 73.3145 288.932 73.7797 288.932 74.2449L288.94 74.2369Z" fill="white"/>
<g style="mix-blend-mode:multiply" opacity="0.25">
<path d="M288.94 74.2369V134.192H290.777V73.9322L292.015 66.3606C291.675 66.3847 291.489 66.7616 291.368 67.0744L289.19 72.8654C289.02 73.3065 288.94 73.7717 288.94 74.2369Z" fill="#9163AA"/>
</g>
<path d="M292.59 66.8739C293.991 66.3927 295.002 65.0773 295.359 63.6496C295.715 62.2219 295.472 60.6979 294.946 59.3184C294.428 57.9388 293.634 56.6796 292.841 55.4364C292.922 56.4149 292.841 57.3934 292.631 58.3559C292.08 56.2464 291.894 53.9926 292.097 51.827C290.575 54.6182 289.272 57.5137 288.543 60.6017C288.325 61.5481 288.155 62.5187 288.235 63.4892C288.316 64.4597 288.665 65.4302 289.353 66.12C290.041 66.8097 291.651 67.1947 292.582 66.8819L292.59 66.8739Z" fill="#EAAD5A"/>
<path d="M291.975 66.6654C292.963 65.4142 293.278 63.6576 292.785 62.1417C292.493 61.2514 291.959 60.4654 291.538 59.6312C291.449 60.5536 291.271 61.4439 291.077 62.3422C290.923 63.0641 290.729 63.794 290.785 64.5239C290.858 65.3741 291.32 66.0959 291.975 66.6494V66.6654Z" fill="#5F2430"/>
<path d="M259.338 328H270.444V158.567H259.338V328Z" fill="#D4944B"/>
<path d="M288.43 328H296.937V138.956H288.43V328Z" fill="#D4944B"/>
<path opacity="0.3" d="M263.806 75.6325C276.802 75.6325 287.337 65.1935 287.337 52.3162C287.337 39.439 276.802 29 263.806 29C250.811 29 240.276 39.439 240.276 52.3162C240.276 65.1935 250.811 75.6325 263.806 75.6325Z" fill="#EAAD5A"/>
<path d="M264.26 159.609C271.561 159.609 277.535 159.048 282.407 158.134C304.959 153.867 304.165 141.884 304.165 141.884H225.657C225.657 141.884 223.189 159.617 264.26 159.617V159.609Z" fill="#EAAD5A"/>
<g style="mix-blend-mode:multiply" opacity="0.25">
<path d="M264.26 159.609C271.561 159.609 277.535 159.048 282.407 158.134C277.13 158.446 271.844 158.631 266.583 158.222C259.897 157.692 253.187 156.161 247.342 152.872C242.704 150.273 238.641 146.488 236.083 141.876H225.657C225.657 141.876 223.189 159.609 264.26 159.609Z" fill="#D4944B"/>
</g>
<path d="M226.248 141.884C226.248 145.557 243.554 149.952 264.907 149.952C286.26 149.952 303.566 145.549 303.566 141.884C303.566 138.218 284.124 136.654 262.77 136.654C241.417 136.654 226.248 138.21 226.248 141.884Z" fill="#D4944B"/>
<path d="M225.649 141.884C225.649 139.726 229.073 138.266 236.423 137.304C242.704 136.478 251.567 136.061 262.77 136.061C278.231 136.061 304.165 136.815 304.165 141.884C304.165 146.415 285.459 150.546 264.907 150.546C244.355 150.546 225.649 146.415 225.649 141.884ZM226.847 141.884C226.847 144.827 243.19 149.359 264.907 149.359C286.624 149.359 302.959 144.819 302.959 141.884C302.959 139.654 290.38 137.248 262.77 137.248C235.16 137.248 226.855 139.638 226.855 141.884H226.847Z" fill="#E0A58D"/>
<path d="M259.824 68.0207V149.359H269.91L269.958 68.6383C269.958 67.7641 269.74 66.9059 269.327 66.1279C268.291 64.2029 266.227 60.369 265.013 58.1713C264.794 57.7622 264.462 57.297 263.993 57.3371C263.531 57.3692 263.28 57.8745 263.118 58.3076L260.172 66.1599C259.945 66.7615 259.832 67.3871 259.832 68.0288L259.824 68.0207Z" fill="white"/>
<g style="mix-blend-mode:multiply" opacity="0.25">
<path d="M259.824 68.0208V149.359H262.309V67.6037L263.985 57.3372C263.523 57.3692 263.272 57.8745 263.11 58.3077L260.164 66.16C259.937 66.7615 259.824 67.3871 259.824 68.0288V68.0208Z" fill="#9163AA"/>
</g>
<path d="M264.778 58.027C266.68 57.3693 268.056 55.5887 268.534 53.6476C269.011 51.7066 268.687 49.6453 267.975 47.7765C267.271 45.9077 266.194 44.1992 265.126 42.5069C265.239 43.8303 265.126 45.1617 264.843 46.4611C264.098 43.6057 263.839 40.5418 264.114 37.6062C262.05 41.4 260.277 45.3141 259.298 49.509C258.998 50.7923 258.772 52.1077 258.885 53.4231C258.99 54.7385 259.468 56.0539 260.399 56.9923C261.33 57.9307 263.523 58.4521 264.778 58.0189V58.027Z" fill="#EAAD5A"/>
<path d="M263.936 57.7382C265.28 56.0378 265.701 53.6637 265.037 51.6023C264.648 50.3992 263.92 49.3325 263.337 48.2015C263.216 49.4448 262.973 50.6559 262.706 51.8831C262.495 52.8616 262.236 53.8481 262.317 54.8507C262.414 56.0057 263.046 56.9842 263.936 57.7382Z" fill="#5F2430"/>
</g>
<g clip-path="url(#clip2_4973_872)">
<path opacity="0.3" d="M46.1985 68.7673C51.9303 59.5539 49.1408 47.4177 39.9681 41.6605C30.7953 35.9033 18.7127 38.7052 12.9809 47.9186C7.24914 57.1321 10.0386 69.2682 19.2114 75.0254C28.3842 80.7826 40.4667 77.9808 46.1985 68.7673Z" fill="#EAAD5A"/>
<path d="M29.7337 142.097C24.407 142.097 20.0495 141.687 16.501 141.003C0.0482431 137.857 0.624973 128.991 0.624973 128.991H57.8893C57.8893 128.991 59.6916 142.097 29.7337 142.097Z" fill="#EAAD5A"/>
<g style="mix-blend-mode:multiply" opacity="0.25">
<path d="M29.7338 142.097C24.407 142.097 20.0495 141.687 16.501 141.003C20.3459 141.237 24.2068 141.373 28.0436 141.068C32.9218 140.673 37.816 139.547 42.0773 137.117C45.4576 135.194 48.4214 132.394 50.2877 128.991H57.8893C57.8893 128.991 59.6916 142.097 29.7338 142.097Z" fill="#D4944B"/>
</g>
<path d="M57.4568 128.991C57.4568 131.702 44.8328 134.961 29.2612 134.961C13.6895 134.961 1.06555 131.702 1.06555 128.991C1.06555 126.28 15.2515 125.129 30.8231 125.129C46.3948 125.129 57.4568 126.28 57.4568 128.991Z" fill="#D4944B"/>
<path d="M29.261 135.395C14.2741 135.395 0.624817 132.346 0.624817 128.991C0.624817 125.25 19.5447 124.687 30.815 124.687C38.9853 124.687 45.4494 124.992 50.0312 125.604C55.39 126.32 57.8891 127.39 57.8891 128.991C57.8891 132.346 44.2399 135.395 29.253 135.395H29.261ZM30.823 125.564C10.6775 125.564 1.50593 127.342 1.50593 128.991C1.50593 131.163 13.425 134.518 29.261 134.518C45.097 134.518 57.016 131.163 57.016 128.991C57.016 127.334 50.1354 125.564 30.815 125.564H30.823Z" fill="#E0A58D"/>
<path d="M32.9698 74.3773V134.518H25.6165L25.5845 74.8359C25.5845 74.1922 25.7447 73.5566 26.041 72.9854C26.794 71.5613 28.2999 68.7292 29.189 67.104C29.3492 66.7983 29.5895 66.4604 29.934 66.4845C30.2704 66.5086 30.4546 66.8868 30.5748 67.2006L32.7295 73.0095C32.8977 73.452 32.9778 73.9187 32.9778 74.3853L32.9698 74.3773Z" fill="white"/>
<g style="mix-blend-mode:multiply" opacity="0.25">
<path d="M32.9698 74.3774V134.518H31.1515V74.0716L29.926 66.4766C30.2624 66.5007 30.4466 66.8788 30.5668 67.1926L32.7215 73.0016C32.8897 73.4441 32.9698 73.9107 32.9698 74.3774Z" fill="#9163AA"/>
</g>
<path d="M29.3572 66.9914C27.9715 66.5087 26.9702 65.1892 26.6178 63.7571C26.2653 62.325 26.5056 60.7963 27.0263 59.4124C27.5389 58.0286 28.3239 56.7654 29.1089 55.5184C29.0288 56.4999 29.1089 57.4815 29.3092 58.447C29.8539 56.331 30.0381 54.0701 29.8378 51.8978C31.3437 54.6977 32.6334 57.6022 33.3543 60.6998C33.5705 61.6491 33.7388 62.6227 33.6587 63.5962C33.5786 64.5697 33.2341 65.5432 32.5533 66.2351C31.8724 66.9271 30.2784 67.3133 29.3572 66.9995V66.9914Z" fill="#EAAD5A"/>
<path d="M29.966 66.7822C28.9888 65.5271 28.6764 63.7651 29.165 62.2445C29.4534 61.3514 29.982 60.5629 30.3986 59.7262C30.4867 60.6514 30.6629 61.5445 30.8551 62.4456C31.0073 63.1697 31.1996 63.9019 31.1435 64.634C31.0714 65.4869 30.6148 66.211 29.966 66.7661V66.7822Z" fill="#5F2430"/>
<path d="M62.2628 158.969H51.2729V328H62.2628V158.969Z" fill="#D4944B"/>
<path d="M33.4665 139.29H25.0479V328H33.4665V139.29Z" fill="#D4944B"/>
<path opacity="0.3" d="M57.8413 75.7773C70.7014 75.7773 81.1267 65.3059 81.1267 52.3887C81.1267 39.4715 70.7014 29 57.8413 29C44.9811 29 34.5558 39.4715 34.5558 52.3887C34.5558 65.3059 44.9811 75.7773 57.8413 75.7773Z" fill="#EAAD5A"/>
<path d="M57.3927 160.015C50.1676 160.015 44.2561 159.452 39.434 158.535C17.1178 154.254 17.9028 142.234 17.9028 142.234H95.5929C95.5929 142.234 98.036 160.023 57.3927 160.023V160.015Z" fill="#EAAD5A"/>
<g style="mix-blend-mode:multiply" opacity="0.25">
<path d="M57.3927 160.015C50.1676 160.015 44.2561 159.452 39.434 158.535C44.6566 158.848 49.8872 159.034 55.0938 158.623C61.7102 158.092 68.3505 156.555 74.1339 153.257C78.7236 150.65 82.7447 146.852 85.2759 142.226H95.593C95.593 142.226 98.0361 160.015 57.3927 160.015Z" fill="#D4944B"/>
</g>
<path d="M95.0002 142.234C95.0002 145.919 77.8746 150.328 56.7439 150.328C35.6132 150.328 18.4875 145.911 18.4875 142.234C18.4875 138.557 37.7279 136.988 58.8585 136.988C79.9892 136.988 95.0002 138.549 95.0002 142.234Z" fill="#D4944B"/>
<path d="M56.7517 150.923C36.422 150.923 17.9026 146.78 17.9026 142.234C17.9026 137.157 43.567 136.393 58.8663 136.393C69.9523 136.393 78.7234 136.811 84.9393 137.64C92.2125 138.606 95.6007 140.07 95.6007 142.234C95.6007 146.78 77.0813 150.923 56.7517 150.923ZM58.8663 137.584C31.5358 137.584 19.0961 139.989 19.0961 142.234C19.0961 145.187 35.2685 149.733 56.7517 149.733C78.2348 149.733 94.4152 145.179 94.4152 142.234C94.4152 139.989 85.0754 137.584 58.8743 137.584H58.8663Z" fill="#E0A58D"/>
<path d="M61.7822 68.1419V149.733H51.8016L51.7535 68.7615C51.7535 67.8845 51.9698 67.0236 52.3783 66.2432C53.4036 64.3122 55.4462 60.4664 56.6477 58.2619C56.864 57.8516 57.1924 57.3849 57.657 57.4252C58.1136 57.4573 58.3619 57.9642 58.5221 58.3987L61.4378 66.2754C61.6621 66.8788 61.7742 67.5063 61.7742 68.15L61.7822 68.1419Z" fill="white"/>
<g style="mix-blend-mode:multiply" opacity="0.25">
<path d="M61.7822 68.142V149.733H59.3231V67.7236L57.665 57.4252C58.1216 57.4574 58.3699 57.9642 58.5301 58.3987L61.4458 66.2754C61.67 66.8788 61.7822 67.5063 61.7822 68.15V68.142Z" fill="#9163AA"/>
</g>
<path d="M56.88 58.1171C54.9977 57.4574 53.6359 55.6712 53.1633 53.7242C52.6907 51.7772 53.0112 49.7094 53.716 47.8348C54.4129 45.9602 55.4783 44.2464 56.5356 42.5488C56.4235 43.8763 56.5356 45.2119 56.816 46.5153C57.5529 43.6511 57.8092 40.5776 57.5369 37.6329C59.5795 41.4385 61.3337 45.3648 62.3029 49.5727C62.5993 50.86 62.8235 52.1794 62.7114 53.4989C62.6073 54.8184 62.1347 56.1379 61.2135 57.0792C60.2923 58.0206 58.1216 58.5435 56.88 58.1091V58.1171Z" fill="#EAAD5A"/>
<path d="M57.7051 57.8275C56.3754 56.1218 55.9589 53.7403 56.6157 51.6726C57.0002 50.4657 57.7211 49.3957 58.2978 48.2612C58.418 49.5083 58.6583 50.7232 58.9226 51.9542C59.1309 52.9357 59.3872 53.9254 59.3071 54.9311C59.211 56.0896 58.5862 57.0712 57.7051 57.8275Z" fill="#5F2430"/>
</g>
<path d="M169.279 130.632L166.931 112.543L160.897 111.018L154.863 112.543L152.515 130.632C152.515 130.632 135.594 133.125 132.998 140.841H188.784C186.188 133.125 169.267 130.632 169.267 130.632H169.279Z" fill="#E0A58D"/>
<path d="M167.675 118.153L167.306 115.454L160.915 113.929L154.524 115.454L153.738 121.197C158.906 120.961 163.578 119.974 167.681 118.153H167.675Z" fill="#CF8B76"/>
<path d="M209.972 197.965C209.972 197.965 215.085 194.927 212.247 185.48C210.867 180.892 204.888 149.967 202.377 144.92C199.351 138.844 168.879 127.582 168.879 127.582C164.395 131.866 156.479 131.775 152.921 127.582C152.921 127.582 121.294 138.85 119.424 144.92C118.165 149.011 111.278 178.169 108.984 185.328C106.231 195.066 110.824 197.965 110.824 197.965H209.972Z" fill="#EAAD5A"/>
<path d="M168.474 123.86H169.92C170.193 123.86 170.453 123.975 170.635 124.18C171.294 124.925 172.971 126.94 174.822 130.141C174.877 130.238 174.877 130.353 174.81 130.444C174.199 131.291 171.01 135.667 168.22 138.79C168.026 139.001 167.675 138.929 167.59 138.656C167.028 136.871 165.188 131.788 162.235 130.65C162.235 130.65 165.503 127.993 168.468 126.02V123.86H168.474Z" fill="white"/>
<path d="M153.369 123.86H151.922C151.65 123.86 151.39 123.975 151.208 124.18C150.555 124.925 148.872 126.94 147.02 130.141C146.966 130.238 146.966 130.353 147.032 130.444C147.644 131.291 150.833 135.667 153.623 138.79C153.816 139.001 154.167 138.929 154.252 138.656C154.815 136.871 156.655 131.788 159.608 130.65C159.608 130.65 156.34 127.993 153.375 126.02V123.86H153.369Z" fill="white"/>
<path d="M153.024 197.965H157.351C157.871 195.175 157.556 190.327 156.352 184.965C154.543 176.886 151.42 170.713 149.374 171.173C147.329 171.633 147.135 178.55 148.939 186.629C149.253 188.04 150.669 189.946 151.051 191.211C151.965 194.231 151.965 196.222 153.018 197.965H153.024Z" fill="#4A0B5A"/>
<path d="M114.727 193.42C113.317 184.983 121.905 181.976 121.99 181.945C133.894 176.614 145.477 171.609 149.435 171.155L149.483 171.56C145.58 172.008 134.033 177.001 122.141 182.327C122.038 182.363 113.777 185.262 115.127 193.353L114.727 193.42Z" fill="#4A0B5A"/>
<path d="M130.154 178.538C128.235 173.001 127.321 165.799 127.091 154.452H127.497C127.727 165.745 128.635 172.91 130.541 178.405L130.16 178.538H130.154Z" fill="#4A0B5A"/>
<path d="M168.934 197.965C170.235 195.81 170.096 194.836 171.119 190.848C171.27 190.261 172.444 186.381 172.583 185.77C172.88 184.457 173.552 184.027 173.739 182.799C174.707 176.468 174.296 171.56 172.583 171.173C170.538 170.713 167.409 176.892 165.605 184.965C164.407 190.327 164.092 195.175 164.607 197.965H168.934Z" fill="#4A0B5A"/>
<path d="M191.628 178.326L191.259 178.163C193.432 173.297 194.418 165.987 194.455 154.446H194.86C194.824 166.199 193.856 173.34 191.628 178.326Z" fill="#4A0B5A"/>
<path d="M160.903 138.318C159.596 137.053 157.932 137.446 157.423 138.735C157.423 138.735 151.214 156.152 151.462 158.973C151.71 161.793 152.443 169.176 151.456 170.75C151.148 171.246 148.091 172.989 148.091 172.989C147.365 175.67 147.765 179.821 148.2 182.69L155.947 177.407C158.737 176.941 160.909 174.562 160.909 169.515V138.33L160.903 138.318Z" fill="#E0A58D"/>
<path d="M156.77 157.345L156.37 157.272C156.673 155.559 158.204 146.984 158.809 146.409C159.154 146.022 159.62 145.907 160.116 146.094C160.643 146.294 161.103 146.839 161.103 147.25H160.697C160.697 147.05 160.395 146.633 159.971 146.469C159.638 146.342 159.342 146.415 159.1 146.687C158.682 147.129 157.448 153.453 156.77 157.338V157.345Z" fill="#4A0B5A"/>
<path d="M154.476 155.977L154.089 155.862C154.524 154.379 158.367 141.331 158.791 140.762C159.057 140.309 159.499 140.109 159.983 140.242C160.57 140.405 161.109 141.035 161.109 141.567H160.703C160.703 141.253 160.322 140.756 159.88 140.635C159.572 140.551 159.318 140.666 159.13 140.986C158.809 141.458 156.177 150.209 154.482 155.971L154.476 155.977Z" fill="#4A0B5A"/>
<path d="M160.903 138.318C162.204 137.053 163.875 137.446 164.383 138.735C164.383 138.735 170.592 156.152 170.344 158.973C170.096 161.793 169.364 169.176 170.35 170.75C170.659 171.246 173.896 173.104 173.896 173.104C174.629 175.736 174.175 179.997 173.739 182.805L165.866 177.407C163.076 176.941 160.903 174.562 160.903 169.515V138.33V138.318Z" fill="#E0A58D"/>
<path d="M165.037 157.345C164.353 153.459 163.118 147.135 162.713 146.699C162.458 146.415 162.168 146.342 161.829 146.469C161.405 146.633 161.103 147.044 161.103 147.25H160.697C160.697 146.832 161.157 146.294 161.684 146.094C162.18 145.907 162.646 146.022 163.003 146.421C163.602 146.984 165.133 155.559 165.43 157.272L165.031 157.345H165.037Z" fill="#4A0B5A"/>
<path d="M167.33 155.977C165.636 150.209 163.003 141.464 162.694 141.005C162.495 140.672 162.241 140.551 161.932 140.635C161.49 140.756 161.109 141.247 161.109 141.567H160.703C160.703 141.035 161.242 140.405 161.829 140.242C162.313 140.109 162.755 140.302 163.033 140.781C163.445 141.331 167.288 154.373 167.724 155.862L167.336 155.977H167.33Z" fill="#4A0B5A"/>
<path d="M161.103 138.318H160.697V170.58H161.103V138.318Z" fill="#4A0B5A"/>
<path d="M114.153 186.817L113.826 186.575C113.904 186.466 115.877 183.882 120.743 182.496L120.852 182.883C116.119 184.233 114.171 186.787 114.153 186.817Z" fill="#4A0B5A"/>
<path d="M207.315 193.42L206.915 193.353C208.265 185.256 200.004 182.363 199.919 182.333C187.192 176.287 177.988 172.668 172.541 171.56L172.62 171.161C178.096 172.275 187.338 175.906 200.071 181.958C200.137 181.976 208.719 184.99 207.315 193.42Z" fill="#4A0B5A"/>
<path d="M207.89 186.823C207.89 186.823 205.911 184.239 201.184 182.89L201.293 182.502C206.159 183.888 208.126 186.472 208.211 186.581L207.884 186.823H207.89Z" fill="#4A0B5A"/>
<path d="M161.902 133.028C161.902 133.585 161.454 134.033 160.897 134.033C160.34 134.033 159.893 133.585 159.893 133.028C159.893 132.471 160.34 132.024 160.897 132.024C161.454 132.024 161.902 132.471 161.902 133.028Z" fill="#971EA1"/>
<path d="M140.218 193.952L151.039 191.162C150.893 190.684 150.682 190.23 150.421 189.795L140.218 193.952Z" fill="#4A0B5A"/>
<path d="M172.577 185.764L172.244 186.968L179.979 188.875L172.577 185.764Z" fill="#4A0B5A"/>
<path d="M197.596 84.9947C204.616 70.5186 198.806 62.8267 198.806 62.8267C198.806 62.8267 201.287 58.6812 198.806 54.687C196.276 50.6201 192.385 51.7034 192.385 51.7034C187.326 35.43 171.143 31 161.018 31C150.893 31 134.705 35.43 129.645 51.7034C129.645 51.7034 125.76 50.6201 123.224 54.687C120.743 58.6751 123.224 62.8267 123.224 62.8267C123.224 62.8267 117.415 70.5186 124.435 84.9947C124.435 84.9947 126.184 107.762 161.018 107.762C195.853 107.762 197.602 84.9947 197.602 84.9947H197.596Z" fill="#5F2430"/>
<g style="mix-blend-mode:multiply" opacity="0.35">
<path d="M181.068 59.2077H140.944C132.944 67.0751 126.45 67.0146 122.056 65.1446C120.822 68.4247 119.654 75.1301 124.435 84.9886C124.435 84.9886 126.184 107.756 161.018 107.756C195.853 107.756 197.602 84.9886 197.602 84.9886C202.389 75.1241 201.209 68.4126 199.98 65.1325C195.586 67.0146 189.087 67.0812 181.074 59.2017L181.068 59.2077Z" fill="#5F2430"/>
</g>
<path d="M131.437 86.5802C130.16 85.152 128.205 83.8266 125.621 84.5286C120.229 85.9992 120.229 93.6004 123.66 98.2482C126.759 102.454 130.505 102.848 132.242 102.769L131.431 86.5742L131.437 86.5802Z" fill="#E0A58D"/>
<path d="M161.024 43.0371C184.045 43.0371 191.423 60.6359 191.423 60.6359L190.672 84.9946L189.734 103.749C189.516 108.149 186.757 112.028 182.66 113.65C179.077 115.072 174.157 116.785 168.165 118.316C163.475 119.514 158.555 119.514 153.865 118.316C147.873 116.785 142.953 115.072 139.371 113.65C135.274 112.028 132.52 108.149 132.296 103.749L131.358 84.9946L130.608 60.6359C130.608 60.6359 137.997 43.0371 161.024 43.0371Z" fill="#E0A58D"/>
<path d="M190.594 86.5802C191.87 85.152 193.825 83.8266 196.409 84.5286C201.802 85.9992 201.802 93.6004 198.37 98.2482C195.272 102.454 191.526 102.848 189.789 102.769L190.6 86.5742L190.594 86.5802Z" fill="#E0A58D"/>
<g style="mix-blend-mode:multiply" opacity="0.5">
<path d="M131.061 94.1693C131.328 94.6958 131.606 95.2042 131.897 95.7125L131.443 86.5803C130.601 85.6362 129.47 84.7466 128.06 84.444C128.538 87.8209 129.524 91.101 131.067 94.1633L131.061 94.1693Z" fill="#E0A58D"/>
</g>
<g style="mix-blend-mode:multiply" opacity="0.5">
<path d="M190.249 95.1436C190.993 92.8499 191.749 90.5381 192.645 88.2989C193.111 87.1249 193.874 85.7632 194.194 84.4076C192.681 84.6618 191.477 85.5938 190.594 86.5863L190.152 95.4825C190.188 95.3736 190.218 95.2586 190.255 95.1496L190.249 95.1436Z" fill="#E0A58D"/>
</g>
<path d="M197.68 90.7076C197.517 90.7076 197.36 90.6169 197.281 90.4595C196.736 89.3762 195.786 88.6682 194.739 88.5713C193.547 88.4624 192.355 89.1402 191.308 90.5261C191.156 90.7258 190.878 90.7621 190.678 90.6108C190.479 90.4595 190.442 90.1811 190.594 89.9814C191.822 88.3535 193.329 87.5365 194.824 87.6757C196.185 87.8027 197.402 88.6924 198.086 90.054C198.195 90.278 198.104 90.5442 197.886 90.6532C197.819 90.6834 197.753 90.7016 197.686 90.7016L197.68 90.7076Z" fill="#4A0B5A"/>
<path d="M190.678 84.9947C190.678 84.9947 187.144 80.5527 188.409 70.785C188.409 70.785 181.086 65.7196 181.086 59.2138C181.086 59.2138 169.424 62.6513 161.012 56.0487C152.606 62.6513 140.938 59.2138 140.938 59.2138C140.938 65.7256 133.615 70.785 133.615 70.785C134.88 80.5527 131.346 84.9947 131.346 84.9947C120.471 48.5384 145.507 35.7145 161.006 35.7145C176.505 35.7145 201.559 48.5384 190.678 84.9947Z" fill="#5F2430"/>
<g style="mix-blend-mode:multiply" opacity="0.35">
<path d="M131.352 84.9947C131.352 84.9947 134.886 80.5526 133.621 70.7849C133.621 70.7849 140.944 65.7195 140.944 59.2137C136.351 63.7345 132.254 65.6348 128.762 66.0826C128.459 71.5232 129.204 77.799 131.352 84.9947Z" fill="#5F2430"/>
</g>
<g style="mix-blend-mode:multiply" opacity="0.35">
<path d="M181.086 59.2258C181.098 65.7255 188.409 70.7788 188.409 70.7788C187.144 80.5465 190.678 84.9886 190.678 84.9886C192.827 77.7929 193.571 71.5171 193.268 66.0765C189.783 65.6347 185.685 63.7345 181.092 59.2258H181.086Z" fill="#5F2430"/>
</g>
<g style="mix-blend-mode:overlay" opacity="0.5">
<path d="M139.933 42.9343C138.765 45.8574 139.322 50.947 143.813 49.7184C146.106 49.089 147.825 46.1599 150.01 47.7758C151.886 49.1617 153.399 49.8818 155.82 49.4885C158.343 49.0769 160.467 46.977 162.961 46.8014C165.418 46.632 168.19 49.1254 170.429 50.0694C174.835 51.9274 180.905 51.7761 184.233 47.8726C186.478 45.2401 183.628 40.8404 180.354 42.8435C178.768 43.8118 177.449 44.9496 175.482 45.0101C173.255 45.0827 171.197 43.951 169.231 43.0372C165.811 41.4516 162.87 40.6649 159.318 42.4199C157.671 43.2309 155.438 45.4277 153.423 44.653C151.959 44.0902 151.426 42.6196 149.671 42.4017C148.218 42.2262 147.147 42.8496 145.979 43.6303C145.114 44.2113 144.267 44.8164 143.407 45.4156C143.038 45.6697 142.675 45.9239 142.318 46.1842C140.914 45.585 140.363 44.532 140.672 43.0311C140.648 42.5833 140.079 42.5409 139.921 42.9283L139.933 42.9343Z" fill="white"/>
</g>
<path d="M124.483 90.7076C124.416 90.7076 124.35 90.6955 124.283 90.6592C124.059 90.5502 123.975 90.2779 124.084 90.06C124.767 88.6923 125.984 87.8027 127.346 87.6817C128.84 87.5425 130.347 88.3655 131.576 89.9874C131.727 90.1871 131.685 90.4655 131.491 90.6168C131.291 90.7681 131.013 90.7258 130.862 90.5321C129.815 89.1402 128.623 88.4684 127.43 88.5773C126.383 88.6742 125.433 89.3822 124.889 90.4655C124.81 90.6229 124.652 90.7136 124.489 90.7136L124.483 90.7076Z" fill="#4A0B5A"/>
<path d="M136.938 96.0877C138.773 96.0877 140.26 94.9443 140.26 93.5339C140.26 92.1234 138.773 90.98 136.938 90.98C135.103 90.98 133.615 92.1234 133.615 93.5339C133.615 94.9443 135.103 96.0877 136.938 96.0877Z" fill="#CF8B76"/>
<path d="M184.59 96.0877C186.425 96.0877 187.913 94.9443 187.913 93.5339C187.913 92.1234 186.425 90.98 184.59 90.98C182.755 90.98 181.268 92.1234 181.268 93.5339C181.268 94.9443 182.755 96.0877 184.59 96.0877Z" fill="#CF8B76"/>
<path d="M160.582 94.6716L160.437 94.2904C160.437 94.2904 163.106 93.2494 163.633 91.3189C164.159 89.3823 160.286 84.2624 160.25 84.208L160.57 83.9598C160.734 84.1777 164.607 89.2915 164.02 91.4218C163.439 93.552 160.691 94.6232 160.576 94.6656L160.582 94.6716Z" fill="#4A0B5A"/>
<path d="M160.952 102.109C158.7 102.109 156.449 101.377 154.779 99.9246L155.045 99.616C158.222 102.388 163.602 102.406 166.786 99.6644L167.052 99.973C165.4 101.401 163.179 102.109 160.952 102.109Z" fill="#4A0B5A"/>
<path d="M161.03 103.961C160.28 103.961 159.487 103.822 158.646 103.55L158.773 103.162C160.365 103.683 161.756 103.683 163.033 103.162L163.185 103.538C162.501 103.816 161.787 103.955 161.03 103.955V103.961Z" fill="#CF8B76"/>
<path d="M140.75 87.1613C141.574 87.6091 142.384 88.0206 143.22 88.299C144.055 88.5774 144.914 88.7287 145.767 88.7045C146.627 88.6984 147.48 88.5169 148.321 88.2385C149.163 87.9541 149.986 87.5667 150.833 87.1492L151.075 87.476C150.403 88.1659 149.604 88.7469 148.703 89.1765C147.807 89.6062 146.802 89.8604 145.78 89.8846C144.757 89.8967 143.734 89.6667 142.832 89.231C141.931 88.8013 141.138 88.1961 140.49 87.476L140.744 87.1613H140.75Z" fill="#4A0B5A"/>
<path d="M170.992 87.1613C171.815 87.6091 172.626 88.0206 173.461 88.299C174.296 88.5774 175.155 88.7287 176.009 88.7045C176.868 88.6984 177.721 88.5169 178.562 88.2385C179.404 87.9541 180.227 87.5667 181.074 87.1492L181.316 87.476C180.644 88.1659 179.845 88.7469 178.944 89.1765C178.048 89.6062 177.043 89.8604 176.021 89.8846C174.998 89.8967 173.975 89.6667 173.073 89.231C172.172 88.8013 171.379 88.1961 170.731 87.476L170.986 87.1613H170.992Z" fill="#4A0B5A"/>
<path d="M135.346 77.0243C135.951 75.5779 136.914 74.3252 138.112 73.2843C138.711 72.7638 139.383 72.2978 140.139 71.9408C140.508 71.7471 140.914 71.614 141.319 71.4748C141.525 71.4082 141.749 71.3779 141.961 71.3295C142.173 71.2751 142.397 71.2448 142.62 71.2327C142.844 71.2206 143.068 71.1964 143.298 71.2085L143.976 71.263C144.2 71.2872 144.418 71.3598 144.636 71.4082C144.86 71.4566 145.065 71.5232 145.271 71.614C146.1 71.9287 146.827 72.4068 147.426 72.9696C148.63 74.0952 149.459 75.4932 149.804 77.0243C148.606 76.0379 147.462 75.1543 146.288 74.5189C145.707 74.1981 145.12 73.95 144.539 73.8108C143.958 73.6655 143.401 73.5929 142.82 73.6656C142.245 73.7079 141.64 73.8471 141.029 74.071C140.418 74.2768 139.8 74.5552 139.177 74.8699C137.924 75.4872 136.69 76.2557 135.334 77.0243H135.346Z" fill="#5F2430"/>
<path d="M186.684 77.0243C185.334 76.2557 184.094 75.4872 182.841 74.8699C182.224 74.5552 181.6 74.2768 180.989 74.071C180.378 73.8471 179.779 73.7079 179.198 73.6656C178.623 73.5929 178.06 73.6655 177.479 73.8108C176.898 73.95 176.311 74.1981 175.73 74.5189C174.556 75.1543 173.412 76.0379 172.214 77.0243C172.559 75.4932 173.394 74.0952 174.592 72.9696C175.192 72.4068 175.918 71.9287 176.747 71.614C176.947 71.5232 177.158 71.4566 177.382 71.4082C177.6 71.3598 177.818 71.2872 178.042 71.263L178.72 71.2085C178.944 71.1964 179.174 71.2206 179.398 71.2327C179.628 71.2448 179.845 71.2751 180.057 71.3295C180.269 71.3779 180.493 71.4082 180.699 71.4748C181.104 71.614 181.516 71.7471 181.879 71.9408C182.635 72.3039 183.307 72.7638 183.906 73.2843C185.105 74.3252 186.067 75.5779 186.672 77.0243H186.684Z" fill="#5F2430"/>
<path d="M248.625 205H73.625V328H248.625V205Z" fill="#5F2430"/>
<path d="M237.836 189.054H84.4135L73.625 205.365H248.625L237.836 189.054Z" fill="#906C4D"/>
<path d="M175.636 201.929C165.297 204.607 154.953 204.607 144.614 201.929V197.554H175.636V201.929Z" fill="#D4944B"/>
<path d="M194.454 179.952C194.454 179.952 194.406 182.546 192.839 185.898C192.623 186.359 192.378 186.832 192.102 187.321C188.704 193.268 180.4 200.646 160.127 200.646C159.093 200.646 158.091 200.626 157.121 200.589C138.447 199.876 130.901 192.518 127.859 186.788C127.615 186.331 127.403 185.886 127.214 185.457C125.84 182.321 125.8 179.952 125.8 179.952H194.458H194.454Z" fill="#EAAD5A"/>
<path d="M192.839 185.898C192.623 186.359 192.378 186.832 192.102 187.322C189.036 188.589 185.826 189.507 182.576 190.16C177.884 191.103 173.099 191.536 168.322 191.752C163.385 191.977 158.428 192.033 153.491 191.788C148.538 191.548 143.592 191.006 138.736 189.996C135.025 189.226 131.378 188.168 127.851 186.784C127.607 186.327 127.395 185.882 127.206 185.453C131.586 187.265 136.183 188.532 140.839 189.387C145.656 190.269 150.549 190.702 155.438 190.862C160.291 191.022 165.156 190.934 170.001 190.658C174.702 190.389 179.407 189.884 184.003 188.821C187.033 188.119 190.002 187.169 192.831 185.898H192.839Z" fill="#D4944B"/>
<g style="mix-blend-mode:multiply" opacity="0.25">
<path d="M194.454 179.952C194.454 179.952 194.082 200.646 160.123 200.646C159.089 200.646 158.087 200.626 157.117 200.589C160.86 200.209 164.587 199.667 168.198 198.625C173.179 197.185 177.98 194.707 181.418 190.826C184.075 187.831 185.822 183.917 185.991 179.956H194.458L194.454 179.952Z" fill="#D4944B"/>
</g>
<path d="M194.202 179.86C194.202 182.193 178.946 185.998 160.123 185.998C141.3 185.998 126.044 182.197 126.044 179.86C126.044 177.522 140.346 176.977 159.169 176.977C177.992 176.977 194.202 177.522 194.202 179.86Z" fill="#D4944B"/>
<path d="M160.123 186.251C142.442 186.251 125.792 182.65 125.792 179.859C125.792 178.993 126.898 177.915 135.53 177.293C140.871 176.908 148.381 176.728 159.169 176.728C190.263 176.728 194.454 178.312 194.454 179.859C194.454 182.65 177.808 186.251 160.123 186.251ZM159.169 177.229C148.393 177.229 140.895 177.41 135.566 177.794C127.499 178.376 126.293 179.338 126.293 179.859C126.293 180.693 129.354 182.205 136.071 183.556C140.126 184.374 148.646 185.746 160.119 185.746C171.592 185.746 180.112 184.374 184.167 183.556C190.888 182.201 193.945 180.689 193.945 179.859C193.945 179.442 192.948 178.412 183.723 177.794C178.044 177.414 170.013 177.229 159.165 177.229H159.169Z" fill="#E0A58D"/>
<path d="M189.882 182.121C188.407 182.598 186.512 183.087 184.175 183.556C180.12 184.374 171.6 185.746 160.127 185.746C154.601 185.746 149.76 185.429 145.777 185.008C141.485 184.555 138.183 183.981 136.079 183.56C134.572 183.256 133.253 182.947 132.107 182.634C132.476 181.752 132.981 180.95 133.871 180.774C134.772 180.593 135.778 181.183 136.592 180.758C137.225 180.425 137.437 179.627 137.938 179.118C139.008 178.035 140.807 178.628 142.326 178.532C144.394 178.408 145.36 177.967 145.961 177.353C146.045 177.269 146.121 177.185 146.189 177.097C146.257 177.013 146.322 176.928 146.382 176.84C146.79 176.243 147.079 175.549 147.732 174.843C149.343 173.115 151.563 171.267 153.904 170.938C155.102 170.773 156.416 171.022 157.47 170.421C158.708 169.715 159.265 167.975 160.912 168.031C161.522 168.055 162.091 168.332 162.539 168.745C162.796 168.977 163.012 169.238 163.201 169.51C163.918 170.553 164.263 171.816 165.008 172.834C166.146 174.39 168.242 175.124 170.121 174.771C170.775 174.647 171.44 174.948 171.728 175.541C171.969 176.034 172.366 176.467 172.818 176.776C172.854 176.8 172.895 176.828 172.931 176.856C173.043 176.932 173.155 177.021 173.275 177.113C173.383 177.197 173.492 177.285 173.604 177.373C173.64 177.406 173.68 177.434 173.716 177.466C174.329 177.947 174.994 178.456 175.632 178.596C176.862 178.877 177.471 177.686 178.513 177.526C178.569 177.514 178.633 177.51 178.697 177.51C178.83 177.506 178.97 177.514 179.118 177.55C179.118 177.55 179.122 177.55 179.126 177.55C180.42 177.851 182.58 179.366 183.891 179.154C184.556 179.049 185.217 178.809 185.891 178.885C187.59 179.086 188.559 181.131 189.882 182.117V182.121Z" fill="#7D3A94"/>
<path d="M189.882 182.121C188.407 182.598 186.512 183.087 184.175 183.556C180.12 184.374 171.6 185.746 160.127 185.746C154.601 185.746 149.76 185.429 145.777 185.008C146.422 184.783 147.019 184.438 147.524 183.977C148.189 183.376 148.702 182.606 149.447 182.109C150.638 181.311 152.204 181.355 153.611 181.64C155.018 181.92 156.4 182.414 157.835 182.422C158.873 182.422 160.055 182.041 160.416 181.066C160.728 180.216 160.315 179.142 160.872 178.428C161.506 177.614 163.056 177.75 163.365 176.768C163.565 176.122 163.028 175.453 163.113 174.779C163.165 174.382 163.417 174.053 163.597 173.697C164.094 172.722 164.022 171.539 163.654 170.509C163.529 170.168 163.377 169.839 163.205 169.518C163.922 170.561 164.267 171.824 165.012 172.842C166.15 174.398 168.246 175.132 170.125 174.779C170.779 174.655 171.444 174.956 171.732 175.549C171.973 176.042 172.37 176.475 172.822 176.784C172.859 176.808 172.899 176.836 172.935 176.864C173.047 176.94 173.159 177.029 173.279 177.121C173.387 177.205 173.496 177.293 173.608 177.381C173.644 177.414 173.684 177.442 173.72 177.474C173.339 177.971 172.814 178.348 172.49 178.881C172.149 179.434 172.121 180.284 172.674 180.621C172.995 180.818 173.404 180.782 173.776 180.738C174.149 180.693 174.558 180.661 174.874 180.866C175.191 181.07 175.291 181.616 174.966 181.804C176.169 181.407 177.082 180.445 177.948 179.519C178.301 179.138 178.669 178.733 178.773 178.227C178.822 177.995 178.789 177.734 178.689 177.514C178.822 177.51 178.962 177.518 179.11 177.554C179.11 177.554 179.114 177.554 179.118 177.554C180.412 177.855 182.572 179.37 183.883 179.158C184.548 179.053 185.209 178.813 185.883 178.889C187.582 179.09 188.551 181.134 189.874 182.121H189.882Z" fill="#4A0B5A"/>
<path d="M146.35 178.24C146.025 178.24 146.025 178.745 146.35 178.745C146.674 178.745 146.674 178.24 146.35 178.24Z" fill="#5F2430"/>
<path d="M150.088 175.794C149.604 175.794 149.604 176.547 150.088 176.547C150.573 176.547 150.573 175.794 150.088 175.794Z" fill="#5F2430"/>
<path d="M149.828 177.658C149.668 177.658 149.668 177.911 149.828 177.911C149.988 177.911 149.988 177.658 149.828 177.658Z" fill="#5F2430"/>
<path d="M149.828 179.013C149.668 179.013 149.668 179.266 149.828 179.266C149.988 179.266 149.988 179.013 149.828 179.013Z" fill="#5F2430"/>
<path d="M141.517 180.429C141.356 180.429 141.356 180.681 141.517 180.681C141.677 180.681 141.677 180.429 141.517 180.429Z" fill="#5F2430"/>
<path d="M142.935 180.497C142.611 180.497 142.611 181.002 142.935 181.002C143.26 181.002 143.26 180.497 142.935 180.497Z" fill="#5F2430"/>
<path d="M148.217 180.95C147.892 180.95 147.892 181.451 148.217 181.451C148.542 181.451 148.542 180.95 148.217 180.95Z" fill="#5F2430"/>
<path d="M158.849 171.343C158.524 171.343 158.524 171.844 158.849 171.844C159.173 171.844 159.173 171.343 158.849 171.343Z" fill="#5F2430"/>
<path d="M156.4 171.8C155.915 171.8 155.915 172.554 156.4 172.554C156.885 172.554 156.885 171.8 156.4 171.8Z" fill="#5F2430"/>
<path d="M158.332 174.823C158.007 174.823 158.007 175.328 158.332 175.328C158.656 175.328 158.656 174.823 158.332 174.823Z" fill="#5F2430"/>
<path d="M156.981 178.308C156.657 178.308 156.657 178.813 156.981 178.813C157.306 178.813 157.306 178.308 156.981 178.308Z" fill="#5F2430"/>
<path d="M161.169 174.887C160.844 174.887 160.844 175.393 161.169 175.393C161.494 175.393 161.494 174.887 161.169 174.887Z" fill="#5F2430"/>
<path d="M162.071 171.604C161.586 171.604 161.586 172.357 162.071 172.357C162.555 172.357 162.555 171.604 162.071 171.604Z" fill="#5F2430"/>
<path d="M174.309 179.078C173.985 179.078 173.985 179.583 174.309 179.583C174.634 179.583 174.634 179.078 174.309 179.078Z" fill="#5F2430"/>
<path d="M154.404 173.985C154.08 173.985 154.08 174.49 154.404 174.49C154.729 174.49 154.729 173.985 154.404 173.985Z" fill="#5F2430"/>
<path d="M154.533 174.759C154.372 174.759 154.372 175.012 154.533 175.012C154.693 175.012 154.693 174.759 154.533 174.759Z" fill="#5F2430"/>
<path d="M138.748 181.331C138.587 181.331 138.587 181.584 138.748 181.584C138.908 181.584 138.908 181.331 138.748 181.331Z" fill="#5F2430"/>
<path d="M139.585 181.788C139.26 181.788 139.26 182.293 139.585 182.293C139.91 182.293 139.91 181.788 139.585 181.788Z" fill="#5F2430"/>
<path d="M156.464 179.274C156.14 179.274 156.14 179.775 156.464 179.775C156.789 179.775 156.789 179.274 156.464 179.274Z" fill="#5F2430"/>
<path d="M162.006 170.501C161.846 170.501 161.846 170.753 162.006 170.753C162.167 170.753 162.167 170.501 162.006 170.501Z" fill="#5F2430"/>
<path d="M161.041 176.884C160.88 176.884 160.88 177.137 161.041 177.137C161.201 177.137 161.201 176.884 161.041 176.884Z" fill="#5F2430"/>
<path d="M160.331 177.077C160.171 177.077 160.171 177.329 160.331 177.329C160.492 177.329 160.492 177.077 160.331 177.077Z" fill="#5F2430"/>
<path d="M152.148 178.564C151.824 178.564 151.824 179.07 152.148 179.07C152.473 179.07 152.473 178.564 152.148 178.564Z" fill="#5F2430"/>
<path d="M152.212 179.591C152.052 179.591 152.052 179.843 152.212 179.843C152.373 179.843 152.373 179.591 152.212 179.591Z" fill="#5F2430"/>
<path d="M175.279 179.655C175.119 179.655 175.119 179.908 175.279 179.908C175.439 179.908 175.439 179.655 175.279 179.655Z" fill="#5F2430"/>
<path d="M152.922 172.369C152.761 172.369 152.761 172.622 152.922 172.622C153.082 172.622 153.082 172.369 152.922 172.369Z" fill="#5F2430"/>
<path d="M144.394 179.446C144.069 179.446 144.069 179.952 144.394 179.952C144.719 179.952 144.719 179.446 144.394 179.446Z" fill="#5F2430"/>
<path d="M135.197 181.772C135.037 181.772 135.037 182.025 135.197 182.025C135.357 182.025 135.357 181.772 135.197 181.772Z" fill="#5F2430"/>
<path d="M145.568 183.689C145.243 183.689 145.243 184.194 145.568 184.194C145.893 184.194 145.893 183.689 145.568 183.689Z" fill="#5F2430"/>
<path d="M159.101 180.726C158.777 180.726 158.777 181.227 159.101 181.227C159.426 181.227 159.426 180.726 159.101 180.726Z" fill="#5F2430"/>
<path d="M177.335 178.809C177.174 178.809 177.174 179.062 177.335 179.062C177.495 179.062 177.495 178.809 177.335 178.809Z" fill="#5F2430"/>
<defs>
<clipPath id="clip0_4973_872">
<rect width="283" height="270" fill="white" transform="translate(19.625)"/>
</clipPath>
<clipPath id="clip1_4973_872">
<rect width="97" height="299" fill="white" transform="translate(224.875 29)"/>
</clipPath>
<clipPath id="clip2_4973_872">
<rect width="96" height="299" fill="white" transform="translate(0.125 29)"/>
</clipPath>
</defs>
</svg>
