<svg width="360" height="122" viewBox="0 0 360 122" fill="none" xmlns="http://www.w3.org/2000/svg">
<g clip-path="url(#clip0_4743_8)">
<path d="M328.601 92H31.4029C14.058 92 0 105.43 0 122H360C360 105.433 345.942 92 328.597 92H328.601Z" fill="#B8BE78"/>
</g>
<g clip-path="url(#clip1_4743_8)">
<path d="M206.076 99.3569H154.924C153.715 99.3569 152.732 100.339 152.732 101.549V108.155H208.264V101.549C208.264 100.339 207.281 99.3569 206.072 99.3569H206.076Z" fill="white"/>
<path d="M201.186 76.4702H159.814C157.734 76.4702 156.049 78.1551 156.049 80.2357V99.3522H204.956V80.2357C204.956 78.1551 203.271 76.4702 201.19 76.4702H201.186Z" fill="white"/>
<path d="M206.285 10.6119V4.83252H154.715V10.6119H141V22.0952C141 24.687 141.507 27.1988 142.512 29.5684C143.481 31.8535 144.863 33.9074 146.624 35.6679C148.384 37.4284 150.438 38.8154 152.723 39.7801C154.217 40.4114 155.769 40.8471 157.36 41.0827C160.788 48.0358 167.261 53.2195 175.036 54.8999V63.4535C175.036 71.9358 170.288 73.8697 170.288 73.8697H190.712C190.712 73.8697 185.964 71.9358 185.964 63.4535V54.8999C193.739 53.2239 200.212 48.0402 203.64 41.0827C205.231 40.8471 206.783 40.4114 208.277 39.7801C210.562 38.811 212.616 37.4284 214.376 35.6679C216.137 33.9074 217.524 31.8535 218.488 29.5684C219.489 27.1988 220 24.687 220 22.0952V10.6119H206.285ZM145.784 22.0996V15.3999H154.715V29.7017C154.715 31.7645 154.959 33.774 155.417 35.6945C149.811 33.7206 145.784 28.3725 145.784 22.0996ZM215.216 22.0996C215.216 28.3725 211.189 33.7206 205.583 35.6945C206.041 33.7695 206.285 31.7645 206.285 29.7017V15.3999H215.216V22.0996Z" fill="#1B5FEA"/>
<path d="M195.189 73.2739H165.812C164.047 73.2739 162.615 74.7054 162.615 76.4704H198.39C198.39 74.7054 196.958 73.2739 195.193 73.2739H195.189Z" fill="#B8BE78"/>
<path d="M206.112 0H154.889C153.555 0 152.475 1.0803 152.475 2.41401C152.475 3.74772 153.555 4.82802 154.889 4.82802H206.112C207.446 4.82802 208.526 3.74772 208.526 2.41401C208.526 1.0803 207.446 0 206.112 0Z" fill="#B8BE78"/>
<path d="M180.5 18.0894L183.003 25.7893H191.099L184.55 30.5462L187.049 38.2461L180.5 33.4892L173.952 38.2461L176.455 30.5462L169.906 25.7893H178.002L180.5 18.0894Z" fill="white"/>
</g>
<defs>
<clipPath id="clip0_4743_8">
<rect width="360" height="30" fill="white" transform="translate(0 92)"/>
</clipPath>
<clipPath id="clip1_4743_8">
<rect width="79" height="108.155" fill="white" transform="translate(141)"/>
</clipPath>
</defs>
</svg>
