<svg width="193" height="64" viewBox="0 0 193 64" fill="none" xmlns="http://www.w3.org/2000/svg">
<g clip-path="url(#clip0_3335_1173)">
<path d="M0.952148 -5.71826C46.6722 45.0336 131.232 67.4203 191.197 29.1662" stroke="white" stroke-linecap="round" stroke-linejoin="round"/>
<path d="M185.641 38.8467C185.01 37.5677 184.7 36.9309 184.075 35.6519C182.289 36.2886 181.393 36.5985 179.601 37.1901C180.108 38.4072 180.367 39.0158 180.88 40.2329C179.466 41.6641 179.133 43.794 180.26 45.4168C181.601 47.3382 184.543 47.789 186.751 46.3803C188.96 44.9717 189.552 42.2952 188.138 40.4245C187.518 39.6074 186.622 39.0721 185.636 38.8467H185.641Z" fill="#DFBB6E"/>
<path d="M183.923 35.3361C182.244 36.063 181.398 36.4123 179.708 37.0998C179.449 37.2068 179.156 37.0998 179.06 36.8575C178.959 36.6208 179.088 36.3447 179.347 36.2377C181.032 35.5559 181.872 35.2009 183.545 34.4796C183.799 34.3726 184.092 34.4684 184.199 34.705C184.306 34.9417 184.182 35.2178 183.928 35.3305L183.923 35.3361Z" fill="white"/>
<path d="M184.368 36.3337C182.683 37.0605 181.832 37.4155 180.131 38.1086C179.871 38.2157 179.578 38.1086 179.477 37.8663C179.376 37.6296 179.505 37.3535 179.764 37.2465C181.46 36.5591 182.306 36.2041 183.985 35.4772C184.238 35.3645 184.537 35.4659 184.644 35.7026C184.751 35.9392 184.627 36.221 184.374 36.328L184.368 36.3337Z" fill="white"/>
<path d="M184.818 37.3253C183.122 38.0578 182.271 38.4128 180.558 39.1115C180.299 39.2186 180.006 39.1115 179.905 38.8749C179.803 38.6382 179.933 38.3621 180.192 38.2551C181.894 37.562 182.745 37.207 184.435 36.4801C184.694 36.3674 184.987 36.4689 185.094 36.7055C185.201 36.9422 185.077 37.2239 184.818 37.331V37.3253Z" fill="white"/>
<path d="M181.415 38.7339C182.001 40.0806 182.587 41.4329 183.184 42.774C183.331 43.1008 183.477 43.4558 183.404 43.8108C183.331 44.1714 182.942 44.5208 182.559 44.4419C182.238 44.3799 182.069 44.0418 182.125 43.7432C182.181 43.4445 182.412 43.1853 182.666 42.9825C183.669 42.1824 185.224 42.0415 186.283 42.6613C186.441 42.7515 186.593 42.8642 186.655 43.0219C186.723 43.1797 186.672 43.3995 186.503 43.4896C186.21 43.653 185.912 43.3487 185.765 43.0839C184.824 41.3597 184.142 39.5059 183.72 37.5957" stroke="white" stroke-linecap="round" stroke-linejoin="round"/>
<path d="M179.9 46.9097C179.5 47.4562 179.088 47.9972 178.683 48.5381" stroke="#DFBB6E" stroke-linecap="round" stroke-linejoin="round"/>
<path d="M182.841 48.3862C182.728 49.068 182.615 49.7442 182.497 50.4204" stroke="#DFBB6E" stroke-linecap="round" stroke-linejoin="round"/>
<path d="M186.763 47.5972C187.05 48.2057 187.343 48.8086 187.63 49.4172" stroke="#DFBB6E" stroke-linecap="round" stroke-linejoin="round"/>
<path d="M190.076 44.7007C190.781 45.0331 191.49 45.3656 192.206 45.6924" stroke="#DFBB6E" stroke-linecap="round" stroke-linejoin="round"/>
<path d="M191.102 42.1597C191.699 42.2442 192.296 42.3287 192.899 42.4076" stroke="#DFBB6E" stroke-linecap="round" stroke-linejoin="round"/>
<path d="M36.7158 29.865C37.4371 28.6423 37.792 28.0281 38.5077 26.7997C36.9694 25.7235 36.2087 25.1769 34.6986 24.0669C33.9717 25.1657 33.6055 25.7179 32.8786 26.8166C30.8839 26.4898 28.9117 27.4083 28.1623 29.2227C27.2833 31.3695 28.523 33.9671 30.9515 34.9644C33.3744 35.9618 35.9889 34.9419 36.7778 32.7613C37.1215 31.8034 37.0708 30.7891 36.7102 29.865H36.7158Z" fill="#DFBB6E"/>
<path d="M38.6818 26.4954C37.1322 25.5544 36.3603 25.0755 34.8333 24.1007C34.6022 23.9542 34.5234 23.6555 34.6699 23.4414C34.8107 23.2273 35.115 23.171 35.346 23.3175C36.8674 24.2866 37.6337 24.7656 39.1776 25.7009C39.4143 25.8418 39.4932 26.1348 39.3579 26.3546C39.2227 26.5743 38.9184 26.6363 38.6818 26.4898V26.4954Z" fill="white"/>
<path d="M38.1076 27.4194C36.5468 26.4728 35.7748 25.9938 34.2366 25.0134C33.9999 24.8669 33.9267 24.5683 34.0675 24.3541C34.2084 24.14 34.5127 24.0837 34.7437 24.2358C36.2707 25.2106 37.0426 25.6896 38.5978 26.6306C38.8345 26.7771 38.919 27.0701 38.7838 27.2898C38.6485 27.5096 38.3443 27.5716 38.1076 27.4251V27.4194Z" fill="white"/>
<path d="M37.5327 28.3438C35.9663 27.3915 35.1887 26.9069 33.6448 25.9265C33.4081 25.7743 33.3349 25.4813 33.4757 25.2672C33.6166 25.0531 33.9209 25.0024 34.1575 25.1489C35.6958 26.1293 36.4678 26.6083 38.0286 27.5549C38.2652 27.7014 38.3497 27.9944 38.2145 28.2142C38.0793 28.4339 37.775 28.4903 37.5327 28.3494V28.3438Z" fill="white"/>
<path d="M34.4395 26.3994C33.6394 27.6334 32.8393 28.8618 32.0335 30.0902C31.8363 30.3888 31.6222 30.7043 31.2784 30.8452C30.9347 30.9861 30.422 30.8734 30.2698 30.5184C30.1459 30.2254 30.3374 29.9042 30.6248 29.7802C30.9122 29.6563 31.2559 29.7014 31.5715 29.7915C32.8111 30.1465 33.7972 31.3185 33.8591 32.5131C33.8704 32.6877 33.8591 32.8737 33.7577 33.0146C33.6563 33.1554 33.4478 33.2343 33.2788 33.1498C32.9801 33.0033 33.0703 32.5976 33.2112 32.3328C34.1521 30.6198 35.3242 29.0308 36.6878 27.6109" stroke="white" stroke-linecap="round" stroke-linejoin="round"/>
<path d="M26.7029 29.7525C26.0155 29.7299 25.3281 29.7074 24.6406 29.6792" stroke="#DFBB6E" stroke-linecap="round" stroke-linejoin="round"/>
<path d="M27.0753 32.9307C26.4329 33.218 25.7906 33.4998 25.1426 33.7759" stroke="#DFBB6E" stroke-linecap="round" stroke-linejoin="round"/>
<path d="M29.9207 35.6353C29.5601 36.1987 29.1995 36.7678 28.8389 37.3313" stroke="#DFBB6E" stroke-linecap="round" stroke-linejoin="round"/>
<path d="M34.2305 36.6943C34.3375 37.4438 34.4446 38.1988 34.5573 38.9482" stroke="#DFBB6E" stroke-linecap="round" stroke-linejoin="round"/>
<path d="M36.9639 36.1025C37.2231 36.6266 37.4823 37.1562 37.7415 37.6803" stroke="#DFBB6E" stroke-linecap="round" stroke-linejoin="round"/>
<path d="M95.497 51.1699C95.7281 49.7669 95.8408 49.0625 96.0718 47.6651C94.2349 47.1974 93.322 46.9551 91.5077 46.4424C91.2203 47.7327 91.0794 48.3751 90.7921 49.6654C88.803 50.0599 87.2873 51.6263 87.2535 53.5872C87.214 55.9143 89.3383 57.9146 91.9697 57.9879C94.6068 58.0668 96.6747 56.1904 96.6184 53.8633C96.5958 52.8434 96.1732 51.9081 95.497 51.1699Z" fill="#DFBB6E"/>
<path d="M96.1165 47.3158C94.3191 46.9777 93.4232 46.803 91.6313 46.4255C91.3608 46.3691 91.1805 46.1156 91.2369 45.862C91.2932 45.6084 91.5581 45.4507 91.8285 45.507C93.6091 45.8789 94.505 46.0592 96.2912 46.3917C96.5617 46.4424 96.7476 46.6903 96.6969 46.9439C96.6462 47.1974 96.387 47.3608 96.1109 47.3101L96.1165 47.3158Z" fill="white"/>
<path d="M95.9137 48.3862C94.105 48.0481 93.2034 47.8678 91.406 47.4903C91.1299 47.4339 90.9552 47.1804 91.0115 46.9268C91.0679 46.6732 91.3327 46.5155 91.6032 46.5774C93.395 46.955 94.2909 47.1296 96.0884 47.4677C96.3645 47.5184 96.5448 47.7664 96.4997 48.0199C96.4547 48.2735 96.1898 48.4369 95.9137 48.3862Z" fill="white"/>
<path d="M95.7053 49.4514C93.891 49.1133 92.9838 48.933 91.175 48.5498C90.8989 48.4935 90.7186 48.2399 90.775 47.9864C90.8313 47.7328 91.0961 47.575 91.3722 47.637C93.1697 48.0145 94.0713 48.1949 95.8856 48.5329C96.1617 48.5836 96.3477 48.8316 96.297 49.0851C96.2463 49.3387 95.9871 49.5021 95.7053 49.4514Z" fill="white"/>
<path d="M92.099 48.7188C91.7947 50.1556 91.4904 51.5925 91.1862 53.0293C91.1129 53.3787 91.0284 53.7505 90.7579 54.0041C90.4875 54.2577 89.9634 54.3309 89.693 54.0548C89.4676 53.8238 89.5296 53.4519 89.7549 53.2378C89.9803 53.0237 90.3184 52.9391 90.6452 52.911C91.9356 52.8096 93.2879 53.559 93.7894 54.6577C93.8627 54.8211 93.919 54.9958 93.8796 55.1649C93.8401 55.3339 93.6711 55.4804 93.4795 55.4635C93.147 55.4297 93.0794 55.0184 93.1189 54.7197C93.3724 52.7814 93.8965 50.8768 94.6572 49.0625" stroke="white" stroke-linecap="round" stroke-linejoin="round"/>
<path d="M86.0705 54.6069C85.4225 54.8267 84.7689 55.0521 84.1152 55.2662" stroke="#DFBB6E" stroke-linecap="round" stroke-linejoin="round"/>
<path d="M87.586 57.4526C87.0901 57.9485 86.5943 58.4387 86.0928 58.9346" stroke="#DFBB6E" stroke-linecap="round" stroke-linejoin="round"/>
<path d="M91.2435 58.9907C91.1139 59.65 90.9899 60.3092 90.8604 60.9629" stroke="#DFBB6E" stroke-linecap="round" stroke-linejoin="round"/>
<path d="M95.666 58.4556C96.0435 59.1205 96.4211 59.791 96.8042 60.4559" stroke="#DFBB6E" stroke-linecap="round" stroke-linejoin="round"/>
<path d="M98.0107 56.9399C98.4446 57.3456 98.8841 57.7457 99.3236 58.1458" stroke="#DFBB6E" stroke-linecap="round" stroke-linejoin="round"/>
<path d="M157.197 49.1862C156.848 47.8057 156.673 47.1183 156.324 45.7378C154.442 46.0139 153.501 46.1379 151.619 46.3632C151.867 47.6592 151.991 48.3072 152.244 49.6032C150.565 50.7301 149.793 52.753 150.56 54.573C151.467 56.7255 154.25 57.751 156.713 56.8044C159.175 55.8577 160.313 53.339 159.322 51.226C158.888 50.3019 158.121 49.6032 157.203 49.1806L157.197 49.1862Z" fill="#DFBB6E"/>
<path d="M156.234 45.3998C154.437 45.783 153.535 45.9633 151.732 46.3014C151.456 46.3521 151.191 46.1887 151.146 45.9351C151.095 45.6816 151.281 45.4336 151.552 45.3829C153.349 45.0448 154.245 44.8645 156.031 44.487C156.302 44.4307 156.572 44.5884 156.629 44.8364C156.685 45.0899 156.51 45.3378 156.234 45.3998Z" fill="white"/>
<path d="M156.47 46.4646C154.667 46.8477 153.76 47.028 151.946 47.3718C151.67 47.4225 151.405 47.2591 151.354 47.0055C151.303 46.7519 151.489 46.504 151.765 46.4533C153.568 46.1096 154.47 45.9293 156.268 45.5517C156.544 45.4954 156.808 45.6475 156.865 45.9011C156.921 46.1547 156.746 46.4026 156.47 46.4646Z" fill="white"/>
<path d="M156.708 47.53C154.893 47.9132 153.986 48.0991 152.161 48.4428C151.884 48.4935 151.62 48.3301 151.569 48.0766C151.518 47.823 151.704 47.5751 151.98 47.5244C153.795 47.1806 154.702 47.0003 156.505 46.6172C156.781 46.5608 157.051 46.713 157.108 46.9665C157.164 47.2201 156.989 47.468 156.708 47.53Z" fill="white"/>
<path d="M153.079 48.2396C153.372 49.6821 153.67 51.1189 153.969 52.5558C154.042 52.9051 154.115 53.2826 153.969 53.6207C153.822 53.9588 153.366 54.2293 153.011 54.0771C152.712 53.9532 152.617 53.5869 152.735 53.3052C152.853 53.0234 153.135 52.8149 153.428 52.6628C154.577 52.0712 156.127 52.2402 157.034 53.0629C157.169 53.1812 157.293 53.3221 157.321 53.4911C157.35 53.6602 157.26 53.863 157.074 53.9194C156.752 54.0208 156.521 53.6658 156.437 53.3784C155.879 51.4964 155.597 49.5468 155.575 47.5859" stroke="white" stroke-linecap="round" stroke-linejoin="round"/>
<path d="M149.883 55.9707C149.376 56.4271 148.863 56.8779 148.345 57.3287" stroke="#DFBB6E" stroke-linecap="round" stroke-linejoin="round"/>
<path d="M152.447 58.0049C152.193 58.6472 151.94 59.2952 151.681 59.9376" stroke="#DFBB6E" stroke-linecap="round" stroke-linejoin="round"/>
<path d="M156.453 58.0049C156.605 58.6585 156.763 59.3121 156.915 59.9658" stroke="#DFBB6E" stroke-linecap="round" stroke-linejoin="round"/>
<path d="M160.312 55.8184C160.932 56.286 161.558 56.7537 162.183 57.2158" stroke="#DFBB6E" stroke-linecap="round" stroke-linejoin="round"/>
<path d="M161.852 53.5195C162.415 53.7224 162.984 53.9252 163.553 54.1224" stroke="#DFBB6E" stroke-linecap="round" stroke-linejoin="round"/>
<path d="M126.471 53.1929C126.397 51.773 126.364 51.063 126.296 49.6431C124.397 49.5529 123.451 49.4966 121.563 49.3613C121.552 50.6799 121.546 51.3391 121.54 52.6633C119.67 53.4521 118.515 55.289 118.903 57.2161C119.365 59.5038 121.873 61.0364 124.476 60.58C127.074 60.1236 128.696 57.8697 128.15 55.6046C127.908 54.6129 127.299 53.7789 126.482 53.1929H126.471Z" fill="#DFBB6E"/>
<path d="M126.273 49.2935C124.437 49.3273 123.524 49.3329 121.687 49.3217C121.405 49.3217 121.18 49.1075 121.18 48.854C121.18 48.5948 121.405 48.3863 121.687 48.3919C123.512 48.3976 124.425 48.3919 126.251 48.3638C126.527 48.3638 126.758 48.561 126.764 48.8202C126.764 49.0794 126.55 49.2935 126.268 49.2991L126.273 49.2935Z" fill="white"/>
<path d="M126.296 50.3809C124.453 50.4147 123.529 50.4203 121.687 50.4091C121.405 50.4091 121.18 50.195 121.18 49.9414C121.18 49.6822 121.411 49.4737 121.687 49.4793C123.524 49.485 124.442 49.4793 126.273 49.4512C126.555 49.4512 126.786 49.6484 126.792 49.9076C126.792 50.1668 126.572 50.3809 126.29 50.3865L126.296 50.3809Z" fill="white"/>
<path d="M126.319 51.4683C124.465 51.5021 123.541 51.5077 121.687 51.4965C121.405 51.4965 121.174 51.2824 121.18 51.0288C121.18 50.7696 121.411 50.5611 121.693 50.5667C123.535 50.5724 124.459 50.5667 126.302 50.5386C126.583 50.5386 126.815 50.7358 126.82 50.995C126.826 51.2542 126.6 51.4683 126.319 51.4739V51.4683Z" fill="white"/>
<path d="M122.622 51.4798C122.622 52.9505 122.633 54.4211 122.639 55.8862C122.639 56.2468 122.639 56.6243 122.425 56.9286C122.211 57.2329 121.715 57.4075 121.394 57.1934C121.123 57.0131 121.106 56.6356 121.281 56.382C121.456 56.1284 121.771 55.9763 122.087 55.8862C123.332 55.5255 124.814 55.9876 125.541 56.968C125.648 57.1089 125.744 57.2723 125.738 57.447C125.738 57.6216 125.603 57.7963 125.411 57.8189C125.079 57.8527 124.921 57.4639 124.899 57.1652C124.73 55.2156 124.842 53.2435 125.209 51.3164" stroke="white" stroke-linecap="round" stroke-linejoin="round"/>
<path d="M117.962 58.4556C117.371 58.8049 116.779 59.1543 116.188 59.498" stroke="#DFBB6E" stroke-linecap="round" stroke-linejoin="round"/>
<path d="M120.064 60.9404C119.686 61.5264 119.309 62.1068 118.926 62.6928" stroke="#DFBB6E" stroke-linecap="round" stroke-linejoin="round"/>
<path d="M123.98 61.707C123.997 62.3776 124.02 63.0481 124.037 63.7186" stroke="#DFBB6E" stroke-linecap="round" stroke-linejoin="round"/>
<path d="M128.195 60.2983C128.708 60.8787 129.221 61.4535 129.739 62.0282" stroke="#DFBB6E" stroke-linecap="round" stroke-linejoin="round"/>
<path d="M130.161 58.3374C130.674 58.6473 131.187 58.9516 131.705 59.2559" stroke="#DFBB6E" stroke-linecap="round" stroke-linejoin="round"/>
<path d="M64.6339 42.2029C65.0579 40.8457 65.2675 40.1639 65.6908 38.8122C63.9368 38.0934 63.0666 37.7264 61.3413 36.9662C60.8771 38.204 60.6482 38.8205 60.1841 40.0583C58.1595 40.172 56.4405 41.5123 56.1341 43.4494C55.7712 45.7484 57.5964 48.0249 60.192 48.4636C62.7924 48.9088 65.1013 47.3385 65.3694 45.0261C65.489 44.013 65.2007 43.028 64.6339 42.2029Z" fill="#DFBB6E"/>
<path d="M65.7844 38.4727C64.0515 37.8878 63.1886 37.5901 61.4667 36.9669C61.2067 36.8734 61.0635 36.5973 61.1545 36.354C61.2456 36.1108 61.5298 35.9914 61.7898 36.0848C63.5013 36.7009 64.3634 37.0041 66.086 37.5819C66.3468 37.6698 66.4964 37.9412 66.4109 38.1852C66.3254 38.4293 66.046 38.555 65.7796 38.4664L65.7844 38.4727Z" fill="white"/>
<path d="M65.4336 39.5043C63.6895 38.9178 62.8218 38.6138 61.0944 37.9898C60.8288 37.8955 60.6911 37.6201 60.7822 37.3769C60.8733 37.1336 61.1575 37.0143 61.4167 37.1133C63.1386 37.7365 64.0015 38.0342 65.7344 38.6191C66.0008 38.7078 66.1448 38.9784 66.0649 39.2232C65.9849 39.468 65.7 39.593 65.4336 39.5043Z" fill="white"/>
<path d="M65.0796 40.5299C63.33 39.9426 62.4567 39.6378 60.7189 39.0066C60.4533 38.9124 60.31 38.6362 60.4011 38.393C60.4922 38.1497 60.7764 38.0303 61.0412 38.1301C62.7686 38.7541 63.6363 39.0582 65.386 39.6455C65.6524 39.7341 65.802 40.0055 65.7165 40.2496C65.631 40.4936 65.3516 40.6193 65.0796 40.5299Z" fill="white"/>
<path d="M61.6103 39.3027C61.109 40.6833 60.6078 42.0638 60.1065 43.4443C59.9853 43.7801 59.8499 44.1366 59.5467 44.35C59.2436 44.5635 58.7145 44.5631 58.4851 44.252C58.294 43.9919 58.4072 43.6322 58.6602 43.4516C58.9132 43.2709 59.2597 43.2343 59.5873 43.2519C60.8792 43.331 62.1141 44.2613 62.4577 45.4192C62.5075 45.5912 62.539 45.772 62.4764 45.9339C62.4139 46.0958 62.2261 46.2174 62.0387 46.174C61.7142 46.0942 61.7045 45.6775 61.7851 45.3873C62.306 43.5031 63.09 41.69 64.0958 39.9991" stroke="white" stroke-linecap="round" stroke-linejoin="round"/>
<path d="M54.821 44.2951C54.1487 44.4225 53.4701 44.5547 52.793 44.6758" stroke="#DFBB6E" stroke-linecap="round" stroke-linejoin="round"/>
<path d="M55.9259 47.324C55.3659 47.746 54.8066 48.1625 54.241 48.5837" stroke="#DFBB6E" stroke-linecap="round" stroke-linejoin="round"/>
<path d="M59.3335 49.3561C59.1134 49.9909 58.8989 50.6265 58.6796 51.2557" stroke="#DFBB6E" stroke-linecap="round" stroke-linejoin="round"/>
<path d="M63.7881 49.4414C64.0694 50.1524 64.3499 50.8689 64.6368 51.5807" stroke="#DFBB6E" stroke-linecap="round" stroke-linejoin="round"/>
<path d="M66.3203 48.2671C66.6935 48.7292 67.0731 49.1866 67.4526 49.6439" stroke="#DFBB6E" stroke-linecap="round" stroke-linejoin="round"/>
</g>
<defs>
<clipPath id="clip0_3335_1173">
<rect width="193.18" height="70" fill="white" transform="translate(0 -6)"/>
</clipPath>
</defs>
</svg>
