<svg width="315" height="341" viewBox="0 0 315 341" fill="none" xmlns="http://www.w3.org/2000/svg">
<path d="M296.457 206.726C302.662 184.192 292.062 160.119 277.039 142.214C262.015 124.316 242.697 110.514 226.79 93.3851C211.011 76.3988 198.837 56.3999 183.814 38.7442C168.798 21.0884 149.821 5.27731 127.047 0.954181C104.274 -3.36895 77.5679 7.11481 69.4614 28.8302C62.4377 47.6539 70.537 68.5716 80.0967 86.2487C89.6564 103.926 101.132 121.909 101.125 142.001C101.118 168.716 80.9088 190.866 60.2864 207.852C39.664 224.838 16.3418 240.863 5.61392 265.334C0.862581 276.174 -0.797183 288.232 0.363939 299.976C1.43958 310.88 5.01555 321.079 10.4792 330.53C12.31 333.693 13.9982 337.553 16.1139 341H263.119C265.855 334.761 267.087 327.988 266.24 321.015C264.815 309.278 257.948 298.68 256.865 286.907C255.476 271.78 263.796 257.536 272.893 245.371C281.989 233.207 292.432 221.37 296.464 206.719L296.457 206.726Z" fill="#1B5FEA"/>
<g clip-path="url(#clip0_3438_1986)">
<path d="M272.733 269.344C271.184 268.43 269.531 267.455 267.88 266.48C266.214 265.529 264.546 264.579 262.985 263.686C262.645 263.49 262.308 263.301 261.978 263.118L279.621 264.937L263.007 260.016C263.182 260.004 263.352 259.995 263.529 259.98C265.029 259.866 266.629 259.743 268.229 259.62C269.827 259.47 271.424 259.32 272.925 259.179C274.423 259.041 275.816 258.865 277.013 258.737C279.407 258.458 280.998 258.224 280.998 258.224C280.998 258.224 279.39 258.262 276.984 258.393C275.782 258.471 274.377 258.531 272.879 258.65C271.378 258.763 269.778 258.887 268.176 259.01C266.578 259.16 264.981 259.31 263.481 259.453C263.092 259.489 262.713 259.528 262.342 259.566L276.931 249.743L261.247 257.28C261.492 256.959 261.737 256.634 261.987 256.301C263.177 254.711 264.444 253.013 265.714 251.317C266.96 249.605 268.205 247.892 269.375 246.288C270.546 244.684 271.599 243.158 272.522 241.866C274.348 239.266 275.525 237.505 275.525 237.505C275.525 237.505 274.187 239.15 272.243 241.663C271.279 242.926 270.133 244.382 268.946 245.976C267.756 247.565 266.489 249.261 265.219 250.957C263.973 252.67 262.728 254.382 261.558 255.989C261.125 256.581 260.713 257.159 260.312 257.723C260.302 257.713 260.29 257.706 260.281 257.696L265.063 239.829L258.125 255.386C258.229 253.787 258.338 252.101 258.448 250.408C258.537 248.611 258.625 246.811 258.71 245.125C258.795 243.439 258.826 241.861 258.88 240.512C258.96 237.812 258.965 236.007 258.965 236.007C258.965 236.007 258.763 237.8 258.535 240.492C258.433 241.84 258.285 243.41 258.178 245.096C258.069 246.779 257.952 248.577 257.836 250.374C257.746 252.174 257.658 253.971 257.576 255.657C257.564 255.902 257.554 256.136 257.544 256.376C257.345 256.347 257.144 256.33 256.935 256.327L249.583 239.825L253.453 255.384C253.313 255.202 253.174 255.021 253.029 254.837C251.9 253.398 250.695 251.867 249.494 250.33C248.268 248.814 247.044 247.297 245.895 245.875C244.75 244.452 243.64 243.153 242.71 242.023C240.831 239.781 239.537 238.318 239.537 238.318C239.537 238.318 240.673 239.904 242.438 242.239C243.329 243.397 244.347 244.769 245.478 246.206C246.607 247.643 247.809 249.177 249.013 250.71C250.239 252.227 251.465 253.744 252.613 255.166C252.999 255.643 253.376 256.102 253.745 256.55L253.929 257.288C253.929 257.288 253.924 257.292 253.92 257.295L237.721 249.743L251.773 259.939C250.392 259.774 248.957 259.603 247.508 259.428C245.813 259.254 244.118 259.078 242.528 258.916C240.94 258.749 239.452 258.642 238.177 258.524C235.628 258.316 233.924 258.224 233.924 258.224C233.924 258.224 235.606 258.512 238.138 258.867C239.406 259.034 240.882 259.257 242.467 259.443C244.055 259.634 245.745 259.835 247.437 260.036C248.828 260.178 250.205 260.321 251.54 260.459L235.028 264.937L250.856 264.431C250.365 264.683 249.867 264.937 249.355 265.205C247.593 266.127 245.713 267.109 243.834 268.091C241.967 269.1 240.1 270.106 238.352 271.05C236.602 271.991 234.99 272.912 233.596 273.681C230.821 275.239 228.995 276.321 228.995 276.321C228.995 276.321 230.916 275.413 233.759 273.986C235.174 273.263 236.842 272.443 238.602 271.521C240.365 270.6 242.244 269.617 244.123 268.635C245.99 267.629 247.855 266.623 249.605 265.677C250.329 265.287 251.021 264.905 251.693 264.533L242.768 278.302L254.636 266.514C253.842 268.091 252.956 269.85 252.011 271.724C250.909 273.962 249.734 276.347 248.556 278.732C247.406 281.13 246.255 283.529 245.177 285.774C244.094 288.022 243.13 290.141 242.28 291.943C240.603 295.564 239.53 297.998 239.53 297.998C239.53 297.998 240.782 295.649 242.594 292.093C243.489 290.31 244.56 288.242 245.658 286.004C246.76 283.766 247.935 281.381 249.11 278.996C250.261 276.599 251.412 274.202 252.49 271.954C253.393 270.031 254.238 268.227 254.995 266.615L257.316 283.575L258.632 266.424C258.834 267.082 259.038 267.755 259.246 268.439C260.045 270.984 260.895 273.696 261.745 276.413C262.621 279.117 263.498 281.824 264.321 284.359C265.163 286.889 265.95 289.25 266.625 291.275C267.991 295.317 268.95 297.998 268.95 297.998C268.95 297.998 268.181 295.257 266.957 291.171C266.336 289.129 265.61 286.749 264.833 284.199C264.034 281.655 263.184 278.94 262.335 276.226C261.458 273.522 260.579 270.815 259.759 268.28C259.528 267.588 259.302 266.913 259.081 266.25L271.871 278.299L261.329 263.33C261.329 263.33 261.332 263.323 261.334 263.321C261.783 263.592 262.24 263.867 262.713 264.146C264.262 265.06 265.913 266.035 267.567 267.007C269.232 267.958 270.9 268.909 272.461 269.801C274.022 270.696 275.503 271.487 276.761 272.189C279.286 273.57 280.995 274.446 280.995 274.446C280.995 274.446 279.385 273.398 276.933 271.889C275.702 271.146 274.28 270.254 272.728 269.342L272.733 269.344Z" fill="#F6DD7F"/>
</g>
<g clip-path="url(#clip1_3438_1986)">
<path d="M265.32 82.7698C266.06 82.7698 266.8 82.7298 267.55 82.6298C274 81.8398 278.95 77.7198 280.48 71.8998C281.12 69.4698 281.17 67.1198 280.79 64.9198C284.75 63.3398 288.11 60.6898 289.68 56.8798C291.04 53.5698 291.27 49.9298 290.69 46.4298C293.42 45.4998 295.71 43.9198 297.07 41.5598C299.98 36.9698 300.05 30.9098 297.21 25.8198C294.03 20.1098 288.04 16.8998 280.79 16.9998L280.86 21.7898C286.3 21.7098 290.75 24.0298 293.05 28.1598C295.03 31.7098 295.01 35.8898 292.99 39.0798C292.29 40.2898 291.02 41.1798 289.42 41.7698C287.57 36.8998 284.26 32.7698 280.53 30.8098C275.78 28.3298 271.14 29.6598 268.12 34.3898L268.01 34.5898C266.06 38.3998 267.68 42.3098 272.24 44.7998C275.84 46.7698 281.14 47.8198 286.02 47.3798C286.43 49.9498 286.27 52.5998 285.26 55.0498C284.27 57.4498 282.01 59.2098 279.26 60.3498C277.11 56.0898 273.24 52.8898 269.06 51.6198C263.89 50.0398 259.55 51.9498 257.98 56.4798C256.66 60.3098 258.66 63.7698 263.21 65.4998C266.73 66.8398 271.54 67.1398 276.14 66.2598C276.33 67.6498 276.26 69.1298 275.85 70.6798C274.82 74.6298 271.49 77.3098 266.96 77.8698C262.83 78.3798 257.59 76.9098 255.18 72.4898L250.99 74.7898C253.68 79.7198 259.26 82.7598 265.32 82.7598V82.7698ZM274.48 61.6698C271.01 62.2198 267.44 61.9798 264.91 61.0198C261.87 59.8598 262.33 58.5398 262.5 58.0398C263.38 55.4898 265.8 55.6298 267.67 56.1998C270.12 56.9498 272.78 58.9098 274.48 61.6598V61.6698ZM284.61 42.6598C281.1 42.8198 277.24 42.0898 274.52 40.5998C271.41 38.8998 271.9 37.4998 272.2 36.8898C273.87 34.3398 275.82 33.7598 278.32 35.0598C280.67 36.2898 283.08 39.1598 284.61 42.6598Z" fill="#323BB9"/>
</g>
<g clip-path="url(#clip2_3438_1986)">
<path d="M21.9816 186.002C16.9292 200.426 11.1051 219.964 28.4853 223.001C45.8126 226.031 45.7862 203.89 45.9845 190.124" fill="#323BB9"/>
<path d="M31.1087 222.207C29.943 226.981 27.4452 236.655 27.9645 242.828C27.9645 242.828 37.7324 250.815 34.1874 251.45C30.0193 251.959 26.5387 251.733 22.5517 251.097L24.9297 251.474C20.9426 250.838 17.5831 249.968 13.7818 248.191C10.4115 246.694 22.3684 241.933 22.3684 241.933C24.7696 236.229 25.3946 226.243 25.7678 221.34" fill="#323BB9"/>
<path d="M34.0158 184.202C31.7884 183.818 21.4415 182.256 21.9871 186.819C22.4989 191.102 34.686 192.023 38.5795 192.688C41.6375 193.212 46.5089 192.778 45.9507 189.565C45.3509 186.131 37.3522 184.775 34.0158 184.202Z" fill="#323BB9"/>
<path d="M22.9968 187.158C27.3981 191.442 36.5852 193.782 42.5018 191.981C43.3189 191.732 42.8515 190.484 42.0344 190.733C36.5708 192.393 27.8774 190.059 23.8448 186.134C23.2272 185.534 22.3838 186.562 22.992 187.157L22.9968 187.158Z" fill="#20253E"/>
<path d="M16.7087 247.155C19.9878 249.099 23.6021 249.73 27.3732 249.68C28.2264 249.666 28.0925 248.339 27.2441 248.353C23.7008 248.4 20.3527 247.773 17.2709 245.947C16.5333 245.51 15.9805 246.724 16.7087 247.155Z" fill="#20253E"/>
<path d="M23.0965 195.968C19.5045 205.265 15.4289 217.871 28.8638 220.215C42.2605 222.549 41.7815 208.121 41.6508 199.154" fill="#DFBB6E"/>
<path d="M32.3188 195.044C30.5953 194.749 22.6048 193.515 23.1169 196.498C23.5997 199.3 32.9956 200.152 36.0056 200.669C38.3723 201.074 42.1114 200.896 41.6116 198.788C41.0805 196.537 34.8968 195.485 32.314 195.043" fill="#DFBB6E"/>
<path d="M23.9447 197.056C27.8513 199.596 32.4409 200.657 37.067 200.559C37.9205 200.541 37.7866 199.214 36.9331 199.232C32.6996 199.326 28.381 198.362 24.7976 196.033C24.0854 195.573 23.228 196.592 23.9447 197.056Z" fill="#323BB9"/>
<g opacity="0.5">
<path d="M24.528 200.999C22.387 200.63 21.9531 203.825 24.0089 204.156C26.0164 204.485 26.6931 201.37 24.528 200.999Z" fill="white"/>
<path d="M28.7571 201.454C26.9761 201.147 26.6139 203.807 28.3285 204.087C30.0047 204.359 30.5668 201.767 28.7571 201.454Z" fill="white"/>
<path d="M26.8226 205.178C25.3968 204.933 25.106 207.063 26.4796 207.286C27.8197 207.502 28.2723 205.428 26.8226 205.178Z" fill="white"/>
</g>
<g opacity="0.5">
<path d="M32.0001 215.647C31.3436 217.729 34.4271 218.599 35.0406 216.598C35.6422 214.639 32.6675 213.541 32.0001 215.647Z" fill="white"/>
<path d="M33.0361 211.498C32.4851 213.231 35.0578 213.958 35.5666 212.291C36.0685 210.662 33.5883 209.741 33.0361 211.498Z" fill="white"/>
<path d="M36.4391 213.938C35.9984 215.323 38.0555 215.906 38.4647 214.569C38.8672 213.265 36.8859 212.53 36.4391 213.938Z" fill="white"/>
</g>
</g>
<g clip-path="url(#clip3_3438_1986)">
<path d="M50.9701 121.77C50.2301 121.77 49.4901 121.72 48.7501 121.63C42.3001 120.84 37.3401 116.73 35.8201 110.9C35.1801 108.47 35.1201 106.12 35.5101 103.92C31.5501 102.34 28.1901 99.6898 26.6201 95.8798C25.2601 92.5698 25.0301 88.9298 25.6101 85.4298C22.8801 84.4998 20.5901 82.9198 19.2301 80.5598C16.3301 75.9698 16.2501 69.9098 19.0901 64.8198C22.2701 59.1098 28.3101 55.8898 35.5101 55.9998L35.4401 60.7898C30.0401 60.6798 25.5601 63.0298 23.2501 67.1598C21.2701 70.7098 21.2901 74.8898 23.3101 78.0798C24.0001 79.2898 25.2801 80.1798 26.8701 80.7698C28.7201 75.8998 32.0301 71.7698 35.7501 69.8098C40.5001 67.3298 45.1401 68.6698 48.1701 73.3898L48.2801 73.5898C50.2301 77.3998 48.6101 81.3098 44.0501 83.7998C40.4501 85.7698 35.1601 86.8198 30.2701 86.3798C29.8601 88.9498 30.0201 91.5998 31.0301 94.0498C32.0201 96.4498 34.2801 98.2098 37.0301 99.3498C39.1801 95.0898 43.0501 91.8898 47.2301 90.6198C52.4001 89.0398 56.7501 90.9498 58.3101 95.4698C59.6301 99.2998 57.6301 102.76 53.0801 104.49C49.5601 105.83 44.7601 106.13 40.1501 105.25C39.9701 106.64 40.0401 108.12 40.4401 109.67C41.4701 113.62 44.8001 116.31 49.3301 116.86C53.4601 117.37 58.7001 115.9 61.1101 111.48L65.3001 113.78C62.6101 118.71 57.0301 121.75 50.9701 121.75V121.77ZM41.8101 100.67C45.2801 101.22 48.8501 100.99 51.3801 100.03C54.4201 98.8698 53.9601 97.5498 53.7901 97.0498C52.9101 94.4998 50.4901 94.6398 48.6201 95.2098C46.1801 95.9598 43.5101 97.9198 41.8201 100.67H41.8101ZM31.6801 81.6598C35.2001 81.8098 39.0501 81.0898 41.7701 79.5998C44.8801 77.8998 44.3901 76.4998 44.0901 75.8898C42.4201 73.3298 40.4701 72.7598 37.9701 74.0598C35.6201 75.2898 33.2101 78.1598 31.6801 81.6598Z" fill="#DFBB6E"/>
</g>
<g clip-path="url(#clip4_3438_1986)">
<path d="M162.891 137.754C157.542 139.565 152.237 141.782 146.542 142.129C144.226 142.272 140.887 142.704 138.688 141.824C135.722 140.638 134.171 136.048 130.92 135.631C129.104 135.399 127.458 136.846 125.615 136.871C123.076 136.903 120.892 135.439 119.67 133.163C118.556 131.095 119.586 129.81 119.326 127.87C119.076 126.004 116.632 124.636 115.295 123.462C113.015 121.458 111.693 119.17 111.413 116.037C111.2 113.66 112.557 112.388 112.831 110.221C113.126 107.894 111.531 105.584 110.68 103.528C109.583 100.876 108.81 97.8015 110.007 95.0428C110.974 92.8167 113.59 91.8429 114.274 89.5749C114.998 87.186 114.117 84.2967 114.233 81.8537C114.353 79.2824 115.459 76.6347 117.702 75.2763C119.54 74.162 121.383 74.2878 122.362 72.2786C123.164 70.6293 123.1 68.6793 124.288 67.1533C125.407 65.7136 126.786 65.5854 128.496 65.1762C131.394 64.4834 134.085 64.0323 136.892 65.3808C139.351 66.5592 141.615 68.3958 143.797 70.0229C146.138 71.7683 148.677 73.1118 151.094 74.7463C155.471 77.7022 159.196 82.1298 160.229 87.4843C160.727 90.0655 160.685 93.1421 159.741 95.5827C158.948 97.6289 157.665 99.4507 156.914 101.526C155.776 104.672 155.741 107.377 157.616 110.214C158.961 112.25 161.397 113.939 161.839 116.392C162.217 118.48 161.09 121.665 160.079 123.465C159.014 125.356 156.953 125.24 155.864 126.81" fill="#20182D"/>
<path d="M144.814 341C158.628 316.249 169.609 295.173 170.018 290.043C171.145 275.922 139.063 254.057 128.838 265.176C116.087 279.043 110.235 287.632 105.477 298.077C98.808 312.726 93.1277 327.249 88.2891 341H144.814Z" fill="#F3A187"/>
<path d="M146.785 341C159.73 316.345 169.857 295.7 170.252 290.73C171.378 276.609 137.851 253.929 127.629 265.047C114.877 278.914 110.237 287.632 105.48 298.079C98.7271 312.91 92.4899 327.404 86.8955 341.002H146.785V341Z" fill="#0A0E1E"/>
<path d="M201.58 100.36C198.285 104.645 198.218 105.648 194.916 110.69C181.541 131.102 176.933 133.535 168.818 149.091C157.765 170.285 160.662 183.181 171.868 192.265C183.994 202.097 196.454 172.755 205.567 146.52C207.505 140.941 206.539 139.763 217.735 108.202C217.735 108.2 208.163 101.398 201.582 100.36H201.58Z" fill="#F3A187"/>
<path d="M216.577 110.823C214.928 114.015 204.255 113.537 201.109 109.24C198.474 105.638 199.321 103.592 199.318 103.597C204.782 79.6915 214.423 60.9308 221.288 44.0536C228.041 27.4599 230.418 41.1569 230.418 41.1569C228.578 61.0861 226.848 80.187 216.575 110.823H216.577Z" fill="#F3A187"/>
<path d="M221.136 44.3595L222.142 40.2499C220.326 39.0987 220.449 33.7959 219.865 30.13C219.259 26.3261 218.947 24.9135 218.405 20.8434C218.086 18.4447 219.055 17.9837 219.809 18.3781C220.204 18.5877 220.587 19.485 220.587 19.485C221.757 24.4131 222.218 27.6771 223.874 27.1865C224.78 26.9178 224.969 24.7163 224.969 24.7163C224.969 24.7163 225.808 19.8647 227.268 13.3391C227.994 10.0899 228.988 9.43167 229.8 9.59191C230.622 9.75215 230.337 12.4146 229.793 14.7369C229.248 17.0592 228.86 19.5688 228.298 22.7959C227.582 26.9104 228.824 24.4081 228.824 24.4081L231.962 13.026C232.776 10.8393 233.559 9.76941 234.501 10.1441C235.89 10.6939 234.73 13.7804 234.73 13.7804C234.73 13.7804 233.495 19.167 232.521 22.7219C231.186 27.5933 232.877 25.8331 232.877 25.8331L234.987 17.2194C235.603 14.4189 236.651 14.4707 237.011 14.5323C238.518 14.7912 237.495 17.7692 237.495 17.7692C237.495 17.7692 235.998 23.3727 235.478 26.0549C234.96 28.7371 235.782 26.8093 235.782 26.8093C235.782 26.8093 236.185 26.018 237.453 21.4129C237.929 19.6872 238.363 18.8958 238.783 18.8687C240.623 18.7553 239.811 22.0686 239.811 22.0686C239.811 22.0686 239.568 23.0621 238.219 28.5621C237.909 29.8219 236.047 34.2791 236.047 34.2791C236.047 34.2791 232.897 42.5648 230.772 42.6733L228.541 51.9501" fill="#F3A187"/>
<path d="M168.817 149.091C170.723 145.438 193.611 105.742 199.191 98.1641C208.757 101.741 214.254 100.703 222.579 106.378C218.187 118.922 197.284 177.156 191.798 186.228C185.953 195.89 178.02 197.255 171.864 192.266C160.658 183.181 157.76 170.285 168.817 149.091Z" fill="#0A0E1E"/>
<path d="M179.441 243.296C178.693 254.873 175.505 298.306 170.539 301.383C164.501 305.128 152.544 309.331 145.806 309.331C127.833 309.331 96.4579 331.112 97.9424 309.762C100.629 271.129 95.2262 241.963 95.793 226.791C97.1989 189.243 91.4328 164.96 115.871 160.503C128.964 158.464 128.898 157.473 142.118 157.473C153.795 157.473 164.54 159.14 176.084 161.459C175.54 161.321 175.15 161.459 174.919 161.874C184.275 169.134 182.221 182.545 182.221 193.318C182.221 207.188 181.276 220.862 180.074 234.584C179.821 237.464 179.63 240.373 179.441 243.294V243.296Z" fill="#F3A187"/>
<path d="M140.471 341H199.875C187.209 318.719 175.294 299.011 169.395 292.609C159.89 282.292 125.71 315.39 133.235 328.498C135.741 332.862 138.148 337.018 140.471 341Z" fill="#0A0E1E"/>
<path d="M116.926 117.351C118.87 121.29 125.59 125.612 125.799 121.815C125.926 119.493 125.18 114.617 123.235 110.677C121.291 106.738 121.716 106.08 118.759 107.551C115.802 109.023 114.983 113.411 116.926 117.348V117.351Z" fill="#F3A187"/>
<path d="M130.436 127.466C127.989 119.912 153.471 129.325 153.471 129.325L152.384 160.498C152.384 160.498 143.06 174.831 130.436 158.61C129.329 157.185 131.351 130.284 130.436 127.466Z" fill="#F3A187"/>
<path d="M132.085 127.022C130.848 128.378 130.281 138.298 130.47 146.646C138.872 146.249 147.629 148.704 152.538 156.029L153.468 129.325C153.468 129.325 137.127 121.49 132.085 127.022Z" fill="#D9907A"/>
<path d="M159.883 143.441C157.66 144.129 143.838 145.139 131.658 137.223C125.814 133.424 123.924 117.496 121.63 110.123C120.158 105.389 119.873 102.833 119.844 97.9247C119.809 92.3729 120.631 86.4785 122.452 81.2324C123.242 78.9495 124.68 76.9847 126.113 75.0717C127.072 73.7922 128.073 72.4585 129.56 71.7781C130.878 71.1766 132.412 71.0681 133.815 70.7673C136.406 70.2126 138.975 69.6506 141.598 69.2586C147.075 68.4401 152.944 69.4336 158.151 71.3935C162.682 73.0995 166.083 74.7832 167.899 79.5634C169.798 84.5654 169.133 86.8408 169.771 92.1313C170.892 101.448 171.901 112.171 170.441 123.28C169.992 126.697 165.475 141.703 159.883 143.438V143.441Z" fill="#F3A187"/>
<path d="M161.087 127.151C161.087 127.151 159.215 133.277 154.735 133.42C150.254 133.565 145.197 131.241 144.187 124.855C144.187 124.855 147.798 126.162 152.713 126.741C157.625 127.323 161.09 127.151 161.09 127.151H161.087Z" fill="#430000"/>
<path d="M156.124 133.146C155.677 133.301 155.201 133.405 154.688 133.422C152.22 133.503 149.58 132.828 147.533 131.142C150.411 130.01 153.515 131.339 156.126 133.148L156.124 133.146Z" fill="#F0696E"/>
<path d="M145.529 128.721C144.898 127.644 144.425 126.367 144.187 124.855C144.187 124.855 147.798 126.162 152.711 126.741C157.623 127.323 161.087 127.151 161.087 127.151C161.087 127.151 160.918 128.442 159.647 130.141C154.342 131.297 149.997 129.939 145.529 128.721Z" fill="white"/>
<path d="M144.705 108.648C144.746 109.573 145.323 110.298 145.993 110.268C146.663 110.239 147.175 109.464 147.134 108.54C147.094 107.616 146.515 106.891 145.845 106.92C145.176 106.95 144.663 107.724 144.705 108.648Z" fill="#1A1C37"/>
<path d="M160.744 108.503C160.785 109.428 161.362 110.153 162.032 110.123C162.702 110.094 163.212 109.319 163.173 108.395C163.133 107.47 162.554 106.746 161.885 106.775C161.215 106.805 160.702 107.579 160.744 108.503Z" fill="#1A1C37"/>
<path d="M127.171 99.7909C128.405 97.5204 130.785 96.1226 132.063 93.8842C134.318 89.9397 131.771 82.8546 129.053 79.7434C125.546 75.73 117.052 77.0859 116.301 82.8644C115.94 85.6403 113.963 87.4005 113.882 90.2799C113.823 92.3927 115.332 93.9483 115.513 95.9131C115.741 98.3759 115.005 101.228 114.76 103.691C114.672 104.586 114.669 105.533 115.155 106.299C116.166 107.892 118.227 108.446 119.677 109.516C120.781 110.332 122.403 113.325 123.905 113.022C124.989 112.803 124.504 111.765 124.602 110.887C124.673 110.271 124.57 109.625 124.602 109.004C124.629 108.513 124.675 108.003 124.746 107.485C125.097 104.862 125.981 101.975 127.168 99.7909H127.171Z" fill="#20182D"/>
<path d="M153.584 106.57L156.17 118.337L153.12 121.389L157.863 118.601L153.584 106.57Z" fill="#D18B76"/>
<path d="M147.565 99.3519C147.565 99.3519 147.406 99.3593 147.129 99.3741C146.837 99.3914 146.422 99.4185 145.924 99.4506C144.898 99.5368 143.509 99.6922 142.145 100.067C141.458 100.212 140.801 100.486 140.175 100.683C139.569 100.937 139.007 101.184 138.531 101.401C137.618 101.903 137.007 102.239 137.007 102.239C136.217 102.673 135.928 103.669 136.359 104.465C136.767 105.212 137.667 105.513 138.428 105.185L138.585 105.116C138.585 105.116 139.112 104.889 139.905 104.544C140.31 104.411 140.786 104.255 141.291 104.088C141.816 103.984 142.354 103.804 142.921 103.745C144.032 103.545 145.185 103.528 146.056 103.535C146.508 103.548 146.886 103.56 147.148 103.568C147.425 103.58 147.585 103.587 147.585 103.587C148.75 103.637 149.732 102.727 149.781 101.558C149.83 100.387 148.925 99.3988 147.762 99.3519C147.698 99.3495 147.632 99.3495 147.568 99.3519H147.558H147.565Z" fill="#20182D"/>
<path d="M159.288 102.932C159.288 102.932 159.443 102.932 159.713 102.927C159.848 102.927 160.012 102.922 160.201 102.919C160.353 102.927 160.528 102.934 160.714 102.944C161.075 102.944 161.578 103.02 162.086 103.07C162.594 103.168 163.148 103.232 163.678 103.385C164.223 103.501 164.743 103.681 165.234 103.846C165.727 104.009 166.149 104.228 166.534 104.381C167.255 104.758 167.732 105.029 167.732 105.029L167.847 105.096C168.634 105.54 169.628 105.259 170.07 104.467C170.482 103.733 170.266 102.813 169.599 102.332C169.599 102.332 169.039 101.928 168.166 101.366C167.714 101.127 167.197 100.802 166.613 100.54C166.029 100.276 165.403 99.9929 164.755 99.7834C164.117 99.5369 163.455 99.384 162.836 99.2065C162.201 99.0783 161.644 98.9378 161.08 98.8737C160.807 98.8367 160.559 98.8047 160.339 98.7751C160.152 98.7603 159.988 98.7455 159.853 98.7357C159.583 98.7135 159.431 98.6987 159.431 98.6987C158.27 98.6025 157.249 99.4703 157.154 100.636C157.058 101.805 157.922 102.828 159.082 102.924C159.149 102.929 159.225 102.932 159.291 102.932H159.288Z" fill="#20182D"/>
<path d="M119.632 82.2972C119.561 81.4418 119.544 80.5469 119.576 79.6002C119.696 75.9492 122.79 70.7943 125.727 68.7333C127.656 67.3799 128.834 67.3602 130.294 65.2918C131.702 63.2925 131.896 60.8716 134.256 59.5576C137.65 57.6668 140.496 60.4944 143.472 61.7665C145.644 62.6959 146.272 61.7443 148.043 60.7903C149.938 59.7696 152.033 59.2051 154.212 59.1262C156.379 59.0473 158.14 59.7524 160.155 60.5166C160.795 60.7582 164.441 62.1363 163.872 61.9169C166.613 63.7584 168.882 61.7665 171.454 60.9801C173.118 60.4722 176.845 61.0787 177.946 62.6811C178.925 64.1011 177.703 65.6616 177.696 67.1285C177.672 71.5635 181.043 75.5054 177.127 79.2921C176.013 80.3694 174.381 80.4458 173.292 81.3999C171.795 82.7114 172.261 84.0599 171.702 85.8226C169.729 92.0128 161.428 89.2789 156.666 90.7753C154.943 91.3152 153.513 92.3654 151.694 92.6735C148.537 93.2085 145.727 91.7343 142.643 91.537C138.616 91.2757 138.05 94.451 134.516 94.8997C131.538 95.2768 127.266 94.2686 124.942 92.3136C121.517 89.4366 119.973 86.3304 119.637 82.2972H119.632Z" fill="#20182D"/>
<path d="M90.9267 226.335C90.993 225.655 91.0641 224.975 91.1377 224.294C92.6615 210.531 92.5658 196.654 93.7362 182.863C94.1607 177.854 93.8564 172.484 97.4682 168.707C101.33 164.667 105.563 161.935 110.929 160.311C114.502 159.231 129.812 153.625 130.092 154.581C130.698 156.652 132.705 164.213 139.909 164.386C149.223 164.61 150.777 161.44 152.504 156.973C153.041 155.582 162.118 157.36 163.18 157.72C167.202 159.083 171.454 162.552 174.963 164.943C175.139 167.497 178.02 170.813 179.47 173.16C185.423 182.789 187.344 192.704 187.344 203.85C187.344 219.386 187.329 234.922 187.344 250.458C187.358 264.399 185.97 278.32 186.642 292.303C186.897 297.609 189.891 309.883 187.378 314.912C184.048 321.574 168.487 324.268 162.068 325.624C148.242 328.543 134.796 331.112 120.594 331.114C113.319 331.114 100.7 334.282 94.0576 331.915C83.946 328.314 87.9774 315.442 86.7285 307.531C84.5594 293.817 88.3528 279.016 89.2656 265.183C90.1195 252.216 89.6778 239.295 90.9292 226.335H90.9267Z" fill="white"/>
<path d="M73.0963 260.198C77.027 247.349 80.5922 234.387 83.8581 221.353C86.4467 211.021 85.6222 200.859 88.6427 190.683C90.532 184.32 91.0252 172.657 95.7535 167.709C99.6155 163.668 105.566 161.933 110.932 160.311C113.432 159.556 121.669 156.588 126.493 155.198C134.2 197.945 126.972 241.117 117.785 283.002C115.501 293.418 113.086 303.804 110.765 314.21C109.236 321.061 109.028 331.881 100.801 333.895C90.1027 336.51 66.383 324.781 60.9383 315.556C56.2837 307.672 61.1272 295.866 63.9244 288.001C67.1927 278.806 70.2426 269.532 73.0987 260.201L73.0963 260.198Z" fill="#0A0E1E"/>
<path d="M103.085 252.317C100.859 248.03 97.2988 242.532 100.761 237.932C103.112 234.809 105.931 232.077 108.387 229.04C111.714 224.928 114.506 220.83 115.773 215.624C118.945 202.573 107.133 190.55 103.872 178.8C101.181 169.102 108.264 163.432 115.785 158.691C119.215 157.52 123.506 156.056 126.493 155.198C134.2 197.945 126.971 241.117 117.785 283.002C117.218 285.586 116.629 288.164 116.05 290.745C112.956 277.522 109.356 264.402 103.085 252.319V252.317Z" fill="#252B46"/>
<path d="M183.698 317.644C182.447 315.997 181.426 313.428 180.673 309.647C177.284 292.624 175.093 275.296 171.942 258.211C165.737 224.561 158.788 191.055 152.315 157.456C152.379 157.296 152.443 157.138 152.507 156.973C153.012 155.664 157.147 155.198 167.349 157.9C182.807 161.99 186.866 176.281 189.393 188.696C193.679 209.759 198.349 230.835 199.446 252.371C200.079 264.781 200.798 277.433 200.92 289.831C200.989 296.583 199.939 303.742 197.679 310.159C195.868 315.302 189.663 325.496 183.698 317.649V317.644Z" fill="#0A0E1E"/>
<path d="M174.016 171.346C178.346 176.929 178.815 186.344 176.619 194.201C172.845 207.701 173.589 209.801 173.314 214.66C172.963 220.873 176.972 227.058 179.455 232.731C181.627 237.691 186.897 244.591 186.507 250.18C185.977 257.723 180.528 263.675 176.666 269.813C175.939 270.969 175.23 272.13 174.521 273.294C173.706 268.255 172.87 263.221 171.945 258.209C165.945 225.673 158.83 188.506 152.541 156.026C162.893 161.677 167.518 162.961 174.018 171.343L174.016 171.346Z" fill="#252B46"/>
<path d="M164.449 237.695C164.449 237.695 163.958 238.77 163.095 240.651C162.673 241.595 162.16 242.739 161.571 244.053C160.977 245.365 160.344 246.866 159.537 248.434C158.754 250.017 157.905 251.73 157.01 253.542C156.168 255.381 155.022 257.186 153.974 259.123C152.863 261.024 151.884 263.092 150.542 264.978C149.268 266.904 147.978 268.864 146.685 270.819C145.261 272.68 143.838 274.544 142.437 276.378C141.105 278.271 139.456 279.846 137.999 281.491C136.482 283.078 135.165 284.767 133.631 286.079C132.159 287.457 130.765 288.761 129.479 289.964C128.226 291.209 126.93 292.175 125.821 293.082C124.705 293.982 123.73 294.766 122.928 295.412C121.331 296.721 120.418 297.468 120.418 297.468C120.418 297.468 121.39 296.8 123.088 295.634C123.934 295.04 124.962 294.322 126.14 293.497C127.318 292.668 128.689 291.783 129.99 290.57C131.334 289.412 132.792 288.157 134.335 286.828C135.937 285.561 137.348 283.931 138.889 282.326C140.386 280.682 142.079 279.107 143.451 277.211C144.893 275.372 146.361 273.506 147.825 271.637C149.109 269.638 150.39 267.641 151.651 265.674C152.983 263.748 153.942 261.648 155.039 259.715C156.092 257.758 157.147 255.884 157.925 253.993C158.754 252.132 159.537 250.372 160.258 248.75C161.021 247.142 161.549 245.604 162.052 244.255C162.552 242.904 162.987 241.726 163.345 240.757C164.047 238.81 164.447 237.698 164.447 237.698L164.449 237.695Z" fill="#BCBEC0"/>
<path d="M232.33 50.4387C230.619 68.2675 230.293 83.525 221.082 110.983C219.433 114.176 204.255 113.535 201.109 109.238C198.474 105.636 198.049 102.791 198.047 102.796C203.514 78.8903 218.246 46.0481 218.366 45.7695L232.327 50.4387H232.33Z" fill="#0A0E1E"/>
<path d="M147.732 282.142C150.952 281.18 159.432 281.027 162.096 281.996C162.879 282.28 164.314 282.938 163.669 283.917C163.058 284.841 161.704 284.836 160.752 284.74C159.569 284.622 158.457 284.545 157.253 284.572C156.379 284.592 155.508 284.839 154.654 284.784C153.71 284.723 152.696 284.55 151.801 284.984" fill="#F3A187"/>
<path d="M182.771 276.44C190.878 278.173 197.662 278.565 197.93 277.312L191.499 307.655C190.392 312.879 185.278 316.214 180.077 315.102L169.555 312.851C164.356 311.74 161.036 306.602 162.145 301.376L168.576 271.033C168.311 272.286 174.666 274.706 182.771 276.44Z" fill="#A5DFF9"/>
<path d="M192.448 290.974L189.398 305.367C188.478 309.713 184.226 312.486 179.9 311.559L171.15 309.688C166.824 308.764 164.066 304.489 164.987 300.145L168.036 285.753L192.448 290.974Z" fill="#F5B955"/>
<path d="M168.573 271.031C168.308 272.283 174.663 274.704 182.768 276.437C190.875 278.17 197.659 278.562 197.927 277.31C198.192 276.057 191.837 273.636 183.73 271.903C175.623 270.168 168.838 269.778 168.573 271.031Z" fill="#6DCFF6"/>
<path d="M168.036 285.753C167.771 287.003 173.022 289.187 179.762 290.632C186.502 292.074 192.183 292.227 192.448 290.977C192.713 289.725 187.464 287.541 180.721 286.098C173.981 284.656 168.301 284.501 168.036 285.753Z" fill="#F2A351"/>
<path opacity="0.5" d="M183.209 306.984C182.996 307.987 183.631 308.971 184.63 309.185C185.626 309.397 186.608 308.759 186.819 307.758L191.147 287.341C191.358 286.337 190.722 285.354 189.726 285.139C188.73 284.927 187.749 285.566 187.538 286.567L183.209 306.986V306.984Z" fill="white"/>
<path opacity="0.5" d="M174.614 305.148C174.401 306.148 175.039 307.135 176.035 307.349C177.031 307.561 178.013 306.923 178.224 305.922L182.552 285.502C182.763 284.501 182.128 283.515 181.131 283.303C180.135 283.091 179.154 283.729 178.943 284.73L174.614 305.15V305.148Z" fill="white"/>
<path opacity="0.5" d="M166.372 303.382C166.159 304.383 166.797 305.369 167.793 305.584C168.789 305.796 169.771 305.157 169.982 304.156L174.31 283.737C174.523 282.733 173.885 281.749 172.889 281.535C171.893 281.321 170.912 281.962 170.698 282.962L166.37 303.382H166.372Z" fill="white"/>
<path d="M164.881 273.57C166.365 273.888 167.626 274.731 168.571 275.917L167.57 280.638C166.966 279.272 165.877 278.256 164.483 277.958C161.912 277.408 159.289 279.496 158.626 282.625L157.652 287.22C156.99 290.348 158.535 293.329 161.109 293.878C162.505 294.177 163.911 293.694 165.016 292.695L164.014 297.416C162.672 298.111 161.178 298.365 159.694 298.05C155.741 297.204 153.361 292.619 154.379 287.811L155.876 280.746C156.894 275.936 160.925 272.724 164.881 273.57Z" fill="#A5DFF9"/>
<path d="M142.263 281.215C143.652 281.513 144.996 282.001 146.41 282.083C150.573 282.324 155.211 282.036 159.181 283.286C160.935 283.838 162.41 284.775 162.869 286.695C163.337 288.645 162.248 290.889 161.024 292.345C159.775 293.832 158.433 293.98 156.597 294.187C153.199 294.569 149.889 292.777 146.795 291.633C143.939 290.58 141.1 289.535 138.126 288.86" fill="#F3A187"/>
<path d="M78.512 264.621C75.6755 262.427 78.0237 251.954 82.7887 249.603C86.7833 247.63 88.6358 248.828 88.6309 248.826C111.087 258.443 127.772 271.285 143.095 281.047C158.163 290.649 144.324 290.588 144.324 290.588C125.122 285.258 106.712 280.179 78.512 264.619V264.621Z" fill="#F3A187"/>
<path d="M117.459 201.173C117.896 212.51 115.26 223.476 112.252 234.93C110.186 242.791 109.097 250.828 106.3 258.463C96.1193 257.726 86.2236 270.195 76.6494 267.096C77.9719 242.537 78.2688 216.992 83.8068 193.013C85.436 185.962 86.6997 169.938 95.4666 168.35C105.966 166.447 113.565 180.575 115.641 188.637C116.738 192.892 117.299 197.056 117.459 201.17V201.173Z" fill="#0A0E1E"/>
<path d="M134.894 290.842C117.728 286.007 102.837 282.995 77.559 269.049C74.7226 266.855 78.0228 251.957 82.7878 249.603C86.7824 247.631 89.6434 247.712 89.6385 247.709C112.094 257.329 141.676 277.687 141.929 277.855L134.894 290.842Z" fill="#0A0E1E"/>
</g>
<g clip-path="url(#clip5_3438_1986)">
<path d="M270.563 126.638C273.306 133.834 274.766 140.607 280.504 144.832C287.677 149.879 290.683 152.854 294.37 161.524C296.963 168.321 299.402 174.721 301.838 181.116C305.647 191.113 307.333 195.529 293.822 199.747L294.222 199.596C281.333 205.453 279.648 201.036 275.839 191.04C273.4 184.64 270.957 178.243 268.368 171.443C265.341 162.522 265.607 158.298 267.593 149.752C269.058 142.779 265.638 136.759 262.891 129.559" fill="#323BB9"/>
<path d="M279.645 194.578C280.526 197.02 281.928 199.173 284.644 199.633C287.211 200.068 290.016 198.714 292.327 197.8C293.184 197.46 292.658 196.131 291.801 196.471C289.847 197.244 287.873 198.087 285.757 198.256C283.106 198.46 281.764 196.248 280.969 194.054C280.66 193.186 279.331 193.712 279.641 194.581L279.645 194.578Z" fill="#20253E"/>
<path d="M289.783 186.049C293.708 184.559 297.771 182.22 301.248 179.58C299.052 173.811 296.839 168.016 294.508 161.906C286.44 166.678 277.604 169.521 268.617 172.101C270.84 177.94 272.958 183.492 275.068 189.012C278.948 189.056 284.491 188.065 289.79 186.05L289.783 186.049Z" fill="#DFBB6E"/>
<path d="M284.072 172.47C278.641 174.625 282.513 183.596 287.704 181.478C292.775 179.403 289.572 170.288 284.072 172.47Z" fill="#20253E"/>
<path d="M285.799 174.154C283.792 174.951 285.223 178.274 287.142 177.487C289.019 176.722 287.834 173.345 285.799 174.154Z" fill="white"/>
<path d="M273.244 174.333C279.901 173.037 286.358 170.384 292.296 167.155C293.096 166.722 292.575 165.39 291.77 165.826C285.958 168.989 279.608 171.644 273.092 172.915C272.192 173.09 272.345 174.508 273.244 174.333Z" fill="white"/>
<path d="M278.302 187.075C284.958 185.778 291.416 183.125 297.354 179.897C298.154 179.463 297.637 178.128 296.827 178.567C291.015 181.73 284.666 184.385 278.149 185.656C277.25 185.831 277.398 187.252 278.302 187.075Z" fill="white"/>
<path d="M274.718 181.678C276.638 181.423 278.403 180.865 280.198 180.155C281.225 179.75 280.594 178.154 279.565 178.566C277.912 179.224 276.304 179.745 274.534 179.981C273.438 180.125 273.625 181.827 274.721 181.683L274.718 181.678Z" fill="#CC2E96"/>
<path d="M292.145 175.415C293.781 174.768 295.362 174.077 296.884 173.195C297.836 172.641 296.796 171.276 295.853 171.824C294.467 172.628 292.996 173.232 291.509 173.821C290.482 174.226 291.113 175.823 292.142 175.411L292.145 175.415Z" fill="#CC2E96"/>
<path d="M271.954 157.279C273.307 157.907 274.669 158.528 276.068 159.056C276.531 159.232 278.326 160.244 278.621 159.694C278.915 159.133 279.211 158.576 279.495 158.01C281.172 154.668 282.74 151.181 284.771 148.008C283.523 146.997 282.122 145.963 280.509 144.829C274.77 140.604 273.314 133.836 270.568 126.635L262.895 129.563C265.638 136.759 269.061 142.784 267.597 149.757C267.181 151.534 266.844 153.12 266.594 154.603C268.369 155.521 270.149 156.437 271.957 157.283L271.954 157.279Z" fill="#DFBB6E"/>
<path d="M265.862 156.236C268.642 157.742 276.006 162.392 279.336 160.27C280.646 159.437 281.495 157.744 282.25 156.452C283.837 153.748 285.289 150.965 286.469 148.059C286.989 146.781 285.025 145.927 284.501 147.208C282.993 150.923 281.138 154.691 278.728 157.907C276.937 160.298 268.717 155.356 266.705 154.265C265.489 153.607 264.65 155.576 265.859 156.232L265.862 156.236Z" fill="white"/>
<path d="M273.96 147.587C270.011 149.155 272.976 156.046 276.744 154.499C280.438 152.991 277.962 145.996 273.96 147.587Z" fill="#20253E"/>
<path d="M270.193 144.229C271.814 143.587 273.439 142.942 275.059 142.3C275.917 141.959 275.391 140.63 274.533 140.97C272.913 141.613 271.288 142.258 269.667 142.9C268.81 143.24 269.336 144.57 270.193 144.229Z" fill="white"/>
<path d="M272.111 146.542C273.156 146.126 274.207 145.711 275.252 145.294C276.109 144.954 275.579 143.628 274.726 143.965C273.678 144.377 272.63 144.796 271.582 145.209C270.725 145.549 271.256 146.875 272.108 146.538L272.111 146.542Z" fill="white"/>
<path d="M265.369 124.544C269.203 123.029 270.604 122.49 271.377 124.856C272.085 127.032 269.302 127.507 266.816 128.458L266.799 128.47C264.309 129.416 261.901 130.921 260.991 128.818C259.834 126.143 261.299 126.043 265.268 124.581" fill="#323BB9"/>
</g>
<defs>
<clipPath id="clip0_3438_1986">
<rect width="52" height="62" fill="white" transform="translate(229 236)"/>
</clipPath>
<clipPath id="clip1_3438_1986">
<rect width="48.3" height="65.77" fill="white" transform="matrix(-1 0 0 1 299.3 17)"/>
</clipPath>
<clipPath id="clip2_3438_1986">
<rect width="30" height="68" fill="white" transform="translate(16.5586 183) rotate(3)"/>
</clipPath>
<clipPath id="clip3_3438_1986">
<rect width="48.3" height="65.77" fill="white" transform="translate(17 56)"/>
</clipPath>
<clipPath id="clip4_3438_1986">
<rect width="181" height="338" fill="white" transform="translate(59 3)"/>
</clipPath>
<clipPath id="clip5_3438_1986">
<rect width="34.9457" height="80.6438" fill="white" transform="translate(240 140.542) rotate(-34)"/>
</clipPath>
</defs>
</svg>
