<svg width="164" height="100" viewBox="0 0 164 100" fill="none" xmlns="http://www.w3.org/2000/svg">
<g clip-path="url(#clip0_5869_3427)">
<path d="M81.6102 82.8151C81.5288 82.8151 81.4393 82.8069 81.3579 82.7906C81.1137 82.7418 57.2696 77.4178 53.4924 42.8851C52.2794 31.8137 54.4855 23.1195 60.0537 17.0303C68.3816 7.92088 81.0892 8.05113 81.6265 8.06741C82.3022 8.08369 82.8476 8.62912 82.8476 9.31293V81.5777C82.8476 81.9521 82.6767 82.3022 82.3917 82.5383C82.172 82.7174 81.887 82.8151 81.6102 82.8151ZM80.3647 10.591C77.1003 10.8027 68.0153 11.9912 61.8773 18.7236C56.8219 24.2592 54.8356 32.3022 55.9671 42.6164C59.0362 70.6773 75.2768 78.24 80.3647 79.9333V10.5992V10.591Z" fill="#FFD081"/>
<path d="M81.6103 82.8151C81.2032 82.8151 80.845 82.6197 80.6252 82.3266C80.1612 82.4976 79.6239 82.3917 79.2739 82.001C78.6145 81.2846 63.1065 64.1404 64.0508 42.6897C64.3927 34.9153 66.6558 29.1762 70.775 25.6431C75.7083 21.4181 81.4393 22.0042 81.6754 22.0287C82.3022 22.1019 82.7825 22.6311 82.7825 23.266L82.8639 81.5695C82.8639 82.2533 82.3103 82.8151 81.6265 82.8151H81.6103ZM80.2915 24.4953C78.6063 24.5686 75.2687 25.0489 72.3543 27.5643C68.7968 30.6334 66.8349 35.762 66.5256 42.8037C65.7441 60.6236 77.3038 75.7815 80.3647 79.4692L80.2915 24.4953Z" fill="#FFD081"/>
<path d="M81.6102 82.815C81.3253 82.815 81.0485 82.7174 80.8287 82.5383C80.5357 82.3022 80.3729 81.9521 80.3729 81.5777V9.31293C80.3729 8.63725 80.9183 8.08368 81.594 8.0674C82.1394 8.0674 94.8388 7.92087 103.167 17.0303C108.735 23.1195 110.941 31.8219 109.728 42.8851C105.951 77.4178 82.1068 82.7418 81.8626 82.7906C81.7812 82.8069 81.6916 82.815 81.6102 82.815ZM82.8558 10.591V79.9332C87.9437 78.24 104.184 70.6773 107.253 42.6164C108.385 32.294 106.39 24.2429 101.327 18.7073C95.1726 11.9749 86.112 10.7945 82.8558 10.591Z" fill="#FFD081"/>
<path d="M81.6102 82.815C80.9264 82.815 80.3647 82.2533 80.3728 81.5695L80.4542 23.266C80.4542 22.6311 80.9345 22.1019 81.5614 22.0287C81.8056 22.0042 87.5285 21.4262 92.4617 25.6431C96.5809 29.1762 98.844 34.9072 99.1941 42.6897C100.138 64.1322 84.6304 81.2765 83.971 82.001C83.621 82.3836 83.0755 82.4976 82.6196 82.3266C82.3917 82.6278 82.0335 82.815 81.6265 82.815H81.6102ZM82.929 24.4871L82.8557 79.4692C85.9166 75.7815 97.4764 60.5992 96.6949 42.8037C96.3855 35.7375 94.4073 30.6008 90.8336 27.5399C87.9029 25.0244 84.606 24.5523 82.929 24.4871Z" fill="#FFD081"/>
<path d="M74.6011 42.7141L74.5685 42.6816L74.593 42.7304L69.6027 49.5116H93.6177L81.6102 33.2058L74.6011 42.7141Z" fill="#E7E5E5"/>
<path d="M74.6988 56.423L74.5685 56.5451V56.5532L74.7232 56.4637L81.6102 65.8173L88.4321 56.5532L93.6177 49.5116H69.6027L74.6988 56.423Z" fill="#BBBCBE"/>
<path d="M81.6102 34.834V64.1811L70.7994 49.5116L81.6102 34.834Z" fill="#F37F5F"/>
<path d="M81.6102 34.834V64.1811L92.4128 49.5116L81.6102 34.834Z" fill="#E05D64"/>
<path d="M70.7994 49.5116H81.6102L76.2048 51.0013L70.7994 49.5116Z" fill="#E05D64"/>
<path d="M92.4128 49.5116H81.6102L87.0156 51.0013L92.4128 49.5116Z" fill="#F37F5F"/>
<path d="M75.2767 43.3654L81.5125 49.6011L77.5317 47.3462L75.2767 43.3654Z" fill="#E05D64"/>
<path d="M87.7483 55.845L81.5125 49.6011L83.7675 53.5819L87.7483 55.845Z" fill="#F37F5F"/>
<path d="M87.7483 43.3654L81.5125 49.6011L85.4933 47.3462L87.7483 43.3654Z" fill="#E05D64"/>
<path d="M75.2767 55.845L81.5125 49.6011L79.2494 53.5819L75.2767 55.845Z" fill="#F37F5F"/>
<path d="M75.2767 55.845L81.5125 49.6011L79.2494 53.5819L75.2767 55.845Z" fill="#E05D64"/>
<path d="M87.7483 43.3654L81.5125 49.6011L85.4933 47.3462L87.7483 43.3654Z" fill="#F37F5F"/>
<path d="M81.6102 34.834L79.8274 42.1687L81.6102 49.5116V34.834Z" fill="#E05D64"/>
<path d="M81.6102 34.834L83.393 42.1687L81.6102 49.5116V34.834Z" fill="#F37F5F"/>
<path d="M81.6102 64.1811L79.8274 56.8463L81.6102 49.5116V64.1811Z" fill="#E05D64"/>
<path d="M81.6102 64.1811L83.393 56.8463L81.6102 49.5116V64.1811Z" fill="#F37F5F"/>
<path d="M146.776 100C146.459 99.8942 115.028 89.466 81.6102 89.466C48.1927 89.466 16.7616 99.8942 16.4441 100L15.8906 98.3393C16.2081 98.2335 47.9078 87.7157 81.6102 87.7157C115.313 87.7157 147.012 98.2335 147.33 98.3393L146.776 100Z" fill="#FFD081"/>
<path d="M53.24 86.7226C53.0934 86.7226 52.9388 86.6981 52.7922 86.6412C39.7427 81.6021 32.2207 73.494 32.1393 64.3927C32.0824 57.4487 36.4946 51.156 43.3897 48.3556C50.5047 45.4656 55.3565 49.479 57.522 54.1924C60.07 59.7444 59.6467 67.592 54.9739 69.9935C48.4777 73.3312 42.9502 68.0804 40.9394 64.8323C40.5812 64.2462 40.7603 63.4809 41.3383 63.1228C41.9244 62.7646 42.6897 62.9437 43.0478 63.5216C43.2432 63.8391 47.7613 70.8971 53.8342 67.7792C56.8219 66.2406 57.5138 60.1433 55.2588 55.2263C54.2087 52.9388 51.042 47.916 44.3178 50.6512C38.3751 53.069 34.5653 58.45 34.6141 64.3683C34.6792 72.3868 41.6314 79.6646 53.6714 84.3129C54.3145 84.5571 54.632 85.2817 54.3797 85.9166C54.1924 86.4132 53.7203 86.7144 53.2237 86.7144L53.24 86.7226Z" fill="#FFD081"/>
<path d="M57.8476 86.1039C57.3999 86.1039 56.9684 85.8597 56.7486 85.4445C56.4311 84.8339 56.6591 84.085 57.2696 83.7675C59.3862 82.6522 64.987 79.0052 65.5161 75.5943C65.6789 74.5197 65.3045 73.5265 64.3602 72.5659C61.7796 69.9528 59.3048 69.2852 57.7255 70.7831C56.4311 72.0124 56.0648 74.5604 57.5057 76.1234C57.9697 76.6281 57.9372 77.4178 57.4324 77.8818C56.9277 78.3458 56.1381 78.3133 55.6741 77.8085C53.1749 75.0977 53.8261 71.0599 56.0078 68.984C58.0756 67.0059 61.8203 66.4523 66.1267 70.8157C67.6164 72.3299 68.2514 74.1127 67.9665 75.9687C67.1524 81.2195 59.3129 85.4933 58.4256 85.9573C58.2384 86.055 58.043 86.1039 57.8476 86.1039Z" fill="#FFD081"/>
<path d="M33.3931 90.4591C33.0837 90.4591 32.7744 90.3452 32.5383 90.1172C32.0417 89.6451 32.0173 88.8554 32.4894 88.3588C34.0525 86.7063 37.9681 81.7649 37.2843 78.7447C37.0645 77.776 36.3318 77.0596 35.0456 76.563C33.0023 75.7815 31.3416 75.8873 30.3892 76.8805C29.6728 77.6213 29.4448 78.7936 29.8437 79.7379C30.0961 80.3403 30.6904 81.0567 32.0905 81.0648C32.7744 81.0648 33.3279 81.6265 33.3279 82.3103C33.3279 82.9941 32.7662 83.5477 32.0824 83.5477C29.9903 83.5396 28.3051 82.4731 27.5562 80.6985C26.7747 78.8343 27.198 76.6037 28.6145 75.1465C30.2915 73.4207 32.9616 73.0951 35.9492 74.2429C38.5542 75.2442 39.4416 76.9456 39.7184 78.1912C40.8092 83.0349 34.9723 89.352 34.3048 90.0602C34.0606 90.3207 33.735 90.4429 33.4012 90.4429L33.3931 90.4591Z" fill="#FFD081"/>
<path d="M20.8971 93.6828C20.5308 93.6828 20.1644 93.52 19.9202 93.2107C19.5051 92.6815 9.70369 80.1775 11.6005 70.0993C12.2761 66.4767 14.3683 63.6275 17.7955 61.6167C21.0599 59.7037 24.2185 59.1745 27.1899 60.0374C32.1394 61.4783 34.663 66.2813 34.7688 66.4848C35.0863 67.0954 34.8421 67.8443 34.2315 68.1618C33.621 68.4793 32.872 68.2351 32.5546 67.6245C32.5383 67.5838 30.3973 63.5542 26.4735 62.4227C24.1859 61.7633 21.6868 62.2191 19.0492 63.7659C16.2244 65.4184 14.5881 67.6408 14.0427 70.5633C12.3575 79.5425 21.7763 91.55 21.874 91.6721C22.2973 92.2094 22.2078 92.9909 21.6705 93.4142C21.4425 93.5933 21.1739 93.6828 20.8971 93.6828Z" fill="#FFD081"/>
<path d="M16.1674 95.1237C15.8418 95.1237 15.5243 94.9935 15.2882 94.7574C14.6125 94.0817 -1.25364 78.0609 0.08143 63.9938C0.553589 58.9792 3.15046 54.8437 7.79879 51.6933C13.2856 47.973 18.6991 46.6135 23.8766 47.6473C29.8356 48.844 33.8164 52.8818 35.5015 54.9414C38.5705 51.6851 44.0085 44.9121 43.7643 40.3614C43.691 39.0752 43.1781 38.0739 42.1687 37.2843C39.7672 35.3956 37.211 34.8991 34.9642 35.9085C33.0186 36.7795 31.6347 38.7007 31.5044 40.6952C31.3823 42.5676 32.3755 44.2527 34.3048 45.4249C34.8909 45.7831 35.0782 46.5484 34.72 47.1345C34.3618 47.7206 33.5966 47.9078 33.0104 47.5497C30.2996 45.8971 28.8506 43.3409 29.0297 40.5405C29.2169 37.6018 31.1544 34.8909 33.9548 33.6372C37.0319 32.2615 40.5894 32.8802 43.7073 35.3305C45.2784 36.5679 46.1332 38.2204 46.2472 40.2312C46.6379 47.4927 36.6737 57.3185 36.2504 57.7336C35.9818 57.9941 35.6155 58.1244 35.2491 58.0837C34.8828 58.043 34.549 57.8395 34.3455 57.5301C34.3048 57.4731 30.2752 51.4572 23.3638 50.0814C18.8701 49.1941 14.0997 50.4233 9.19084 53.7528C5.19377 56.4637 2.96323 59.9886 2.55619 64.2299C1.4572 75.7815 13.8066 89.5799 16.5256 92.4617C21.5402 90.8743 50.7327 82.0661 81.6103 82.0661C112.488 82.0661 141.688 90.8743 146.695 92.4617C149.406 89.5881 161.755 75.8222 160.664 64.238C160.265 59.9967 158.035 56.4637 154.03 53.7528C149.121 50.4233 144.35 49.1859 139.857 50.0814C132.945 51.4572 128.916 57.465 128.875 57.5301C128.671 57.8395 128.338 58.043 127.971 58.0837C127.597 58.1244 127.231 57.9941 126.97 57.7336C126.547 57.3185 116.583 47.4927 116.973 40.2312C117.079 38.2204 117.934 36.5679 119.513 35.3305C122.631 32.8802 126.189 32.2615 129.266 33.6372C132.074 34.8909 134.004 37.6018 134.191 40.5405C134.37 43.3409 132.921 45.8971 130.21 47.5497C129.624 47.9078 128.859 47.7206 128.501 47.1345C128.142 46.5484 128.33 45.7831 128.916 45.4249C130.837 44.2527 131.838 42.5676 131.716 40.6952C131.586 38.7007 130.202 36.7714 128.256 35.9085C126.018 34.9072 123.461 35.3956 121.052 37.2843C120.051 38.0739 119.53 39.0834 119.456 40.3614C119.212 44.9121 124.65 51.6851 127.719 54.9414C129.412 52.8818 133.393 48.844 139.352 47.6473C144.53 46.6135 149.943 47.973 155.43 51.6933C160.07 54.8437 162.667 58.9792 163.139 63.9938C164.474 78.0609 148.608 94.0817 147.932 94.7574C147.607 95.083 147.102 95.2051 146.654 95.0586C145.368 94.6272 114.792 84.549 81.6103 84.549C48.4289 84.549 16.8756 94.9528 16.5663 95.0586C16.436 95.0993 16.3058 95.1237 16.1674 95.1237Z" fill="#FFD081"/>
<path d="M109.972 86.7226C109.476 86.7226 109.004 86.4214 108.816 85.9248C108.572 85.2817 108.89 84.5653 109.525 84.3211C121.573 79.6646 128.517 72.395 128.582 64.3764C128.631 58.4582 124.821 53.0772 118.878 50.6594C112.154 47.9241 108.987 52.9469 107.937 55.2345C105.682 60.1514 106.374 66.2569 109.362 67.7874C115.443 70.9134 119.961 63.831 120.148 63.5298C120.514 62.9437 121.28 62.7727 121.858 63.1309C122.436 63.4891 122.615 64.2543 122.257 64.8405C120.246 68.0804 114.726 73.3393 108.222 70.0016C103.549 67.6001 103.126 59.7444 105.674 54.2006C107.839 49.479 112.691 45.4738 119.806 48.3637C126.701 51.1641 131.122 57.4569 131.057 64.4009C130.983 73.494 123.453 81.6021 110.404 86.6493C110.257 86.7063 110.103 86.7307 109.956 86.7307L109.972 86.7226Z" fill="#FFD081"/>
<path d="M105.373 86.1039C105.177 86.1039 104.982 86.055 104.795 85.9573C103.908 85.4852 96.0681 81.2195 95.254 75.9687C94.9691 74.1127 95.604 72.3299 97.0938 70.8157C101.392 66.4523 105.137 67.0059 107.213 68.984C109.386 71.0599 110.046 75.0977 107.546 77.8085C107.082 78.3133 106.293 78.3458 105.788 77.8818C105.283 77.4178 105.251 76.6281 105.715 76.1234C107.156 74.5604 106.789 72.0124 105.495 70.7831C103.916 69.2852 101.441 69.9446 98.8603 72.5659C97.916 73.5265 97.5415 74.5116 97.7043 75.5943C98.2335 79.0134 103.834 82.6522 105.951 83.7675C106.561 84.085 106.789 84.8421 106.472 85.4445C106.252 85.8678 105.821 86.1039 105.373 86.1039Z" fill="#FFD081"/>
<path d="M129.827 90.4591C129.502 90.4591 129.168 90.3289 128.924 90.0765C128.256 89.3683 122.419 83.0511 123.51 78.2074C123.795 76.9619 124.674 75.2605 127.279 74.2592C130.267 73.1114 132.945 73.437 134.614 75.1628C136.031 76.62 136.454 78.8505 135.672 80.7147C134.932 82.4894 133.238 83.5477 131.146 83.564C130.462 83.564 129.909 83.0104 129.901 82.3266C129.901 81.6428 130.454 81.0811 131.138 81.0811C132.538 81.0811 133.133 80.3566 133.385 79.7541C133.784 78.8098 133.556 77.6376 132.839 76.8968C131.879 75.9036 130.226 75.7896 128.175 76.5793C126.889 77.0759 126.156 77.7841 125.936 78.761C125.26 81.773 129.274 86.8365 130.731 88.367C131.203 88.8636 131.187 89.6532 130.682 90.1254C130.438 90.3533 130.137 90.4673 129.827 90.4673V90.4591Z" fill="#FFD081"/>
<path d="M142.323 93.6828C142.055 93.6828 141.778 93.5933 141.55 93.4142C141.013 92.9909 140.923 92.2094 141.346 91.6721C141.444 91.55 150.855 79.5262 149.17 70.5552C148.624 67.6327 146.98 65.4103 144.163 63.7659C141.517 62.2191 139.026 61.7714 136.739 62.4227C132.823 63.5542 130.682 67.5838 130.658 67.6245C130.34 68.2351 129.591 68.4712 128.981 68.1537C128.37 67.8362 128.134 67.0954 128.444 66.4848C128.549 66.2813 131.073 61.4783 136.022 60.0374C138.994 59.1745 142.152 59.7037 145.417 61.6167C148.852 63.6275 150.936 66.4767 151.612 70.0993C153.501 80.1775 143.707 92.6815 143.292 93.2107C143.048 93.52 142.682 93.6828 142.315 93.6828H142.323Z" fill="#FFD081"/>
<path d="M89.238 7.7255C89.238 3.45979 85.7783 0 81.5125 0C77.2468 0 73.787 3.45979 73.787 7.7255C73.787 11.9912 77.2468 15.451 81.5125 15.451C85.7783 15.451 89.238 11.9912 89.238 7.7255Z" fill="#FFD081"/>
</g>
<defs>
<clipPath id="clip0_5869_3427">
<rect width="163.22" height="100" fill="white"/>
</clipPath>
</defs>
</svg>
