<svg width="268" height="311" viewBox="0 0 268 311" fill="none" xmlns="http://www.w3.org/2000/svg">
<g clip-path="url(#clip0_5830_10169)">
<path d="M38.5117 47.0124C38.2023 46.072 37.7321 42.0134 37.4228 41.0853C38.425 39.749 38.7344 39.9841 39.5016 39.4272C40.9864 39.4644 42.1 40.8007 43.2137 41.5679C43.7581 41.9391 44.1665 42.2485 44.7728 41.8154C45.874 44.7603 52.2342 46.6906 52.8652 49.8212C54.0779 52.8157 54.016 49.8955 53.8551 53.0631C52.5435 52.0114 50.1801 60.0048 49.1655 58.5571C48.9799 58.2972 44.8718 56.2679 44.5995 56.2432C42.1619 55.9833 41.9887 54.1149 41.5927 52.2712C41.2834 50.8606 40.6647 49.5242 40.1697 48.1508C39.8975 47.3836 39.3654 46.9381 38.4993 47.0247L38.5117 47.0124Z" fill="#FDFDFD"/>
<path d="M53.2488 49.4623C52.9395 48.5219 52.4693 44.4633 52.1599 43.5353C53.1622 42.1989 53.4715 42.434 54.2387 41.8772C55.7236 41.9143 56.8372 43.2507 57.9508 44.0179C58.4953 44.3891 57.3198 44.0797 57.9261 43.6466C60.4256 45.0201 62.6405 46.2946 63.7046 48.2249C65.2637 51.0585 67.0456 51.7638 66.8971 54.9315C65.5855 53.8798 64.9296 62.4548 63.915 60.9947C63.7294 60.7348 59.6213 58.7055 59.3491 58.6808C56.9114 58.4209 56.7382 56.5525 56.3422 54.7088C56.0329 53.2982 55.4142 51.9618 54.9193 50.5883C54.647 49.8212 54.115 49.3757 53.2488 49.4623Z" fill="#FDFDFD"/>
<path d="M32.4856 223.957C32.4361 217.387 32.3866 210.829 32.3495 204.258C32.0649 201.177 32.3 198.084 32.2258 194.99C32.201 194.26 32.3495 193.505 32.0773 192.788C32.0773 190.536 32.0773 188.296 32.0773 186.044C31.7927 184.349 32.3372 182.752 32.6589 181.119C33.6116 176.306 33.7478 171.369 34.651 166.53C35.4801 162.101 37.0144 160.665 41.5309 160.492C44.0799 160.393 46.6289 160.257 49.116 159.675C52.989 158.76 55.4761 156.421 56.2928 152.387C57.0847 148.49 57.3322 144.53 57.6786 140.583C58.2231 134.185 58.8418 127.801 58.8541 122.084C58.4829 125.784 58.9036 130.263 58.0127 134.643C54.9935 134.198 52.6796 135.732 50.5018 137.452C45.1687 141.647 39.9841 146.052 34.2056 149.603C31.1245 151.496 27.796 152.994 24.851 155.122C24.1333 155.629 23.4528 156.038 23.0321 156.891C22.4629 158.017 22.2154 157.25 22.0422 156.594C23.329 148.23 24.6283 139.877 25.8904 131.5C26.0389 130.535 26.2493 129.545 25.6924 128.593C25.5068 128.271 25.3831 127.801 25.8533 127.541C26.8432 126.972 26.6081 125.932 26.8184 125.078C28.0435 124.076 29.5283 124.348 30.8523 124.509C34.7129 124.979 38.5859 124.819 42.4465 124.831C43.721 124.831 44.946 125.227 46.2081 125.115C48.6087 124.621 48.8438 124.348 48.5592 121.911C48.3612 120.29 48.4354 118.83 50.0316 117.902C52.3084 116.268 55.0678 115.761 57.5796 114.684C58.3716 114.35 59.4357 114.115 59.9925 115.291C59.8812 115.934 58.5943 115.996 59.0769 116.825C59.4481 117.456 60.2895 117.196 60.9453 117.271C62.1084 117.394 63.3706 116.936 64.4223 117.815C64.3852 118.644 63.6057 118.582 63.1355 118.867C62.4178 119.3 62.4796 119.968 62.5415 120.636C62.6158 121.379 63.1231 121.626 63.7913 121.676C66.4764 121.898 69.1244 121.428 71.7847 121.156C72.6756 121.069 72.7128 120.364 72.7128 119.646C72.7251 118.298 72.2797 117.011 72.2549 115.674C71.8837 114.301 71.2774 112.952 71.6857 111.467C72.2673 109.735 71.5372 108.015 71.6486 106.258C72.0817 99.6131 72.6633 92.9932 73.0468 86.3485C73.0716 84.4429 72.8984 82.5373 73.1953 80.6442C73.5047 79.8522 73.8016 79.0479 74.9277 79.4687C75.1256 79.58 75.2741 79.7409 75.3607 79.9512C74.9277 84.1954 74.0368 88.4149 75.4845 92.6591C76.0413 94.3048 76.957 95.4061 78.3181 96.5692C81.0527 98.9078 83.9729 101.432 83.2181 105.763C83.0077 106.951 83.5522 107.755 84.6411 108.102C88.3532 109.265 92.1148 110.23 95.7032 111.752C96.5323 112.111 97.2623 111.727 97.8068 110.997C98.2398 110.428 98.5121 109.661 99.4153 109.636C100.121 110.354 99.6133 111.034 99.2792 111.653C97.5222 114.895 95.7156 118.112 93.4017 121.02C91.2734 123.68 89.0214 123.866 86.559 121.577C85.73 120.797 84.9504 119.968 84.1337 119.164C83.3666 118.409 82.686 117.58 81.9807 116.726C82.9459 120.475 82.7355 124.46 84.4802 128.073C84.9628 129.063 84.604 130.424 84.2327 131.575C83.1686 131.315 82.2901 131.389 81.9436 132.676C81.8446 133.059 81.4734 133.369 81.0898 133.493C78.9244 134.173 78.7759 135.757 78.9863 137.675C79.6916 144.072 81.6466 149.999 85.3464 155.307C86.7817 157.374 88.5264 158.772 91.2239 158.438C91.5704 158.389 91.8921 158.5 92.0901 158.834C92.4613 160.344 92.9191 161.841 92.5603 163.425C91.9333 163.639 91.4178 163.268 91.0136 162.311C88.6502 168.25 87.4004 174.598 85.7547 180.835C84.505 185.586 83.7254 190.424 82.5623 195.188C81.9188 197.811 81.7085 200.509 81.9065 203.194C82.055 205.372 81.2383 207.426 81.263 209.591C81.263 210.123 80.9661 210.618 80.3845 210.841C79.6668 210.593 79.6297 209.962 79.5555 209.368C77.6375 192.441 75.1133 175.6 73.0345 158.698C72.8489 157.164 72.688 155.617 72.3663 154.107C71.8837 151.843 69.6936 150.482 67.491 151.039C66.3279 151.335 66.4764 152.375 66.3526 153.167C65.5855 158.636 64.8059 164.093 64.0635 169.562C63.9769 170.23 63.9398 170.898 63.816 171.567C62.9375 175.093 62.6653 178.719 62.1456 182.307C58.52 207.413 54.6842 232.483 50.9473 257.577C49.3635 268.218 47.7177 278.86 46.1834 289.526C45.3049 295.663 47.3094 300.724 51.4546 305.104C52.0114 305.698 52.7167 306.107 53.3726 306.589C53.5334 306.713 53.7066 306.812 53.8551 306.948C54.6347 307.604 55.5256 308.346 55.1544 309.448C54.7832 310.549 53.6077 310.351 52.7044 310.338C48.8933 310.277 45.0698 310.623 41.2586 310.004C39.0809 309.658 37.0887 308.544 34.8119 308.557C34.2427 308.557 33.6116 308.173 34.0571 307.344C34.0571 306.255 34.0571 305.166 34.0571 304.077C34.1313 300.118 34.9728 295.972 34.0942 292.236C32.5599 285.653 33.5127 279.107 33.1662 272.574C32.8074 265.929 32.9187 259.26 32.8568 252.602C32.7702 243.792 32.7084 234.982 32.6341 226.172C32.6341 225.442 32.5228 224.712 32.4609 223.97L32.4856 223.957Z" fill="#451938"/>
<path d="M184.015 37.0268C183.619 38.3013 183.087 39.551 182.864 40.8503C182.456 43.325 183.359 45.3543 185.438 46.7649C190.758 50.4028 192.107 55.3523 190.449 61.3907C189.769 63.8531 189.026 66.2784 187.838 68.5428C187.108 68.914 186.688 68.3943 186.329 67.9364C182.295 62.7766 176.986 60.0544 170.49 59.5965C170.23 59.5718 169.971 59.4728 169.711 59.3985C169.414 59.3243 169.117 59.2253 168.845 59.1016C164.613 56.07 160.195 53.2612 157.287 48.7447C155.864 46.5422 155.172 44.1417 155.097 41.5432C155.308 39.2788 154.936 36.903 156.359 34.8614C157.362 34.4407 158.265 33.921 158.599 32.7826C159.366 30.8894 159.948 28.9838 159.069 26.9669C158.673 26.076 158.141 25.2593 157.028 25.3088C155.902 25.3583 155.481 26.2245 155.184 27.1649C155.097 27.4247 155.221 27.103 155.122 27.3629C154.837 28.1177 155.147 29.4045 153.996 29.4416C152.808 29.4664 152.684 28.2166 152.536 27.3381C151.979 24.2447 150.086 22.2401 147.487 20.7058C146.584 20.1737 145.508 19.8272 144.963 18.8002C144.839 17.7237 145.668 17.6494 146.374 17.501C147.76 17.2287 149.145 16.9318 150.457 16.4616C152.808 15.6078 155.419 15.1252 156.768 12.5638C157.114 11.8956 157.919 11.6729 158.488 11.2151C161.321 12.304 163.375 14.4323 165.442 16.5234C166.432 17.5257 167.384 18.5651 168.387 19.555C169.847 20.9904 171.505 21.9679 173.633 22.203C178.162 22.6979 181.156 25.3954 183.161 29.3303C182.617 30.1346 183.606 30.6295 183.557 31.3472C184.139 32.6959 184.126 34.1189 184.027 35.5419C183.928 36.0369 183.928 36.5442 184.027 37.0391L184.015 37.0268Z" fill="#3D1737"/>
<path d="M169.797 58.9653C171.381 59.2251 172.977 59.4602 174.561 59.7324C178.706 60.4501 182.023 62.566 184.856 65.61C185.809 66.6246 186.527 67.8991 187.851 68.5426C187.987 69.4335 188.742 69.8542 189.298 70.411C195.993 77.2042 203.12 83.5643 209.542 90.6173C210.668 91.8547 211.769 93.1416 212.685 94.5275C214.467 97.2126 214.38 99.18 212.363 101.717C209.257 105.627 205.409 108.819 201.709 112.111C197.354 115.984 192.837 119.696 188.395 123.47C187.517 124.039 186.613 124.608 185.957 125.462C185.586 126.378 184.906 126.91 183.928 127.058C182.839 127.751 181.75 128.432 180.674 129.125C178.645 130.201 176.467 129.657 174.376 129.558C172.755 129.483 171.196 129.347 169.636 129.929C168.981 130.176 168.139 130.535 167.657 129.681C167.236 128.939 167.756 128.283 168.152 127.652C168.746 126.712 169.859 126.402 170.762 125.647C168.535 124.15 166.382 125.462 164.266 125.412C163.041 124.46 163.054 123.754 164.427 122.975C166.221 121.948 168.127 121.156 170.181 120.747C170.428 120.648 169.995 120.488 170.169 120.698C170.206 120.747 170.169 120.797 170.02 120.834C168.572 121.131 167.149 121.515 165.85 122.257C165.058 122.715 164.291 122.802 163.709 121.972C163.128 121.143 163.536 120.426 164.167 119.832C164.959 119.089 165.875 118.471 166.914 118.186C168.461 117.753 169.723 116.961 170.738 115.736C170.911 115.637 171.109 115.588 171.307 115.575C172.507 115.773 173.052 116.751 173.646 117.629C174.747 119.275 176.058 120.673 177.803 121.638C179.115 122.368 179.993 122.257 181.033 120.958C186.65 113.991 191.352 106.394 196.488 99.0934C197.106 98.2149 197.675 97.2992 198.48 96.5691C199.989 95.8638 201.437 94.9977 202.464 94.9977C199.42 94.8616 196.314 93.3643 193.654 90.8401C191.068 88.3777 188.915 85.5317 186.601 82.8343C185.945 82.0671 185.24 81.3494 184.609 80.5575C183.73 79.4562 182.678 78.9613 181.28 79.1098C180.748 79.1716 180.191 79.0479 179.672 79.1345C177.283 79.4933 175.588 78.5653 174.165 76.6474C172.742 74.7418 172.631 74.8284 171.146 76.5855C170.849 76.9443 170.589 77.3527 170.107 77.5135C169.909 77.5012 169.649 77.4888 169.55 77.3403C166.605 73.2941 163.499 69.2973 164.798 63.7663C165.739 61.4029 167.533 59.9304 169.81 58.9529L169.797 58.9653Z" fill="#EF7A62"/>
<path d="M46.567 125.487C45.6142 126.44 44.6738 125.413 43.7086 125.462C38.0662 125.722 32.4361 125.178 26.7937 125.079C22.6732 124.683 18.5528 124.287 14.4323 123.878C10.7573 123.507 7.09465 123.173 3.46913 122.381C1.93479 122.047 0.932511 121.329 0.536551 119.82C0.33857 111.208 0.115842 102.595 0.969632 93.9956C4.01358 94.9855 7.15652 95.0721 10.3242 95.0226C13.8507 94.9731 17.303 95.431 20.5326 96.9901C20.8419 97.188 21.0151 97.5098 20.9409 97.8438C20.347 100.306 20.0005 102.855 18.7755 104.996C19.0353 104.823 19.2704 104.266 19.8767 104.39C22.6732 108.015 26.1379 111.01 29.4417 114.128C31.8298 116.367 34.0447 118.842 36.8041 120.698C39.1056 122.245 41.271 123.866 44.3644 123.198C45.9112 122.864 46.3319 124.237 46.5793 125.499L46.567 125.487Z" fill="#6E2445"/>
<path d="M99.5267 109.735C99.403 109.797 99.2545 109.834 99.1802 109.921C96.7302 112.903 96.7055 112.952 93.0676 111.331C90.5433 110.205 87.8211 109.76 85.2226 108.918C82.4385 108.015 82.3395 107.78 82.8592 104.884C83.082 103.647 82.9706 102.558 81.9312 101.581C81.2135 100.912 80.7433 99.9596 80.2607 99.0935C79.7534 98.1902 79.1471 97.2003 78.2191 96.9652C76.1403 96.4331 75.6948 94.8245 75.0514 93.1788C73.4675 89.1944 74.5564 85.1111 74.4574 81.0773C74.4451 80.4462 75.0637 80.2111 75.2246 79.7038C75.2741 79.3326 75.534 79.0975 75.8557 79.0232C78.1696 78.5406 80.4835 77.8972 82.8963 78.2189C84.3317 78.8624 84.2575 80.2853 84.5049 81.4732C85.0494 84.1583 85.433 86.8929 85.7176 89.6152C85.9403 91.8301 86.4105 93.5129 89.0461 93.5253C89.7019 93.3768 89.6277 92.5972 90.1103 92.3003C91.1249 91.5578 92.0406 92.1023 92.9438 92.5354C95.431 93.7232 97.7201 95.2947 100.319 96.2722C101.333 96.6558 102.138 96.7796 103.127 96.099C104.847 94.9111 104.909 94.9854 105.825 96.9775C105.961 97.4477 105.912 97.918 105.701 98.3387C104.006 101.803 102.583 105.416 100.702 108.794C100.455 109.24 100.232 109.784 99.5391 109.71L99.5267 109.735Z" fill="#5D1E3F"/>
<path d="M158.488 11.1779C156.632 14.692 153.476 16.2635 149.801 17.241C148.242 17.6493 146.411 17.4266 145.149 18.7753C144.048 19.4683 143.218 18.6021 142.402 18.169C141.152 17.5132 140.175 17.6988 139.073 18.5279C136.339 20.5943 135.448 23.5516 134.767 26.5956C135.2 27.0163 135.633 26.8059 136.005 26.9049C136.487 27.0286 136.945 27.2019 137.044 27.7216C137.168 28.3898 136.561 28.4269 136.141 28.5754C135.51 28.7857 134.978 29.0579 135.25 29.8499C135.497 30.5675 136.029 30.6789 136.71 30.4191C137.168 30.2458 137.687 29.7014 138.071 30.4686C138.38 31.0749 138.269 31.8297 137.749 32.1266C135.077 33.661 136.401 35.6655 137.118 37.4969C138.009 39.7489 139.457 41.7163 140.496 43.9065C141.127 45.2305 142.204 45.4037 143.54 45.1438C144.703 44.9211 145.743 44.0426 147.03 44.5004C148.205 46.3936 148.106 48.6332 148.737 50.6873C149.183 54.5603 147.908 56.5277 143.961 58.0868C142.043 58.3838 140.137 58.7179 138.244 59.1633C137.477 59.3489 136.673 59.5717 135.893 59.1386C136.545 57.8847 136.644 56.8206 136.19 55.9461C137.242 55.278 135.782 54.9067 135.967 54.4489C135.93 54.9067 136.846 55.3398 136.227 55.9833C134.099 54.1272 134.507 51.6772 134.792 49.3509C135.027 47.4949 135.646 45.7007 136.017 43.8693C136.66 40.7017 135.448 37.9794 132.676 36.3213C131.637 35.7027 130.56 35.1706 129.533 34.5272C125.536 32.0029 124.237 28.1423 125.982 23.7249C127.516 19.8271 130.078 16.6471 133.258 13.9743C135.237 12.3162 137.613 11.9574 140.1 12.5142C141.041 12.7246 141.919 12.8854 142.81 12.341C147.809 9.25992 153.019 8.71547 158.438 11.1655L158.488 11.1779Z" fill="#2E1133"/>
<path d="M118.075 63.7046C120.859 65.0657 122.035 67.5405 122.022 70.3988C122.022 75.9051 123.111 81.263 123.693 86.6827C123.68 89.9246 124.274 93.0428 125.833 95.9135C126.761 97.6211 127.776 99.2792 128.828 100.925C130.968 104.291 131.637 107.829 130.449 111.678C129.855 113.521 128.457 114.722 126.935 115.712C125.116 116.887 122.963 116.442 121.305 114.61C119.622 112.742 118.322 110.614 117.518 108.225C116.318 104.699 115.588 101.061 115.501 97.3489C115.39 92.3746 115.439 87.388 115.489 82.4014C115.489 81.9559 115.489 81.5104 115.489 81.065C115.464 80.5948 115.452 80.1246 115.489 79.6544C115.699 77.3157 115.563 75.1874 112.754 74.4079C112.507 74.346 112.358 74.0614 112.222 73.8263C112.296 72.8612 112.833 72.3002 113.831 72.1435C113.249 72.1188 112.68 72.2425 112.098 72.4652C111.059 72.8488 109.97 72.8117 108.931 72.4157C108.275 72.1559 107.768 71.6857 107.792 70.9061C107.817 70.1389 108.461 69.9286 109.054 69.8172C111.183 69.3841 113.311 69.3841 115.415 69.8543C113.088 69.3347 110.762 69.3099 108.461 69.9657C107.211 70.3246 106.209 70.1142 105.466 69.0006C104.588 66.7114 104.699 66.5011 107.013 66.0927C109.488 65.6596 111.9 66.4763 114.363 66.3773C114.982 66.3526 115.538 66.6619 115.588 65.4617C115.637 64.3233 117.06 64.0882 118.05 63.7046H118.075Z" fill="#EF7A62"/>
<path d="M73.6532 10.3365C73.2819 11.512 72.5024 12.205 71.2774 12.3782C70.4236 12.5267 69.7059 12.106 68.9511 11.8338C67.8127 11.413 66.662 10.9552 65.4246 11.079C63.5809 11.2646 62.5044 11.4749 62.294 13.6774C62.0837 15.7934 60.4503 17.0802 58.6438 17.9464C56.8743 18.7878 55.5751 19.8396 55.4885 21.9555C55.4637 22.5866 55.1915 23.1929 54.4738 23.2919C53.8922 23.3661 53.4963 22.9083 53.1622 22.4752C52.6425 21.7699 52.3331 20.9285 51.7763 20.2479C50.6008 18.8249 49.3511 18.9363 48.423 20.5449C47.6682 21.8565 48.0271 23.1186 48.522 24.4179C48.8437 25.2593 49.7223 25.9399 49.3634 27.004C48.6829 27.5361 47.792 27.3381 47.0372 27.6351C45.6884 27.6722 44.3892 28.8601 42.991 27.833C41.8649 23.9106 40.7266 20.0004 39.6129 16.078C38.6106 12.5391 38.7591 9.28476 42.0505 6.89662C42.5208 6.56253 42.4589 6.12945 42.5331 5.67162C42.7559 4.37237 43.2879 3.24636 44.4758 2.54106C48.423 2.10797 52.197 3.07313 55.9587 4.05066C60.4627 5.22616 64.843 5.04056 69.112 3.11025C69.8668 2.76378 70.8567 1.87287 71.463 2.66479C72.1188 3.51858 71.5125 4.66934 70.8319 6.04283C71.6362 4.85495 71.5372 3.82793 71.8713 2.97414C72.0322 2.55343 71.9951 1.92237 72.5519 1.87287C73.2324 1.82338 73.3438 2.51631 73.5047 2.98651C74.1605 4.85495 74.1605 6.79763 73.8264 8.72794C73.7398 9.24764 73.5913 9.76734 73.616 10.2994L73.6532 10.3365Z" fill="#2C1131"/>
<path d="M49.4748 26.8927C48.1756 25.2222 47.1114 23.4527 47.5569 21.2007C47.8291 19.8272 48.6334 18.825 50.0316 18.5899C51.3927 18.3671 51.9991 19.456 52.6549 20.4212C53.2736 21.3245 53.1869 22.7103 54.845 23.2795C54.4986 19.6293 56.8372 18.1073 59.6089 16.7338C61.1433 15.979 62.0961 14.4694 61.8857 12.5515C61.7743 11.611 62.2817 11.3017 63.0736 11.0047C66.0928 9.8911 68.7036 10.9552 71.265 12.3906C71.3764 14.0611 71.4754 15.7315 71.6239 17.402C71.7476 18.8497 71.5125 20.1242 70.5721 21.3492C69.5698 22.6608 69.7925 24.2694 70.238 25.7914C70.4978 26.6947 70.8443 27.5608 71.1042 28.4641C71.2279 28.9096 71.3764 29.5035 70.8691 29.7386C67.6148 31.2853 67.7385 34.4901 67.2312 37.2866C66.6372 40.578 65.7587 41.2957 62.5168 40.3553C61.4897 40.0583 60.4998 39.65 59.4852 39.3035C56.9857 38.326 54.7337 36.9278 52.7167 35.1831C51.4917 34.1189 50.972 32.7207 50.8978 31.1121C50.8483 30.1222 51.0958 29.1076 50.6874 28.1548C50.5637 28.031 50.4523 27.9197 50.3162 27.8083C49.9945 27.5361 49.6357 27.3134 49.4748 26.905V26.8927Z" fill="#EE7860"/>
<path d="M2.56586 77.4145C2.99894 72.6259 3.85273 67.9115 5.05298 63.259C5.78304 62.6526 6.6492 62.6155 7.52774 62.7393C11.7224 63.3208 15.9295 62.863 20.1242 63.061C21.7081 63.1352 22.5495 62.2319 23.428 61.2173C24.7891 61.2792 24.8634 62.4423 25.1356 63.3332C26.4225 67.5155 26.4225 71.7721 25.7172 76.0534C25.7172 77.4269 25.4821 78.7757 25.0614 80.0873C22.797 82.6363 19.654 83.7375 16.6967 85.1482C16.3379 85.3214 15.8553 85.4204 15.5707 85.0492C15.1995 84.579 15.5707 84.1459 15.8553 83.7994C16.7091 82.7724 17.6124 81.7825 18.8497 81.1143C14.8035 82.3888 10.8934 80.6565 6.90905 80.5575C6.179 80.5327 5.44894 80.409 4.70652 80.4709C2.70197 80.607 2.62773 80.5327 2.71434 78.6024C2.72672 78.2065 2.78858 77.7981 2.56586 77.4269V77.4145Z" fill="#AD3C59"/>
<path d="M2.56585 77.4147C2.5906 79.7781 3.82797 79.939 5.96864 79.9637C8.36915 79.9885 10.8686 80.2112 13.2815 80.8794C15.5088 81.4857 17.7608 80.7928 20.4088 80.2483C18.6765 81.993 16.8452 83.0572 15.4469 85.1112C18.9116 83.713 21.8442 82.0673 24.653 80.1988C25.1232 80.6195 25.0119 81.1763 24.95 81.696C24.3561 86.6332 23.1187 91.4218 21.4853 96.0991C21.3245 96.5446 21.0894 96.9529 20.6192 97.1509C20.3098 97.2499 19.9015 97.5345 19.7159 97.4231C16.2512 95.4062 12.4277 95.5175 8.629 95.5918C6.61207 95.6289 4.64464 95.2701 2.65247 95.1834C1.73681 95.1463 1.43984 94.4781 0.944885 93.9708C1.19236 88.415 1.79868 82.9087 2.55348 77.4023L2.56585 77.4147Z" fill="#8F2F4E"/>
<path d="M89.0337 93.5376C85.7052 94.0945 85.7794 94.0821 85.334 90.5308C84.9009 87.1528 84.2946 83.8119 83.7749 80.4462C83.6635 79.6914 83.4903 78.9985 82.8221 78.5283C82.2158 76.9073 81.7085 75.2616 81.1021 73.0962C79.8153 76.1772 77.0436 76.3505 74.7544 77.3775C73.8635 76.3876 73.8882 75.2121 73.9625 73.9747C74.1605 71.0298 73.7769 68.1343 73.0468 65.2883C73.7274 67.9858 74.0986 70.708 73.9501 73.4921C73.1706 74.977 71.76 73.8881 70.7948 74.2717C69.112 74.9399 69.0501 73.3313 68.2334 72.8116C67.491 70.1141 67.4415 67.3053 66.9466 64.5707C66.5258 62.2815 66.167 59.98 65.8082 57.6785C65.8082 56.4163 65.771 55.1542 66.0433 53.9045C65.239 51.9618 64.4347 50.0191 63.6428 48.0764C66.9094 53.6817 73.0468 55.3893 78.0087 58.6312C80.5701 60.3141 81.9807 62.2691 82.3148 65.3749C83.3542 75.0265 85.0989 84.5419 89.0461 93.5253L89.0337 93.5376Z" fill="#8F2F50"/>
<path d="M15.4593 52.0112C20.978 49.7839 26.4967 47.569 32.003 45.3294C32.696 45.0448 33.5621 44.9458 33.4013 43.7579C33.327 43.1764 36.8659 40.7511 37.4599 40.8377C37.8435 40.8996 37.893 41.2708 38.0167 41.5678C39.3283 44.7973 41.0854 47.7918 42.8053 50.811C44.0675 52.2958 44.6614 54.1024 45.1935 55.9337C45.1687 58.5322 44.2036 59.5221 41.1349 60.0913C39.6377 60.3635 38.4745 59.4355 37.7692 57.3814C37.8187 57.1835 37.893 57.0102 38.0167 56.8494C38.5983 56.0822 39.3778 55.2655 37.6826 54.8819C36.8659 54.6963 36.4947 54.09 36.2472 53.3476C35.7028 51.6895 34.9233 50.1304 34.4902 48.4228C34.8985 50.0314 35.5914 51.5286 36.1235 53.0877C36.4329 53.991 36.7298 54.8324 37.8187 55.1542C38.7839 55.4388 38.5611 56.0946 38.1033 56.7133C37.5712 57.1711 37.4228 57.8888 36.9773 58.3961C36.173 59.0643 35.3811 58.6807 34.5397 58.458C30.6543 57.4186 27.103 58.3342 23.7621 60.3759C22.9578 60.7842 22.6732 60.116 22.401 59.6335C20.8295 56.7751 18.7012 54.4736 15.88 52.8279C15.5831 52.6547 15.3727 52.3948 15.4346 52.0112H15.4593Z" fill="#AD3C59"/>
<path d="M105.751 96.8415C105.615 96.8663 105.392 96.9405 105.367 96.9034C104.241 94.9359 103.437 96.5817 102.558 97.1508C101.853 97.621 101.271 97.1632 100.665 96.9652C97.8439 96.0372 95.3815 94.3791 92.7583 93.018C91.9045 92.5725 91.0507 92.2508 90.0732 92.3127C92.4365 87.6973 94.7876 83.0695 97.1757 78.4541C97.4603 77.9096 97.7449 77.0806 98.6358 77.8354C101.123 79.0233 103.004 81.2134 105.676 82.092C105.949 82.1662 106.209 82.2528 106.468 82.3394C107.545 82.7478 108.708 82.5745 109.797 82.8591C111.034 83.4036 111.517 84.3935 111.121 85.6309C109.945 89.3182 108.362 92.8448 106.506 96.2476C106.345 96.5445 106.085 96.7549 105.738 96.8415H105.751Z" fill="#7E2848"/>
<path d="M43.0033 27.8454C44.3644 28.0929 45.5647 27.2515 46.9011 27.2515C48.1879 27.0288 49.4624 26.8432 50.6132 27.7093H50.5884C51.3927 28.7858 51.0463 30.0603 50.9597 31.2111C50.6874 34.8614 52.3703 37.5094 54.9564 39.8232C56.0948 40.8379 57.6539 41.4195 58.2107 43.0157C58.2354 43.3003 58.2602 43.5725 58.2726 43.8571C57.3198 44.6738 56.0577 44.8099 54.944 45.2182C52.5806 46.0967 50.4276 47.0495 51.0092 50.2048C47.3218 47.6682 43.5107 45.3048 40.3801 42.0382C39.1675 40.776 38.6725 39.6748 39.6995 37.8434C41.4195 34.7624 42.8548 31.4833 43.0157 27.8454H43.0033Z" fill="#EE7860"/>
<path d="M123.804 87.8705C125.079 88.1675 124.41 87.1034 124.472 86.7569C125.524 80.7061 126.489 74.643 127.516 68.5798C127.64 67.8622 127.986 67.194 128.221 66.501C130.3 66.4639 131.946 67.726 133.74 68.4685C134.767 68.8892 135.782 69.3594 136.809 69.8048C137.118 70.5968 136.685 71.2402 136.363 71.8836C134.21 76.1773 132.515 80.669 131.006 85.2226C130.189 87.0291 131.451 88.6377 131.513 90.3577C131.265 92.919 130.424 95.3443 129.867 97.8438C129.731 98.4377 129.496 99.1183 128.853 99.242C128.172 99.3658 127.825 98.7223 127.479 98.2274C125.487 95.369 124.089 92.2756 123.643 88.7986C123.606 88.4645 123.47 88.1428 123.804 87.8953V87.8705Z" fill="#F27D65"/>
<path d="M15.4593 52.0113C19.1591 53.8426 21.5596 56.9237 23.5146 60.4378C23.7374 60.6977 23.7745 60.9575 23.5394 61.2297C23.3414 63.2343 22.2401 63.7787 20.2851 63.7045C15.2118 63.5436 10.1262 63.8035 5.05298 63.259C5.59742 60.6853 6.43884 58.2105 7.8742 55.9956C9.64365 53.2734 12.0689 51.7019 15.4469 51.9989L15.4593 52.0113Z" fill="#C74862"/>
<path d="M51.0091 50.217C49.6852 47.3958 50.1801 47.0741 53.0261 45.5521C54.6223 44.6983 56.3299 43.8074 58.2726 43.8693C59.6337 45.8119 60.1905 48.0268 60.3885 50.3531C61.0319 53.4589 60.3885 56.4905 59.8811 59.5221C59.7698 60.1903 59.646 60.8461 59.6584 61.5143C59.4852 63.5683 58.9779 65.5481 58.4953 67.5403C58.0746 68.0352 57.7157 67.7383 57.3445 67.466C56.1814 64.4716 54.7708 61.5637 53.6571 58.5445C52.9395 56.144 52.4445 53.694 52.1723 51.2069C51.7763 50.8728 51.3927 50.5387 50.9968 50.2046L51.0091 50.217Z" fill="#E06B59"/>
<path d="M107.174 61.5887C106.988 60.6483 105.85 60.5121 105.553 59.6583C104.687 57.2331 103.548 54.9068 103.363 52.2465C103.165 49.5119 103.499 49.0045 106.196 48.9674C108.003 48.9427 109.822 49.0417 111.628 48.9427C113.447 48.8437 114.264 49.8212 114.375 51.3927C114.573 54.2015 114.685 57.0227 113.138 59.5841C112.494 60.9576 111.492 59.4604 110.7 59.8811C110.614 60.4503 111.183 60.6111 111.418 60.97C111.826 61.6258 113.15 62.195 112.061 63.0488C111.22 63.7169 109.884 64.2119 109.005 63.0364C108.485 62.3311 107.78 62.0712 107.161 61.5887H107.174Z" fill="#FCF4BA"/>
<path d="M136.722 69.7304C136.227 69.8789 135.72 70.3615 135.213 69.9532C133.134 68.2827 130.461 67.8373 128.221 66.5133C129.409 62.6032 132.292 60.4872 135.93 59.1509C138.566 58.4703 141.202 57.8269 143.936 57.666C144.122 59.3117 142.526 60.3016 142.377 61.8236C141.659 63.7787 142.439 65.8575 141.82 67.8125C141.189 68.5921 140.954 67.9857 140.756 67.4784C140.459 66.7236 140.707 65.9069 140.533 65.0779C139.692 66.2658 138.937 67.4289 138.182 68.6044C137.836 69.1365 137.576 69.8418 136.722 69.7181V69.7304Z" fill="#F88D79"/>
<path d="M105.553 82.6118C102.942 81.4734 100.603 79.939 98.6605 77.8479C98.9575 77.7117 99.2668 77.5633 99.5638 77.4272C99.836 77.1054 100.207 76.9693 100.578 76.8085C103.956 75.336 105.12 73.4304 104.922 69.743C104.897 69.3471 104.823 68.9387 105.045 68.5675C105.206 68.4067 105.392 68.3819 105.577 68.518C106.382 69.6688 107.458 69.7678 108.77 69.5451C111.542 69.0749 114.301 69.013 116.961 70.2009C114.499 70.0895 112.061 69.2728 109.587 70.0524C108.968 70.2504 108.027 70.1514 108.176 71.0918C108.3 71.8961 109.092 72.0817 109.896 72.1683C111.331 72.3292 112.668 71.7352 114.078 71.76C114.784 71.7723 115.489 71.76 116.207 72.0198C115.439 72.7499 114.524 72.5271 113.67 72.5271C112.68 72.5271 112.309 72.9231 112.532 73.8759C112.569 74.1357 112.581 74.4203 112.445 74.6431C111.628 75.9176 110.737 77.1797 111.406 78.8254C110.923 80.9413 109.463 81.8322 107.434 82.1416C106.802 82.2405 106.072 82.1044 105.54 82.6241L105.553 82.6118Z" fill="#C5484D"/>
<path d="M73.6531 10.3365C72.9726 9.77964 73.3809 9.14858 73.4799 8.49277C73.814 6.3521 73.6903 4.24856 72.7251 2.04603C71.7971 3.44427 72.0322 5.1271 70.8443 6.6367C71.0794 5.16422 71.265 4.05058 71.463 2.83795C70.2132 2.71422 69.4956 3.69174 68.5428 4.05058C64.3233 5.6468 60.0915 5.82003 55.7854 4.58266C52.3703 3.60513 48.8932 3.03593 45.342 2.9122C44.9708 2.89982 44.6862 2.89982 44.5005 2.55336C45.9854 1.118 47.8415 0.746787 49.8089 0.610676C53.4468 0.338453 57.0228 0.895273 60.5864 1.50159C64.4594 2.1574 68.3201 2.42962 71.9579 0.52406C72.6261 0.177594 72.9726 0.350827 73.2077 0.92002C74.4698 4.00109 75.3236 7.1069 73.6655 10.3365H73.6531Z" fill="#511A3D"/>
<path d="M123.804 87.8705C124.522 91.9291 126.143 95.5917 128.828 99.1554C129.867 96.1733 130.449 93.2655 131.018 90.3576C132.998 90.8526 134.606 93.3273 134.792 96.1362C134.309 100.615 133.233 104.971 131.773 109.228C131.476 110.094 131.191 111.047 130.127 111.356C130.449 108.473 130.919 105.59 129.224 102.892C127.838 100.677 126.477 98.4253 125.301 96.0867C123.816 93.1417 122.715 90.073 123.68 86.6826C123.717 87.0786 123.755 87.4745 123.792 87.8705H123.804Z" fill="#BD4C41"/>
<path d="M105.565 68.5055C105.417 68.5055 105.28 68.5055 105.132 68.5055C102.892 68.1343 102.781 67.9611 103.919 66.2659C104.538 65.3502 104.018 64.1376 104.736 63.259C104.909 61.7742 106.196 61.8979 107.161 61.5762C108.102 61.4277 108.832 61.0194 109.252 62.6403C109.599 63.9643 111.17 62.5537 112.358 62.5537C111.702 61.935 111.071 61.2916 110.391 60.6853C110.007 60.3388 109.401 60.1037 109.797 59.4232C110.23 58.6684 110.836 59.0272 111.368 59.2499C111.851 59.4479 112.309 59.7325 112.779 59.98C112.915 59.7696 113.026 59.7944 113.113 60.0295C114.759 61.2421 116.405 62.4671 118.05 63.6797C117.729 64.0138 117.469 64.5583 117.085 64.6696C115.093 65.2388 115.798 65.8699 117.209 66.6742C114.462 66.8845 111.95 66.9835 109.45 66.402C108.126 66.0926 106.827 66.5876 105.565 66.8598C104.513 67.0825 106.072 67.9239 105.54 68.4931L105.565 68.5055Z" fill="#DC5F50"/>
<path d="M104.748 63.2715C104.402 64.6697 105.837 66.6372 103.165 67.2806C103.969 67.7879 104.55 68.1468 105.132 68.518C106.332 73.2076 103.956 76.994 99.5638 77.4271C99.304 71.9826 100.479 67.0579 104.748 63.2715Z" fill="#EF7A62"/>
<path d="M105.553 43.919C107.669 43.2013 109.884 43.226 112.086 43.1023C112.903 44.6614 113.088 46.4185 113.67 48.0394C114.029 49.017 113.484 49.2149 112.73 49.2644C110.057 49.4129 107.372 49.2892 104.699 49.3263C104.278 49.3263 103.796 49.2644 103.771 48.7819C103.721 47.3836 103.573 45.9606 103.833 44.5748C103.994 43.6839 105.045 44.3644 105.553 43.9313V43.919Z" fill="#FCF7F9"/>
<path d="M58.1983 43.0157C56.1567 41.3081 53.8056 39.9717 52.2465 37.6826C50.6503 35.344 50.0935 32.8816 50.5885 30.1098C50.7246 29.3303 50.5885 28.5013 50.5885 27.697C51.5041 27.3381 51.4917 27.9816 51.3928 28.5136C50.4523 33.525 53.6448 35.8265 57.4064 37.7692C58.1736 38.1652 59.0274 38.4621 59.4976 39.2912C58.7551 40.4296 59.2377 41.9887 58.1983 43.0157Z" fill="#B14842"/>
<path d="M105.553 43.919C104.266 44.3026 103.214 48.0023 104.167 48.9056C104.377 49.1036 104.786 49.1531 105.095 49.1531C107.508 49.1283 109.933 49.0664 112.346 49.0417C113.509 49.0417 113.596 48.5591 113.262 47.5569C112.779 46.1091 112.47 44.5995 112.086 43.1023C115.316 47.2475 115.885 56.3299 113.138 60.0667C113.026 60.0667 112.915 60.0667 112.804 60.0172C113.868 57.295 114.276 54.4738 114.004 51.5536C113.868 50.1553 113.422 49.3882 111.777 49.4995C109.71 49.648 107.619 49.5985 105.553 49.4624C103.82 49.351 103.437 50.2048 103.635 51.6402C103.944 53.9665 104.241 56.2804 105.491 58.3592C105.701 58.7056 106.394 59.1758 105.577 59.6584C103.226 56.3299 102.83 52.6053 103.313 48.6952C103.424 47.8291 103.573 46.9505 103.486 46.0967C103.325 44.4758 103.882 43.6962 105.577 43.9313L105.553 43.919Z" fill="#DE837A"/>
<path d="M59.1387 61.6876C59.0521 59.6583 59.5594 57.7033 59.9059 55.7359C60.2152 53.9417 60.2647 52.1475 60.3885 50.3533C60.7597 51.8505 60.7349 52.0114 62.5291 52.2093C63.9769 52.3702 64.5461 54.0283 66.0309 53.9169C66.7486 55.1048 66.2908 56.3793 66.3155 57.6167C65.7216 57.728 65.536 57.2207 65.2019 56.9114C63.4572 55.2904 62.4425 55.5008 61.4402 57.7157C61.0072 58.6932 60.6607 59.7078 60.2276 60.6854C60.0173 61.1556 59.8317 61.7124 59.1387 61.6876Z" fill="#C2BCCA"/>
<path d="M44.8347 56.0328C44.1541 54.2881 43.4859 52.5557 42.8054 50.811C44.6119 51.937 45.9607 53.5704 47.3342 55.1542C47.8044 55.711 48.1261 56.3916 48.9799 56.404C49.0417 56.4906 49.1036 56.5648 49.1655 56.6515C49.0665 58.458 48.5963 60.0542 46.8268 60.9575C45.2059 59.7078 45.2925 57.7527 44.8347 56.0328Z" fill="#CEC5D7"/>
<path d="M52.1723 51.207C53.5582 53.4219 53.3107 56.0823 54.1273 58.4581C53.6943 59.3613 53.0385 59.0891 52.4693 58.6808C51.3309 57.8641 49.9945 57.3568 48.9551 56.3916L48.9675 56.404C49.4129 54.2881 50.7864 52.7538 52.1599 51.207H52.1723Z" fill="#DFD7E3"/>
<path d="M22.0298 156.607C22.2278 156.743 22.4257 156.867 22.6361 157.003C22.5247 154.701 24.8263 154.825 25.977 153.847C28.4641 151.707 31.5947 150.544 34.453 148.947C37.0392 147.5 39.0932 145.31 41.5432 143.75C46.3195 140.719 49.9574 136.054 55.4885 134.136C56.4041 133.827 57.1713 133.455 57.4806 134.779C58.0251 135.299 58.0746 135.98 57.988 136.648C57.4683 140.966 57.2455 145.334 56.3546 149.603C55.5751 153.377 54.2016 156.805 50.7245 158.983C48.4478 160.405 45.8617 160.418 43.3498 160.603C39.3407 160.888 35.3192 160.752 31.3101 161.024C29.5654 160.096 27.7341 160.777 25.9399 160.702C24.4674 160.876 22.9949 161.012 21.5225 160.616C21.6957 159.279 21.8566 157.943 22.0298 156.607Z" fill="#6B2142"/>
<path d="M31.2978 161.012C31.7927 160.195 32.5723 160.207 33.4013 160.22C36.9031 160.245 40.4049 160.294 43.8943 160.195C46.0225 160.133 48.1013 159.787 50.044 158.71C53.5582 156.768 54.9688 153.476 55.6865 149.875C56.664 144.901 57.1342 139.84 57.4559 134.779C58.1983 132.54 58.0622 130.176 58.1983 127.887C58.3344 125.351 58.5324 122.839 59.0274 120.314C59.0274 123.878 59.1264 127.442 59.0026 131.005C58.8913 134.136 58.5572 137.267 58.2726 140.397C57.889 144.518 57.5796 148.638 56.862 152.734C55.9587 157.844 51.3185 160.356 47.0248 160.653C44.4263 160.839 41.8402 161.173 39.2541 161.432C37.1629 161.655 36.0864 162.868 35.6162 164.872C34.5644 169.451 34.2551 174.116 33.6859 178.756C33.3766 181.255 32.4238 183.582 32.0897 186.056L31.9659 186.106C31.669 183.037 31.9164 179.956 31.8298 176.887C31.7432 173.361 32.0031 169.834 31.6937 166.308C31.9041 164.526 31.0255 162.818 31.3101 161.024L31.2978 161.012Z" fill="#291031"/>
<path d="M31.6813 166.295C32.3619 169.822 31.9783 173.361 31.9412 176.9C31.7927 176.875 31.6937 176.776 31.6813 176.628C31.6813 173.188 31.6813 169.735 31.6813 166.295Z" fill="#451938"/>
<path d="M81.0774 217.981C80.9166 217.3 80.7681 216.632 80.6072 215.951C80.7433 215.085 80.4587 214.293 80.1989 213.489C79.9019 212.536 79.7534 211.583 80.4958 210.73C80.7681 208.416 81.362 206.077 81.2383 203.775C80.9413 197.923 82.6489 192.416 83.8244 186.811C84.9133 181.664 86.163 176.553 87.4004 171.43C87.8087 169.748 88.3532 168.09 88.9224 166.444C89.4792 164.81 90.4444 163.301 90.2216 161.457C90.1721 160.987 90.3206 160.43 90.9269 160.43C91.5085 160.43 91.3353 160.999 91.4219 161.358C91.5951 162.064 91.7684 162.756 91.954 163.449C91.954 163.462 92.0777 163.474 92.1396 163.449C92.2014 163.425 92.2386 163.363 92.2881 163.326C92.5603 163.586 92.6098 163.907 92.5603 164.266C92.2757 165.38 92.6469 166.382 93.1171 167.359C94.6762 174.623 96.2477 181.886 97.7944 189.137C99.5143 197.131 101.21 205.124 102.929 213.118C103.226 214.504 103.486 215.939 102.929 217.288C98.6234 227.583 94.1936 237.828 89.4297 247.937C88.1428 247.554 87.883 246.354 87.4004 245.351C84.8143 240.018 83.9729 234.203 82.7974 228.486C82.0921 225.009 81.6466 221.482 81.0898 217.981H81.0774Z" fill="#5C1D3E"/>
<path d="M46.567 125.487C45.7627 123.717 44.4263 123.383 42.6197 123.829C40.7142 124.299 39.1922 123.012 37.8558 122.047C33.1909 118.656 28.9839 114.709 25.0737 110.453C23.8116 109.079 22.4134 107.792 20.9162 106.679C20.0747 106.048 19.8025 105.416 19.8891 104.488C19.9634 104.142 20.1737 103.895 20.4955 103.746C21.3369 103.449 22.203 103.511 23.0692 103.61C27.5856 104.649 32.201 104.971 37.299 105.788C35.4058 103.375 33.9457 101.197 32.6217 98.9326C29.5654 93.7233 27.7465 88.0561 26.2616 82.2528C26.0884 81.5599 25.8162 80.8174 26.3482 80.1245C27.6227 79.9389 28.7611 79.4563 29.9243 78.8871C33.4879 77.1424 37.3609 76.6846 41.271 76.4495C42.5455 76.3753 43.82 76.3753 45.045 75.9545C45.9483 75.8927 46.072 76.6104 46.369 77.2167C47.3342 79.1841 47.9528 81.3124 48.9304 83.1932C48.1137 81.0278 46.9258 78.949 46.369 76.598C47.7672 75.1255 49.2397 73.752 51.2195 73.0591C53.4963 77.8354 54.6223 82.9705 55.8349 88.0685C56.5897 91.2733 57.6662 94.4038 57.8642 97.72C57.5796 99.0564 56.1814 99.3657 55.4266 100.306C53.9665 102.15 52.6549 104.105 51.3556 106.06C50.8359 106.839 50.3657 107.669 49.4996 108.139C46.8763 109.141 46.2329 113.93 46.9011 115.984C47.1733 116.813 47.8786 117.233 48.6581 117.518C49.2026 117.716 49.8832 117.679 50.242 118.285C48.7819 119.25 48.8561 120.636 49.1407 122.121C49.6357 124.608 49.0046 125.412 46.567 125.487Z" fill="#7C2948"/>
<path d="M80.4958 210.73C80.0628 212.474 81.461 214.194 80.6072 215.951C75.0885 201.833 69.5574 187.702 64.0387 173.571C63.8036 172.952 63.6428 172.297 63.4448 171.666C63.0365 169.513 63.7665 167.434 64.0016 165.343C64.5089 160.777 65.3256 156.248 65.9196 151.682C66.0928 150.321 66.6496 149.9 67.9117 150.296C68.1716 150.37 68.4191 150.457 68.6913 150.494C72.2549 150.977 72.7622 151.422 73.1953 154.874C74.2966 163.536 75.3484 172.21 76.4744 180.872C77.6251 189.731 78.8501 198.579 80.0628 207.426C80.2113 208.527 79.6668 209.715 80.4835 210.73H80.4958Z" fill="#280F30"/>
<path d="M84.1337 131.538C85.8784 137.749 87.6231 143.948 89.3678 150.16C90.1597 152.981 90.9145 155.815 91.6817 158.636C89.3431 159.379 87.4375 158.859 85.8289 156.817C81.4486 151.249 79.1966 144.827 78.5037 137.836C78.4047 136.871 77.9221 135.881 78.5037 134.903C78.7388 134.507 78.8872 133.851 79.209 133.752C80.6814 133.295 81.5352 132.552 82.1663 130.968C82.8345 129.31 83.4779 131.203 84.1337 131.538Z" fill="#661F3F"/>
<path d="M64.3357 117.765C62.9251 117.765 61.5269 117.765 60.1163 117.741C59.2748 117.728 58.1117 117.864 57.9508 116.85C57.7529 115.637 59.015 115.538 59.8688 115.241C60.6483 114.276 61.7743 113.781 62.789 113.125C63.8408 112.989 64.1625 114.029 64.9173 114.437C64.212 113.2 63.5438 111.962 64.113 110.477C64.7812 109.228 66.8352 109.438 67.0332 107.706C67.3425 106.53 67.5281 105.33 67.3673 104.117C67.0827 102.298 67.6271 100.455 66.6867 98.6109C66.0433 97.3611 68.2953 96.0124 70.1885 96.4455C70.6587 97.1755 70.4978 97.9922 70.5845 98.7841C70.8691 102.261 71.3888 105.701 71.8342 109.153C71.9456 110.02 72.0693 110.873 71.9332 111.752C71.9951 113.162 72.4158 114.499 72.9478 115.798C70.4236 117.988 67.4291 118.075 64.3357 117.753V117.765Z" fill="#FAEDF3"/>
<path d="M68.7037 73.0962C70.2627 73.8881 71.9332 73.9624 73.6284 73.7644C73.9378 73.7149 74.1976 73.851 74.1976 74.148C74.1729 76.1896 74.5688 78.2808 73.6532 80.2359C73.6408 82.2528 73.6284 84.2573 73.616 86.2743C72.9602 87.425 72.8117 88.8232 71.958 89.8874C71.5249 90.4195 71.0052 90.9268 70.2875 90.7659C69.4585 90.5803 69.5698 89.7637 69.4832 89.1326C69.2728 87.5982 70.1638 86.0887 69.6564 84.5543C69.5451 84.2945 69.409 84.7523 69.6069 84.579C69.7059 84.4924 69.8049 84.5296 69.7678 84.678C69.6069 85.371 70.2751 86.2495 69.2976 86.7445C68.8521 86.4722 68.6542 86.0144 68.6665 85.5566C68.716 81.9558 68.1716 78.3798 68.184 74.779C68.184 74.1727 68.2706 73.5788 68.716 73.0962H68.7037Z" fill="#78284A"/>
<path d="M64.3357 117.766C66.7733 117.308 69.211 116.862 71.6486 116.404C72.1312 116.318 72.7499 116.516 72.9478 115.811C73.0345 117.172 72.9973 118.558 73.2572 119.882C73.5665 121.416 72.7375 121.787 71.562 121.824C68.9511 121.911 66.3774 122.455 63.7418 122.27C62.7642 122.195 61.7248 122.319 61.9228 120.871C62.0713 119.795 61.168 118.063 63.4695 118.199C63.816 118.223 64.1253 118.075 64.3357 117.778V117.766Z" fill="#671D40"/>
<path d="M69.5079 86.831C69.5698 85.9772 69.6317 85.1358 69.6935 84.282C69.7925 84.282 69.9039 84.282 70.0029 84.282C70.0029 85.8782 69.9658 87.4868 70.0276 89.083C70.04 89.5285 69.6193 90.2956 70.4483 90.3823C70.9928 90.4441 71.3392 89.9244 71.661 89.4542C72.3539 88.4148 72.2797 86.9176 73.616 86.2742C73.2943 91.3227 72.9478 96.3588 72.5519 101.407C72.3415 104.018 71.9208 106.679 72.3786 109.339C72.5148 110.118 72.7994 111.096 71.9456 111.764C70.9062 107.495 70.3865 103.164 70.0771 98.7964C70.7206 97.1136 69.3718 95.3813 70.2256 93.6984C70.3493 93.4633 70.0895 93.5004 70.1019 93.6613C70.1019 94.1068 69.8668 93.9954 69.6069 93.9459C68.5675 91.5825 68.7284 89.1944 69.5203 86.8062L69.5079 86.831Z" fill="#5D1E3F"/>
<path d="M62.8014 113.472C62.1208 114.561 61.0195 114.957 59.8688 115.254C59.213 114.709 58.4087 114.796 57.7776 115.118C55.3523 116.392 52.5559 116.788 50.2296 118.285C46.8516 118.062 46.0349 117.233 46.1463 113.806C46.2329 111.306 46.567 108.832 49.4006 107.755C49.5738 108.584 48.9922 109.141 48.6334 109.76C48.2127 110.465 47.9405 111.207 47.9033 112.036C47.7672 114.375 48.3735 114.957 50.6751 114.61C52.6054 114.313 54.5233 114.004 56.4041 113.459C57.7157 113.088 58.8417 112.47 59.8564 111.492C61.9723 109.426 64.4842 108.102 67.5405 108.126C67.1445 109.859 65.4617 109.834 64.2862 110.502C63.42 111.306 63.7913 112.729 62.8014 113.472Z" fill="#C94353"/>
<path d="M75.1875 77.3776C75.967 76.4866 76.3383 74.8038 78.1324 75.9051C78.3304 76.0288 78.3923 75.9546 78.8625 75.2864C79.5554 74.3089 80.1494 73.2447 81.6713 72.7126C81.4734 74.8286 83.3666 76.3629 82.8097 78.5159C80.2607 78.8005 77.6994 78.9985 75.2122 79.6915H75.0761L74.9648 79.7657C74.0615 78.8872 74.4327 78.1076 75.1751 77.3652L75.1875 77.3776Z" fill="#FAF5F9"/>
<path d="M75.1875 77.3775C75.2989 78.1942 74.4946 78.9242 74.9772 79.778C74.3956 79.5182 73.9996 79.8028 73.6408 80.2359C73.6779 78.7015 73.4799 77.1672 73.9501 75.6452C74.1357 75.0512 74.2347 74.3088 73.6284 73.7644C73.7274 70.906 73.5542 68.0724 73.0221 65.2512C74.0862 67.7755 74.1976 70.4729 74.4203 73.1333C74.5441 74.581 74.2224 76.0906 75.1751 77.3899L75.1875 77.3775Z" fill="#5D1E3F"/>
<path d="M175.007 280.703C174.734 282.757 174.982 284.811 175.205 286.841C175.662 291.085 175.687 295.267 174.252 299.351C173.237 302.221 171.208 303.298 168.263 302.691C166.32 302.296 164.588 301.466 162.93 300.427C162.385 299.709 162.819 299.004 163.004 298.324C164.167 294.017 164.489 289.612 164.774 285.195C165.021 281.186 164.712 277.177 164.91 273.168C165.627 271.708 166.481 272.636 167.149 273.143C168.919 274.479 170.713 275.791 172.396 277.239C173.064 277.808 173.745 278.043 174.586 277.833C174.871 278.773 174.202 279.85 175.019 280.716L175.007 280.703Z" fill="#CA5E51"/>
<path d="M174.574 277.833C174.178 278.773 173.868 279.181 172.804 278.266C170.441 276.249 167.904 274.43 165.429 272.537C165.219 272.401 165.058 272.215 164.959 271.992C164.143 265.917 163.833 259.792 163.165 253.691C163.115 253.234 163.19 252.763 163.338 252.318C163.586 251.637 164.192 251.316 164.798 251.043C166.679 250.214 168.659 249.633 170.23 248.21C170.441 248.024 170.725 248.148 170.948 248.321C172.223 252.454 174.326 256.203 176.294 260.027C176.776 265.459 175.91 270.792 175.242 276.137C175.18 276.608 174.97 277.028 174.648 277.387C174.623 277.536 174.598 277.684 174.561 277.82L174.574 277.833Z" fill="#A7313F"/>
<path d="M141.956 61.3041C142.365 59.9553 143.305 58.8912 143.936 57.6662C145.52 57.0599 146.72 55.8596 147.896 54.7336C149.046 53.6323 148.18 52.0732 148.329 50.7369C148.019 49.9821 148.415 49.4253 148.947 49.0169C151.336 47.1609 153.192 44.8593 154.776 42.3103C154.949 42.0257 155.196 41.7906 155.592 41.902C155.976 47.3465 159.106 51.1081 163.165 54.3005C165.108 55.8225 167.075 57.3073 169.03 58.8046C167.731 60.4008 165.714 61.0195 164.241 62.4177C160.492 66.0061 157.906 70.3988 155.468 74.8905C154.38 76.895 153.414 78.9738 152.412 81.0155C152.09 81.6713 151.88 82.4385 150.964 82.5251C145.334 83.3418 143.948 82.191 142.6 76.3753C141.424 71.3639 141.548 66.3526 141.969 61.3041H141.956Z" fill="#F07B62"/>
<path d="M146.77 44.6983C143.214 45.713 140.467 44.5581 138.529 41.2337C137.267 39.0806 136.054 36.9276 135.621 34.4281C135.46 33.4877 135.114 32.6092 136.66 32.4483C137.638 32.3369 138.009 31.4584 137.774 30.3819C136.957 30.9263 136.178 31.6564 135.225 31.0377C134.507 30.5675 134.26 29.491 134.433 28.8847C134.73 27.8329 136.079 28.4145 136.883 27.9814C136.141 26.8554 135.114 27.4493 134.012 27.5607C134.903 23.9599 135.584 20.4334 138.789 18.07C140.063 17.1296 141.177 16.8202 142.587 17.6864C143.367 18.169 144.295 18.4288 145.149 18.7877C145.73 19.1094 146.312 19.4435 146.906 19.7528C150.272 21.448 152.672 23.9104 153.179 27.8329C153.254 28.365 153.241 29.0826 153.922 29.0703C154.751 29.0703 154.392 28.266 154.454 27.7958C154.689 26.2738 155.023 24.7147 156.916 24.6405C158.859 24.5538 159.478 26.0511 159.861 27.6473C160.307 29.5157 159.898 31.2233 158.97 32.8443C158.042 32.572 158.166 31.3594 157.201 30.9263C156.347 31.7306 157.238 32.968 156.595 33.7847C155.914 34.3415 155.815 35.1458 155.592 35.9253C154.305 40.516 151.187 43.2753 146.757 44.7107L146.77 44.6983Z" fill="#F47F65"/>
<path d="M146.77 44.6983C148.898 43.1516 151.398 42.1369 153.056 39.9344C154.157 38.4619 154.912 36.9152 155.357 35.1457C155.481 34.6755 155.11 33.4505 156.421 33.7599C156.867 34.0197 157.028 34.3909 156.854 34.8859C155.407 36.3213 156.236 38.2763 155.704 39.9344C155.506 40.5407 155.617 41.246 155.58 41.9142C153.872 44.7973 151.917 47.47 149.146 49.4374C148.688 49.7592 148.403 50.1922 148.316 50.7491C147.797 48.7321 147.277 46.7152 146.757 44.6983H146.77Z" fill="#B03B3A"/>
<path d="M156.854 34.8736C156.706 34.5024 156.57 34.1188 156.421 33.7476C156.619 32.8938 155.988 32.0648 156.347 31.1986C156.52 30.7903 156.335 30.184 156.916 30.0231C157.572 29.8375 157.881 30.382 158.116 30.8398C158.463 31.4708 158.698 32.1638 158.983 32.832C158.723 33.9827 158.426 35.084 156.867 34.8736H156.854Z" fill="#F7F1F3"/>
<path d="M177.395 84.6532C175.019 83.354 173.423 81.2257 171.703 79.2335C171.183 78.6395 170.998 77.7858 170.218 77.4022C170.342 76.239 171.356 75.6327 171.913 74.7418C172.433 73.9251 173.175 74.2716 173.509 74.9398C175.242 78.4416 178.187 79.1221 181.701 78.6272C184.423 78.2436 185.265 80.6688 186.626 82.1289C189.67 85.408 192.194 89.1449 195.782 91.9413C198.294 93.8964 201.276 94.2305 204.79 95.0595C202.192 95.2451 200.521 96.4825 198.542 96.8042C192.788 91.5825 186.712 86.732 180.661 81.8567C178.731 80.2976 178.682 80.3471 177.952 82.7229C177.754 83.3663 177.568 83.9974 177.382 84.6408L177.395 84.6532Z" fill="#CD5D4F"/>
<path d="M161.693 116.986C164.217 116.652 166.456 114.981 169.142 115.377C169.773 115.464 170.49 115.179 171.01 115.773C170.416 117.444 169.104 118.199 167.471 118.533C166.37 118.755 165.553 119.448 164.662 120.03C164.105 120.389 163.462 120.884 163.92 121.651C164.39 122.455 165.021 122.232 165.801 121.861C167.273 121.156 168.807 120.463 171.035 120.723C168.461 121.589 166.234 122.121 164.427 123.556C163.92 123.965 162.88 124.348 164.155 125.103C163.425 125.994 161.792 125.994 161.705 127.541C161.012 128.135 161.507 128.58 161.866 129.075C162.633 130.139 163.375 131.241 163.957 132.453C161.866 130.535 160.406 128.135 158.834 125.808C157.535 123.89 156.755 121.775 156.273 119.523C156.025 118.359 155.543 118.075 154.083 118.025C149.727 117.864 145.211 118.31 141.09 116.219C141.09 114.981 141.016 113.744 141.548 112.569C142.092 111.814 142.563 111.678 142.897 112.729C142.513 115.588 142.773 115.996 145.582 116.429C150.222 117.147 154.899 116.936 159.564 116.776C160.282 116.751 161.024 116.466 161.68 117.011L161.693 116.986Z" fill="#E06762"/>
<path d="M26.3854 80.2234C28.3652 89.776 31.9288 98.5985 38.5983 106.53C33.1415 105.515 28.0311 105.454 23.1187 104.055C21.9803 103.263 21.6957 102.076 21.4977 100.863C21.3245 101.927 21.572 103.263 20.347 104.018C20.1985 104.167 20.05 104.328 19.9139 104.476C19.3447 104.921 18.7755 105.367 17.8475 106.085C19.3447 103.004 19.8644 100.046 20.6563 97.1507C22.4505 91.6073 23.9477 85.9896 24.6902 80.1863C24.851 78.8499 25.0119 77.5136 25.1604 76.1772C25.5068 75.8431 25.1851 75.2244 25.9399 74.8037C26.6576 76.5979 27.0783 78.3179 26.3977 80.1987L26.3854 80.2234Z" fill="#4D1A3B"/>
<path d="M50.6132 27.7093C49.4129 27.2886 48.1508 27.3257 46.9011 27.2515C47.6806 26.6081 48.621 27.0411 49.4748 26.8927C50.0564 26.8927 50.4028 27.202 50.6008 27.7217L50.6132 27.7093Z" fill="#B14842"/>
<path d="M59.1635 306.354C59.1387 299.858 59.0769 293.362 59.0892 286.865C59.0892 284.391 60.1657 282.25 61.465 280.208C62.1827 279.713 62.7271 280.208 63.2592 280.567C66.0433 282.448 68.8645 284.156 72.4653 283.438C72.8612 283.364 73.2448 283.549 73.5418 283.846C73.9872 288.746 75.6825 293.201 78.3304 297.309C79.4565 299.054 81.0898 300.229 82.9087 301.132C84.9999 302.172 87.1529 303.075 89.2689 304.077C90.0979 304.473 91.063 304.708 91.4838 305.674C91.1497 306.998 90.0484 306.577 89.1822 306.676C84.9133 306.626 80.6196 306.886 76.3754 306.267C75.3236 306.119 74.2347 306.094 73.3191 305.438C70.2133 303.347 68.6913 299.932 66.4887 297.086C65.6473 295.997 64.8059 294.908 63.7294 293.56C63.6057 297.742 63.7418 301.541 63.6552 305.339C63.6057 305.785 63.4324 306.169 63.0736 306.453C61.7743 306.478 60.4751 306.738 59.1759 306.342L59.1635 306.354Z" fill="#431838"/>
<path d="M61.0072 20.3963C63.8408 18.169 66.7239 18.6887 69.5574 18.9609C69.8792 18.9857 70.2627 19.0846 70.1761 19.5301C70.1019 19.9384 69.8173 20.2602 69.409 20.3839C68.7284 20.5819 68.0973 20.2973 67.4415 20.1735C65.4122 19.8023 63.3829 19.8889 61.0072 20.3839V20.3963Z" fill="#331315"/>
<path d="M63.618 22.6235H67.8251C66.2289 24.1826 65.0905 23.4897 63.618 22.6235Z" fill="#943E3A"/>
<path d="M26.3854 80.2235C26.2616 78.6273 25.7172 77.0806 25.9647 75.4349C25.346 75.4101 25.5563 76.1031 25.148 76.202C25.7296 72.0816 25.878 67.9859 24.7149 63.9396C24.4427 62.9992 24.3437 61.9598 23.5394 61.2422C23.5394 60.9823 23.5146 60.7225 23.5146 60.4502C23.6508 59.3985 24.1581 58.9283 25.3088 58.7427C27.1897 58.4333 28.9839 57.7528 30.9142 57.5177C32.5228 57.3197 33.8839 57.3692 35.2574 58.1982C35.7894 58.5199 36.4081 58.5818 36.8783 57.9879C37.6702 57.9136 37.8806 58.5571 38.1404 59.0644C40.8503 64.1995 43.1394 69.5326 45.4162 74.8657C45.6018 75.2988 45.7256 75.7566 45.3915 76.1897C44.5624 76.8207 43.6468 76.994 42.6074 77.0187C37.7321 77.1548 32.9063 77.5384 28.6374 80.2854C27.8826 80.7803 27.1154 80.7061 26.3854 80.2235Z" fill="#92314F"/>
<path d="M69.5079 86.8312C69.6317 89.2317 69.3223 91.6693 69.9658 94.0327C70.2627 94.3544 70.2256 94.6514 69.941 94.9484C69.4213 95.2948 68.815 95.332 68.2211 95.3196C66.4269 95.2948 66.0309 94.8123 66.7362 93.2037C68.0602 90.2092 67.8622 87.1282 67.4044 84.01C67.0827 82.9087 67.0332 81.7703 66.7981 80.6567C66.3774 78.6769 65.1936 77.6334 63.2468 77.5261C62.9746 77.5261 63.3582 77.9468 63.2344 77.7117C63.1973 77.6499 63.2592 77.6127 63.4077 77.6127C65.8701 77.5261 67.0951 78.8254 66.9342 81.3001C66.8847 82.0054 66.4021 82.2529 65.8701 82.29C63.6675 82.4509 61.4897 82.983 59.2501 82.785C58.0251 82.6736 57.3322 82.1168 57.5425 80.8423C57.6786 79.9885 57.6044 79.0728 57.7405 78.5531C57.7281 79.4193 57.4683 80.5824 57.493 81.7951C57.5549 82.4633 57.7405 83.1314 57.5796 83.7872C56.6021 87.9077 57.889 91.5456 59.9306 95.035C60.3761 95.7898 60.9577 96.6065 60.1781 97.3984C59.4728 98.1161 58.6067 98.71 57.5301 97.9676C55.872 89.4916 53.6943 81.1393 50.9473 72.9478C50.5018 72.7375 50.1925 72.3539 50.0811 71.8961C49.3882 69.1243 47.8662 66.6125 47.6682 63.7046C48.9056 62.8013 49.5119 63.7294 49.9945 64.6079C50.7369 65.9566 51.17 67.4415 51.4794 68.9387C51.8258 70.5968 52.4569 71.8466 54.1892 72.5519C55.5132 73.0963 56.3175 74.5317 57.6539 75.1999C57.889 75.3236 58.1117 75.4597 58.3839 75.3483C58.9284 73.4057 57.8766 71.5496 58.1364 69.6317C58.2231 68.9882 57.9261 68.3077 58.2973 67.689C58.0127 65.5978 58.9284 63.6799 59.1511 61.6506C59.8193 60.141 60.4503 58.6066 61.168 57.1218C61.5887 56.2556 61.8981 55.0801 63.1602 55.2038C64.2986 55.3152 65.3256 55.7978 65.8577 56.9485C65.969 57.1836 66.167 57.3693 66.3155 57.5796C67.3797 62.7023 67.9983 67.887 68.7036 73.0592C68.9759 77.6375 69.2357 82.2158 69.5079 86.7941V86.8312Z" fill="#FCFCFD"/>
<path d="M47.8662 63.6673C48.8809 66.7731 49.9079 69.8666 50.9225 72.9724C49.9821 74.8161 48.0766 75.509 46.5298 76.6103C45.3791 76.0658 45.2801 74.8285 44.8594 73.8757C42.6321 68.8767 40.3677 63.9024 37.9053 59.0148C37.6331 58.4827 36.6185 57.6661 38.0538 57.1835C38.5364 58.458 39.1922 59.7448 40.7265 59.6706C43.1394 59.5469 44.5624 58.1486 44.8223 56.0327C45.5276 57.6413 46.2329 59.2499 46.9382 60.8585C47.6559 61.6628 48.225 62.5166 47.8538 63.6673H47.8662Z" fill="#9E3655"/>
<path d="M38.0662 57.1835C37.2743 57.8269 37.9177 58.4209 38.1776 58.9653C40.9493 64.8552 43.7458 70.7328 46.5422 76.6103C47.5074 79.0108 48.4602 81.4113 49.4253 83.8118C47.4826 81.5598 47.1485 78.5282 45.4162 76.1896C42.7682 70.0275 40.2935 63.7911 36.8907 57.9878C36.9154 57.2206 37.3361 56.8494 38.0662 56.7751L38.1033 56.7999C38.1033 56.9236 38.1033 57.0474 38.0786 57.1835H38.0662Z" fill="#461427"/>
<path d="M38.0538 56.7751C38.0786 56.4411 38.1652 55.8347 38.1404 55.8224C35.4677 55.3274 35.9998 52.7165 35.0965 51.0956C34.5025 50.0314 34.0942 48.7941 34.3293 47.4082C35.047 49.2766 35.7647 51.1327 36.47 53.0011C36.7051 53.6198 36.8536 54.2385 37.695 54.4241C38.3508 54.5726 39.4149 54.4613 39.5015 55.2408C39.5758 55.8966 38.7591 56.4411 38.0909 56.7999L38.0538 56.7751Z" fill="#51192E"/>
<path d="M138.294 268.552C137.935 271.274 137.564 273.984 137.242 276.707C137.069 278.154 136.747 279.627 137.465 281.037C137.254 284.651 137.823 288.227 137.997 291.815C138.133 294.809 137.737 297.804 136.512 300.588C135.312 303.335 131.587 304.238 128.605 302.592C127.9 302.209 127.281 301.677 126.44 301.615C128.098 297.47 128.469 293.114 128.63 288.709C128.952 282.349 128.704 275.989 128.766 269.629C128.741 268.874 129.224 268.478 129.644 269.134C130.399 270.297 130.857 269.567 131.463 269.121C132.453 268.391 133.654 268.169 134.817 267.909C135.955 267.637 137.18 267.674 138.046 266.721C138.615 267.451 138.504 268.008 138.281 268.565L138.294 268.552Z" fill="#CA5E51"/>
<path d="M47.8662 63.6674C47.5569 62.727 47.2475 61.7866 46.9506 60.8585C47.9528 59.5222 48.6581 58.0497 48.9675 56.3916C50.4523 56.4287 51.467 57.4557 52.5806 58.2105C53.1251 58.5818 53.5334 58.8911 54.1397 58.458C55.241 61.403 56.9114 64.1376 57.5425 67.2681C58.7551 70.2626 58.8789 73.3932 58.7304 76.5608C57.4188 75.5091 55.7112 74.9646 54.6965 73.5045C54.5109 73.2447 54.2387 72.8982 53.9665 72.8735C51.5289 72.6136 51.3556 70.7452 50.9597 68.9015C50.6503 67.4909 50.0316 66.1545 49.5367 64.781C49.2645 64.0138 48.7324 63.5684 47.8662 63.655V63.6674Z" fill="#FDFDFD"/>
<path d="M58.718 76.5608C58.7056 73.4178 58.0746 70.3491 57.5301 67.2681C57.7776 67.4166 58.0251 67.565 58.2849 67.7135C58.5695 70.6585 59.547 73.5663 58.718 76.5608Z" fill="#E4B799"/>
<path d="M27.1773 159.923H30.2707C30.2707 159.923 30.2707 160.034 30.2707 160.084H27.1773C27.1773 160.084 27.1773 159.972 27.1773 159.923Z" fill="#451938"/>
<path d="M73.5418 283.846C69.0996 284.898 65.536 283.079 62.2074 280.419C62.0218 280.27 61.7125 280.27 61.4526 280.196C67.392 261.227 73.3314 242.258 79.2708 223.289C79.8276 221.507 80.4711 219.75 81.0774 217.968C81.2878 217.993 81.5724 216.966 81.7085 218.018C82.6489 225.318 83.9481 232.545 85.8166 239.66C86.5837 242.58 87.7097 245.389 89.4049 247.925C85.7052 256.29 82.0178 264.655 78.318 273.019C76.7218 276.62 75.1256 280.221 73.5294 283.834L73.5418 283.846Z" fill="#331332"/>
<path d="M93.1047 167.372C92.2385 166.506 92.1148 165.763 92.5479 164.279C92.7335 165.306 92.9191 166.333 93.1047 167.372Z" fill="#451938"/>
<path d="M57.5054 97.9923C58.087 97.8438 58.6562 97.72 59.2253 97.5468C60.2029 97.2498 60.2524 96.6559 59.7203 95.8887C56.7135 91.6321 56.2556 86.893 57.1094 81.9187C57.7776 81.795 57.6663 82.4137 57.8766 82.723C58.1612 85.1235 57.8395 87.5488 58.3963 89.9369C58.6438 90.9887 58.9284 92.0157 59.3862 92.9933C60.3885 95.0968 61.7743 96.5693 64.3728 96.0619C65.2885 96.3837 66.266 96.7796 66.1299 97.9428C65.9938 99.1183 64.9297 99.4647 63.9274 99.7122C62.8261 99.9844 61.663 99.9349 60.2029 100.492C62.6653 99.6875 64.6079 100.418 66.5754 100.888C67.0703 101.011 67.4292 101.37 67.293 101.927C67.0703 102.781 66.5135 103.387 65.6102 103.437C63.9521 103.523 62.294 103.461 60.636 103.474C61.9971 103.474 63.3582 103.511 64.7069 103.474C65.635 103.449 66.3155 103.622 66.365 104.711C66.4145 105.713 66.068 106.357 64.9791 106.58C63.9274 106.79 62.8261 106.53 62.1579 106.877C64.212 106.877 66.6249 106.79 67.8251 104.142C68.1221 105.515 67.8251 106.827 67.5281 108.151C66.5382 109.017 65.1524 108.658 64.0387 109.339C62.4054 110.341 60.8463 111.294 59.3862 112.63C57.4311 114.412 54.5976 114.449 52.0609 114.994C51.8011 115.043 51.5165 114.994 51.2566 115.031C49.9821 115.291 48.4107 116.095 47.6559 114.536C46.9382 113.039 47.0124 111.282 48.0023 109.76C48.4354 109.092 48.918 108.448 49.3758 107.792C51.0834 105.986 52.1476 103.709 53.6448 101.754C54.746 100.331 55.8597 98.9079 57.4683 98.017L57.5054 97.9923Z" fill="#EC7861"/>
<path d="M67.8499 104.105C67.788 106.58 66.365 107.211 64.1625 106.914C62.9003 106.753 61.7001 107.619 60.3019 107.149C61.5269 106.444 62.8137 106.555 64.0511 106.406C64.9049 106.295 65.9938 106.258 65.9567 104.847C65.9195 103.239 64.744 103.721 63.915 103.697C62.3188 103.635 60.7102 103.684 59.114 103.226C60.8339 103.226 62.5415 103.239 64.2615 103.226C64.7935 103.226 65.3627 103.226 65.8329 103.016C66.365 102.781 67.0084 102.335 66.9466 101.717C66.86 100.974 66.0557 101.407 65.6102 101.234C63.4819 100.418 61.267 100.591 59.015 100.739C60.4132 99.7741 61.9599 99.3905 63.5438 99.2421C64.5584 99.1431 65.5855 98.809 65.7834 97.9057C65.9814 97.0519 64.8183 96.8168 64.1872 96.3713C64.5584 94.4534 66.2413 93.1294 66.4887 91.1496C67.2312 89.5039 66.9218 87.7592 67.0208 86.0516C67.0703 85.2844 66.6991 84.2698 67.8993 83.9604C68.4685 87.6355 68.5923 91.2733 66.5259 94.8122H69.8915C70.3122 95.3319 70.2751 95.8516 69.9163 96.3713C69.1986 96.7054 68.4314 96.9653 67.788 97.4107C67.0827 97.8933 66.2165 98.4378 67.5776 99.2915C68.5057 99.8731 68.0973 100.913 67.9117 101.68C67.7014 102.521 67.8251 103.313 67.8251 104.142L67.8499 104.105Z" fill="#D85A4E"/>
<path d="M62.8014 113.472C63.4819 112.581 62.2322 110.713 64.2862 110.502C64.2615 112.272 64.7812 113.843 66.1423 115.118C64.4594 115.551 63.9397 113.905 62.8014 113.472Z" fill="#CE878E"/>
<path d="M69.941 96.3465C69.941 95.8268 69.9163 95.3071 69.9163 94.7751C69.9286 94.5276 69.941 94.2801 69.9658 94.0203C70.0029 93.7604 70.04 93.5006 70.0895 93.2407C70.2256 95.0968 70.7824 96.9405 70.0771 98.7965C70.04 97.9799 70.0029 97.1632 69.9534 96.3465H69.941Z" fill="#451938"/>
<path d="M158.488 198.207C158.76 197.935 159.045 197.663 159.317 197.378C162.274 207.191 166.098 216.793 167.31 227.063C167.991 232.829 168.275 238.633 169.81 244.275C170.181 245.624 170.577 246.972 170.96 248.321C168.894 250.227 166.283 251.031 163.722 251.947C162.794 251.835 162.819 251.056 162.757 250.437C162.138 244.782 161.297 239.14 161.532 233.423C162.126 222.807 159.96 212.474 158.376 202.068C158.178 200.794 157.498 199.457 158.488 198.207Z" fill="#B54345"/>
<path d="M145.396 35.2324C144.827 37.4844 143.33 38.9817 141.622 40.2562C140.521 41.0852 139.469 40.813 138.9 39.4395C138.479 38.4249 138.628 37.8557 139.939 37.7443C142.031 37.5711 143.961 36.9276 145.396 35.2324Z" fill="#DA3D5D"/>
<path d="M146.77 24.3435C144.493 24.1084 142.365 24.4796 140.471 25.8531C140.088 26.1253 139.655 26.8183 139.16 26.0758C138.789 25.519 139.209 25.0859 139.642 24.7147C141.412 23.168 144.468 22.9453 146.77 24.3435Z" fill="#3F1C22"/>
<path d="M146.98 26.645C146.126 28.3402 145.112 29.7385 143.095 29.7261C142.612 29.7261 142.092 29.6642 142.006 29.095C141.944 28.6248 142.414 28.4268 142.773 28.2907C144.171 27.7215 145.569 27.1895 146.98 26.645Z" fill="#43252F"/>
<path d="M67.9117 83.9356C67.1569 84.9502 67.6643 86.101 67.5776 87.1899C67.4663 88.6871 67.7385 90.2338 66.8228 91.5949C65.9567 90.8278 66.3155 89.8626 66.4145 88.9593C67.0085 83.354 66.9342 83.2921 61.4279 83.255C60.1163 83.255 58.7304 83.6015 57.5301 82.7106C57.394 82.4507 57.2455 82.1785 57.1094 81.9187C57.2084 80.8545 57.3198 79.8027 57.394 78.7386C57.493 77.427 58.5324 78.0085 59.2254 77.7487C57.0847 78.5282 58.087 80.2853 57.9509 81.6341C57.889 82.2775 58.5448 82.2651 59.0026 82.2404C61.267 82.1166 63.5438 81.9682 65.8082 81.832C66.3774 81.7949 66.563 81.6341 66.5135 80.9783C66.3155 78.256 65.9196 77.8229 63.2345 77.7734C62.9746 77.7734 62.7148 77.7487 62.4054 77.7363C62.5786 77.3156 62.9127 77.4889 63.1478 77.4765C65.1606 77.4105 66.431 78.3468 66.959 80.2853C67.2931 81.4979 67.5776 82.7353 67.887 83.948L67.9117 83.9356Z" fill="#E4B799"/>
<path d="M143.119 241.429C141.523 249.905 139.89 258.381 138.714 266.931C138.615 267.476 138.764 268.094 138.306 268.54C138.281 268.144 138.269 267.748 138.232 267.018C137.428 268.404 136.264 268.094 135.2 268.317C133.295 268.713 131.265 269.134 130.189 271.25C129.558 270.396 130.078 269.233 128.989 268.899C128.246 267.216 128.704 265.446 128.617 263.726C128.494 261.388 128.84 259.024 128.246 256.723C128.976 254.533 128.432 252.268 128.58 250.053C128.655 248.927 128.605 247.801 128.617 246.663C129.001 246.044 128.716 245.351 128.877 244.696C129.088 243.829 129.533 243.26 130.412 243.013C134.569 241.85 138.826 241.454 143.132 241.429H143.119Z" fill="#D76957"/>
<path d="M143.119 241.429C141.833 242.097 140.459 242.419 139.024 242.233C135.992 241.85 133.233 243.211 130.313 243.557C128.679 243.755 129.372 245.723 128.593 246.663C128.593 242.085 128.395 237.494 128.63 232.928C129.125 223.153 131.154 213.662 134.755 204.567C139.692 192.132 143.231 179.288 146.337 166.308C146.448 165.85 146.597 165.405 146.696 164.947C146.844 164.241 146.832 163.264 147.698 163.165C148.663 163.066 149.17 163.982 149.591 164.749C150.346 166.135 149.801 167.669 150.012 169.117C150.618 178.657 148.613 187.739 145.161 196.574C145.409 197.094 145.372 197.663 145.149 198.146C142.526 203.862 143.602 209.715 144.332 215.593C144.864 219.861 145.124 224.155 144.938 228.461C144.901 229.191 144.938 229.958 144.332 230.528C143.441 232.582 144.184 234.809 143.577 236.925C143.169 238.36 143.243 239.919 143.107 241.429H143.119Z" fill="#EF7A62"/>
<path d="M175.007 280.703C178.88 283.364 179.845 285.678 178.112 290.305C176.628 294.265 176.219 298.324 175.873 302.456C175.799 303.384 175.576 304.3 175.427 305.216C174.982 305.575 174.277 305.785 174.326 306.478C174.363 306.936 174.932 306.861 175.304 306.96C175.452 307.666 174.883 307.468 174.561 307.505C171.802 307.901 169.055 308.482 166.234 308.322C165.516 308.284 164.774 308.148 164.068 308.47C163.016 308.47 161.952 308.47 160.901 308.482C159.638 308.433 158.327 308.507 157.758 306.985C157.646 305.34 159.045 304.535 159.898 303.533C160.901 302.357 161.358 300.6 163.153 300.192C164.774 300.638 166.147 301.665 167.83 301.999C171.084 302.667 172.804 301.788 173.856 298.608C175.069 294.97 175.069 291.196 174.66 287.447C174.462 285.702 174.536 283.958 174.289 282.225C174.202 281.607 174.264 281 174.982 280.728L175.007 280.703Z" fill="#A561DF"/>
<path d="M125.351 308.569C124.571 308.532 123.779 308.507 123 308.47C121.911 308.136 120.921 307.753 121.849 306.33C123.049 305.018 124.361 303.793 125.326 302.271C125.685 301.702 126.205 301.281 126.947 301.293C127.924 301.368 128.679 301.999 129.558 302.308C133.121 303.57 135.411 302.419 136.524 298.782C137.601 295.243 137.527 291.642 137.131 288.016C136.871 285.702 136.5 283.364 137.366 281.075C137.824 280.827 138.145 281.087 138.417 281.384C140.323 283.426 141.684 285.74 141.14 288.635C140.125 294.104 139.952 299.697 138.888 305.154C138.714 306.07 139.37 306.466 139.568 307.134C138.739 308.248 137.489 308.198 136.314 308.297C132.664 308.619 129.013 308.928 125.351 308.582V308.569Z" fill="#A763DF"/>
<path d="M195.225 175.972C196.945 179.981 198.826 183.928 200.521 187.937C203.466 194.904 208.107 200.051 214.677 203.813C222.844 208.49 231.258 212.004 240.847 211.905C245.129 211.856 249.175 210.816 253.159 209.294C255.411 208.441 257.762 207.933 260.25 208.577C264.58 209.69 267.34 213.093 267.612 217.511C267.872 221.767 266.647 225.603 264.568 229.204C263.269 231.456 261.747 233.584 260.324 235.774C256.735 234.797 253.11 235.502 249.509 235.626C244.498 235.799 239.598 234.822 234.623 234.586C228.387 234.289 222.213 233.287 215.964 233.102C213.093 233.015 210.21 232.706 207.339 232.285C202.6 231.58 197.787 231.716 193.035 232.136C188.568 232.532 184.176 232.013 179.746 231.938C178.632 231.926 177.679 231.382 176.788 230.775C175.947 230.256 175.514 229.427 175.143 228.548C169.018 214.145 162.596 199.853 157.077 185.19C155.629 181.354 154.701 177.358 153.575 173.411C153.291 172.433 152.944 171.505 152.474 170.614C151.954 168.882 151.583 167.125 151.41 165.33C150.222 159.144 149.48 152.907 148.948 146.634C148.7 143.627 148.712 140.632 148.601 137.626C148.527 135.46 148.762 133.282 148.242 131.129C148.217 127.491 148.205 123.866 148.242 120.228C148.242 119.337 148.044 118.149 149.343 117.964C150.507 117.803 150.94 118.805 151.261 119.696C151.818 121.28 152.251 122.913 152.672 124.534C156.731 137.118 162.138 149.121 168.387 160.765C173.052 169.439 178.422 177.655 184.72 185.24C192.973 195.176 202.365 203.726 214.194 209.282C219.787 211.905 225.628 213.662 231.815 214.034C235.539 214.256 239.264 214.046 242.506 213.118C229.315 216.446 217.882 211.188 207.104 203.813C198.257 197.774 190.808 190.226 184.312 181.726C183.743 180.983 183.087 180.278 182.951 179.288C183.582 177.481 184.336 177.185 185.834 178.273C187.083 179.177 188.11 180.365 189.472 181.144C190.041 181.466 190.499 182.035 191.377 182.035C191.439 180.167 192.417 178.632 193.27 177.061C193.666 176.331 194.075 175.403 195.238 175.935L195.225 175.972Z" fill="#D096FB"/>
<path d="M176.665 230.132C178.583 231.456 180.686 231.691 182.938 231.357C184.349 231.146 185.685 231.802 187.121 231.765C192.355 231.666 197.576 231.171 202.811 231.295C206.634 231.382 210.359 232.26 214.17 232.458C217.511 232.631 220.864 232.681 224.205 232.978C230.515 233.522 236.814 234.252 243.124 234.822C246.737 235.143 250.4 235.217 253.988 234.784C256.278 234.512 258.356 234.45 260.311 235.787C259.458 237.606 258.196 239.276 258.282 241.429C257.243 243.446 257.602 245.723 257.082 247.826C256.154 251.588 254.879 255.114 250.759 256.438C248.074 257.305 245.327 256.933 242.666 256.08C239.548 255.077 236.43 254.038 233.324 253.011C231.79 252.504 230.218 252.281 228.597 252.318C224.663 252.392 224.081 254.521 224.032 257.465C224.032 258.059 224.18 258.653 224.267 259.247C223.722 260.324 222.695 260.163 221.792 260.151C216.323 260.101 210.99 259 205.632 258.022C202.39 257.428 199.136 256.946 196.092 255.597C191.687 253.642 188.148 250.672 185.24 246.836C181.899 242.407 179.226 237.606 176.912 232.594C176.566 231.839 176.046 231.023 176.64 230.132H176.665Z" fill="#C184EF"/>
<path d="M152.412 125.091C151.472 123.433 151.299 121.54 150.717 119.783C150.507 119.127 150.296 118.149 149.343 118.335C148.44 118.52 148.811 119.448 148.811 120.055C148.774 123.755 148.799 127.454 148.799 131.142C148.589 131.278 148.391 131.241 148.23 131.055C147.438 129.112 147.945 127.083 147.834 125.091C147.76 123.829 147.846 122.554 147.797 121.267C144.926 122.121 142.043 123.656 139.655 120.426C139.383 118.768 139.84 117.345 140.979 116.12C141.449 115.922 141.894 116.058 142.352 116.207C146.3 117.518 150.408 117.407 154.479 117.469C155.716 117.481 156.446 117.988 156.693 119.077C157.782 123.928 160.789 127.764 163.388 131.81C162.744 130.907 162.225 129.904 161.495 129.063C160.925 128.395 160.826 127.751 161.68 127.219C162.583 126.91 163.524 126.885 164.452 126.749C165.368 126.625 166.122 126.935 166.159 127.962C166.234 130.214 167.842 130.634 169.562 130.931C170.626 131.105 171.703 131.043 172.779 131.142C178.211 131.661 181.911 134.334 183.557 139.642C185.042 143.157 185.66 146.931 186.811 150.544C187.182 151.063 186.885 151.422 186.502 151.732C183.309 154.244 179.907 156.322 175.749 156.805C173.386 157.077 171.208 157.659 170.824 160.554C169.686 160.938 169.513 159.886 169.154 159.317C167.087 155.951 165.12 152.511 163.289 149.009C159.341 141.474 155.456 133.901 152.833 125.771C152.746 125.524 152.697 125.252 152.437 125.116L152.412 125.091Z" fill="#B675E9"/>
<path d="M170.602 160.628C170.614 157.597 171.443 156.656 175.279 156.248C178.954 155.865 182.109 154.429 184.869 152.115C185.487 151.596 186.638 151.633 186.762 150.519C188.643 156.359 190.511 162.212 192.429 168.04C193.307 170.701 194.285 173.324 195.213 175.972C193.134 177.16 192.54 179.239 192.021 181.354C191.885 181.911 192.33 182.703 191.674 183C191.068 183.272 190.61 182.567 190.14 182.258C188.63 181.28 187.108 180.303 185.871 178.942C184.93 177.915 183.891 177.568 183.124 179.201C182.171 179.387 181.874 178.57 181.453 178.038C177.519 173.052 174.128 167.681 170.849 162.249C170.552 161.754 170.107 161.247 170.614 160.616L170.602 160.628Z" fill="#BF82EF"/>
<path d="M183.52 139.618C182.654 138.269 181.874 136.871 180.897 135.596C178.409 132.354 174.784 131.736 171.047 131.562C169.55 131.488 168.09 131.389 166.803 130.597C166.011 130.115 165.256 129.607 165.652 128.358C166.011 127.219 165.293 126.885 164.291 127.256C163.437 127.566 162.571 127.491 161.705 127.516C161.272 125.45 162.93 125.487 164.155 125.079C166.296 124.546 168.424 123.965 170.651 124.658C171.183 124.831 171.802 124.967 171.926 125.499C172.124 126.279 171.319 126.167 170.886 126.365C170.342 126.613 169.735 126.823 169.278 127.194C168.572 127.788 167.595 128.63 167.991 129.459C168.35 130.189 169.389 129.397 170.094 129.174C171.332 128.778 172.507 128.778 173.831 128.951C176.083 129.236 178.385 129.088 180.674 129.125C181.627 132.626 182.579 136.116 183.532 139.618H183.52Z" fill="#7239B1"/>
<path d="M176.665 230.132C178.867 236.405 182.32 241.961 186.292 247.257C191.253 253.865 198.232 256.451 206.028 257.589C211.386 258.381 216.669 259.631 222.126 259.619C222.868 259.619 223.611 259.656 224.279 259.247C224.774 263.615 222.114 266.251 219.008 268.515C213.019 272.883 206.04 275.123 199.098 277.375C195.869 278.427 192.615 279.466 189.199 279.8C187.888 278.847 187.467 277.276 186.613 276.001C184.002 272.091 181.156 268.354 178.583 264.42C177.667 263.021 176.999 261.45 175.91 260.163C173.745 256.352 171.74 252.454 170.379 248.259C168.152 241.986 167.508 235.428 166.89 228.87C166.271 222.398 164.699 216.174 162.695 210.012C161.346 205.855 160.047 201.685 158.884 197.478C156.508 189.534 154.887 181.416 152.845 173.386C152.623 172.532 152.152 171.579 152.907 170.701C153.773 171.307 153.81 172.309 154.033 173.2C156.508 183.124 160.319 192.578 164.365 201.944C167.595 209.393 170.664 216.917 173.893 224.353C174.747 226.308 175.366 228.387 176.665 230.132Z" fill="#B270E8"/>
<path d="M174.66 277.387C175.019 273.687 175.39 269.988 175.712 266.288C175.836 264.89 175.799 263.492 175.885 262.093C175.935 261.388 175.613 260.608 176.294 260.027C177.778 261.598 178.595 263.603 179.783 265.372C182.79 269.876 186.279 274.071 188.828 278.884C188.977 279.169 189.063 279.503 189.175 279.8C184.324 280.741 179.61 280.728 175.366 277.672C175.168 277.523 174.883 277.486 174.648 277.387H174.66Z" fill="#9E5DD8"/>
<path d="M151.274 82.2529C154.046 76.3135 156.891 70.3988 160.962 65.2142C163.128 62.4672 165.652 60.0915 169.018 58.7922C169.278 58.8417 169.537 58.9036 169.797 58.9531C168.671 59.9554 167.533 60.9453 166.432 61.9723C165.949 62.4178 165.368 62.8137 165.343 63.5809C163.833 65.8205 164.6 68.0849 165.38 70.2998C166.333 73.0221 167.954 75.4473 168.993 78.1448C170.564 82.2282 169.822 84.3317 165.912 86.3486C164.786 86.9302 163.61 87.4251 162.336 87.6726C158.129 88.3655 153.971 88.6006 150.024 86.5466C149.393 84.8143 149.925 83.416 151.274 82.2529Z" fill="#CE96F8"/>
<path d="M177.395 84.6534C175.551 92.3375 172.866 99.7618 170.391 107.248C169.513 109.884 169.587 112.173 170.923 114.511C171.146 114.907 171.257 115.365 171.431 115.798C171.295 115.798 171.158 115.798 171.022 115.786C168.362 115.996 165.677 116.046 163.19 117.258C162.769 117.469 162.274 117.432 161.829 117.221C161.321 116.875 161.235 116.33 161.198 115.798C161.099 114.536 160.455 113.67 159.354 113.113C159.193 111.48 160.814 112.593 161.247 111.876C161.495 111.504 161.853 111.467 162.237 111.542C163.276 112.395 164.303 111.69 165.244 111.517C164.39 111.405 163.326 112.742 162.497 111.257C162.101 110.032 161.903 108.77 161.903 107.495C161.853 101.457 161.866 95.431 161.903 89.3926C161.903 88.5883 161.94 87.7716 162.559 87.1282C164.526 86.46 166.456 85.7299 168.016 84.2574C169.327 83.0077 169.711 81.6466 169.092 79.9019C168.263 77.5509 167.149 75.3483 166.06 73.1211C165.083 71.1289 164.415 69.0253 164.18 66.8104C164.044 65.5731 164.204 64.3852 165.368 63.5933C164.551 66.2165 164.972 68.6913 166.246 71.067C167.422 73.2695 168.411 75.6082 170.243 77.4024C170.614 77.2539 170.936 77.4024 171.121 77.687C172.854 80.3473 175.39 82.2653 177.407 84.6658L177.395 84.6534Z" fill="#9558CF"/>
<path d="M162.126 111.752C161.792 111.752 161.495 111.814 161.297 112.123C159.527 112.296 157.906 113.212 156.062 113.101C154.528 113.014 153.687 112.445 153.773 110.849C153.823 112.791 153.823 112.804 151.719 112.68C148.081 112.482 145.446 110.515 143.256 107.805C140.496 104.402 138.566 100.455 136.215 96.7797C135.485 96.7302 135.708 94.3915 134.309 95.9877C134.173 93.5501 132.8 91.8301 131.018 90.3453C130.907 88.5758 129.335 86.9178 130.622 85.0493C134 89.8503 137.725 91.261 142.439 89.6647C143.788 89.2069 144.679 88.2417 145.693 87.388C146.151 87.4993 146.361 87.8458 146.46 88.2418C147.735 92.82 149.096 97.3612 150.371 101.952C150.259 101.259 150.123 100.566 149.851 99.935C148.391 96.5446 148.514 92.9809 148.7 89.4296C148.762 88.2789 148.737 86.9549 150.024 86.2619C154.12 87.6726 158.302 87.8705 162.534 87.1034C162.67 95.3072 162.15 103.511 162.918 111.702C162.658 111.962 162.398 111.95 162.138 111.727L162.126 111.752Z" fill="#AA6AE0"/>
<path d="M145.582 87.4869C145.545 89.4791 143.862 89.7018 142.55 90.1844C138.541 91.6445 134.346 90.5804 131.711 87.5859C131.067 86.8559 130.597 86.0763 130.634 85.0617C131.946 80.4463 133.74 76.0288 135.868 71.7351C136.19 71.0793 136.45 70.3988 136.735 69.7182C138.059 67.8003 139.383 65.8823 140.818 63.8159C141.536 65.276 140.657 66.8351 141.449 68.1096C142.278 71.698 142.513 75.3978 143.614 78.9367C144.233 80.9041 145.136 82.7849 145.582 84.8018C145.78 85.6804 146.275 86.5837 145.594 87.4746L145.582 87.4869Z" fill="#D29CFB"/>
<path d="M145.582 87.4871C144.295 82.0303 142.402 76.7095 141.758 71.1042C141.647 70.1143 141.536 69.112 141.424 68.1221C141.709 65.8577 141.115 63.5315 141.944 61.3042C142.773 62.2694 141.87 63.2098 141.845 64.1502C141.672 69.3719 142.6 74.4204 143.998 79.3947C144.654 81.7085 146.584 82.6613 149.442 82.2159C150.049 82.1169 150.68 81.4611 151.261 82.253C150.779 83.577 150.197 84.8639 149.999 86.2868C148.576 90.5558 148.861 94.8247 149.888 99.1061C150.185 100.331 150.519 101.531 150.705 102.781C148.502 97.8439 147.166 92.6222 145.557 87.4871H145.582Z" fill="#592876"/>
<path d="M128.976 268.911C128.976 274.937 128.976 280.963 128.976 286.989C128.976 287.571 129.125 288.202 128.642 288.709C128.642 282.943 128.617 277.165 128.642 271.398C128.642 270.334 128.395 269.728 127.392 269.035C124.893 267.315 123.532 264.58 123.396 261.66C122.913 250.709 120.772 240.031 118.496 229.352C118.446 229.092 118.471 228.82 118.459 228.548C118.038 227.385 118.706 227.62 119.349 227.855C121.416 228.61 122.443 227.966 122.74 225.665C123.123 222.683 123.346 219.676 123.829 216.694C124.571 212.128 125.487 207.599 126.563 203.095C129.781 190.301 134.606 178.026 138.714 165.516C141.449 157.213 143.775 148.799 145.891 140.323C146.51 138.009 147.03 135.67 147.5 133.319C147.648 132.552 147.723 131.723 148.391 131.154C148.527 131.154 148.651 131.154 148.787 131.154C149.282 133.319 149.244 135.522 149.133 137.712C148.737 141.177 149.108 144.679 148.601 148.131C146.485 162.324 143.466 176.294 138.516 189.818C135.769 197.329 132.429 204.629 130.337 212.375C128.531 219.082 127.566 225.912 127.083 232.842C126.514 240.959 127.553 248.915 128.877 256.859C129.372 260.868 129.372 264.89 128.976 268.911Z" fill="#B474E6"/>
<path d="M170.602 160.628C173.472 166.011 176.863 171.059 180.501 175.947C181.33 177.061 181.998 178.323 183.124 179.214C192.478 192.033 203.701 202.699 218.154 209.641C223.611 212.264 229.402 213.687 235.415 213.835C238.026 213.897 240.724 213.539 243.322 212.833C241.219 213.873 238.954 214.182 236.665 214.38C224.044 215.432 213.353 210.42 203.318 203.565C194.805 197.75 187.875 190.263 181.59 182.171C173.881 172.26 167.681 161.433 162.361 150.111C158.772 142.464 155.419 134.693 152.796 126.65C152.635 126.143 152.548 125.611 152.425 125.103C153.105 124.806 153.043 125.499 153.117 125.747C155.827 133.629 159.663 140.991 163.511 148.354C165.702 152.548 167.954 156.731 170.614 160.653L170.602 160.628Z" fill="#A76BDB"/>
<path d="M128.234 256.723C127.813 253.741 127.306 250.771 126.984 247.789C126.464 242.939 126.18 238.088 126.464 233.176C126.798 227.335 127.64 221.594 128.84 215.902C130.399 208.453 133.431 201.474 136.19 194.421C140.793 182.654 144.072 170.527 146.386 158.129C147.599 151.608 148.626 145.075 148.849 138.43C148.849 138.182 149.034 137.947 149.133 137.712C149.146 147.054 150.47 156.273 151.93 165.479C151.2 166.234 151.323 167.298 150.915 168.176C150.692 168.671 150.655 169.599 149.702 168.869C149.306 167.978 149.529 167.001 149.331 166.085C149.158 165.293 148.985 164.316 148.007 164.316C147.178 164.316 147.228 165.293 147.067 165.9C145.817 170.639 144.629 175.403 143.429 180.167C141.4 188.21 138.665 195.993 135.695 203.714C131.241 215.333 128.84 227.298 129.137 239.771C129.199 242.184 129.038 244.609 129.187 247.034C129.211 249.571 129.248 252.095 129.174 254.632C129.15 255.411 129.409 256.438 128.221 256.748L128.234 256.723Z" fill="#A76DC0"/>
<path d="M150.024 169.129C150.531 168.275 150.606 167.31 150.865 166.382C150.989 165.924 150.977 165.058 151.93 165.467C152.251 167.211 152.573 168.956 152.907 170.701C154.751 179.251 156.817 187.752 159.106 196.203C159.205 196.587 159.255 196.995 159.317 197.378C159.242 197.948 159.032 198.393 158.352 198.368C158.017 198.257 157.807 198.01 157.634 197.713C156.273 195.337 155.877 195.188 153.365 195.906C151.571 196.413 149.789 197.156 147.933 196.03C147.388 195.696 146.931 196.092 146.473 196.401C145.978 196.735 145.433 197.131 144.938 196.389C144.716 195.461 145.149 194.681 145.458 193.864C148.069 186.947 149.702 179.857 149.43 172.396C149.393 171.295 149.121 170.082 150.024 169.129Z" fill="#7A3CB5"/>
<path d="M148.391 131.142C147.945 134.297 147.376 137.415 146.337 140.434C146.027 140.707 145.668 140.954 145.26 140.917C142.179 140.694 139.296 141.61 136.363 142.315C135.015 142.649 133.691 142.501 132.528 141.635C134.705 134.396 137.143 127.256 139.853 120.203C141.412 121.911 143.268 122.109 145.421 121.49C146.213 121.267 146.992 121.329 147.215 120.302C147.302 119.919 147.537 119.486 148.032 119.684C148.49 119.857 148.354 120.364 148.354 120.735C148.378 124.2 148.378 127.677 148.378 131.142H148.391Z" fill="#D096FB"/>
<path d="M132.528 141.635C134.272 141.746 136.165 142.327 137.725 141.523C140.533 140.088 143.441 140.533 146.349 140.422C144.344 149.294 141.783 158.017 138.925 166.654C135.559 176.825 131.81 186.861 128.704 197.131C128.11 199.098 127.9 201.177 126.972 203.046C124.819 204.035 122.629 203.206 120.475 203.07C118.582 202.947 116.776 202.786 114.982 203.553C114.004 203.974 113.138 203.875 112.829 202.625C112.111 200.113 112.395 197.576 112.606 195.04C113.571 183.52 118.186 173.163 123.037 162.905C126.242 156.112 129.756 149.455 132.132 142.29C132.218 142.043 132.404 141.832 132.54 141.61L132.528 141.635Z" fill="#D59DFE"/>
<path d="M112.816 202.65C113.274 202.959 113.596 203.776 114.301 203.293C117.048 201.425 120.005 202.749 122.864 202.687C124.225 202.662 125.598 202.922 126.959 203.058C126.229 206.795 125.474 210.519 124.794 214.256C124.089 218.055 123.507 221.891 123.371 225.751C123.309 227.558 122.072 228.325 121.045 229.29C120.364 229.934 120.104 228.857 119.622 228.659C119.263 228.523 118.978 227.286 118.471 228.523C116.986 222.522 115.489 216.508 114.041 210.495C113.422 207.908 112.742 205.335 112.816 202.637V202.65Z" fill="#C588F2"/>
<path d="M136.227 96.792C137.947 98.6604 139.259 100.813 140.583 102.954C142.377 105.85 144.134 108.819 147.153 110.675C148.589 111.566 150.123 112.086 151.868 112.222C153.377 112.333 154.058 112.16 153.278 110.242C154.194 113.323 156.384 112.68 158.314 112.358C159.317 112.197 160.319 112.21 161.309 112.123C160.938 113.15 159.713 112.061 159.28 112.952C158.488 113.756 157.411 113.62 156.446 113.732C152.647 114.152 148.836 114.239 145.037 113.583C144.184 113.435 143.293 113.336 142.736 112.531C142.34 111.937 141.956 112.395 141.573 112.544C140.533 107.037 138.665 101.816 136.227 96.792Z" fill="#6F3AAE"/>
<path d="M162.101 233.374C161.915 239.375 162.942 245.29 163.375 251.254C163.388 251.489 163.598 251.712 163.722 251.947C164.229 257.564 164.761 263.195 165.244 268.812C165.343 269.938 165.281 271.077 165.293 272.203C163.326 270.953 161.544 269.431 159.416 268.416C156.025 266.795 152.486 266.337 148.886 267.327C145.409 268.28 142.055 268.243 138.714 266.931C137.997 265.768 138.516 264.58 138.677 263.417C139.655 256.253 141.004 249.15 142.476 242.073C142.526 241.813 142.526 241.54 142.513 241.268C142.674 238.125 143.404 235.044 143.404 231.889C143.404 231.307 143.515 230.664 144.245 230.441C144.963 233.225 147.017 233.51 149.529 233.72C152.524 233.98 155.394 233.733 158.277 233.102C159.564 232.817 160.901 232.384 162.126 233.361L162.101 233.374Z" fill="#A967E1"/>
<path d="M142.736 112.519C148.217 113.88 153.749 113.336 159.28 112.94C161.457 113.15 161.742 113.62 161.693 116.986C156.075 117.84 150.445 117.629 144.839 116.899C141.833 116.503 141.325 115.278 142.736 112.519Z" fill="#B675E9"/>
<path d="M162.126 111.752C162.385 111.752 162.645 111.74 162.905 111.727C163.969 111.851 164.959 110.997 166.481 111.628C164.749 111.628 163.524 112.754 162.126 111.752Z" fill="#6F3AAE"/>
<path d="M144.332 230.528C144.592 222.967 143.8 215.494 142.785 208.02C142.229 203.986 143.713 200.261 145.174 196.586C145.891 196.586 146.188 196.079 146.522 195.547C146.844 195.027 147.475 194.743 147.871 195.201C149.306 196.896 151.014 196.005 152.511 195.646C156.632 194.644 156.619 194.545 158.5 198.207C158.946 201.239 159.366 204.271 159.849 207.302C161.222 215.939 162.757 224.564 162.126 233.386C159.663 233.052 157.362 233.98 155.011 234.376C151.892 234.908 148.898 234.153 145.866 233.881C143.676 233.683 144.567 231.802 144.369 230.54L144.332 230.528Z" fill="#8749C3"/>
<path d="M57.5425 82.7106C60.1039 82.6982 62.6529 82.7477 65.2019 82.6363C66.6744 82.5745 67.0332 83.3293 67.1322 84.579C67.3178 86.93 66.8847 89.2563 66.8228 91.5949C66.4269 93.451 65.3009 94.8988 64.1872 96.3465C62.195 97.4354 60.9329 96.4207 59.8564 94.8493C58.1365 92.3374 57.5301 89.5038 57.4806 86.5093C57.4559 85.2472 57.5178 83.9727 57.5301 82.6982L57.5425 82.7106Z" fill="#FDF5C7"/>
</g>
<defs>
<clipPath id="clip0_5830_10169">
<rect width="267.298" height="310" fill="white" transform="translate(0.350952 0.35083)"/>
</clipPath>
</defs>
</svg>
