<svg id="Layer_1" enable-background="new 0 0 512.186 512.186" height="512" viewBox="0 0 512.186 512.186" width="512" xmlns="http://www.w3.org/2000/svg"><g><path d="m188.03 47.623c.188.052 18.81 5.53 22.896 30.954 1.509 9.389 16.363 7.282 14.811-2.38-5.594-34.803-32.53-42.703-33.675-43.022-9.341-2.608-13.372 11.841-4.032 14.448z"/><path d="m250.534 296.889c.188.052 18.81 5.53 22.896 30.954 1.509 9.389 16.363 7.282 14.811-2.38-5.594-34.803-32.53-42.703-33.675-43.022-9.341-2.61-13.372 11.841-4.032 14.448z"/><path d="m112.431 187.089c1.509 9.389 16.363 7.282 14.811-2.38-5.594-34.803-32.53-42.703-33.675-43.022-9.341-2.607-13.371 11.841-4.031 14.448.187.053 18.809 5.531 22.895 30.954z"/><path d="m493.989 464.226v-250.559c10.415-2.792 18.104-12.299 18.104-23.564s-7.691-20.766-18.104-23.56v-15.892c0-13.597-10.505-24.78-23.823-25.878-.32-35.403-22.516-67.577-56.264-79.066 3.294-10.551 4.165-23.439-1.961-33.246-10.378-16.617-39.161-16.612-49.538.001-6.127 9.808-5.258 22.695-1.967 33.244-32.88 11.196-57.334 44.048-56.264 79.244-12.554 1.821-22.229 12.651-22.229 25.701v15.521c-11.214 2.21-19.698 12.098-19.698 23.931 0 11.265 7.689 20.772 18.104 23.564v45.986c-11.906-7.228-25.867-11.394-40.783-11.394-21.112 0-40.297 8.359-54.462 21.921v-70.57c18.025-3.415 35.506-19.036 49.898-44.851 13.372-23.984 22.012-53.486 22.012-75.159 0-43.789-35.623-79.414-79.41-79.414s-79.41 35.625-79.41 79.414c0 9.263 1.583 20.073 4.542 31.447-17.611-5.594-37.422-4.696-54.451 2.493-8.934 3.772-3.099 17.59 5.834 13.819 7.854-3.316 16.199-4.997 24.805-4.997 34.686 0 63.83 29.135 63.83 63.834 0 31.588-23.149 104.812-63.83 104.812-40.777 0-63.83-73.528-63.83-104.812 0-12.792 3.768-25.132 10.896-35.685 5.427-8.036-7-16.431-12.43-8.396-8.811 13.042-13.467 28.285-13.467 44.082 0 38.727 29.682 111.126 71.33 119.084v199.406c0 9.697 15 9.697 15 0v-199.398c43.652-8.325 67.261-71.788 70.88-110.178 4.223 2.193 8.497 3.702 12.801 4.511v90.238c-14.283 26.54-9.725 56.64 0 83.912v130.914c0 9.697 15 9.697 15 0v-98.823c12.237 20.447 28.411 36.77 46.962 40.314v58.508c0 9.697 15 9.697 15 0v-58.499c11.548-2.202 22.868-9.448 33.283-21.201v39.241c-26.514 7.109-21.292 47.96 6.335 47.96h132.463c9.697 0 9.697-15 0-15h-132.463c-13.796 0-13.591-18.791 1.165-18.791 4.143 0 7.5-3.358 7.5-7.5v-67.104c13.098-22.709 23.047-50.194 23.047-76.697 0-21.705-8.818-41.388-23.058-55.658.002-.073.011-.145.011-.218v-64.219c0-4.142-3.357-7.5-7.5-7.5h-1.165c-5.205 0-9.439-4.215-9.439-9.396s4.234-9.396 9.439-9.396h200.97c5.205 0 9.439 4.215 9.439 9.396s-4.234 9.396-9.439 9.396c-4.157.141-8.665 2.59-8.665 7.5v28.953h-29.716c-9.697 0-9.697 15 0 15h29.716v22.989h-50.591c-9.697 0-9.697 15 0 15h50.591v22.989h-29.716c-9.697 0-9.697 15 0 15h29.716v22.989h-50.591c-9.697 0-9.697 15 0 15h50.591v22.989h-29.716c-9.697 0-9.697 15 0 15h29.716v22.989h-50.591c-9.697 0-9.697 15 0 15h50.591v22.498h-158.896c-9.697 0-9.697 15 0 15h166.396c11.265 1.542 14.787 18.791 1.165 18.791h-24.988c-9.697 0-9.697 15 0 15h24.988c27.4 0 33.077-40.789 6.335-47.96zm-336.753-286.941c-2.746-24.286-16.566-45.252-36.279-57.731-4.95-14.473-7.763-28.892-7.763-39.954 0-35.518 28.895-64.414 64.41-64.414s64.41 28.896 64.41 64.414c0 19.008-8.083 46.276-20.112 67.854-13.418 24.068-29.564 37.871-44.298 37.871-6.626.001-13.479-2.705-20.368-8.04zm146.16 149.809c0 18.845-8.015 45.882-19.942 67.278-13.299 23.854-29.295 37.534-43.888 37.534s-30.589-13.681-43.888-37.534c-11.928-21.396-19.942-48.433-19.942-67.278 0-35.198 28.634-63.834 63.83-63.834s63.83 28.636 63.83 63.834zm15.776-203.01c0-15.687 5.219-30.411 15.092-42.58 9.598-11.83 23.031-20.185 37.825-23.524 5.118-1.894 6.814-5.429 5.089-10.606-4.881-9.999-5.726-21.087-2.054-26.965 4.528-7.25 19.606-7.189 24.095-.001 3.67 5.876 2.823 16.965-2.06 26.966-1.725 5.177-.029 8.712 5.089 10.606 14.794 3.34 28.228 11.694 37.825 23.524 9.873 12.168 15.092 26.893 15.092 42.58v.593h-135.993zm159.817 41.623h-182.046v-15.056c0-6.051 4.923-10.975 10.975-10.975h160.097c6.052 0 10.975 4.923 10.975 10.975v15.056z"/></g></svg>