<svg id="_x33_0" enable-background="new 0 0 48 62" height="512" viewBox="0 0 48 62" width="512" xmlns="http://www.w3.org/2000/svg"><g><circle cx="17" cy="23" r="1"/><circle cx="26" cy="21" r="1"/><path d="m27 28.508v-1.625l-11.248 1.25.427 1.708c.612 2.449 2.804 4.16 5.329 4.16 3.028-.001 5.492-2.465 5.492-5.493zm-8.711 1.355 6.657-.739c-.292 1.632-1.722 2.876-3.438 2.876-1.425 0-2.682-.856-3.219-2.137z"/><path d="m21.105 25.553 1.79.894 1.322-2.644-2.51-2.51-1.414 1.414 1.49 1.49z"/><path d="m42.094 48c-.717 0-1.405.202-2.008.565-.585-.351-1.261-.565-1.992-.565-1.588 0-3.004.956-3.606 2.405l-3.451-2.464c.434-.041.866-.102 1.294-.187l6.263-1.253c1.974-.395 3.406-2.142 3.406-4.154 0-.013-.004-.025-.004-.038 1.22-.68 2.004-1.969 2.004-3.404 0-2.153-1.752-3.905-3.906-3.905h-1.094v-1.056c2.355-.233 4.529-1.276 6.192-2.996 1.856-1.921 2.853-4.45 2.807-7.121s-1.129-5.164-3.05-7.02c-1.891-1.826-4.359-2.806-6.994-2.802.015-.154.045-.307.045-.465 0-1.951-1.243-3.675-3.093-4.292l-.087-.029c-.746-2.288-2.758-3.916-5.133-4.181-.891-1.842-2.762-3.038-4.849-3.038h-1.424l-.293-.293c-1.1-1.101-2.564-1.707-4.121-1.707s-3.021.606-4.121 1.707l-.293.293h-1.424c-2.085 0-3.955 1.194-4.846 3.033-2.926.285-5.406 2.377-6.188 5.306-1.322.82-2.128 2.252-2.128 3.832 0 .696.165 1.394.476 2.018l.406.811-.366.731c-.337.676-.516 1.432-.516 2.187 0 1.638.814 3.159 2.177 4.068l.862.575c.252 1.787 1.694 3.183 3.494 3.395.688 1.214 1.976 2.044 3.467 2.044h.426c.735 2.588 2.391 4.787 4.596 6.221-1.324 2.376-2.022 5.044-2.022 7.779v.145c-1.155.367-2 1.442-2 2.747 0 .946.354 1.837 1 2.52v4.921c0 4.228 3.439 7.667 7.667 7.667 2.4 0 4.693-1.146 6.133-3.067l.613-.816 7.79 1.73c.455.101.922.153 1.39.153.676 0 1.327-.107 1.939-.302l.671.148c.455.102.922.154 1.39.154 3.533 0 6.407-2.874 6.407-6.406v-1.688c0-2.154-1.752-3.906-3.906-3.906zm-2-11c1.051 0 1.906.854 1.906 1.905 0 .508-.219.966-.576 1.32-.529-.936-1.387-1.649-2.424-1.99v-1.235zm-8.102-17h.008c1.103 0 2 .897 2 2s-.897 2-2 2v-3.901c0-.033-.007-.066-.008-.099zm-.849 11.254c1.601 1.511 3.657 2.464 5.857 2.686v1.043c-2.516-.036-4.993-.429-7.393-1.153.621-.781 1.143-1.644 1.536-2.576zm-3.093 4.179c2.89.985 5.894 1.51 8.95 1.55v1.03c-.11.005-.219.007-.331.02l-7.313.914c-.902-.872-1.879-1.665-2.887-2.417.559-.321 1.089-.685 1.581-1.097zm15.703-5.874c-1.484 1.537-3.479 2.404-5.615 2.44-2.465.051-4.79-1.063-6.335-2.961.125-.662.197-1.341.197-2.038v-1c1.005 0 1.914-.385 2.618-1h11.311c-.212 1.709-.958 3.298-2.176 4.559zm-5.891-13.558c2.16-.031 4.16.761 5.697 2.245 1.328 1.283 2.152 2.947 2.376 4.753h-2.935v-4h-2v4h-2v-4h-2v4h-1.142c.084-.321.142-.652.142-.999 0-.932-.334-1.78-.871-2.461.46-.613.767-1.335.848-2.102l.698-.698c.212-.212.4-.442.564-.686.207-.019.415-.048.623-.052zm-31.835 9.735c-.61-.343-1.027-.988-1.027-1.736v-.535l-1.713-1.142c-.806-.537-1.287-1.436-1.287-2.405 0-.446.105-.894.305-1.292l.813-1.626-.853-1.705c-.173-.348-.265-.736-.265-1.124 0-.958.532-1.819 1.447-2.276l.437-.219.116-.577c.475-2.375 2.578-4.099 5-4.099h.721l.228-.684c.462-1.385 1.753-2.316 3.213-2.316h2.252l.879-.879c1.446-1.446 3.968-1.446 5.414 0l.879.879h2.252c1.46 0 2.751.931 3.213 2.316l.228.684h.721c1.896 0 3.54 1.284 4 3.122l.163.653 1.112.371c1.032.343 1.725 1.306 1.725 2.394 0 .674-.263 1.308-.739 1.785l-1.261 1.261v.414c0 .477-.165.936-.442 1.316-.479-.203-1.006-.316-1.558-.316h-.321c-.579-1.884-1.922-3.472-3.716-4.359-.184-2.035-1.88-3.641-3.963-3.641h-.146c-1.524 0-2.896.847-3.578 2.211l-.171.342 1.789.895.171-.342c.341-.682 1.027-1.106 1.789-1.106h.146c1.103 0 2 .897 2 2s-.897 2-2 2h-1.395c-.892 0-1.776-.113-2.639-.328-.169-2.05-1.873-3.672-3.966-3.672h-.146c-1.524 0-2.896.847-3.578 2.211l-.171.342 1.789.895.171-.342c.341-.682 1.027-1.106 1.789-1.106h.146c1.103 0 2 .897 2 2s-.897 2-2 2h-1.395c-2.161 0-4.253-.633-6.051-1.832l-1.109 1.664c.932.622 1.935 1.107 2.979 1.465-.257.878-.392 1.783-.413 2.703h-.011c-2.115 0-3.835 1.656-3.973 3.736zm3.973 2.264c-1.103 0-2-.897-2-2s.897-2 2-2v3c0 .338.021.67.051 1zm2-1v-4.764c0-.832.121-1.65.359-2.44.738.13 1.488.204 2.246.204h1.395c1.615 0 3.001-.966 3.632-2.347.973.23 1.969.347 2.973.347h1.395c1.587 0 2.95-.936 3.595-2.279 1.466.948 2.405 2.59 2.405 4.378v6.901c0 4.962-4.038 9-9 9s-9-4.038-9-9zm4.79 10.159c1.298.54 2.719.841 4.21.841 1.179 0 2.313-.191 3.378-.536 1.399.959 2.717 2.045 3.915 3.243l.346.346 8.274-1.034c.098-.012.197-.019.295-.019h.444c1.295 0 2.348 1.053 2.348 2.347 0 1.063-.756 1.984-1.798 2.193l-6.262 1.253c-.69.138-1.396.207-2.098.207-2.855 0-5.54-1.112-7.56-3.131l-1.576-1.576-1.414 1.414 1.576 1.576c.817.816 1.73 1.497 2.707 2.054-.583.174-1.147.406-1.674.713l-.132-.197c-.772-1.161-2.066-1.853-3.46-1.853-.692 0-1.358.168-1.952.483-.307-.562-.793-.97-1.357-1.219v-.264c0-2.406.619-4.752 1.79-6.841zm2.877 22.841c-3.125 0-5.667-2.542-5.667-5.667v-5.748l-.507-.506c-.318-.316-.493-.737-.493-1.225 0-.471.383-.854.854-.854.326 0 .619.181.764.473l1.106 2.211 1.058-1.051c.919-.92 2.602-.755 3.324.329l.207.311c-.004.005-.009.009-.013.014l-4.007 4.007 1.414 1.414 4.007-4.007c.067-.067.148-.115.217-.179l2.931 7.328-.662.883c-1.064 1.419-2.759 2.267-4.533 2.267zm14.97-2.105-7.905-1.756-3.086-7.715c.682-.275 1.416-.424 2.173-.424 1.217 0 2.384.374 3.375 1.081l6.326 4.52.767-2.297c.26-.78.986-1.304 1.808-1.304 1.05 0 1.905.854 1.905 1.905v1.688c0 2.43-1.977 4.407-4.407 4.407-.322 0-.643-.035-.956-.105zm9.363-4.301c0 2.189-1.609 3.996-3.704 4.335 1.054-1.142 1.704-2.663 1.704-4.335v-1.688c0-.657-.179-1.268-.467-1.812.181-.057.368-.094.561-.094 1.051 0 1.906.854 1.906 1.905z"/></g></svg>