<?xml version="1.0"?>
<svg xmlns="http://www.w3.org/2000/svg" id="Layer_1" data-name="Layer 1" viewBox="0 0 1000 1000"><path d="M789.07,409.37c-33.52,0-66.4-27.26-92.59-76.76-20.86-39.45-34.35-87.21-34.35-121.68a126.94,126.94,0,0,1,253.87,0c0,34.47-13.48,82.23-34.35,121.68C855.47,382.11,822.59,409.37,789.07,409.37Zm0-293.37a95,95,0,0,0-94.94,94.93c0,29.19,12.31,72.08,30.64,106.72,20.07,38,43.51,59.72,64.3,59.72s44.22-21.77,64.3-59.72C871.69,283,884,240.12,884,210.93A95,95,0,0,0,789.07,116Z"/><path d="M753.67,310.09a16,16,0,0,1-14.39-9c-17.07-35-24.71-70.5-24.71-90.17a74.58,74.58,0,0,1,74.5-74.49,16,16,0,0,1,0,32,42.54,42.54,0,0,0-42.5,42.49c0,12.92,5.72,43.85,21.47,76.14a16,16,0,0,1-14.37,23Z"/><path d="M829.45,455.7H748.67a16,16,0,0,1-14.46-22.85l23.41-49.41a16,16,0,0,1,28.92,13.7L774,423.7h30.21l-12.58-26.56a16,16,0,1,1,28.92-13.7l23.4,49.41a16,16,0,0,1-14.46,22.85Z"/><path d="M210.93,409.37c-33.52,0-66.4-27.26-92.58-76.76C97.48,293.16,84,245.4,84,210.93a126.94,126.94,0,0,1,253.87,0c0,34.47-13.49,82.23-34.35,121.68C277.33,382.11,244.45,409.37,210.93,409.37Zm0-293.37A95,95,0,0,0,116,210.93c0,29.19,12.31,72.08,30.63,106.72,20.08,38,43.52,59.72,64.3,59.72s44.23-21.77,64.3-59.72c18.33-34.64,30.64-77.53,30.64-106.72A95,95,0,0,0,210.93,116Z"/><path d="M175.54,310.09a16,16,0,0,1-14.39-9c-17.07-35-24.71-70.5-24.71-90.17a74.58,74.58,0,0,1,74.49-74.49,16,16,0,0,1,0,32,42.54,42.54,0,0,0-42.49,42.49c0,12.92,5.71,43.85,21.47,76.14a16,16,0,0,1-7.37,21.39A15.8,15.8,0,0,1,175.54,310.09Z"/><path d="M251.32,455.7H170.54a16,16,0,0,1-14.46-22.85l23.41-49.41a16,16,0,1,1,28.92,13.7L195.83,423.7H226l-12.58-26.56a16,16,0,0,1,28.92-13.7l23.4,49.41a16,16,0,0,1-14.46,22.85Z"/><path d="M500,916c-111.43,0-202.08-90.65-202.08-202.08V422.35c0-111.43,90.65-202.08,202.08-202.08s202.08,90.65,202.08,202.08V713.92C702.08,825.35,611.43,916,500,916Zm0-663.73c-93.78,0-170.08,76.3-170.08,170.08V713.92C329.92,807.7,406.22,884,500,884s170.08-76.3,170.08-170.08V422.35C670.08,328.57,593.78,252.27,500,252.27Z"/><path d="M320,777.25a16,16,0,0,1-11.06-27.56c40.15-38.44,69.7-51.68,103.9-67,25.76-11.55,55-24.64,95.06-51.86l.15-.1c.37-.24.73-.5,1.1-.75l.14-.1.44-.3.15-.1c64.33-44,86.81-76.26,110.6-110.36,14.6-20.92,29.69-42.55,54.49-66.47a16,16,0,0,1,22.21,23c-22.56,21.75-36.11,41.17-50.45,61.74C622.34,572.36,597.13,608.5,528,655.81c-.14.1-.28.2-.43.29l-.08.06-.19.14-1.54,1c-42.38,28.77-72.92,42.46-99.87,54.54-32.8,14.7-58.7,26.31-94.87,60.93A15.93,15.93,0,0,1,320,777.25Z"/><path d="M518.9,658.67a16,16,0,0,1-7.92-2.1c-66-37.69-93.32-69.52-119.72-100.31-21.9-25.53-42.59-49.65-85.94-77.3a16,16,0,0,1,17.21-27c47.35,30.2,70.56,57.27,93,83.45,25.76,30,50.09,58.4,111.29,93.34a16,16,0,0,1-7.94,29.9Z"/><path d="M500,539.09A126.1,126.1,0,1,1,626.09,413,126.24,126.24,0,0,1,500,539.09Zm0-220.19A94.1,94.1,0,1,0,594.09,413,94.2,94.2,0,0,0,500,318.9Z"/><path d="M474,406.29a16,16,0,0,1-11.31-4.68,3.07,3.07,0,0,0-4.36,0A16,16,0,0,1,435.75,379a35.11,35.11,0,0,1,49.61,0A16,16,0,0,1,474,406.29Z"/><path d="M552.94,406.29a16,16,0,0,1-11.31-4.68,3.07,3.07,0,0,0-4.36,0A16,16,0,1,1,514.64,379a35.11,35.11,0,0,1,49.61,0,16,16,0,0,1-11.31,27.31Z"/><path d="M500,487.18a65.57,65.57,0,0,1-46.54-19.25,16,16,0,0,1,22.62-22.62,33.88,33.88,0,0,0,47.84,0,16,16,0,1,1,22.62,22.62A65.57,65.57,0,0,1,500,487.18Z"/><path d="M482.77,361a16,16,0,0,1-4.52-31.35c4.6-1.35,7.48-3.25,8.58-5.64,2-4.27-.06-11.52-1.34-14.36l.06.13L514.45,296c1,2.21,10,22.16,1.62,41-3.49,7.81-11.31,18.19-28.77,23.34A16.16,16.16,0,0,1,482.77,361Z"/><path d="M218.43,799.82a16,16,0,0,1-16-16c0-15.91-2.05-23.33-4.42-31.91-2.61-9.45-5.58-20.17-5.58-40.43s3-31,5.58-40.44c2.37-8.59,4.42-16,4.42-31.91s-2.05-23.32-4.42-31.91c-2.61-9.46-5.58-20.18-5.58-40.44s3-31,5.58-40.43c2.37-8.58,4.42-16,4.42-31.91s-2.05-23.33-4.42-31.91a137.59,137.59,0,0,1-4.45-20.82,16,16,0,0,1,31.75-4A106.05,106.05,0,0,0,228.86,454c2.61,9.45,5.57,20.17,5.57,40.43s-3,31-5.58,40.43c-2.37,8.58-4.42,16-4.42,31.91s2,23.33,4.42,31.92c2.62,9.46,5.58,20.18,5.58,40.43s-3,31-5.58,40.43c-2.37,8.59-4.42,16-4.42,31.92s2,23.33,4.42,31.91c2.62,9.45,5.58,20.17,5.58,40.43A16,16,0,0,1,218.43,799.82Z"/><path d="M781.57,799.82a16,16,0,0,1-16-16c0-20.26,3-31,5.58-40.43,2.37-8.58,4.42-16,4.42-31.91s-2.05-23.33-4.42-31.92c-2.62-9.46-5.58-20.18-5.58-40.43s3-31,5.58-40.43c2.37-8.59,4.42-16,4.42-31.92s-2.05-23.33-4.42-31.91c-2.62-9.45-5.58-20.17-5.58-40.43s3-31,5.57-40.43a106.05,106.05,0,0,0,3.55-16.32,16,16,0,0,1,31.75,4A137.59,137.59,0,0,1,802,462.53c-2.37,8.58-4.42,16-4.42,31.91s2,23.33,4.42,31.91c2.61,9.45,5.58,20.17,5.58,40.43s-3,31-5.58,40.44c-2.37,8.59-4.42,16-4.42,31.91s2,23.32,4.42,31.91c2.61,9.46,5.58,20.18,5.58,40.44s-3,31-5.58,40.43c-2.37,8.58-4.42,16-4.42,31.91A16,16,0,0,1,781.57,799.82Z"/><path d="M152.94,916a16,16,0,0,1-14-8.32l-16.47-30.11L92.32,861.1a16,16,0,0,1,0-28.08l30.11-16.47,16.47-30.11a16,16,0,0,1,28.08,0l16.47,30.11L213.56,833a16,16,0,0,1,0,28.08l-30.11,16.47L167,907.68A16,16,0,0,1,152.94,916Zm-19.6-68.94,8.56,4.68a16,16,0,0,1,6.36,6.36l4.68,8.56,4.68-8.56a16,16,0,0,1,6.36-6.36l8.56-4.68L164,842.38a16.08,16.08,0,0,1-6.36-6.36l-4.68-8.56L148.26,836a16,16,0,0,1-6.36,6.36Z"/><path d="M513.49,841.9a16,16,0,0,1-14-8.32L483,803.46,452.87,787a16,16,0,0,1,0-28.08L483,742.45l16.47-30.11a16,16,0,0,1,28.07,0L544,742.45l30.11,16.47a16,16,0,0,1,0,28.08L544,803.46l-16.47,30.12A16,16,0,0,1,513.49,841.9ZM493.9,773l8.55,4.68a16,16,0,0,1,6.36,6.36l4.68,8.56,4.68-8.56a16,16,0,0,1,6.36-6.36l8.56-4.68-8.56-4.68a16.08,16.08,0,0,1-6.36-6.36l-4.68-8.56-4.68,8.56a16,16,0,0,1-6.36,6.36Z"/><path d="M847.06,916a16,16,0,0,1-14-8.32l-16.47-30.11L786.44,861.1a16,16,0,0,1,0-28.08l30.11-16.47L833,786.44a16,16,0,0,1,28.08,0l16.47,30.11L907.68,833a16,16,0,0,1,0,28.08l-30.11,16.47L861.1,907.68A16,16,0,0,1,847.06,916Zm-19.6-68.94,8.56,4.68a16,16,0,0,1,6.36,6.36l4.68,8.56,4.68-8.56a16,16,0,0,1,6.36-6.36l8.56-4.68-8.56-4.68a16,16,0,0,1-6.36-6.36l-4.68-8.56L842.38,836a16.08,16.08,0,0,1-6.36,6.36Z"/><path d="M408.51,221.88a16,16,0,0,1-14-8.32L378,183.45,347.89,167a16,16,0,0,1,0-28.08L378,122.43l16.47-30.11a16,16,0,0,1,14-8.32h0a16,16,0,0,1,14,8.32L439,122.43l30.11,16.47a16,16,0,0,1,0,28.08L439,183.45l-16.47,30.11A16,16,0,0,1,408.51,221.88Zm-19.6-68.94,8.56,4.68a16,16,0,0,1,6.36,6.36l4.68,8.56,4.68-8.56a16.08,16.08,0,0,1,6.36-6.36l8.56-4.68-8.56-4.68a16,16,0,0,1-6.36-6.36l-4.68-8.56-4.68,8.56a16,16,0,0,1-6.36,6.36Z"/><path d="M591.49,221.88h0a16,16,0,0,1-14-8.32L561,183.45,530.87,167a16,16,0,0,1,0-28.08L561,122.43l16.47-30.11a16,16,0,0,1,28.08,0L622,122.43l30.11,16.47a16,16,0,0,1,0,28.08L622,183.45l-16.47,30.11A16,16,0,0,1,591.49,221.88Zm-19.6-68.94,8.56,4.68a16.08,16.08,0,0,1,6.36,6.36l4.68,8.56,4.68-8.56a16,16,0,0,1,6.36-6.36l8.56-4.68-8.56-4.68a16,16,0,0,1-6.36-6.36l-4.68-8.56-4.68,8.56a16,16,0,0,1-6.36,6.36Z"/></svg>
