<svg id="Layer_1" enable-background="new 0 0 512 512" viewBox="0 0 512 512" xmlns="http://www.w3.org/2000/svg"><path d="m81.7 71.3c-13.5 0-24.5-11-24.5-24.5 0-7.3-11.2-7.3-11.2 0 0 13.5-11 24.5-24.5 24.5-7.3 0-7.3 11.2 0 11.2 13.5 0 24.5 11 24.5 24.5 0 7.3 11.2 7.3 11.2 0 0-13.5 11-24.5 24.5-24.5 7.3 0 7.3-11.1 0-11.2zm-30.1 16.6c-2.8-4.4-6.5-8.1-10.9-10.9 4.4-2.8 8.1-6.5 10.9-10.9 2.8 4.4 6.5 8.1 10.9 10.9-4.4 2.8-8.1 6.5-10.9 10.9zm15 230.1c-5.2 0-9.4-4.2-9.4-9.4 0-7.3-11.2-7.3-11.2 0 0 5.2-4.2 9.4-9.4 9.4-3.1 0-5.6 2.5-5.6 5.6s2.5 5.6 5.6 5.6c5.2 0 9.4 4.2 9.4 9.5 0 3.1 2.5 5.6 5.6 5.6s5.6-2.5 5.6-5.6c0-5.2 4.2-9.5 9.4-9.5 3.1 0 5.6-2.5 5.6-5.6s-2.5-5.6-5.6-5.6zm-15 6.5c-.3-.3-.6-.6-.9-.9l.9-.9.9.9c-.3.3-.7.6-.9.9zm126.4 95.2c-8.7 0-15.8-7.1-15.8-15.8 0-3.1-2.5-5.6-5.6-5.6s-5.6 2.5-5.6 5.6c0 8.7-7.1 15.8-15.8 15.8-7.3 0-7.3 11.2 0 11.2 8.7 0 15.8 7.1 15.8 15.8 0 3.1 2.5 5.6 5.6 5.6s5.6-2.5 5.6-5.6c0-8.7 7.1-15.8 15.8-15.8 3.1 0 5.6-2.5 5.6-5.6s-2.5-5.6-5.6-5.6zm-21.4 10.5c-1.4-1.9-3.1-3.5-5-5 1.9-1.4 3.5-3.1 5-5 1.4 1.9 3.1 3.5 5 5-1.9 1.5-3.6 3.2-5 5zm333.8-373.2c-5.2 0-9.4-4.2-9.4-9.4 0-3.1-2.5-5.6-5.6-5.6s-5.6 2.5-5.6 5.6c0 5.2-4.2 9.4-9.4 9.4-7.3 0-7.3 11.2 0 11.2 5.2 0 9.4 4.2 9.4 9.4 0 3.1 2.5 5.6 5.6 5.6s5.6-2.5 5.6-5.6c0-5.2 4.2-9.4 9.4-9.4 3.1 0 5.6-2.5 5.6-5.6s-2.5-5.6-5.6-5.6zm-15 6.6c-.3-.3-.6-.6-.9-.9.3-.3.6-.6.9-.9.3.3.6.6.9.9-.3.2-.6.6-.9.9zm-224.9-34.5c0-3.1 2.5-5.6 5.6-5.6 24.1 0 43.3 15 49.9 39.2 1.9 7.1-8.8 10-10.8 3-5.2-19.1-20.2-31-39.1-31-3.1 0-5.6-2.6-5.6-5.6zm123.7 180.6c31.2-11.1 52.8-44.9 52.8-83.4 1.4-57.1-50.8-94.8-101.2-75.6-10.9-30.4-37.6-49.7-69.7-49.7-49.3-1.2-82.5 47-73.4 96.7-61.1-23-119 35.8-94.9 99.8 12.7 36.3 44.2 61.2 77.3 61.4 7 7.1 14.1 10.9 20.6 11.1 5.7 24.9 16.4 47.2 31.5 66.2 13.4 14.7 15.5 33 8.8 50-8.1 23.3-4.8 44.4 10.3 69.8h-6.8c-3.1 0-5.6 2.5-5.6 5.6v24c0 13.9 11.3 25.3 25.3 25.3h22.4c13.9 0 25.3-11.3 25.3-25.3v-24c0-3.1-2.5-5.6-5.6-5.6h-9.4c5.4-23.5 14.6-42.7 28.2-58.4 11.9-14.5 24-17.4 30.5-36.2 8.6-25.4-8.9-38.1-.8-62.2 2.4-6.7 5.3-10.1 8.6-14.1 13.2-13.3 17-38.5 11-58.6 5.7-2.5 10.7-8.3 14.8-16.8zm-45.4-148.3c43.2-17 88.1 15.4 87 64.9-.2 79.4-91.4 107.6-121.6 30.5 12.2-8.4 21.5-20.1 27.6-33.4 8.9-19.3 11.3-41.3 7-62zm-72.7-49.2c42-.7 68.8 39.9 62.9 80-3.6 44.4-48.1 81.4-89.3 58.4-5.9-18.6-17.6-35.8-34.2-46.5-12.5-44.5 14.6-92.8 60.6-91.9zm6.5 156.3c-4.3 4.8-8.7 4.8-13 0 4.3.5 8.7.5 13 0zm-161.2 32.9c-17.8-38-3.5-81.5 34.1-93.9 36.6-13.6 74.2 11.3 84.1 48.6 24.1 89.4-76.8 129.4-118.2 45.3zm86.8 57.2c-2 .7-4.5.2-7.4-1.3 4.2-1 8.4-2.5 12.3-4.3-1.2 2.9-2.9 4.9-4.9 5.6zm45.4 143.4c7.7-27.4 14.1-47.1-7.4-72.5-14.4-18.2-24.3-39-29.7-62.9 5.4-4.1 8.9-11.7 10-22.1 22.1-17.7 32.1-48.5 26.6-80 .4.1.8.3 1.1.4 4.6 9.6 10.5 15.7 17.1 17.7 2.9 12.2.8 31-1.3 43-1.5 18.5 8.3 29.6 14.9 45.4 4.7 10.6 15.3 38.1 12.9 65.2-1 11.4-4.5 17-9.3 24.7-17.5 25.8-22 61.1-14 95.3h-4.8c-13.3-20-18.7-38.2-16.1-54.2zm52.1 65.4v18.4c0 7.8-6.3 14.1-14.1 14.1h-22.4c-7.8 0-14.1-6.3-14.1-14.1v-18.4zm63.1-205.2c-2.3 7.8-5.4 11.5-9 15.7-13.8 14-16.1 37.1-10.6 53.1 5.3 16.6 2.5 33.7-12.9 44.9-23.3 19.3-38.9 47.2-45.8 80.2h-4.3c-8-32.7-4.6-64.7 12-89.4 4.9-8 9.6-15.5 10.9-29.6 2.6-29.7-8.8-59.3-13.8-70.7-5.7-14-15.4-25.5-14-40 2.3-12 4.2-31.8 1.4-44.5 6-2.5 11.2-8.4 15.4-17.2 2.1-.8 4.3-1.6 6.3-2.6 8.8 22.7 25.5 40 46 47.4 4.7 9.9 10.7 16 17.6 17.9 3.6 12.7 3.9 24.4.8 34.8zm-3-48.9c4.3.4 8.7.4 13 0-4.4 4.8-8.7 4.7-13 0zm-148.7-53.9c-6.7-19.3-20.9-32.9-40.6-33.1-3.1 0-5.6-2.5-5.6-5.6s2.5-5.6 5.6-5.6c24.4.2 43 16.9 51.2 40.6 2.4 6.9-8.1 10.6-10.6 3.7zm278.3 296.7c-5.2 0-9.4-4.2-9.4-9.4 0-3.1-2.5-5.6-5.6-5.6s-5.6 2.5-5.6 5.6c0 5.2-4.2 9.4-9.4 9.4-7.3 0-7.3 11.2 0 11.2 5.2 0 9.4 4.2 9.4 9.4 0 3.1 2.5 5.6 5.6 5.6s5.6-2.5 5.6-5.6c0-5.2 4.2-9.4 9.4-9.4 3.1 0 5.6-2.5 5.6-5.6 0-3-2.5-5.6-5.6-5.6zm-15.1 6.6c-.3-.3-.6-.6-.9-.9l.9-.9.9.9c-.3.3-.6.6-.9.9zm-31.2-174.3c-13.5 0-24.5-11-24.5-24.5 0-7.3-11.2-7.3-11.2 0 0 13.5-11 24.5-24.5 24.5-7.3 0-7.3 11.2 0 11.2 13.5 0 24.5 11 24.5 24.5 0 7.3 11.2 7.3 11.2 0 0-13.5 11-24.5 24.5-24.5 7.3-.1 7.3-11.2 0-11.2zm-30.2 16.5c-2.8-4.4-6.5-8.1-10.9-10.9 4.4-2.8 8.1-6.5 10.9-10.9 2.8 4.4 6.5 8.1 10.9 10.9-4.3 2.8-8 6.5-10.9 10.9zm-52.2-231.1c0-3.1 2.5-5.6 5.6-5.6 30.8 0 52.3 23.9 52.3 58.1-.1 7.4-11.1 7.3-11.2 0 0-27.6-16.9-46.9-41.1-46.9-3.1 0-5.6-2.5-5.6-5.6z"/></svg>