<svg enable-background="new 0 0 512 512" height="512" viewBox="0 0 512 512" width="512" xmlns="http://www.w3.org/2000/svg"><g id="_x34_3_bech"><g><path d="m461.001 399.898c-6.45-2.132-11.075-6.277-15.975-10.666-11.934-10.685-21.532-16.561-39.245-15.1-4.333-19.053-18.748-36.605-41.349-50.349 23.167-58.672 20.535-128.53-3.846-173.231l67.93 34.981c8.934 4.571 21.496-4.464 18.776-16.266-7.678-33.084-30.963-55.971-68.843-58.995 26.697-9.879 53.089-19.601 55.881-20.512 9.239-2.247 12.604-18.589 1.259-24.997-26.5-14.959-55.945-15.299-82.355 4.54 26.543-53.43 25.22-50.411 25.517-51.553 2.796-10.556-6.947-19.938-17.32-17.084-21.733 5.994-38.172 18.65-47.556 36.584-10.369 19.839-11.488 45.527-3.395 74.854-26.059-8.384-49.56-8.732-68.656-.633-18.61 7.897-32.533 23.251-40.249 44.371-4.291 11.569 7.766 22.092 16.738 18.398l56.711-22.881c-22.951 25.245-25.802 56.015-11.09 85.225 5.69 11.262 21.654 9.265 24.934.205.738-1.827 8.27-19.624 38.033-89.565 24.401 50.331-1.727 109.456-37.798 151.683-10.797-1.433-21.872-2.259-33.059-2.259-83.495 0-151.423 40.328-151.423 89.89 0 4.822.719 9.732 2.054 14.664-13.521 1.696-21.232-2.675-30.371-10.809-16.292-14.529-42.184-3.011-42.184 18.909v52.449c0 10.918 6.78 20.498 16.88 23.849 6.434 2.132 11.059 6.277 15.952 10.666 22.915 20.536 46.251 21.035 69.706-.008 18.586-16.674 34.974-16.687 53.581.008 22.877 20.482 46.227 21.078 69.73-.008 18.626-16.674 34.987-16.685 53.605 0 23.418 20.99 46.757 20.61 69.745.008 19.622-17.586 36.452-15.324 52.386-1.117 16.336 14.536 42.176 2.954 42.176-18.925v-52.472c0-10.931-6.781-20.519-16.88-23.854zm-25.477-227.902c.325 1.44-.914 2.585-2.139 2.454l-88.002-45.318c-1.226-1.315-2.471-2.591-3.758-3.811 54.991-12.416 85.438 10.237 93.899 46.675zm-5.876-96.709c1.366.772 1.416 2.649.11 3.437-18.39 6.639-31.189 10.477-99.148 36.308 28.195-50.925 66.209-58.261 99.038-39.745zm-105.071-32.439c7.787-14.898 21.646-25.454 40.052-30.535 1.353-.379 2.597.707 2.509 1.919l-45.755 91.935c-6.48-25.146-5.426-46.832 3.194-63.319zm-109.97 119.858c-1.154-.067-2.195-1.35-1.699-2.69 6.552-17.926 18.186-30.865 33.634-37.425 19.678-8.352 42.697-5.177 63.012 1.809zm64.011 69.006-.464-.315c-.98 1.469-2.816.957-3.429-.26-17.01-33.744-7.734-71.412 44.639-97.129.006.011.01.021.017.031-31.914 75.034-38.273 89.526-40.763 97.673zm56.912-94.064 2.425 1.25c35.6 40.174 41.068 128.673 9.268 194.07-1.361 2.792-4.208 4.389-7.197 4.185-16.203-1.361-31.156-6.355-44.418-14.843-3.612-2.306-4.457-7.394-1.479-10.705 42.467-47.32 72.462-116.404 41.401-173.957zm-79.487 171.078c8.525 0 16.943.597 25.253 1.472-2.971 8.775.684 17.744 7.798 22.29 14.937 9.557 31.738 15.181 49.932 16.699h.008c7.89.686 15.466-3.551 19.059-10.941.53-1.089.951-2.234 1.462-3.335 18.892 11.805 30.972 26.321 34.536 41.715-8.039 3-13.672 7.987-18.827 12.606-18.516 16.575-34.89 16.775-53.629 0-23.188-20.78-46.498-20.813-69.722 0-18.626 16.674-34.987 16.685-53.605 0-21.761-19.483-45.481-21.621-69.722-.031-3.39 3.028-6.654 5.939-10.477 8.157-.936-3.665-1.408-7.292-1.408-10.823.001-42.901 62.51-77.809 139.342-77.809zm209.756 167.493c0 11.378-13.42 17.575-22.056 9.903-20.266-18.066-44.01-20.796-68.479 1.133-18.605 16.675-35.003 16.704-53.621 0-22.881-20.485-46.215-21.073-69.73 0-18.607 16.676-34.977 16.701-53.605.008-23.373-20.948-46.698-20.656-69.722 0-18.515 16.61-34.905 16.74-53.566 0-5.341-4.79-11.397-10.21-20.223-13.136-5.066-1.683-8.597-6.772-8.597-12.381v-52.449c0-11.457 13.502-17.531 22.063-9.895 23.629 21.058 46.28 18.645 68.392-1.172 16.28-14.608 33.104-18.316 53.581.016 23.192 20.784 46.529 20.813 69.753 0 18.632-16.679 34.975-16.666 53.558-.016 22.823 20.475 46.213 21.12 69.808.016 17.337-15.501 33.186-18.295 53.605-.016 5.349 4.79 11.405 10.218 20.246 13.136 5.058 1.675 8.589 6.765 8.589 12.381v52.472z"/><path d="m440.274 448.5c-10.863 0-15.912-4.523-22.315-10.257-20.162-18.048-40.555-18.075-60.731.008-15.423 13.794-28.875 14.09-44.591 0-20.151-18.061-40.548-18.083-60.723 0-15.552 13.943-29.004 13.96-44.575 0-20.151-18.061-40.532-18.083-60.708 0-15.552 13.943-28.981 13.96-44.552 0-6.977-6.253-14.882-13.34-30.346-13.34-3.335 0-6.041 2.706-6.041 6.041s2.706 6.041 6.041 6.041c10.847 0 15.889 4.523 22.276 10.249 20.152 18.062 40.516 18.083 60.692 0 15.469-13.869 28.923-14.027 44.575.008 19.777 17.723 40.209 18.364 60.708-.008 15.437-13.84 28.908-14.055 44.591.008 20.156 18.063 40.532 18.06 60.708 0 15.396-13.788 28.848-14.116 44.622-.008 6.977 6.253 14.89 13.34 30.37 13.34 3.335 0 6.041-2.706 6.041-6.041-.001-3.335-2.706-6.041-6.042-6.041z"/><path d="m148.165 136.167c0-20.663-16.817-37.48-37.48-37.48-20.671 0-37.488 16.817-37.488 37.48 0 20.671 16.817 37.488 37.488 37.488 20.663 0 37.48-16.816 37.48-37.488zm-37.48 25.407c-14.009 0-25.406-11.397-25.406-25.406 0-14.001 11.397-25.398 25.406-25.398 14.001 0 25.398 11.397 25.398 25.398 0 14.008-11.397 25.406-25.398 25.406z"/><path d="m104.652 79.872v6.796c0 3.335 2.706 6.041 6.041 6.041s6.041-2.706 6.041-6.041v-6.796c0-3.335-2.706-6.041-6.041-6.041-3.336 0-6.041 2.706-6.041 6.041z"/><path d="m104.652 185.651v6.796c0 3.335 2.706 6.041 6.041 6.041s6.041-2.706 6.041-6.041v-6.796c0-3.335-2.706-6.041-6.041-6.041-3.336 0-6.041 2.706-6.041 6.041z"/><path d="m156.204 93.574c-2.273-2.431-6.096-2.556-8.542-.283l-4.963 4.641c-2.43 2.281-2.564 6.104-.283 8.542 2.256 2.406 6.057 2.585 8.542.283l4.963-4.641c2.43-2.28 2.564-6.103.283-8.542z"/><path d="m65.173 178.745c2.256 2.406 6.057 2.585 8.542.283l4.963-4.641c2.431-2.281 2.564-6.104.283-8.542-2.273-2.431-6.096-2.549-8.542-.283l-4.963 4.641c-2.43 2.28-2.564 6.103-.283 8.542z"/><path d="m167.247 133.871-6.772-.448c-3.532-.267-6.206 2.297-6.426 5.624-.22 3.335 2.297 6.206 5.624 6.426l6.772.448c.142.008.275.016.409.016 3.154 0 5.805-2.446 6.017-5.64.22-3.327-2.297-6.206-5.624-6.426z"/><path d="m48.498 132.006c-.228 3.335 2.289 6.214 5.616 6.434l6.78.456c.142.008.275.016.417.016 3.146 0 5.805-2.446 6.017-5.632.228-3.335-2.289-6.214-5.616-6.434l-6.78-.456c-3.296-.259-6.214 2.289-6.434 5.616z"/><path d="m141.644 183.551c2.101 2.572 5.895 2.973 8.503.857 2.58-2.116 2.965-5.923.857-8.503l-4.303-5.262c-2.116-2.588-5.915-2.958-8.503-.857-2.588 2.116-2.965 5.923-.857 8.503z"/><path d="m83.17 102.526c2.58-2.116 2.965-5.923.857-8.503l-4.295-5.254c-2.124-2.588-5.915-2.958-8.503-.857-2.58 2.116-2.965 5.923-.857 8.503l4.295 5.254c2.102 2.571 5.895 2.972 8.503.857z"/></g></g></svg>