<svg id="Capa_1" enable-background="new 0 0 512 512" height="512" viewBox="0 0 512 512" width="512" xmlns="http://www.w3.org/2000/svg"><g><path d="m263.349 240.738c-37.284 0-67.617 30.316-67.617 67.579s30.333 67.578 67.617 67.578 67.617-30.316 67.617-67.578c0-37.263-30.333-67.579-67.617-67.579zm0 120.141c-29 0-52.593-23.579-52.593-52.562s23.593-52.563 52.593-52.563 52.592 23.58 52.592 52.563-23.592 52.562-52.592 52.562z"/><path d="m490.012 158.663h-23.036v-15.016c0-16.56-13.48-30.032-30.049-30.032s-30.049 13.472-30.049 30.032v15.016h-24.722l.888-22.197h8.057v-45.543h-105.298v-90.923h-45.073v90.923h-30.633v-30.032h-210.097v141.943c0 50.279 35.55 92.409 82.845 102.621v161.288h-29.668c-20.747 0-37.627 16.87-37.627 37.606v7.508l390.327.143v-15.016h-37.257l.919-22.984h122.672l-11.329 22.984h-29.932v15.016h39.279l21.771-44.167v-263.276zm-68.11-15.016c0-8.28 6.74-15.016 15.025-15.016s15.025 6.736 15.025 15.016v15.016h-30.049v-15.016zm58.645 30.032 11.032 23.025h-110.945l.921-23.025zm-123.347 232.916h-26.233v15.016h25.633l-1.191 29.782h-184.499l-1.172-29.782h146.203v-15.016h-146.793l-7.679-195.202h203.541zm-207.368-108.769 6.645 168.916h-28.558v-161.407c7.53-1.669 14.851-4.171 21.913-7.509zm215.778-101.449h-204.733l-2.357-59.911h209.486zm10.466-74.927h-225.442v-15.511h225.443v15.511zm-120.322-106.434h15.024v75.907h-15.024zm-240.729 187.818v-81.669h30.259v-15.016h-30.259v-30.242h180.048v15.016h-59.463v15.225h-75.302v15.016h75.301v15.302h7.875l5.659 143.844s-15.61 12.496-44.095 12.496c-49.639 0-90.023-40.361-90.023-89.972zm82.845 104.738c4.961.348 10.066.326 15.025-.044v159.215h-15.025zm-66.012 189.268c3.103-8.777 11.488-15.082 21.319-15.082h103.892l.593 15.082zm140.846.144-1.203-30.575h183.306l-1.223 30.575zm207.329-285.264h116.942v247.265h-126.835z"/><path d="m420.902 496.984h15.025v15.016h-15.025z"/><path d="m52.796 151.155h15.025v15.016h-15.025z"/><path d="m82.845 181.437h15.025v15.016h-15.025z"/><path d="m67.821 226.235h15.025v15.016h-15.025z"/><path d="m112.895 151.155h15.025v15.016h-15.025z"/><path d="m180.506 151.155h15.025v15.016h-15.025z"/><path d="m210.555 151.155h15.025v15.016h-15.025z"/></g></svg>