<svg id="_x33_0" enable-background="new 0 0 64 64" height="512" viewBox="0 0 64 64" width="512" xmlns="http://www.w3.org/2000/svg"><g><path d="m49 22c0 .551-.449 1-1 1s-1-.449-1-1v-1h-2v1c0 1.654 1.346 3 3 3s3-1.346 3-3v-1h-2z"/><path d="m63 4c0-1.654-1.346-3-3-3-1.637 0-2.967 1.319-2.995 2.949l-8.586 4.683c-.185.101-.346.231-.499.368h-5.919c-2.757 0-5 2.243-5 5 0 2.416 1.721 4.436 4 4.9v.495c0 2.161-.633 4.253-1.832 6.051l-.455.682 2.286 2.286v1.946c0 2.558 2.082 4.64 4.64 4.64.306 0 .613-.03.91-.09l.45-.09v3.978c-.153.129-.301.264-.451.397-.662-1.297-1.996-2.195-3.549-2.195-2.206 0-4 1.794-4 4v12.068c0 1.762.776 3.342 2 4.43v5.502h16v-13.698c1.292-1.653 2-3.672 2-5.802 0-2.524-.983-4.897-2.768-6.682l-1.232-1.232v-3.118l1.475-1.229c2.876-2.396 4.525-5.917 4.525-9.661 0-1.228-.186-2.432-.533-3.596.329-.432.533-.964.533-1.548v-9.618c1.161-.414 2-1.514 2-2.816zm-10.21 4.527 2.009-1.096 4.201 4.802v3.392zm3.807-2.077 1.072-.585c.345.431.801.762 1.331.951v2.38zm-7.22 3.938 1.613-.88 5.748 6.569-7.387-4.432c-.216-.13-.351-.368-.351-.622 0-.265.145-.508.377-.635zm-.377 24.032 2.196-.439-.393-1.961-4.647.929c-.168.034-.342.051-.516.051-1.234 0-2.264-.854-2.552-2h1.912c2.206 0 4-1.794 4-4h-2c0 1.103-.897 2-2 2h-2v-1.414l-1.732-1.732c1.135-1.962 1.732-4.179 1.732-6.459v-.395h7.002c1.653 0 2.998 1.346 2.998 3v1h1c.551 0 1 .449 1 1 0 .372-.151.737-.414 1l-1.586 1.586v8.717c-1.403.525-2.747 1.199-4 2.014zm-6 4.58c1.103 0 2 .897 2 2 0 .5-.118 1-.342 1.447l-.276.553h-3.382v-2c0-1.103.897-2 2-2zm0 22v-2.33c.607.21 1.255.33 1.932.33 1.601 0 3.101-.619 4.225-1.743l5.843-5.843v9.586zm14-17.5c0 1.99-.775 3.861-2.182 5.268l-7.075 7.075c-.746.746-1.744 1.157-2.811 1.157-2.168 0-3.932-1.764-3.932-3.932v-8.068h3.095l.91 9.1 1.99-.199-.316-3.165 7.028-7.028-1.414-1.414-5.871 5.871-.398-3.976.423-.847c.279-.558.454-1.167.52-1.786 1.902-1.943 4.228-3.45 6.778-4.396l1.073 1.073c1.407 1.406 2.182 3.277 2.182 5.267zm-1.806-13.797-.194.162v-2.451l1-1c.645-.645 1-1.502 1-2.414 0-1.331-.871-2.462-2.073-2.854-.406-2.351-2.46-4.146-4.925-4.146h-6.002c-.551 0-1-.449-1-1s.449-1 1-1h1v-2h-1c-1.654 0-3 1.346-3 3 0 .301.058.586.141.86-1.234-.372-2.141-1.506-2.141-2.86 0-1.654 1.346-3 3-3h5.003c0 .008-.003.016-.003.024 0 .952.507 1.847 1.323 2.336l8.791 5.275c.399.239.855.365 1.32.365.083 0 .161-.017.241-.024.214.846.325 1.717.325 2.602 0 3.149-1.387 6.11-3.806 8.125zm4.806-24.703c-.551 0-1-.449-1-1s.449-1 1-1 1 .449 1 1-.449 1-1 1z"/><path d="m33 49h-2v-6c0-.502-.192-.956-.499-1.308.316-.56.499-1.187.499-1.847 0-.75-.22-1.478-.636-2.102l-2.364-3.546-2.364 3.545c-.416.625-.636 1.352-.636 2.103 0 .661.183 1.287.499 1.848-.307.351-.499.805-.499 1.307v6h-4v-6c0-.502-.192-.956-.499-1.308.316-.56.499-1.187.499-1.847 0-.75-.22-1.478-.636-2.102l-2.364-3.546-2.364 3.545c-.416.625-.636 1.352-.636 2.103 0 .661.183 1.287.499 1.848-.307.351-.499.805-.499 1.307v6h-4v-6c0-.502-.192-.956-.499-1.308.316-.56.499-1.187.499-1.847 0-.75-.22-1.478-.636-2.102l-2.364-3.546-2.364 3.545c-.416.625-.636 1.352-.636 2.103 0 .661.183 1.287.499 1.848-.307.351-.499.805-.499 1.307v6h-2c-1.103 0-2 .897-2 2v10c0 1.103.897 2 2 2h30c1.103 0 2-.897 2-2v-10c0-1.103-.897-2-2-2zm-5.7-10.148.7-1.049.7 1.049c.196.295.3.638.3.993 0 .43-.157.832-.434 1.155h-1.133c-.276-.323-.433-.725-.433-1.155 0-.355.104-.698.3-.993zm-.3 4.148h2v6h-2zm-9.7-4.148.7-1.049.7 1.049c.196.295.3.638.3.993 0 .43-.157.832-.434 1.155h-1.133c-.276-.323-.433-.725-.433-1.155 0-.355.104-.698.3-.993zm-.3 4.148h2v6h-2zm-9.7-4.148.7-1.049.7 1.049c.196.295.3.638.3.993 0 .43-.157.832-.434 1.155h-1.132c-.277-.323-.434-.725-.434-1.155 0-.355.104-.698.3-.993zm-.3 4.148h2v6h-2zm-4 18v-3.026c.838.635 1.87 1.026 3 1.026 1.641 0 3.088-.806 4-2.031.912 1.225 2.359 2.031 4 2.031s3.088-.806 4-2.031c.912 1.225 2.359 2.031 4 2.031s3.088-.806 4-2.031c.912 1.225 2.359 2.031 4 2.031 1.13 0 2.163-.391 3.001-1.026v3.026zm30-7c0 1.654-1.346 3-3 3s-3-1.346-3-3v-1h-2v1c0 1.654-1.346 3-3 3s-3-1.346-3-3v-1h-2v1c0 1.654-1.346 3-3 3s-3-1.346-3-3v-1h-2v1c0 1.654-1.346 3-3 3s-3-1.346-3-3v-3h30z"/><circle cx="6" cy="54" r="1"/><circle cx="14" cy="54" r="1"/><circle cx="22" cy="54" r="1"/><circle cx="30" cy="54" r="1"/><path d="m33 23h-2v4h-4v2h4v4h2v-4h4v-2h-4z"/><path d="m5 23h2v-4h4v-2h-4v-4h-2v4h-4v2h4z"/><path d="m15 35v-2h2v-2h-2v-2h-2v2h-2v2h2v2z"/><path d="m23 15h2v-2h2v-2h-2v-2h-2v2h-2v2h2z"/><path d="m34 9c1.654 0 3-1.346 3-3s-1.346-3-3-3-3 1.346-3 3 1.346 3 3 3zm0-4c.551 0 1 .449 1 1s-.449 1-1 1-1-.449-1-1 .449-1 1-1z"/><path d="m14 7c1.654 0 3-1.346 3-3s-1.346-3-3-3-3 1.346-3 3 1.346 3 3 3zm0-4c.551 0 1 .449 1 1s-.449 1-1 1-1-.449-1-1 .449-1 1-1z"/><path d="m4 31c1.654 0 3-1.346 3-3s-1.346-3-3-3-3 1.346-3 3 1.346 3 3 3zm0-4c.551 0 1 .449 1 1s-.449 1-1 1-1-.449-1-1 .449-1 1-1z"/><path d="m22 23c1.654 0 3-1.346 3-3s-1.346-3-3-3-3 1.346-3 3 1.346 3 3 3zm0-4c.551 0 1 .449 1 1s-.449 1-1 1-1-.449-1-1 .449-1 1-1z"/></g></svg>