<svg height="512" viewBox="0 0 512 512" width="512" xmlns="http://www.w3.org/2000/svg"><g id="outline"><path d="m418.913 396h-94.913v-52a4 4 0 0 0 -5.789-3.578l-10.211 5.106v-9.528h-.342l2.994-4.122a28 28 0 0 0 -6.2-39.109 4 4 0 0 0 -5.587.885l-4.7 6.472a27.986 27.986 0 0 0 5.835 38.833v10.569l-13.789 6.894a4 4 0 0 0 -2.211 3.578v36h-38.74v-24.34a63.724 63.724 0 0 0 -56-63.192v-8.553a88.136 88.136 0 0 0 74-86.881v-10.265a94.561 94.561 0 0 0 14-49.589 89.246 89.246 0 0 0 -89.14-89.15h-13.111a29.04 29.04 0 0 0 -10.09-3.635l-3.75-10.8a44 44 0 0 0 -83.139 28.836l3.378 9.742a89.82 89.82 0 0 0 -6.575 6.87l-2.533.057a28.96 28.96 0 0 0 -18.71 50.456c-.214 2.511-.326 31.953-.326 31.953a70.29 70.29 0 0 0 9.4 35.176l-.012.016a16.724 16.724 0 0 0 -3.28 14.283c1.119 5.226 3.6 9.94 7.9 13.11a19.849 19.849 0 0 0 11.828 3.906 20.321 20.321 0 0 0 3.033-.229l10.119-1.533a88.462 88.462 0 0 0 49.008 51.962v13.8h-5.05a67.026 67.026 0 0 0 -66.95 66.95v113.05a4 4 0 0 0 4 4h374.74a4 4 0 0 0 4-4v-58.913a33.125 33.125 0 0 0 -33.087-33.087zm-121.848-76.287a19.866 19.866 0 0 1 3.574-14.885l2.117-2.914a20.016 20.016 0 0 1 1.424 25.262l-2.118 2.915a19.867 19.867 0 0 1 -4.997-10.378zm-5.065 42.759 24-12v45.528h-24zm-112.271-281.332a20.96 20.96 0 0 1 -18.951 28.76l-21.3.49a14.783 14.783 0 0 0 -.76-2.562l-7.062-17.572a14.48 14.48 0 0 0 -1.228-2.372l15.723-14.384a20.81 20.81 0 0 1 14.079-5.5c.509 0 .96.018 1.465.061a21.032 21.032 0 0 1 10.032 3.327 20.8 20.8 0 0 1 8.002 9.752zm-52.059 38.168-10.149 4.078a6.531 6.531 0 0 1 -8.5-3.625l-7.061-17.573a6.532 6.532 0 0 1 3.624-8.5l10.149-4.078a6.531 6.531 0 0 1 8.5 3.625l7.062 17.572a6.538 6.538 0 0 1 -3.625 8.501zm-42.081-43.5a36 36 0 1 1 68.021-23.6l2.793 8.048a28.712 28.712 0 0 0 -10.834 3.771h-3.169a88.834 88.834 0 0 0 -54.46 18.564zm50.009-3.5-11.207 10.258a14.479 14.479 0 0 0 -11.635-.374l-10.15 4.079a14.436 14.436 0 0 0 -7.947 7.779c-.076.178-.131.361-.2.541l-8.4.193a80.819 80.819 0 0 1 49.541-22.472zm-83.598 51.722a21.081 21.081 0 0 1 20.482-20.93l21.3-.491a14.605 14.605 0 0 0 .76 2.564l7.062 17.572a14.587 14.587 0 0 0 1.224 2.375l-15.72 14.38a20.951 20.951 0 0 1 -26.908 1.173 20.645 20.645 0 0 1 -6.667-8.813 20.955 20.955 0 0 1 -1.533-7.83zm28.933 111.833a11.926 11.926 0 0 1 -8.916-2.206 12.353 12.353 0 0 1 -4.74-7.856 13.279 13.279 0 0 1 1.97-8.582 11.824 11.824 0 0 1 8.093-5.086l9.92-1.5v2.4a87.859 87.859 0 0 0 2.653 21.467zm9.408-70.723a4 4 0 0 0 -3.081 3.893v33.505l-11.116 1.685a19.98 19.98 0 0 0 -7.507 2.766 62.322 62.322 0 0 1 -7.377-29.479s.018-26.088.046-26.964a28.9 28.9 0 0 0 31.2-5.144l16.354-14.964a14.349 14.349 0 0 0 11.641.371l10.149-4.079c3.6-1.447 8.247-5.1 8.148-8.321l22.163-.51a28.958 28.958 0 0 0 22.819-45.869h4.34a81.238 81.238 0 0 1 81.14 81.15 86.8 86.8 0 0 1 -6 31.738v-15.885a4 4 0 0 0 -6.219-3.328 31.271 31.271 0 0 1 -39.349-3.9l-3.6-3.6a4 4 0 0 0 -5.047-.5l-18.235 12.155a27.584 27.584 0 0 1 -39.972-10.616 4 4 0 0 0 -6.406-1.039l-14.7 14.7a21.787 21.787 0 0 1 -34.891-5.662 4 4 0 0 0 -4.5-2.103zm4.919 47.894v-32.6a29.884 29.884 0 0 0 40.126-1.874l11.087-11.087a35.583 35.583 0 0 0 48.774 9.039l15.5-10.336 1.286 1.286a39.318 39.318 0 0 0 43.224 8.271v37.3a80 80 0 0 1 -160 0zm80 88c2.017 0 4.016-.074 6-.209v29.085a10.1 10.1 0 0 1 -10.09 10.09 21.935 21.935 0 0 1 -21.91-21.91v-20.978a87.721 87.721 0 0 0 26 3.921zm-98 73.917a59.017 59.017 0 0 1 58.95-58.951h5.05v2.09a29.944 29.944 0 0 0 29.91 29.91 18.11 18.11 0 0 0 18.09-18.09v-13.372a55.714 55.714 0 0 1 48 55.122v24.34h-48.173a33.139 33.139 0 0 0 -30.493 20.245l-9.994-45.071a28 28 0 1 0 -54.675 12.126l22.322 100.7h-38.987zm88.157 109.049h-40.976l-22.707-102.439a20 20 0 0 1 39.061-8.655zm8.194 0-10.15-45.8 9.892 4.945a41.9 41.9 0 0 0 37.294 0 33.734 33.734 0 0 1 27.585-1.145l10.283 4.113a41.528 41.528 0 0 0 30.97 0l10.283-4.113a33.729 33.729 0 0 1 27.585 1.147l1.716.859a41.733 41.733 0 0 0 34.134 1.42l8.565-3.426a33.729 33.729 0 0 1 27.585 1.147l1.716.859a41.733 41.733 0 0 0 34.134 1.42l18.8-7.519v46.093zm270.389-54.708-21.768 8.708a33.726 33.726 0 0 1 -27.585-1.147l-1.716-.859a41.73 41.73 0 0 0 -34.134-1.42l-8.565 3.426a33.726 33.726 0 0 1 -27.585-1.147l-1.716-.859a41.73 41.73 0 0 0 -34.134-1.42l-10.282 4.113a33.558 33.558 0 0 1 -25.03 0l-10.285-4.114a41.732 41.732 0 0 0 -34.134 1.42 33.856 33.856 0 0 1 -30.138 0l-12.928-6.465v-.441a25.115 25.115 0 0 1 25.087-25.087h229.826a25.115 25.115 0 0 1 25.087 25.087z"/><path d="m365.172 66.829a4 4 0 1 0 5.656-5.658l-8-8a4 4 0 0 0 -5.656 5.658z"/><path d="m326.211 115.578a4 4 0 0 0 5.367-1.789l8-16a4 4 0 1 0 -7.156-3.578l-8 16a4 4 0 0 0 1.789 5.367z"/><path d="m416 116a4 4 0 0 0 4-4v-16a4 4 0 0 0 -8 0v16a4 4 0 0 0 4 4z"/><path d="m438.211 171.578a4 4 0 0 0 5.367-1.789l8-16a4 4 0 0 0 -7.156-3.578l-8 16a4 4 0 0 0 1.789 5.367z"/><path d="m378.828 173.171-8-8a4 4 0 0 0 -5.656 5.658l8 8a4 4 0 0 0 5.656-5.658z"/><path d="m310.211 219.578a4 4 0 0 0 5.367-1.789l8-16a4 4 0 0 0 -7.156-3.578l-8 16a4 4 0 0 0 1.789 5.367z"/><path d="m406.211 243.578 16 8a4 4 0 1 0 3.578-7.156l-16-8a4 4 0 0 0 -3.578 7.156z"/><path d="m376 284a4 4 0 0 0 4-4v-16a4 4 0 0 0 -8 0v16a4 4 0 0 0 4 4z"/><circle cx="152" cy="208" r="8"/><circle cx="232" cy="208" r="8"/><path d="m144 220h-8a4 4 0 0 0 0 8h8a4 4 0 0 0 0-8z"/><path d="m236 224a4 4 0 0 0 4 4h8a4 4 0 0 0 0-8h-8a4 4 0 0 0 -4 4z"/><path d="m192 276a4 4 0 0 1 -2.4-7.2l3.738-2.8a7.5 7.5 0 0 1 0-11.992l-3.738-2.8a4 4 0 1 1 4.8-6.4l4 3a7.517 7.517 0 0 1 .257 12.2 7.517 7.517 0 0 1 -.257 12.2l-4 3a3.979 3.979 0 0 1 -2.4.792zm1.73-22.322"/><path d="m192 236a4 4 0 0 1 -2.828-6.829l5.171-5.171-5.171-5.171a4 4 0 0 1 5.656-5.658l5.617 5.618a7.369 7.369 0 0 1 0 10.423l-5.617 5.617a3.99 3.99 0 0 1 -2.828 1.171z"/><path d="m376 476a12 12 0 1 1 12-12 12.013 12.013 0 0 1 -12 12zm0-16a4 4 0 1 0 4 4 4 4 0 0 0 -4-4z"/><path d="m300 476a12 12 0 1 1 12-12 12.013 12.013 0 0 1 -12 12zm0-16a4 4 0 1 0 4 4 4 4 0 0 0 -4-4z"/><path d="m224 476a12 12 0 1 1 12-12 12.013 12.013 0 0 1 -12 12zm0-16a4 4 0 1 0 4 4 4 4 0 0 0 -4-4z"/><path d="m456 220a12 12 0 1 1 12-12 12.013 12.013 0 0 1 -12 12zm0-16a4 4 0 1 0 4 4 4 4 0 0 0 -4-4z"/><path d="m376 132a12 12 0 1 1 12-12 12.013 12.013 0 0 1 -12 12zm0-16a4 4 0 1 0 4 4 4 4 0 0 0 -4-4z"/><path d="m368 228a12 12 0 1 1 12-12 12.013 12.013 0 0 1 -12 12zm0-16a4 4 0 1 0 4 4 4 4 0 0 0 -4-4z"/><path d="m288 84a12 12 0 1 1 12-12 12.013 12.013 0 0 1 -12 12zm0-16a4 4 0 1 0 4 4 4 4 0 0 0 -4-4z"/></g></svg>