<svg clip-rule="evenodd" fill-rule="evenodd" height="512" image-rendering="optimizeQuality" shape-rendering="geometricPrecision" text-rendering="geometricPrecision" viewBox="0 0 1707 1707" width="512" xmlns="http://www.w3.org/2000/svg"><g id="Layer_x0020_1"><path d="m1684 1458h-1661c-13 0-23-10-23-23v-179c0-13 10-23 23-23h171c0-46-2-397 2-419 9-60 61-107 124-107h91v-357c0-56 45-101 101-101h684c55 0 100 45 100 100v358h90c71 0 126 58 126 127v399h172c12 0 23 10 23 23v179c0 13-11 23-23 23zm-1228-751h795v-261h-36v62c0 68-142 67-142 0v-62h-52v104c0 68-142 67-142 0v-104h-52v62c0 68-141 67-141 0v-62h-52v104c0 68-142 67-142 0v-104h-36zm817 46h-953c-31 0-57 17-71 42h1208c-14-25-40-42-71-42zm-22-353v-51c0-30-25-55-55-55h-684c-31 0-56 25-56 56v50h58c13 0 23 10 23 23v125c4 10 47 10 51 0v-125c0-13 10-23 23-23h97c13 0 23 10 23 23v83c4 10 47 10 51 0v-83c0-13 10-23 23-23h97c13 0 23 10 23 23v125c3 10 47 10 51 0v-125c0-13 10-23 22-23h98c12 0 23 10 23 23v83c3 10 47 10 51 0v-83c0-13 10-23 22-23zm-1011 833h1227v-42h-1227zm1227-88v-72c-78 4-156-16-233-60-210-122-365-3-367-2-4 4-82 63-203 63-192 0-240-127-424-116v187zm0-118v-187h-1227v73c78-4 156 16 233 60 209 121 360 7 366 2 8-6 181-138 417-2 70 41 141 59 211 54zm-1422 386h1616v-135h-1616z" fill="rgb(0,0,0)"/></g></svg>