<svg id="Outline" height="512" viewBox="0 0 64 64" width="512" xmlns="http://www.w3.org/2000/svg"><path d="m59 6c0-3.309-2.691-6-6-6h-42c-3.309 0-6 2.691-6 6v25h-2.719c-.62 0-1.194.28-1.576.769s-.515 1.114-.364 1.717l.5 2c.222.891 1.02 1.514 1.94 1.514h17.665l2.581 4.129c1.29 2.066 1.973 4.445 1.973 6.881 0 4.063-1.941 7.946-5.192 10.385l-1.874 1.405c-.584.437-.934 1.135-.934 1.867 0 1.286 1.047 2.333 2.333 2.333h25.334c1.286 0 2.333-1.047 2.333-2.333 0-.731-.35-1.429-.934-1.866l-1.874-1.406c-3.251-2.439-5.192-6.322-5.192-10.385 0-2.436.683-4.815 1.973-6.88l2.581-4.13h17.665c.92 0 1.718-.623 1.94-1.515l.501-2.001c.149-.602.017-1.228-.365-1.716s-.956-.768-1.576-.768h-2.719zm-52 4.974c1.46.694 3.519 1.026 5.5 1.026 2.763 0 5.259-.636 6.485-1.66 1.256 1.024 3.752 1.66 6.515 1.66s5.259-.636 6.485-1.66c1.256 1.024 3.752 1.66 6.515 1.66s5.259-.636 6.485-1.66c1.256 1.024 3.752 1.66 6.515 1.66 1.981 0 4.04-.332 5.5-1.026v7.026h-50zm0-4.974c0-2.206 1.794-4 4-4h42c2.206 0 4 1.794 4 4v2.498c-.065.436-2.075 1.502-5.5 1.502-2.603 0-4.513-.608-5.25-1.209-.725-.592-1.776-.591-2.499 0-.738.601-2.648 1.209-5.251 1.209s-4.513-.608-5.25-1.209c-.725-.592-1.776-.591-2.499 0-.738.601-2.648 1.209-5.251 1.209s-4.513-.608-5.25-1.209c-.725-.592-1.776-.591-2.499 0-.738.601-2.648 1.209-5.251 1.209-3.425 0-5.435-1.066-5.5-1.5zm32.277 34.07c-1.49 2.383-2.277 5.129-2.277 7.94 0 4.69 2.24 9.17 5.993 11.984l1.874 1.407c.083.062.133.161.133.266 0 .184-.149.333-.333.333h-25.334c-.184 0-.333-.149-.333-.333 0-.104.05-.204.133-.267l1.874-1.406c3.753-2.814 5.993-7.294 5.993-11.984 0-2.811-.787-5.557-2.277-7.94l-1.919-3.07h18.392zm-22.277-9.07c-.553 0-1 .448-1 1s.447 1 1 1h44.72l-.501 2h-58.439l-.499-2h9.719c.553 0 1-.448 1-1s-.447-1-1-1h-5v-7h42c.553 0 1-.448 1-1s-.447-1-1-1h-42v-2h50v2h-3c-.553 0-1 .448-1 1s.447 1 1 1h3v7z"/></svg>