<svg id="Capa_1" enable-background="new 0 0 511.5 511.5" height="512" viewBox="0 0 511.5 511.5" width="512" xmlns="http://www.w3.org/2000/svg"><g><path d="m231.75 200.5h16v15h-16z"/><path d="m263.75 200.5h16v15h-16z"/><path d="m231.75 296.5h16v15h-16z"/><path d="m263.75 296.5h16v15h-16z"/><path d="m423.25 464.5v-80.5c0-8.547-6.953-15.5-15.5-15.5h-.5v-80.5c0-8.547-6.953-15.5-15.5-15.5h-.5v-80.5c0-8.547-6.953-15.5-15.5-15.5h-.5v-176.5h-15v16.5h-209v-16.5h-15v176.5h-.5c-8.547 0-15.5 6.953-15.5 15.5v80.5h-.5c-8.547 0-15.5 6.953-15.5 15.5v80.5h-.5c-8.547 0-15.5 6.953-15.5 15.5v80.5h-32v23.5c0 12.958 10.542 23.5 23.5 23.5h352c12.958 0 23.5-10.542 23.5-23.5v-23.5zm-112-433h17v30.394l-8.5-8.5-8.5 8.5zm-64 0h17v30.394l-8.5-8.5-8.5 8.5zm-64 0h17v30.394l-8.5-8.5-8.5 8.5zm-47.5 160h64v-15h-48.5v-145h17v66.606l23.5-23.5 23.5 23.5v-66.606h17v66.606l23.5-23.5 23.5 23.5v-66.606h17v66.606l23.5-23.5 23.5 23.5v-66.606h17v145h-144.5v15h160c.276 0 .5.224.5.5v25.147c-8.538 1.526-13.874 5.508-18.335 8.853-5.032 3.773-8.668 6.5-16.836 6.5-8.167 0-11.803-2.727-16.835-6.5-5.644-4.232-12.668-9.5-25.835-9.5s-20.189 5.268-25.833 9.5c-5.031 3.773-8.667 6.5-16.833 6.5-8.167 0-11.802-2.727-16.833-6.5-5.643-4.232-12.667-9.5-25.833-9.5s-20.189 5.268-25.832 9.5c-5.031 3.773-8.666 6.5-16.832 6.5s-11.801-2.727-16.832-6.5c-4.46-3.345-9.796-7.327-18.332-8.853v-25.147c.001-.276.225-.5.501-.5zm-.5 41.036c3.544 1.126 6.162 3.086 9.332 5.463 5.643 4.233 12.666 9.5 25.832 9.5s20.189-5.268 25.832-9.5c5.031-3.773 8.666-6.5 16.832-6.5 8.167 0 11.802 2.727 16.833 6.5 5.643 4.232 12.667 9.5 25.833 9.5s20.189-5.268 25.833-9.5c5.031-3.773 8.667-6.5 16.833-6.5 8.168 0 11.804 2.727 16.836 6.5 5.644 4.232 12.667 9.5 25.834 9.5s20.191-5.268 25.835-9.5c3.171-2.378 5.79-4.338 9.336-5.464v39.965h-241v-39.964zm-15.5 54.964h272c.276 0 .5.224.5.5v25.009c-9.571 1.363-15.402 5.245-20.663 8.751-5.649 3.766-10.111 6.741-19.842 6.741s-14.193-2.975-19.842-6.741c-6.511-4.34-13.891-9.259-28.162-9.259s-21.649 4.919-28.159 9.26c-5.649 3.766-10.11 6.74-19.839 6.74s-14.191-2.975-19.84-6.74c-6.51-4.34-13.889-9.26-28.16-9.26-14.27 0-21.649 4.919-28.159 9.26-5.648 3.766-10.109 6.74-19.838 6.74s-14.19-2.975-19.838-6.74c-5.259-3.506-11.09-7.388-20.659-8.751v-25.01c.001-.276.225-.5.501-.5zm-16 96h216v-15h-200.5v-40.252c5.005 1.112 8.384 3.356 12.337 5.992 6.51 4.34 13.889 9.26 28.159 9.26s21.649-4.919 28.159-9.26c5.648-3.766 10.109-6.74 19.838-6.74s14.19 2.975 19.839 6.74c6.51 4.34 13.889 9.26 28.16 9.26s21.649-4.919 28.159-9.26c5.649-3.766 10.11-6.74 19.839-6.74 9.73 0 14.192 2.975 19.842 6.741 6.511 4.34 13.891 9.259 28.163 9.259 14.271 0 21.651-4.919 28.162-9.259 3.955-2.637 7.335-4.881 12.342-5.993v40.252h-56.5v15h72c.276 0 .5.224.5.5v24.928c-10.708 1.263-17.194 5.141-23.027 8.641-6.2 3.72-11.554 6.932-22.811 6.932s-16.611-3.212-22.811-6.931c-7.085-4.251-15.116-9.069-30.528-9.069-15.41 0-23.44 4.818-30.524 9.069-6.198 3.719-11.551 6.931-22.807 6.931s-16.609-3.212-22.807-6.931c-7.085-4.251-15.115-9.069-30.525-9.069s-23.439 4.818-30.524 9.069c-6.198 3.719-11.551 6.931-22.806 6.931s-16.608-3.212-22.806-6.931c-5.833-3.5-12.317-7.378-23.023-8.641v-24.929c0-.276.224-.5.5-.5zm336.5 104.5c0 4.687-3.813 8.5-8.5 8.5h-352c-4.687 0-8.5-3.813-8.5-8.5v-8.5h96.5v-15h-64.5v-40.429c6.509 1.083 10.672 3.579 15.306 6.36 7.084 4.251 15.114 9.069 30.524 9.069s23.439-4.818 30.524-9.069c6.198-3.719 11.551-6.931 22.806-6.931 11.256 0 16.609 3.212 22.808 6.931 7.084 4.251 15.115 9.069 30.525 9.069s23.44-4.818 30.524-9.069c6.198-3.719 11.551-6.931 22.807-6.931 11.258 0 16.612 3.212 22.811 6.932 7.085 4.25 15.116 9.068 30.527 9.068 15.412 0 23.442-4.818 30.528-9.069 4.635-2.781 8.799-5.277 15.311-6.36v40.429h-224.5v15h256.5v8.5z"/><path d="m231.75 392.5h16v15h-16z"/><path d="m263.75 392.5h16v15h-16z"/></g></svg>