<svg height="512" viewBox="0 0 64 64" width="512" xmlns="http://www.w3.org/2000/svg"><g id="calendar-birthady-event-schedule-cake"><path d="m57 6h-1.1a5 5 0 0 0 -9.8 0h-1.2a5 5 0 0 0 -9.8 0h-1.2a5 5 0 0 0 -9.8 0h-1.2a5 5 0 0 0 -9.8 0h-2.1a5 5 0 0 0 -5 5v39h-3a1 1 0 0 0 -1 1v2a5 5 0 0 0 4.09 4.91 5 5 0 0 0 4.91 4.09h46a5 5 0 0 0 5-5v-46a5 5 0 0 0 -5-5zm-6-2a3.01 3.01 0 0 1 2.82 2h-5.64a3.01 3.01 0 0 1 2.82-2zm-11 0a3.01 3.01 0 0 1 2.82 2h-5.64a3.01 3.01 0 0 1 2.82-2zm-11 0a3.01 3.01 0 0 1 2.82 2h-5.64a3.01 3.01 0 0 1 2.82-2zm-11 0a3.01 3.01 0 0 1 2.82 2h-5.64a3.01 3.01 0 0 1 2.82-2zm-10 12h44v37a3 3 0 1 1 -6 0v-2a1 1 0 0 0 -1-1h-37zm-1 40a3.009 3.009 0 0 1 -3-3v-1h40v1a4.986 4.986 0 0 0 1 3zm44 4h-40a3.014 3.014 0 0 1 -2.83-2h40.83a5 5 0 0 0 5-5v-37h2v39a5 5 0 0 1 -5 5zm9-3a3.009 3.009 0 0 1 -3 3h-1.11a6.97 6.97 0 0 0 2.11-5v-39h2zm0-43h-52v-3a3.009 3.009 0 0 1 3-3h2.1a5.017 5.017 0 0 0 4.9 4 1 1 0 0 0 0-2 3.01 3.01 0 0 1 -2.82-2h8.92a5.017 5.017 0 0 0 4.9 4 1 1 0 0 0 0-2 3.01 3.01 0 0 1 -2.82-2h8.92a5.017 5.017 0 0 0 4.9 4 1 1 0 0 0 0-2 3.01 3.01 0 0 1 -2.82-2h8.92a5.017 5.017 0 0 0 4.9 4 1 1 0 0 0 0-2 3.01 3.01 0 0 1 -2.82-2h8.82a3.009 3.009 0 0 1 3 3z"/><path d="m42 38h-2v-7a1 1 0 0 0 -1-1h-6v-4a.977.977 0 0 0 -.81-.96 2.987 2.987 0 0 0 .81-2.04c0-1.28-1.52-3.62-2.18-4.57a1.033 1.033 0 0 0 -1.64 0c-.66.95-2.18 3.29-2.18 4.57a2.987 2.987 0 0 0 .81 2.04.977.977 0 0 0 -.81.96v4h-6a1 1 0 0 0 -1 1v7h-2a1 1 0 0 0 -1 1v8a1 1 0 0 0 1 1h24a1 1 0 0 0 1-1v-8a1 1 0 0 0 -1-1zm-1.27 2a2 2 0 0 1 -3.46 0zm-3-8a2 2 0 0 1 -3.46 0zm-7.73-11.15a7.357 7.357 0 0 1 1 2.15 1 1 0 0 1 -2 0 7.475 7.475 0 0 1 1-2.15zm-1 6.15h2v3h-2zm2.73 5a2 2 0 0 1 -3.46 0zm-6 0a2 2 0 0 1 -3.46 0zm-3.73 2.44a3.906 3.906 0 0 0 2 .56 3.967 3.967 0 0 0 3-1.38 3.951 3.951 0 0 0 6 0 3.967 3.967 0 0 0 3 1.38 3.906 3.906 0 0 0 2-.56v3.56h-16zm12.73 5.56a2 2 0 0 1 -3.46 0zm-6 0a2 2 0 0 1 -3.46 0zm-6 0a2 2 0 0 1 -3.46 0zm18.27 6h-22v-3.56a3.906 3.906 0 0 0 2 .56 3.967 3.967 0 0 0 3-1.38 3.951 3.951 0 0 0 6 0 3.951 3.951 0 0 0 6 0 3.967 3.967 0 0 0 3 1.38 3.906 3.906 0 0 0 2-.56z"/><path d="m43 24h2v2h-2z"/><path d="m37 20h2v2h-2z"/><path d="m21 20h2v2h-2z"/><path d="m23 25h2v2h-2z"/><path d="m35 26h2v2h-2z"/><path d="m45 26h2v2h-2z"/><path d="m41 26h2v2h-2z"/><path d="m43 28h2v2h-2z"/><path d="m14 24h2v2h-2z"/><path d="m16 26h2v2h-2z"/><path d="m12 26h2v2h-2z"/><path d="m14 28h2v2h-2z"/></g></svg>