<svg id="Capa_1" enable-background="new 0 0 512 512" height="512" viewBox="0 0 512 512" width="512" xmlns="http://www.w3.org/2000/svg"><g><g><path d="m460.841 132h-90.213l-41.563-72.95c-1.778-3.122-5.096-5.05-8.688-5.05h-128.753c-3.593 0-6.91 1.928-8.689 5.05l-41.563 72.95h-9.263v-20.689c0-10.647-8.663-19.311-19.311-19.311h-52.328c-10.648 0-19.311 8.663-19.311 19.311v21.677c-23.437 4.664-41.159 25.384-41.159 50.171v277.682c0 28.209 22.95 51.159 51.16 51.159h409.681c28.209 0 51.159-22.95 51.159-51.159v-277.682c0-28.209-22.95-51.159-51.159-51.159zm31.159 282.061h-121.201c20.448-25.521 32.329-57.75 32.329-92.061 0-33.873-11.513-65.104-30.822-90h119.694zm-294.565-340.061h117.129l33.046 58h-183.22zm-136.275 38h50.949v20h-50.949zm-10 40h409.681c17.181 0 31.159 13.978 31.159 31.159v28.841h-138.409c-25.99-23.083-60.178-37.128-97.591-37.128s-71.602 14.044-97.591 37.128h-138.409v-28.841c0-17.181 13.978-31.159 31.16-31.159zm-31.16 80h119.694c-19.309 24.896-30.822 56.127-30.822 90 0 34.306 11.884 66.538 32.333 92.061h-121.205zm440.841 260h-409.681c-17.182 0-31.16-13.978-31.16-31.159v-26.78h140.609c13.792 11.752 29.893 21.073 47.757 27.183 5.224 1.789 10.911-.999 12.698-6.226 1.787-5.226-1-10.911-6.226-12.698-51.419-17.586-85.966-65.938-85.966-120.319 0-70.099 57.029-127.128 127.128-127.128s127.128 57.028 127.128 127.127c0 54.414-34.576 102.777-86.037 120.344-5.227 1.784-8.018 7.468-6.233 12.694 1.419 4.156 5.303 6.772 9.463 6.772 1.071 0 2.161-.174 3.231-.539 17.898-6.11 34.029-15.441 47.842-27.211h140.606v26.78c0 17.182-13.978 31.16-31.159 31.16z"/><path d="m354.383 322c0-54.248-44.135-98.383-98.383-98.383-54.249 0-98.383 44.135-98.383 98.383s44.134 98.383 98.383 98.383c54.248 0 98.383-44.135 98.383-98.383zm-64.648-55.229c2.87-2.871 6.688-4.452 10.747-4.452s7.876 1.581 10.747 4.452c2.87 2.87 4.451 6.687 4.451 10.746s-1.581 7.877-4.452 10.747v.001c-2.87 2.87-6.687 4.451-10.746 4.451s-7.877-1.581-10.747-4.452c-2.871-2.87-4.452-6.688-4.452-10.747s1.581-7.875 4.452-10.746zm-112.118 55.229c0-43.221 35.163-78.383 78.383-78.383 8.917 0 17.481 1.518 25.474 4.273-2.099 1.353-4.073 2.931-5.881 4.739-6.648 6.647-10.311 15.486-10.311 24.889s3.661 18.241 10.31 24.89 15.487 10.31 24.89 10.31 18.241-3.662 24.889-10.31c1.808-1.808 3.386-3.782 4.739-5.881 2.755 7.993 4.273 16.557 4.273 25.474 0 43.221-35.162 78.383-78.383 78.383-43.22-.001-78.383-35.163-78.383-78.384z"/><path d="m86.634 51.879c5.523 0 10-4.478 10-10v-31.879c0-5.522-4.477-10-10-10s-10 4.478-10 10v31.879c0 5.522 4.477 10 10 10z"/><path d="m121.694 69.967c1.575.909 3.294 1.342 4.991 1.342 3.456 0 6.817-1.794 8.669-5.002l15.939-27.608c2.762-4.783 1.123-10.898-3.66-13.66-4.784-2.762-10.899-1.123-13.66 3.66l-15.939 27.608c-2.762 4.783-1.122 10.898 3.66 13.66z"/><path d="m37.913 66.307c1.852 3.208 5.213 5.002 8.669 5.002 1.696 0 3.416-.433 4.991-1.342 4.783-2.761 6.422-8.877 3.66-13.66l-15.939-27.609c-2.761-4.782-8.878-6.423-13.66-3.66-4.783 2.761-6.422 8.877-3.66 13.66z"/><circle cx="439.85" cy="182.002" r="10"/><circle cx="256" cy="459.128" r="10"/></g></g></svg>