<svg id="Capa_1" enable-background="new 0 0 512 512" height="512" viewBox="0 0 512 512" width="512" xmlns="http://www.w3.org/2000/svg"><g><path d="m175.105 228.34c2.485-3.314 1.813-8.015-1.5-10.5l-32.659-24.494c-6.731-2.956-10.727-.813-11.987 6.43l3.452 60.174c.229 3.989 3.535 7.07 7.48 7.07 3.916 0 7.716-4.063 7.494-7.93l-2.527-44.06 19.747 14.81c3.315 2.485 8.014 1.812 10.5-1.5z"/><path d="m364.604 259.056c-.222 3.867 3.579 7.928 7.494 7.928 3.946 0 7.253-3.082 7.48-7.072l3.44-60.139c-1.262-7.242-5.258-9.384-11.988-6.428l-32.636 24.482c-3.313 2.486-3.984 7.187-1.499 10.5 2.485 3.314 7.187 3.986 10.501 1.499l19.726-14.797z"/><path d="m165.424 309.257c4.143 0 7.5-3.358 7.5-7.5 0-10.664 13.157-19.673 28.73-19.673s28.73 9.009 28.73 19.673c0 4.142 3.357 7.5 7.5 7.5s7.5-3.358 7.5-7.5c0-19.119-19.617-34.673-43.73-34.673s-43.73 15.554-43.73 34.673c0 4.142 3.357 7.5 7.5 7.5z"/><path d="m339.076 301.757c0 4.142 3.357 7.5 7.5 7.5s7.5-3.358 7.5-7.5c0-19.119-19.617-34.673-43.73-34.673s-43.73 15.554-43.73 34.673c0 4.142 3.357 7.5 7.5 7.5s7.5-3.358 7.5-7.5c0-10.664 13.157-19.673 28.73-19.673s28.73 9.01 28.73 19.673z"/><path d="m232.886 408.022c9.218 0 17.497-4.095 23.114-10.561 5.617 6.466 13.896 10.561 23.114 10.561 18.175 0 29.132-14.163 30.614-30.937 0-4.142-3.357-7.5-7.5-7.5s-7.5 3.358-7.5 7.5c-1.118 8.055-6.242 15.937-15.614 15.937-8.609 0-15.614-7.004-15.614-15.614v-7.531l16.292-18.871c2.707-3.135 2.359-7.872-.775-10.578-3.137-2.708-7.871-2.36-10.578.775l-12.439 14.408-12.438-14.407c-2.707-3.135-7.444-3.481-10.578-.775-3.135 2.707-3.482 7.443-.775 10.578l16.292 18.871v7.531c0 8.61-7.005 15.614-15.614 15.614-9.373 0-14.496-7.882-15.614-15.937 0-4.142-3.357-7.5-7.5-7.5s-7.5 3.358-7.5 7.5c1.481 16.773 12.438 30.936 30.613 30.936z"/><path d="m400.923 356.721h-36.23c-4.143 0-7.5 3.358-7.5 7.5s3.357 7.5 7.5 7.5h36.23c4.143 0 7.5-3.358 7.5-7.5s-3.357-7.5-7.5-7.5z"/><path d="m367.88 393.733c-3.745-1.759-8.216-.149-9.977 3.602-1.761 3.75-.147 8.216 3.602 9.977l36.23 17.011c3.822 1.644 7.147.444 9.977-3.602 1.761-3.75.147-8.216-3.602-9.977z"/><path d="m111.077 371.721h36.23c4.143 0 7.5-3.358 7.5-7.5s-3.357-7.5-7.5-7.5h-36.23c-4.143 0-7.5 3.358-7.5 7.5s3.358 7.5 7.5 7.5z"/><path d="m104.288 420.721c2.829 4.046 6.155 5.246 9.977 3.602l36.23-17.011c3.749-1.761 5.362-6.227 3.602-9.977-1.761-3.749-6.227-5.36-9.977-3.602l-36.23 17.011c-3.749 1.761-5.362 6.228-3.602 9.977z"/><path d="m478.004 394.615-28.506-22.252 28.391-21.292c4.288-4.55 3.971-8.752-.951-12.607-.16-.086-16.192-8.724-32.251-19.569-26.897-18.164-30.411-26.548-30.869-28.479l3.052-49.075c.257-4.134-2.886-7.694-7.02-7.951-4.161-.266-7.695 2.886-7.951 7.02 0 0-3.118 50.609-3.084 50.989.604 6.684 5.146 18.094 37.477 39.927 8.629 5.827 17.125 10.974 23.411 14.635l-27.045 20.284c-3.962 3.933-4 7.904-.115 11.912l31.658 24.713c-4.811 8.741-20.365 29.132-65.537 44.245-9.409-7.663-21.407-12.262-34.459-12.262h-29.915c-21.333 0-39.849 12.285-48.847 30.152-9.533.376-19.415.566-29.443.566-9.996 0-19.85-.19-29.36-.565-8.998-17.867-27.515-30.153-48.847-30.153h-29.915c-13.064 0-25.073 4.608-34.485 12.283-11.512-3.846-21.92-8.311-30.985-13.298-3.628-1.996-8.189-.673-10.187 2.956-1.996 3.629-.673 8.19 2.956 10.187 8.176 4.498 17.307 8.589 27.245 12.213-5.807 8.68-9.197 19.108-9.197 30.312 0 12.405 10.092 22.497 22.496 22.497h94.227c12.405 0 22.497-10.092 22.497-22.497 0-3.174-.272-6.285-.794-9.312 7.952.251 16.104.378 24.348.378 8.275 0 16.455-.127 24.432-.379-.522 3.027-.794 6.139-.794 9.313 0 12.405 10.092 22.497 22.496 22.497h94.227c12.404 0 22.496-10.092 22.496-22.497 0-11.216-3.396-21.653-9.214-30.339 61.79-22.556 70.659-55.364 71.023-56.822.718-2.877-.325-5.906-2.661-7.73zm-268.056 102.385h-24.085v-23.928c0-4.142-3.357-7.5-7.5-7.5s-7.5 3.358-7.5 7.5v23.928h-16.056v-23.928c0-4.142-3.357-7.5-7.5-7.5s-7.5 3.358-7.5 7.5v23.928h-24.086c-4.134 0-7.496-3.363-7.496-7.497 0-21.864 17.788-39.652 39.652-39.652h29.915c21.864 0 39.652 17.788 39.652 39.652.002 4.134-3.362 7.497-7.496 7.497zm186.413 0h-24.086v-23.928c0-4.142-3.357-7.5-7.5-7.5s-7.5 3.358-7.5 7.5v23.928h-16.055v-23.928c0-4.142-3.357-7.5-7.5-7.5s-7.5 3.358-7.5 7.5v23.928h-24.086c-4.134 0-7.496-3.363-7.496-7.497 0-21.864 17.788-39.652 39.652-39.652h29.914c21.864 0 39.652 17.788 39.652 39.652.001 4.134-3.362 7.497-7.495 7.497z"/><path d="m47.78 402.885 31.679-24.729c3.885-4.009 3.846-7.979-.115-11.912l-27.045-20.284c6.286-3.661 14.782-8.808 23.411-14.634 32.33-21.833 36.872-33.244 37.477-39.927.034-.379-7.501-121.896-7.501-121.896-.663-11.551 13.963-19.02 22.915-12.296l59.146 44.359c2.343 1.756 5.49 1.99 8.064.599 5.426-2.931 10.917-5.459 16.46-7.579v24.784c0 4.142 3.357 7.5 7.5 7.5s7.5-3.358 7.5-7.5v-29.5c7.021-1.734 14.106-2.831 21.23-3.283v46.754c0 4.142 3.357 7.5 7.5 7.5s7.5-3.358 7.5-7.5v-46.754c7.25.46 14.459 1.588 21.601 3.375v29.336c0 4.142 3.357 7.5 7.5 7.5s7.5-3.358 7.5-7.5v-24.571c5.417 2.091 10.784 4.57 16.09 7.437 2.575 1.393 5.724 1.157 8.064-.599l59.15-44.363c8.92-6.7 23.574.727 22.912 12.264l-2.38 38.281c-.257 4.134 2.886 7.694 7.02 7.951 4.154.265 7.693-2.886 7.951-7.02l2.382-38.316c1.367-23.799-27.144-39.988-46.89-25.155l-24.558 18.418c-18.884-19.167-44.43-32.693-70.959-37.315-2.048-21.487-15.913-40.583-36.504-49.671-3.905-2.016-6.323-5.986-6.323-10.402 0-10.997 8.946-19.943 19.943-19.943s19.943 8.947 19.943 19.943c0 12.763 10.384 23.146 23.146 23.146s23.146-10.383 23.146-23.146c.002-36.524-29.712-66.237-66.235-66.237-27.292 0-51.458 16.411-61.565 41.808-1.531 3.849.347 8.21 4.195 9.742 3.852 1.534 8.21-.347 9.742-4.195 7.822-19.655 26.517-32.355 47.628-32.355 28.252 0 51.236 22.984 51.236 51.236 0 4.492-3.654 8.146-8.146 8.146s-8.146-3.654-8.146-8.146c0-19.268-15.676-34.943-34.943-34.943s-34.943 15.675-34.943 34.943c0 10.192 5.658 19.349 14.768 23.896 14.145 7.072 24.952 18.305 27.704 34.419-5.568-.311-11.136-.277-16.702.102-2.456-8.503-9.16-15.948-18.454-20.031-11.625-5.875-19.861-16.469-22.61-29.094-.881-4.047-4.876-6.612-8.924-5.732-4.048.881-6.614 4.876-5.732 8.924 3.733 17.144 14.933 31.506 30.728 39.404 3.921 1.78 7.157 4.604 9.707 8.471-26.027 4.862-50.795 18.169-69.383 37.03l-24.552-18.414c-19.546-14.684-48.261 1.352-46.893 25.188l7.471 120.017c-.458 1.929-3.965 10.297-30.779 28.419-16.059 10.853-32.181 19.542-32.342 19.629-4.922 3.855-5.238 8.058-.95 12.607l28.391 21.292-28.506 22.252c-2.338 1.825-3.381 4.856-2.66 7.734.28 1.12 3.104 11.313 15.718 24.025 3.53 2.943 7.065 2.957 10.606.042 2.94-2.917 2.959-7.667.042-10.606-5.208-5.246-8.237-9.815-9.926-12.925zm289.939-230.168-18.687 14.015c-40.222-20.193-85.843-20.193-126.064 0l-18.687-14.015c42.386-36.717 113.03-44.628 163.438 0z"/></g></svg>