<svg id="Layer_1" enable-background="new 0 0 512 512" height="512" viewBox="0 0 512 512" width="512" xmlns="http://www.w3.org/2000/svg"><path d="m256 286.95c24.53 0 44.49-19.96 44.49-44.49s-19.96-44.49-44.49-44.49-44.49 19.96-44.49 44.49c0 24.54 19.96 44.49 44.49 44.49zm-27.32-36.48h19.31v19.31c-9.27-2.72-16.59-10.04-19.31-19.31zm35.33 19.31v-19.31h19.31c-2.72 9.27-10.04 16.59-19.31 19.31zm19.31-35.32h-19.31v-19.31c9.27 2.72 16.59 10.04 19.31 19.31zm-35.33-19.32v19.31h-19.31c2.72-9.26 10.04-16.58 19.31-19.31zm-138.91 119.1c-18.5 0-33.55 15.05-33.55 33.55v51.7c0 4.42 3.58 8.01 8.01 8.01h51.08c4.42 0 8.01-3.58 8.01-8.01v-51.7c0-18.5-15.05-33.55-33.55-33.55zm0 16.01c6.78 0 12.66 3.88 15.58 9.52h-31.16c2.92-5.64 8.8-9.52 15.58-9.52zm-17.53 61.23v-35.69h35.06v35.69zm285.83 16.02h51.08c4.42 0 8.01-3.58 8.01-8.01v-51.7c0-18.5-15.05-33.55-33.55-33.55s-33.55 15.05-33.55 33.55v51.7c0 4.42 3.59 8.01 8.01 8.01zm8.01-16.02v-35.69h35.06v35.69zm17.53-61.23c6.78 0 12.66 3.88 15.58 9.52h-31.16c2.92-5.64 8.8-9.52 15.58-9.52zm101.08 139.27h-35.25v-176.7l14.8 7.11c1.12.54 2.3.79 3.46.79 2.78 0 5.46-1.45 6.94-4l16.98-29.4c1.12-1.93 1.38-4.24.72-6.37s-2.17-3.89-4.18-4.85l-154.37-74.14v-10.66l3.92 1.88c1.12.54 2.3.79 3.46.79 2.78 0 5.47-1.45 6.94-4.01l16.98-29.42c1.11-1.93 1.37-4.24.71-6.37s-2.17-3.89-4.18-4.85l-105.64-50.71v-18.73h20.68c4.42 0 8.01-3.58 8.01-8.01v-22.53c0-4.42-3.58-8.01-8.01-8.01h-20.68v-26.86c0-4.42-3.58-8.01-8.01-8.01h-22.54c-4.42 0-8.01 3.58-8.01 8.01v26.86h-20.71c-4.42 0-8.01 3.58-8.01 8.01v22.54c0 4.42 3.58 8.01 8.01 8.01h20.71v18.73l-105.63 50.71c-2.01.96-3.53 2.72-4.18 4.85-.66 2.13-.4 4.44.71 6.37l16.98 29.42c1.47 2.56 4.16 4.01 6.94 4.01 1.17 0 2.35-.25 3.46-.79l3.89-1.87v10.64l-154.37 74.13c-2.01.96-3.53 2.72-4.18 4.85-.66 2.13-.4 4.44.72 6.37l16.98 29.4c1.48 2.55 4.16 4 6.94 4 1.17 0 2.35-.25 3.46-.79l14.8-7.11v176.7h-35.25c-4.42 0-8.01 3.58-8.01 8.01s3.58 8.01 8.01 8.01h496c4.42 0 8.01-3.58 8.01-8.01s-3.58-8-8.01-8zm-51.26 0h-99.64v-232.23l99.64 47.84zm40.01-202.73-8.95 15.49-130.7-62.75v-19.79zm-126.54-126.76-8.95 15.51-81.97-39.36v-19.8zm-142.17-96.16v-6.52h20.71c4.42 0 8.01-3.58 8.01-8.01v-26.86h6.52v26.86c0 4.42 3.58 8.01 8.01 8.01h20.68v6.52h-20.68c-4.42 0-8.01 3.58-8.01 8.01v61.21h-6.52v-61.21c0-4.42-3.58-8.01-8.01-8.01zm-69.27 111.67-8.95-15.51 90.92-43.65v19.8zm92.05-26.43h18.38l71.88 34.51v305.9h-31.24v-110.68c0-27.49-22.36-49.85-49.85-49.85s-49.85 22.36-49.85 49.85v110.68h-31.24v-305.89zm1.17 340.41h-25.82v-110.68c0-15.9 11.02-29.26 25.82-32.87zm16.02-143.55c14.8 3.61 25.82 16.97 25.82 32.87v110.68h-25.82zm-235.81-43.69-8.95-15.49 139.65-67.06v19.79zm31.06 2.85 99.64-47.84v232.23h-99.64z"/></svg>