<?xml version="1.0"?>
<svg xmlns="http://www.w3.org/2000/svg" data-name="Layer 1" id="Layer_1" viewBox="0 0 128 128"><title/><path d="M103,78v8a2.0001,2.0001,0,0,0,2,2h8a2.0001,2.0001,0,0,0,2-2V78a2.0001,2.0001,0,0,0-2-2h-8A2.0001,2.0001,0,0,0,103,78Zm4,2h4v4h-4Z"/><path d="M113,92h-8a2.0001,2.0001,0,0,0-2,2v8a2.0001,2.0001,0,0,0,2,2h8a2.0001,2.0001,0,0,0,2-2V94A2.0001,2.0001,0,0,0,113,92Zm-2,8h-4V96h4Z"/><path d="M113,108h-8a2.0001,2.0001,0,0,0-2,2v8a2.0001,2.0001,0,0,0,2,2h8a2.0001,2.0001,0,0,0,2-2v-8A2.0001,2.0001,0,0,0,113,108Zm-2,8h-4v-4h4Z"/><path d="M23,76H15a2.0001,2.0001,0,0,0-2,2v8a2.0001,2.0001,0,0,0,2,2h8a2.0001,2.0001,0,0,0,2-2V78A2.0001,2.0001,0,0,0,23,76Zm-2,8H17V80h4Z"/><path d="M23,92H15a2.0001,2.0001,0,0,0-2,2v8a2.0001,2.0001,0,0,0,2,2h8a2.0001,2.0001,0,0,0,2-2V94A2.0001,2.0001,0,0,0,23,92Zm-2,8H17V96h4Z"/><path d="M23,108H15a2.0001,2.0001,0,0,0-2,2v8a2.0001,2.0001,0,0,0,2,2h8a2.0001,2.0001,0,0,0,2-2v-8A2.0001,2.0001,0,0,0,23,108Zm-2,8H17v-4h4Z"/><path d="M68,53H66V49a2,2,0,0,0-4,0v4H60a2,2,0,0,0,0,4h2V71a2,2,0,0,0,4,0V57h2a2,2,0,0,0,0-4Z"/><path d="M123.89746,61.30762l-22.76123-7.58679L81.6543,28.3457A6.039,6.039,0,0,0,76.89551,26H76V18h4a2.00016,2.00016,0,0,0,1.31738-3.50488l-16-14a2.00017,2.00017,0,0,0-2.63477,0l-16,14A2.00016,2.00016,0,0,0,48,18h4v8h-.89551a6.037,6.037,0,0,0-4.75879,2.34668l-19.48236,25.374-22.7608,7.587A5.999,5.999,0,0,0,5,72.91431V126a2.0001,2.0001,0,0,0,2,2H121a2.0001,2.0001,0,0,0,2-2V72.91431a5.999,5.999,0,0,0,.89746-11.60669ZM64,4.65723,74.67676,14H53.32324ZM72,18v8H56V18ZM23.41309,64.78223l26.10449-33.999A2.01451,2.01451,0,0,1,51.10449,30h25.791a2.01648,2.01648,0,0,1,1.58691.78223l26.10352,34a2.00186,2.00186,0,0,1-.36816,2.80371,2.04309,2.04309,0,0,1-2.80469-.36816L76.50977,34.78223A1.99739,1.99739,0,0,0,74.92383,34H53.07617a1.99739,1.99739,0,0,0-1.58594.78223L26.58594,67.21777a1.99993,1.99993,0,0,1-3.17285-2.43555ZM6.63184,68.89746a2.02877,2.02877,0,0,1-2.5293-1.26465,2.00356,2.00356,0,0,1,1.26563-2.53027l17.144-5.7149-2.272,2.959a5.95192,5.95192,0,0,0-1.09589,2.37994ZM29,124H9V72.32489l10.68323-3.5611A5.97951,5.97951,0,0,0,29,70.46661Zm33,0H52V100A12.0089,12.0089,0,0,1,62,88.1806Zm14,0H66V88.1806A12.0089,12.0089,0,0,1,76,100Zm19,0H80V100a16,16,0,0,0-32,0v24H33V65.43195L54.06249,38h19.875L95,65.43195Zm24,0H99V70.46149a5.97609,5.97609,0,0,0,9.31726-1.69751L119,72.32489Zm4.89746-56.36719a2.03085,2.03085,0,0,1-2.5293,1.26465l-12.51282-4.1709a5.95267,5.95267,0,0,0-1.09656-2.37988l-2.27191-2.95917,17.145,5.715A2.00356,2.00356,0,0,1,123.89746,67.63281Z"/></svg>
