<svg id="_01-suit" viewBox="0 0 48 48" xmlns="http://www.w3.org/2000/svg" data-name="01-suit"><g fill="none" stroke="#000" stroke-linejoin="round" stroke-width="2"><path d="m19 1 5 5-4 4-3-3z"/><path d="m29 1-5 5 4 4 3-3z"/><path d="m21 9 1 4h4l1-4"/><path d="m31 7 2 2v16l-9 9-9-9v-16l2-2"/><path d="m22 13-2 17"/><path d="m26 13 2 17"/><path d="m30 4 15 5 2 27-7 8-5-5 6-7-1-12"/><path d="m38 36-1-4 4-16"/><path d="m24 45 2 2h15l-1-3"/><path d="m18 4-15 5-2 27 7 8 5-5-6-7 1-12"/><path d="m10 36 1-4-4-16"/><path d="m24 34v11l-2 2h-15l1-3"/><path d="m36 40-3.5-3.5"/><path d="m19 37h2"/><path d="m19 41h2"/><path d="m27 41h2"/><path d="m27 37h2"/><path d="m13 39 3-3"/><path d="m37 6 1 7-2 3 1 3-4 6"/><path d="m11 6-1 7 2 3-1 3 4 6"/></g></svg>