<svg id="Layer_1" enable-background="new 0 0 450 450" viewBox="0 0 450 450" xmlns="http://www.w3.org/2000/svg"><g><g><path d="m225.3 446.4c-92.7 0-168.1-75.4-168.1-168.1 0-47.9 20.6-93.7 56.4-125.6 2.1-1.8 5.2-1.6 7.1.4s1.6 5.2-.4 7.1c-33.7 30-53 73.1-53 118.1 0 87.2 70.9 158.1 158.1 158.1s158.1-70.9 158.1-158.1c0-45.1-19.3-88.1-53-118.1-2.1-1.8-2.3-5-.4-7.1s5-2.3 7.1-.4c35.8 31.9 56.4 77.7 56.4 125.6-.2 92.6-75.6 168.1-168.3 168.1z"/></g><g><path d="m388.1 292.6c-2.5 0-4.6-1.8-5-4.3-.4-2.7 1.5-5.3 4.3-5.6 4.7-.6 9.2-2.2 13.4-4.6 15.6-9 22.4-28.4 15.9-45.2-.9-2.3 0-4.8 2-6.1 17.1-10.5 22.7-32.3 12.6-49.7-10-17.4-31.7-23.5-49.4-13.9-2.1 1.2-4.8.6-6.3-1.3-5-6.2-12-10.7-19.8-12.7-2.7-.7-4.3-3.4-3.6-6.1s3.4-4.3 6.1-3.6c8.6 2.1 16.4 6.7 22.5 13.1 9.9-4.3 20.8-5.1 31.3-2.1 11.8 3.3 21.7 11 27.8 21.6s7.9 23 4.8 34.9c-2.7 10.6-8.9 19.7-17.5 26.1 6 20.4-2.8 42.9-21.5 53.7-5.3 3-11 5-17 5.8-.2-.1-.4 0-.6 0z"/></g><g><path d="m62.4 292.6c-.2 0-.4 0-.7 0-6-.8-11.7-2.8-17-5.8-18.7-10.8-27.5-33.3-21.5-53.7-8.7-6.4-14.8-15.5-17.5-26.1-3-11.9-1.3-24.3 4.8-34.9s16-18.3 27.8-21.6c10.5-2.9 21.5-2.2 31.3 2.1 6.1-6.3 13.9-10.9 22.5-13.1 2.7-.7 5.4 1 6.1 3.6s-1 5.4-3.6 6.1c-7.8 1.9-14.8 6.4-19.8 12.7-1.5 1.9-4.2 2.4-6.3 1.3-17.6-9.6-39.3-3.5-49.4 13.9s-4.5 39.2 12.6 49.7c2.1 1.3 2.9 3.8 2 6.1-6.5 16.8.3 36.2 15.9 45.2 4.2 2.4 8.7 4 13.4 4.6 2.7.4 4.7 2.9 4.3 5.6-.2 2.4-2.4 4.3-4.9 4.3z"/></g><g><path d="m338.4 161.4h-226.3c-14.1 0-25.6-11.5-25.6-25.6s11.5-25.6 25.6-25.6h226.3c14.1 0 25.6 11.5 25.6 25.6s-11.5 25.6-25.6 25.6zm-226.3-41.2c-8.6 0-15.6 7-15.6 15.6s7 15.6 15.6 15.6h226.3c8.6 0 15.6-7 15.6-15.6s-7-15.6-15.6-15.6z"/></g><g><path d="m337.2 120.2c-2.8 0-5-2.2-5-5v-72.6c0-9.2-5.1-19.5-12.2-24.5-4.2-3-8.4-3.7-12.6-2.2-55.7 19.6-111.4 19.6-165.5 0-4.1-1.5-8.3-.8-12.4 2.1-7.1 5-12.3 15.4-12.3 24.6v72.6c0 2.8-2.2 5-5 5s-5-2.2-5-5v-72.6c0-12.5 6.8-26 16.6-32.8 6.8-4.8 14.4-5.9 21.6-3.3 52.6 19.1 104.6 19.1 158.8 0 7.2-2.5 14.9-1.3 21.7 3.5 9.7 6.8 16.4 20.3 16.4 32.7v72.6c-.1 2.7-2.3 4.9-5.1 4.9z"/></g><g><path d="m152 306.8c-5.3 0-10.2-2.4-13.8-6.8l-29.5-36.3c-7-8.6-6.9-22.3.2-31.1l29.1-35.7c3.7-4.5 8.8-7.1 14.2-7.1 5.3 0 10.2 2.4 13.8 6.8l29.5 36.3c7 8.6 6.9 22.3-.2 31.1l-29.1 35.7c-3.7 4.5-8.9 7.1-14.2 7.1zm.1-107c-2.4 0-4.6 1.2-6.4 3.4l-29.1 35.7c-4.1 5.1-4.2 13.5-.2 18.5l29.5 36.3c1.6 2 3.8 3.1 6 3.1 2.4 0 4.6-1.2 6.4-3.4l29.1-35.7c4.1-5.1 4.2-13.5.2-18.5l-29.5-36.3c-1.6-2-3.7-3.1-6-3.1z"/></g><g><path d="m298.4 306.8c-5.3 0-10.2-2.4-13.8-6.8l-29.5-36.3c-7-8.6-7-22.3.2-31.1l29.1-35.7c3.7-4.5 8.8-7.1 14.2-7.1 5.3 0 10.2 2.4 13.8 6.8l29.5 36.3c7 8.6 7 22.3-.2 31.1l-29.1 35.7c-3.7 4.5-8.9 7.1-14.2 7.1zm.2-107c-2.4 0-4.6 1.2-6.4 3.4l-29.2 35.7c-4.1 5.1-4.2 13.5-.2 18.5l29.5 36.3c1.6 2 3.8 3.1 6 3.1 2.4 0 4.6-1.2 6.4-3.4l29.1-35.7c4.1-5.1 4.2-13.5.2-18.5l-29.5-36.3c-1.6-2-3.7-3.1-5.9-3.1z"/></g><g><path d="m152.1 272.3c-2.8 0-5-2.2-5-5v-37.9c0-2.8 2.2-5 5-5s5 2.2 5 5v37.9c0 2.7-2.3 5-5 5z"/></g><g><path d="m171 253.3h-37.9c-2.8 0-5-2.2-5-5s2.2-5 5-5h37.9c2.8 0 5 2.2 5 5s-2.2 5-5 5z"/></g><g><path d="m298.5 272.3c-2.8 0-5-2.2-5-5v-37.9c0-2.8 2.2-5 5-5s5 2.2 5 5v37.9c0 2.7-2.3 5-5 5z"/></g><g><path d="m317.4 253.3h-37.9c-2.8 0-5-2.2-5-5s2.2-5 5-5h37.9c2.8 0 5 2.2 5 5s-2.2 5-5 5z"/></g><g><path d="m225.3 407.9c-.1 0-.2 0-.3 0-20.7-.3-51.2-6.3-72.6-19.1-4.2-2.5-7.3-6.6-8.5-11.4s-.5-9.8 2.1-14c5.2-8.8 16.6-11.7 25.4-6.4 3.4 2.1 8.6 4.3 14.8 6.6 12.7 4.6 26.2 7.1 39.1 7.3 18.4-.3 40.6-6 53.9-13.9 4.2-2.5 9.2-3.3 14-2s8.9 4.2 11.4 8.5c5.2 8.8 2.4 20.2-6.4 25.4-21.5 12.8-52 18.8-72.6 19.1-.2-.1-.3-.1-.3-.1zm-63.4-43.5c-2.9 0-5.8 1.5-7.4 4.2-1.2 2-1.5 4.3-.9 6.5s1.9 4.1 3.9 5.3c17.2 10.3 44.4 17.4 67.7 17.7h.2c23.3-.3 50.4-7.4 67.7-17.7 2-1.2 3.3-3 3.9-5.3s.2-4.5-.9-6.5c-1.2-2-3-3.3-5.2-3.9s-4.5-.2-6.5.9c-17.1 10.1-42.6 15-58.9 15.3-.1 0-.1 0-.2 0-14.2-.2-28.4-2.9-42.4-7.9-6.9-2.5-12.5-5-16.6-7.4-1.4-.9-2.9-1.2-4.4-1.2z"/></g><g><path d="m225.3 358.2c-22.5 0-40.9-18.3-40.9-40.9s18.3-40.9 40.9-40.9 40.9 18.3 40.9 40.9-18.4 40.9-40.9 40.9zm0-71.7c-17 0-30.9 13.9-30.9 30.9s13.9 30.9 30.9 30.9 30.9-13.9 30.9-30.9-13.9-30.9-30.9-30.9z"/></g></g></svg>