<svg height="512pt" viewBox="-42 0 512 512" width="512pt" xmlns="http://www.w3.org/2000/svg"><path d="m231.328125 332.859375h-5.773437l6.691406-16.410156c1.566406-3.835938-.273438-8.214844-4.109375-9.777344-3.835938-1.5625-8.214844.277344-9.777344 4.113281l-9.085937 22.277344c-1.351563 3.320312-.964844 7.074219 1.035156 10.050781 1.996094 2.972657 5.328125 4.746094 8.914062 4.746094h5.769532l-6.691407 16.414063c-1.566406 3.835937.273438 8.210937 4.109375 9.777343.929688.378907 1.886719.554688 2.832032.554688 2.957031 0 5.761718-1.761719 6.945312-4.667969l9.085938-22.28125c1.355468-3.316406.96875-7.074219-1.03125-10.046875s-5.332032-4.75-8.914063-4.75zm0 0"/><path d="m362.625 446.589844h-2.082031c.671875-2.070313 1.035156-4.273438 1.035156-6.5625 0-11.886719-9.8125-21.558594-21.867187-21.558594h-.625l21.722656-49.820312c3.4375-7.90625 2.8125-17.019532-1.675782-24.378907l-54.644531-89.453125c-1.949219-3.191406-4.417969-5.988281-7.257812-8.308594-.15625-.148437-.324219-.289062-.492188-.425781-13.570312-10.710937-26.941406-5.976562-42.1875-7.121093v-12.488282c9.476563-3.855468 18.179688-9.605468 25.628907-17.058594 11.578124-11.566406 19.046874-26.144531 21.6875-41.976562 5.160156-.660156 19.816406 3.042969 32.335937-9.476562 6.113281-6.109376 9.476563-14.242188 9.476563-22.894532 0-12.625-7.269532-23.585937-17.847657-28.914062v-5.59375c0-55.449219-45.113281-100.558594-100.5625-100.558594-26.855469 0-52.105469 10.460938-71.101562 29.457031-18.988281 19-29.445313 44.253907-29.445313 71.101563v5.589844c-5.101562 2.570312-9.4375 6.453124-12.554687 11.199218-.632813-7.960937-6.613281-14.675781-14.671875-16.070312-.992188-.171875-2.007813-.257813-3.015625-.257813-8.460938 0-15.78125 6.039063-17.402344 14.363281l-6.457031 33.339844c-2.050782 10.550782-.851563 21.347656 3.460937 31.214844l3.617188 8.265625-4.617188 31.703125c-.597656 4.101562 2.238281 7.90625 6.339844 8.503906 4.089844.601563 7.90625-2.238281 8.503906-6.339844l4.929688-33.828124c.203125-1.390626.011719-2.804688-.550781-4.089844l-4.480469-10.226563c-3.085938-7.066406-3.945313-14.792969-2.476563-22.351562l6.457032-33.332031c.28125-1.441407 1.667968-2.441407 3.140624-2.183594 1.363282.234375 2.339844 1.449218 2.277344 2.824218l-1.28125 27.75c-.082031 1.796876.480469 3.5625 1.59375 4.976563l14.632813 18.632813c2.785156 3.546874 2.984375 8.460937.488281 12.234374l-4.351562 6.589844c-.609376.917969-1.003907 1.960938-1.164063 3.050782l-15.5 106.238281c-.007813.074219-.019531.144531-.027344.21875l-3.292969 22.574219c-.597656 4.097656 2.242188 7.90625 6.339844 8.5.367188.054687.730469.082031 1.09375.082031 3.660156 0 6.867188-2.6875 7.410156-6.417969l2.925782-20.0625 45.316406-39.804688 1.035156 26.777344-67.21875 59.054688c-4.328125 3.808594-8.84375 1.835937-10.125 1.140625-1.285156-.695313-5.402344-3.410157-4.570312-9.113281l12.859375-88.132813c.597656-4.097656-2.242188-7.90625-6.339844-8.503906-4.082031-.597657-7.90625 2.238281-8.503906 6.339843l-12.859375 88.132813c-1.460938 10.027344 3.351562 19.628906 12.261718 24.460937 8.90625 4.832032 19.574219 3.632813 27.179688-3.058593l58.066406-51.019531 4.203125 107.832031h-2.882812c-7.433594 0-13.484375 6.050781-13.484375 13.488281v15.746094h-15.835938v-15.746094c0-7.4375-6.046875-13.488281-13.480468-13.488281h-15.960938c-7.4375 0-13.484375 6.050781-13.484375 13.488281v15.746094h-17.363281c-12.425782 0-22.53125 10.109375-22.53125 22.53125v35.378906c0 4.140625 3.355468 7.5 7.5 7.5h43.0625c4.144531 0 7.5-3.359375 7.5-7.5s-3.355469-7.5-7.5-7.5h-35.566406v-27.878906c0-4.152344 3.375-7.53125 7.527343-7.53125h297.730469c4.152344 0 7.53125 3.378906 7.53125 7.53125v27.878906h-246.128906c-4.144532 0-7.5 3.359375-7.5 7.5s3.355468 7.5 7.5 7.5h253.628906c4.144531 0 7.5-3.359375 7.5-7.5v-35.378906c0-12.425782-10.109375-22.53125-22.53125-22.53125zm-48.667969-76.898438-11.367187 26.058594c-1.796875-.382812-3.664063-.585938-5.574219-.585938h-2.988281l2.195312-56.429687 17.585938 28.785156c.410156.664063.460937 1.453125.148437 2.171875zm-27.773437 40.476563h.042968.019532c.097656 0 .1875 0 .28125-.003907h10.488281c2.042969 0 3.964844.523438 5.640625 1.445313.144531.089844.289062.175781.4375.253906 2.441406 1.480469 4.300781 3.828125 5.152344 6.605469h-32.972656c1.445312-4.703125 5.769531-8.160156 10.910156-8.300781zm-1.753906-154.21875-.785157 20.140625c-.160156 4.136718 3.066407 7.625 7.203125 7.785156 4.15625.152344 7.625-3.0625 7.785156-7.203125l.097657-2.503906 47.597656 77.917969c1.945313 3.191406 2.21875 7.148437.726563 10.574218l-23.730469 54.421875c-1.003907-5.484375-3.6875-10.390625-7.496094-14.164062l11.875-27.222657c2.265625-5.183593 1.859375-11.164062-1.09375-15.996093l-29.339844-48.015625.117188-2.914063c.160156-4.136719-3.066407-7.625-7.207031-7.785156-4.167969-.132813-7.621094 3.066406-7.78125 7.207031l-3.433594 88.054688c-10.019532 2.953125-17.617188 11.625-18.984375 22.222656h-29.582031c-12.058594 0-21.867188 9.671875-21.867188 21.5625 0 2.285156.363281 4.488281 1.035156 6.558594h-25.613281v-15.746094c0-6.777344-5.023437-12.402344-11.542969-13.347656l-4.84375-124.21875c0-.023438 0-.050782 0-.074219l-1.511718-38.992187c3.25-.542969 7.042968-.148438 19.179687-.25 3.527344 18.894531 20.140625 33.242187 40.035156 33.242187 19.90625 0 36.519531-14.347656 40.050781-33.242187 9.105469.492187 12.871094-1.191407 19.109376 1.988281zm-37.378907-1.988281h2.84375c-3.214843 10.546874-13.039062 18.238281-24.625 18.238281-11.578125 0-21.398437-7.691407-24.613281-18.238281h2.847656c4.140625 0 7.5-3.359376 7.5-7.5v-15.613282c4.625.863282 9.394532 1.3125 14.269532 1.3125 4.839843 0 9.617187-.441406 14.277343-1.300781v15.601563c0 4.140624 3.355469 7.5 7.5 7.5zm22.527344-55.152344c-6.972656 6.972656-15.300781 12.097656-24.390625 15.132812-.3125.082032-.617188.179688-.914062.300782-6.066407 1.921874-12.457032 2.917968-19.003907 2.917968-31.300781 0-57.3125-23.074218-61.921875-53.105468 4.457032 1.746093 9.25 2.683593 14.136719 2.683593 12.585937 0 24.445313-6.152343 31.71875-16.453125 3.378906-4.785156 9.121094-7.644531 15.363281-7.644531h1.410156c6.179688 0 12 2.964844 15.570313 7.929687 7.652344 10.628907 20.046875 16.644532 33.117187 16.132813 4.410157-.175781 8.628907-1.085937 12.539063-2.605469-1.996094 13.097656-8.082031 25.171875-17.625 34.710938zm-108.828125-53.917969c-.175781-.195313-.355469-.378906-.546875-.558594-.679687-.714843-1.320313-1.480469-1.921875-2.289062-4.570312-6.183594-5.835938-14.152344-3.472656-21.859375 2.917968-9.519532 12.15625-16.167969 22.445312-16.167969h28.148438c4.484375 6.617187 11.816406 10.53125 19.871094 10.53125 8.054687 0 15.390624-3.914063 19.875-10.53125h27.917968c13.847656 0 24.761719 11.6875 23.800782 25.582031-.832032 11.917969-10.847657 21.632813-22.808594 22.117188-8.054688.3125-15.636719-3.378906-20.332032-9.90625-6.386718-8.871094-16.757812-14.167969-27.75-14.167969h-1.410156c-11.105468 0-21.429687 5.230469-27.617187 13.992187-4.464844 6.324219-11.742188 10.101563-19.464844 10.101563-6.375 0-12.300781-2.453125-16.734375-6.84375zm112.316406-55.875h-29.292968c-4.355469 0-8.476563 2.355469-10.757813 6.140625-1.65625 2.75-4.550781 4.390625-7.742187 4.390625-3.1875 0-6.085938-1.640625-7.738282-4.390625-2.28125-3.785156-6.402344-6.140625-10.757812-6.140625h-29.503906c-4.839844 0-9.539063.910156-13.890626 2.582031 4.265626-24.914062 26.023438-43.9375 52.140626-43.9375h19.507812c26.148438 0 47.929688 19.070313 52.15625 44.027344-4.464844-1.746094-9.253906-2.671875-14.121094-2.671875zm50.53125 58.339844c-7.074218 7.074219-15.425781 4.5625-20.375 5.085937 4.898438-6.011718 8.03125-13.535156 8.605469-21.800781.308594-4.441406-.117187-8.792969-1.230469-12.929687h.710938c9.59375 0 17.371094 7.804687 17.371094 17.359374 0 4.644532-1.804688 9.007813-5.082032 12.285157zm-158.824218-107.292969c16.164062-16.160156 37.648437-25.0625 60.496093-25.0625 47.179688 0 85.5625 38.382812 85.5625 85.558594v2.152344h-7.898437v-2.160157c0-37.4375-30.460938-67.890625-67.902344-67.890625h-19.507812c-37.441407 0-67.902344 30.453125-67.902344 67.890625v2.160157h-7.898438v-2.152344c0-22.84375 8.894532-44.332032 25.050782-60.496094zm-25.542969 77.648438h.695312c-3 11.707031-.746093 23.722656 6.296875 33.25.371094.503906.753906.996093 1.148438 1.480468h-8.140625c-4.636719 0-9-1.804687-12.277344-5.085937-3.277344-3.277344-5.082031-7.640625-5.082031-12.285157 0-9.542968 7.761718-17.359374 17.359375-17.359374zm-29.800781 162.640624 12.3125-84.414062 3.421874-5.1875c5.210938-7.867188 5.59375-17.796875 1.304688-25.914062 3.976562 1.707031 8.300781 2.605468 12.761719 2.605468h9.46875c4.511719 26.796875 22.796875 48.984375 47.300781 58.992188v12.527344c-26.769531 0-31.003906-.726563-38.507812 2.074218-.058594.023438-.121094.046875-.183594.070313-.027344.007812-.054688.019531-.085938.03125-3.65625 1.398437-7.066406 3.441406-10.0625 6.066406zm-12.167969 166.238282v-14.234375h12.929687v14.234375zm58.765625 0v-14.234375h8.941406c.070312.003906.144531.003906.21875.003906.070312 0 .140625 0 .210938-.003906h3.554687v14.234375zm74.371094 0c-3.785157 0-6.867188-2.941406-6.867188-6.5625 0-3.617188 3.082031-6.558594 6.867188-6.558594h97.039062c.0625.003906.125.003906.191406.003906.058594 0 .117188-.003906.179688-.003906h11.902344c3.785156 0 6.867187 2.941406 6.867187 6.558594 0 3.621094-3.082031 6.5625-6.867187 6.5625zm0 0"/><path d="m103.308594 471.796875h-13.167969c-4.140625 0-7.5 3.355469-7.5 7.5 0 4.140625 3.359375 7.5 7.5 7.5h13.167969c4.140625 0 7.5-3.359375 7.5-7.5 0-4.144531-3.359375-7.5-7.5-7.5zm0 0"/><path d="m150.808594 486.796875c4.140625 0 7.5-3.359375 7.5-7.5 0-4.144531-3.359375-7.5-7.5-7.5h-13.167969c-4.140625 0-7.5 3.355469-7.5 7.5 0 4.140625 3.359375 7.5 7.5 7.5zm0 0"/><path d="m292.554688 483.597656v-8.605468c0-4.140626-3.359376-7.5-7.5-7.5-4.144532 0-7.5 3.359374-7.5 7.5v8.605468c0 4.140625 3.355468 7.5 7.5 7.5 4.140624 0 7.5-3.359375 7.5-7.5zm0 0"/><path d="m328.59375 483.597656v-8.605468c0-4.140626-3.355469-7.5-7.5-7.5s-7.5 3.359374-7.5 7.5v8.605468c0 4.140625 3.355469 7.5 7.5 7.5s7.5-3.359375 7.5-7.5zm0 0"/><path d="m423.667969 143.59375c-2.449219-2.105469-5.683594-3.03125-8.878907-2.542969l-53.109374 8.140625c-5.4375.832032-9.382813 5.429688-9.382813 10.929688v31.816406c-2.113281-.6875-4.367187-1.058594-6.703125-1.058594-11.964844 0-21.699219 9.734375-21.699219 21.699219s9.734375 21.699219 21.699219 21.699219 21.703125-9.734375 21.703125-21.699219v-49.070313l45.226563-6.933593v26.128906c-2.109376-.683594-4.363282-1.058594-6.699219-1.058594-11.96875 0-21.703125 9.738281-21.703125 21.703125s9.734375 21.699219 21.703125 21.699219c11.964843 0 21.699219-9.734375 21.699219-21.699219v-51.367187c0-3.226563-1.40625-6.285157-3.855469-8.386719zm-78.074219 75.6875c-3.695312 0-6.699219-3.007812-6.699219-6.703125s3.003907-6.699219 6.699219-6.699219 6.703125 3.003906 6.703125 6.699219-3.007813 6.703125-6.703125 6.703125zm60.230469-9.230469c-3.695313 0-6.703125-3.007812-6.703125-6.703125 0-3.695312 3.007812-6.699218 6.703125-6.699218 3.695312 0 6.699219 3.003906 6.699219 6.699218 0 3.695313-3.003907 6.703125-6.699219 6.703125zm0 0"/><path d="m43.402344 392.1875 10.515625 7.285156c3.40625 2.355469 8.078125 1.507813 10.4375-1.898437 2.355469-3.402344 1.507812-8.078125-1.898438-10.433594l-11.507812-7.96875c-4.410157-3.054687-10.097657-3.402344-14.847657-.914063-4.75 2.484376-7.699218 7.363282-7.699218 12.726563v18.703125c-2.113282-.6875-4.363282-1.058594-6.703125-1.058594-11.964844 0-21.699219 9.734375-21.699219 21.699219 0 11.96875 9.734375 21.703125 21.699219 21.703125 11.96875 0 21.703125-9.734375 21.703125-21.703125zm-21.703125 44.84375c-3.695313 0-6.703125-3.007812-6.703125-6.703125 0-3.691406 3.007812-6.699219 6.703125-6.699219 3.695312 0 6.699219 3.007813 6.699219 6.699219 0 3.695313-3.003907 6.703125-6.699219 6.703125zm0 0"/><path d="m233.742188 187.796875h-15.121094c-15.828125 0-20.910156-10.832031-21.390625-16.558594-.015625-.207031-.023438-.414062-.023438-.621093v-.347657c0-4.140625 3.355469-7.5 7.5-7.5 4.023438 0 7.3125 3.171875 7.492188 7.15625.277343 1.011719 1.46875 2.871094 6.421875 2.871094h15.121094c4.144531 0 7.5 3.355469 7.5 7.5 0 4.140625-3.355469 7.5-7.5 7.5zm-21.5625-17.804687"/></svg>