<svg id="Capa_1" enable-background="new 0 0 512.002 512.002" height="512" viewBox="0 0 512.002 512.002" width="512" xmlns="http://www.w3.org/2000/svg"><g><path d="m260.574 153.854c-2.929-2.928-7.678-2.927-10.607 0-2.929 2.93-2.929 7.678 0 10.607l8.485 8.485c2.931 2.929 7.678 2.928 10.607 0 2.929-2.93 2.929-7.678 0-10.607zm238.669 240.292c-10.732-17.18-24.959-34.326-43.353-52.259 2.954-3.818 5.841-7.646 8.644-11.482 2.444-3.345 1.713-8.037-1.631-10.48-3.346-2.444-8.038-1.713-10.48 1.631-34.479 47.194-83.14 95.739-133.885 130.752-10.184 7.02-24.257.076-24.753-12.237-1.086-26.871-10.374-53.635-27.628-79.681 22.159-8.643 40.906-37.265 38.177-63.853 26.523 2.719 55.167-15.918 63.848-38.177 26.046 17.256 52.811 26.543 79.683 27.629 7.602.308 12.22 5.488 14.006 10.234 1.454 3.861 5.769 5.841 9.662 4.377 3.876-1.46 5.836-5.785 4.377-9.662-4.373-11.614-15.144-19.439-27.44-19.938-15.267-.616-30.573-4.253-45.779-10.826 10.122-3.697 21.071-6.216 31.566-7.169 17.973-1.634 31.266-17.583 29.633-35.552-1.634-17.983-17.5-31.265-35.553-29.634-27.945 2.538-57.658 12.35-79.717 26.081 11.838-44.279-3.753-85.35-38.678-114.15 16.647-11.222 26.916-26.472 32.831-38.193 9.028-17.891-5.13-38.563-25.082-36.705-41.405 3.814-64.598-23.362-103.436-24.813-30.123-1.128-56.744 22.507-56.66 53.625.024 8.679 2.101 17.048 6.057 24.599-15.086 9.444-27.359 22.118-35.804 37.282 0 0-.001 0-.001.001-1.054 1.893-2.611 3.45-4.505 4.504-15.164 8.445-27.838 20.718-37.282 35.804-9.023-4.726-18.966-6.611-28.509-5.922-4.131.295-7.242 3.884-6.946 8.015.295 4.133 3.884 7.272 8.016 6.946 6.992-.491 14.02.907 20.328 4.17-14.314 31.276-14.415 67.651-5.11 90.002 2.543 6.109 8.111 10.831 15.357 11.902 2.369 6.21 5.341 12.22 8.905 18.009-9.542 16.872-24.377 26.995-35.505 32.61-7.369 3.719-15.768-2.111-15.011-10.31 4.215-45.681-23.462-70.684-24.76-105.377-.386-10.328 3.138-20.277 9.924-28.015 2.731-3.114 2.421-7.853-.693-10.584-3.115-2.732-7.853-2.421-10.584.693-9.323 10.631-14.166 24.291-13.636 38.466 1.455 38.912 28.632 62.046 24.813 103.438-1.843 19.971 18.818 34.102 36.705 25.082 11.722-5.914 26.962-16.196 38.182-32.844 28.713 34.818 69.813 50.547 114.158 38.692-13.727 22.052-23.538 51.764-26.077 79.714-1.632 17.972 11.661 33.921 29.637 35.555 17.973 1.622 33.918-11.676 35.549-29.634.953-10.495 3.471-21.443 7.169-31.564 6.572 15.205 10.209 30.511 10.826 45.777.973 24.095 28.321 37.736 48.259 23.978 7.713-5.322 15.392-10.957 23.022-16.872 7.318 14.427 12.494 27.524 15.736 39.823 4.628 17.563 22.572 27.901 39.985 23.309 17.49-4.609 27.918-22.493 23.307-39.985-5.488-20.826-14.812-42.904-28.446-67.338 4.237-4.138 7.688-7.593 12.199-12.242 13.235 13.163 23.374 25.473 30.873 37.477 9.516 15.231 29.724 20.019 45.095 10.417 15.303-9.561 19.976-29.79 10.415-45.096zm-69.543-191.389c9.75-.886 18.366 6.291 19.253 16.052.884 9.733-6.316 18.372-16.052 19.257-16.145 1.467-33.276 6.246-47.675 13.228-4.943-2.889-9.869-6.092-14.774-9.607-1-7.033-4.645-12.926-10.059-17.347 19.656-11.34 45.14-19.388 69.307-21.583zm-74.357 39.732c3.921 14.638-20.378 39.732-46.175 39.332 14.954-16.589 26.079-33.394 33.319-50.297 5.83 2.034 11.365 5.399 12.856 10.965zm-141.649-227.46c34.781 1.299 59.625 28.979 105.376 24.759 8.151-.765 14.05 7.603 10.312 15.012-5.615 11.129-15.74 25.967-32.616 35.508-5.78-3.556-11.782-6.522-17.98-8.889-1.039-7.076-5.679-12.776-11.923-15.376-22.356-9.307-58.737-9.199-90.003 5.11-2.786-5.387-4.247-11.349-4.264-17.53-.061-22.337 19.218-39.418 41.098-38.594zm-118.189 239.774c-2.415 2.396-6.523 1.606-7.818-1.504-6.52-15.659-6.988-39.627-1.193-61.06 5.009-18.527 16.734-43.816 44.147-59.084 4.333-2.413 7.899-5.979 10.313-10.313l-.001.001c15.267-27.414 40.557-39.139 59.084-44.147 21.432-5.795 45.399-5.327 61.06 1.193 3.117 1.298 3.895 5.408 1.503 7.819-24.839 25.042-74.029 53.921-93.433 62.379-5.066 2.208-9.073 6.215-11.281 11.281-8.459 19.406-37.338 68.596-62.381 93.435zm30.992 45.925c-10.161-10.16-17.739-21.383-22.617-33.428.763-.565 1.504-1.168 2.189-1.848 26.755-26.537 56.457-77.189 65.567-98.089.689-1.583 1.941-2.834 3.524-3.525 20.9-9.11 71.552-38.813 98.09-65.567.682-.688 1.301-1.423 1.867-2.19 12.035 4.879 23.251 12.461 33.408 22.619 38.887 38.885 44.51 98.542-19.487 162.54-63.986 63.987-123.644 58.385-162.541 19.488zm119.366 124.377c-.883 9.73-9.527 16.916-19.257 16.052-9.734-.885-16.935-9.524-16.051-19.259 2.195-24.17 10.244-49.652 21.581-69.302 4.604 5.638 10.567 9.091 17.345 10.056 3.516 4.906 6.719 9.833 9.609 14.778-6.982 14.399-11.761 31.531-13.227 47.675zm4.423-77.559c-5.566-1.491-8.932-7.025-10.965-12.855 16.901-7.239 33.705-18.364 50.294-33.317.402 25.794-24.663 50.112-39.329 46.172zm164.316 127.204c2.495 9.474-3.147 19.16-12.627 21.658-9.393 2.484-19.142-3.083-21.656-12.626-3.722-14.121-9.724-29.071-18.276-45.538 9.225-7.571 18.36-15.569 27.377-23.951 11.992 21.959 20.27 41.818 25.182 60.457zm66.277-48.23c-8.286 5.178-19.247 2.648-24.426-5.643-8.162-13.064-19.09-26.339-33.277-40.421 8.159-8.823 15.943-17.76 23.322-26.773 16.998 16.697 30.142 32.591 40.024 48.409 5.178 8.291 2.647 19.249-5.643 24.428zm-308.621-184.35c-2.929-2.928-7.678-2.928-10.607 0-2.929 2.93-2.929 7.678 0 10.607l8.485 8.485c2.93 2.929 7.678 2.928 10.606 0 2.929-2.93 2.929-7.678 0-10.607zm58.215-49.746c-4.132.284-7.252 3.864-6.968 7.996.285 4.145-1.231 8.2-4.159 11.128-2.929 2.928-6.99 4.441-11.128 4.159-4.134-.273-7.713 2.835-7.997 6.968s2.835 7.713 6.968 7.997c8.675.59 16.902-2.656 22.764-8.517 5.995-5.994 9.1-14.291 8.518-22.763-.285-4.133-3.873-7.252-7.998-6.968z"/></g></svg>