<svg height="512pt" viewBox="0 0 512 512" width="512pt" xmlns="http://www.w3.org/2000/svg"><path d="m320.847656 340.898438c-4.144531 0-7.5 3.359374-7.5 7.5v10.945312c0 4.140625 3.355469 7.5 7.5 7.5 4.144532 0 7.5-3.359375 7.5-7.5v-10.945312c0-4.140626-3.359375-7.5-7.5-7.5zm-64.847656-3.683594c-15.472656 0-28.058594 13.683594-28.058594 30.503906s12.585938 30.507812 28.058594 30.507812 28.058594-13.6875 28.058594-30.507812-12.585938-30.503906-28.058594-30.503906zm0 46.011718c-7.199219 0-13.058594-6.957031-13.058594-15.507812 0-8.546875 5.855469-15.503906 13.058594-15.503906s13.058594 6.957031 13.058594 15.503906c0 8.550781-5.859375 15.507812-13.058594 15.507812zm-64.847656-42.328124c-4.144532 0-7.5 3.359374-7.5 7.5v10.945312c0 4.140625 3.355468 7.5 7.5 7.5 4.144531 0 7.5-3.359375 7.5-7.5v-10.945312c0-4.140626-3.355469-7.5-7.5-7.5zm-100.324219 7.976562h16.925781c4.144532 0 7.5-3.355469 7.5-7.5 0-4.140625-3.355468-7.5-7.5-7.5h-7.550781v-5.457031c0-4.140625-3.355469-7.5-7.5-7.5-4.140625 0-7.5 3.359375-7.5 7.5v6.257812c-8.667969 2.457031-15.046875 10.425781-15.046875 19.871094 0 11.398437 9.273438 20.671875 20.671875 20.671875h3.753906c3.128907 0 5.671875 2.546875 5.671875 5.671875 0 3.128906-2.542968 5.671875-5.671875 5.671875h-16.925781c-4.144531 0-7.5 3.359375-7.5 7.5s3.355469 7.5 7.5 7.5h7.546875v5.457031c0 4.140625 3.359375 7.5 7.5 7.5 4.144531 0 7.5-3.359375 7.5-7.5v-6.253906c8.671875-2.457031 15.050781-10.425781 15.050781-19.875 0-11.398437-9.273437-20.667969-20.671875-20.667969h-3.753906c-3.128906 0-5.671875-2.546875-5.671875-5.671875 0-3.128906 2.542969-5.675781 5.671875-5.675781zm304.027344-183.109375c4.070312-7.5625 2.925781-17.210937-3.449219-23.585937-7.78125-7.78125-20.445312-7.78125-28.234375 0l-2.507813 2.511718c-1.9375 1.933594-5.082031 1.933594-7.019531 0-.933593-.9375-1.453125-2.183594-1.453125-3.507812 0-1.324219.519532-2.570313 1.457032-3.507813l11.320312-11.324219c2.929688-2.929687 2.929688-7.679687 0-10.605468-2.929688-2.929688-7.679688-2.929688-10.605469 0l-4.765625 4.761718-3.363281-3.363281c-2.929687-2.929687-7.679687-2.929687-10.605469 0-2.933594 2.929688-2.933594 7.675781-.003906 10.605469l3.953125 3.953125c-1.554687 2.878906-2.386719 6.113281-2.386719 9.480469 0 5.332031 2.078125 10.34375 5.847656 14.113281 7.78125 7.78125 20.445313 7.78125 28.230469 0l2.511719-2.511719c1.933594-1.933594 5.082031-1.933594 7.015625 0s1.933594 5.082032 0 7.015625l-1.25 1.253907s-.003906 0-.003906.003906c-.003907 0-.003907 0-.003907.003906l-10.0625 10.0625c-2.929687 2.929688-2.929687 7.675781-.003906 10.605469 1.464844 1.464843 3.386719 2.199219 5.304688 2.199219 1.917968 0 3.839844-.734376 5.304687-2.199219l4.761719-4.761719 3.367188 3.363281c1.464843 1.464844 3.382812 2.195313 5.304687 2.195313 1.917969 0 3.835937-.730469 5.300781-2.195313 2.929688-2.929687 2.929688-7.675781 0-10.605469zm94.554687 54.398437 12.453125-12.449218c13.492188-13.492188 13.492188-35.449219 0-48.945313l-5.882812-5.878906c-2.929688-2.929687-7.675781-2.929687-10.605469-.003906-2.929688 2.929687-2.929688 7.679687 0 10.609375l5.882812 5.882812c7.644532 7.644532 7.644532 20.085938 0 27.730469l-20.410156 20.40625h-21.644531l3.074219-3.074219c4.457031-4.457031 5.226562-11.546875 1.824218-16.855468-5.585937-8.714844-5.585937-19.976563 0-28.6875 3.402344-5.308594 2.632813-12.394532-1.824218-16.855469l-92.320313-92.320313c-4.457031-4.457031-11.546875-5.226562-16.851562-1.824218-8.714844 5.585937-19.976563 5.585937-28.691407 0-5.308593-3.402344-12.394531-2.632813-16.855468 1.824218l-157.792969 157.792969h-21.644531l196.773437-196.773437c3.703125-3.703126 8.625-5.742188 13.863281-5.742188 5.238282 0 10.160157 2.039062 13.863282 5.742188l117.929687 117.929687c2.929688 2.929687 7.679688 2.925781 10.605469 0 2.929688-2.929687 2.929688-7.679687 0-10.605469l-117.925781-117.929687c-6.539063-6.535157-15.226563-10.136719-24.472657-10.136719-9.246093 0-17.9375 3.601562-24.472656 10.136719l-207.378906 207.378906h-60.753906c-19.933594 0-36.152344 16.21875-36.152344 36.152344v222.179687c0 19.933594 16.21875 36.152344 36.152344 36.152344h13.453125c4.144531 0 7.5-3.359375 7.5-7.5s-3.355469-7.5-7.5-7.5h-13.453125c-11.664063 0-21.152344-9.488281-21.152344-21.152344v-222.179687c0-11.664063 9.488281-21.152344 21.152344-21.152344h146.378906.011719.015625 293.289062c11.664063 0 21.152344 9.488281 21.152344 21.152344v222.179687c0 11.664063-9.488281 21.152344-21.152344 21.152344h-389.746094c-4.144531 0-7.5 3.359375-7.5 7.5s3.355469 7.5 7.5 7.5h389.746094c19.933594 0 36.152344-16.21875 36.152344-36.152344v-222.179687c0-15.136719-9.355469-28.125-22.589844-33.503907zm-292.265625-2.648437c2.996094-3.734375 6.214844-7.320313 9.632813-10.738281 18.550781-18.550782 41.234375-30.628906 63.867187-34.007813 21.800781-3.257812 40.882813 2.019531 53.722657 14.863281 7.816406 7.8125 12.863281 18.039063 14.839843 29.882813zm243.695313-12.851563-12.851563 12.851563h-73.605469c-2.15625-15.976563-8.789062-29.867187-19.40625-40.488281-16.289062-16.289063-39.925781-23.070313-66.546874-19.09375-25.792969 3.851562-51.453126 17.429687-72.257813 38.234375-6.589844 6.589843-12.515625 13.757812-17.664063 21.347656h-17.527343l146.355469-146.355469c13.140624 7.894532 29.703124 7.894532 42.84375 0l90.660156 90.660156c-7.894532 13.140626-7.894532 29.703126 0 42.84375zm-102.507813 96.429688c-22.082031-16.339844-51.320312-25.34375-82.332031-25.34375s-60.25 9.003906-82.332031 25.34375c-22.757813 16.847656-35.289063 39.457031-35.289063 63.664062 0 24.210938 12.53125 46.816407 35.289063 63.664063 22.082031 16.339844 51.320312 25.34375 82.332031 25.34375s60.25-9.003906 82.332031-25.34375c22.757813-16.847656 35.289063-39.457031 35.289063-63.664063 0-24.207031-12.53125-46.816406-35.289063-63.664062zm-82.332031 137.671875c-56.585938 0-102.621094-33.199219-102.621094-74.007813 0-40.808593 46.035156-74.007812 102.621094-74.007812s102.621094 33.199219 102.621094 74.007812c0 40.808594-46.035156 74.007813-102.621094 74.007813zm191.300781 30.300781c2.375-10.847656 10.917969-19.390625 21.769531-21.765625 6.3125-1.382812 10.898438-7.078125 10.898438-13.542969v-138c0-6.464843-4.585938-12.160156-10.898438-13.542968-10.851562-2.375-19.394531-10.917969-21.769531-21.769532-1.382812-6.3125-7.078125-10.898437-13.542969-10.898437h-355.515624c-6.464844 0-12.160157 4.585937-13.542969 10.898437-2.375 10.851563-10.917969 19.394532-21.769531 21.769532-6.3125 1.382812-10.898438 7.074218-10.898438 13.542968v138c0 6.464844 4.585938 12.160157 10.898438 13.542969 10.851562 2.371094 19.394531 10.917969 21.769531 21.769531 1.382812 6.3125 7.078125 10.894532 13.542969 10.894532h355.515624c6.464844.003906 12.160157-4.582032 13.542969-10.898438zm-368.152343-4.097656c-3.820313-15.832031-16.285157-28.296875-32.117188-32.117188v-136.1875c15.832031-3.820312 28.296875-16.285156 32.117188-32.113281h353.703124c3.820313 15.828125 16.285157 28.292969 32.113282 32.113281v136.1875c-15.828125 3.820313-28.296875 16.285157-32.113282 32.117188zm338.269531-116.09375h16.925781c4.140625 0 7.5-3.355469 7.5-7.5 0-4.140625-3.359375-7.5-7.5-7.5h-7.546875v-5.457031c0-4.140625-3.359375-7.5-7.5-7.5-4.144531 0-7.5 3.359375-7.5 7.5v6.257812c-8.671875 2.457031-15.050781 10.425781-15.050781 19.871094 0 11.398437 9.273437 20.671875 20.671875 20.671875h3.753906c3.128906 0 5.671875 2.546875 5.671875 5.671875 0 3.128906-2.542969 5.671875-5.671875 5.671875h-16.925781c-4.144532 0-7.5 3.359375-7.5 7.5s3.355468 7.5 7.5 7.5h7.550781v5.457031c0 4.140625 3.355469 7.5 7.5 7.5 4.140625 0 7.5-3.359375 7.5-7.5v-6.253906c8.667969-2.457031 15.046875-10.425781 15.046875-19.875 0-11.398437-9.273438-20.667969-20.671875-20.667969h-3.753906c-3.128907 0-5.671875-2.546875-5.671875-5.671875 0-3.128906 2.542968-5.675781 5.671875-5.675781zm0 0"/></svg>