<?xml version="1.0"?>
<svg xmlns="http://www.w3.org/2000/svg" viewBox="0 0 64 64"><g id="_26-Dress" data-name="26-Dress"><path d="M58.0142,50.3369,42.0053,28.6774c.0581-9.9569,2.6936-12.9608,2.71-12.9782a1.0012,1.0012,0,0,0,.2549-.9414A6.4232,6.4232,0,0,0,42,11.0132V4a2.0023,2.0023,0,0,0-2-2H38a2.0023,2.0023,0,0,0-2,2v6.2249a6.8312,6.8312,0,0,0-4,2.573,6.8312,6.8312,0,0,0-4-2.573V4a2.0023,2.0023,0,0,0-2-2H24a2.0023,2.0023,0,0,0-2,2v7.0132a6.4232,6.4232,0,0,0-2.97,3.7446,1.0272,1.0272,0,0,0,.2441.93c.0271.029,2.6627,3.033,2.7208,12.99L5.9858,50.3369a3.004,3.004,0,0,0-.0009,3.5693,10.7048,10.7048,0,0,0,8.6212,4.0816,11.7871,11.7871,0,0,0,7.5394,2.5776,14.7923,14.7923,0,0,0,3.4855-.4428C26.407,60.8857,28.19,62,32,62s5.593-1.1143,6.369-1.8774a14.79,14.79,0,0,0,3.4855.4428,11.7957,11.7957,0,0,0,7.5392-2.5776,10.7031,10.7031,0,0,0,8.6209-4.0816A3.0032,3.0032,0,0,0,58.0142,50.3369ZM23.9912,28c-.0121-.7032-.0411-1.3616-.077-2H40.0858c-.0359.6384-.0649,1.2967-.077,2ZM38,4h2v6.2287A8.7139,8.7139,0,0,0,38,10ZM24,4h2v6a8.7139,8.7139,0,0,0-2,.2287Zm2,8c4.1191,0,4.9966,3.1172,5.03,3.2422a1,1,0,0,0,1.94,0C32.978,15.21,33.8291,12,38,12a4.9341,4.9341,0,0,1,4.877,2.8281c-.6965,1.034-2.0826,3.7129-2.6377,9.1719H23.7607c-.5548-5.4583-1.94-8.1369-2.6372-9.1709A4.9435,4.9435,0,0,1,26,12ZM7.583,52.7031a.99.99,0,0,1,.0112-1.1767L23.5046,30h1.5039L14.3448,55.9637A8.5876,8.5876,0,0,1,7.583,52.7031Zm8.62,4.001L27.17,30h1.6877L25.0984,58.1956A10.5274,10.5274,0,0,1,16.2026,56.7041ZM32,60c-3.2617,0-4.5522-.9-4.9536-1.2812L30.8755,30h2.2491l3.828,28.7109C36.5308,59.1143,35.2349,60,32,60Zm6.9015-1.8046L35.1422,30H36.83L47.7964,56.7012A10.6034,10.6034,0,0,1,38.9015,58.1954Zm17.515-5.4923a8.5856,8.5856,0,0,1-6.7613,3.2606L38.9915,30h1.5039l15.91,21.5264A.9889.9889,0,0,1,56.4165,52.7031Z"/></g></svg>
