<?xml version="1.0" encoding="iso-8859-1"?>
<!-- Generator: Adobe Illustrator 19.0.0, SVG Export Plug-In . SVG Version: 6.00 Build 0)  -->
<svg version="1.1" id="Capa_1" xmlns="http://www.w3.org/2000/svg" xmlns:xlink="http://www.w3.org/1999/xlink" x="0px" y="0px"
	 viewBox="0 0 512 512" style="enable-background:new 0 0 512 512;" xml:space="preserve">
<g>
	<g>
		<path d="M261.249,446.94c-1.86-1.861-4.439-2.93-7.069-2.93c-2.63,0-5.209,1.069-7.069,2.93c-1.859,1.86-2.93,4.439-2.93,7.069
			c0,2.63,1.07,5.209,2.93,7.068c1.86,1.86,4.439,2.931,7.069,2.931c2.63,0,5.209-1.07,7.069-2.931
			c1.859-1.859,2.93-4.438,2.93-7.068C264.179,451.379,263.109,448.799,261.249,446.94z"/>
	</g>
</g>
<g>
	<g>
		<path d="M469.036,360.133c-1.859-1.86-4.438-2.93-7.068-2.93c-2.63,0-5.209,1.07-7.069,2.93c-1.86,1.86-2.93,4.439-2.93,7.069
			c0,2.64,1.069,5.209,2.93,7.069c1.86,1.859,4.439,2.93,7.069,2.93c2.63,0,5.209-1.07,7.068-2.93
			c1.86-1.86,2.931-4.439,2.931-7.069C471.967,364.572,470.897,361.993,469.036,360.133z"/>
	</g>
</g>
<g>
	<g>
		<path d="M508.451,199.675L288.476,12.031c-18.821-16.057-46.132-16.04-64.935,0.04L3.539,200.199c-2.222,1.9-3.5,4.676-3.5,7.599
			v274.206C0.039,498.544,13.495,512,30.034,512h451.931c16.539,0,29.995-13.456,29.995-29.995V207.282
			C511.961,204.355,510.678,201.575,508.451,199.675z M236.537,27.269c11.281-9.646,27.668-9.659,38.961-0.024l210.123,179.241
			c-0.016,0.014-0.034,0.025-0.05,0.038L268.964,391.427c-7.585,6.473-18.589,6.472-26.17-0.007L27.002,207.021
			c-0.114-0.098-0.236-0.181-0.353-0.272L236.537,27.269z M20.036,478.142v-250.77l135.22,115.548L20.036,478.142z M34.456,492.004
			l27.996-27.997h151.555c5.521,0,9.998-4.477,9.998-9.998c0-5.521-4.477-9.998-9.998-9.998H82.448l19.997-19.997h97.563
			c5.521,0,9.998-4.477,9.998-9.998c0-5.521-4.477-9.998-9.998-9.998h-77.566l48.064-48.064l59.298,50.671
			c7.556,6.456,16.815,9.684,26.079,9.684c9.255,0,18.513-3.225,26.064-9.671l59.463-50.759l136.126,136.126H34.456z
			 M491.964,478.15L356.667,342.853l95.303-81.355v65.53c0,5.521,4.477,9.998,9.998,9.998c5.521,0,9.998-4.477,9.998-9.998v-81.988
			c0-0.198-0.019-0.392-0.03-0.587l20.027-17.095V478.15z"/>
	</g>
</g>
<g>
	<g>
		<path d="M256,126.06c-51.824,0-93.986,42.162-93.986,93.986c0,51.823,42.162,93.985,93.986,93.985
			c5.521,0,9.998-4.477,9.998-9.998s-4.477-9.998-9.998-9.998c-40.798,0-73.989-33.191-73.989-73.989s33.191-73.989,73.989-73.989
			s73.989,33.191,73.989,73.989v19.689c0,9.466-7.701,17.165-17.166,17.165s-17.165-7.701-17.165-17.165v-16.578V188.66
			c0-2.75-1.132-5.377-3.13-7.266c-9.919-9.377-22.893-14.541-36.526-14.541c-29.331,0-53.192,23.862-53.192,53.192
			s23.861,53.192,53.192,53.192c10.474,0,20.551-3.059,29.16-8.722c6.809,7.593,16.686,12.381,27.664,12.381
			c20.491,0,37.162-16.671,37.162-37.162v-19.689C349.986,168.221,307.824,126.06,256,126.06z M275.66,223.155v16.578v7.048
			c-5.677,4.188-12.523,6.458-19.66,6.458c-18.304,0-33.195-14.892-33.195-33.195c0-18.303,14.892-33.195,33.195-33.195
			c7.137,0,13.983,2.27,19.66,6.458V223.155z"/>
	</g>
</g>
<g>
</g>
<g>
</g>
<g>
</g>
<g>
</g>
<g>
</g>
<g>
</g>
<g>
</g>
<g>
</g>
<g>
</g>
<g>
</g>
<g>
</g>
<g>
</g>
<g>
</g>
<g>
</g>
<g>
</g>
</svg>
