<svg id="Layer_1" enable-background="new 0 0 500 500" viewBox="0 0 500 500" xmlns="http://www.w3.org/2000/svg"><g><path d="m411.633 388.794c-34.942 0-63.368-28.426-63.368-63.368 0-34.941 28.426-63.367 63.368-63.367 34.941 0 63.367 28.426 63.367 63.367 0 34.943-28.426 63.368-63.367 63.368zm0-115.642c-28.824 0-52.275 23.451-52.275 52.274 0 28.824 23.451 52.274 52.275 52.274 28.823 0 52.274-23.45 52.274-52.274.001-28.822-23.451-52.274-52.274-52.274z"/><path d="m144.146 388.794c-34.941 0-63.367-28.426-63.367-63.368 0-34.941 28.426-63.367 63.367-63.367 34.942 0 63.368 28.426 63.368 63.367-.001 34.943-28.426 63.368-63.368 63.368zm0-115.642c-28.823 0-52.274 23.451-52.274 52.274 0 28.824 23.451 52.274 52.274 52.274 28.824 0 52.274-23.45 52.274-52.274 0-28.822-23.45-52.274-52.274-52.274z"/><path d="m355.334 185.555c-20.498 0-37.173-16.677-37.173-37.176s16.675-37.174 37.173-37.174c3.063 0 5.547 2.484 5.547 5.547v63.256c-.001 3.063-2.484 5.547-5.547 5.547zm-5.546-62.663c-11.724 2.551-20.534 13.01-20.534 25.487 0 12.479 8.81 22.939 20.534 25.49z"/><path d="m355.334 181.641c-3.063 0-5.546-2.484-5.546-5.547v-55.429c0-3.063 2.483-5.546 5.546-5.546 18.341 0 33.263 14.919 33.263 33.26 0 18.34-14.923 33.262-33.263 33.262zm5.546-54.728v42.934c9.549-2.47 16.623-11.158 16.623-21.468 0-10.308-7.073-18.996-16.623-21.466z"/><path d="m411.633 388.794c-34.942 0-63.368-28.426-63.368-63.368 0-34.941 28.426-63.367 63.368-63.367 34.941 0 63.367 28.426 63.367 63.367 0 34.943-28.426 63.368-63.367 63.368zm0-115.642c-28.824 0-52.275 23.451-52.275 52.274 0 28.824 23.451 52.274 52.275 52.274 28.823 0 52.274-23.45 52.274-52.274.001-28.822-23.451-52.274-52.274-52.274z"/><path d="m411.633 356.623c-17.203 0-31.196-13.993-31.196-31.196 0-17.202 13.993-31.196 31.196-31.196 17.202 0 31.195 13.994 31.195 31.196.001 17.203-13.992 31.196-31.195 31.196zm0-51.299c-11.085 0-20.104 9.018-20.104 20.103s9.018 20.104 20.104 20.104c11.084 0 20.103-9.018 20.103-20.104 0-11.085-9.018-20.103-20.103-20.103z"/><path d="m411.633 356.623c-17.203 0-31.196-13.993-31.196-31.196 0-17.202 13.993-31.196 31.196-31.196 17.202 0 31.195 13.994 31.195 31.196.001 17.203-13.992 31.196-31.195 31.196zm0-51.299c-11.085 0-20.104 9.018-20.104 20.103s9.018 20.104 20.104 20.104c11.084 0 20.103-9.018 20.103-20.104 0-11.085-9.018-20.103-20.103-20.103z"/><path d="m144.704 356.623c-17.203 0-31.196-13.993-31.196-31.196 0-17.202 13.993-31.196 31.196-31.196 17.202 0 31.196 13.994 31.196 31.196 0 17.203-13.994 31.196-31.196 31.196zm0-51.299c-11.085 0-20.104 9.018-20.104 20.103s9.019 20.104 20.104 20.104c11.084 0 20.103-9.018 20.103-20.104 0-11.085-9.018-20.103-20.103-20.103z"/><path d="m144.146 388.794c-34.941 0-63.367-28.426-63.367-63.368 0-34.941 28.426-63.367 63.367-63.367 34.942 0 63.368 28.426 63.368 63.367-.001 34.943-28.426 63.368-63.368 63.368zm0-115.642c-28.823 0-52.274 23.451-52.274 52.274 0 28.824 23.451 52.274 52.274 52.274 28.824 0 52.274-23.45 52.274-52.274 0-28.822-23.45-52.274-52.274-52.274z"/><path d="m353.863 332.932h-151.948c-1.503 0-2.941-.61-3.986-1.69s-1.605-2.538-1.557-4.041l.048-1.774c0-28.823-23.45-52.274-52.274-52.274-18.354 0-35.586 9.823-44.975 25.637-1.127 1.901-3.275 2.952-5.463 2.673-2.191-.276-4.008-1.825-4.629-3.943l-5.127-17.482c-.149-.507-.225-1.032-.225-1.56v-60.429c0-3.063 2.484-5.546 5.547-5.546h140.638c3.063 0 5.547 2.483 5.547 5.546v56.733c0 10.007 8.14 18.148 18.145 18.148h65.723c5.198 0 9.98-2.123 13.466-5.982 3.486-3.857 5.116-8.829 4.588-14.002l-10.383-102.13c-.238-2.354 1.043-4.601 3.191-5.595 2.158-.991 4.693-.511 6.331 1.194 4.981 5.189 11.665 8.049 18.814 8.049h1.877c15.429 0 29.333 8.555 36.288 22.327l35.142 69.588c.962 1.904.744 4.192-.555 5.882-1.303 1.693-3.453 2.486-5.547 2.042-3.594-.76-7.263-1.148-10.906-1.148-28.824 0-52.275 23.451-52.275 52.274l.033 1.336c.054 1.506-.499 3.179-1.544 4.263-1.045 1.081-2.478 1.904-3.984 1.904zm-146.45-11.093h140.953c1.915-34.072 31.136-60.94 65.69-59.732l-30.459-60.318c-5.056-10.012-15.169-16.233-26.386-16.233h-1.877c-5.66 0-11.109-1.252-16.049-3.629l9.135 89.897c.834 8.212-1.861 16.436-7.396 22.56-5.533 6.126-13.441 9.639-21.696 9.639h-65.723c-16.123 0-29.238-13.119-29.238-29.241v-51.186h-129.546v54.086l1.742 5.934c11.921-13.509 29.292-21.555 47.583-21.555 33.736-.001 61.398 26.502 63.267 59.778z"/><path d="m251.887 223.595h-81.732c-8.69 0-15.762-7.071-15.762-15.765 0-8.69 7.071-15.762 15.762-15.762h81.732c8.691 0 15.763 7.071 15.763 15.762 0 8.693-7.071 15.765-15.763 15.765zm-81.731-20.434c-2.575 0-4.668 2.093-4.668 4.668 0 2.576 2.093 4.673 4.668 4.673h81.732c2.576 0 4.669-2.097 4.669-4.673 0-2.575-2.093-4.668-4.669-4.668z"/><path d="m294.862 163.894c-1.975 0-3.886-1.056-4.888-2.917-1.452-2.698-.444-6.061 2.253-7.512l29.408-15.838c2.694-1.452 6.059-.448 7.513 2.252 1.451 2.698.444 6.061-2.253 7.513l-29.409 15.838c-.837.45-1.736.664-2.624.664z"/><path d="m376.964 262.932c-2.223 0-4.319-1.348-5.172-3.545l-15.237-39.334c-1.104-2.858.314-6.069 3.169-7.177 2.854-1.096 6.069.317 7.177 3.169l15.236 39.334c1.105 2.858-.314 6.069-3.169 7.177-.657.254-1.337.376-2.004.376z"/><path d="m229.913 248.963h-67.53c-3.063 0-5.547-2.484-5.547-5.547s2.484-5.547 5.547-5.547h67.53c3.063 0 5.547 2.484 5.547 5.547s-2.484 5.547-5.547 5.547z"/><path d="m134.028 223.595h-80.838c-3.063 0-5.546-2.484-5.546-5.547s2.483-5.546 5.546-5.546h80.838c3.063 0 5.547 2.483 5.547 5.546-.001 3.063-2.484 5.547-5.547 5.547z"/><path d="m141.858 223.595h-111.311c-3.063 0-5.547-2.484-5.547-5.547v-18.012c0-3.063 2.484-5.547 5.547-5.547h111.311c3.063 0 5.547 2.484 5.547 5.547v18.012c-.001 3.063-2.484 5.547-5.547 5.547zm-105.765-11.093h100.218v-6.92h-100.218z"/><path d="m146.936 205.582h-111.309c-3.063 0-5.547-2.483-5.547-5.546v-18.013c0-3.063 2.484-5.547 5.547-5.547h111.309c3.063 0 5.546 2.484 5.546 5.547v18.013c0 3.063-2.483 5.546-5.546 5.546zm-105.762-11.092h100.215v-6.919h-100.215z"/><path d="m141.858 187.57h-111.311c-3.063 0-5.547-2.484-5.547-5.547v-18.013c0-3.063 2.484-5.547 5.547-5.547h111.311c3.063 0 5.547 2.484 5.547 5.547v18.013c-.001 3.063-2.484 5.547-5.547 5.547zm-105.765-11.093h100.218v-6.919h-100.218z"/><path d="m146.936 169.557h-111.309c-3.063 0-5.547-2.484-5.547-5.547v-18.013c0-3.063 2.484-5.546 5.547-5.546h111.309c3.063 0 5.546 2.483 5.546 5.546v18.013c0 3.064-2.483 5.547-5.546 5.547zm-105.762-11.093h100.215v-6.919h-100.215z"/><path d="m141.858 151.545h-111.311c-3.063 0-5.547-2.484-5.547-5.547v-18.009c0-3.063 2.484-5.547 5.547-5.547h111.311c3.063 0 5.547 2.484 5.547 5.547v18.009c-.001 3.063-2.484 5.547-5.547 5.547zm-105.765-11.093h100.218v-6.917h-100.218z"/><path d="m463.726 388.794h-428.099c-3.063 0-5.547-2.484-5.547-5.547s2.484-5.547 5.547-5.547h428.099c3.063 0 5.547 2.484 5.547 5.547-.001 3.064-2.484 5.547-5.547 5.547z"/></g></svg>