<svg id="Layer_1" viewBox="0 0 1000 1000" xmlns="http://www.w3.org/2000/svg" data-name="Layer 1"><path d="m340.58 776.34a70.85 70.85 0 1 1 29.64-6.58 70.63 70.63 0 0 1 -29.64 6.58zm-.07-117.43a46.76 46.76 0 0 0 -43.79 30.61 46.58 46.58 0 1 0 43.79-30.61z"/><path d="m318.92 873.25a67.2 67.2 0 0 1 -16.6-132.33 12 12 0 1 1 5.93 23.26 43.17 43.17 0 1 0 37.58 8.1 12 12 0 1 1 15-18.76 67.23 67.23 0 0 1 -41.88 119.73z"/><path d="m397.93 864.72a67.35 67.35 0 0 1 -43.12-15.72 12 12 0 1 1 15.43-18.39 43.19 43.19 0 1 0 17.62-75.07 12 12 0 1 1 -5.65-23.33 67.19 67.19 0 1 1 15.72 132.49z"/><path d="m445.09 774.58c-1.84 0-3.68-.07-5.53-.22a12 12 0 0 1 2-23.92 43.28 43.28 0 0 0 44.07-28.16 43.19 43.19 0 0 0 -29-56.51 12 12 0 1 1 6.37-23.12 67.19 67.19 0 0 1 -18 131.93z"/><path d="m488.23 863.82a67.2 67.2 0 0 1 -54.51-28 12 12 0 0 1 19.51-14 43.17 43.17 0 1 0 35.25-68.38 12 12 0 0 1 0-24h.05a67.19 67.19 0 0 1 -.34 134.37z"/><path d="m379.1 922.3a51.48 51.48 0 0 1 -48.39-69.12c.23-.63.47-1.24.72-1.84a12 12 0 1 1 22.2 9.11c-.14.34-.27.67-.4 1a27.36 27.36 0 0 0 49.58 22.76 12 12 0 1 1 21 11.67 51 51 0 0 1 -44.71 26.42z"/><path d="m603.56 903.89a51.44 51.44 0 0 1 -30.48-10 12 12 0 1 1 14.25-19.3 27.36 27.36 0 1 0 15.23-49.36 12 12 0 1 1 -.93-24 51.36 51.36 0 1 1 1.93 102.69z"/><path d="m563.16 849.46a55.48 55.48 0 0 1 -36.48-13.78 12 12 0 0 1 15.86-18 31.28 31.28 0 1 0 11-53.24 12 12 0 1 1 -7.44-22.81 55.28 55.28 0 0 1 69 71.62 55.38 55.38 0 0 1 -51.94 36.21z"/><path d="m534.37 930.18a59.81 59.81 0 0 1 -51.71-29.87 12 12 0 1 1 20.78-12 35.81 35.81 0 0 0 64.61-5.59c5-13.62 2.15-27.46-7.64-37a12 12 0 0 1 16.77-17.17c16.5 16.11 21.63 40.05 13.4 62.47a59.92 59.92 0 0 1 -56.21 39.16z"/><path d="m534.23 778a12 12 0 0 1 -5.57-22.63 35.71 35.71 0 0 0 17-19.38c4.8-13 4.3-23.52-1.46-31.12-8.49-11.2-28.81-17.25-51.76-15.43a12 12 0 1 1 -1.91-23.92c24.59-2 56.63 3.54 72.79 24.84 7.58 10 14.58 27.46 4.87 53.91a59.68 59.68 0 0 1 -28.4 32.36 12 12 0 0 1 -5.56 1.37z"/><path d="m454.6 925.76a59.9 59.9 0 0 1 -57.12-77.76 12 12 0 1 1 22.9 7.18 35.81 35.81 0 0 0 67.8 23 35.37 35.37 0 0 0 .31-23.8 12 12 0 0 1 22.73-7.71 59.88 59.88 0 0 1 -56.62 79z"/><path d="m411.72 699.59a64.26 64.26 0 0 1 -20-3.21 12 12 0 1 1 7.47-22.81 39.66 39.66 0 1 0 -4.79-73.47 12 12 0 1 1 -10.36-21.65 63.68 63.68 0 1 1 27.67 121.14z"/><path d="m362.13 663.06a12 12 0 0 1 -11.46-8.47 63.34 63.34 0 0 1 -.42-36 12 12 0 1 1 23.09 6.53 39.32 39.32 0 0 0 .27 22.39 12 12 0 0 1 -11.48 15.54z"/><path d="m284.69 699.56a11.93 11.93 0 0 1 -7.65-2.77c-4.08-3.38-99.82-83.66-103.31-158a12 12 0 0 1 7.15-11.55l54.85-24.13a12 12 0 0 1 16.54 8.36c.24 1.08 24.62 108.6 55.93 144.65a12 12 0 1 1 -18.12 15.74c-28.18-32.45-49.76-109.12-57.82-141l-33.74 14.84c9.59 62 93 131.89 93.84 132.62a12 12 0 0 1 -7.67 21.23z"/><path d="m386.05 636c-29.91 0-52.46-7.68-67.14-22.91-14.91-15.47-16.79-34-16.86-41.83a63.12 63.12 0 0 1 -1.68-44.26c7.78-23.13 28.61-42.18 61.89-56.63a12 12 0 0 1 12.91 2.18c.77.71 14.87 14.1 12 38.32 14.46.46 30.58 7.59 48 21.24a12 12 0 0 1 3.25 14.89c-12.1 23.75-24.65 35.56-35.32 41.19 12.47 20.68 5 39.2 4.62 40.19a12 12 0 0 1 -10.36 7.35q-5.82.27-11.31.27zm-60-66.16a37 37 0 0 0 10.37 26.84c9.9 10.09 27 15.32 49.79 15.32h.07c-.41-5.69-3.22-14-13.78-22.55-4.81-3.9-6.54-11.13-3.11-16.28s9.29-7.08 14.66-4.41c2 .22 13.51.22 28-23.79-18.93-12.47-30.3-11.24-34.18-8.3-3.73 4.76-10.09 5.52-15.29 2.33s-6.82-10.44-4.1-16c6-12.24 5.59-20.89 3.92-26.28-20.83 10.61-34.3 23.44-39.19 37.46a38.12 38.12 0 0 0 1.36 28.73 10.71 10.71 0 0 1 1.5 6.96z"/><path d="m263.45 605a12 12 0 0 1 -5.45-22.7c13.79-7 32.09-16.13 51.39-24.37a12 12 0 1 1 9.42 22.07c-18.64 8-36.47 16.84-49.92 23.69a12 12 0 0 1 -5.44 1.31z"/><path d="m261 743c-35.68 0-69.42-14.56-98.83-42.92a216.16 216.16 0 0 1 -41.56-56c-31.48-60.18-50.29-118.24-55.88-172.51-5.08-49.32 1.27-94.8 18.27-131.57 21.08-45.49 57.42-76.08 102.32-86.14 3.63-.82 22.06-4.39 26.26-5a12 12 0 1 1 3.29 23.77c-3.18.44-21 3.87-24.3 4.62-37.45 8.39-67.92 34.25-85.8 72.82-33.11 71.44-19.55 174.61 37.22 283l.21.41a194.29 194.29 0 0 0 37.16 49.74c31.33 30 66.55 41.18 104.67 33.32a12 12 0 1 1 4.85 23.5 137.47 137.47 0 0 1 -27.88 2.96zm92.64-401a12 12 0 0 1 -7.83-21.1c1.35-1.15 18.32-15.56 20.05-17 43.34-35.69 90-54.28 134.94-53.75 43 .5 81.86 18.88 109.46 51.77a12 12 0 0 1 -18.38 15.43c-50-59.59-134.72-57.54-210.77 5.08-1.51 1.25-18.19 15.4-19.66 16.66a12 12 0 0 1 -7.78 2.91z"/><path d="m353.48 412.1c-20.15 0-38.46-6.75-49-18.08a12 12 0 0 1 17.57-16.35c4.48 4.82 15.4 10.43 31.43 10.43s27-5.61 31.44-10.42a12 12 0 1 1 17.57 16.32c-10.49 11.35-28.86 18.1-49.01 18.1z"/><path d="m353.85 410.58a12 12 0 0 1 -12-12l-.73-268.31a12 12 0 0 1 12-12 12 12 0 0 1 12 12l.73 268.31a12 12 0 0 1 -12 12z"/><path d="m336.47 362.46a141.91 141.91 0 0 1 -140.56-159.16 12 12 0 0 1 10.28-10.43 141.89 141.89 0 0 1 159.25 116.57 12 12 0 0 1 -23.66 4 117.9 117.9 0 0 0 -122.78-97.72 117.87 117.87 0 0 0 133.2 121.71 12 12 0 0 1 3.12 23.8 145.71 145.71 0 0 1 -18.85 1.23z"/><path d="m353.72 360a12 12 0 0 1 -10-5.34c-5-7.52-52-68.58-88.17-88.05a12 12 0 1 1 11.38-21.13c41.58 22.38 90.77 86.89 96.75 95.85a12 12 0 0 1 -10 18.67z"/><path d="m150.05 520.83a25.42 25.42 0 0 1 -6.35-.81c-11.2-2.87-19.16-12.8-22.43-27.95-2.64-12.26-2-27.22 1.83-42.12 8.9-34.65 31.17-56.79 51.8-51.48s29.49 35.42 20.6 70.07c-3.83 14.9-10.46 28.32-18.68 37.79s-17.56 14.5-26.77 14.5zm18.47-99.16c-3.88 0-16.09 10.55-22.17 34.25-2.88 11.2-3.47 22.53-1.62 31.09 1.46 6.8 4 9.51 4.94 9.76s4.46-.92 9-6.17c5.75-6.62 10.69-16.83 13.56-28 6.33-24.62 0-40-3.31-40.85a1.42 1.42 0 0 0 -.4-.08z"/><path d="m657.12 912.78h-.75c-30.53-1.9-36.11-2.78-59.67-9.47a12 12 0 1 1 6.55-23.09c20.67 5.87 24.59 6.73 53.86 8.56 83.15-5.29 139.5-29.74 167.49-72.67 19.88-30.51 26.34-70.11 19.76-121.11-6-46.68-22.25-94.61-35.72-131.15-10.32-28-11.33-61.5-12.3-93.88-1.16-38.55-2.34-78.43-19.34-107.36-18.83-32.1-55.17-48-114.34-50.11-59.17 2.08-95.51 18-114.34 50.11-17 28.93-18.17 68.81-19.33 107.36-1 32.38-2 65.86-12.3 93.88-10.9 29.64-23.26 64.15-31.69 98.95a12 12 0 0 1 -23.32-5.69c8.78-36 21.41-71.3 32.56-101.56 9-24.34 9.88-54.44 10.84-86.3 1.24-41.57 2.53-84.56 22.61-118.78 23.11-39.41 67.14-59.68 134.63-62h.81c67.49 2.29 111.53 22.56 134.64 62 20.07 34.22 21.36 77.21 22.61 118.78 1 31.86 1.86 62 10.83 86.3 13.9 37.72 30.67 87.31 37 136.38 7.23 56.1-.66 102.28-23.46 137.26-15.64 24-38.48 43.12-67.9 56.88-31.53 14.76-71.55 23.74-118.95 26.68-.29.02-.53.03-.78.03z"/><path d="m657.53 397a75.83 75.83 0 0 1 -24.93-4.21 81.94 81.94 0 0 1 -34.24-23 12 12 0 0 1 18.57-15.2 58.67 58.67 0 0 0 24.45 15.81c20.08 6.56 41.84.66 64.67-17.56a12 12 0 0 1 15 18.75c-24.25 19.41-45.91 25.41-63.52 25.41z"/><path d="m660.1 397a12 12 0 0 1 -12-11 1004.39 1004.39 0 0 1 -1.1-119.87c4.42-88.07 20.16-152.38 46.8-191.12a12 12 0 1 1 19.77 13.6c-58.02 84.39-41.67 293.26-41.5 295.39a12 12 0 0 1 -11 12.94c-.31 0-.64.06-.97.06z"/><path d="m729.82 272.88a262.67 262.67 0 0 1 -30.38-1.75 12 12 0 0 1 -10.57-13c3.61-40.13 32.86-78.13 80.26-104.13 46-25.25 103.28-36.12 157.26-29.83a12 12 0 0 1 10.56 13c-3.61 40.16-32.86 78.12-80.25 104.15-37.41 20.53-82.35 31.56-126.88 31.56zm-15-24.46c45.32 2.83 92.16-7.21 130.3-28.16 35.27-19.37 58.64-45.62 65.83-73.39-45.33-2.83-92.16 7.2-130.3 28.15-35.25 19.38-58.65 45.63-65.8 73.4z"/><path d="m657.88 312.69h-.14a12 12 0 0 1 -11.86-12.14c0-5 .14-12.59 64-64.29 61.45-49.78 97.39-48.16 101.29-47.81l-2.17 23.9h.23c-.3 0-30.56-1-84.28 42.54-45.11 36.53-54.35 48-56 50.31a12 12 0 0 1 -11.07 7.49z"/></svg>