<?xml version="1.0" encoding="UTF-8"?>
<svg xmlns="http://www.w3.org/2000/svg" viewBox="0 0 64 64" width="512" height="512"><g id="_22-Laptop" data-name="22-Laptop"><path d="M61,51H59V20a5.00588,5.00588,0,0,0-5-5H48.94849c.03039-.33264.05151-.66589.05151-1a11,11,0,0,0-22,0c0,.33411.02112.66736.05151,1H10a5.00588,5.00588,0,0,0-5,5V51H3a.99943.99943,0,0,0-1,1v2a7.00848,7.00848,0,0,0,7,7H55a7.00848,7.00848,0,0,0,7-7V52A.99943.99943,0,0,0,61,51ZM47.24219,47l-5-5L53,31.24219V47ZM53,28.41406,40.12109,41.293a.99964.99964,0,0,0,0,1.41406L44.41406,47H41.58594L27.707,33.12109a.99964.99964,0,0,0-1.41406,0L12.41406,47H11V45.58594L24.87891,31.707a.99964.99964,0,0,0,0-1.41406L15.58594,21h2.82812L37.293,39.87891a.99963.99963,0,0,0,1.41406,0L53,25.58594ZM38.75781,47H15.24219L27,35.24219Zm-26-26,10,10L11,42.75781V21ZM53,22.75781l-15,15L21.24219,21h7.77942A36.9362,36.9362,0,0,0,37.375,30.78125a1.00223,1.00223,0,0,0,1.25,0A36.9362,36.9362,0,0,0,46.97839,21H53ZM38,5a9.00984,9.00984,0,0,1,9,9c0,6.29883-6.86523,12.81445-9,14.6875-2.13477-1.873-9-8.38867-9-14.6875A9.00984,9.00984,0,0,1,38,5ZM7,20a3.00328,3.00328,0,0,1,3-3H27.40149a15.71868,15.71868,0,0,0,.66931,2H10a.99943.99943,0,0,0-1,1V48a.99943.99943,0,0,0,1,1H54a.99943.99943,0,0,0,1-1V20a.99943.99943,0,0,0-1-1H47.9292a15.71868,15.71868,0,0,0,.66931-2H54a3.00328,3.00328,0,0,1,3,3V51H7ZM26,53H38v1a1.00067,1.00067,0,0,1-1,1H27a1.00067,1.00067,0,0,1-1-1Zm34,1a5.00588,5.00588,0,0,1-5,5H9a5.00588,5.00588,0,0,1-5-5V53H24v1a3.00328,3.00328,0,0,0,3,3H37a3.00328,3.00328,0,0,0,3-3V53H60ZM43,14a5,5,0,1,0-5,5A5.00588,5.00588,0,0,0,43,14Zm-8,0a3,3,0,1,1,3,3A3.00328,3.00328,0,0,1,35,14Z"/></g></svg>
