<?xml version="1.0" encoding="UTF-8"?>
<svg xmlns="http://www.w3.org/2000/svg" id="Layer_2" data-name="Layer 2" viewBox="0 0 64 64" width="512" height="512"><path d="M32,34a1,1,0,0,0,.744-.332C33.245,33.11,45,19.931,45,13a13,13,0,0,0-26,0c0,6.931,11.755,20.11,12.256,20.668A1,1,0,0,0,32,34ZM32,2A11.013,11.013,0,0,1,43,13c0,4.767-7.351,14.261-11,18.486C28.351,27.261,21,17.767,21,13A11.013,11.013,0,0,1,32,2Z"/><path d="M38,13a6,6,0,1,0-6,6A6.006,6.006,0,0,0,38,13ZM28,13a4,4,0,1,1,4,4A4,4,0,0,1,28,13Z"/><path d="M63,62H56.847l-.861-5.165A1,1,0,0,0,55,56H54V47h1a1,1,0,0,0,1-1V42a1,1,0,0,0,.832-1.555l-2-3A1,1,0,0,0,54,37H52a1,1,0,0,0-.832.445l-2,3A1,1,0,0,0,50,42v4a1,1,0,0,0,1,1h1v9H51a1,1,0,0,0-.986.835L49.153,62H45V55a1,1,0,0,0-1-1H43V48.444A3.987,3.987,0,0,0,45,45V44c0-.021-.011-.039-.012-.06a1,1,0,0,0-.054-.266.948.948,0,0,0-.033-.094,1,1,0,0,0-.191-.283l0,0-6-6A1,1,0,0,0,38,37H26a1,1,0,0,0-.707.293l-6,6,0,0a1,1,0,0,0-.191.283.948.948,0,0,0-.033.094,1,1,0,0,0-.054.265c0,.022-.012.04-.012.061v1a3.987,3.987,0,0,0,2,3.444V54H20a1,1,0,0,0-1,1v7H14.847l-.861-5.165A1,1,0,0,0,13,56H12V47h1a1,1,0,0,0,1-1V42a1,1,0,0,0,.832-1.555l-2-3A1,1,0,0,0,12,37H10a1,1,0,0,0-.832.445l-2,3A1,1,0,0,0,8,42v4a1,1,0,0,0,1,1h1v9H9a1,1,0,0,0-.986.835L7.153,62H1a1,1,0,0,0,0,2H63a1,1,0,0,0,0-2ZM52.535,39h.93l.667,1H51.868ZM54,42v3H52V42ZM10.535,39h.93l.667,1H9.868ZM12,42v3H10V42Zm29,5a2,2,0,0,1-2-2h4A2,2,0,0,1,41,47ZM21,45h4a2,2,0,0,1-4,0Zm7,0h3a2,2,0,0,1-4,0Zm8,0h1a2,2,0,0,1-4,0Zm5.586-2H36.72l-1.333-4h2.2Zm-8.307-4,1.333,4H29.388l1.333-4Zm-6.865,0h2.2L27.28,43H22.414ZM23,49a3.974,3.974,0,0,0,3-1.382,3.947,3.947,0,0,0,6,0,3.947,3.947,0,0,0,6,0A3.974,3.974,0,0,0,41,49v5H23ZM9.181,62l.666-4h2.306l.666,4ZM21,62V56H43v6Zm30.181,0,.666-4h2.306l.666,4Z"/></svg>
