<svg id="Layer_1" enable-background="new 0 0 24 24" viewBox="0 0 24 24" xmlns="http://www.w3.org/2000/svg"><g><g style="fill:none;stroke:#000;stroke-width:.8;stroke-linecap:round;stroke-linejoin:round;stroke-miterlimit:10"><path d="m10.667 11.875c0-.11 0-.229 0-.359 0-.777 0-1.713 0-1.713s2.54 0 4.163 0v3.297c0 1.135-.926 2.062-2.062 2.062h-1.036-1.185c-.209 0-.408-.02-.608-.06-.438-.09-.837-.279-1.185-.548l-.01-.01c-.707-.538-1.175-1.394-1.175-2.361v-1.483-.08c0-.637.159-1.245.438-1.773"/><path d="m12.002 6.885c.12.01.239.04.349.07 1.345.349 2.41 1.464 2.709 2.849-.07 0-.149 0-.229 0"/><path d="m9.938 13.259c-.565 0-1.026-.461-1.026-1.026s.461-1.015 1.026-1.015c.288 0 .542.115.727.3"/><path d="m9.939 13.255v1.844"/><path d="m8.745 14.549 1.772 2.377c1.285 1.723-.046 4.249-2.183 4.022-.026-.003-.053-.006-.079-.009 0 0 .479-2.209-2.025-5.209 0 0-2.153-2.567-1.086-4.159 0 0 .699-1.233 2.429-.874"/><path d="m15.428 21.887v.819c0 .265-.219.484-.484.484h-6.205c-.265 0-.484-.219-.484-.484v-1.765"/><path d="m11.737 15.162c2.041 0 3.691 1.649 3.691 3.691v.404"/><path d="m12.732 19.619 2.148 1.933c.759.683 1.934.588 2.568-.212.679-.855 1.466-1.847 2.165-2.728.352-.443.277-1.083-.164-1.438-.445-.359-1.095-.289-1.45.159-.666.84-1.411 1.78-1.963 2.476-.62-.562-2.002-1.806-2.002-1.806"/><path d="m18.877 16.939-1.084-.912"/><path d="m18.669 14.782 3.01 2.537c.323.277.369.75.092 1.073-.265.323-.75.358-1.073.092l-.9-.761"/><circle cx="17.282" cy="14.727" r="1.39"/><path d="m21.772 18.392s1.336.817.784 2.437c0 0-.534 1.748 1.049 1.914"/><path d="m8.014 3.295c1.339 1.015 3.252 2.465 4.233 3.21-1.441 2.465-4.632 2.348-4.632 2.348 0-1.218 0-3.747 0-5.305"/><circle cx="7.407" cy="2.764" r=".811"/><path d="m10.606 5.26s-.448 1.809-2.992 3.399"/><path d="m9.322 4.286s-.27 1.289-1.708 2.234"/><path d="m19.94 1.885.439.439c.297.298.297.78-.001 1.077l-.895.894-.439-.44c-.297-.298-.297-.779.001-1.077z"/><path d="m19.483 4.296 2.1 2.098"/><circle cx="21.029" cy="6.948" r=".783"/><path d="m2.283 16.554.439.439c.297.298.297.78-.001 1.077l-.895.894-.439-.44c-.297-.298-.297-.779.001-1.077z"/><path d="m1.826 18.965 2.1 2.098"/><circle cx="3.372" cy="21.617" r=".783"/></g><path d="m2.316.81.679 1.242 1.242.679-1.242.679-.679 1.241-.679-1.241-1.241-.679 1.241-.679z"/><path d="m3.622 8.344.387.708.708.387-.708.387-.387.708-.387-.708-.708-.387.708-.387z"/><path d="m21.953 12.571.388.708.708.387-.708.388-.388.708-.387-.708-.708-.388.708-.387z"/><circle cx="14.496" cy="3.575" r=".932" style="fill:none;stroke:#000;stroke-width:.8;stroke-linecap:round;stroke-linejoin:round;stroke-miterlimit:10"/><circle cx="18.132" cy="9.439" r=".932" style="fill:none;stroke:#000;stroke-width:.8;stroke-linecap:round;stroke-linejoin:round;stroke-miterlimit:10"/><circle cx="6.032" cy="22.743" r=".4"/></g></svg>