<?xml version="1.0"?>
<svg xmlns="http://www.w3.org/2000/svg" id="Line" viewBox="0 0 64 64"><path d="M14,51.64a7.29,7.29,0,0,1-7.23-6.39,4.69,4.69,0,0,1-.07-.93,7.31,7.31,0,0,1,14.62,0,5.75,5.75,0,0,1-.08,1A7.29,7.29,0,0,1,14,51.64ZM14,39a5.3,5.3,0,0,0-5.3,5.3,3.77,3.77,0,0,0,0,.63A5.3,5.3,0,0,0,19.25,45a3.85,3.85,0,0,0,.06-.69A5.32,5.32,0,0,0,14,39Z"/><path d="M14,48.74a4.41,4.41,0,1,1,4.42-4.42,4,4,0,0,1-.13,1A4.4,4.4,0,0,1,14,48.74Zm0-6.82a2.41,2.41,0,0,0-2.4,2.4,2.62,2.62,0,0,0,.06.57,2.41,2.41,0,0,0,4.69,0,2.68,2.68,0,0,0,.07-.56A2.42,2.42,0,0,0,14,41.92Z"/><path d="M14,48.74a4.41,4.41,0,1,1,4.42-4.42,4,4,0,0,1-.13,1A4.4,4.4,0,0,1,14,48.74Zm0-6.82a2.41,2.41,0,0,0-2.4,2.4,2.62,2.62,0,0,0,.06.57,2.41,2.41,0,0,0,4.69,0,2.68,2.68,0,0,0,.07-.56A2.42,2.42,0,0,0,14,41.92Z"/><path d="M42.57,51.64a7.29,7.29,0,0,1-7.23-6.39,4.69,4.69,0,0,1-.07-.93,7.31,7.31,0,0,1,14.62,0,5.75,5.75,0,0,1-.08,1A7.29,7.29,0,0,1,42.57,51.64Zm0-12.62a5.31,5.31,0,0,0-5.3,5.3,2.87,2.87,0,0,0,0,.63A5.29,5.29,0,0,0,47.83,45a3.11,3.11,0,0,0,.06-.69A5.32,5.32,0,0,0,42.57,39Z"/><path d="M42.57,48.74A4.41,4.41,0,1,1,47,44.32a4,4,0,0,1-.13,1A4.37,4.37,0,0,1,42.57,48.74Zm0-6.82a2.41,2.41,0,0,0-2.4,2.4,2.12,2.12,0,0,0,.07.57,2.41,2.41,0,0,0,4.68,0,2.25,2.25,0,0,0,.07-.58A2.42,2.42,0,0,0,42.57,41.92Z"/><path d="M42.57,48.74A4.41,4.41,0,1,1,47,44.32a4,4,0,0,1-.13,1A4.37,4.37,0,0,1,42.57,48.74Zm0-6.82a2.41,2.41,0,0,0-2.4,2.4,2.12,2.12,0,0,0,.07.57,2.41,2.41,0,0,0,4.68,0,2.25,2.25,0,0,0,.07-.58A2.42,2.42,0,0,0,42.57,41.92Z"/><path d="M6.4,38.73H3a1,1,0,0,1-1-1v-4.5a1,1,0,0,1,1-1H6.4A2.73,2.73,0,0,1,9.12,35V36A2.71,2.71,0,0,1,6.4,38.73ZM4,36.73H6.4A.72.72,0,0,0,7.12,36V35a.73.73,0,0,0-.72-.73H4Z"/><path d="M44.68,30.32H32.4a2.79,2.79,0,0,1-2.79-2.79V23.37a2.79,2.79,0,0,1,2.79-2.79H44.68a2.79,2.79,0,0,1,2.79,2.79v4.16A2.79,2.79,0,0,1,44.68,30.32ZM32.4,22.58a.8.8,0,0,0-.79.79v4.16a.8.8,0,0,0,.79.79H44.68a.8.8,0,0,0,.79-.79V23.37a.8.8,0,0,0-.79-.79Z"/><path d="M25.44,30.32H13.15a2.51,2.51,0,0,1-.92-.17,1,1,0,0,1,.27-1.93l1.3-.13L18.68,21a1,1,0,0,1,.82-.43h5.94a2.79,2.79,0,0,1,2.78,2.79v4.16A2.79,2.79,0,0,1,25.44,30.32Zm-9.37-2h9.37a.8.8,0,0,0,.78-.79V23.37a.8.8,0,0,0-.78-.79H20Z"/><path d="M58.18,40.47H54.26a1,1,0,0,1-1-1V26a1,1,0,0,1,1-1h3.92a4.33,4.33,0,0,1,4.33,4.34v6.82A4.33,4.33,0,0,1,58.18,40.47Zm-2.92-2h2.92a2.33,2.33,0,0,0,2.33-2.33V29.32A2.33,2.33,0,0,0,58.18,27H55.26Z"/><path d="M45.89,19.87H43.47a1,1,0,0,1-1-1V15a1,1,0,0,1,1-1h2.42a1,1,0,0,1,1,1v3.92A1,1,0,0,1,45.89,19.87Zm-1.42-2h.42V16h-.42Z"/><path d="M51,46.13H48.83a1,1,0,0,1-.77-.36,1,1,0,0,1-.22-.82,2.87,2.87,0,0,0,0-.63,5.31,5.31,0,0,0-10.62,0,2.87,2.87,0,0,0,0,.63,1,1,0,0,1-.22.82,1,1,0,0,1-.77.36H20.24a1,1,0,0,1-1-1.18,3.65,3.65,0,0,0,0-.63,5.31,5.31,0,0,0-10.62,0,3.77,3.77,0,0,0,0,.63,1,1,0,0,1-.21.82,1,1,0,0,1-.77.36H5.8A3.76,3.76,0,0,1,2,42.37V37.73a1,1,0,0,1,1-1H6.4A.72.72,0,0,0,7.12,36V35a.73.73,0,0,0-.72-.73H3a1,1,0,0,1-1-1v-.58A3.76,3.76,0,0,1,5.8,28.9l6.7-.68a1.08,1.08,0,0,1,.47.07.54.54,0,0,0,.18,0H25.44a.8.8,0,0,0,.78-.79V23.37a.8.8,0,0,0-.78-.79H19.5a1,1,0,0,1-.88-.54,1,1,0,0,1,.06-1l1.87-2.71a1,1,0,0,1,.82-.43H51a4.26,4.26,0,0,1,4.26,4.26V41.86A4.27,4.27,0,0,1,51,46.13Zm-1.11-2H51a2.27,2.27,0,0,0,2.26-2.27V22.13A2.26,2.26,0,0,0,51,19.87H21.9l-.49.71h4a2.79,2.79,0,0,1,2.78,2.79v4.16a2.79,2.79,0,0,1-2.78,2.79H13.15a2.75,2.75,0,0,1-.65-.08l-6.6.65a1.84,1.84,0,0,0-1.81,1.34H6.4A2.73,2.73,0,0,1,9.12,35V36A2.71,2.71,0,0,1,6.4,38.73H4v3.64A1.76,1.76,0,0,0,5.8,44.13h.89a7.31,7.31,0,0,1,14.62,0h14a7.31,7.31,0,0,1,14.62,0ZM44.68,30.32H32.4a2.79,2.79,0,0,1-2.79-2.79V23.37a2.79,2.79,0,0,1,2.79-2.79H44.68a2.79,2.79,0,0,1,2.79,2.79v4.16A2.79,2.79,0,0,1,44.68,30.32ZM32.4,22.58a.8.8,0,0,0-.79.79v4.16a.8.8,0,0,0,.79.79H44.68a.8.8,0,0,0,.79-.79V23.37a.8.8,0,0,0-.79-.79Z"/><path d="M32.93,19.87H30.51a1,1,0,0,1-1-1V15a1,1,0,0,1,1-1h2.42a1,1,0,0,1,1,1v3.92A1,1,0,0,1,32.93,19.87Zm-1.42-2h.42V16h-.42Z"/><path d="M47.15,16h-19a2.45,2.45,0,0,1-2.45-2.45V10a2.45,2.45,0,0,1,2.45-2.45h19A2.45,2.45,0,0,1,49.6,10V13.5A2.45,2.45,0,0,1,47.15,16Zm-19-6.38a.45.45,0,0,0-.45.45V13.5a.45.45,0,0,0,.45.45h19a.45.45,0,0,0,.45-.45V10a.45.45,0,0,0-.45-.45Z"/></svg>
