<svg id="Capa_1" enable-background="new 0 0 512.111 512.111" height="512" viewBox="0 0 512.111 512.111" width="512" xmlns="http://www.w3.org/2000/svg"><path d="m403.866 200.421 5.301-11.531c5.059-11.002 15.398-18.396 27.656-19.776 19.263-2.169 36.702-10.572 50.432-24.301 16.2-16.201 25.027-37.743 24.854-60.656-.174-22.908-9.334-44.316-25.792-60.281-15.707-15.237-36.521-23.696-58.607-23.818-.162-.001-.322-.001-.484-.001-21.909 0-42.624 8.221-58.376 23.178-14.563 13.828-23.777 32.407-25.944 52.315-1.29 11.857-9.031 22.414-20.203 27.551l-11.068 5.089-39.552-39.552c-2.93-2.928-7.678-2.928-10.607 0-2.929 2.93-2.929 7.678 0 10.607l22.63 22.63-6.397 12.169c-4.61 8.771-3.001 19.371 4.005 26.38l89.976 89.976c4.344 4.343 10.067 6.611 15.88 6.611 3.565 0 7.165-.854 10.5-2.606l12.169-6.397 65.199 65.199c9.521 9.52 9.521 25.009.001 34.528-9.521 9.521-25.012 9.521-34.53 0l-256.583-256.581c-9.52-9.521-9.52-25.011 0-34.53 9.52-9.52 25.01-9.52 34.529 0l16.96 16.96c2.929 2.928 7.678 2.928 10.606 0 2.929-2.93 2.929-7.678 0-10.607l-16.96-16.96c-15.368-15.367-40.373-15.368-55.743.001-15.367 15.368-15.367 40.374 0 55.743l49.522 49.522c-60.73-10.179-122.871 9.224-167.168 53.52-74.764 74.764-74.764 196.414 0 271.178 37.383 37.383 86.488 56.074 135.593 56.074s98.21-18.691 135.594-56.074c44.292-44.294 63.692-106.434 53.511-167.167l49.53 49.53c7.686 7.685 17.776 11.526 27.872 11.525 10.092-.001 20.188-3.843 27.872-11.525 15.368-15.368 15.368-40.375 0-55.743zm-12.777 20.707c-2.923 1.54-6.457 1.001-8.793-1.335l-89.977-89.976c-2.335-2.336-2.872-5.87-1.335-8.794l4.227-8.042 34.875 34.875c1.465 1.464 3.385 2.196 5.304 2.196s3.839-.732 5.304-2.196c2.929-2.93 2.929-7.678 0-10.607l-17.75-17.75 6.024-2.77c15.938-7.328 26.992-22.485 28.85-39.557 1.783-16.382 9.369-31.675 21.36-43.062 12.951-12.298 29.999-19.055 48.05-19.055.132 0 .268 0 .399.001 18.196.101 35.33 7.056 48.246 19.584 13.551 13.146 21.092 30.771 21.235 49.63.144 18.863-7.123 36.598-20.461 49.935-11.301 11.302-25.652 18.218-41.503 20.002-17.265 1.945-32.441 12.834-39.606 28.417l-2.982 6.486-26.201-26.201c-2.93-2.928-7.678-2.928-10.607 0-2.929 2.93-2.929 7.678 0 10.607l43.383 43.383zm-87.577 25.779c-2.381 2.383-6.255 2.383-8.638 0l-29.721-29.72c-2.381-2.382-2.381-6.257 0-8.638l17.677-17.677 38.359 38.359zm13.141 198.466c-68.918 68.917-181.055 68.919-249.974 0-68.915-68.915-68.915-181.048 0-249.963 46.35-46.35 113.901-63.11 176.692-43.997l28.853 28.853-12.868 12.868c-55.698-29.627-124.698-19.562-169.603 25.342-27.181 27.181-42.149 63.374-42.149 101.913s14.969 74.732 42.15 101.913c23.049 23.049 53.605 37.706 86.04 41.271.278.03.555.046.829.046 3.775 0 7.024-2.843 7.446-6.682.453-4.117-2.519-7.822-6.636-8.274-29.477-3.239-56.128-16.022-77.072-36.968-24.347-24.347-37.756-56.773-37.756-91.306s13.409-66.959 37.756-91.306c39.575-39.574 100.028-48.921 149.488-23.958-2.978 7.582-1.418 16.55 4.7 22.669l29.721 29.721c4.116 4.115 9.52 6.172 14.926 6.172 2.633 0 5.265-.497 7.75-1.474 24.91 49.419 15.466 110.048-23.97 149.483-19.436 19.437-44.066 31.951-71.227 36.19-4.092.639-6.892 4.475-6.253 8.566.578 3.701 3.769 6.345 7.401 6.345.384 0 .774-.029 1.166-.091 30.323-4.733 57.821-18.704 79.521-40.403 44.748-44.749 54.91-113.95 25.344-169.593l12.872-12.871 28.845 28.845c19.111 62.795 2.353 130.344-43.992 176.689z"/></svg>