<svg id="Layer_1" enable-background="new 0 0 512.053 512.053" height="512" viewBox="0 0 512.053 512.053" width="512" xmlns="http://www.w3.org/2000/svg"><g><path d="m460.014 345.536c-4.142 0-7.5 3.358-7.5 7.5v12c.344 9.931 14.659 9.923 15 0v-12c0-4.142-3.358-7.5-7.5-7.5z"/><path d="m460.014 394.536c-4.142 0-7.5 3.358-7.5 7.5v12c.344 9.931 14.659 9.923 15 0v-12c0-4.142-3.358-7.5-7.5-7.5z"/><path d="m490.514 376.036h-12c-9.931.344-9.923 14.659 0 15h12c9.931-.344 9.923-14.659 0-15z"/><path d="m441.514 376.036h-12c-9.931.344-9.923 14.659 0 15h12c9.931-.344 9.923-14.659 0-15z"/><path d="m143.339 27.053c4.142 0 7.5-3.358 7.5-7.5v-12c-.344-9.931-14.659-9.923-15 0v12c0 4.142 3.358 7.5 7.5 7.5z"/><path d="m143.339 76.053c4.142 0 7.5-3.358 7.5-7.5v-12c-.344-9.931-14.659-9.923-15 0v12c0 4.142 3.358 7.5 7.5 7.5z"/><path d="m161.839 45.553h12c9.931-.344 9.923-14.659 0-15h-12c-9.931.344-9.923 14.659 0 15z"/><path d="m112.839 45.553h12c9.931-.344 9.923-14.659 0-15h-12c-9.931.344-9.923 14.659 0 15z"/><path d="m3.354 66.373c3.348 2.261 8.048 1.325 10.331-1.983 5.231-8.335-6.199-16.355-12.266-8.618-2.456 3.423-1.514 8.248 1.935 10.601z"/><path d="m511.864 274.363c-.772-4.042-4.901-6.715-8.9-5.861-9.27 2.322-6.969 15.662 2.531 14.764 4.225-.567 7.226-4.707 6.369-8.903z"/><path d="m44.829 433.412c-3.47-2.261-8.117-1.28-10.377 2.192-13.461 20.669-22.032 43.514-25.476 67.9-.579 4.102 2.276 7.896 6.377 8.475 3.731.527 7.95-2.655 8.475-6.377 3.135-22.198 10.938-42.995 23.192-61.812 2.262-3.472 1.28-8.118-2.191-10.378z"/><path d="m125.673 286.583c4.142 0 7.5-3.358 7.5-7.5-1.232-32.438-47.742-32.426-48.968 0 0 4.142 3.358 7.5 7.5 7.5s7.5-3.358 7.5-7.5c0-5.229 4.254-9.484 9.484-9.484s9.484 4.254 9.484 9.484c0 4.142 3.358 7.5 7.5 7.5z"/><path d="m242.022 254.599c-13.5 0-24.483 10.983-24.483 24.484 0 4.142 3.358 7.5 7.5 7.5s7.5-3.358 7.5-7.5c.478-12.566 18.493-12.559 18.967 0 0 4.142 3.358 7.5 7.5 7.5s7.5-3.358 7.5-7.5c0-13.5-10.983-24.484-24.484-24.484z"/><path d="m216.88 314.9h-83.049c-11.057 0-19.619 10.58-17.063 21.394 14.804 61.357 102.389 61.324 117.175 0 2.557-10.815-6.006-21.394-17.063-21.394zm2.466 17.944c-11.112 46.053-76.883 46.029-87.98 0-.133-1.743.688-2.724 2.465-2.943h83.049c1.777.219 2.599 1.2 2.466 2.943z"/><path d="m169.106 302.491h12.5c9.931-.344 9.923-14.659 0-15h-12.5c-9.931.345-9.924 14.659 0 15z"/><path d="m464.239 185.003c33.56-38.34 35.713-99.139 4.674-139.592-2.47-3.325-7.168-4.018-10.493-1.548s-4.018 7.168-1.548 10.493c43.235 57.298 9.095 142.111-61.609 153.74-5.905 2.097-7.538 5.987-4.899 11.67 5.097 7.343 2.573 9.583 1.495 10.54-5.844 5.186-20.446 5.075-26.161.001-.985-.875-3.602-3.196 1.497-10.541 2.639-5.683 1.006-9.573-4.899-11.67-45.521-7.084-81.48-49.651-80.735-95.823-.677-78.363 91.024-125.287 154.066-78.876 3.357 2.424 8.045 1.667 10.471-1.69 2.425-3.358 1.668-8.046-1.69-10.471-71.407-52.651-175.551-1.288-177.778 87.078-39.809-19.949-90.965-22.005-149.06-5.858-9.944-4.52-43.199-16.428-74.741 8.808-32.124 25.698-44.074 97.077-35.573 149.452-16.675 22.142 2.383 53.89 29.741 50.504 7.178 29.656 24.227 55.657 47.583 74.537-10.79 6.938-20.761 15.093-29.744 24.338-2.887 2.971-2.818 7.719.152 10.605 3.556 2.878 7.091 2.827 10.605-.152 9.58-9.86 20.393-18.359 32.19-25.309 11.679 7.419 24.546 13.214 38.257 17.054v9.905c0 21.679 17.637 39.316 39.316 39.316s39.316-17.637 39.316-39.316v-9.905c13.711-3.839 26.577-9.635 38.257-17.054 39.957 23.56 67.478 64.496 73.955 110.362.525 3.722 4.744 6.905 8.475 6.377 4.102-.579 6.957-4.374 6.377-8.475-6.808-48.203-34.77-91.444-75.607-117.744 23.357-18.88 40.408-44.882 47.586-74.54 27.431 3.391 46.431-28.451 29.695-50.567 1.977-13.545 1.986-27.763.057-41.848 2.182.725 4.389 1.382 6.618 1.972-3.388 11.371 3.125 18.5 5.657 20.748 3.977 3.529 9.529 5.805 15.538 6.827v256.201c0 4.142 3.358 7.5 7.5 7.5s7.5-3.358 7.5-7.5v-256.201c6.008-1.022 11.56-3.297 15.537-6.827 2.532-2.247 9.045-9.376 5.658-20.746 21.979-5.813 41.866-18.288 56.764-35.775zm-431.345 111.478c-9.299 0-16.864-7.565-16.864-16.864 0-9.552 8.819-17.591 18.289-16.806-1.439 11.265-1.427 22.509-.033 33.614-.46.037-.924.056-1.392.056zm166.778 125.718c-1.227 32.222-47.417 32.198-48.632 0v-6.554c15.725 2.687 32.907 2.687 48.632 0zm-24.316-19.532c-77.927.557-139.379-69.594-125.143-144.572 1.131-6.281 6.27-12.777 12.909-12.777 21.728 0 35.774-9.364 44.204-29.469 1.002-2.389 3.823-3.327 5.975-2.16 23.227 12.614 76.822 33.774 174.797 33.774 6.869 0 12.092 6.97 13.026 13.271 11.877 74.17-48.689 142.449-125.768 141.933zm142.461-106.186c-.467 0-.932-.019-1.392-.056 1.398-10.944 1.359-22.712.098-33.625 9.449-.711 18.159 7.314 18.159 16.816 0 9.3-7.565 16.865-16.865 16.865zm11.697-46.506c-5.213-2.064-11.383-2.711-16.919-1.798-4.942-9.416-14.241-15.715-24.498-15.715-94.66 0-145.662-20.021-167.639-31.956-9.856-5.352-22.693-.651-26.966 9.542-6.036 14.396-14.835 20.269-30.371 20.269-10.828 0-20.781 7.271-25.429 17.792-5.501-.83-11.626-.117-16.772 1.977-5.078-38.234 3.418-104.346 31.278-127.111 28.848-23.079 59.729-6.664 61.006-5.967 1.741.967 3.795 1.203 5.71.653 59.349-17.027 110.592-14.205 148.463 8.126 4.076 36.118 27.316 69.591 59.703 86.088 2.579 12.675 3.398 25.62 2.434 38.1z"/><path d="m311.56 112.273c0-4.142-3.358-7.5-7.5-7.5s-7.5 3.358-7.5 7.5c0 31.561 18.311 60.686 46.65 74.199 3.516 1.677 8.308.002 9.998-3.542 1.783-3.739.197-8.215-3.542-9.998-23.148-11.038-38.106-34.849-38.106-60.659z"/></g></svg>