<?xml version="1.0" encoding="UTF-8"?>
<svg xmlns="http://www.w3.org/2000/svg" viewBox="0 0 512 512" width="512" height="512"><g id="outline"><path d="M241.493,70.956a4,4,0,0,0,5.26-2.081l9.668-22.328a4,4,0,1,0-7.34-3.18l-9.669,22.328A4,4,0,0,0,241.493,70.956Z"/><path d="M293.466,70.49,277.079,88.475a4,4,0,1,0,5.913,5.388l16.387-17.984a4,4,0,0,0-5.913-5.389Z"/><path d="M234.315,114.009a4,4,0,0,0,5.531-1.189c1.173-1.813,2.854-2.087,6.695-2.314,3.988-.235,9.451-.559,12.94-5.958s1.541-10.512.118-14.245c-1.37-3.6-1.811-5.241-.639-7.055s2.851-2.084,6.69-2.31c3.989-.234,9.451-.556,12.939-5.953s1.539-10.51.116-14.244c-1.371-3.595-1.812-5.238-.641-7.052s2.851-2.083,6.69-2.308c3.988-.235,9.451-.557,12.939-5.952a4,4,0,1,0-6.719-4.344c-1.171,1.811-2.85,2.084-6.69,2.31-3.988.234-9.451.556-12.938,5.953s-1.54,10.51-.117,14.244c1.371,3.595,1.813,5.238.641,7.052s-2.85,2.083-6.689,2.308c-3.989.235-9.451.557-12.939,5.953s-1.541,10.512-.118,14.246c1.37,3.6,1.811,5.241.639,7.055s-2.854,2.087-6.695,2.315c-3.988.235-9.451.558-12.941,5.958A4,4,0,0,0,234.315,114.009Z"/><path d="M203.119,95.085a4,4,0,0,0,4.713-2.392,16.68,16.68,0,0,1,2.006-.542c2.506-.572,6.7-1.531,7.813-5.86s-2.093-7.194-4.01-8.906c-.244-.218-.54-.483-.815-.742.365-.094.753-.183,1.071-.255,2.5-.573,6.7-1.53,7.813-5.86s-2.093-7.193-4.011-8.9c-.243-.217-.539-.481-.814-.74.366-.094.752-.182,1.07-.255,2.5-.571,6.7-1.529,7.814-5.858a4,4,0,0,0-7.589-2.482,16.67,16.67,0,0,1-2,.541c-2.506.571-6.7,1.529-7.814,5.858s2.094,7.194,4.012,8.905c.243.218.539.481.814.74-.366.095-.752.183-1.07.255-2.506.572-6.7,1.529-7.814,5.859s2.093,7.194,4.01,8.906c.245.217.542.483.817.743-.367.094-.755.183-1.074.257-2.506.572-6.7,1.531-7.813,5.86A4,4,0,0,0,203.119,95.085Z"/><path d="M298.1,104.728c-2.105-.711-5.627-1.9-8.914.733s-2.9,6.329-2.664,8.538c.039.362.089.839.1,1.219-.367-.1-.819-.253-1.164-.369-2.105-.711-5.627-1.9-8.914.731s-2.893,6.328-2.658,8.537c.039.36.089.831.106,1.21-.366-.1-.816-.252-1.16-.368-2.1-.71-5.625-1.9-8.911.729a4,4,0,0,0,4.8,6.394,12.859,12.859,0,0,1,1.546.456,13.44,13.44,0,0,0,4.323.895,7.132,7.132,0,0,0,4.59-1.625c3.287-2.632,2.894-6.329,2.659-8.537-.039-.36-.089-.833-.106-1.211.366.1.817.252,1.16.368,2.105.711,5.627,1.9,8.913-.732s2.9-6.329,2.664-8.538c-.039-.363-.089-.84-.1-1.22.367.1.822.252,1.168.369,2.1.711,5.627,1.9,8.914-.734a4,4,0,0,0-4.808-6.39A12.722,12.722,0,0,1,298.1,104.728Z"/><path d="M194.118,469.994,164,271.7V250.884l1.051-.345a7.99,7.99,0,0,0,5.353-10.276l-3.01-8.784,4.889-4.312,13.236,22.919A19.838,19.838,0,0,0,202.7,260c12.016,0,19.78-8.416,19.78-21.44l0-36.7,5.439-6.071a14.93,14.93,0,0,0,2.758-15.6l-1.338-3.344,33.024-29.133a4,4,0,0,0-.475-6.359l-60.47-39.08a4,4,0,0,0-5.993,2.178L177.88,161.243A19.2,19.2,0,0,0,164.66,156H128V145.842A16.021,16.021,0,0,0,136,132V114.906a24.708,24.708,0,0,0,8.1-27.263l-.31-.92a4,4,0,0,0-4.575-2.645l-.855.171L93.349,34.841a12.015,12.015,0,1,0-10.59,4.43L96,105.112s.017,21.617.021,21.688A12.019,12.019,0,0,0,104,137.584V156H61.98c-4.85,0-9.589,2.357-13.343,6.639-4.79,5.463-7.319,13.288-6.442,19.934l8.659,65.55A31.994,31.994,0,0,0,60,266.6V367.144l-46.5,103.6a4,4,0,0,0,2.243,5.382l55.4,20.812a4,4,0,0,0,5.079-5.33l-8.448-19.554,37.514-81.281a33.871,33.871,0,0,0,3.063-12.127L111.758,324H124.5l21.914,164.528A4,4,0,0,0,150.376,492H208a4,4,0,0,0,2.688-6.962ZM170.686,217.908c-.027.023-.054.046-.08.07l-2.589,2.283,4.056-13.124,6.246,4.037Zm30.827-106.053,51.6,33.348-6.236,5.5L199.059,119.8Zm-4.907,15.883,44.04,28.465-6.232,5.5-40.262-26.022Zm-4.907,15.88,36.483,23.58-5.173,4.564a3.954,3.954,0,0,0-.526.24v-.755a8.009,8.009,0,0,0-8-8h-7.151l-18.086-11.69ZM186.793,159.5l5.8,3.75h-2.111a7.968,7.968,0,0,0-5.543,2.245Zm-.31,68.5a4,4,0,0,0,4-4V171.247h24v9.512a4,4,0,0,0,6.646,3l1.747-1.541.376.939a6.977,6.977,0,0,1-1.289,7.29l-6.459,7.21a4,4,0,0,0-1.021,2.669l0,38.234c0,5.019-1.53,13.44-11.78,13.44a11.836,11.836,0,0,1-10.256-5.92L178.4,221.768l4.08-3.6V224A4,4,0,0,0,186.483,228Zm-4-54.557V185.29l-3.05-1.974Zm0,21.375v9.522l-7.957-5.143,2.453-7.94ZM128,132a8.008,8.008,0,0,1-5.334,7.529A4,4,0,0,0,120,143.3V160a4,4,0,0,1-8,0V134.27a4,4,0,0,0-4-4,4,4,0,0,1-4-4,4.059,4.059,0,0,1,.145-1.059,4,4,0,0,1,7.79.337,4,4,0,0,0,5.787,2.828,19.5,19.5,0,0,0,7.217-6.534l1.487-2.254q.8-.192,1.574-.435Zm9.141-39.349a16.474,16.474,0,0,1,.249,2.849,16.975,16.975,0,0,1-7.584,14.035,16.72,16.72,0,0,1-6.457,2.519,4,4,0,0,0-2.688,1.744l-2.4,3.637a11.506,11.506,0,0,1-.956,1.253A12,12,0,0,0,104,114.959v-6.912l28.523-14.473ZM85.791,30.926a4,4,0,1,1,1.762-5.375A4,4,0,0,1,85.791,30.926Zm6.362,14.481,5.425,5.955-3.706,2.591Zm3.44,17.1,7.417-5.186,5.324,5.844L97.28,70.9ZM99,79.458l14.765-10.327,5.323,5.843-18.4,12.873Zm4.043,20.1-.634-3.155,22.111-15.469,4.814,5.284ZM50.126,181.527c-.58-4.394,1.24-9.865,4.526-13.614C55.934,166.452,58.59,164,61.98,164H104.7a11.981,11.981,0,0,0,22.6,0h37.36a11.345,11.345,0,0,1,9.734,5.528l.61,1.023-11,35.614V197.9a4,4,0,1,0-8,0v15.4a7.954,7.954,0,0,0-2.695.255l-8.507,2.35.155-1.35a10.218,10.218,0,0,0-10.133-11.4,10.009,10.009,0,0,0-1.814.162,10.163,10.163,0,0,0-8.229,8.07l-2.156,10.861-34.248,12.79-4.4-38.467a4,4,0,0,0-7.948.908l2.6,22.765-22.741,4.9Zm8.659,65.549L56.939,233.1l22.6-4.869,1.464,12.8a4,4,0,0,0,5.373,3.293l41.13-15.36A4,4,0,0,0,130.033,226l2.59-13.047a2.252,2.252,0,0,1,1.823-1.76,2.134,2.134,0,0,1,.374-.031,2.222,2.222,0,0,1,1.65.753,2.179,2.179,0,0,1,.536,1.722l-.83,7.25a4,4,0,0,0,5.039,4.31l14.221-3.931,7.416,21.584c-.07.018-.14.039-.208.061L88.822,267.117a24,24,0,0,1-30.037-20.041ZM153.879,484,131.965,319.472A4,4,0,0,0,128,316H108a4,4,0,0,0-3.992,3.75l-3.65,58.4a25.906,25.906,0,0,1-2.342,9.275l-36.741,79.6-21.1-7.371a4,4,0,1,0-2.637,7.553l22.872,7.99,4.727,10.941-42.6-16,45.11-100.5A4.006,4.006,0,0,0,68,368V272.4a31.875,31.875,0,0,0,23.026,2.406c.064-.018.127-.038.191-.058L156,253.507V268H124a4,4,0,0,0,0,8h32.562l29.069,191.392H164.667a4,4,0,1,0,0,8h23.494L197.644,484Z"/><path d="M492.658,379.944,400,364.5V221.663l7.724,16.077a38.007,38.007,0,0,0,40.26,20.937l3.26-.54a37.817,37.817,0,0,0,30.182-47.7l-19.961-69.892a10.056,10.056,0,0,0-12.165-6.917l-1.275.336L447.69,67.51a4,4,0,0,0-4-3.98h-.02a4,4,0,0,0-3.98,4.021l.346,68.523-9.14,2.409a10,10,0,0,0-7.1,12.248L440.439,213.1l-23.3-46.363a19.512,19.512,0,0,0-17.518-10.813h-.066l-39.56.036V148h28a4,4,0,0,0,3.755-5.379l-12.922-35.175a36.5,36.5,0,0,0-3.026-6.248l6.183-65.374A12.012,12.012,0,1,0,371.2,32.153L331.06,86.666A31.038,31.038,0,0,0,312,115.39V144a4,4,0,0,0,4,4h20v7.972c-18.563.01-34.381.026-36.049.028h-.141a20,20,0,0,0-18.674,12.824l-25.324,65.883L225.8,289.724l-5.7-1.675a10.36,10.36,0,0,0-8.329,18.771l3.527,2.162-4.937,9.05a8,8,0,0,0,3.194,10.86l21.059,11.489a7.925,7.925,0,0,0,3.816.975,8.02,8.02,0,0,0,7.043-4.171l46.59-85.42a4.007,4.007,0,0,0,.221-.48L296,241.622v29.966l-30.121,198.3-16.568,15.045A4,4,0,0,0,252,491.89h57.62a4,4,0,0,0,3.952-3.38l18.269-116.34H352v2.82a34.019,34.019,0,0,0,27.733,33.422l86.127,16.147,15.08,17.907a4,4,0,0,0,7.02-2.011l8-56A4,4,0,0,0,492.658,379.944ZM376.261,22.576A4.007,4.007,0,0,1,380,20a4,4,0,1,1-3.741,2.574Zm55.263,126.089a2,2,0,0,1,1.415-2.447l7.138-1.882.035,6.83-7.375,2.046Zm3.277,12.277,7.557-2.1a3.875,3.875,0,0,1,2.073,7.468L436.8,168.43Zm6.153,64.073,6.31-1.55a4,4,0,0,0,2.911-4.916L438.862,176.16l7.708-2.139a11.875,11.875,0,0,0,2.67-21.779,12.109,12.109,0,0,0-1.125-.557l-.048-9.455,3.272-.862a2.009,2.009,0,0,1,2.435,1.381l19.96,69.891a29.817,29.817,0,0,1-23.8,37.6l-3.258.54a29.96,29.96,0,0,1-31.742-16.507l-2.6-5.415,21.184-11.723,2.908,5.787A4,4,0,0,0,440.954,225.015Zm-81.866-97.036a4.894,4.894,0,0,1-1.7-.312A4,4,0,0,0,352,131.418V160a4,4,0,0,1-8,0V143.191a4,4,0,0,0-2.666-3.77A8.009,8.009,0,0,1,336,131.89V115.605a7.617,7.617,0,0,1,4.267-6.833A15.973,15.973,0,0,0,352.945,120a3.991,3.991,0,0,0,3.121-.8,4.864,4.864,0,0,1,3.022-1.05,4.913,4.913,0,0,1,0,9.825ZM373.3,42.8l-.821,8.679-3.956-2.192Zm-9.56,12.983,7.917,4.388-.806,8.518-11.8-6.541Zm-9.47,12.86,15.759,8.737-.806,8.519L349.579,75.008ZM344.8,81.5l23.6,13.088-.3,3.2L340.557,87.261Zm-16.8,34.1V131.89a15.94,15.94,0,0,0,2.223,8.11H320V115.39a23.08,23.08,0,0,1,14.529-21.519c.15-.059.3-.116.457-.175l34.949,13.368a28.144,28.144,0,0,1,1.39,3.145L382.269,140H360v-4.054a12.912,12.912,0,0,0-.912-25.792,12.746,12.746,0,0,0-6.214,1.6,7.945,7.945,0,0,1-5.248-7.194l-.023-.69a4,4,0,0,0-4-3.867A15.623,15.623,0,0,0,328,115.605ZM284.912,248.167l-46.466,85.191-21.065-11.492,6.76-12.39a4,4,0,0,0-1.421-5.327L215.958,300a2.36,2.36,0,0,1,1.9-4.276l8.79,2.58a4,4,0,0,0,4.638-1.923l31.68-58.08a4.086,4.086,0,0,0,.222-.48l6.656-17.315,22.822,7.507Zm10.625-27.626-22.823-7.507L288.6,171.7A12,12,0,0,1,299.81,164h.149c1.688,0,17.875-.019,36.731-.029a11.981,11.981,0,0,0,22.626-.014l40.257-.037h.04A11.561,11.561,0,0,1,410,170.326l19.927,39.658-21.059,11.654-9.259-19.271A4,4,0,0,0,392,204.1v63.79H304V220.08a4,4,0,0,0-7.733-1.435ZM306.2,483.89H262.355l8.736-7.933h36.354Zm2.5-15.933H274.263l14.55-95.787h34.93ZM290.029,364.17l13.409-88.28H392v88.28ZM464.687,416.2l-83.48-15.65A26.015,26.015,0,0,1,360,374.99v-2.82h37.348L469.7,384.229Zm16.617,14.28-9.07-10.771,5.36-34.164,9.893,1.648Z"/><path d="M499.664,63.156l-8,.053a4,4,0,0,0,.025,8h.027l8-.053a4,4,0,0,0-.052-8Z"/><path d="M479.69,67.288a4,4,0,0,0-4-3.974h-.027l-8,.054a4,4,0,0,0,.026,8h.027l8-.054A4,4,0,0,0,479.69,67.288Z"/><path d="M383.692,67.924a4,4,0,0,0,4,3.973h.027l8-.052a4,4,0,0,0-.026-8h-.027l-8,.052A4,4,0,0,0,383.692,67.924Z"/><path d="M423.692,67.659a4,4,0,0,0-4-3.973h-.026l-8,.052a4,4,0,0,0,.025,8h.027l8-.052A4,4,0,0,0,423.692,67.659Z"/><path d="M406.717,36.658a4,4,0,1,0,5.619-5.693l-5.694-5.62a4,4,0,1,0-5.619,5.7Z"/><path d="M423.8,53.517a4,4,0,0,0,5.619-5.7L423.725,42.2a4,4,0,1,0-5.62,5.693Z"/><path d="M458.331,81.975a4,4,0,0,0,.038,5.657l5.694,5.618a4,4,0,1,0,5.619-5.693l-5.694-5.62A4,4,0,0,0,458.331,81.975Z"/><path d="M481.146,110.108a4,4,0,0,0,5.619-5.7L481.07,98.8a4,4,0,0,0-5.619,5.693Z"/><path d="M477.807,36.957a3.989,3.989,0,0,0,2.847-1.19l5.619-5.7a4,4,0,0,0-5.694-5.619l-5.62,5.694a4,4,0,0,0,2.848,6.81Z"/><path d="M460.948,54.039a3.987,3.987,0,0,0,2.847-1.19l5.62-5.695a4,4,0,0,0-5.694-5.619l-5.62,5.694a4,4,0,0,0,2.847,6.81Z"/><path d="M407.129,98.882l-5.619,5.694a4,4,0,1,0,5.695,5.619l5.619-5.694a4,4,0,0,0-5.695-5.619Z"/><path d="M421.215,94.3a3.99,3.99,0,0,0,2.847-1.191l5.619-5.694a4,4,0,0,0-5.694-5.619l-5.619,5.694a4,4,0,0,0,2.847,6.81Z"/><path d="M443.373,23.528h.027a4,4,0,0,0,3.974-4.026l-.054-8a4,4,0,0,0-4-3.974h-.028a4,4,0,0,0-3.973,4.027l.054,8A4,4,0,0,0,443.373,23.528Z"/><path d="M443.48,31.527h-.027a4,4,0,0,0-3.974,4.027l.053,8a4,4,0,0,0,4,3.973h.027a4,4,0,0,0,3.973-4.026l-.053-8A4,4,0,0,0,443.48,31.527Z"/></g></svg>
