<svg height="480pt" viewBox="0 0 480 480" width="480pt" xmlns="http://www.w3.org/2000/svg"><path d="m459.734375 196.289062c-.53125-6.214843.078125-12.472656 1.800781-18.464843 3.101563-9.644531 3.1875-20.003907.25-29.695313-4.871094-9.023437-12.34375-16.375-21.449218-21.089844-5.347657-2.941406-10.117188-6.839843-14.0625-11.496093-2.835938-5.476563-4.644532-11.421875-5.335938-17.550781-.882812-10.144532-4.78125-19.792969-11.203125-27.695313-7.902344-6.417969-17.550781-10.320313-27.695313-11.199219-6.128906-.695312-12.078124-2.503906-17.550781-5.34375-4.660156-3.945312-8.558593-8.714844-11.496093-14.066406-4.71875-9.105469-12.070313-16.578125-21.097657-21.449219-9.691406-2.933593-20.046875-2.84375-29.6875.25-5.996093 1.714844-12.253906 2.324219-18.472656 1.800781-5.71875-1.84375-11.054687-4.710937-15.75-8.464843-7.925781-6.667969-17.679687-10.789063-27.984375-11.824219-10.292969 1.03125-20.035156 5.144531-27.953125 11.800781-4.695313 3.75-10.035156 6.621094-15.757813 8.464844-6.214843.519531-12.46875-.089844-18.464843-1.800781-9.644531-3.101563-20.003907-3.1875-29.695313-.25-9.023437 4.871094-16.375 12.34375-21.089844 21.449218-2.941406 5.347657-6.839843 10.117188-11.496093 14.0625-5.476563 2.835938-11.421875 4.644532-17.550781 5.335938-10.144532.882812-19.792969 4.78125-27.695313 11.203125-6.417969 7.902344-10.320313 17.550781-11.199219 27.695313-.695312 6.128906-2.503906 12.078124-5.34375 17.550781-3.945312 4.660156-8.714844 8.558593-14.066406 11.496093-9.105469 4.71875-16.578125 12.070313-21.449219 21.097657-2.933593 9.691406-2.847656 20.046875.25 29.6875 1.722657 5.996093 2.332031 12.253906 1.800781 18.472656-1.84375 5.71875-4.710937 11.054687-8.464843 15.75-6.667969 7.925781-10.789063 17.679687-11.824219 27.984375 1.03125 10.292969 5.144531 20.035156 11.800781 27.953125 3.75 4.695313 6.621094 10.035156 8.464844 15.757813.53125 6.214843-.078125 12.472656-1.800781 18.464843-3.101563 9.644531-3.1875 20.003907-.25 29.695313 4.871094 9.023437 12.34375 16.375 21.449218 21.089844 5.347657 2.941406 10.117188 6.839843 14.0625 11.496093 2.835938 5.476563 4.644532 11.421875 5.335938 17.550781.882812 10.144532 4.78125 19.792969 11.203125 27.695313 7.902344 6.417969 17.546875 10.320313 27.6875 11.199219 6.144531.6875 12.109375 2.5 17.597656 5.34375 4.660157 3.945312 8.558594 8.714844 11.496094 14.066406 4.71875 9.105469 12.070313 16.578125 21.097656 21.449219 9.691407 2.9375 20.046875 2.847656 29.6875-.25 5.996094-1.722657 12.257813-2.332031 18.472657-1.800781 5.71875 1.84375 11.058593 4.710937 15.75 8.464843 7.914062 6.660157 17.652343 10.78125 27.945312 11.824219 4.417969 0 8-3.582031 8-8v-40.152344c50.257812-1.496094 56-16.984375 56-23.847656-.242188-7.980469-4.210938-15.386719-10.726562-20-4-3.488281-5.273438-4.871094-5.273438-8s1.289062-4.503906 5.273438-8c6.703124-4.457031 10.730468-11.972656 10.730468-20.023438 0-8.050781-4.027344-15.566406-10.730468-20.023437-4-3.472656-5.265626-4.863281-5.265626-7.960937 0-3.097657 1.289063-4.488282 5.265626-8 2.070312-1.734376 3.976562-3.652344 5.695312-5.734376l65.496094 65.496094 33.933594 33.949219c3.175781 3 8.140624 3 11.3125 0 6.417968-7.902344 10.320312-17.546875 11.199218-27.6875.695313-6.128906 2.503906-12.078125 5.347656-17.550781 3.941407-4.660156 8.710938-8.558594 14.0625-11.496094 9.105469-4.71875 16.578126-12.070312 21.449219-21.097656 2.933594-9.691406 2.847657-20.046875-.25-29.6875-1.722656-5.996094-2.332031-12.257813-1.800781-18.472656 1.84375-5.722657 4.714844-11.0625 8.464844-15.757813 6.664062-7.917969 10.78125-17.660156 11.816406-27.953125-1.023438-10.308594-5.136719-20.066406-11.800781-28-3.746094-4.683594-6.613281-10.007812-8.464844-15.710938zm-244.0625 217.992188-1.40625-.175781c-5.160156-.800781-10.242187-1.777344-15.25-2.976563-.535156-.128906-1.070313-.234375-1.601563-.367187-4.925781-1.234375-9.765624-2.691407-14.519531-4.328125-.566406-.195313-1.140625-.378906-1.703125-.578125-4.6875-1.664063-9.28125-3.542969-13.785156-5.597657l-1.734375-.800781c-4.449219-2.082031-8.789063-4.34375-13.023437-6.785156l-1.703126-.984375c-4.191406-2.46875-8.265624-5.101562-12.21875-7.902344l-1.65625-1.175781c-3.914062-2.832031-7.699218-5.820313-11.359374-8.960937-.519532-.441407-1.03125-.886719-1.542969-1.335938-3.625-3.199219-7.117188-6.519531-10.472657-9.960938-.472656-.480468-.933593-.976562-1.398437-1.464843-3.324219-3.503907-6.5-7.136719-9.527344-10.902344-.417969-.519531-.800781-1.039063-1.226562-1.601563-2.996094-3.8125-5.839844-7.75-8.527344-11.816406-.351563-.527344-.6875-1.070312-1.03125-1.597656-2.667969-4.125-5.15625-8.355469-7.464844-12.695312-.28125-.519532-.535156-1.050782-.800781-1.601563-2.285156-4.414063-4.414062-8.929687-6.335938-13.550781-.207031-.496094-.390624-1-.589843-1.496094-1.898438-4.703125-3.625-9.496094-5.121094-14.402344-.136719-.429687-.238281-.871094-.375-1.300781-1.480469-5-2.777344-10.074219-3.816406-15.25-.066407-.335937-.113281-.679687-.183594-1.015625-1.03125-5.296875-1.847656-10.671875-2.402344-16.121094 0-.199218 0-.390625-.046875-.582031-.550781-5.511719-.847656-11.199219-.847656-16.953125 0-97.203125 78.796875-176 176-176s176 78.796875 176 176c0 5.710938-.296875 11.382812-.800781 17-.175781 1.863281-.527344 3.6875-.800781 5.542969-.46875 3.730469-.933594 7.457031-1.597657 11.128906-.425781 2.167969-1.015625 4.289063-1.511719 6.398437-.800781 3.289063-1.503906 6.578126-2.457031 9.800782-.65625 2.25-1.480469 4.441406-2.230469 6.65625-1.035156 3.046875-2.050781 6.097656-3.242187 9.082031-.902344 2.238281-1.945313 4.414063-2.933594 6.613281-1.289062 2.867188-2.578125 5.722656-4 8.511719-1.128906 2.1875-2.402343 4.3125-3.601562 6.449219-1.542969 2.6875-3.113281 5.375-4.800781 8-1.351563 2.097656-2.808594 4.144531-4.253907 6.191406-1.792969 2.527344-3.617187 5.03125-5.546875 7.464844-1.597656 2-3.199218 3.945312-4.894531 5.878906-1.113281 1.28125-2.28125 2.519531-3.433594 3.777344l-124.238281-124.152344c-2.289062-2.285156-5.730469-2.972656-8.71875-1.734375s-4.9375 4.15625-4.9375 7.390625v175.800781h-.335938c-5.398437-.265625-10.726562-.792969-15.992187-1.519531zm67.0625-70.28125c4 3.480469 5.265625 4.863281 5.265625 8s-1.289062 4.503906-5.273438 8c-6.703124 4.460938-10.730468 11.980469-10.730468 20.03125s4.027344 15.570312 10.730468 20.03125c3.449219 3.015625 4.882813 4.464844 5.203126 6.824219-1.496094 1.648437-9.265626 8.082031-39.929688 9.050781v-156.625l39.472656 39.472656c-1.214844 2.023438-2.828125 3.785156-4.738281 5.175782-6.703125 4.445312-10.730469 11.953124-10.730469 20 0 8.042968 4.027344 15.550781 10.730469 20zm172.257813-85.070312c-5.066407 6.417968-8.792969 13.789062-10.953126 21.679687-1.058593 8.320313-.433593 16.769531 1.832032 24.847656 2.167968 6.542969 2.558594 13.542969 1.128906 20.285157-3.800781 5.90625-9.125 10.679687-15.40625 13.816406-7.21875 4.03125-13.546875 9.472656-18.617188 16-4.140624 7.226562-6.785156 15.210937-7.769531 23.480468-.667969 4.078126-1.601562 8.109376-2.792969 12.066407l-21.101562-21.105469c.121094-.144531.222656-.289062.351562-.433594 3.648438-4 7.070313-8.09375 10.34375-12.320312.449219-.574219.914063-1.140625 1.351563-1.726563 3.160156-4.175781 6.113281-8.472656 8.90625-12.855469.429687-.6875.871094-1.367187 1.292969-2.054687 2.707031-4.375 5.222656-8.847656 7.554687-13.425781l1.125-2.238282c2.273438-4.59375 4.355469-9.269531 6.242188-14.023437.304687-.761719.589843-1.523437.878906-2.28125 1.839844-4.800781 3.503906-9.703125 4.953125-14.664063.207031-.71875.390625-1.441406.589844-2.152343 1.410156-5.0625 2.640625-10.191407 3.632812-15.382813.121094-.601562.207032-1.210937.3125-1.808594.976563-5.351562 1.753906-10.753906 2.273438-16.21875 0-.382812.046875-.757812.078125-1.140624.511719-5.714844.800781-11.472657.800781-17.273438 0-106.039062-85.960938-192-192-192s-192 85.960938-192 192c0 3.273438.082031 6.523438.246094 9.753906.058594 1.039063.160156 2.070313.234375 3.109375.144531 2.175781.28125 4.34375.496093 6.496094.128907 1.28125.320313 2.535156.472657 3.808594.230469 1.894531.4375 3.792969.71875 5.671875.207031 1.367187.480469 2.703125.710937 4.054687.304688 1.769531.59375 3.53125.945313 5.273438.28125 1.390625.625 2.769531.9375 4.144531.375 1.679688.734375 3.367188 1.160156 5.03125.351563 1.390625.796875 2.769531 1.148437 4.144531.449219 1.601563.890626 3.253907 1.378907 4.855469.421875 1.375.894531 2.726562 1.351562 4.089844.527344 1.597656 1.039063 3.199218 1.597657 4.742187.496093 1.359375 1.035156 2.6875 1.554687 4 .589844 1.527344 1.175781 3.0625 1.808594 4.585938.558593 1.34375 1.167969 2.671875 1.757812 4 .65625 1.476562 1.304688 2.957031 2 4.414062.625 1.3125 1.296875 2.609375 1.945313 3.902344.726562 1.441406 1.445312 2.890625 2.207031 4.304687.6875 1.28125 1.40625 2.539063 2.128906 3.800782.800781 1.390625 1.597657 2.792968 2.398438 4.167968.753906 1.25 1.535156 2.472657 2.3125 3.703126.777343 1.234374 1.695312 2.707031 2.578125 4 .878906 1.296874 1.644531 2.402343 2.484375 3.601562.839843 1.199219 1.808593 2.589844 2.746093 3.863281.9375 1.273438 1.769532 2.34375 2.671876 3.511719.902343 1.167969 1.917968 2.480469 2.910156 3.703125.992187 1.226563 1.875 2.257813 2.824218 3.378906.953126 1.117188 2.035157 2.398438 3.074219 3.542969 1.039063 1.144531 1.984375 2.183594 2.992188 3.265625 1.007812 1.078125 2.136719 2.269531 3.199219 3.382813 1.0625 1.109374 2.085937 2.085937 3.144531 3.121093 1.054687 1.03125 2.238281 2.167969 3.375 3.199219s2.183593 1.992188 3.296875 2.976562c1.113281.984376 2.335937 2.054688 3.527344 3.054688 1.191406 1 2.28125 1.894531 3.433593 2.824219 1.152344.925781 2.398438 1.933593 3.664063 2.878906 1.261718.945313 2.398437 1.792969 3.566406 2.671875s2.535156 1.824219 3.816406 2.722656c1.28125.894532 2.398438 1.671875 3.671875 2.476563 1.273438.808593 2.625 1.714843 3.953125 2.539062s2.527344 1.597657 3.804688 2.328125c1.28125.726563 2.707031 1.597656 4.074218 2.34375 1.367188.742188 2.601563 1.445313 3.910157 2.144532 1.3125.695312 2.785156 1.445312 4.195312 2.148437 1.40625.707031 2.679688 1.335937 4.039063 1.976563 1.359375.640624 2.855468 1.304687 4.296875 1.945312 1.4375.640625 2.734375 1.199219 4.125 1.777344 1.394531.574218 2.953125 1.183594 4.441406 1.75 1.488281.570312 2.785156 1.074218 4.191406 1.601562 1.410157.527344 3.03125 1.039063 4.550781 1.542969 1.523438.503906 2.851563.9375 4.289063 1.375 1.441406.441406 3.097656.898437 4.65625 1.320313 1.558594.425781 2.894531.800781 4.359375 1.175781s3.199219.746093 4.800781 1.097656c1.464844.328125 2.929688.671875 4.417969.960937 1.597656.316407 3.246094.597657 4.878906.871094 1.488282.253906 2.96875.527344 4.464844.742188 1.65625.25 3.328125.441406 5 .640625 1.496094.175781 2.984375.367187 4.476562.519531 1.714844.160156 3.441407.273438 5.160157.394531 1.488281.101563 2.96875.222657 4.464843.292969.320313 0 .640626.050781.960938.058594v29.949218c-3.792969-2.011718-7.445312-4.28125-10.929688-6.789062-6.417968-5.070312-13.789062-8.792969-21.679687-10.953125-2.300781-.441406-4.640625-.660156-6.984375-.648437-6.023438.214843-12.007812 1.046874-17.863281 2.480468-6.542969 2.160156-13.542969 2.550782-20.285157 1.128906-5.90625-3.804687-10.679687-9.125-13.816406-15.410156-4.03125-7.214844-9.472656-13.546875-16-18.613281-7.226562-4.144531-15.21875-6.789063-23.488281-7.769531-6.9375-.496094-13.617187-2.824219-19.351563-6.753906-3.953124-5.730469-6.308593-12.410157-6.824218-19.351563-.984375-8.269531-3.621094-16.257813-7.761719-23.488281-5.070313-6.527344-11.40625-11.96875-18.625-16-6.277344-3.140625-11.597656-7.910156-15.398437-13.816406-1.425782-6.738282-1.039063-13.734376 1.121093-20.277344 2.273438-8.078125 2.898438-16.527344 1.839844-24.847656-2.160156-7.890626-5.886719-15.261719-10.953125-21.679688-4.652344-5.386719-7.761719-11.929688-9-18.9375 1.238281-7.007812 4.351562-13.546875 9.007812-18.929688 5.082032-6.414062 8.820313-13.785156 10.992188-21.679687 1.058594-8.320313.433594-16.769531-1.832031-24.847656-2.167969-6.542969-2.554688-13.542969-1.128907-20.285157 3.804688-5.90625 9.125-10.679687 15.410157-13.816406 7.214843-4.03125 13.542969-9.472656 18.613281-16 4.144531-7.226562 6.789062-15.21875 7.769531-23.488281.492188-6.9375 2.832031-13.621094 6.769531-19.351563 5.730469-3.953124 12.410157-6.308593 19.351563-6.824218 8.269531-.984375 16.257813-3.621094 23.488281-7.761719 6.527344-5.070313 11.96875-11.40625 16-18.625 3.140625-6.277344 7.910156-11.597656 13.816406-15.398437 6.738282-1.425782 13.734376-1.039063 20.277344 1.121093 8.078125 2.269531 16.527344 2.894531 24.847656 1.839844 7.890626-2.160156 15.261719-5.886719 21.679688-10.953125 5.386719-4.652344 11.929688-7.761719 18.9375-9 7.007812 1.238281 13.546875 4.351562 18.929688 9.007812 6.414062 5.082032 13.785156 8.820313 21.679687 10.992188 8.320313 1.050781 16.769531.425781 24.847656-1.832031 6.542969-2.167969 13.542969-2.554688 20.285157-1.128907 5.90625 3.804688 10.679687 9.125 13.816406 15.410157 4.03125 7.214843 9.472656 13.542969 16 18.613281 7.226562 4.144531 15.21875 6.789062 23.488281 7.769531 6.9375.496094 13.617187 2.832031 19.351563 6.769531 3.953124 5.730469 6.308593 12.410157 6.824218 19.351563.984375 8.269531 3.621094 16.257813 7.761719 23.488281 5.070313 6.527344 11.40625 11.96875 18.625 16 6.277344 3.136719 11.597656 7.90625 15.398437 13.804688 1.425782 6.746094 1.042969 13.746094-1.121093 20.289062-2.273438 8.078125-2.898438 16.527344-1.839844 24.847656 2.160156 7.890626 5.886719 15.261719 10.953125 21.679688 4.652344 5.386719 7.765625 11.929688 9 18.9375-1.242188 7.007812-4.355469 13.546875-9.007812 18.929688zm0 0"/><path d="m240 168c4.417969 0 8-3.582031 8-8v-56c0-4.417969-3.582031-8-8-8s-8 3.582031-8 8v56c0 4.417969 3.582031 8 8 8zm0 0"/><path d="m104 248h56c4.417969 0 8-3.582031 8-8s-3.582031-8-8-8h-56c-4.417969 0-8 3.582031-8 8s3.582031 8 8 8zm0 0"/><path d="m202.34375 213.65625c3.140625 3.03125 8.128906 2.988281 11.214844-.097656 3.085937-3.085938 3.128906-8.074219.097656-11.214844l-40-40c-3.140625-3.03125-8.128906-2.988281-11.214844.097656-3.085937 3.085938-3.128906 8.074219-.097656 11.214844zm0 0"/><path d="m272 216c2.121094 0 4.15625-.84375 5.65625-2.34375l40-40c3.03125-3.140625 2.988281-8.128906-.097656-11.214844-3.085938-3.085937-8.074219-3.128906-11.214844-.097656l-40 40c-2.285156 2.289062-2.972656 5.730469-1.734375 8.71875s4.15625 4.9375 7.390625 4.9375zm0 0"/><path d="m202.34375 266.34375-40 40c-2.078125 2.007812-2.914062 4.984375-2.179688 7.78125.730469 2.796875 2.914063 4.980469 5.710938 5.710938 2.796875.734374 5.773438-.101563 7.78125-2.179688l40-40c3.03125-3.140625 2.988281-8.128906-.097656-11.214844-3.085938-3.085937-8.074219-3.128906-11.214844-.097656zm0 0"/><path d="m312 240c0 4.417969 3.582031 8 8 8h56c4.417969 0 8-3.582031 8-8s-3.582031-8-8-8h-56c-4.417969 0-8 3.582031-8 8zm0 0"/><path d="m179.367188 370.65625c-29.550782-13.789062-53.585938-37.144531-68.214844-66.289062-1.988282-3.949219-6.800782-5.539063-10.753906-3.550782-3.949219 1.988282-5.539063 6.800782-3.550782 10.75 16.257813 32.359375 42.957032 58.292969 75.777344 73.601563 4.007812 1.863281 8.765625.125 10.628906-3.882813 1.859375-4.007812.121094-8.765625-3.886718-10.628906zm0 0"/><path d="m320 416h16v16h-16zm0 0"/><path d="m336 384h16v16h-16zm0 0"/></svg>