<svg id="Layer_1" enable-background="new 0 0 512 512" viewBox="0 0 512 512" xmlns="http://www.w3.org/2000/svg" width="300" height="300" version="1.1" xmlns:xlink="http://www.w3.org/1999/xlink" xmlns:svgjs="http://svgjs.dev/svgjs"><g transform="matrix(1,0,0,1,0,0)"><g><g><path d="m465.109 157.251c9.469-14.984 12.911-33.232 9.296-50.764-3.912-18.985-15.733-35.635-32.431-45.675l-44.324-26.715c-23.338-14.042-52.929-13.042-75.022 2.251l-4.919 3.08c-22.391-3.68-45.937.328-66.274 13.07-20.378 12.768-34.533 32.256-40.959 54.132l-4.163 2.62c-21.23 11.508-34.682 33.067-36.129 56.738-7.944-11.772-20.944-18.781-35.427-18.781-20.998 0-38.261 14.709-42.067 34.98-10.814 1.739-20.652 7.873-27.542 17.341-7.968 10.945-10.475 24.249-6.878 36.528 3.954 13.316 13.286 23.761 25.595 28.644 10.868 4.3 23.016 3.859 34.015-1.179.929.929 2.132 2.132 3.18 3.183-16.46 23.606-50.308 80.572-40.631 138.297 1.906 11.417 5.008 21.286 8.772 30.076-12.053 5.473-31.937 10.127-64.309 7.953-4.657-.512-9.141 1.798-11.434 5.907-2.275 4.085-1.894 9.087 1.173 12.982 16.412 19.497 44.502 33.551 76.076 33.551 14.119 0 28.93-3.004 43.704-9.397 13.196 7.429 23.826 9.769 24.892 9.981l79.411.179c21.504 0 39-17.496 39-38.994 0-10.302-4.157-20.366-11.398-27.608s-17.305-11.398-27.602-11.398h-11.94c-1.37 0-2.739-.56-3.68-1.501l-31.645-31.645c-3.573-3.573-9.361-3.573-12.934 0s-3.573 9.361 0 12.934l31.633 31.633c4.353 4.371 10.415 6.872 16.627 6.872h11.94c5.485 0 10.832 2.203 14.667 6.038s6.038 9.183 6.038 14.673c0 11.41-9.29 20.7-20.706 20.7h-76.594c-6.985-1.703-53.542-15.305-63.648-75.951-8.242-49.171 20.063-99.048 35.724-122.125 43.127 43.17 128.844 128.783 156.273 156.105-3.68 8.099-4.651 16.841-2.894 26.047 3.633 19.342 21.879 34.218 41.721 34.218.298 0 .601-.012.899-.012 20.289-.333 37.69-14.995 41.501-34.897 6.181-1.319 11.618-3.615 16.323-6.693l19.461 25.94c7.366 9.814 19.074 15.662 31.336 15.662 13.345 0 25.637-6.693 32.89-17.889 7.247-11.207 8.313-25.166 2.847-37.338l-12.518-27.87c-3.323-7.408-4.818-15.602-4.317-23.713l4.621-74.688-1.251-.077c21.682-17.07 35.498-41.953 38.363-69.823 3.246-31.609-8.033-62.35-30.96-84.336zm-348.741 316.014c-28.608 8.508-56.234 2.068-75.07-11.44 26.572-.14 44.455-4.986 56.323-10.481 5.712 8.93 12.185 16.118 18.747 21.921zm271.849-423.494 44.318 26.714c12.523 7.527 21.027 19.497 23.951 33.694 2.4 11.627.405 23.603-5.074 33.932l-82.936-79.572c-7.902-7.579-16.823-13.57-26.345-17.943 14.852-6.206 32.003-5.299 46.086 3.175zm-181.629 81.55c-.25 10.36 1.179 20.886 4.448 31.191l34.998 110.333c-11.809.421-23.57-3.049-33.074-10.383-11.458-8.825-18.485-21.641-19.783-36.1l-4.639-51.559c-1.483-16.718 5.377-32.73 18.05-43.482zm161.424 312.032c-5.645-.429-9.76 1.346-11.976 5.062-2.102 3.156-2.186 6.42-2.269 9.254-2.114 11.541-12.154 20.069-23.927 20.259-12.678.536-22.498-9.79-24.285-19.318-1.245-6.515-.345-12.077 2.852-17.532 2.948-5.062 2.406-10.231-1.834-14.876-28.4-28.287-150.627-150.377-178.926-178.795-2.001-2.001-7.45-6.193-14.864-1.822-7.188 4.169-15.06 4.907-22.177 2.108-7.158-2.847-12.416-8.825-14.792-16.817-1.953-6.658-.411-14.352 4.121-20.581 4.633-6.36 11.374-10.112 18.532-10.302 6.295-.191 11.374-5.062 11.809-11.315.941-13.435 11.237-23.177 24.481-23.177 8.861 0 16.787 4.502 21.2 12.041 4.419 7.551 4.466 16.686-.089 24.809-3.662 7.325-.607 12.398 2.34 15.126l17.752 17.633c3.198 16.671 12.202 31.344 25.833 41.846 8.599 6.628 18.592 10.942 29.037 13.003l105.565 105.705c3.061 3.037 8.2 5.884 15.275 2.12 10.022-5.252 18.645-4.704 27.179 1.763 8.528 6.372 11.565 14.876 9.01 25.261-2.5 10.303-9.152 16.413-19.847 18.545zm89.856 5.157c2.954 6.574 2.4 13.828-1.525 19.89-3.918 6.062-10.308 9.54-17.526 9.54-6.533 0-12.786-3.12-16.704-8.349l-21.289-28.385c2.102-3.624 3.734-7.639 4.812-12.05 4.335-17.675-1.292-33.396-15.787-44.222-13.155-9.981-27.989-11.72-43.281-4.978l-15.68-15.698c6.58 1.307 13.214 2.025 19.836 2.025 18.895 0 37.612-5.3 54.197-15.686l38.357-24.033-3.817 61.741c-.685 11.041 1.352 22.224 5.884 32.324zm23.385-205.545c-2.668 25.964-16.883 48.796-39 62.647l-15.852 9.935-41.608-66.82c10.183-10.27 14.161-25.47 9.522-39.717l-1.197-3.68c-2.459-7.551-8.147-13.435-15.608-16.138-7.468-2.727-15.608-1.858-22.343 2.358l-24.035 15.066c-6.729 4.216-11.059 11.16-11.874 19.068-.822 7.896 1.989 15.59 7.706 21.081l2.799 2.692c7.533 7.253 17.329 10.993 27.221 10.993 4.133 0 8.266-.735 12.273-2.06l41.638 66.872-15.686 9.829c-22.201 13.923-49.034 16.71-73.622 7.67-24.588-9.028-43.24-28.537-51.16-53.5l-41.953-132.274c-10.671-33.658 2.763-70.246 32.675-88.981 12.684-7.944 26.929-11.839 41.09-11.839 5.086 0 10.153.563 15.144 1.56.173.045.322.107.494.143 13.899 2.872 27.113 9.483 37.934 19.866l100.015 95.96c18.829 18.067 28.095 43.305 25.427 69.269zm-113.295-3.966c-.006.003-.006.009-.012.012-8.147 5.005-18.598 3.91-25.494-2.727l-2.799-2.704c-1.638-1.56-2.436-3.764-2.203-6.015.232-2.263 1.471-4.24 3.394-5.443l24.035-15.066c1.185-.738 2.519-1.12 3.877-1.12.84 0 1.685.143 2.507.441 2.132.774 3.758 2.465 4.46 4.621l1.203 3.68c2.978 9.171-.643 19.149-8.808 24.259-.047.032-.106.029-.16.062z" fill="#000000ff" data-original-color="#000000ff" stroke="none"/><path d="m307.55 169.253c-8.319-13.268-25.905-17.329-39.196-9.004-13.286 8.337-17.323 25.916-9.016 39.172 1 1.608 2.18 3.085 3.4 4.419 1.804 1.965 4.27 2.966 6.747 2.966 2.209 0 4.419-.798 6.181-2.406 3.722-3.406 3.972-9.195.56-12.922-.482-.524-.965-1.096-1.37-1.751-2.966-4.728-1.525-11.005 3.204-13.971 4.74-2.978 11.017-1.536 13.988 3.216.387.619.691 1.286.947 1.941 1.834 4.716 7.14 7.051 11.845 5.193 4.71-1.834 7.033-7.134 5.199-11.839-.667-1.703-1.489-3.418-2.489-5.014z" fill="#000000ff" data-original-color="#000000ff" stroke="none"/><path d="m379.463 124.197c-8.313-13.28-25.899-17.329-39.196-9.004-13.286 8.337-17.317 25.916-9.01 39.172 1 1.608 2.174 3.085 3.4 4.419 1.804 1.965 4.27 2.966 6.741 2.966 2.209 0 4.425-.798 6.181-2.406 3.722-3.406 3.978-9.195.56-12.923-.476-.524-.959-1.096-1.37-1.751-2.966-4.728-1.525-11.005 3.21-13.971 4.74-2.978 11.011-1.536 13.988 3.228.393.619.697 1.298.953 1.953 1.858 4.704 7.17 7.003 11.868 5.157 4.699-1.858 7.009-7.17 5.151-11.874-.659-1.679-1.481-3.382-2.476-4.966z" fill="#000000ff" data-original-color="#000000ff" stroke="none"/><path d="m58.056 58.668c-8.123 1.036-15.12 4.442-20.819 10.136-7.587 7.599-11.523 17.615-11.094 28.215.423 10.445 5.08 20.628 13.107 28.644 8.266 8.266 18.86 12.744 33.331 14.09 1.828.167 4.288.25 7.42.25 10.046 0 26.994-.893 52.077-2.739 8.385-.631 14.917-7.17 15.531-15.555 2.406-32.955 3.192-51.845 2.477-59.467-1.352-14.483-5.83-25.071-14.084-33.325-8.027-8.027-18.199-12.672-28.638-13.101-10.624-.548-20.622 3.502-28.221 11.088l-.012.012c-5.681 5.693-9.087 12.684-10.13 20.807-.5 3.907-.292 7.551.143 10.874-3.102-.322-6.979-.441-11.088.071zm32.069 21.343s-3.418-26.5-2.972-29.978c.518-4.061 2.132-7.396 4.925-10.195 3.936-3.942 9.052-6.11 14.53-5.753 5.842.238 11.69 3.001 16.46 7.765 5.211 5.205 7.843 11.815 8.808 22.105.59 6.3-.226 24.856-2.424 55.156-37.594 2.751-50.749 2.882-55.168 2.418-10.272-.953-16.883-3.585-22.099-8.802-4.764-4.764-7.527-10.612-7.765-16.448-.214-5.443 1.828-10.612 5.759-14.542 2.793-2.787 6.128-4.407 10.189-4.919 1.143-.143 2.311-.202 3.448-.202 2.875 0 26.309 3.395 26.309 3.395z" fill="#000000ff" data-original-color="#000000ff" stroke="none"/></g></g></g></svg>