<svg id="Layer_1" height="512" viewBox="0 0 512 512" width="512" xmlns="http://www.w3.org/2000/svg"><path d="m142.098 222.286c.14.027 12.671 2.436 24.469 5.274l-1.254 48.624c-.058 2.236 1.377 4.238 3.513 4.903l21.857 6.802c.486.151.987.226 1.485.226 1.038 0 2.064-.323 2.927-.946 1.275-.92 2.043-2.388 2.072-3.961l.838-45.002c10.044 4.285 19.256 8.609 19.368 8.662 1.542.725 3.349.615 4.791-.294 1.443-.909 2.323-2.489 2.336-4.194l.18-24.448c.015-1.952-1.109-3.734-2.877-4.563-.119-.056-11.114-5.203-23.147-10.051l.329-17.72c.04-2.129-1.274-4.05-3.272-4.785l-21.132-7.773c-1.512-.556-3.2-.351-4.534.555-1.334.905-2.149 2.397-2.19 4.008l-.399 15.451c-11.669-3.015-21.572-4.938-22.058-5.032-1.417-.276-2.881.078-4.019.963s-1.838 2.219-1.921 3.658l-1.411 24.446c-.146 2.501 1.586 4.724 4.049 5.197zm7.01-23.287c5.247 1.13 13.507 3.015 21.836 5.344 1.484.415 3.076.121 4.317-.793 1.239-.916 1.988-2.352 2.027-3.893l.383-14.827 11.248 4.138-.327 17.625c-.039 2.092 1.229 3.986 3.177 4.749 9.228 3.611 18.374 7.69 22.887 9.745l-.1 13.483c-5.228-2.366-12.61-5.634-19.536-8.44-1.526-.619-3.259-.446-4.633.461s-2.214 2.433-2.244 4.079l-.851 45.691-11.887-3.698 1.26-48.864c.061-2.335-1.505-4.401-3.769-4.976-8.882-2.252-19.012-4.373-24.616-5.505zm127.804-18.363c-1.605-2.247-1.085-5.37 1.162-6.975 33.143-23.671 60.842-33.5 109.772-38.948 2.756-.305 5.217 1.672 5.523 4.416s-1.672 5.217-4.416 5.522c-47.584 5.299-73.114 14.325-105.067 37.147-.881.629-1.896.932-2.902.932-1.559 0-3.096-.728-4.072-2.094zm0 38.05c-1.605-2.247-1.085-5.37 1.162-6.975 33.142-23.674 60.842-33.503 109.772-38.951 2.756-.306 5.217 1.671 5.523 4.416.305 2.745-1.672 5.217-4.416 5.522-47.585 5.298-73.115 14.325-105.067 37.149-.881.629-1.896.932-2.902.932-1.559.001-3.096-.727-4.072-2.093zm0 38.047c-1.605-2.247-1.085-5.37 1.162-6.975 33.145-23.674 60.844-33.502 109.773-38.948 2.74-.309 5.216 1.671 5.522 4.416.305 2.745-1.672 5.217-4.417 5.522-47.581 5.296-73.111 14.323-105.066 37.147-.881.63-1.896.932-2.902.932-1.559 0-3.096-.727-4.072-2.094zm0 38.049c-1.605-2.247-1.085-5.37 1.162-6.975 33.144-23.675 60.844-33.503 109.773-38.95 2.74-.311 5.216 1.672 5.522 4.416.305 2.745-1.672 5.217-4.417 5.523-47.582 5.296-73.112 14.323-105.066 37.147-.881.63-1.896.932-2.902.932-1.559.001-3.096-.727-4.072-2.093zm112.042 2.064c-47.587 5.298-73.117 14.324-105.067 37.146-.881.629-1.896.932-2.902.932-1.56 0-3.097-.728-4.072-2.094-1.605-2.247-1.085-5.37 1.162-6.975 33.14-23.673 60.839-33.501 109.772-38.949 2.756-.298 5.217 1.673 5.523 4.416.305 2.745-1.672 5.218-4.416 5.524zm120.192-76.757c-.149-1.337-.832-2.558-1.893-3.385-1.061-.828-2.403-1.193-3.743-1.014-1.355.183-26.854 3.865-42.533 22.234v-76.403c0-13.491-10.974-24.466-24.463-24.466-4.404 0-7.902.767-10.65 1.852l-1.365-27.383c-.058-1.148-.509-2.241-1.277-3.096l-17.274-19.193-.009.008c-.656-.729-1.519-1.276-2.521-1.521-.398-.097-4.112-.951-11.79-.951-10.4 0-28.623 1.578-56.366 9.094-36.862 9.985-65.864 32.23-72.585 37.675h-13.35c-6.72-5.444-35.727-27.689-72.593-37.675-27.74-7.516-45.961-9.094-56.361-9.094-7.678 0-11.392.854-11.789.951-1.002.245-1.864.792-2.521 1.521l-.01-.008-17.275 19.193c-.769.855-1.22 1.948-1.277 3.096l-1.364 27.382c-2.749-1.084-6.246-1.851-10.649-1.851-13.489 0-24.463 10.975-24.463 24.466v76.392c-15.675-18.357-41.179-22.04-42.535-22.223-1.337-.181-2.683.186-3.743 1.014-1.061.828-1.743 2.048-1.893 3.385-.126 1.123-3.036 27.878.561 61.535 4.716 44.12 18.643 79.151 40.313 101.47l3.576 37.156c.246 2.564 2.4 4.521 4.977 4.521h126.02c2.595 0 4.758-1.984 4.981-4.569l3.284-37.951 5.216-10.175c15.419 6.258 31.812 14.736 48.418 26.227.836.579 1.828.889 2.845.889h25.91c1.017 0 2.009-.31 2.845-.889 16.606-11.49 33-19.969 48.418-26.226l5.216 10.174 3.284 37.951c.224 2.585 2.387 4.569 4.981 4.569h126.02c2.576 0 4.73-1.957 4.977-4.521l3.576-37.156c21.671-22.318 35.598-57.35 40.313-101.47 3.597-33.656.686-60.412.561-61.535zm-239.673-79.172c7.056-5.606 34.594-26.24 68.403-35.398 26.682-7.229 43.957-8.746 53.751-8.746 2.415 0 4.347.094 5.816.212l11.548 231.455c-11.801-.707-40.043-1.064-71.082 8.423-30.965 9.465-56.186 24.348-68.437 32.354v-228.3zm-16.944 2.624h6.943v230.186h-6.943zm-137.973-46.556c1.472-.118 3.402-.212 5.816-.212 9.793 0 27.067 1.517 53.746 8.746 33.745 9.14 61.346 29.796 68.411 35.401v228.297c-12.252-8.006-37.477-22.89-68.438-32.354-23.632-7.224-45.687-8.739-60.027-8.739-4.495 0-8.238.147-11.055.316zm59.159 317.786h-116.892l-2.784-28.928h122.18zm4.899-38.927h-127.973c-42.293-43.872-39.794-127.084-38.3-149.16 10.215 2.583 32.494 10.572 38.88 32.022l10.008 34.561c.769 2.652 3.543 4.186 6.193 3.412 2.652-.769 4.18-3.541 3.412-6.193l-9.811-33.878v-95.085c0-7.977 6.488-14.466 14.463-14.466 5.896 0 8.84 1.882 10.092 3.032l-10.029 201.267c-.076 1.533.559 3.016 1.717 4.022 1.159 1.007 2.72 1.428 4.226 1.136.192-.037 19.616-3.667 48.782-.313 14.111 1.621 32.098 5.105 52.113 12.282zm88.787 13.347h-22.804c-43.623-29.813-85.804-39.832-113.622-42.976-20.919-2.362-36.877-1.342-45.138-.411l11.562-232.007 6.675-7.416-11.338 227.266c-.073 1.475.511 2.906 1.592 3.911 1.083 1.005 2.554 1.483 4.019 1.3.06-.008 6.071-.735 15.717-.735 13.659 0 34.653 1.44 57.104 8.302 41.375 12.649 73.056 36.073 73.371 36.309.881.656 1.933.992 2.991.992v.001h16.943v-.001c1.059 0 2.111-.336 2.991-.993.315-.234 31.99-23.658 73.369-36.308 22.45-6.861 43.444-8.302 57.104-8.302 9.646 0 15.657.728 15.714.735 1.465.18 2.938-.292 4.021-1.298 1.083-1.005 1.666-2.438 1.593-3.913l-11.339-227.266 6.674 7.416 11.563 232.007c-8.261-.934-24.217-1.951-45.138.411-27.818 3.144-70 13.164-113.624 42.976zm187.776 25.58h-116.892l-2.504-28.928h122.18zm6.182-38.927h-127.973l-3.772-7.36c20.016-7.177 38.002-10.661 52.114-12.282 29.167-3.352 48.589.277 48.775.313 1.513.294 3.068-.123 4.229-1.131 1.161-1.007 1.795-2.491 1.719-4.026l-10.031-201.268c1.252-1.15 4.195-3.034 10.094-3.034 7.975 0 14.463 6.489 14.463 14.466v95.084l-9.811 33.879c-.768 2.652.76 5.425 3.412 6.193 2.66.772 5.426-.76 6.193-3.412l9.997-34.524c6.368-21.392 28.675-29.435 38.894-32.044 1.505 22.094 4.024 105.242-38.303 149.146z"/></svg>