<svg clip-rule="evenodd" fill-rule="evenodd" stroke-linejoin="round" stroke-miterlimit="2" viewBox="0 0 96 96" xmlns="http://www.w3.org/2000/svg"><g><path d="m14.488 59.978c-7.733 0-14.011 6.278-14.011 14.011s6.278 14.011 14.011 14.011 14.011-6.278 14.011-14.011-6.278-14.011-14.011-14.011zm0 3c6.077 0 11.011 4.934 11.011 11.011s-4.934 11.011-11.011 11.011-11.011-4.934-11.011-11.011 4.934-11.011 11.011-11.011zm0 3.737c-4.015 0-7.274 3.259-7.274 7.274s3.259 7.275 7.274 7.275 7.275-3.26 7.275-7.275-3.26-7.274-7.275-7.274zm0 3c2.359 0 4.275 1.915 4.275 4.274s-1.916 4.275-4.275 4.275-4.274-1.916-4.274-4.275 1.915-4.274 4.274-4.274z"/><path d="m81.512 59.978c-7.733 0-14.011 6.278-14.011 14.011s6.278 14.011 14.011 14.011 14.011-6.278 14.011-14.011-6.278-14.011-14.011-14.011zm0 3c6.077 0 11.011 4.934 11.011 11.011s-4.934 11.011-11.011 11.011-11.011-4.934-11.011-11.011 4.934-11.011 11.011-11.011zm0 3.737c-4.015 0-7.275 3.259-7.275 7.274s3.26 7.275 7.275 7.275 7.274-3.26 7.274-7.275-3.259-7.274-7.274-7.274zm0 3c2.359 0 4.274 1.915 4.274 4.274s-1.915 4.275-4.274 4.275-4.275-1.916-4.275-4.275 1.916-4.274 4.275-4.274z"/><path d="m68.95 47.401c2.863-2.103 5.245-4.718 7.195-7.79-.001.001 12.719.001 12.719.001-2.814 6.776-7.754 8.981-12.496 11.106-4.406 1.975-8.647 3.919-11.421 8.445-2.587 4.222-3.928 10.785-2.647 22.033h-27.682c.804-8.186-.765-14.793-4.838-19.669-4.019-4.811-10.536-7.984-19.873-9.201 5.215-10.372 13.199-17.83 23.429-22.924-.255 1.65-.132 3.002.19 4.144.732 2.598 2.595 4.107 3.736 5.598.503.658 1.445.783 2.103.28.657-.503.783-1.446.28-2.103-.952-1.244-2.621-2.423-3.232-4.589-.383-1.359-.295-3.108.615-5.526.212-.565.065-1.202-.372-1.617-.438-.415-1.082-.528-1.634-.285-12.949 5.674-22.799 14.609-28.744 27.656-.201.441-.176.953.067 1.372.243.42.674.697 1.157.743 9.484.899 16.069 3.699 19.975 8.375 3.872 4.635 5.042 11.062 3.97 19.046-.058.429.072.862.357 1.187.285.326.697.513 1.129.513h31.062c.432 0 .843-.187 1.128-.511.285-.325.416-.757.359-1.185-1.482-11.266-.465-17.71 2.023-21.77 2.429-3.963 6.231-5.545 10.09-7.274 5.852-2.623 11.863-5.465 14.838-14.893.144-.456.062-.953-.22-1.338-.283-.386-.732-.613-1.21-.613h-15.696c-.527 0-1.016.277-1.287.729-1.819 3.038-4.078 5.61-6.846 7.642-.668.491-.811 1.43-.321 2.097.49.668 1.429.811 2.097.321zm-24.634-3.463c1.934.987 3.125 2.942 5.356 6.006.487.669 1.426.817 2.096.33.669-.488.817-1.426.329-2.096-2.614-3.591-4.15-5.754-6.417-6.912-.737-.377-1.641-.084-2.018.654-.376.737-.084 1.641.654 2.018z"/><path d="m54.09 25.782c3.077 3.349 9.541 10.472 12.099 14.02 1.784 2.475 1.285 5.92-1.129 7.786-4.534 3.504-10.233 7.91-10.233 7.91-.404.313-.622.81-.577 1.319 0 0 .774 8.562 2.476 13.052.538 1.416.066 3.017-1.152 3.917-1.407 1.038-3.004 1.621-4.255 1.944 0 0 1.255-4.563 1.255-4.563.098-.356.061-.737-.104-1.067 0 0-2.383-4.779-4.42-8.864-1.418-2.844-.873-6.275 1.358-8.539 3.993-4.052 9.209-9.346 9.209-9.346.494-.502.573-1.28.189-1.871l-2.126-3.269c-.451-.694-1.381-.891-2.075-.44-.694.452-.891 1.382-.44 2.076l1.468 2.257s-8.362 8.487-8.362 8.487c-3.13 3.177-3.896 7.993-1.905 11.984 0 0 4.164 8.35 4.164 8.35s-1.732 6.294-1.732 6.294c-.129.469-.023.971.285 1.347.308.377.78.581 1.265.547 0 0 4.484-.313 8.007-2.913 2.301-1.699 3.191-4.721 2.177-7.395-1.29-3.4-1.991-9.293-2.214-11.44 0 0 9.576-7.403 9.576-7.403 3.695-2.856 4.459-8.127 1.728-11.915-2.607-3.615-9.187-10.882-12.323-14.295-.56-.609-1.51-.65-2.119-.089-.61.56-.65 1.509-.09 2.119z"/><path d="m48.515 32.541-10.025 3.987c-1.158.461-2.085 1.364-2.577 2.509-.483 1.123-.508 2.39-.072 3.53.006.016.709 2.07 2.649 2.796.825.308 1.882.41 3.22-.049 3.767-1.291 10.446-3.58 14.86-5.093 1.525-.522 2.761-1.659 3.41-3.134.649-1.476.652-3.156.006-4.633-1.185-2.712-2.904-6.746-3.712-8.604-1.241-2.848-6.2-4.634-8.914-.669-.948 1.384-1.169 3.14-.581 4.712zm2.473 2.244c.759-.301 1.137-1.154.851-1.918l-2.25-6.024c-.246-.657-.149-1.39.246-1.968 1.121-1.637 3.176-1.003 3.688.173.809 1.859 2.529 5.894 3.714 8.607.31.709.309 1.515-.003 2.224-.311.708-.905 1.254-1.637 1.504-4.414 1.513-11.093 3.802-14.86 5.093-.498.171-.889.192-1.196.077-.699-.262-.896-1.052-.898-1.058-.157-.411-.148-.868.026-1.274.177-.413.512-.739.93-.905z"/><path d="m19.651 38.404h6.892s-.267 1.013-.267 1.013c-.541 2.048-1.887 4.005-3.718 5.453-1.816 1.436-3.969 2.264-6 2.264h-6.352c-.828 0-1.5.672-1.5 1.5s.672 1.5 1.5 1.5h6.352c2.655 0 5.487-1.034 7.861-2.911 2.357-1.865 4.061-4.403 4.757-7.04.44-1.665.766-2.896.766-2.896.118-.45.022-.929-.262-1.298s-.723-.585-1.189-.585h-8.84c-.828 0-1.5.672-1.5 1.5s.672 1.5 1.5 1.5z"/><path d="m42.364 8c-3.939 0-7.136 3.198-7.136 7.136 0 3.939 3.197 7.136 7.136 7.136 3.938 0 7.136-3.197 7.136-7.136 0-3.938-3.198-7.136-7.136-7.136zm0 3c2.283 0 4.136 1.853 4.136 4.136s-1.853 4.136-4.136 4.136-4.136-1.853-4.136-4.136 1.853-4.136 4.136-4.136z"/><path d="m33.608 50.838h4.971c.828 0 1.5-.672 1.5-1.5s-.672-1.5-1.5-1.5h-4.971c-.828 0-1.5.672-1.5 1.5s.672 1.5 1.5 1.5z"/><path d="m28.636 55.856h4.972c.828 0 1.5-.672 1.5-1.5s-.672-1.5-1.5-1.5h-4.972c-.828 0-1.5.672-1.5 1.5s.672 1.5 1.5 1.5z"/></g></svg>