<?xml version="1.0"?>
<svg xmlns="http://www.w3.org/2000/svg" viewBox="0 0 64 64" width="512" height="512"><g id="_22-rock" data-name="22-rock"><path d="M24.014,20.164l-1-6A1,1,0,0,1,23,14V4a4,4,0,0,1,8,0v9l.423,4.909-1.992.17L29,13.085,29,4a2,2,0,0,0-4,0v9.917l.986,5.919Z"/><path d="M29,51H27V46.5l-3.6-2.7a1,1,0,0,1-.278-.321L17.366,32.926A3.008,3.008,0,0,1,17,31.49V27.828a2.978,2.978,0,0,1,.879-2.121l8.414-8.414A1,1,0,0,1,27,17h7a4,4,0,0,1,0,8H29.566L27,29.277V30a1,1,0,0,0,1,1,8.009,8.009,0,0,1,8,8v6H34V39a6.006,6.006,0,0,0-6-6,3,3,0,0,1-3-3V29a1,1,0,0,1,.143-.515l3-5A1,1,0,0,1,29,23h5a2,2,0,0,0,0-4H27.414l-8.121,8.121a1,1,0,0,0-.293.707V31.49a1,1,0,0,0,.122.478L24.773,42.33,28.6,45.2a1,1,0,0,1,.4.8Z"/><path d="M48,52H28V50H47V45.181a6.033,6.033,0,0,1,.634-2.684l1.971-3.944,1.79.894-1.972,3.945A4.006,4.006,0,0,0,49,45.181V51A1,1,0,0,1,48,52Z"/><path d="M51,56H49V52H27v4H25V51a1,1,0,0,1,1-1H50a1,1,0,0,1,1,1Z"/><path d="M50,64H26a1,1,0,0,1-1-1V58h2v4H49V58h2v5A1,1,0,0,1,50,64Z"/><path d="M25.648,60.937l-8-3a1,1,0,0,1,0-1.874l8-3,.7,1.874L20.848,57l5.5,2.063Z"/><path d="M50.352,60.937l-.7-1.874L55.152,57l-5.5-2.063.7-1.874,8,3a1,1,0,0,1,0,1.874Z"/><path d="M38,61a4,4,0,1,1,4-4A4,4,0,0,1,38,61Zm0-6a2,2,0,1,0,2,2A2,2,0,0,0,38,55Z"/><path d="M29,61a1,1,0,0,1-.515-.143l-5-3a1,1,0,0,1,0-1.714l5-3A1,1,0,0,1,29,53a4,4,0,0,1,0,8Zm-3.057-4,3.308,1.984a2,2,0,0,0,0-3.968Z"/><path d="M47,61a4,4,0,0,1,0-8,1,1,0,0,1,.515.143l5,3a1,1,0,0,1,0,1.714l-5,3A1,1,0,0,1,47,61Zm-.251-5.984a2,2,0,0,0,0,3.968L50.057,57Z"/><path d="M18,53a.992.992,0,0,1-.491-.13L2.175,44.2a1,1,0,0,1,.25-1.84l3.619-.905L1.293,36.707a1,1,0,0,1,1.171-1.593l14,7.333a1,1,0,0,1-.07,1.8L13.085,45.67l5.622,5.623A1,1,0,0,1,18,53ZM5.341,43.7,12.1,47.52l-1.478-1.48a1,1,0,0,1,.313-1.626l2.733-1.172L7.34,39.926l1.367,1.367a1,1,0,0,1-.465,1.677Z"/><path d="M51,14a1,1,0,0,1-.708-1.707l3.955-3.956-2.142-.918a1,1,0,0,1-.07-1.8l10.5-5.5a1,1,0,0,1,1.171,1.593L60.456,4.958l2.286.572a1,1,0,0,1,.25,1.84l-11.5,6.5A.992.992,0,0,1,51,14Zm3.827-7.591,1.566.672a1,1,0,0,1,.438,1.474l2.994-1.693L58.258,6.47a1,1,0,0,1-.565-1.562Z"/><path d="M48,34a4,4,0,0,1-4-4V20a4,4,0,0,1,8,0V30A4,4,0,0,1,48,34Zm0-16a2,2,0,0,0-2,2V30a2,2,0,0,0,4,0V20A2,2,0,0,0,48,18Z"/><path d="M42,35a4,4,0,0,1-4-4V17a4,4,0,0,1,8,0V31A4,4,0,0,1,42,35Zm0-20a2,2,0,0,0-2,2V31a2,2,0,0,0,4,0V17A2,2,0,0,0,42,15Z"/><path d="M36,33a4,4,0,0,1-4-4V24h2v5a2,2,0,0,0,4,0V15a2,2,0,0,0-4,0v3H32V15a4,4,0,0,1,8,0V29A4,4,0,0,1,36,33Z"/><path d="M61,39a.992.992,0,0,1-.143-.01l-28-4,.284-1.98,27.119,3.875,1.52-5.737-11.05-3.127.545-1.924,12,3.395a1,1,0,0,1,.7,1.218l-2,7.546A1,1,0,0,1,61,39Z"/><rect x="21.002" y="15.73" width="2" height="6.239" transform="translate(-2.128 34.885) rotate(-74.195)"/><path d="M11,35A11,11,0,1,1,22,24H20a9,9,0,1,0-9,9,9.037,9.037,0,0,0,6.3-2.714l1.4,1.428A11.019,11.019,0,0,1,11,35Z"/><path d="M10.707,34.707,9.293,33.293c5.6-5.6,4.72-18.091,4.71-18.217L16,14.923C16.039,15.473,16.96,28.454,10.707,34.707Z"/><path d="M43,48H41.811a10.349,10.349,0,0,1-3.863-.744l-3.071-1.229-6.735.963-.284-1.98,7-1a1,1,0,0,1,.513.061L38.69,45.4a8.344,8.344,0,0,0,3.121.6H43c3.355,0,4.326-.739,4.336-.747l1.371,1.454C48.491,46.923,47.2,48,43,48Z"/></g></svg>
