<svg id="Artboard_30" enable-background="new 0 0 64 64" height="512" viewBox="0 0 64 64" width="512" xmlns="http://www.w3.org/2000/svg"><g><path d="m5 62c0 .553.447 1 1 1h6c.553 0 1-.447 1-1v-5.514c5.42 4.211 12.085 6.514 19 6.514s13.579-2.304 19-6.514v5.514c0 .553.447 1 1 1h6c.553 0 1-.447 1-1v-14.774c2.613-4.626 4-9.882 4-15.226 0-3.964-.743-7.81-2.194-11.452.411-.209.795-.473 1.115-.815.753-.805 1.144-1.898 1.07-3l-.993-14.8c-.035-.525-.472-.933-.998-.933h-12c-.526 0-.963.408-.998.933l-.228 3.394c-4.768-2.826-10.183-4.327-15.774-4.327-5.805 0-11.405 1.616-16.299 4.651-1.078-2.732-3.69-4.651-6.701-4.651-3.793 0-6.962 3.04-7.215 6.921l-.367 5.624c-.127 1.953.54 3.814 1.878 5.242.147.157.303.304.461.445-1.822 4.018-2.757 8.307-2.757 12.768 0 5.346 1.387 10.601 4 15.227zm3.403-41h1.193c.136 0 .269-.013.403-.02v7.02h-1.999v-7.02c.134.007.268.02.403.02zm8.18-7.372c4.315-3.624 9.764-5.628 15.417-5.628 5.562 0 10.946 1.948 15.228 5.47l-.219 3.264c-.073 1.101.317 2.194 1.07 2.999.754.805 1.818 1.267 2.921 1.267h1v7h-1c-.553 0-1 .448-1 1v4c0 .553.447 1 1 1v12.654c-4.585 5.94-11.488 9.346-19 9.346-7.513 0-14.416-3.406-19-9.347v-12.653c.553 0 1-.447 1-1v-4c0-.552-.447-1-1-1h-1v-7.429c1.014-.37 1.939-.968 2.704-1.785 1.319-1.406 1.982-3.236 1.879-5.158zm35.417 18.372v-2h6v2zm2-4v-7h2v7zm-42 2v2h-6v-2zm-5 31v-27h4v27zm25 0c-7.001 0-13.727-2.522-19-7.099v-4.156c4.904 5.274 11.686 8.255 19 8.255s14.095-2.98 19-8.254v4.154c-5.273 4.578-11.999 7.1-19 7.1zm21 0v-27h4v27zm6-18.438v-8.562c.553 0 1-.447 1-1v-4c0-.552-.447-1-1-1h-1v-7h.831c1.434 3.491 2.169 7.186 2.169 11 0 3.63-.692 7.213-2 10.562zm-7-39.562v10h2v-10h2v10h2v-10h2.064l.931 13.867c.037.559-.152 1.091-.535 1.5-.382.408-.9.633-1.46.633h-8c-.56 0-1.078-.225-1.46-.633-.383-.409-.572-.941-.535-1.5l.931-13.867zm-20 0c5.573 0 10.958 1.591 15.623 4.581l-.234 3.479c-4.444-3.267-9.834-5.06-15.389-5.06-5.639 0-11.092 1.84-15.571 5.195l-.214-3.274c-.005-.074-.018-.145-.025-.218 4.707-3.069 10.156-4.703 15.81-4.703zm-28.219 5.051c.185-2.832 2.477-5.051 5.219-5.051s5.034 2.219 5.219 5.051l.367 5.624c.091 1.395-.386 2.725-1.342 3.745-.955 1.018-2.251 1.58-3.647 1.58h-1.194c-1.396 0-2.692-.562-3.647-1.581-.956-1.02-1.433-2.35-1.342-3.745zm-.781 23.949c0-4.067.83-7.981 2.448-11.656.18.084.365.159.552.227v7.429h-1c-.553 0-1 .448-1 1v4c0 .553.447 1 1 1v8.562c-1.308-3.348-2-6.931-2-10.562z"/><path d="m17.142 35.226c-.214 1.025-.186 2.065.084 3.042.554 1.996 2.126 3.628 4.153 4.38.466 1.234 1.233 2.449 2.295 3.511 1.469 1.469 3.272 2.442 5.078 2.744.396.065.782.099 1.157.099.56 0 1.082-.095 1.58-.239 1.37.797 2.912 1.237 4.511 1.237 4.963 0 9-4.037 9-9 0-.24-.017-.476-.036-.711 2.121-1.14 3.616-3.046 3.957-5.127.371-2.253-.591-4.732-2.526-6.587.313-2.543-.787-5.065-2.848-6.412-.305-.199-.625-.364-.953-.504.218-.703.342-1.43.381-2.172 1.819-.68 3.025-1.971 3.025-3.487 0-2.243-2.636-4-6-4-.116 0-.229.007-.344.011-1.599-1.295-3.588-2.011-5.656-2.011-2.599 0-5.01 1.105-6.719 3.033-1.876-.174-3.828.56-5.161 2.044-1.6-.055-3.119.603-4.071 1.78-.871 1.079-1.214 2.509-.969 3.938-.414.321-.771.693-1.068 1.112-1.366 1.927-1.332 4.603.009 6.842-.999 2.045-.547 4.644 1.121 6.477zm2.011 2.507c-.222-.8-.203-1.672.054-2.522.111-.369.001-.769-.283-1.028-1.385-1.263-1.836-3.282-1.05-4.697.522-.939 1.581-1.59 2.832-1.738.307-.037.578-.212.738-.477.845-1.401 2.217-2.328 3.539-2.271 1.462.024 2.904 1.11 3.642 2.632-.938.4-1.742.968-2.384 1.716-.333.389-.607.818-.838 1.27-2.42-.827-4.42-.624-4.513-.612l.217 1.988c.021-.002 1.669-.157 3.649.518-.144.792-.149 1.624-.025 2.461-.943.192-1.796.611-2.471 1.287-.996.997-1.448 2.376-1.404 3.871-.826-.604-1.438-1.443-1.703-2.398zm9.928 9.198c-1.398-.233-2.816-1.01-3.993-2.186-2.299-2.3-2.946-5.538-1.414-7.071.564-.563 1.359-.833 2.253-.833 1.536 0 3.365.794 4.818 2.247 1.176 1.177 1.952 2.595 2.186 3.993.212 1.275-.062 2.368-.771 3.078s-1.802.983-3.079.772zm5.849-3.95c.376.031.753.054 1.13.054.338 0 .676-.012 1.013-.037.887-.065 1.761-.226 2.618-.459-.604 1.443-2.03 2.461-3.691 2.461-.369 0-.724-.063-1.071-.16.092-.584.089-1.209.001-1.859zm1.997-1.978c-.861.061-1.725.008-2.579-.117-.354-.836-.847-1.644-1.457-2.392.753-.932 1.89-1.494 3.109-1.494 1.991 0 3.633 1.466 3.937 3.373-.974.338-1.983.554-3.01.63zm-.927 6.997c-.833 0-1.643-.163-2.411-.445.25-.252.462-.531.646-.828.569.175 1.157.273 1.765.273 3.309 0 6-2.691 6-6s-2.691-6-6-6c-1.749 0-3.383.774-4.51 2.063-.262-.221-.531-.421-.805-.61 1.321-1.548 3.242-2.453 5.315-2.453 3.859 0 7 3.141 7 7s-3.141 7-7 7zm8.341-19.253c-.075.358.052.729.331.966 1.688 1.436 2.56 3.399 2.276 5.125-.214 1.301-1.104 2.52-2.396 3.373-.983-3.006-3.505-5.317-6.634-6 .596-1.487 1.492-3.207 2.789-4.504l-1.414-1.414c-1.69 1.689-2.78 3.93-3.443 5.716-2.747.045-5.271 1.321-6.94 3.467-.723-.3-1.455-.49-2.17-.574-.288-1.574.08-3.157 1.019-4.251.602-.701 1.416-1.19 2.42-1.453.458-.12.769-.544.745-1.018-.047-.932.252-1.833.843-2.539.984-1.175 2.621-1.614 4.078-1.088.34.122.72.053.993-.185 1.605-1.387 3.965-1.61 5.615-.532 1.533 1.003 2.292 2.976 1.888 4.911zm-.341-12.747c0 .944-1.711 2-4 2s-4-1.056-4-2 1.711-2 4-2 4 1.056 4 2zm-7.186-3.402c-1.699.698-2.814 1.946-2.814 3.402 0 2.243 2.636 4 6 4 .318 0 .626-.02.929-.051-.056.417-.143.829-.274 1.228-1.219-.107-2.471.13-3.611.69-.087-.284-.189-.563-.322-.829-.649-1.3-1.774-2.271-3.167-2.736-.382-.127-.771-.203-1.161-.245-.273-1.857-1.362-3.49-2.949-4.365 1.257-1.083 2.854-1.692 4.555-1.692.98 0 1.935.211 2.814.598zm-19.171 10.466c.272-.384.634-.708 1.073-.963.406-.235.595-.721.452-1.169-.321-1.007-.153-2.086.437-2.818.628-.775 1.71-1.163 2.817-1.007.357.048.721-.101.939-.394 1.175-1.576 3.379-2.163 5.015-1.335 1.059.535 1.793 1.599 2.014 2.828-.345.094-.683.222-1.01.385l.895 1.789c.823-.412 1.764-.475 2.648-.18s1.599.911 2.011 1.734c.069.138.105.284.154.428-1.82-.159-3.653.561-4.854 1.996-.269.321-.484.675-.673 1.042-1.115-1.388-2.697-2.292-4.365-2.379.16-.359.326-.715.512-1.059.746-1.382 1.696-2.649 2.823-3.764l-1.406-1.422c-1.269 1.254-2.337 2.68-3.177 4.236-.419.777-.768 1.595-1.068 2.429-1.107.468-2.124 1.293-2.888 2.395-.986.193-1.878.614-2.605 1.202-.571-1.385-.505-2.9.256-3.974z"/></g></svg>