<svg id="Layer_5" enable-background="new 0 0 62 62" height="512" viewBox="0 0 62 62" width="512" xmlns="http://www.w3.org/2000/svg"><g><path d="m19 31h2c0-2.206-1.794-4-4-4s-4 1.794-4 4h2c0-1.103.897-2 2-2s2 .897 2 2z"/><path d="m29 29c1.103 0 2 .897 2 2h2c0-2.206-1.794-4-4-4s-4 1.794-4 4h2c0-1.103.897-2 2-2z"/><path d="m29 37v-2h-12v2c0 3.309 2.691 6 6 6s6-2.691 6-6zm-10 0h8c0 2.206-1.794 4-4 4s-4-1.794-4-4z"/><path d="m58 38.101v-4.101h-3v-2h1.501c.699 0 1.357.272 1.852.767l.94.94c.195.195.451.293.707.293s.512-.098.707-.293c.391-.391.391-1.023 0-1.414l-.94-.94c-.872-.873-2.033-1.353-3.266-1.353h-4.265c-.998 0-1.896-.555-2.342-1.447-.247-.494-.848-.692-1.342-.447-.494.247-.694.848-.447 1.342.789 1.573 2.372 2.552 4.131 2.552h.764v2h-3v4.101c-2.279.465-4 2.484-4 4.899v2.272c-1.214.435-2.208 1.373-2.682 2.621l-2.363-.338c-.217-1.442-1.453-2.555-2.955-2.555h-2c-1.097 0-2.048.598-2.572 1.479l-3.414-.488c4.392-1.844 7.554-6.034 7.935-10.992h1.051c2.757 0 5-2.243 5-5 0-.479-.089-.932-.215-1.371l.508-.508c1.085-1.084 1.707-2.586 1.707-4.12 0-.69-.145-1.36-.432-2 .287-.64.432-1.31.432-2 0-1.568-.752-3.04-2-3.979 0-.007 0-.015 0-.021 0-2.757-2.243-5-5-5-.007 0-.015 0-.021 0-.939-1.248-2.411-2-3.979-2-.007 0-.015 0-.021 0-.939-1.248-2.411-2-3.979-2-.886 0-1.737.235-2.5.686-1.698-1.003-3.935-.856-5.5.333-1.564-1.189-3.801-1.336-5.5-.333-.763-.451-1.614-.686-2.5-.686-1.568 0-3.04.752-3.979 2-.006 0-.014 0-.021 0-1.568 0-3.04.752-3.979 2-.006 0-.014 0-.021 0-2.757 0-5 2.243-5 5v.021c-1.248.939-2 2.411-2 3.979 0 .69.145 1.36.432 2-.287.64-.432 1.31-.432 2 0 1.853.791 3.622 2.142 4.864-.086.367-.142.744-.142 1.136 0 2.757 2.243 5 5 5h1.051c.434 5.658 4.499 10.302 9.867 11.615-1.177 1.096-1.918 2.654-1.918 4.385 0 3.309 2.691 6 6 6h7v2c0 1.654 1.346 3 3 3s3-1.346 3-3v-3c0-.552.448-1 1-1s1 .448 1 1v1c0 1.654 1.346 3 3 3s3-1.346 3-3h3c0 2.757 2.243 5 5 5h6c2.757 0 5-2.243 5-5v-14c0-2.414-1.721-4.434-4-4.899zm-10 6.948v-1.049h12v10h-8.273c.166-.468.273-.963.273-1.487v-3.025c0-2.308-1.757-4.192-4-4.439zm8-9.049v2h-4v-2zm-5 4h6c1.302 0 2.402.839 2.816 2h-11.632c.414-1.161 1.514-2 2.816-2zm-16 8c0-.552.448-1 1-1h2c.552 0 1 .448 1 1l.002 1h-4.002zm4-15h-1v-6h1c1.654 0 3 1.346 3 3s-1.346 3-3 3zm-35-3c0-1.654 1.346-3 3-3h1v6h-1c-1.654 0-3-1.346-3-3zm4-5h-1c-1.602 0-3.015.771-3.93 1.947-.682-.82-1.07-1.863-1.07-2.947 0-.516.141-1.02.419-1.497l.293-.503-.293-.503c-.278-.477-.419-.981-.419-1.497 0-1.07.591-2.067 1.542-2.602l.589-.331-.102-.784c-.013-.093-.029-.186-.029-.283 0-1.654 1.346-3 3-3 .097 0 .19.016.283.029l.784.102.331-.589c.583-1.037 1.767-1.676 2.885-1.513l.784.102.331-.589c.535-.951 1.532-1.542 2.602-1.542.675 0 1.322.234 1.871.679l.629.507.629-.507c1.251-1.014 3.076-.832 4.118.359l.753.861.753-.861c1.042-1.191 2.866-1.373 4.118-.359l.629.507.629-.507c.549-.445 1.196-.679 1.871-.679 1.07 0 2.067.591 2.602 1.542l.331.589.784-.102c1.121-.164 2.303.476 2.885 1.513l.331.589.784-.102c.093-.013.186-.029.283-.029 1.654 0 3 1.346 3 3 0 .097-.016.19-.029.283l-.102.784.589.331c.951.535 1.542 1.532 1.542 2.602 0 .516-.141 1.02-.419 1.497l-.293.503.293.503c.278.477.419.981.419 1.497 0 1.008-.408 1.994-1.121 2.707l-.08.08c-.918-1.083-2.271-1.787-3.799-1.787h-1c0-2.418-1.726-4.439-4.01-4.9.001-.034.01-.066.01-.1 0-.881-.231-1.745-.67-2.502l-1.73 1.004c.261.451.4.97.4 1.498 0 1.654-1.346 3-3 3-.864 0-1.662-.369-2.247-1.038l-.753-.861-.753.861c-1.17 1.338-3.324 1.338-4.494 0l-.753-.861-.753.861c-.585.669-1.383 1.038-2.247 1.038-1.654 0-3-1.346-3-3 0-.528.139-1.047.4-1.498l-1.73-1.004c-.439.757-.67 1.621-.67 2.502 0 .034.009.066.01.1-2.284.461-4.01 2.482-4.01 4.9zm13 20c-6.065 0-11-4.935-11-11v-9c0-1.467 1.06-2.687 2.454-2.945.786 1.732 2.523 2.945 4.546 2.945 1.087 0 2.138-.363 3-1.019 1.725 1.311 4.275 1.311 6 0 .862.656 1.913 1.019 3 1.019 2.023 0 3.76-1.213 4.546-2.945 1.394.258 2.454 1.478 2.454 2.945v9c0 6.065-4.935 11-11 11h-2.355-.645zm22 10v-3h-2v5c0 .552-.448 1-1 1s-1-.448-1-1v-1c0-1.654-1.346-3-3-3s-3 1.346-3 3v3c0 .552-.448 1-1 1s-1-.448-1-1v-9h-2v5h-7c-2.206 0-4-1.794-4-4s1.794-4 4-4h.645c.189 0 .379.014.565.04l9.79 1.399v.561c0 1.103.897 2 2 2h4c.904 0 1.661-.607 1.908-1.431l3.778.54.468-1.408c.34-1.017 1.287-1.7 2.359-1.7 1.371-.001 2.487 1.115 2.487 2.486v3.025c0 1.372-1.116 2.488-2.487 2.488zm14 5h-6c-1.654 0-3-1.346-3-3v-.049c.867-.095 1.655-.432 2.302-.951h9.698v1c0 1.654-1.346 3-3 3z"/><path d="m21 20c2.206 0 4-1.794 4-4h-2c0 1.103-.897 2-2 2s-2-.897-2-2 .897-2 2-2v-2c-2.206 0-4 1.794-4 4s1.794 4 4 4z"/><path d="m5 8c2.206 0 4-1.794 4-4s-1.794-4-4-4-4 1.794-4 4 1.794 4 4 4zm0-6c1.103 0 2 .897 2 2s-.897 2-2 2-2-.897-2-2 .897-2 2-2z"/><path d="m23 6c1.654 0 3-1.346 3-3s-1.346-3-3-3-3 1.346-3 3 1.346 3 3 3zm0-4c.552 0 1 .448 1 1s-.448 1-1 1-1-.448-1-1 .448-1 1-1z"/><path d="m36 7c1.654 0 3-1.346 3-3s-1.346-3-3-3-3 1.346-3 3 1.346 3 3 3zm0-4c.552 0 1 .448 1 1s-.448 1-1 1-1-.448-1-1 .448-1 1-1z"/><path d="m41 0h21v2h-21z"/><path d="m40.876 6.904h2v2h-2z" transform="matrix(.624 -.781 .781 .624 9.565 35.691)"/><path d="m43.376 3.78h2v2.001h-2z" transform="matrix(.625 -.781 .781 .625 12.921 36.446)"/><path d="m43 7h10v1.999h-10z" transform="matrix(.6 -.8 .8 .6 12.807 41.607)"/><path d="m51.699 8.035h2v1.999h-2z" transform="matrix(.633 -.774 .774 .633 12.336 44.1)"/><path d="m46.633 14.227h2v1.999h-2z" transform="matrix(.633 -.774 .774 .633 5.686 42.451)"/><path d="m49.166 11.131h2v1.999h-2z" transform="matrix(.633 -.774 .774 .633 9.011 43.276)"/><path d="m54.232 4.94h2v1.999h-2z" transform="matrix(.633 -.774 .774 .633 15.661 44.925)"/><path d="m49.798 13.5h6.403v2.001h-6.403z" transform="matrix(.625 -.781 .781 .625 8.569 46.828)"/><path d="m56 15h1.999v1.999h-1.999z" transform="matrix(.6 -.8 .8 .6 10.007 52.009)"/><path d="m58.4 11.8h2v2h-2z" transform="matrix(.601 -.8 .8 .601 13.497 52.613)"/><path d="m51.199 21.4h2.001v1.999h-2.001z" transform="matrix(.6 -.8 .8 .6 2.966 50.729)"/><path d="m53.6 18.2h2v2h-2z" transform="matrix(.601 -.8 .8 .601 6.461 51.332)"/></g></svg>