<svg id="Capa_1" enable-background="new 0 0 512 512" height="512" viewBox="0 0 512 512" width="512" xmlns="http://www.w3.org/2000/svg"><g><circle cx="443.5" cy="366.5" r="10"/><path d="m463.5 117.397h-30.22c1.11-3.131 1.72-6.496 1.72-10.003v-33.834c0-14.139-8.153-26.401-20-32.352.794-10.941-2.357-22.78-10.591-30.733-12.206-12.904-35.273-14.467-48.405-1.431-9.095 8.859-33.61 35.809-46.145 49.673-2.801-.868-5.776-1.336-8.858-1.336h-90c-3.082 0-6.057.469-8.858 1.336-12.535-13.864-37.051-40.815-46.147-49.675-12.745-12.801-35.816-11.719-48.39 1.418-8.117 7.683-11.368 19.59-10.606 30.748-11.847 5.95-20 18.213-20 32.352v33.834c0 3.507.61 6.872 1.72 10.003h-30.22c-5.523 0-10 4.479-10 10.003v105.028c0 5.524 4.477 10.003 10 10.003h10v239.563c0 8.022 3.12 15.554 8.79 21.216 5.66 5.669 13.2 8.79 21.21 8.79h335c8.02 0 15.55-3.121 21.21-8.792 5.67-5.662 8.79-13.194 8.79-21.216v-70.518c0-5.511-4.49-10.003-10-10.003s-10 4.491-10 10.003v70.518c-.01 5.501-4.5 9.993-10 10.003h-107.5v-39.251c26.893-18.931 44.5-50.212 44.5-85.532s-17.607-66.6-44.5-85.532v-39.251h117.5v79.021c0 5.511 4.49 10.003 10 10.003s10-4.491 10-10.003v-79.021h10c5.523 0 10-4.479 10-10.003v-105.027c0-5.524-4.477-10.002-10-10.002zm-132.5-12.547 58.032-44.167c2.798-2.129 6.277-3.303 9.794-3.303 8.918 0 16.174 7.258 16.174 16.179v33.834c0 5.515-4.486 10.003-10 10.003h-74zm38.955-81.472c5.167-5.11 14.965-4.285 20.312 1.243 3.104 2.977 5.059 8.191 4.734 12.969-6.531.704-12.838 3.185-18.079 7.174l-46.762 35.589c-.838-3.476-2.278-6.718-4.211-9.607 12.709-14.047 35.58-39.161 44.006-47.368zm-68.955 54.008c5.514 0 10 4.488 10 10.003v30.008h-110v-30.008c0-5.515 4.486-10.003 10-10.003zm-179.251-52.78c4.823-5.028 14.455-6.759 20.295-1.23 8.427 8.208 31.298 33.323 44.008 47.37-1.932 2.889-3.372 6.131-4.211 9.607l-46.762-35.589c-5.24-3.989-11.548-6.47-18.079-7.174-.331-4.255 1.301-9.594 4.749-12.984zm-24.749 82.788v-33.834c0-8.921 7.256-16.179 16.174-16.179 3.517 0 6.996 1.173 9.794 3.303l58.032 44.166v12.546h-74c-5.514.001-10-4.487-10-10.002zm-18.5 374.598v-239.563h117.5v39.251c-26.893 18.931-44.5 50.212-44.5 85.532s17.607 66.6 44.5 85.532v39.251h-107.5c-5.5-.01-9.99-4.501-10-10.003zm217.5 10.003h-80v-28.222c23.969 10.411 55.611 10.596 80 0zm44.5-124.783c0 46.606-37.907 84.522-84.5 84.522s-84.5-37.916-84.5-84.522 37.907-84.522 84.5-84.522 84.5 37.916 84.5 84.522zm-44.5-96.561c-23.969-10.411-55.611-10.596-80 0v-28.222h80zm157.5-48.227h-395v-85.022h395z"/><circle cx="256" cy="421.75" r="10"/><path d="m256.72 302.757c-17.753-.348-32.949 12.753-35.385 30.506-.222 1.614-.334 3.265-.334 4.906 0 5.522 4.477 10 10 10s10-4.478 10-10c0-.733.05-1.469.148-2.185 1.057-7.697 7.599-13.379 15.162-13.231 7.816.16 14.259 6.562 14.668 14.574.303 5.939-2.646 11.429-7.699 14.325-10.659 6.112-17.28 17.311-17.28 29.225-.484 5.355 4.141 10.892 10 10.873 5.446.051 10.417-5.001 10-10.873 0-4.84 2.702-9.279 7.228-11.875 11.622-6.663 18.414-19.19 17.724-32.694-.94-18.44-15.977-33.177-34.232-33.551z"/></g></svg>