<?xml version="1.0"?>
<svg xmlns="http://www.w3.org/2000/svg" viewBox="0 0 512 512" width="512" height="512"><title>Bear Doll</title><g id="Bear_Doll" data-name="Bear Doll"><g id="Outline"><path d="M382,404a8,8,0,0,0,0,16,22,22,0,1,1-10.36,41.4,8,8,0,0,0-10.83,3.271,7.98,7.98,0,0,0,3.259,10.83,38.022,38.022,0,0,0,17.91,4.5H382a38,38,0,0,0,0-76Z"/><path d="M352.01,434.39H351.9a8,8,0,0,0,.1,16h.109a8,8,0,0,0-.1-16Z"/><path d="M100,450.39h.11a8,8,0,0,0-.11-16h-.1a8.006,8.006,0,0,0-7.9,8.06v.05A8.034,8.034,0,0,0,100,450.39Z"/><path d="M108.19,470.76a7.991,7.991,0,0,0,3.88,4.74,38.016,38.016,0,0,0,17.91,4.5H130a38,38,0,0,0,0-76,8,8,0,0,0,0,16,22,22,0,1,1-10.36,41.4,8,8,0,0,0-10.83,3.271A7.929,7.929,0,0,0,108.19,470.76Z"/><path d="M294.951,474.67a144.99,144.99,0,0,1-77.9,0,8,8,0,0,0-4.338,15.4,160.97,160.97,0,0,0,86.578,0,8,8,0,1,0-4.338-15.4Z"/><path d="M240,176h32a40,40,0,0,0,7.776-79.235,23.994,23.994,0,0,0-47.552,0A40,40,0,0,0,240,176Zm16-84a8,8,0,1,1-8,8A8.009,8.009,0,0,1,256,92Zm-20.522,20.433a23.988,23.988,0,0,0,41.044,0A24,24,0,0,1,272,160H240a24,24,0,0,1-4.522-47.567Z"/><path d="M209.35,76.439a7.728,7.728,0,0,0,.99,1.221A8,8,0,0,0,224,72a7.452,7.452,0,0,0-.16-1.561,7.893,7.893,0,0,0-.45-1.5,7.986,7.986,0,0,0-.74-1.379,7.589,7.589,0,0,0-2.21-2.21,8.032,8.032,0,0,0-1.38-.741,7.919,7.919,0,0,0-1.5-.449,8.053,8.053,0,0,0-7.22,2.18,7.766,7.766,0,0,0-.99,1.22,7.986,7.986,0,0,0-.74,1.379,7.893,7.893,0,0,0-.45,1.5,7.69,7.69,0,0,0,0,3.121,7.8,7.8,0,0,0,1.19,2.879Z"/><path d="M301.66,77.66A8.056,8.056,0,0,0,304,72a7.452,7.452,0,0,0-.16-1.561,7.893,7.893,0,0,0-.45-1.5,8.06,8.06,0,0,0-.741-1.379,7.557,7.557,0,0,0-2.21-2.21,7.755,7.755,0,0,0-2.879-1.19,7.809,7.809,0,0,0-3.121,0,7.963,7.963,0,0,0-1.5.449,8.06,8.06,0,0,0-1.379.741,7.589,7.589,0,0,0-2.21,2.21,8.06,8.06,0,0,0-.741,1.379,7.963,7.963,0,0,0-.449,1.5A7.452,7.452,0,0,0,288,72a8,8,0,0,0,13.66,5.66Z"/><path d="M55.758,93.812,58.09,93.1C60.292,92.43,112,76.187,112,33.99A34,34,0,0,0,55.759,8.543,34,34,0,0,0-.483,33.99c0,42.2,51.708,58.44,53.909,59.111ZM15.517,33.99a18.005,18.005,0,0,1,32.838-9.926,8.987,8.987,0,0,0,14.806,0A18,18,0,0,1,96,33.99c0,26.156-31.362,39.685-40.253,42.993C46.826,73.69,15.517,60.259,15.517,33.99Z"/><circle cx="56" cy="184" r="8"/><circle cx="56" cy="120" r="8"/><circle cx="56" cy="152" r="8"/><path d="M478.023,128.262a34.035,34.035,0,0,0-22.263,8.281,34,34,0,0,0-56.243,25.447c0,42.2,51.709,58.44,53.91,59.111l2.332.711,2.332-.711c2.2-.671,53.909-16.914,53.909-59.111A33.892,33.892,0,0,0,478.023,128.262Zm-22.275,76.721c-8.922-3.293-40.231-16.724-40.231-42.993a18.005,18.005,0,0,1,32.838-9.926,8.978,8.978,0,0,0,7.4,3.893h0a8.971,8.971,0,0,0,7.4-3.891A18.005,18.005,0,0,1,496,161.99C496,188.146,464.639,201.675,455.748,204.983Z"/><circle cx="456" cy="312" r="8"/><circle cx="456" cy="280" r="8"/><circle cx="456" cy="248" r="8"/><path d="M206.83,235.529a7.99,7.99,0,0,0-10.99-2.67,116.441,116.441,0,0,0-51.89,69.08A24.239,24.239,0,0,1,120.69,320a23.921,23.921,0,0,1-23.22-30.13,162.771,162.771,0,0,1,24.52-52.42,8,8,0,0,0-13.07-9.24A178.742,178.742,0,0,0,82,285.77a39.933,39.933,0,0,0-1.35,10.29,39.478,39.478,0,0,0,3.08,15.3,40.208,40.208,0,0,0,21.13,21.4c.141.061.286.112.428.171A144.171,144.171,0,0,0,104,352a137.749,137.749,0,0,0,2.144,24.191,71.038,71.038,0,1,0,15.6-3.688A121.77,121.77,0,0,1,120,352a127.852,127.852,0,0,1,1.028-16.007,39.71,39.71,0,0,0,24.122-8.384,40.53,40.53,0,0,0,14.26-21.519,99.753,99.753,0,0,1,44.75-59.57A8,8,0,0,0,206.83,235.529ZM130,388a54,54,0,1,1-54,54A54.061,54.061,0,0,1,130,388Z"/><path d="M136.23,216.56a8,8,0,1,0-5.56-13.76l-.01.019a8.005,8.005,0,0,0-.17,11.311A7.924,7.924,0,0,0,136.23,216.56Z"/><path d="M405.856,376.191A137.766,137.766,0,0,0,408,352a144.2,144.2,0,0,0-1.288-19.073c.139-.058.28-.108.418-.167a40.082,40.082,0,0,0,24.22-36.7A40.09,40.09,0,0,0,430,285.77a179.742,179.742,0,0,0-35.84-69.15,180.727,180.727,0,0,0-61.06-47.31.209.209,0,0,1-.06-.04A95.592,95.592,0,0,0,352,112a96.839,96.839,0,0,0-2.34-21.16A48.028,48.028,0,0,0,376,48c0-1.021-.03-2.07-.1-3.13A48.135,48.135,0,0,0,331.02.09C330,.029,328.979,0,328,0a47.925,47.925,0,0,0-40,21.47A95.631,95.631,0,0,0,256.02,16h-.04A95.626,95.626,0,0,0,224,21.47,47.926,47.926,0,0,0,184,0c-1.06,0-2.06.029-3.06.09A48.145,48.145,0,0,0,136.1,44.85c-.07,1.06-.1,2.12-.1,3.15a47.979,47.979,0,0,0,26.34,42.84,96.569,96.569,0,0,0,2.68,51.86,95.736,95.736,0,0,0,13.93,26.57c0,.009-.02.02-.05.04a181.665,181.665,0,0,0-22.2,12.54,8,8,0,0,0,8.84,13.339,164.937,164.937,0,0,1,20.22-11.429,16.149,16.149,0,0,0,9.21-14.52,15.939,15.939,0,0,0-3.16-9.5,80.114,80.114,0,0,1-12.29-71.27l2.32-7.571-7.54-2.4A31.881,31.881,0,0,1,152,48c0-.69.02-1.41.07-2.12a32.249,32.249,0,0,1,29.89-29.82h.03c.62-.04,1.28-.06,2.01-.06h.02a32.1,32.1,0,0,1,29.13,18.8l3.27,7.21,7.25-3.2a80.147,80.147,0,0,1,64.66,0l7.2,3.18.05.02,3.27-7.21A32.1,32.1,0,0,1,327.979,16H328c.66,0,1.35.02,2.04.06a32.249,32.249,0,0,1,29.89,29.82c.049.74.07,1.45.07,2.12a31.881,31.881,0,0,1-22.3,30.5l-7.5,2.39-.04.009,2.319,7.571a80.1,80.1,0,0,1-12.29,71.27,15.878,15.878,0,0,0-3.159,9.5,16.12,16.12,0,0,0,9.2,14.52,163.736,163.736,0,0,1,88.311,106.1,24.768,24.768,0,0,1,.81,6.2,24.175,24.175,0,0,1-6.93,16.78A23.923,23.923,0,0,1,391.31,320a24.258,24.258,0,0,1-23.27-18.061,116.428,116.428,0,0,0-51.88-69.089,8.019,8.019,0,0,0-11,2.679,8.018,8.018,0,0,0,2.529,10.9l.151.09a99.791,99.791,0,0,1,44.75,59.57,40.294,40.294,0,0,0,25.62,27.7,39.871,39.871,0,0,0,12.762,2.2A127.828,127.828,0,0,1,392,352a121.788,121.788,0,0,1-1.743,20.5,69.926,69.926,0,1,0,15.6,3.688ZM382,496a54,54,0,1,1,54-54A54.062,54.062,0,0,1,382,496Z"/><path d="M197.29,291a8.017,8.017,0,0,0-11.28.96A137.2,137.2,0,0,0,167.7,320.2a146.113,146.113,0,0,0-11.39,32.47,8,8,0,0,0,15.62,3.479,127.545,127.545,0,0,1,26.31-53.87A8.005,8.005,0,0,0,197.29,291Z"/><path d="M216.04,268.04a8,8,0,1,0,6.78,3.75A8.021,8.021,0,0,0,216.04,268.04Z"/><path d="M342.91,360.68a8,8,0,0,0,12.779-8.01l-.009-.03c-5.7-25.56-18.3-49.38-35.48-67.071a102.849,102.849,0,0,0-29.3-21.429A80.272,80.272,0,0,0,256,256a78.613,78.613,0,0,0-11.46.85,8,8,0,1,0,2.38,15.83A61.229,61.229,0,0,1,256,272h.02c18.73,0,36.959,8.55,52.7,24.72,14.96,15.36,26.389,37.02,31.349,59.429A8.086,8.086,0,0,0,342.91,360.68Z"/></g></g></svg>
