<svg id="Capa_1" enable-background="new 0 0 512 512" height="512" viewBox="0 0 512 512" width="512" xmlns="http://www.w3.org/2000/svg"><g><g><g><path d="m186.765 221.192c-4.142 0-7.5-3.358-7.5-7.5v-13.691c0-4.142 3.358-7.5 7.5-7.5s7.5 3.358 7.5 7.5v13.691c0 4.142-3.358 7.5-7.5 7.5z"/></g><g><path d="m329.26 221.192c-4.142 0-7.5-3.358-7.5-7.5v-13.691c0-4.142 3.358-7.5 7.5-7.5s7.5 3.358 7.5 7.5v13.691c0 4.142-3.358 7.5-7.5 7.5z"/></g><g><path d="m258.012 229.342c-9.367 0-18.274-4.057-24.438-11.13-2.721-3.123-2.396-7.86.727-10.582 3.123-2.721 7.86-2.396 10.582.727 3.314 3.803 8.1 5.985 13.13 5.985s9.815-2.182 13.13-5.985c2.721-3.124 7.459-3.448 10.582-.727s3.448 7.459.727 10.582c-6.165 7.074-15.072 11.13-24.44 11.13z"/></g></g><g><path d="m85.012 373.903c-.19-.45-.42-.89-.69-1.29-.28-.41-.59-.8-.94-1.14-.34-.35-.73-.66-1.14-.94-.4-.27-.84-.5-1.29-.69-.45-.18-.93-.33-1.41-.42-.96-.2-1.96-.2-2.93 0-.47.09-.95.24-1.4.42-.45.19-.89.42-1.29.69-.41.28-.8.59-1.14.94-.35.34-.66.73-.94 1.14-.27.4-.5.84-.69 1.29-.18.45-.33.93-.42 1.4-.1.49-.15.98-.15 1.47s.05.98.15 1.46c.09.48.24.96.42 1.41.19.45.42.89.69 1.29.28.41.59.8.94 1.14.34.35.73.66 1.14.93.4.27.84.51 1.29.69.45.19.93.33 1.4.43.49.1.98.15 1.47.15s.98-.05 1.46-.15.96-.24 1.41-.43c.45-.18.89-.42 1.29-.69.41-.27.8-.58 1.14-.93.35-.34.66-.73.94-1.14.27-.4.5-.84.69-1.29.18-.46.33-.93.42-1.41.1-.48.15-.97.15-1.46s-.05-.98-.15-1.47c-.09-.47-.24-.95-.42-1.4z"/><path d="m156.632 393.223c-.19-.45-.42-.88-.69-1.29s-.58-.8-.93-1.14c-1.4-1.4-3.33-2.2-5.3-2.2-1.98 0-3.91.8-5.31 2.2-.34.34-.66.73-.93 1.14s-.5.84-.69 1.29c-.19.46-.33.93-.43 1.41-.09.48-.14.97-.14 1.46s.05.98.14 1.47c.1.48.24.95.43 1.4s.42.89.69 1.29c.27.42.59.8.93 1.15 1.4 1.39 3.33 2.19 5.31 2.19 1.97 0 3.9-.8 5.3-2.19.35-.35.66-.73.93-1.15.27-.4.5-.84.69-1.29s.33-.92.43-1.4c.1-.49.15-.98.15-1.47s-.05-.98-.15-1.46-.24-.95-.43-1.41z"/><path d="m457.618 149.394h-27.06v-33.173c0-7.299-3.846-13.702-9.606-17.336 6.793-8.208 10.631-18.596 10.631-29.576 0-8.807-2.484-17.377-7.188-24.806-.07-.121-.145-.239-.223-.357l-.146-.22c-.194-.296-.388-.591-.588-.882l-23.356-35.039c-3.338-5.007-8.923-7.996-14.941-7.996s-11.603 2.99-14.94 7.998l-23.25 34.884c-.305.441-.601.888-.892 1.339-.018.027-.035.055-.052.083-5.25 8.204-7.755 17.702-7.244 27.475.528 10.08 4.323 19.508 10.601 27.077-5.779 3.63-9.641 10.043-9.641 17.357v33.173h-35.321v-33.182c0-7.292-3.838-13.69-9.589-17.326 6.791-8.195 10.615-18.568 10.615-29.586 0-8.807-2.484-17.377-7.187-24.806-.072-.123-.147-.244-.227-.363l-.139-.208c-.195-.298-.391-.595-.592-.888l-23.356-35.04c-3.338-5.007-8.923-7.996-14.941-7.996s-11.603 2.99-14.94 7.998l-23.249 34.883c-.305.441-.601.888-.892 1.34-.018.028-.036.056-.053.083-5.25 8.204-7.755 17.701-7.244 27.473.525 10.029 4.334 19.479 10.618 27.068-5.788 3.628-9.657 10.046-9.657 17.367v33.182h-35.321v-33.182c0-7.292-3.838-13.69-9.589-17.326 6.79-8.189 10.615-18.552 10.615-29.586 0-8.807-2.484-17.377-7.187-24.806-.072-.123-.147-.244-.227-.363l-.139-.208c-.195-.298-.391-.595-.592-.888l-23.357-35.039c-3.338-5.007-8.924-7.996-14.942-7.996s-11.603 2.99-14.94 7.998l-23.249 34.882c-.306.442-.603.891-.895 1.344-.012.019-.024.038-.036.057-5.26 8.209-7.77 17.715-7.258 27.496.529 10.101 4.315 19.524 10.591 27.084-5.773 3.631-9.63 10.041-9.63 17.35v33.182h-33.03c-29.9 0-54.225 24.325-54.225 54.225v31.54c0 14.469 8.934 26.884 21.573 32.038v201.523c-.001 23.865 19.415 43.281 43.281 43.281h351.941c4.142 0 7.5-3.358 7.5-7.5s-3.358-7.5-7.5-7.5h-351.941c-15.595 0-28.282-12.687-28.282-28.282v-28.977h438.504v28.977c0 15.595-12.687 28.282-28.282 28.282-4.142 0-7.5 3.358-7.5 7.5s3.358 7.5 7.5 7.5c23.866 0 43.282-19.416 43.282-43.282v-198.938c.439-.021.88-.034 1.324-.034 11.185 0 20.284-9.1 20.284-20.284v-45.844c.001-29.899-24.325-54.224-54.224-54.224zm-98.944-97.048c.005-.007.009-.014.014-.021.204-.316.411-.629.625-.938.028-.04.056-.081.083-.122l23.287-34.94c.763-1.145 1.869-1.316 2.459-1.316s1.696.171 2.459 1.316l23.386 35.083c.021.032.043.064.065.096.147.213.289.43.454.681l.011.017c.03.049.06.097.091.145 3.255 5.066 4.976 10.932 4.976 16.962 0 10.676-5.349 20.534-14.31 26.371-.019.012-.035.027-.054.039h-34.068c-8.523-5.517-13.882-14.646-14.41-24.716-.347-6.644 1.358-13.095 4.932-18.657zm-3.95 63.875c0-3.034 2.468-5.502 5.502-5.502h49.829c3.034 0 5.502 2.468 5.502 5.502v33.173h-60.834v-33.173zm-122.206-63.884c.004-.007.009-.014.014-.021.204-.316.411-.629.625-.938.028-.04.056-.081.083-.121l23.287-34.94c.764-1.146 1.869-1.317 2.46-1.317s1.696.171 2.459 1.316l23.386 35.083c.021.032.043.064.065.096.146.211.287.427.457.687l.011.016c.029.047.058.093.088.14 3.255 5.066 4.976 10.932 4.976 16.962 0 10.744-5.375 20.578-14.39 26.41h-34.037c-8.511-5.519-13.89-14.701-14.414-24.716-.348-6.644 1.357-13.095 4.93-18.657zm-3.949 63.875c0-3.034 2.468-5.502 5.502-5.502h49.829c3.034 0 5.502 2.468 5.502 5.502v33.182h-60.834v-33.182zm-122.229-63.838c.008-.012.016-.024.023-.036.208-.323.418-.642.636-.956.029-.041.057-.083.085-.125l23.287-34.94c.764-1.146 1.869-1.317 2.46-1.317s1.696.171 2.459 1.316l23.386 35.083c.021.032.043.064.065.096.146.211.287.427.457.687l.011.016c.029.047.058.093.088.14 3.255 5.066 4.976 10.932 4.976 16.963 0 10.761-5.375 20.579-14.395 26.409h-34.044c-8.411-5.471-13.882-14.781-14.402-24.716-.347-6.629 1.35-13.067 4.908-18.62zm-3.927 63.838c0-3.034 2.468-5.502 5.502-5.502h49.829c3.034 0 5.502 2.468 5.502 5.502v33.182h-60.834v-33.182zm-65.683 308.529v-77.375h353.807c7.861 7.048 18.237 11.345 29.601 11.345s21.74-4.297 29.601-11.345h25.495v77.375zm438.505-92.375h-14.554c2.466-5.518 3.849-11.622 3.849-18.046v-17.545c0-8.775 4.206-16.583 10.705-21.524zm21.608-82.904c0 2.914-2.371 5.284-5.284 5.284-23.174 0-42.028 18.854-42.028 42.028v17.545c0 16.207-13.185 29.392-29.392 29.392s-29.392-13.185-29.392-29.392v-39.099c0-11.29-9.185-20.475-20.475-20.475s-20.475 9.185-20.475 20.475v2.831c0 16.207-13.185 29.392-29.392 29.392s-29.392-13.185-29.392-29.392c0-12.851-10.455-23.306-23.306-23.306h-65.943c-4.142 0-7.5 3.358-7.5 7.5s3.358 7.5 7.5 7.5h65.943c4.58 0 8.306 3.726 8.306 8.306 0 24.478 19.914 44.392 44.392 44.392s44.392-19.914 44.392-44.392v-2.831c0-3.019 2.456-5.475 5.475-5.475s5.475 2.456 5.475 5.475v39.099c0 6.424 1.383 12.528 3.849 18.046h-342.866v-62.62h14.488c4.331 0 7.854 3.523 7.854 7.854 0 24.478 19.914 44.392 44.392 44.392s44.392-19.914 44.392-44.392c0-4.331 3.523-7.854 7.854-7.854h16.062c4.142 0 7.5-3.358 7.5-7.5s-3.358-7.5-7.5-7.5h-16.062c-12.602 0-22.854 10.252-22.854 22.854 0 16.207-13.185 29.392-29.392 29.392s-29.392-13.185-29.392-29.392c0-12.602-10.252-22.854-22.854-22.854h-16.472c-10.801 0-19.589-8.787-19.589-19.588v-31.54c0-21.628 17.596-39.225 39.225-39.225h403.235c21.628 0 39.225 17.596 39.225 39.225v45.845z"/><path d="m227.592 373.903c-.19-.45-.42-.89-.69-1.29-.27-.41-.59-.8-.93-1.14-1.74-1.75-4.33-2.55-6.77-2.05-.48.09-.95.24-1.4.42-.46.19-.89.42-1.3.69-.41.28-.79.59-1.14.94-.34.34-.66.73-.93 1.14-.27.4-.5.84-.69 1.29s-.33.93-.43 1.4c-.09.49-.14.98-.14 1.47s.05.98.14 1.46c.1.48.24.95.43 1.41.19.45.42.89.69 1.29.27.41.59.8.93 1.14.35.35.73.66 1.14.93s.84.51 1.3.69c.45.19.92.33 1.4.43.49.1.98.15 1.47.15s.98-.05 1.46-.15.95-.24 1.41-.43c.45-.18.88-.42 1.29-.69s.79-.58 1.14-.93c.34-.34.66-.73.93-1.14.27-.4.5-.84.69-1.29.19-.46.33-.93.43-1.41s.15-.97.15-1.46-.05-.98-.15-1.47c-.1-.47-.24-.95-.43-1.4z"/><path d="m296.792 390.863c-.41-.27-.84-.51-1.3-.69-.45-.19-.92-.34-1.4-.43-.97-.2-1.96-.2-2.93 0-.48.09-.95.24-1.4.43-.46.18-.89.42-1.3.69s-.79.58-1.14.93c-1.39 1.39-2.19 3.33-2.19 5.3 0 .49.04.98.14 1.47.1.47.24.95.43 1.4s.42.89.69 1.29c.27.41.59.8.93 1.14.35.35.73.66 1.14.94.41.27.84.5 1.3.69.45.18.92.33 1.4.42.48.1.98.15 1.47.15s.98-.05 1.46-.15c.48-.09.95-.24 1.4-.42.46-.19.89-.42 1.3-.69.41-.28.79-.59 1.14-.94.34-.34.66-.73.93-1.14.27-.4.5-.84.69-1.29s.33-.93.43-1.4c.1-.49.15-.98.15-1.47 0-1.97-.8-3.91-2.2-5.3-.35-.35-.73-.66-1.14-.93z"/><path d="m440.852 391.792c-.35-.35-.73-.66-1.14-.93s-.84-.51-1.3-.69c-.45-.19-.92-.34-1.4-.43-.97-.2-1.96-.2-2.93 0-.48.09-.95.24-1.4.43-.45.18-.89.42-1.3.69s-.79.58-1.14.93c-1.39 1.39-2.19 3.32-2.19 5.3 0 .49.05.98.14 1.47.1.47.24.95.43 1.4s.42.89.69 1.29c.27.41.59.8.93 1.14.35.35.73.66 1.14.94.41.27.85.5 1.3.69.45.18.92.33 1.4.42.48.1.98.15 1.47.15.48 0 .98-.05 1.46-.15.48-.09.95-.24 1.4-.42.46-.19.89-.42 1.3-.69.41-.28.79-.59 1.14-.94.34-.34.66-.73.93-1.14.27-.4.5-.84.69-1.29s.33-.93.43-1.4c.1-.49.15-.98.15-1.47 0-1.969-.8-3.909-2.2-5.3z"/><path d="m368.512 372.903c-.18-.45-.42-.89-.69-1.29-.27-.41-.58-.8-.93-1.14-.34-.35-.73-.66-1.14-.94-.41-.27-.84-.5-1.29-.69-.46-.18-.93-.33-1.41-.42-.96-.2-1.96-.2-2.93 0-.48.09-.95.24-1.4.42-.45.19-.89.42-1.3.69-.41.28-.79.59-1.14.94-.34.34-.65.73-.93 1.14-.27.4-.5.84-.69 1.29s-.33.93-.43 1.4c-.09.49-.14.98-.14 1.47s.05.98.14 1.46c.1.48.24.95.43 1.41.19.45.42.88.69 1.29.28.41.59.8.93 1.14.35.35.73.66 1.14.93s.85.51 1.3.69c.45.19.92.34 1.4.43.49.1.98.15 1.47.15s.98-.05 1.46-.15c.48-.09.95-.24 1.41-.43.45-.18.88-.42 1.29-.69s.8-.58 1.14-.93c.35-.34.66-.73.93-1.14s.51-.84.69-1.29c.19-.46.34-.93.43-1.41.1-.48.15-.97.15-1.46s-.05-.98-.15-1.47c-.09-.47-.24-.95-.43-1.4z"/></g></g></svg>