<svg id="Layer_1" enable-background="new 0 0 512 512" height="512" viewBox="0 0 512 512" width="512" xmlns="http://www.w3.org/2000/svg"><g><circle cx="227.5" cy="139" r="8"/><circle cx="119.5" cy="139" r="8"/><path d="m120.7285156 198.3320312c-3.6826172 2.4404297-4.6894531 7.4052734-2.2480469 11.0878906 12.2763672 18.522461 32.8447266 29.5800782 55.0195313 29.5800782s42.7431641-11.0576172 55.0195312-29.5800781c2.4414062-3.6826172 1.4345703-8.6474609-2.2480469-11.0878906-3.6845703-2.4414062-8.6484375-1.4335938-11.0878906 2.2480469-7.8056641 11.7763672-20.0334473 19.548584-33.6835938 21.7553711v-30.5356445c1.324707-.5275879 2.6125488-1.1804199 3.8359375-1.9804688l12.3720703-8.0898438c6.1308595-4.0078125 9.7919923-10.7753906 9.7919923-18.1015625 0-11.9257813-9.7021484-21.6279297-21.6279297-21.6279297h-24.7441406c-11.9257813 0-21.6279297 9.7021484-21.6279297 21.6279297 0 7.3261719 3.6611328 14.09375 9.7919922 18.1015625l12.3730469 8.0908203c1.2233887.7995605 2.5107422 1.4521484 3.8349609 1.9794922v30.5356445c-13.6501465-2.2067871-25.8779297-9.9790039-33.6835938-21.7553711-2.4404296-3.6826172-7.4033203-4.6904297-11.0878906-2.2480469zm37.319336-29.9941406c-1.5957032-1.0429687-2.5478516-2.8037109-2.5478516-4.7099609 0-3.1035156 2.5244141-5.6279297 5.6279297-5.6279297h24.7441406c3.1035156 0 5.6279297 2.5244141 5.6279297 5.6279297 0 1.90625-.9521484 3.6669922-2.5478516 4.7099609v.0009766l-12.3710938 8.0888672c-1.8730469 1.2226562-4.2900391 1.2236328-6.1611328.0009766z"/><path d="m386.9628906 398h-26.2900391c-4.4179688 0-8 3.5820312-8 8s3.5820312 8 8 8h26.2900391c4.4179688 0 8-3.5820312 8-8s-3.5820312-8-8-8z"/><path d="m429.5703125 439.7011719c-12.4091797 0-22.5048828 10.0957031-22.5048828 22.5048828 0 12.4082031 10.0957031 22.5039062 22.5048828 22.5039062s22.5048828-10.0957031 22.5048828-22.5039062c0-12.4091797-10.0957031-22.5048828-22.5048828-22.5048828zm0 29.008789c-3.5869141 0-6.5048828-2.9179688-6.5048828-6.5039062 0-3.5869141 2.9179688-6.5048828 6.5048828-6.5048828s6.5048828 2.9179688 6.5048828 6.5048828c0 3.5859375-2.9179687 6.5039062-6.5048828 6.5039062z"/><path d="m279.2060547 439.7011719c-12.4091797 0-22.5048828 10.0957031-22.5048828 22.5048828 0 12.4082031 10.0957031 22.5039062 22.5048828 22.5039062 12.4082031 0 22.5039062-10.0957031 22.5039062-22.5039062 0-12.4091797-10.0957031-22.5048828-22.5039062-22.5048828zm0 29.008789c-3.5869141 0-6.5048828-2.9179688-6.5048828-6.5039062 0-3.5869141 2.9179688-6.5048828 6.5048828-6.5048828 3.5859375 0 6.5039062 2.9179688 6.5039062 6.5048828 0 3.5859375-2.9179687 6.5039062-6.5039062 6.5039062z"/><path d="m343 244.4765625c12.9091797 0 23.4111328-10.5019531 23.4111328-23.4111328s-10.5019531-23.4111328-23.4111328-23.4111328-23.4111328 10.5019531-23.4111328 23.4111328 10.5019531 23.4111328 23.4111328 23.4111328zm0-30.8222656c4.0869141 0 7.4111328 3.3242188 7.4111328 7.4111328s-3.3242187 7.4111328-7.4111328 7.4111328-7.4111328-3.3242188-7.4111328-7.4111328 3.3242187-7.4111328 7.4111328-7.4111328z"/><path d="m286.7939453 244.4765625c12.9091797 0 23.4121094-10.5019531 23.4121094-23.4111328s-10.5029297-23.4111328-23.4121094-23.4111328-23.4111328 10.5019531-23.4111328 23.4111328 10.5019531 23.4111328 23.4111328 23.4111328zm0-30.8222656c4.0869141 0 7.4121094 3.3242188 7.4121094 7.4111328s-3.3251953 7.4111328-7.4121094 7.4111328-7.4111328-3.3242188-7.4111328-7.4111328 3.3242187-7.4111328 7.4111328-7.4111328z"/><path d="m352.9912109 362.6474609h54.9541016c3.8808594 0 7.5449219-1.8847656 9.8017578-5.0410156 2.2578125-3.15625 2.8554688-7.2324219 1.6025391-10.9023438l-10.5488281-30.8935547c-1.6679688-4.8769531-6.25-8.1533203-11.4033203-8.1533203h-44.40625c-6.6445312 0-12.0498047 5.4052734-12.0498047 12.0498047v30.890625c-.0000001 6.6445313 5.4052734 12.0498047 12.0498046 12.0498047zm3.9501953-38.9902343h37.6308594l7.8505859 22.9902344h-45.4814453z"/><path d="m260.4560547 362.6474609h54.0039062c6.6445312 0 12.0498047-5.4052734 12.0498047-12.0498047v-30.890625c0-6.6445312-5.4052734-12.0498047-12.0498047-12.0498047h-43.4560547c-5.1552734 0-9.7382812 3.2783203-11.4033203 8.15625l-10.546875 30.8896484c-1.2548828 3.6708984-.65625 7.7470703 1.6015625 10.9033203 2.256836 3.1562501 5.9208985 5.0410157 9.8007813 5.0410157zm13.3740234-38.9902343h36.6796875v22.9902344h-44.5302734z"/><path d="m495.1142578 385.6005859-32.2839355-11.5983887-20.6953125-51.1711426c5.9919434-4.6308594 11.7590332-9.6872559 17.2526855-15.1806641 70.0380859-70.0390625 70.0380859-183.9990234 0-254.0380859-43.8596191-43.8583984-104.9372558-60.2290038-161.6711426-49.1567382-6.1582031-2.2329102-12.7966308-3.4555664-19.7165527-3.4555664-23.9746094 0-44.5800781 14.630127-53.4020996 35.4248047-15.701416-6.7070313-32.9731445-10.4248047-51.0979004-10.4248047s-35.3964844 3.7177734-51.0979004 10.4248047c-8.8220215-20.7946777-29.4274902-35.4248047-53.4020996-35.4248047-31.9814453 0-58 26.0185547-58 58 0 25.3896484 16.4047852 47.005127 39.1672363 54.842041-4.638916 13.3737793-7.1672363 27.7253418-7.1672363 42.657959 0 30.203125 10.3170166 58.0397949 27.6074219 80.1787109-40.1365967 24.78125-67.2050781 68.2722168-69.7392578 115.1054688-.6123047 11.3085938 2.9082031 22.5439453 9.9130859 31.6347656 5.6894531 7.3842773 13.2038574 12.7871094 21.6223145 15.8330078-5.9647217 11.0598145-9.4035645 23.9663086-9.4035645 37.7480469 0 40.8037109 30.0556641 74 67 74 20.3666992 0 38.626709-10.1015625 50.9248047-25.9919434 10.1940918 4.4733887 21.1577148 6.9147949 32.5751953 6.9147949 11.0830078 0 21.7365723-2.3051758 31.6750488-6.5322266 12.2941895 15.6687013 30.4223633 25.6093751 50.6247559 25.6093751 4.2297363 0 8.3676758-.4389648 12.3818359-1.2714844 3.5454102.8222656 7.2324219 1.2714844 11.0244141 1.2714844 24.4960938 0 44.8266602-18.1462402 48.2724609-41.7011719h53.8183594c3.4460449 23.5549317 23.7773438 41.7011719 48.2734375 41.7011719s44.8266602-18.1462402 48.2724609-41.7011719h9.1572266c13.2333984 0 24-10.7666016 24-24v-37.1113281c0-10.0966797-6.3837891-19.1738281-15.8857422-22.5869141zm-208.3203125-197.3291015c8.4414062 0 16.4638672 3.2089844 22.5898438 9.0361328 3.0898438 2.9375 7.9394531 2.9384766 11.0273438-.0009766 6.125-5.8261719 14.1474609-9.0351562 22.5888672-9.0351562 18.0830078 0 32.7939453 14.7109375 32.7939453 32.7939453s-14.7109376 32.7939453-32.7939454 32.7939453c-3.7539062 0-7.4306641-.6279297-10.9267578-1.8662109-2.4501953-.8671875-5.1669922-.4902344-7.2880859 1.0078125-2.1210938 1.4990234-3.3828125 3.9355469-3.3828125 6.5332031v19.7089844h-13.0097656v-19.7089844c0-2.5976562-1.2617188-5.0341797-3.3828125-6.5332031-2.1201172-1.4980469-4.8398438-1.875-7.2871094-1.0078125-3.4980469 1.2382812-7.1748047 1.8662109-10.9287109 1.8662109-18.0830079 0-32.7939454-14.7109375-32.7939454-32.7939453s14.7109375-32.7939453 32.7939453-32.7939453zm-31.6083984 69.9216308c8.5219727 7.2661133 19.5578613 11.6662598 31.6083984 11.6662598 1.8798828 0 3.7480469-.1064453 5.5986328-.3183594v9.7021484h-43.4755859c-3.5302734 0-6.9667969.6066895-10.2070312 1.7077637-2.3735352-2.6337891-4.8505859-5.125-7.4238281-7.4655762 8.534912-4.2333984 16.5434569-9.3718261 23.899414-15.2922363zm-21.2539063 47.4436036c2.3251953-6.2167969 8.3476562-10.3935547 14.9853516-10.3935547h51.4755859 29.0097656 73.5273438c6.5537109 0 12.3769531 3.9257812 14.8339844 10l27.6142578 68.2802734h-236.84375zm238.0629883-210.3410645c38.4990234 62.9929199 30.5327148 146.5869141-23.9213867 201.0402832-3.9179688 3.9179688-8.0009766 7.5693359-12.203125 11.0043945l-3.2744141-8.0961914c-4.9140625-12.1503906-16.5585938-20.0009766-29.6660156-20.0009766h-12.6745605c8.4907227-6.0788574 16.4863281-12.824707 23.923584-20.2617188 41.4707031-41.4726561 61.9899902-100.2314452 57.8159179-163.6857909zm-17.6337891-15.4040527c8.8562012 65.0981445-9.798584 126.0773926-51.496582 167.7753906-12.7185059 12.7185059-27.1489258 23.2768555-42.9213867 31.5761719h-22.5405273v-9.7021484c1.8505859.2119141 3.7177734.3183594 5.5976562.3183594 26.9052734 0 48.7939453-21.8886719 48.7939453-48.7939453 0-10.3046875-3.2192383-19.8669434-8.6928711-27.7519531 24.7080078-27.887207 45.4396973-59.2363281 61.7602539-93.4873047zm-23.942871 13.0517578c-15.4985352 32.5234375-35.1254883 62.3193359-58.4875488 88.8598633-8.1010742-5.9851074-18.1079102-9.5317383-28.9304199-9.5317383-10.1660156 0-19.921875 3.125-28.1025391 8.9091797-3.7714844-2.6665039-7.8803711-4.7597656-12.2070312-6.2504883.5754395-4.0495605.9680176-8.1569824 1.1611328-12.3161621 2.4138184-2.560791 4.8581543-5.0932617 7.3476562-7.5827637 30.7050781-30.7060547 66.4990234-55.9121094 106.3867188-74.9199219l24.5136719-11.6816406zm-19.7148438-27.2753906c-40.1875 19.1494141-76.380127 44.3701172-107.6694336 74.967041-1.1279297-9.2631836-3.2302246-18.2285156-6.2009277-26.7929688 21.354248-7.3520508 37.1040039-26.8325195 38.9716797-50.1784668 29.1696777-9.3232422 61.4553223-12.0380859 94.8334961-7.4951172zm-78.3349609-48.5917969c27.9816895 0 55.9584961 7.123291 80.9609375 21.3481445-27.4257812-1.592041-53.9350586 1.4624023-78.5314941 8.8061523-2.3688965-11.4472656-8.126709-21.6652832-16.1672363-29.5693359 4.5705565-.3842773 9.1538085-.5849609 13.7377929-.5849609zm-54.3681641-.0761719c23.1591797 0 42 18.8408203 42 42 0 18.7521973-12.3569336 34.6606445-29.3527832 40.0397949-11.407959-23.1638184-29.4833984-42.4750977-51.7106934-55.4111328 6.1469727-15.5744629 21.3303223-26.6286621 39.0634766-26.6286621zm-251 42c0-23.1591797 18.8408203-42 42-42 17.7331543 0 32.9163818 11.0541992 39.0633545 26.6286621-22.2271729 12.9360352-40.3026123 32.2473145-51.7105713 55.4111328-16.9958496-5.3791504-29.3527832-21.2875976-29.3527832-40.0397949zm146.5-17c63.1357422 0 114.5 51.3642578 114.5 114.5 0 5.3518066-.3789062 10.6157227-1.0949707 15.7736816-.0371094-.0002441-.0739746-.0021973-.111084-.0021973-26.9052734.0000001-48.7939453 21.8886719-48.7939453 48.7939454 0 9.0942383 2.5080566 17.6108398 6.8581543 24.9072266-19.5847168 15.6530761-44.3952637 25.0273437-71.3581543 25.0273437-63.1357422 0-114.5-51.3642578-114.5-114.5s51.3642578-114.5 114.5-114.5zm-150.0449219 331.6533203c-4.6679688-6.0585938-7.015625-13.5175781-6.6103516-21.0039062 2.3027344-42.5488281 27.4439697-82.0290527 64.5273438-103.8112793 9.9851074 9.9624023 21.574585 18.3139648 34.3371582 24.6445312-22.9302979 20.8718262-38.2573242 53.8066406-39.8149414 91.1818848-13.1159668 3.1171875-24.8112793 10.486084-33.8522949 20.7333984-7.2902832-1.5517578-13.8758545-5.6301269-18.5869141-11.7446289zm66.5449219 121.3466797c-28.1210938 0-51-26.0185547-51-58s22.8789062-58 51-58 51 26.0185547 51 58-22.8789062 58-51 58zm83.5-19.0771484c-8.3986816 0-16.5036621-1.6401367-24.135498-4.6757812 4.866455-10.2482911 7.635498-21.8942872 7.635498-34.2470704 0-40.0700684-28.9897461-72.7802734-65.019043-73.9443359 2.0562744-35.282959 17.7653809-65.7438965 40.3410645-82.7180176 12.9506836 4.3176269 26.7949219 6.6623535 41.1779785 6.6623535 14.376709 0 28.2143555-2.3447266 41.159668-6.6586914 3.7172852 2.7932129 7.255127 5.9362793 10.5698242 9.4228516-2.6831055 2.9448242-4.8408203 6.4084473-6.2841797 10.2670898l-29.4384766 78.6894531c-.0166016.0439453-.0253906.0895996-.0410156.1337891-.074707.2111816-.1401367.4262695-.1975098.6452637-.0217285.0830078-.0449219.1652832-.0639648.2485352-.0512695.2263184-.0905762.4562988-.1220703.689209-.0095215.0698242-.0241699.138916-.0319824.2089844-.0314942.2880858-.050293.5803221-.050293.876953v.0356445.0039062 49.8054199c-.1274414 1.8598633-.2001953 3.7363281-.2001953 5.6315918 0 1.8303223.0812988 3.638916.2001953 5.4362793v2.8625488c0 2.996582.5568848 5.864502 1.5646973 8.5117188 1.328125 6.2875977 3.3747559 12.2709961 6.0546875 17.8330078-7.3337403 2.7822266-15.0925293 4.279297-23.1193848 4.279297zm39.9851074-6.6240235h17.4475098c1.2687988 8.6730957 4.8312988 16.6062012 10.0449219 23.1762695-11.3381348-3.9262695-21.0102539-12.2297363-27.4924317-23.1762695zm65.7209473 25.7011719c-18.0830078 0-32.7949219-14.7109375-32.7949219-32.7939453s14.7119141-32.7949219 32.7949219-32.7949219 32.7939453 14.7119141 32.7939453 32.7949219-14.7109375 32.7939453-32.7939453 32.7939453zm150.3642578 0c-18.0830078 0-32.7949219-14.7109375-32.7949219-32.7939453s14.7119141-32.7949219 32.7949219-32.7949219 32.7939453 14.7119141 32.7939453 32.7949219-14.7109375 32.7939453-32.7939453 32.7939453zm65.4296875-49.7011719c0 4.4111328-3.5888672 8-8 8h-9.4650879c-4.1999512-22.6645508-24.1022949-39.8876953-47.9645996-39.8876953s-43.765625 17.2231445-47.9655762 39.8876953h-54.434082c-4.1999512-22.6645508-24.1022949-39.8876953-47.9645996-39.8876953s-43.765625 17.2231445-47.9655762 39.8876953h-18.2404785c-4.4111328 0-8-3.5888672-8-8v-55.7753906h252.2431641 1.4658203l30.9960938 11.1357422c3.1669921 1.1376953 5.2949218 4.1630859 5.2949218 7.5283203z"/></g></svg>