<svg id="Layer_1" viewBox="0 0 128 128" xmlns="http://www.w3.org/2000/svg" data-name="Layer 1"><path d="m63 56.17a1 1 0 0 0 1-1c0-.28 0-.57 0-.84a15 15 0 0 1 14.29-14.33 1 1 0 0 0 1-1 1 1 0 0 0 -1-1 17 17 0 0 0 -16.29 16.23v.94a1 1 0 0 0 1 1z"/><path d="m108 68c-.37 0-.75 0-1.13 0l-1.93-8.24c2.28-.19 8.74.06 19.55 6.45a1 1 0 0 0 1.11 0 1.35 1.35 0 0 0 .4-1.46c0-4.1-2.59-7.66-7.57-10.59-3.91-2.29-12.63-4.56-15.54-5.27.11-.57.23-1.22.32-1.79h1.9a6.28 6.28 0 0 0 4 2.55l5.11.89h.34a2 2 0 0 0 1.93-1.54l1.79-10.27a2 2 0 0 0 -1.59-2.26l-5.11-.89a6.29 6.29 0 0 0 -7.09 4.33l-3 .12a10 10 0 0 0 -3-2.82 1 1 0 0 0 0-.2l-3.49-11.01a1 1 0 0 0 -.73-.67l-5.4-1.33a1 1 0 1 0 -.45 2l4.86 1.13 2.86 9a10.39 10.39 0 0 0 -1.14-.35l-.45-.08-2.17-7.07a1 1 0 0 0 -.7-.67l-3.24-.86a1 1 0 1 0 -.54 1.9l2.7.72 1.71 5.58-12.51-2.12a10 10 0 0 0 -2.16-.18 21.74 21.74 0 0 0 -20 16.82c-4.86-1.15-10-2.56-13.3-3.68l-.22-.08a13 13 0 0 1 -3-1.3 4.59 4.59 0 0 0 -3.63-4.2l-1.92-.43c0-3.94-3.13-7.06-7.39-7.41-4.46-.37-17.85-3-18-3h-.19a3.5 3.5 0 0 0 -3.5 3.5v.45l-3.3-.67a1 1 0 0 0 -1.22 1c0 .23-.06 5.63 4.28 7.34l9.38 4.66a1 1 0 0 0 .27.09h.14-3.43a6.14 6.14 0 0 0 -6.14 6.14v4s0 0 0 .06 0 .13 0 .2v4a6.14 6.14 0 0 0 6.14 6.14h18.39a6.14 6.14 0 0 0 6.14-6.14v-1.82l2.26.85a3.78 3.78 0 0 1 2.25 2.31l.35 1.06-2.73 3.23a4.11 4.11 0 0 0 -.75 3.88l2.28 6.9-4.62 1.26a18 18 0 1 0 1.82 7.84c0-.34 0-.68-.05-1l16.69-4.55a1 1 0 0 0 .26-.14 8.2 8.2 0 0 0 3.18.91l5.18 6a4.82 4.82 0 0 0 3.64 1.66h16.1a4.83 4.83 0 0 0 4.81-4.88v-5.6a1 1 0 0 0 -.24-.62v-.08c.15-.37.32-.75.51-1.15h.27a4.14 4.14 0 0 0 3.79-5.84 21.79 21.79 0 0 1 5.63-4.22 1 1 0 0 0 .37-.33l1.86-2.7 1.33 5.81a18 18 0 1 0 6.67-1.27zm14.48 11.26a.53.53 0 0 1 -.29.69 1 1 0 1 0 .76 1.85 2.52 2.52 0 0 0 .42-.22 15.92 15.92 0 0 1 .59 3.65s0 0 0 0a.53.53 0 0 1 -.53.53 1 1 0 0 0 0 2 2.53 2.53 0 0 0 .48 0 15.84 15.84 0 0 1 -.87 3.67.53.53 0 0 1 -.29.29.53.53 0 0 1 -.41 0 1 1 0 1 0 -.77 1.85 2.57 2.57 0 0 0 .45.14 16.06 16.06 0 0 1 -2.18 3 .53.53 0 0 1 -.75 0 1 1 0 0 0 -1.41 1.41 2.53 2.53 0 0 0 .36.3 16 16 0 0 1 -3.2 2 .53.53 0 0 1 -.69-.29 1 1 0 1 0 -1.85.76 2.56 2.56 0 0 0 .22.42 15.92 15.92 0 0 1 -3.65.59.53.53 0 0 1 -.53-.53 1 1 0 0 0 -2 0 2.53 2.53 0 0 0 0 .48 15.84 15.84 0 0 1 -3.67-.87.53.53 0 0 1 -.29-.7 1 1 0 0 0 -1.85-.77 2.56 2.56 0 0 0 -.14.45 16.06 16.06 0 0 1 -3-2.18.53.53 0 0 1 0-.75 1 1 0 0 0 -1.42-1.41 2.53 2.53 0 0 0 -.3.36 16 16 0 0 1 -2-3.2s0 0 0 0a.53.53 0 0 1 .29-.69 1 1 0 1 0 -.96-1.9 2.56 2.56 0 0 0 -.42.22 15.92 15.92 0 0 1 -.58-3.65s0 0 0 0a.53.53 0 0 1 .53-.53 1 1 0 0 0 0-2 2.52 2.52 0 0 0 -.47 0 16 16 0 0 1 .83-3.61 1 1 0 0 0 .06-.1.53.53 0 0 1 .7-.29 1 1 0 1 0 .77-1.85 2.55 2.55 0 0 0 -.46-.14 16 16 0 0 1 2.11-3l.09-.06a.53.53 0 0 1 .75 0 1 1 0 0 0 1.41-1.41 2.53 2.53 0 0 0 -.37-.3 15.92 15.92 0 0 1 3.15-2h.11a.53.53 0 0 1 .69.29l1 4.4a11 11 0 1 0 5.57-1.16l-1.16-5a.53.53 0 0 1 .47.52 1 1 0 0 0 2 0 2.53 2.53 0 0 0 0-.48 15.84 15.84 0 0 1 3.67.87.53.53 0 0 1 .29.7 1 1 0 1 0 1.85.77 2.52 2.52 0 0 0 .14-.45 16.07 16.07 0 0 1 3 2.18.53.53 0 0 1 0 .75 1 1 0 0 0 1.42 1.41 2.53 2.53 0 0 0 .3-.36 16 16 0 0 1 2 3.2s0 .14 0 .15zm-21-18.5-1.23-5a21.77 21.77 0 0 0 1.18-2.23l6.26 26.76 1.28 5.47a.85.85 0 0 1 -.63 1 .84.84 0 0 1 -.65-.1.85.85 0 0 1 -.39-.54zm9.43 24.59-.91-3.91a5 5 0 1 1 -5.58 1.09l.94 4.11a2.85 2.85 0 1 0 5.56-1.28zm-7-5a7 7 0 1 0 5.56-1.17l-.49-2.11a9 9 0 1 1 -5.54 1.2zm20-16.72c-10.67-6-17.06-6-19.42-5.77l-1.64-6.86c3.19.8 11.08 2.91 14.54 4.94 3.88 2.24 6.02 4.77 6.49 7.67zm-15.91-25.4a4.27 4.27 0 0 1 3.21-.72l5.07.83-1.73 10.23-5.11-.89a4.31 4.31 0 0 1 -3.5-5l.3-1.71a4.27 4.27 0 0 1 1.76-2.74zm-3.95 3.66-.08.49a6.25 6.25 0 0 0 .14 2.74h-.86a10.36 10.36 0 0 0 -.72-3.16zm-26.32-6.89h.27a8.55 8.55 0 0 1 1.44.14l15.17 2.6a7.88 7.88 0 0 1 2.52.89 8.23 8.23 0 0 1 4.18 7.21 1 1 0 0 0 0 .22s0 .06 0 .09c-.12 1-.57 3.24-.66 3.57a19.37 19.37 0 0 1 -2.33 5.32 18.77 18.77 0 0 1 -15.95 8.96h-14.57a8.84 8.84 0 0 1 -8.8-8.83c0-.37 0-.75 0-1.11a19.87 19.87 0 0 1 18.73-19.06zm13.21 34.14a4.15 4.15 0 1 0 -4.74 6.79q-.24.52-.44 1a5.58 5.58 0 0 1 -.48.91 7.32 7.32 0 0 0 -4.35-6.16l5.59-5.59 6 1.55q-.81.72-1.58 1.5zm-32.64 10.08a6.19 6.19 0 0 1 -4.74-2.68l-.85-1.24 3.62-2.9 5 7zm9.5-13.22h6l-4.45 5.13-5.08-5.08.34-.27a1 1 0 0 0 .18-.22 10.78 10.78 0 0 0 3.01.44zm4.38 8-1.43-1.43 4.93-5.69 1.82 4.24a7.29 7.29 0 0 0 -5.32 2.88zm5.31-8h4.88c.5 0 1 0 1.48-.06l-4.47 4.47zm-14.8 1.31 5.31 5.34-5 5.74-5.1-7.24zm6.75 6.75 1.73 1.73a7.26 7.26 0 0 0 -.48 2.59 7.38 7.38 0 0 0 .18 1.62l-6.25-.4zm3.78 6.63-.06-.12a5.31 5.31 0 1 1 10.14-2.18 5.16 5.16 0 0 1 -.3 1.81 5.3 5.3 0 0 1 -9.76.49zm16.14-15.91a20.62 20.62 0 0 0 5.3-2.83l-.66 4.05zm-32.36-8.86a14.48 14.48 0 0 1 -4 .57c-5.19 0-9.58-2.71-9.58-5.92a4 4 0 0 1 .8-2.32c2.68.92 6.78 2.09 13 3.55-.1.7-.18 1.42-.22 2.14v1.21zm-48.52-22.67a1.5 1.5 0 0 1 1.41-1.5c1.37.27 13.69 2.63 18.1 3a5.71 5.71 0 0 1 5.5 5l-25-5.56zm4.14 14.84h7.13l2.56 2.28h-9.7a6.1 6.1 0 0 0 -4.11 1.63 4.13 4.13 0 0 1 4.11-3.91zm9.19 6.53a1 1 0 0 0 -1 1v.61h-12.3a4.06 4.06 0 0 1 4.1-3.86h18.39a4.13 4.13 0 0 1 4.11 3.86h-12.3v-.61a1 1 0 0 0 -1-1zm9.19 10.05h-18.39a4.14 4.14 0 0 1 -4.14-4.14v-2.3h12.34v1.15a1 1 0 0 0 2 0v-1.15h12.32v2.31a4.14 4.14 0 0 1 -4.13 4.13zm9.1-7-3-1.11a6.14 6.14 0 0 0 -6.1-6.19h-5.69l-4.65-4.14a9 9 0 0 0 -4.26-2.12l-9.33-4.67a5.29 5.29 0 0 1 -3-4.23l32.93 7.33a2.59 2.59 0 0 1 2.06 2.52c0 .46 0 1.18 3.18 2.48a5.88 5.88 0 0 0 -.89 3c.04 4.46 5.13 7.96 11.65 7.96a16.6 16.6 0 0 0 4.37-.58 10.86 10.86 0 0 0 5.38 6.81l-11.17 8.92-7.58-11-.51-1.47a5.78 5.78 0 0 0 -3.4-3.53zm.33 11.76a2.09 2.09 0 0 1 .39-2l2.25-2.66 6.68 9.76-7 1.91zm-6.19 9.33-5 1.36a11 11 0 1 0 1.7 6.79l4.92-1.34a.53.53 0 0 1 -.45.27 1 1 0 0 0 0 2 2.53 2.53 0 0 0 .48 0 15.84 15.84 0 0 1 -.89 3.59.53.53 0 0 1 -.29.29.53.53 0 0 1 -.41 0 1 1 0 0 0 -.77 1.85 2.57 2.57 0 0 0 .45.14 16.06 16.06 0 0 1 -2.18 3 .53.53 0 0 1 -.75 0 1 1 0 0 0 -1.41 1.41 2.53 2.53 0 0 0 .36.3 16 16 0 0 1 -3.2 2 .53.53 0 0 1 -.69-.29 1 1 0 1 0 -1.85.76 2.56 2.56 0 0 0 .22.42 15.92 15.92 0 0 1 -3.65.59.53.53 0 0 1 -.53-.53 1 1 0 0 0 -2 0 2.53 2.53 0 0 0 0 .48 15.84 15.84 0 0 1 -3.67-.87.53.53 0 0 1 -.29-.7 1 1 0 0 0 -1.85-.77 2.56 2.56 0 0 0 -.14.45 16.06 16.06 0 0 1 -3-2.18.53.53 0 0 1 0-.75 1 1 0 0 0 -1.42-1.41 2.53 2.53 0 0 0 -.3.36 16 16 0 0 1 -2-3.2s0 0 0 0a.53.53 0 0 1 .15-.78 1 1 0 1 0 -.78-1.81 2.56 2.56 0 0 0 -.42.22 15.92 15.92 0 0 1 -.58-3.65s0 0 0 0a.53.53 0 0 1 .53-.53 1 1 0 0 0 0-2 2.53 2.53 0 0 0 -.48 0 15.84 15.84 0 0 1 .86-3.66v-.05a.53.53 0 0 1 .7-.29 1 1 0 1 0 .77-1.85 2.56 2.56 0 0 0 -.38-.13 16.06 16.06 0 0 1 2.18-3 .53.53 0 0 1 .75 0 1 1 0 0 0 1.41-1.41 2.52 2.52 0 0 0 -.36-.3 16 16 0 0 1 3.2-2 .53.53 0 0 1 .69.29 1 1 0 0 0 1.91-.83 2.56 2.56 0 0 0 -.22-.42 15.92 15.92 0 0 1 3.65-.58.53.53 0 0 1 .53.53 1 1 0 0 0 2 0 2.52 2.52 0 0 0 0-.47 16 16 0 0 1 3.62.83l.09.06a.53.53 0 0 1 .29.7 1 1 0 1 0 1.85.77 2.52 2.52 0 0 0 .14-.47 16 16 0 0 1 2.95 2.1.94.94 0 0 0 .08.12.53.53 0 0 1 0 .75 1 1 0 0 0 1.42 1.41 2.53 2.53 0 0 0 .3-.37 16 16 0 0 1 1.75 2.78zm-9.15 2.49a7 7 0 1 0 1.56 6.82l2.21-.6a9 9 0 1 1 -1.64-6.8zm-6.76 5.56a3.47 3.47 0 0 0 3.33 2.5 3.56 3.56 0 0 0 .94-.13l1.56-.43a5 5 0 1 1 -4.16-7.75 4.94 4.94 0 0 1 2.79.86l-2 .55a3.49 3.49 0 0 0 -2.58 3.38 3.6 3.6 0 0 0 .11 1zm7.34-.54-3.58 1a1.48 1.48 0 0 1 -1.82-1 1.54 1.54 0 0 1 -.06-.44 1.49 1.49 0 0 1 1.1-1.44l3.7-1 10.9-3h.13l6.35-1.73 8.54-2.32 1 1.4.83 1.21zm57.33.54h-16.12a2.82 2.82 0 0 1 -2.13-1l-3.88-4.45 10.84.69a7.26 7.26 0 0 0 13-.89 7.94 7.94 0 0 0 1.08-.88v3.72a2.83 2.83 0 0 1 -2.79 2.81zm4.83-12.33a2.16 2.16 0 1 1 2.33-3.34 2.12 2.12 0 0 1 .41 1.26 2.17 2.17 0 0 1 -2.76 2.09zm8.85-9.63c-.18.1-.35.21-.53.32l.85-5.31a21.31 21.31 0 0 0 1.71-1.86l.7 2.83z"/><path d="m86.81 45.33h8.67a1 1 0 0 0 0-2h-8.67a1 1 0 0 0 0 2z"/><path d="m78.81 49.5a1 1 0 0 0 1 1h15.67a1 1 0 0 0 0-2h-15.67a1 1 0 0 0 -1 1z"/><path d="m112.75 46.75h.17a1 1 0 0 0 1-.83l1-5.5a1 1 0 1 0 -2-.34l-1 5.5a1 1 0 0 0 .83 1.17z"/></svg>