<svg id="Layer_5" enable-background="new 0 0 64 64" height="512" viewBox="0 0 64 64" width="512" xmlns="http://www.w3.org/2000/svg"><g><path d="m60 7h-3v-3c0-1.654-1.346-3-3-3h-50c-1.654 0-3 1.346-3 3v46c0 1.654 1.346 3 3 3h34.354c.063.087.112.184.18.269l2.231 2.789c-1.153 1.773-1.765 3.824-1.765 5.942v1h18v-1c0-2.118-.612-4.169-1.765-5.942l2.231-2.789c.989-1.237 1.534-2.79 1.534-4.373v-10.334c0-1.281-.812-2.397-2-2.817v-6.745h3c1.654 0 3-1.346 3-3v-16c0-1.654-1.346-3-3-3zm-56-4h50c.551 0 1 .448 1 1v3h-19c-1.302 0-2.402.839-2.816 2h-6.184v-4h-6v4h-2v-4h-6v4h-2v-4h-6v4h-2v-5c0-.552.449-1 1-1zm39 19.382v-8.764c0-.341.277-.618.618-.618.095 0 .191.022.276.065l8.763 4.382c.212.106.343.318.343.553s-.131.447-.342.553l-8.764 4.382c-.392.196-.894-.117-.894-.553zm-2 14.848c-.927-.757-2.094-1.23-3.382-1.23-1.444 0-2.618 1.175-2.618 2.618 0 .128.026.255.045.382h-1.11c-.42-3.52-3.064-6.454-6.608-7.164l-3.5-.702-.223-.89c1.161-.711 2.02-1.868 2.303-3.244h1.103c1.654 0 3-1.346 3-3 0-.512-.141-.987-.368-1.409l.151-.604c.144-.572.217-1.163.217-1.755 0-3.988-3.245-7.232-7.233-7.232h-5.535c-3.988 0-7.232 3.244-7.232 7.232 0 .591.073 1.182.216 1.754l.151.606c-.226.422-.367.897-.367 1.408 0 1.654 1.346 3 3 3h1.103c.283 1.375 1.142 2.533 2.303 3.243l-.223.89-3.508.701c-3.544.709-6.19 3.644-6.61 7.165h-3.075v-27.999h30v15c0 1.654 1.346 3 3 3h5zm-26.99-12.23h-1c-.551 0-1-.448-1-1s.449-1 1-1h1zm.082-4h-1.082c-.319 0-.62.063-.908.156-.055-.305-.092-.613-.092-.923 0-2.885 2.347-5.232 5.232-5.232h5.535c2.885 0 5.233 2.348 5.233 5.232 0 .31-.037.618-.092.923-.288-.093-.589-.156-.908-.156h-1-1-1.167c-1.699 0-3.4-.401-4.919-1.161l-1.125-.563c-.362-.18-.767-.276-1.171-.276-1.23 0-2.256.855-2.536 2zm11.918 2h1c.551 0 1 .448 1 1s-.449 1-1 1h-1zm-10-1.382c0-.341.277-.618.618-.618.095 0 .191.022.276.065l1.125.563c1.796.897 3.806 1.372 5.814 1.372h.167v2.99c0 1.654-1.346 3-3 3h-2c-1.654 0-3-1.346-3-3zm7.336 11.46 1.069.214-.931 2.327-1.787-.893zm-4.336-2.088h2c.24 0 .47-.038.701-.071l.193.772-1.894 1.894-1.894-1.894.193-.772c.231.033.461.071.701.071zm-2.337 2.087 1.649 1.649-1.787.893-.931-2.328zm-3.064.613 1.876 4.691 4.525-2.263 4.525 2.263 1.875-4.689.524.105c2.611.523 4.575 2.637 4.98 5.203h-23.817c.406-2.567 2.37-4.682 4.981-5.204zm-4.609-24.69h-2v-2h2zm8 0h-2v-2h2zm8 0h-2v-2h2zm-21 42c-.551 0-1-.448-1-1v-9h32.882l.59 1.181c.345.69.528 1.464.528 2.235v4.479c0 .718.126 1.426.341 2.104h-33.341zm37.056 10c.158-1.406.648-2.752 1.44-3.941l.039-.059h10.93l.039.059c.792 1.189 1.282 2.535 1.44 3.941zm15.944-12.104c0 1.131-.389 2.24-1.096 3.123l-2.385 2.981h-11.038l-2.385-2.981c-.707-.883-1.096-1.993-1.096-3.123v-4.479c0-1.081-.255-2.163-.739-3.13l-1.196-2.392c-.043-.085-.065-.181-.065-.277 0-.341.277-.618.618-.618 1.865 0 3.382 1.518 3.382 3.382v1.618 3h2v-3-1.618-15.382c0-.552.449-1 1-1s1 .448 1 1v6.719 13.281h2v-10.719l2 .5v10.219h2v-9.719l2 .5v9.219h2v-8.72l1.242.311c.446.112.758.511.758.971zm-2-13.677-4-1-2-.5-2-.5v-4.219h8zm6-9.219c0 .552-.449 1-1 1h-13v-1c0-.768-.299-1.463-.775-1.994l7.329-3.664c.891-.447 1.446-1.344 1.446-2.342s-.555-1.895-1.447-2.342l-8.764-4.382c-.362-.18-.767-.276-1.171-.276-1.444 0-2.618 1.175-2.618 2.618v8.764c0 .671.261 1.278.678 1.742-.417.515-.678 1.162-.678 1.876v1h-5c-.551 0-1-.448-1-1v-16c0-.552.449-1 1-1h24c.551 0 1 .448 1 1z"/><path d="m12 43c-1.302 0-2.402.839-2.816 2h-4.184v2h4.184c.414 1.161 1.514 2 2.816 2s2.402-.839 2.816-2h20.184v-2h-20.184c-.414-1.161-1.514-2-2.816-2zm0 4c-.551 0-1-.448-1-1s.449-1 1-1 1 .448 1 1-.449 1-1 1z"/></g></svg>