<svg id="Layer_1" enable-background="new 0 0 24 24" viewBox="0 0 24 24" xmlns="http://www.w3.org/2000/svg"><g fill="none" stroke="#000" stroke-linecap="round" stroke-linejoin="round" stroke-miterlimit="10"><g stroke-width=".5"><path d="m9.122 23.736h-5.243v-.689c0-.39.316-.706.706-.706h3.831c.39 0 .706.316.706.706z"/><path d="m3.804 8.36.823 13.93"/><path d="m8.33 5.616c1.683.255 1.919.909 1.98 1.613.031.439.112.867.224 1.275.265.969.714 1.887 1.275 2.713.102.153.204.296.306.439.102.122.194.235.296.357.245.296.52.724.316 1.132 0 .01.01 0 0 .01-.029.029-.058.093-.086.125-.392.436-.991.117-1.324-.227-1.002-1.035-1.582-2.428-2.068-3.764-.122-.306-.224-.612-.326-.928l-.296 5.08-.49 8.849"/><path d="m6.5 15.372v7.476"/><path d="m4.136 13.44h4.493"/><path d="m3.804 8.36s-1.076 5.047-1.12 5.266-.371 1.376-1.09 1.149c-.699-.221-.521-1.037-.409-1.576.113-.54.225-1.081.337-1.622.159-.769.318-1.538.475-2.307.136-.665.272-1.33.402-1.995.002-.013.005-.025.007-.038.336-1.725 2.058-1.541 2.058-1.541"/><path d="m1.134 13.44 1.55.186"/><path d="m4.465 5.696.993.571.511.935h.374"/><path d="m4.465 5.696.558 1.625.699-.57"/><path d="m8.33 5.616-1.02.651-.511.935h-.525"/><path d="m8.33 5.616-.584 1.705-.7-.57"/><path d="m5.969 7.202-.193 4.529.607.796"/><path d="m6.796 7.202.194 4.529-.607.796"/><path d="m5.458 6.267h1.852"/><path d="m12.554 13.359c-.01.01-.01.01-.01.01"/><path d="m12.728 13.145c.081-.082.146-.187.215-.278.089-.117.176-.236.263-.354.216-.296.426-.595.631-.899.232-.345 1.072-1.58 1.243-1.955.149-.326.283-.664.364-1.014.027-.117.047-.235.057-.354"/><path d="m12.116 11.656c1.499-1.55 1.948-3.285 2.03-4.019.061-2.254 1.836-2.275 1.836-2.275h.301"/><path d="m17.545 7.343c-.141-.434-.619-.77-1.1-.77-.526 0-.989.394-1.071.914-.042.264.005.548.124.787"/><path d="m17.545 7.343c.141-.434.619-.736 1.1-.736.526 0 1.008.391 1.09.911.042.264-.025.551-.144.79"/><path d="m20.366 12.399c1.513 2.159 3.605 6.497 1.947 11.337-3.739 0-5.791 0-9.532 0-2.452-7.158 3.263-12.989 3.263-12.989.108-1.194-.544-2.474-.544-2.474"/><path d="m19.587 8.309s-.645 1.275-.545 2.476c0 0 .167.167.445.478"/><path d="m16.044 10.747s1.453.877 2.922 0"/><path d="m19.735 7.518c.152.657.195 1.355.15 2.025-.053.786-.233 1.371-.552 2.092-.283.639-.673 1.112-1.114 1.64-.406.486.046 1.227.592 1.102.301-.069.51-.36.69-.59.245-.314.452-.656.65-1.001.492-.852.859-1.793.962-2.777.102-.971.147-2.014-.185-2.948-.307-.865-1.075-1.561-1.962-1.794"/><path d="m16.346 1.545c-.004-.027-.004-.052-.004-.082 0-.667.533-1.2 1.2-1.2s1.2.533 1.2 1.2c0 .028 0 .064-.007.1"/><path d="m19.336 2.885c0-.968-.785-1.753-1.753-1.753h-.038-.038c-.968 0-1.753.785-1.753 1.753 0 .551-.029 1.162.154 1.696.146.424.421.799.778 1.069.003.002.007.005.01.007.493.369 1.206.369 1.699 0 .003-.002.007-.005.01-.007.357-.27.632-.645.778-1.069.182-.533.153-1.144.153-1.696z"/><path d="m16.92 1.492s.54 1.735 2.161 1.773"/><path d="m16.004 3.345c.944-.062 1.292-.821 1.364-1.005.01 0 0-.01 0-.01"/></g><path d="m15.673 2.879c-.36.159-.68.528-.611.945.008.05.022.098.039.145.068.184.354.497.157.694-.085.085-.26.101-.344.004" stroke-width=".4"/><path d="m19.443 2.879c.36.159.68.528.611.945-.008.05-.022.098-.039.145-.068.184-.354.497-.157.694.085.085.26.101.344.004" stroke-width=".4"/><path d="m12.293 21.692c.09-.03.18-.04.28-.04.42.01.76.23.98.55.23-.32.59-.55 1.02-.55.41.01.76.23.98.55.22-.33.58-.55 1.01-.55.41.01.76.23.98.55.23-.32.59-.55 1.01-.55.42.01.77.23.99.55.22-.33.58-.55 1-.55.42.01.77.23.99.55.22-.32.59-.55 1.01-.55.078 0 .156.007.227.029" stroke-width=".5"/><g stroke-width=".5"><path d="m8.149 1.899v1.882c0 .969-.819 1.742-1.82 1.742s-1.82-.773-1.82-1.742v-.382"/><path d="m4.512 3.397s-.152-.415-.18-.579c-.071-.405-.069-.834.108-1.214.14-.301.391-.55.679-.727.517-.317 1.112-.083 1.681-.105.399-.015.8-.107 1.119-.347 0 0 .632.604.171 1.599-.46.995-1.466.731-1.687.655-.22-.075-.654-.239-1.023-.478-.368-.239-.868 1.195-.868 1.196z"/></g><path d="m13.508 3.175c-.418-.418-1.097-.418-1.515 0-.418-.418-1.097-.418-1.515 0s-.418 1.097 0 1.515l1.515 1.393 1.515-1.393c.419-.418.419-1.096 0-1.515z" stroke-width=".5"/></g></svg>