<?xml version="1.0"?>
<svg xmlns="http://www.w3.org/2000/svg" data-name="Layer 1" id="Layer_1" viewBox="0 0 128 128"><title/><path d="M26.98682,91.77124A1.99976,1.99976,0,0,0,25,89.99982h-.001a1.99991,1.99991,0,0,0-1.98633,1.77338l-3.87988,33.99976a2.00018,2.00018,0,1,0,3.97461.45313l1.90039-16.65417L26.92334,126.228a2.00011,2.00011,0,0,0,1.98438,1.77148,2.05252,2.05252,0,0,0,.231-.0127A2.00049,2.00049,0,0,0,30.897,125.771Z"/><path d="M25,24.00031A11.99991,11.99991,0,1,0,13,12.00037,12.01342,12.01342,0,0,0,25,24.00031ZM25,4.00043a7.99994,7.99994,0,1,1-8,7.99994A8.00915,8.00915,0,0,1,25,4.00043Z"/><path d="M77.80957,89.24982a14.98608,14.98608,0,0,0,3.58105-8.71576A11.47707,11.47707,0,0,0,74.3501,69.5097,10.94017,10.94017,0,0,0,63.36475,70.665a10.86455,10.86455,0,0,0-3.22729-1.61163,11.56693,11.56693,0,0,0-6.51685-7.14221,10.946,10.946,0,0,0-10.98486,1.15527,10.94732,10.94732,0,0,0-10.98535-1.15527,11.4784,11.4784,0,0,0-7.041,11.02435,14.9928,14.9928,0,0,0,3.582,8.71674c2.96191,3.67181,6.81787,6.45795,10.54736,9.15222.90869.65625,1.81152,1.30859,2.69238,1.96875a2.00174,2.00174,0,0,0,1.19873.39844h.01123a2.00174,2.00174,0,0,0,1.19873-.39844c.88086-.66016,1.78369-1.3125,2.69238-1.96875.76349-.55151,1.53149-1.10956,2.29681-1.67566.032.04034.05939.08179.09186.122,2.96338,3.67474,6.82178,6.46088,10.55322,9.15619.90674.65521,1.80811,1.3056,2.687,1.96381a1.99924,1.99924,0,0,0,1.19824.39844h.01123a1.99924,1.99924,0,0,0,1.19824-.39844c.87939-.6582,1.78125-1.30957,2.68848-1.96478C70.98779,95.71069,74.8457,92.92456,77.80957,89.24982Zm-32.4707-8.71576a13.30467,13.30467,0,0,0,1.35394,5.20074c-.83118.61853-1.6701,1.22583-2.50287,1.82751q-.78149.564-1.5542,1.127-.772-.564-1.55469-1.127c-3.51562-2.54-7.15088-5.166-9.77588-8.42084a11.26951,11.26951,0,0,1-2.69873-6.36224,7.69821,7.69821,0,0,1,7.61621-7.83295,6.88777,6.88777,0,0,1,4.97705,2.15619,2.07451,2.07451,0,0,0,2.87158,0A6.94564,6.94564,0,0,1,52.03857,65.585a7.69177,7.69177,0,0,1,3.54333,3.063,11.70262,11.70262,0,0,0-3.20251.86169A11.478,11.478,0,0,0,45.33887,80.53406Zm4.59381,2.64124a8.83007,8.83007,0,0,1-.59674-2.79749,7.50548,7.50548,0,0,1,4.62549-7.19427,7.60643,7.60643,0,0,1,2.69476-.62384c-.00073.07385.01129.14532.00836.21954a11.26342,11.26342,0,0,1-2.69824,6.36127A30.3635,30.3635,0,0,1,49.93268,83.17529ZM63.36475,96.28687q-.76831-.561-1.54834-1.12207c-3.51758-2.541-7.15527-5.16791-9.78223-8.42572-.015-.01855-.03076-.04071-.04578-.05951a35.34875,35.34875,0,0,0,5.09119-5.02734,15.30435,15.30435,0,0,0,3.52228-8.02612,7.48819,7.48819,0,0,1,1.32733,1.075,2.07451,2.07451,0,0,0,2.87158,0,6.94424,6.94424,0,0,1,7.96729-1.51752,7.50457,7.50457,0,0,1,4.62549,7.19427,11.26277,11.26277,0,0,1-2.69775,6.36127c-2.627,3.25684-6.26367,5.88373-9.78076,8.42474Q64.13574,95.72632,63.36475,96.28687Z"/><path d="M83.19092,65.459A7.192,7.192,0,0,0,90,64.73145a6.95584,6.95584,0,0,0,4.05225,1.26563,7.05241,7.05241,0,0,0,2.75684-.53809,2.00006,2.00006,0,0,0-1.61816-3.6582,3.08647,3.08647,0,0,1-3.63281-1.05469,2.0694,2.0694,0,0,0-3.11621,0,3.09665,3.09665,0,0,1-3.65381,1.0459,1.99989,1.99989,0,0,0-1.59717,3.667Z"/><path d="M108.36426,41.51483a5.96709,5.96709,0,0,0-3.10254-2.17187l-6.106-1.79785a1.93091,1.93091,0,0,1-1.29639-1.26074L97.563,35.3645A14.31,14.31,0,0,0,102.98779,24.26a2.89342,2.89342,0,0,0,1.00732-2.14447,49.05923,49.05923,0,0,0-.37451-6.56146C102.94263,12.42053,100.43866,9.83344,97,8.352V6.88129A6.88882,6.88882,0,0,0,90.11914.00049h-.23828A6.88882,6.88882,0,0,0,83,6.88129V8.35291c-3.43774,1.48169-5.94086,4.0686-6.61865,7.20215a49.50844,49.50844,0,0,0-.377,6.55072A2.89345,2.89345,0,0,0,77.012,24.256,14.31066,14.31066,0,0,0,82.437,35.36444l-.29633.91992a1.932,1.932,0,0,1-1.29736,1.25977L74.73145,39.343a5.9666,5.9666,0,0,0-3.10693,2.17188L58.80536,58.89789,49.50391,29.22974c-.00879-.03613-.01855-.07227-.0293-.10742a11.75313,11.75313,0,0,0-9.86206-8.35944l-.89551-.5686a16.09691,16.09691,0,0,1-3.98407,4.476h2.7962a83.20786,83.20786,0,0,1-7.5614,17.44025,55.77253,55.77253,0,0,0,1.7384-15.60327A15.84224,15.84224,0,0,1,27.739,27.74829,58.19777,58.19777,0,0,1,25,44.9762a58.19777,58.19777,0,0,1-2.739-17.22791,15.84224,15.84224,0,0,1-3.96722-1.24109,55.77253,55.77253,0,0,0,1.7384,15.60327,83.20786,83.20786,0,0,1-7.5614-17.44025H15.267a16.09691,16.09691,0,0,1-3.98407-4.476l-.8963.56909A11.93851,11.93851,0,0,0,0,32.67017V74.99988a5.99176,5.99176,0,0,0,8.42072,5.4856l2.5827,45.62732a1.99979,1.99979,0,1,0,3.99316-.22656L12.11621,74.99988h8.70166a15.98167,15.98167,0,0,1-.20557-1.90814,15.69331,15.69331,0,0,1,.07379-2.0918H12V50.00006a2,2,0,0,0-4,0v11.6601L7.91895,72.98529A1.99546,1.99546,0,0,0,8,73.56342v1.43646a2.00264,2.00264,0,0,1-3.40527,1.42676A2.02683,2.02683,0,0,1,4,74.99988V32.67017a8.019,8.019,0,0,1,4.51147-7.24683C9.97839,30.26849,15.01685,45.254,23,51.959v8.624a1.99424,1.99424,0,0,0,1.33282,1.87738c.18463-.21405.35925-.43457.55682-.64008A15.83324,15.83324,0,0,1,27,60.001V51.959c7.98376-6.70563,13.02246-21.69293,14.48889-26.5368a7.84651,7.84651,0,0,1,4.121,4.74109c.01074.04492.02295.08984.03711.13477l8.65411,27.60223a15.97481,15.97481,0,0,1,3.9397,2.07941c.04913.03546.09515.0755.14392.11157.36371.26929.72046.54956,1.06165.85114l-.00018-.00061c.321.28156.63727.56952.93518.87946.23651.24585.45764.50348.67609.76306l13.7868-18.69556a1.94384,1.94384,0,0,1,1.01416-.708L81.97119,41.382a5.92718,5.92718,0,0,0,3.97656-3.87109l.06189-.19208a12.02559,12.02559,0,0,0,7.98065,0l.062.19208A5.93128,5.93128,0,0,0,98.02588,41.383l6.10791,1.79779a1.94059,1.94059,0,0,1,1.01123.708l18.48584,25.05255a1.91545,1.91545,0,0,1-.41992,2.67969,1.94556,1.94556,0,0,1-2.71777-.417L106.07343,51.8587A9.15136,9.15136,0,0,0,89.97949,48.547a9.15509,9.15509,0,0,0-16.12195,3.40356L63.37372,66.01538a14.81983,14.81983,0,0,1,6.06342-1.44128l4.351-5.83728c.01117.17157.02.34961.03119.52a56.33417,56.33417,0,0,1,.17719,5.9057,15.87428,15.87428,0,0,1,3.89319,1.70209,49.27917,49.27917,0,0,0-.07916-7.87048c-.10547-1.60541-.21436-3.26654-.21436-4.92865a5.13871,5.13871,0,0,1,10.27637,0,2.0001,2.0001,0,0,0,2,2h.21436a2.0001,2.0001,0,0,0,2-2,5.13846,5.13846,0,0,1,10.27588,0c0,1.66211-.10889,3.32227-.21436,4.92767a36.614,36.614,0,0,0,.47314,11.31342c2.24854,9.43549,6.40234,28.80737,7.88037,35.76245-.30713-.02148-.61572-.042-.92529-.05762a16.55334,16.55334,0,0,0-3.4209.11133c-.02539.00391-.05029.00879-.07568.0127a14.046,14.046,0,0,0-4.18164,1.60443c-.23492.12195-.46124.23816-.68536.351l-.273-.003-.00977.14014a7.316,7.316,0,0,1-2.0675.72577c-.10742.01563-.21533.02832-.32373.03613l-.01025.001c-.04736.00293-.09473.00488-.1416.00684a10.81262,10.81262,0,0,1-3.207-.74707l-.75-.249a13.65927,13.65927,0,0,0-3.57031-.74414h-.00781c-.09375-.00391-.188-.00684-.28271-.00781h-.09375c-.00684.002-.00732,0-.01074,0h-.00049a13.0274,13.0274,0,0,0-3.78094.68158l-.62115-.00684-.0257.20514-.34418.10742a10.581,10.581,0,0,1-3.52686.7334h-.00781a9.86963,9.86963,0,0,1-3.63086-1.31836,14.63661,14.63661,0,0,0-4.22314-1.61615c-.022-.00293-.04346-.00684-.06543-.01074a22.53022,22.53022,0,0,0-4.7749-.11035c.29132-1.401.64459-3.07678,1.03693-4.92017-.29865.21649-.59778.43378-.89532.64868-.93848.67871-1.79883,1.2998-2.63867,1.92871a5.96632,5.96632,0,0,1-1.2453.6947c-.24683,1.18066-.4599,2.21228-.63019,3.05133-.01123.05469-.02.11035-.02686.166a1.99606,1.99606,0,0,0-.06348.46582L65,107.98792a2.0007,2.0007,0,0,0,1.96143,2c.83252.0127,1.71143-.02734,2.56152-.07129.01318,0,.0249-.00293.0415-.002a.08476.08476,0,0,1,.03613-.002,19.9608,19.9608,0,0,1,3.96045.05469l.02734.00488.03809.00586a4.5813,4.5813,0,0,1,.46.11133c.16913.04926.33752.11023.506.1723l1.10773,15.87738a2,2,0,0,0,3.99023-.2793l-.95416-13.6767a11.30575,11.30575,0,0,0,1.87408.59674,8.31965,8.31965,0,0,0,1.27246.18066l.02539.002a10.72247,10.72247,0,0,0,3.58-.45154l-1.65717,13.24048a1.99982,1.99982,0,1,0,3.96875.49609l1.86792-14.92206c.02338-.00354.04657-.00629.06989-.00952l1.88348,14.93353a2.00006,2.00006,0,1,0,3.96875-.5L93.86322,112.061a13.29983,13.29983,0,0,0,4.39557.93866c.1748-.002.35645-.00586.5376-.01855a8.54837,8.54837,0,0,0,1.82562-.33459l-.92181,13.21338a1.99987,1.99987,0,0,0,1.856,2.13477c.04736.00293.09424.00488.14111.00488a2.00056,2.00056,0,0,0,1.99316-1.86035l1.07031-15.34113a10.271,10.271,0,0,1,1.2998-.54059,4.955,4.955,0,0,1,.67871-.17676l.0332-.00586a9.27231,9.27231,0,0,1,1.24658-.09766c.87939-.00781,1.82275.05371,2.748.12109.34668.02539.69043.0498,1.02881.07129.39746.02441.78711.043,1.165.05078a2.0631,2.0631,0,0,0,1.31934-.46289l.00049-.001h.00049a2.11824,2.11824,0,0,0,.186-.17676,1.99094,1.99094,0,0,0,.52979-1.25391c.00244-.042.00342-.085.00293-.127a2.01049,2.01049,0,0,0-.06689-.49414c-.58105-2.8642-5.9209-27.83569-8.42139-38.32782-.813-3.3974-.59863-6.664-.37207-10.121.01227-.18646.02191-.38147.03412-.5694l11.10651,14.90039A5.94034,5.94034,0,0,0,128,70.07123a5.82777,5.82777,0,0,0-1.15869-3.51562ZM87,6.88129a2.884,2.884,0,0,1,2.88086-2.88086h.23828A2.884,2.884,0,0,1,93,6.88129V7.2196a18.12492,18.12492,0,0,0-2.77441-.21918h-.44873A18.12457,18.12457,0,0,0,87,7.22Zm-6.709,9.51849c.666-3.07812,4.74365-5.39941,9.48584-5.39941h.44873c4.7417,0,8.81934,2.32129,9.48,5.37012.05029.291.15527,1.46771.2251,2.81927-.9917-1.15527-1.93994-2.25385-2.38379-2.75189a2.00191,2.00191,0,0,0-1.47412-.66992h-.01953a2.00076,2.00076,0,0,0-1.4668.64063,7.39289,7.39289,0,0,1-9.17041,0,2.0951,2.0951,0,0,0-1.48682-.64062,2.00191,2.00191,0,0,0-1.47412.66992c-.44336.499-1.3916,1.59564-2.38428,2.749C80.14063,17.8382,80.24414,16.67126,80.291,16.39978ZM90,34.00018c-4.91132,0-8.89667-4.373-8.99115-9.80493a3.03191,3.03191,0,0,0,.24017-.24084c.88672-1.03516,2.04834-2.3877,2.96289-3.44531a11.97129,11.97129,0,0,0,11.57764.001c.91357,1.05762,2.07422,2.41211,2.959,3.44727a2.9744,2.9744,0,0,0,.243.22858C98.90155,29.62213,94.91418,34.00018,90,34.00018Z"/><path d="M48.6333,56.98065,41.85352,40.24921A1.99984,1.99984,0,0,0,38,41.00507l.04083,16.07306a14.79418,14.79418,0,0,1,4.00281,1.09772l-.01727-6.84961,2.56793,6.33765A14.78034,14.78034,0,0,1,48.6333,56.98065Z"/><path d="M36.78937,94.33423l-1.78595,31.552a1.99989,1.99989,0,0,0,1.88379,2.11035c.03809.002.07666.00293.11475.00293a1.99932,1.99932,0,0,0,1.99463-1.88672l1.65875-29.30426a5.68331,5.68331,0,0,1-1.62115-.83514C38.30035,95.4248,37.54559,94.88037,36.78937,94.33423Z"/></svg>
