<svg id="Layer_1" enable-background="new 0 0 300 300" viewBox="0 0 300 300" xmlns="http://www.w3.org/2000/svg"><g><path d="m294.9 97.2c-.4-1.9-1.5-2.8-2.3-3.2 2.2-4.4 3.8-10 .6-14-1.3-1.6-2.6-2.7-4.1-3.1 1.8-3.8 3.2-9.1 1.1-15-.1-.3-.3-.6-.6-.9-.6-.6-1.7-1.3-3-1.5.1-2.2-.4-4.5-2.6-5.4-1.4-.6-2.5-.2-3.8 1.2.2-1.3.2-2.3 0-3.2-.3-1.3-1.4-2.7-3.2-2.9-2-.2-4.6.9-9.1 8-.1-.2-.2-.3-.3-.5-.6-.8-1.6-1.3-2.6-1.2-2.5.2-3.9 2.8-9.9 15.5-4.8 10-11.3 23.8-16.6 28.5-4.5 4-22.6 15.2-41.2 26.5-.4-2.5-1.4-5.6-3.6-7.2.7-2.8.8-6.6-1.8-9.3.8-3.3 2.4-10.9 0-15.6 0-4.6-.6-11.4-3.4-14.4.5-2.8.9-8.4-1.7-12.2-1-1.4-2.4-2.5-4-3-.1-2.8-.6-7.8-3.6-11.4-1.5-1.7-3.3-2.9-5.4-3.5.7-5 1.3-16-6.9-18.6-2.6-.8-5-.7-7.1.3.3-5.5-.8-10.8-5.8-12.2-1.8-.5-3.7-.2-5.2.9-1 .7-1.8 1.6-2.6 2.8-.6-2.6-1.4-5-2.8-6.5-1.2-1.4-2.8-2.1-4.6-2.1-5.5 0-8.5 7.5-10.1 15-2.2-6.2-5.8-12.2-11.6-12-1 0-1.9.5-2.6 1.4-1.5 1.8-5 6 1.5 65.2 2.3 21.2 5.1 41.9 6.5 51.6-3.8-3-7-5.9-8.6-8.6-4-6.4-12-10.3-20.4-9.8-8.7.5-16.2 5.4-20.1 13.2-.3.3-.8.6-1.3 1.1-.6-.8-1.3-1.6-1.9-2.4-1.3-1.6-2.8-3.3-4.6-5.4-.7-.7-1.3-1.5-2-2.2 3.6-1 9.4-3.7 14.8-11.7 10.9-16.2 2.9-24.7 2.5-25.1-.5-.5-1.1-.8-1.8-.7-.4 0-10.4.6-18.6 15.7-3.3 6-4.5 10.5-4.8 13.8-2.5-2.5-5.2-5-7.9-7.6 3.2-1.6 7.7-5.4 11.2-14 5.4-13.5-.9-19.5-1.1-19.8-.6-.6-1.5-.8-2.3-.5-.3.1-7.7 2.4-13.2 13.9-2.5 5.2-3.5 9.1-3.6 12.2-2.4-2.1-4.3-3.6-5.5-4.6 1.3-2.8 2.8-7.4 1.8-12.9-1.6-8.7-8.4-12.6-8.7-12.8-1-.6-2.3-.3-3 .6-.2.3-5.2 6.3-3.6 15 .6 3.1 1.8 5.7 3.2 7.7-2 0-4.2.3-6.5 1.1-8.4 2.9-11.2 10.2-11.4 10.5-.4 1.1 0 2.3 1 2.9.3.2 7 4.2 15.4 1.3 4.8-1.6 7.8-6 9.5-8.9 1.6 1.3 4.1 3.4 6.9 5.9 1 .9 2 1.8 3.1 2.8.2.2.4.3.7.4v.1c-3.2-.6-8.1-.2-15.3 3-11.7 5.2-14.2 12.5-14.3 12.8-.3.8-.1 1.7.5 2.3.2.3 6.1 6.7 19.6 1.8 12.4-4.5 15-11.5 15.6-13.9 0 0 .1-.1.1-.1 3.2 3 6.2 6 8.9 8.9.2.2.4.3.6.5.1.2.3.5.4.7.3.3.5.5.8.8-3.2-.9-8.7-.8-18.1 3.9-15.4 7.7-16.2 17.7-16.2 18.1 0 .7.2 1.3.7 1.8.3.4 8.7 8.6 25.2-1.8 11.1-7 12.6-15 12.7-17.4 1.3 1.5 2.4 2.8 3.4 4 .7.9 1.4 1.7 2.1 2.6.1.1.2.2.3.3-.2.1-.4.3-.6.6-1.9 2.6-2.6 5-1.9 7 .2.7.7 1.2 1.3 1.5s1.3.3 2 0c0 0 1.8-.8 3.7-1.3.3-.1.6-.2.9-.4.4.6.7 1.1 1.1 1.7l.4.6c.3.4.5.9.8 1.3l.9 1.6.9 1.8c.3.6.5 1.1.7 1.5.1.3.2.5.3.6l.4.8c.5 1.2 1.9 1.8 3.2 1.2 1.2-.5 1.8-1.9 1.2-3.2l-.4-.9c-.1-.1-.1-.3-.2-.5-.2-.5-.5-1.2-.9-1.8l-.9-1.7-1-1.8c-.1-.1-.2-.3-.2-.4 2.9.6 6.5 1.4 8.8 4.6.7 1 1.4 1.9 2.2 2.9 3.3 4.3 6.7 8.8 8.1 15.1 2.1 9.2 15.8 38.9 50.9 57.6-.7.1-1.4.3-2.1.7-2.4 1.2-3.9 3.7-4.5 7.5-.6 3.9 0 7.1 1.8 9.4 1.4 1.9 3.3 2.6 4.4 2.9.4.4 1.1 1 1.9 1.7.3 5.7 3.8 8 6.4 8.7 1.4 1.5 4.5 4.1 7.3 4.1 2 0 2.8-1.2 3.1-1.7.5-1.1.4-2.2-.1-3.4.3-.3.6-.7.8-1.2.1-.3.2-.7.3-1.1.8.5 1.6.6 2.6.2 1.4-.6 2.9-2.1 3.1-4.4.1-1.3-.1-3.1-1.7-5.1l2.4-.8c1.2.3 2.4.4 3.4.5.7 0 1.4-.3 1.8-.8.1-.1 1.3-1.3 3.1-.8 2.4.6 5.5 2.2 6.8 2.8 4.2 7.3 16.4 27.9 21.4 30.9l9 7.5c.7.6 1.7.7 2.6.3.4-.2.7-.5.9-.8 2.3 2.3 5.5 4.8 9.3 5.8.2.1.4.1.6.1.7 0 1.3-.3 1.8-.8.6-.7.8-1.6.5-2.4 0 0-.6-1.7-1.2-3.9 2.7.7 5.7 1.1 7.4.1.9-.5 1.4-1.3 1.6-2.3.2-1.3-.3-2.9-1.2-4.6.5 0 1-.1 1.4-.3.8-.3 1.4-1 1.6-1.9.2-.8.5-2.1-3.1-6.7.8-.4 1.4-1 1.6-1.9.8-2.6-2.1-6.2-4.6-8.8.1-.2.1-.4.1-.7.4-3.5-3.2-7.6-11.6-13.4-2.7-1.9-5.1-3.4-7.2-4.8-9.6-6.3-14.1-9.2-19-21.8-3.3-8.2-7.2-14.2-10.4-18.1 1.7.8 3.8 1.3 5.9.6 1.4-.5 2.4-1.1 3.1-2 2 1.1 4.5 2 6.6.9 1.3-.7 2.1-1.7 2.6-2.9 2.5 1.9 6 3.9 9 3.7 2.5-.2 3.5-1.3 4-2.3 1.3.4 2.7.5 3.9-.1 1.4-.7 1.9-2 2-3.5 3.2 1.7 5.6 2 7.2.9 1.5-1.1 1.9-2.8 1.7-4.6 1.5.6 2.8.7 3.8.4.9-.3 1.6-.9 1.9-1.8.3-.7.4-1.6.3-2.6 1.7.5 3.4.5 4.8-.5 1.3-.9 1.9-2.3 2-3.7 1.3.1 2.6-.1 3.6-.9 1.4-1.1 1.7-2.8 1.6-4.4.8-.1 1.7-.4 2.5-1 1.6-1 2-2.8 1.9-4.6 1.1-.2 2.3-.6 3.6-1.5 1.4-.9 2.3-2.2 2.5-3.7.2-1.1 0-2.1-.3-3 1.5-.6 3.2-1.6 4.5-3.4 1.2-1.7 1.5-3.2 1.3-4.5 2-.9 4.4-2.4 5.4-5.3.7-2.2.8-4.1.6-5.5 2.2-1.2 5.7-3.4 7-6.5 1.3-3.2.8-7.1.4-9.3 1.3-1.4 3.1-4.1 4.3-8.8.4-1.8.8-4.3-.1-6 2.1-2.6 5.4-6.9 4.6-10.7zm-274.9 4.3c-3.8 1.3-7.2.7-9.2 0 1.2-1.8 3.5-4.3 7.3-5.6 3.2-1.1 6.2-.9 8.4-.5-1.5 2.4-3.6 5.1-6.5 6.1zm9.1-11.3c-1.7-1.7-3.8-4.6-4.6-8.5-.7-4 .4-7.2 1.3-9.1 1.6 1.5 3.8 4.1 4.5 8.1.8 3.9-.3 7.4-1.2 9.5zm1.6 31.6c-7.1 2.6-11.2 1.5-13.1.5 1.3-2 4.3-5.5 10.9-8.4 8.1-3.6 12.7-3.3 14.5-1.8-.7 1.7-3.2 6.3-12.3 9.7zm16-34.6c3.1-6.5 6.8-9.4 8.8-10.7.9 1.9 2 6.1-.9 13.1-3.6 9-8.3 11.4-10.2 12-1.4-1.8-1.6-6.5 2.3-14.4zm1.1 53.9c-10.2 6.4-16.1 4.4-18.2 3.2.7-2.4 3.5-8 13.3-12.9 10.3-5.2 14.3-3.8 15.3-3.3-.3 2.1-2 7.7-10.4 13zm13.2-24.4c-.5-1-1.7-5 3.7-15.2 5.2-9.7 10.9-12.3 13.3-12.9 1.2 2.2 3 8.1-3.7 18.1-5.5 8.2-11.2 9.7-13.3 10zm57-94.8c4.4.9 8 12.8 9.1 21 .2 1.2 1.2 2.1 2.5 2.1 1.2 0 2.2-1 2.3-2.3.7-11.3 3.8-23.9 7-23.9.3 0 .6.1 1.1.5 2.4 2.6 2.8 11.4 2.1 19-.1 1.3.9 2.5 2.2 2.6s2.5-.8 2.6-2.2c.7-7.4 2.7-13.6 4.8-15 .4-.3.7-.3 1.2-.2 3.1.9 2.6 8.8.8 15.7-.3 1.3.4 2.5 1.7 2.9 1.2.4 2.6-.3 3-1.6 1.5-4.5 3.9-6.3 7.2-5.2 6.2 2 3.3 15.3 3.3 15.4-.2.7 0 1.4.4 2s1 .9 1.7 1c8.1.7 7.3 11.8 7.2 12.3-.1 1.3.8 2.5 2.1 2.6s2.1.6 2.8 1.5c1.9 2.6 1.1 8 .6 9.8-.3 1.2.3 2.4 1.5 2.8 1.1.8 2.1 6.4 2.1 11.8 0 .5.1.9.4 1.3 1.8 2.9.6 10-.6 13.8-.3 1 .1 2.1 1 2.7 2.8 1.9.7 6.7.7 6.7-.3.7-.3 1.5.1 2.1.4.7 1 1.1 1.8 1.2 1.3.2 2.2 3.4 2.4 6.2-18.5 11.1-36.5 21.7-41.1 24.3-3.5-1.8-14.5-7.5-24-14-7.7-52.5-13.4-109.6-10-116.9zm31.2 215.8c-.9-1.2-1.2-3.2-.8-5.7.3-2.1 1-3.5 1.9-3.9.3-.2.7-.2 1.1-.2 1 0 1.9.4 1.9.4.5.3 1.1.3 1.7.2l1.9-.5c1.4 1 3.9 2.6 6.7 4.4l-1.1 1.1c-1.4-2-3.3-3.2-5.8-3.7-1.1-.2-4.5-.9-6 1.4-1.1 1.6-.4 3.7.6 5.1l.6.6s.3.2.8.6c-.3.5-.5 1.1-.6 1.7-.2-.1-.5-.2-.8-.2 0-.1-1.2-.3-2.1-1.3zm18.7.4c-.9.3-1.5 1.1-1.6 2v.5c-.4-.1-.9-.3-1.4-.4-1.1-.2-4.5-.9-6 1.4-1.1 1.6-.4 3.7.6 5.1l.6.6c1.3.9 2.7 1.9 3.6 2.7-.4.3-.7.7-.9 1.2-.1.1-.1.3-.1.5-.6-.5-1.1-1-1.6-1.6-.4-.4-.9-.7-1.5-.8-.1 0-3.1-.4-3-5.2v-.1c0-.1 0-.1 0-.2-.2-1.7.2-4.1.8-4.4 0 0 .1-.1.1-.1.1 0 .1-.1.2-.1l.2-.2s.1-.1.1-.1c.2-.2.8-.9 2.3-.6.1.2.3.5.5.7.5.4 1 .6 1.6.6s1.3-.3 1.8-.8l3.5-3.8c1.1.7 2.2 1.4 3.3 2.1zm115.9-128.1c.4.6 1.1 1 1.8 1.1 0 .4-.1 1-.3 1.9-1.3 5.2-3.6 7.1-3.6 7.1-.8.6-1.2 1.6-.9 2.6.3 1.2 1.1 5.2.1 7.6-.8 2-4.3 4-6.3 4.8-.6.2-1.1.7-1.3 1.4-.2.6-.2 1.3 0 1.9 0 .1.7 1.7-.1 4.3-.6 1.8-3.6 2.8-4.5 3-1 .2-1.7.9-1.9 1.8s.2 1.9.9 2.5c0 0-.1.5-.6 1.2-1.4 1.9-4.1 2-4.1 2-.9 0-1.8.5-2.2 1.4-.4.8-.3 1.8.3 2.5.4.5 1.1 1.8 1 2.5 0 .1 0 .2-.4.4-1.2.8-2.1.9-2.6.9-.3 0-.5-.1-.4 0-.9-.5-2-.4-2.8.3s-1 1.8-.6 2.8c.3.8.6 1.8.6 2.3-.6.2-1.5.1-1.8-.1-.9-.3-1.9-.1-2.5.6-.7.7-.9 1.7-.5 2.6.3.8.5 1.7.5 2.3-.7-.1-1.8-.4-2.7-.8-1-.4-2.1-.2-2.8.6s-.8 1.9-.3 2.8c.3.6.7 1.6.7 1.9-.8 0-2.9-.9-4.5-2.1-.9-.6-2.1-.6-2.9.1s-1.1 1.9-.7 2.8.8 1.9 1 2.7c-1.1-.6-2.5-1.4-3.8-2.3-.9-.7-2.1-.6-3 .1-.8.7-1.1 1.9-.6 2.9.8 1.5 1.4 3.3 1.6 4.4-1.5-.6-4.2-2.3-6.5-4.1-.9-.7-2.1-.7-3 0s-1.2 1.9-.7 2.9c.5 1.1 1 2.5 1.2 3.5-.8-.3-1.9-.9-2.8-1.6-1-.7-2.3-.6-3.2.3-.8.9-.9 2.2-.1 3.2.1.1.1.2.2.3-2.3-.3-6.1-3.3-8.2-5.4-.7-.7-1.8-.9-2.8-.4-.9.5-1.4 1.5-1.3 2.5.2 1.1-.1 2.8-.5 3-.7.1-2.9-1-4.4-2.4-.9-.7-2.2-.9-3.1-.2s-1.2 1.8-.7 2.9c0 0-.2.3-1 .5-1.7.6-3.8-1.3-4.4-2s-1.4-.9-2.3-.7c-.8.1-1.5.7-1.8 1.5-.4-.1-1.3-.4-1.8-.8-1.1-.8-2.5-.5-3.3.5s-.6 2.5.5 3.3c.1.1 8.7 6.9 14.7 22.1 5.5 14 11 17.5 20.9 24 2.1 1.4 4.5 2.9 7.1 4.7 7.6 5.3 9.2 7.9 9.5 8.7-.4.4-.6.8-.7 1.3-.1.8.1 1.6.7 2.2 1.8 1.7 3 3.1 3.8 4.1-.3 0-.5-.1-.5-.1-1-.2-2 .3-2.5 1.2s-.4 2 .3 2.8c1.1 1.3 2.3 2.7 3.2 3.9-.4-.1-.7-.3-1.1-.4-1-.4-2.2-.1-2.8.8s-.6 2.1.1 2.9c1.4 1.6 2.7 3.5 3.3 4.8-1.5-.2-4-.8-6.1-1.6-.8-.3-1.7-.2-2.4.4-.7.5-1 1.4-.9 2.2.2 1.1.4 2.2.7 3.3-3.6-2.6-5.9-6.4-6-6.4-.4-.7-1.2-1.1-2-1.1-.2 0-.4 0-.7.1-1 .3-1.6 1.1-1.7 2.1l-5.2-4.3c-.1-.1-.4-.2-.5-.3-2.5-1.3-12.3-16.5-19.9-29.8-.2-.4-.6-.7-1-.9-.2-.1-4.8-2.6-8.4-3.5-2.9-.8-5.4.2-6.9 1.3-10.6-6.4-18.2-11.3-19.6-12.4-1.4-1.4-2.2-2.4-2.2-2.4-.2-.3-.5-.5-.8-.6-36.1-17.6-50-47.2-52-56.2-1.6-7.3-5.5-12.4-8.9-16.9-.7-.9-1.4-1.9-2.1-2.8-3.4-4.7-8.4-5.8-11.6-6.5-.9-.2-1.9-.4-2.3-.6-1-.5-2.4-.7-4.1-.4-.6.1-1.1.4-1.5.8-.4-.2-.8-.2-1.2-.2.1-.2.2-.5.2-.8.4-.1.7-.3 1-.6 1.6-1.6 3.2-2.9 3.2-2.9.3-.2.5-.5.7-.9 3.1-6.6 9-10.5 16.3-10.9 6.7-.4 13 2.6 16 7.5 7.6 12.3 39.8 28.2 41.1 28.9.7.4 1.6.3 2.3-.1 3.2-1.9 78.2-45.6 88.6-54.7 5.9-5.2 12.1-18.2 17.3-29-.1 1 .4 2 1.4 2.4 1.2.6 2.6.1 3.2-1.1 6.5-13.4 10.1-18.4 11.9-20.3-.9 4.9-6.6 16.6-12.2 26.2-.6 1-.4 2.2.4 2.9.8.8 2 .9 2.9.3 3.2-2 6.9-8.3 11.7-17 .9-1.6 1.9-3.5 2.9-5.1-.1.9.3 1.8 1 2.3.8.6 2 .6 2.8-.1.3-.2.6-.4.8-.3 1.9 6.6-1.9 12.3-3.7 14.5-.8 1-.7 2.4.2 3.3s2.3.9 3.3 0c.4-.3.9-.7 1.4-.7.6 0 1.4.6 2.2 1.7 2.5 3.2-2.2 11.3-4.9 14.7-.8 1-.7 2.5.3 3.3s2.5.7 3.3-.2c.6-.6 1.3-1.3 1.9-1.7-.5 2-3.2 5.4-5.9 7.7-.5.4-.7 1.8-.1 2.8z"/><ellipse cx="90.7" cy="131" rx="3.4" ry="2.9"/></g></svg>