<svg id="&#x5716;&#x5C64;_1" enable-background="new 0 0 512 512" viewBox="0 0 512 512" xmlns="http://www.w3.org/2000/svg"><path d="m225.288 204.691c-.614-4.891 1.585-12.544 4.363-22.259 5.096-17.793 12.084-42.165 11.862-79.081-.205-35.229-17.947-66.878-35.433-82.609-18.356-16.55-63.01-30.031-99.176-12.442-56.897 27.713-70.121 112.746-72.775 176.54-.718 4.291-2.056 9.826-3.664 16.391-7.652 31.292-21.901 89.546-5.999 177.422 10.959 60.402 33.797 100.999 67.867 120.667 13.584 7.857 32.791 12.663 51.556 12.663 15.407 0 30.508-3.238 41.91-10.72 27.798-18.236 38.109-41.467 47.023-65.668 22.514-61.02 20.62-136.134-5.087-206.242-.728-8.194-1.397-16.371-2.447-24.662zm-173.574-19.319c.226-1.67.294-5.377.268-5.705 3.153-58.284 15.846-132.917 62.558-155.687 31.326-15.288 68.003-.937 79.865 9.732 14.163 12.731 29.485 40.001 29.656 69.742.205 34.411-6.374 57.385-11.18 74.173-3.341 11.624-5.965 20.81-4.909 29.246 9.425 74.407 5.26 144.673-10.554 196.962-6.268-4.414-13.302-7.985-20.891-10.771 1.378-8.748 2.305-18.807 2.893-29.638l11.474-1.321c4.789-.562 8.215-4.891 7.67-9.681-.562-4.789-5.062-8.283-9.681-7.67l-8.828 1.018c.271-12.322.217-25.186-.06-38.054l15.791-11.624c3.068-2.25 4.329-6.238 3.102-9.834-1.227-3.613-4.176-5.283-8.454-5.914l-11.3.247c-.528-12.77-1.185-24.994-1.845-36.055l19.519-12.459c3.204-2.045 4.721-5.931 3.75-9.595s-4.21-6.289-7.993-6.477c-5.658-.29-11.411-.588-17.154-.895-.439-6.532-.78-11.632-.912-14.598.648-.494 1.415-1.057 2.25-1.687 10.925-8.198 33.661-25.258 37.887-65.668 2.931-27.849-1.176-49.818-14.18-75.826-7.175-14.351-25.224-26.042-44.926-29.11-20.742-3.17-40.239 3.17-54.726 18.049-23.827 24.423-34.172 59.243-27.678 93.159 5.778 30.252 23.077 53.806 38.416 62.242-.147 2.914-.294 6.302-.439 9.536-12.397-.882-21.151-1.653-23.575-2.173-4.261-1.398-9.067.767-10.788 5.062-1.79 4.465.375 9.544 4.857 11.334 2.173.869 11.982 1.943 28.765 3.204-.477 12.024-.963 25.13-1.453 38.846l-25.795 16.46c-3.306 2.113-4.806 6.153-3.664 9.902 1.159 3.75 4.499 6.085 8.539 6.187l19.762-.43c-.511 14.065-1.035 27.879-1.581 40.793l-24.266 17.857c-3.187 2.335-4.397 6.528-2.966 10.209 1.329 3.375 4.568 5.539 8.13 5.539.324 0 17.589-1.96 17.589-1.96-.347 6.344-.703 12.327-1.074 17.469-10.362 2.493-20.299 6.374-29.494 11.398-13.413-38.684-22.152-96.346-22.71-152.602-.002.001-.667-40.46.335-62.932zm130.343-15.164c-5.569 6.851-11.483 11.44-15.774 14.662-4.244 3.187-7.295 5.488-8.675 9.22-.805 2.216-.852 3.196.249 20.052-10.341-.588-20.288-1.185-29.357-1.764.26-5.803.52-11.172.782-15.901.239-4.193-2.557-7.959-6.63-8.948-3.963-.971-12.301-7.623-19.766-19.302 1.85.021 59.1.604 79.171 1.981zm-87.701-19.554c-1.619-4.487-3.078-9.22-4.086-14.495-2.028-10.618-6.391-47.568 23.026-77.701 14.095-14.487 30.831-14.351 39.558-12.987 15.765 2.454 28.036 11.743 31.99 19.668 11.385 22.77 14.981 41.944 12.442 66.214-.912 8.692-2.876 15.953-5.394 22.173-19.03-2.032-94.016-2.803-97.536-2.872zm28.748 201.683c.045-.95.087-1.875.13-2.838l39.466-29.05c.092 9.301.068 18.513-.153 27.342zm38.678 13.12c-.501 8.275-1.195 16.038-2.188 22.864-12.322-2.412-25.329-3.166-38.314-1.845.328-4.968.643-10.584.954-16.464zm-1.366-110.152c.443 8.087.865 16.749 1.231 25.663l-35.795.775c.051-1.491.107-2.991.158-4.482zm-33.635.771c.334-9.178.665-17.955.993-26.234 9.076.584 19.523 1.206 31.23 1.858.079 1.231.153 2.382.234 3.664zm35.485 42.34c.009.226.015.447.021.677l-38.122 28.053c.358-9.084.712-18.432 1.057-27.926zm27.435 121.107c.695.533 1.542.494 2.318.788-2.603 6.83-5.369 13.383-8.436 19.374-10.857 21.287-27.781 31.564-48.846 29.809-21.381-1.832-39.445-19.14-54.232-52.362 33.553-19.395 82.511-18.321 109.196 2.391zm26.758 10.038c-8.181 22.156-16.856 41.756-40.239 57.112-17.708 11.624-52.817 10.465-75.161-2.454-29.434-16.992-49.426-53.567-59.413-108.669-6.69-36.937-7.755-67.713-6.357-93.688 3.515 54.573 13.924 107.365 28.735 141.307 17.18 39.796 40.478 61.237 69.213 63.708 2.113.188 4.21.273 6.255.273 25.514 0 46.528-13.856 59.635-39.524 17.242-33.661 27.504-80.189 30.363-132.862 3.94 40.556-.265 80.169-13.031 114.797zm265.076-228.33c-1.611-6.57-2.946-12.105-3.664-16.4-2.655-63.789-15.88-148.819-72.775-176.531-36.132-17.657-80.803-4.107-99.176 12.442-17.487 15.748-35.229 47.398-35.433 82.609-.222 36.916 6.766 61.288 11.862 79.081 2.778 9.715 4.977 17.367 4.363 22.259-1.05 8.292-1.719 16.468-2.446 24.662-25.708 70.108-27.602 145.223-5.087 206.242 8.948 24.219 19.276 47.449 47.04 65.668 11.385 7.482 26.485 10.737 41.91 10.737 18.748-.017 37.956-4.823 51.539-12.68 34.07-19.668 56.908-60.265 67.867-120.667 15.901-87.876 1.653-146.131-6-177.422zm-163.923-167.537c8.13-7.312 28.002-16.362 49.801-16.362 9.919 0 20.248 1.875 30.048 6.647 46.714 22.77 59.405 97.403 62.558 155.687-.026.328.045 4.044.271 5.718.999 22.467.334 62.92.334 62.92-.554 55.826-9.15 113.091-22.747 152.585-9.189-5.015-19.108-8.892-29.457-11.385-.371-5.143-.726-11.121-1.074-17.465l16.583 1.909c.341.034.682.051 1.006.051 3.562 0 6.8-2.165 8.13-5.539 1.432-3.681.222-7.874-2.966-10.209l-24.266-17.857c-.545-12.915-1.069-26.728-1.581-40.793l19.762.43c4.312-.153 7.397-2.437 8.539-6.187s-.358-7.789-3.664-9.902l-25.795-16.46c-.49-13.716-.976-26.822-1.453-38.846 16.783-1.261 26.592-2.335 28.765-3.204 4.482-1.79 7.005-6.971 5.215-11.453-1.79-4.465-6.511-6.732-11.01-4.977-2.201.52-11.051 1.304-23.712 2.207-.145-3.234-.292-6.621-.439-9.536 15.339-8.436 32.638-31.99 38.416-62.242 6.494-33.916-3.852-68.736-27.661-93.142-14.504-14.896-34.019-21.236-54.743-18.066-19.702 3.068-37.751 14.76-44.926 29.11-13.004 26.008-17.112 47.977-14.18 75.826 4.227 40.41 26.963 57.47 37.887 65.668.835.631 1.602 1.193 2.25 1.687-.132 2.966-.473 8.066-.912 14.593-5.744.311-11.496.609-17.154.899-3.784.187-7.022 2.812-7.993 6.477-.971 3.664.545 7.55 3.75 9.595l19.519 12.459c-.66 11.061-1.317 23.286-1.845 36.055l-11.3-.247c-4.193-.205-7.226 2.301-8.454 5.914-1.227 3.596.034 7.584 3.102 9.834l15.795 11.624c-.277 12.868-.332 25.731-.062 38.054l-8.831-1.018c-4.704-.579-9.135 2.88-9.681 7.67-.545 4.789 2.88 9.118 7.67 9.681l11.477 1.321c.586 10.827 1.515 20.882 2.891 29.63-7.591 2.787-14.623 6.357-20.891 10.78-15.812-52.289-19.979-122.555-10.554-196.962 1.057-8.436-1.568-17.623-4.909-29.246-4.806-16.788-11.385-39.762-11.18-74.173.169-29.725 15.491-56.994 29.671-69.76zm91.502 134.532c-7.465 11.679-15.803 18.33-19.766 19.302-4.073.989-6.868 4.755-6.63 8.948.262 4.73.522 10.098.782 15.901-9.069.579-19.014 1.176-29.357 1.764 1.101-16.856 1.055-17.836.232-20.086-1.363-3.698-4.414-5.999-8.658-9.186-4.291-3.221-10.205-7.81-15.774-14.662 20.07-1.376 77.321-1.959 79.171-1.981zm-89.005-14.7c-2.518-6.221-4.482-13.481-5.394-22.173-2.539-24.27 1.057-43.444 12.442-66.214 3.954-7.925 16.225-17.214 31.99-19.668 8.846-1.329 25.48-1.449 39.575 13.004 29.4 30.116 25.037 67.066 23.009 77.684-1.008 5.275-2.467 10.009-4.086 14.495-3.521.069-78.507.84-97.536 2.872zm65.881 123.735c.051 1.491.107 2.991.158 4.482l-35.795-.775c.366-8.914.788-17.576 1.231-25.663zm-33.228-41.897c.081-1.283.156-2.433.234-3.664 11.705-.652 22.154-1.274 31.23-1.858.328 8.279.658 17.056.993 26.234zm34.016 63.858c.347 9.493.699 18.841 1.059 27.926l-38.124-28.058c.009-.226.015-.447.021-.673zm1.99 50.278c.043.963.085 1.888.128 2.838l-39.443-4.546c-.222-8.828-.247-18.04-.153-27.342zm.997 20.511c.311 5.876.626 11.487.954 16.455-12.987-1.325-25.995-.575-38.316 1.841-.991-6.822-1.685-14.581-2.186-22.851zm41.765 47.138c-14.372 32.847-32.625 50.487-54.266 52.345-20.98 1.773-37.973-8.505-48.846-29.809-3.068-5.991-5.833-12.544-8.436-19.374.775-.294 1.623-.256 2.318-.788 26.71-20.734 75.691-21.773 109.23-2.374zm38.825-41.598c-9.987 55.101-29.979 91.676-59.413 108.669-22.361 12.936-57.47 14.078-75.144 2.454-23.366-15.322-32.059-34.939-40.257-57.112-12.766-34.628-16.971-74.241-13.03-114.796 2.859 52.673 13.121 99.201 30.363 132.862 13.106 25.667 34.121 39.524 59.635 39.524 2.045 0 4.142-.085 6.255-.273 28.735-2.471 52.033-23.912 69.707-64.85 14.397-32.987 24.736-85.609 28.243-140.139 1.396 25.968.328 56.736-6.359 93.661z"/></svg>