<svg id="Capa_1" enable-background="new 0 0 512 512" height="512" viewBox="0 0 512 512" width="512" xmlns="http://www.w3.org/2000/svg"><g><path d="m511.285 323.324v-105.047h-113.291v-39.311l-44.772-38.242v-140.724h-74.162v140.723l-44.772 38.242v45.087l7.004 7.004v208.592l-7.004 12.446v59.829h.161v.077h186.656v-15.008h-37.019v-8.537c0-4.155 3.381-7.536 7.537-7.536h89.98c4.155 0 7.536 3.381 7.536 7.536v8.537h-23.012v15.008h38.019v-23.545c0-12.431-10.112-22.544-22.544-22.544h-22.479v-71.124c30.222-9.699 52.162-38.061 52.162-71.463zm-15.007-90.04v22.678h-120.071v-22.678zm-202.711-218.276h45.023v15.132h-45.023zm0 30.14h45.023v59.571h-45.023zm89.419 422.486c-8.157 3.396-13.908 11.448-13.908 20.821v8.537h-119.784v-40.965l7.004-12.446v-218.741l-7.004-7.004v-31.952l44.772-38.242v-27.916h44.147v27.916l44.772 38.242v32.392h-21.787v52.86h-89.196v105.056h89.071v-15.008h-74.063v-75.041h74.189v37.18c0 16.721 5.502 32.179 14.784 44.668v75.589l7.004 12.446v11.608zm31.115-1.723h-16.107v-13.816l-7.004-12.446v-56.509c6.879 5.217 14.677 9.281 23.11 11.89v70.881zm30.015 0h-15.008v-67.892c2.35.223 4.727.348 7.134.348 2.659 0 5.285-.144 7.873-.415v67.959zm-7.874-82.552c-33.103 0-60.035-26.931-60.035-60.035v-52.355h120.071v52.355c0 33.104-26.933 60.035-60.036 60.035z"/><path d="m436.242 496.992h14.879v15.008h-14.879z"/><path d="m226.268 245.172c0-18.678-15.195-33.873-33.873-33.873-7.301 0-14.273 2.381-19.975 6.545-5.978-12.62-18.839-21.368-33.705-21.368-13.765 0-25.935 7.356-32.401 18.787-4.849-2.571-10.303-3.964-15.869-3.964-18.678 0-33.873 15.196-33.873 33.873 0 5.883 1.511 11.601 4.388 16.676v9.005h-24.804c-19.543 0-35.442 15.899-35.442 35.442v123.921c0 19.542 15.899 35.442 35.442 35.442h24.802v46.225h157.428v-121.02h-15.006v106.012h-127.414v-226.051h67.499v37.627c0 12.43 10.113 22.543 22.544 22.543s22.544-10.113 22.544-22.543v-37.627h14.827v10.651h.001v94.381h15.008l-.001-108.961c5.103-6.083 7.88-13.681 7.88-21.723zm-165.309 174.809h-14.918v-104.153h14.918zm0-119.161h-14.095c-8.729 0-15.83 7.102-15.83 15.831v102.507c0 8.729 7.102 15.831 15.831 15.831h14.094v15.661h-24.803c-11.267 0-20.434-9.167-20.434-20.434v-123.922c0-11.267 9.167-20.434 20.434-20.434h24.802v14.96zm147.009-45.004-34.424-.021v52.655c0 4.155-3.381 7.536-7.536 7.536s-7.536-3.381-7.536-7.536l-.041-52.634h-83.647l-.07-.232c-2.051-3.089-3.135-6.69-3.135-10.413 0-10.403 8.463-18.866 18.866-18.866 5.269 0 10.158 2.123 13.768 5.977l12.796-3.473c2.272-10.04 11.4-17.327 21.706-17.327 12.254 0 22.228 9.951 22.263 22.198l-.008.263 14.308 3.295c3.086-6.642 9.805-10.933 17.117-10.933 10.403 0 18.866 8.463 18.866 18.866 0 3.86-1.154 7.534-3.293 10.645z"/><path d="m278.47 406.526h15.008v15.008h-15.008z"/><path d="m308.485 406.37h15.008v15.008h-15.008z"/><path d="m338.5 406.37h15.008v15.008h-15.008z"/><path d="m271.8 436.109h90.045v15.008h-90.045z"/><path d="m342.304 237.392 7.533-12.98c-25.581-14.847-58.079-10.586-79.03 10.366l10.613 10.612c16.144-16.145 41.181-19.434 60.884-7.998z"/><path d="m390.923 285.831h15.008v14.966h-15.008z"/><path d="m90.805 285.81h15.008v15.008h-15.008z"/></g></svg>