<svg id="Layer_1" enable-background="new 0 0 512 512" viewBox="0 0 512 512" xmlns="http://www.w3.org/2000/svg"><g><path d="m430.334 139.931c1.19 1.566 3.012 2.44 4.91 2.44.572 0 1.145-.09 1.702-.241 24.642-7.094 40.291-18.662 46.482-34.417 6.989-17.788-.663-34.718-3.133-39.433-2.726-21.584-16.764-39.854-36.887-47.897-11.929-4.775-24.627-6.898-37.595-6.447-24.325.889-47.566 11.131-65.46 28.844l-56.534 55.939c-3.23 1.042-6.463 1.982-9.679 3.376-20.123 8.736-36.526 22.081-47.461 38.574-62.99 95.027-91.623 94.62-92.843 94.846-.8-.133-1.597-.102-2.353.067-.388.083-.713.3-1.071.453-.345.149-.717.235-1.03.443-.366.243-.634.592-.94.909-.241.247-.521.444-.718.731-.188.276-.271.618-.414.928-.181.386-.422.734-.522 1.167-.011.047.006.091-.004.138-.008.038-.034.065-.041.103-.068.351.017.681.009 1.026-.008.438-.072.877.011 1.296.079.408.279.759.436 1.137.146.351.238.72.445 1.038.217.335.532.583.811.87.275.283.506.597.835.825.311.215.689.315 1.042.473.361.163.677.397 1.079.49.057.014.159.024.222.038.007.001.012.007.019.008.05.009.098.011.148.021.347.071.745.13 1.244.174 7.724 1.416 15.34 2.341 22.87 2.929-17.63 15.056-40.672 23.769-40.95 23.883-2.395.874-3.991 3.133-4.037 5.678-.045 2.53 1.461 4.85 3.826 5.814.028.011.056.018.085.029l-74.718 40.458c-2.636 1.431-3.871 4.549-2.907 7.395.859 2.53 3.223 4.202 5.844 4.202.316 0 .633-.03.949-.075l40.384-6.26c-13.297 11.484-31.295 26.988-56.546 48.69-2.485 2.154-2.862 5.874-.859 8.465l9.022 11.628c1.22 1.551 3.027 2.395 4.88 2.395 1.084 0 2.169-.286 3.148-.874 13.511-8.038 27.546-16.312 41.654-24.588 86.519-4.756 153.005-8.413 204.345-11.236l-9.55 10.022c-13.747-3.081-57.618-9.121-87.048 30.366-10.318 13.812-12.878 26.359-15.152 37.429-.919 4.534-1.792 8.857-3.238 12.968-6.221 17.532-17.743 29.642-17.864 29.763-1.612 1.672-2.139 4.112-1.371 6.311s2.696 3.781 5.001 4.082c.723.09 6.356.798 14.896.798 20.018 0 56.001-3.856 82.405-28.392 34.67-32.217 32.534-73.827 31.268-84.748l18.422-19.331c.072-.075.092-.176.16-.254 151.322-8.323 154.39-8.497 154.302-8.497-.015 0-.015 0-.015 0 6.733-.271 11.086-8.088 10.845-19.43-.256-11.387-4.955-19.008-11.658-19.008-.03 0-.06 0-.09 0-.132 0-.342.008-64.442 3.474l3.274-6.597c13.048-1.146 53.221-8.139 68.127-51.025 5.227-15.032 3.991-26.765 2.907-37.128-.437-4.202-.889-8.209-.753-12.2.602-16.945 7.26-30.636 7.335-30.772 1.024-2.079.798-4.579-.587-6.432-1.416-1.883-3.841-2.862-6.01-2.38-2.214.392-54.449 10.061-77.841 51.332-21.217 37.429-8.44 72.948-4.094 82.842l-6.514 13.125c-7.668.414-16.116.873-25.355 1.373l-8.696-28.415c-1.25-3.871-1.054-8.028.663-11.899l17.462-42.665c45.559-43.266 53.871-104.154 55.356-124.352 1.396.116 2.673.506 4.12.506 3.375 0 6.914-.394 10.55-1.024-1.048 5.046-3.122 10.606-6.875 16.764-1.327 2.167-1.176 4.924.36 6.942zm-180.625 320.763c-23.919 22.247-57.778 25.139-75.793 25.018 4.187-5.965 9.188-14.354 12.758-24.416 1.687-4.775 2.666-9.564 3.705-14.625 2.109-10.272 4.278-20.906 12.938-32.519 21.435-28.752 51.318-29.285 67.051-27.138l-13.785 13.077-26.667-.684c-.06-.015-.12-.015-.166-.015-3.344 0-6.085 2.666-6.16 6.01-.09 3.419 2.591 6.251 5.995 6.326l14.34.371-13.05 12.378-23.205-.594c-.045-.015-.105-.015-.151-.015-3.344 0-6.085 2.666-6.16 6.025-.09 3.404 2.591 6.236 6.01 6.311l10.848.281-23.109 21.921c-2.47 2.35-2.576 6.251-.226 8.721 1.205 1.28 2.847 1.928 4.473 1.928 1.521 0 3.058-.572 4.248-1.702l20.731-19.665-.834 8.399c-.331 3.389 2.154 6.401 5.543 6.748.196.015.407.03.602.03 3.148 0 5.829-2.38 6.145-5.573l2.237-22.593 13.321-12.635-1.444 14.563c-.331 3.389 2.154 6.401 5.543 6.748.196.015.407.03.602.03 3.148 0 5.829-2.38 6.145-5.573l2.845-28.755 12.381-11.745c-.373 15.469-4.709 41.992-27.711 63.362zm222.196-357.394c-3.6 9.052-11.884 16.448-24.687 22.096 2.015-5.854 2.711-11.17 2.754-16.097.045-.273.04-.542.047-.822-.103-11.506-4.497-20.384-8.739-26.163 11.65-5.224 23.454-6.057 29.13-6.064 2.222 5.07 5.855 16.1 1.495 27.05zm-234.954 44.177c9.625-14.49 24.175-26.268 42.099-34.055 8.646-3.75 17.306-6.055 25.771-6.838 12.517-1.205 24.868 2.877 34.176 11.071 9.263 8.149 14.595 19.37 15.032 31.6.249 7.229-.769 14.54-2.773 21.898-18.913 15.567-97.459 74.345-193.38 67.37 17.21-11.499 43.008-36.598 79.075-91.046zm-64.238 104.064c.327.001.667.045.993.045 74.393 0 136.644-35.735 168.08-57.839-5.098 8.875-11.76 17.799-20.004 26.736-23.602 25.575-54.329 44.463-88.897 54.63-26.238 7.727-63.336 14.128-98.853 4.549 11.513-5.763 27.199-15.333 38.681-28.121zm93.881 64.707 5.962 12.414c-31.994 1.731-69.401 3.756-113.181 6.125 36.29-20.921 67.169-38.484 83.698-47.74 10.105-.271 19.669-1.05 28.669-2.331l-4.711 10.385c-1.657 3.539-2.275 16.839-.437 21.147zm-189.226 4.248 52.949-28.669-4.524 3.982c-5.22 4.631-10.519 9.332-23.815 20.873zm-34.944 68.321-2.094-2.681c72.75-62.553 83.293-71.906 93.656-81.094l11.775-10.367c8.912 1.425 17.807 2.128 26.513 2.128 11.642 0 22.926-1.127 33.517-2.859-41.606 23.683-105.684 60.619-163.367 94.873zm361.657-155.998c14.414-25.425 42.581-37.444 58.185-42.355-1.913 6.311-3.811 14.716-4.127 24.099-.166 4.534.301 9.113.798 13.917 1.009 9.519 2.033 19.355-2.289 31.796-10.338 29.752-34.616 38.807-49.126 41.62l7.674-13.675 23.423-7.114c3.253-.994 5.106-4.443 4.112-7.697-.994-3.253-4.383-5.106-7.697-4.112l-11.112 3.374 7.515-13.391 19.457-5.918c3.268-.994 5.106-4.443 4.112-7.697-.994-3.253-4.368-5.091-7.697-4.112l-7.145 2.174 8.184-14.585c1.672-2.967.618-6.733-2.365-8.39-2.967-1.687-6.733-.618-8.39 2.365l-7.733 13.782-1.71-7.591c-.753-3.344-4.097-5.362-7.38-4.669-3.329.753-5.407 4.067-4.669 7.38l4.737 20.959-7.319 13.043-2.735-12.132c-.753-3.344-4.127-5.362-7.38-4.669-3.329.753-5.407 4.067-4.669 7.38l5.763 25.497-7.247 12.914c-3.881-13.614-7.154-37.506 6.83-62.193zm55.458 98.084c.527 1.265 1.16 3.615 1.22 6.838.075 3.284-.467 5.678-.934 6.944-23.578 1.296-270.184 14.86-350.812 19.294 9.132-5.324 18.155-10.565 27.041-15.714.19.021.359.104.553.11.001 0 296.559-16.041 322.932-17.472zm-122.605-31.525 7.758 25.382c-2.191.119-4.369.236-6.642.359l-15.922-25.062c-.798-1.898-1.747-9.73-1.612-11.236l4.609-17.301 1.009-1.632c.244-.393.317-.828.463-1.247 7.334-3.492 14.113-7.374 20.368-11.586l-8.947 21.87c-2.892 6.491-3.253 13.796-1.084 20.453zm-13.005 26.505c-5.336.288-10.924.591-16.682.902l-2.32-15.176c-.618-4.007.271-8.073 2.591-11.613l1.504-2.433c.578 3.661 1.441 7.099 2.472 8.713zm-26.804-32.529c-3.916 5.934-5.468 13.074-4.398 20.123l2.138 13.979c-2.994.162-5.884.319-8.986.487l-7.897-16.363c-.467-1.988-.12-9.866.256-11.327l8.229-18.135c7.528-1.609 14.55-3.639 21.268-5.91zm85.598-210.614c.181.768 4.458 18.933 20.951 28.633.36.212.786.276 1.15.475.644.704 1.402 1.311 2.359 1.663.708.271 1.431.392 2.139.392.097 0 .172-.079.269-.084.155.062.308.131.463.191-.724 16.44-6.595 77.178-52.103 119.155-.518.35-.969.757-1.366 1.261-19.757 17.746-46.803 31.915-83.833 37.634 21.852-11.088 41.703-25.434 58.095-43.203 24.491-26.539 36.435-53.47 35.501-80.025-.542-15.665-7.365-30.034-19.204-40.442-11.33-9.949-26.345-14.941-41.337-14.079l43.22-42.765c15.695-15.529 36.013-24.506 57.236-25.289 11.206-.316 22.232 1.461 32.564 5.573 14.133 5.659 24.467 17.703 28.135 32.295-8.839.496-23.776 2.665-37.498 10.659-.513.184-.965.481-1.421.804-8.251 5.091-15.898 12.405-21.318 22.877-9.17-7.269-11.942-18.346-11.97-18.467-.768-3.299-4.022-5.377-7.395-4.609-3.312.769-5.376 4.038-4.637 7.351zm35.096 21.064c3.386-6.433 7.844-11.345 12.761-15.141 2.759 3.449 5.5 8.406 6.577 14.825-7.188 1.529-13.689 1.704-19.338.316z"/><path d="m416.341 63.114c8.54 0 15.484-6.944 15.484-15.484s-6.944-15.484-15.484-15.484-15.484 6.944-15.484 15.484 6.944 15.484 15.484 15.484zm0-18.617c1.732 0 3.133 1.401 3.133 3.133 0 3.464-6.266 3.464-6.266 0 0-1.732 1.401-3.133 3.133-3.133z"/></g></svg>