<svg id="Layer_1" enable-background="new 0 0 100 100" viewBox="0 0 100 100" xmlns="http://www.w3.org/2000/svg"><g><path d="m68.8 29.6c1-1 2.5-1 3.5 0 .2.2.4.3.7.3s.5-.1.7-.3c.4-.4.4-1 0-1.4-1.7-1.7-4.5-1.7-6.2 0-.4.4-.4 1 0 1.4.3.3.9.3 1.3 0z"/><path d="m58.5 29.6c1-1 2.5-1 3.5 0 .2.2.4.3.7.3s.5-.1.7-.3c.4-.4.4-1 0-1.4-1.7-1.7-4.5-1.7-6.2 0-.4.4-.4 1 0 1.4.3.3.9.3 1.3 0z"/><path d="m60.5 35.6c-.4.4-.4 1 0 1.4 1.4 1.4 3.2 2.1 5.1 2.1s3.7-.7 5.1-2.1c.4-.4.4-1 0-1.4s-1-.4-1.4 0c-2 2-5.4 2-7.4 0-.4-.4-1-.4-1.4 0z"/><path d="m57.5 85.1c.9 0 1.8-.2 2.6-.6 1.9-.9 2.7-2.7 2.9-3.4.2-.5-.1-1.1-.6-1.2-.5-.2-1.1.1-1.2.6-.2.5-.7 1.7-1.9 2.3-1.5.7-3.4.3-3.9-.4-.3-.4-.9-.5-1.4-.2-.4.3-.5.9-.2 1.4.7 1 2.1 1.5 3.7 1.5z"/><circle cx="50.9" cy="68.7" r="1.4"/><path d="m89.7 53.2c-.6-1.6-2.2-2.6-4-2.6h-4.8c-.3-3.3-1.7-6.4-4-8.9 1.3-1.6 2.3-3.4 2.9-5.5h.1c1.1 0 2.2-.4 2.9-1.2.8-.8 1.2-1.8 1.2-2.9 0-2.3-1.9-4.2-4.2-4.2h-.1c-1.8-6.2-7.2-10.5-13.6-10.8-1.4-1.6-1.3-4 .2-5.5.4-.4.4-1 0-1.4s-1-.4-1.4 0c-1.7 1.7-2.2 4.3-1.3 6.5-.3-.2-.7-.4-1-.6-.8-.7-1.3-1.7-1.4-2.8 0-.5-.5-.9-1-.9s-.9.5-.9 1c.1 1.6.8 3.1 2 4.1 0 0 .1 0 .1.1-5 1.3-8.9 5.2-10.4 10.3-1.1 0-2.2.4-2.9 1.2-.8.8-1.2 1.8-1.2 2.9 0 2.3 1.9 4.2 4.2 4.2h-.1c.6 2.1 1.6 3.9 2.9 5.5-1.3 1.4-2.3 2.9-2.9 4.6-.5-.9-1.2-1.7-2-2.2 0-.3.1-.5.1-.8 0-3.6-3-6.6-6.6-6.6-1.7 0-3.2.6-4.4 1.7-.6-.5-1.2-.9-2-1.2-.5-3.2-3.2-5.6-6.5-5.6-2.6 0-4.9 1.5-6 3.8-.7-.3-1.4-.4-2.1-.4-2.8 0-5.1 2-5.7 4.7-3.2.4-5.7 3.2-5.7 6.6 0 1.9.8 3.6 2.1 4.8-.4.2-.7.4-1 .7-.8.8-1.2 1.8-1.2 2.9 0 2.2 1.8 4.1 4 4.1l5.3 24.2c.9 4 4.5 6.9 8.6 6.9h44.2c4.1 0 7.7-2.9 8.6-6.9l5.3-24.1c1 0 2.1-.5 2.8-1.2 1.2-1.1 1.5-2.9.9-4.5zm-24.3-6.2c3.9 0 7.4-1.5 10.1-3.9 1.9 2.1 3.1 4.7 3.4 7.5h-27c.3-2.8 1.5-5.4 3.4-7.5 2.7 2.5 6.2 3.9 10.1 3.9zm-16.7-14.9c0-.6.2-1.1.7-1.6.4-.4 1-.7 1.6-.7h.8.1.2c.1 0 .1 0 .2-.1.1 0 .1-.1.1-.1s.1-.1.1-.1.1-.1.1-.2.1-.1.1-.2c0 0 0 0 0-.1 1.4-5.9 6.6-10 12.7-10 1.1 0 2 .9 2 2s-.9 2-2 2-2-.9-2-2c0-.5-.4-1-1-1-.5 0-1 .4-1 1 0 2.2 1.8 4 4 4s4-1.8 4-4c0-.5-.1-1-.3-1.5 4.4 1.3 7.9 4.8 9 9.5v.1s0 .1.1.1c0 .1.1.1.1.2 0 0 .1.1.1.1.1.1.1.1.2.1 0 0 .1 0 .1.1.1 0 .2.1.4.1h.8c1.2 0 2.2 1 2.2 2.2 0 .6-.2 1.1-.7 1.6-.4.4-1 .7-1.6.7h-.8-.1c-.1 0-.1 0-.2 0s-.1 0-.2.1c-.1 0-.1.1-.1.1-.1 0-.1.1-.1.1s-.1.1-.1.1c0 .1-.1.1-.1.2v.1c-.5 2.3-1.7 4.4-3.2 6-2.4 2.5-5.7 4-9.4 4-3.6 0-7-1.5-9.4-4-1.6-1.6-2.7-3.7-3.2-6 0 0 0 0 0-.1s0-.1-.1-.2c0-.1-.1-.1-.1-.1s-.1-.1-.1-.1-.1-.1-.1-.1c-.1 0-.1 0-.2-.1-.1 0-.1 0-.2 0h-.1-1c-1.3 0-2.3-1-2.3-2.2zm-32 9.5c.5 0 1-.4 1-.9.1-2.1 1.8-3.7 3.8-3.7.8 0 1.5.2 2.1.6.3.2.6.2.9.1s.5-.4.6-.7c.5-2 2.4-3.5 4.5-3.5 2.5 0 4.5 1.9 4.6 4.4 0 .4.3.8.8.9.9.2 1.7.7 2.2 1.5.2.3.5.4.8.4s.6-.1.8-.4c.9-1.2 2.2-1.9 3.7-1.9 2.6 0 4.7 2.1 4.7 4.7 0 .3 0 .7-.1 1.1s.1.9.5 1.1c1.5.8 2.5 2.4 2.5 4.1 0 .4-.1.8-.2 1.1h-14c-2.4 0-4.3 1.9-4.3 4.3v10.7c0 .6-.3 1.2-.7 1.6-.5.4-1.1.6-1.7.6-1.1-.1-2-1.2-2-2.4v-10.4c0-2.4-1.9-4.3-4.3-4.3h-7.7c-1.8-.7-3-2.4-3-4.3-.2-2.6 1.9-4.7 4.5-4.7zm-4.7 13.2c0-.6.2-1.1.7-1.6.4-.4 1-.6 1.6-.6h8.6c1.3 0 2.3 1 2.3 2.3v2.1h-10.4-.6c-1.2 0-2.2-1-2.2-2.2zm38.9 22.5s.1 0 0 0c.1-.1.2-.1.3-.2.1-.1.1-.2.2-.3 0-.1 0-.1 0-.2s0-.1 0-.2 0-.1 0-.2 0-.1 0-.2-.1-.1-.1-.1c0-.1-.1-.1-.1-.2-.1-.1-.1-.1-.2-.1 0 0-.1-.1-.1-.1-.3-.2-.7-.4-.9-.7-.1-.1-.1-.2-.2-.2.3-.2.5-.4.7-.6.4-.4.4-1 0-1.4-.1-.1-.2-.1-.3-.2l-2.6-1.7c0-.2-.1-.4-.1-.7 0-2.4 1.9-4.3 4.3-4.3s4.3 1.9 4.3 4.3v4.5c-1.6.5-3.2 1.9-4.6 4.3-.3.5-.1 1.1.3 1.3.5.3 1.1.1 1.3-.3 1.4-2.3 2.8-3.5 4.2-3.6 1.2-.1 2.2.6 3.4 1.4 1.5 1 3.2 2.1 5.7 2.1.6 0 1.2-.1 1.7-.2-2.3 4.9-6.6 8.2-11.1 8.4-3.2.1-6.9-1.2-9-3.3-.8-.7-1.7-1.9-1.7-3.3.2-1.8 1.6-2.6 4.6-4zm-4-4.7 1.2.8c-.8.3-1.7.3-2.5 0zm31.9 10.1c-.7 3.1-3.5 5.4-6.7 5.4h-8.7c3.3-2 6.1-5.5 7.5-9.8.1-.4 0-.8-.3-1.1s-.7-.3-1.1-.1c-1 .5-2 .8-3 .8 0 0 0 0-.1 0-1.8 0-3.2-.9-4.5-1.8-1.1-.7-2.3-1.5-3.7-1.7v-4.3c0-3.4-2.8-6.3-6.3-6.3-3.4 0-6.3 2.8-6.3 6.3 0 .3 0 .6.1.8l-2.4 1.5c-.2.2-.4.4-.4.7s.1.6.3.8c1 1 2.4 1.5 3.7 1.5.4 0 .8-.1 1.2-.1.1.3.3.5.5.7 0 0 .1.1.1.1-2.2 1.1-4.1 2.4-4.1 5.2 0 1.7.8 3.3 2.3 4.7.8.7 1.7 1.4 2.7 1.9h-21.7c-3.2 0-6-2.3-6.7-5.4l-5.2-23.5h9.1v6.4c0 2.2 1.6 4.1 3.7 4.3h.4c1 0 2-.4 2.8-1.1.9-.8 1.4-1.9 1.4-3.1v-6.5h50.6zm8.6-26.3c-.4.4-1 .7-1.6.7h-.6-51.8v-2.1c0-1.3 1-2.3 2.3-2.3h14.7.4 29 5.7c1 0 1.9.6 2.2 1.4.6.9.2 1.8-.3 2.3z"/><path d="m38.9 67.8c2 0 3.5-1.6 3.5-3.5 0-2-1.6-3.5-3.5-3.5s-3.5 1.6-3.5 3.5c-.1 1.9 1.5 3.5 3.5 3.5zm0-5.2c.9 0 1.6.7 1.6 1.6s-.7 1.6-1.6 1.6-1.6-.7-1.6-1.6.7-1.6 1.6-1.6z"/><path d="m41.3 30.2c2 0 3.5-1.6 3.5-3.5s-1.6-3.5-3.5-3.5-3.5 1.6-3.5 3.5 1.5 3.5 3.5 3.5zm0-5.2c.9 0 1.6.7 1.6 1.6s-.7 1.6-1.6 1.6-1.6-.7-1.6-1.6.7-1.6 1.6-1.6z"/><path d="m33.1 24.6c2 0 3.5-1.6 3.5-3.5s-1.6-3.5-3.5-3.5-3.5 1.6-3.5 3.5 1.5 3.5 3.5 3.5zm0-5.1c.9 0 1.6.7 1.6 1.6s-.7 1.6-1.6 1.6-1.6-.7-1.6-1.6.7-1.6 1.6-1.6z"/><path d="m29.4 73.5c-2.6 0-4.7 2.1-4.7 4.7s2.1 4.7 4.7 4.7 4.7-2.1 4.7-4.7-2.1-4.7-4.7-4.7zm0 7.3c-1.5 0-2.7-1.2-2.7-2.7s1.2-2.7 2.7-2.7 2.7 1.2 2.7 2.7-1.2 2.7-2.7 2.7z"/><path d="m18.5 29.4c2.6 0 4.7-2.1 4.7-4.7s-2.2-4.7-4.7-4.7-4.7 2.1-4.7 4.7 2.1 4.7 4.7 4.7zm0-7.4c1.5 0 2.7 1.2 2.7 2.7s-1.2 2.7-2.7 2.7-2.7-1.2-2.7-2.7 1.2-2.7 2.7-2.7z"/><path d="m25.7 47.7c.5 0 1-.4 1-1 0-1.3 1.1-2.4 2.4-2.4.5 0 1-.4 1-1 0-.5-.4-1-1-1-2.4 0-4.3 1.9-4.3 4.3 0 .6.4 1.1.9 1.1z"/><path d="m37.1 45.6c1.4 0 2.6 1.2 2.6 2.6 0 .5.4 1 1 1 .5 0 1-.4 1-1 0-2.5-2-4.5-4.5-4.5-.5 0-1 .4-1 1-.1.4.4.9.9.9z"/></g></svg>