<?xml version="1.0" encoding="iso-8859-1"?>
<!-- Generator: Adobe Illustrator 19.0.0, SVG Export Plug-In . SVG Version: 6.00 Build 0)  -->
<svg version="1.1" id="Capa_1" xmlns="http://www.w3.org/2000/svg" xmlns:xlink="http://www.w3.org/1999/xlink" x="0px" y="0px"
	 viewBox="0 0 480 480" style="enable-background:new 0 0 480 480;" xml:space="preserve">
<g>
	<g>
		<path d="M144,168V48h8V0H72v48h8v120c-24.342,12.076-39.812,36.828-40,64v248h144V232C183.812,204.828,168.342,180.076,144,168z
			 M88,16h48v16H88V16z M128,48v112H96V48H128z M168,464H56v-48h112V464z M168,400H56V288h112V400z M168,272H56v-16h40v-16H56v-8
			c0-30.928,25.072-56,56-56c30.928,0,56,25.072,56,56V272z"/>
	</g>
</g>
<g>
	<g>
		<path d="M112,304c-22.091,0-40,17.909-40,40c0,22.091,17.909,40,40,40s40-17.909,40-40C152,321.909,134.091,304,112,304z M112,368
			c-13.255,0-24-10.745-24-24s10.745-24,24-24s24,10.745,24,24S125.255,368,112,368z"/>
	</g>
</g>
<g>
	<g>
		<path d="M416,296h-40v-12.48c15.223-8.978,20.285-28.597,11.307-43.819c-4.264-7.23-11.198-12.495-19.307-14.661V224
			c0.002-22.091-17.906-40.001-39.997-40.003c-14.523-0.001-27.906,7.87-34.963,20.563c-15.187-16.044-40.504-16.738-56.547-1.551
			c-6.175,5.845-10.327,13.506-11.853,21.871c-17.165,4.209-27.667,21.535-23.459,38.7c2.053,8.371,7.395,15.56,14.819,19.94v173.12
			c0,12.901,10.459,23.36,23.36,23.36h113.28c12.901,0,23.36-10.459,23.36-23.36V432h40c13.255,0,24-10.745,24-24v-88
			C440,306.745,429.255,296,416,296z M360,456.64c0,4.065-3.295,7.36-7.36,7.36H239.36c-4.065,0-7.36-3.295-7.36-7.36V288h16v56
			c0,13.255,10.745,24,24,24s24-10.745,24-24v-56h64V456.64z M360,272h-80v72c0,4.418-3.582,8-8,8s-8-3.582-8-8v-72h-32
			c-8.837,0-16-7.163-16-16s7.163-16,16-16h8v-8c0-13.255,10.745-24,24-24s24,10.745,24,24h16v-8c0-13.255,10.745-24,24-24
			s24,10.745,24,24v16h8c8.837,0,16,7.163,16,16S368.837,272,360,272z M376,344h16v40h-16V344z M424,408c0,4.418-3.582,8-8,8h-40
			v-16h32v-72h-32v-16h40c4.418,0,8,3.582,8,8V408z"/>
	</g>
</g>
<g>
	<g>
		<rect x="328" y="384" width="16" height="64"/>
	</g>
</g>
<g>
	<g>
		<rect x="328" y="352" width="16" height="16"/>
	</g>
</g>
<g>
	<g>
		<path d="M264,128c-13.255,0-24,10.745-24,24s10.745,24,24,24s24-10.745,24-24S277.255,128,264,128z M264,160c-4.418,0-8-3.582-8-8
			s3.582-8,8-8s8,3.582,8,8S268.418,160,264,160z"/>
	</g>
</g>
<g>
	<g>
		<path d="M304,64c-13.255,0-24,10.745-24,24s10.745,24,24,24s24-10.745,24-24S317.255,64,304,64z M304,96c-4.418,0-8-3.582-8-8
			s3.582-8,8-8s8,3.582,8,8S308.418,96,304,96z"/>
	</g>
</g>
<g>
	<g>
		<rect x="112" y="240" width="16" height="16"/>
	</g>
</g>
<g>
</g>
<g>
</g>
<g>
</g>
<g>
</g>
<g>
</g>
<g>
</g>
<g>
</g>
<g>
</g>
<g>
</g>
<g>
</g>
<g>
</g>
<g>
</g>
<g>
</g>
<g>
</g>
<g>
</g>
</svg>
