<svg id="Artboard_01" height="512" viewBox="0 0 64 64" width="512" xmlns="http://www.w3.org/2000/svg" data-name="Artboard 01"><path d="m6 63h50a1 1 0 0 0 1-.95l1.952-39.05h2.048a1 1 0 0 0 1-1v-3a3 3 0 0 0 -3-3v-1a3 3 0 0 0 -3-3h-10v-3.586l2.121-2.121a3 3 0 0 0 0-4.242l-.171-.172a3.073 3.073 0 0 0 -4.243 0l-3.414 3.414a1 1 0 0 0 -.293.707v6h-9a3 3 0 0 0 -3 3v1a3 3 0 0 0 -3 3v3a1 1 0 0 0 1 1h2.047l.1 2h-17.147a9.01 9.01 0 0 0 -9 9v2a1 1 0 0 0 1 1h1v2a3 3 0 0 0 -3 3v4a3 3 0 0 0 3 3v2h-2a1 1 0 0 0 -1 1v6a5.006 5.006 0 0 0 5 5zm36-56.586 3.121-3.121a1.025 1.025 0 0 1 1.414 0l.172.173a1 1 0 0 1 0 1.413l-2.414 2.414a1 1 0 0 0 -.293.707v4h-2zm-12 8.586a1 1 0 0 1 1-1h25a1 1 0 0 1 1 1v1h-27zm-3 4a1 1 0 0 1 1-1h31a1 1 0 0 1 1 1v2h-33zm3.05 4h26.9l-1.9 38h-10.076a4.948 4.948 0 0 0 1.026-3v-6a1 1 0 0 0 -1-1h-2v-2a3 3 0 0 0 3-3v-4a3 3 0 0 0 -3-3v-2h1a1 1 0 0 0 1-1v-2a9.01 9.01 0 0 0 -9-9h-5.852zm-26.05 11a7.009 7.009 0 0 1 7-7h25a7.009 7.009 0 0 1 7 7v1h-39zm37 3v2h-25a1 1 0 0 0 -.707.293l-3.293 3.293-3.293-3.293a1 1 0 0 0 -.707-.293h-2v-2zm-38 9v-4a1 1 0 0 1 1-1h3.586l3.707 3.707a1 1 0 0 0 1.414 0l3.707-3.707h26.586a1 1 0 0 1 1 1v4a1 1 0 0 1 -1 1h-39a1 1 0 0 1 -1-1zm38 3v2h-2a1 1 0 0 0 -.707.293l-3.293 3.293-3.293-3.293a1 1 0 0 0 -.707-.293h-25v-2zm-38 4h27.586l3.707 3.707a1 1 0 0 0 1.414 0l3.707-3.707h4.586v5a3 3 0 0 1 -3 3h-35a3 3 0 0 1 -3-3z"/><path d="m10 29h2v2h-2z"/><path d="m12.88 32h2v2h-2z"/><path d="m17 29h2v2h-2z"/><path d="m19.88 32h2v2h-2z"/><path d="m24 29h2v2h-2z"/><path d="m26.88 32h2v2h-2z"/><path d="m31 29h2v2h-2z"/><path d="m33.88 32h2v2h-2z"/></svg>