<svg id="Capa_1" enable-background="new 0 0 512 512" height="512" viewBox="0 0 512 512" width="512" xmlns="http://www.w3.org/2000/svg"><g><path d="m511.589 225.087-35.558-177.376c-2.271-11.329-13.34-18.694-24.662-16.425l-65.866 13.204c-3.957.793-6.523 4.645-5.729 8.603.793 3.958 4.64 6.528 8.603 5.73l65.865-13.204c3.419-.688 6.77 1.54 7.456 4.966l10.087 50.32c-22.333 1.892-44.547-7.912-58.107-26.142-2.795-3.759-7.558-5.596-12.159-4.673l-72.375 14.508c-10.64 2.722-9.459 15.225-2.095 18.342 5.46 2.311 13.269 8.031 17.193 10.414 3.999 2.428 8.107 5.001 10.578 7.804 2.422 2.748 3.947 6.886 5.561 11.267 1.631 4.629 3.737 9.619 6.482 13.819h-19.823c-13.309-24.218-40.714-37.142-68.201-31.63-18.343 3.677-34.154 15.365-43.162 31.63h-22.61c1.406-2.254 4.034-5.715 5.829-8.16 3.613-4.92 6.479-9.729 10.306-15.194 2.907-4.152 4.49-8.37.949-12.948-2.115-2.917-5.766-4.344-9.301-3.635l-72.375 14.508c-4.591.92-8.287 4.452-9.418 8.997-1.432 5.759-3.645 11.268-6.569 16.432h-43.004l-4.056-20.231c-.686-3.425 1.542-6.77 4.966-7.456l263.902-52.903c3.957-.793 6.523-4.645 5.729-8.603-.793-3.958-4.637-6.528-8.603-5.73l-263.901 52.904c-11.327 2.271-18.695 13.334-16.425 24.662l3.48 17.358h-1.815c-11.553 0-20.952 9.399-20.952 20.952v22.223c-7.873 1.788-14.174 8.024-15.836 16.313l-35.558 177.375c-1.1 5.487.002 11.075 3.105 15.733 3.102 4.658 7.833 7.829 13.32 8.929l363.848 72.938c5.433 1.097 11.071.009 15.733-3.105 4.658-3.102 7.83-7.833 8.929-13.32l19.09-95.229h19.408c11.553 0 20.952-9.399 20.952-20.952v-92.267l30.363-6.087c11.329-2.269 18.697-13.333 16.426-24.661zm-130.753-84.092c-3.097-4.6-4.933-8.403-6.737-13.623-1.914-5.194-4.083-11.081-8.31-15.878-4.279-4.855-9.858-7.751-14.781-10.304-2.888-1.503-5.37-2.772-7.763-4.51l59.644-11.956c15.275 19.716 38.954 31.032 63.454 31.03 2.769 0 5.55-.157 8.33-.45l9.608 47.928c-6.867 2.043-13.424 4.989-19.479 8.757v-4.791c0-11.553-9.399-20.952-20.952-20.952h-59.793c-1.04-1.819-2.137-3.558-3.221-5.251zm-27.709 98.954c-2.133-5.119-3.184-9.205-3.928-14.678-.524-11.543-7.786-24.025-17.494-30.212-2.536-2.042-4.722-3.773-6.726-5.948h60.831c12.357 24.857 36.974 41.548 64.373 44.093v48.891c-27.329 2.542-51.915 19.172-64.294 43.938h-60.766c1.957-2.093 4.109-3.801 6.579-5.79 9.709-6.188 16.972-18.67 17.497-30.212.742-5.473 1.795-9.561 3.928-14.68 2.023-5.196 4.318-11.085 4.318-17.701s-2.294-12.505-4.318-17.701zm-71.414-111.002c18.312-3.672 36.584 3.281 47.818 17.297h-76.304c7.127-8.81 17.181-15.03 28.486-17.297zm-128.86 5.9 59.644-11.956c-1.538 2.524-3.341 4.654-5.425 7.152-3.728 4.443-8.118 9.749-9.972 16.202h-48.267c1.623-3.688 2.968-7.494 4.02-11.398zm10.63 140.503c2.133 5.118 3.184 9.207 3.927 14.679.524 11.543 7.788 24.025 17.495 30.212 2.472 1.99 4.624 3.697 6.58 5.791h-60.765c-12.379-24.765-36.965-41.396-64.294-43.938v-48.891c27.399-2.545 52.016-19.236 64.372-44.093h60.831c-2.004 2.173-4.19 3.906-6.725 5.947-9.708 6.187-16.97 18.669-17.494 30.21-.743 5.474-1.795 9.563-3.928 14.682-5.375 10.222-5.374 25.18.001 35.401zm-135.759 45.902 9.606-47.918c4.821.531 9.652.623 14.479.236v59.518c-7.271-5.275-15.385-9.262-24.085-11.836zm22.581-112.646c.228-1.138.763-2.158 1.504-2.982v53.293c-3.852.354-7.723.349-11.591.01zm353.687 188.085c-27.294-2.88-54.672 8.596-71.676 30.443l-34.952-7.006c-3.964-.797-7.81 1.773-8.603 5.73-.794 3.958 1.772 7.81 5.729 8.603l36.454 7.308c4.527.919 9.347-.896 12.141-4.65 13.563-18.151 35.736-27.909 58.02-26.026l-10.087 50.318c-.61 3.351-4.125 5.703-7.456 4.966 0 0-363.849-72.938-363.849-72.938-3.343-.599-5.711-4.133-4.966-7.456l10.089-50.33c10.524 3.347 19.94 9.265 27.578 17.367 2.221 9.185 10.488 16.036 20.346 16.036h54.862c2.213 5.055 5.669 9.192 8.768 12.897 2.033 2.437 3.807 4.534 5.314 6.973l-51.608-10.346c-3.955-.793-7.809 1.773-8.603 5.73-.794 3.958 1.772 7.81 5.73 8.603l62.836 12.597c7.428 1.758 13.881-7.032 9.899-13.595-.713-1.269-1.654-3.305-2.442-4.661-4.596-7.905-9.929-13.24-12.785-18.197h22.216c9.283 14.656 24.07 24.89 41.211 28.325 4.26.854 8.515 1.269 12.719 1.269 21.608 0 41.796-10.964 53.543-29.594h19.813c-1.874 3.34-3.27 7.07-4.531 10.513-1.615 4.382-3.14 8.52-5.563 11.27-2.471 2.804-6.393 4.839-10.546 6.993-5.389 2.593-12.602 8.571-17.643 11.787-7.774 4.959-1.333 17.978 7.793 12.812 1.474-.834 2.616-2.115 3.856-3.151 4.194-3.663 7.729-6.017 12.727-8.473 4.922-2.554 10.502-5.449 14.781-10.304 4.228-4.797 6.397-10.685 8.311-15.881 1.933-5.891 4.535-10.399 7.965-15.567h98.148zm-218.57-27.637h70.529c-11.369 11.856-28.119 17.36-44.92 13.993-9.891-1.982-18.769-6.902-25.609-13.993zm258.427-14.618h-371.088c-3.493 0-6.334-2.842-6.334-6.334v-51.32c22.216 2.532 42.041 16.459 51.772 36.922 2.006 4.22 6.321 6.947 10.991 6.947h73.748c7.661.247 12.214-9.617 7.034-15.275-.949-1.105-1.878-2.261-2.862-3.485-3.603-4.771-8.28-9.448-13.053-13.049-3.648-2.929-7.094-5.695-8.966-8.931-1.834-3.171-2.516-7.528-3.238-12.141-.747-5.883-2.414-12.246-4.748-17.726-4.198-9.017-4.197-15.773 0-24.79 2.335-5.481 4.001-11.843 4.749-17.727.932-9.915 4.105-15.335 12.203-21.07 4.775-3.601 9.453-8.28 13.057-13.053 1.016-1.265 1.976-2.46 2.957-3.598 2.364-2.74 2.919-6.635 1.414-9.921-1.5-3.275-4.799-5.391-8.404-5.391h-73.815c-4.681 0-9 2.736-11.002 6.97-9.712 20.54-29.563 34.518-51.836 37.054v-51.321c0-3.493 2.842-6.334 6.334-6.334h371.088c3.493 0 6.334 2.842 6.334 6.334v51.321c-22.273-2.536-42.124-16.514-51.836-37.054-2.002-4.234-6.32-6.97-11.001-6.97h-73.814c-7.692-.245-12.196 9.659-6.991 15.312.981 1.138 1.94 2.332 2.956 3.596 3.604 4.774 8.282 9.455 13.058 13.056 8.1 5.736 11.271 11.158 12.203 21.073.747 5.882 2.414 12.245 4.748 17.724 4.199 9.017 4.198 15.774 0 24.791-2.335 5.48-4 11.842-4.749 17.726-.931 9.915-4.106 15.337-12.205 21.073-4.773 3.6-9.451 8.279-13.055 13.051-.982 1.222-1.91 2.377-2.859 3.482-5.179 5.658-.623 15.521 7.035 15.274h73.748c4.671 0 8.985-2.727 10.991-6.946 9.731-20.464 29.557-34.391 51.773-36.923v51.32c-.002 3.492-2.844 6.333-6.337 6.333zm48.442-119.019-27.489 5.511v-50.884c6.55-5.567 14.168-9.782 22.368-12.404l10.088 50.322c.685 3.423-1.542 6.768-4.967 7.455z"/><path d="m266.647 251.142c-4.091-1.446-9.115-3.364-11.641-5.34-.548-1.001-.003-3.845 1.989-4.398 4.126-1.241 6.893.89 6.893.89l1.596.81c7.338 3.725 14.178-5.782 8.315-11.556-1.528-1.409-4.179-3.098-7.603-4.15v-.264c0-4.037-3.272-7.309-7.309-7.309s-7.309 3.272-7.309 7.309v.685c-5.696 2.185-9.887 7.272-11.071 13.554-1.178 6.25.91 12.343 5.448 15.902 4.194 3.289 10.082 5.62 15.82 7.649 2.503.885 3.565 2.565 3.157 4.994-.321 1.91-1.965 5.15-6.094 5.177-4.475.03-5.524-.134-8.77-2.258-3.617-2.367-8.554-1.114-10.55 2.868-1.686 3.363-.368 7.484 2.792 9.524 3.463 2.236 6.26 3.393 9.267 3.968v.293c0 4.037 3.272 7.309 7.309 7.309s7.309-3.272 7.309-7.309v-1.125c6.761-2.558 11.893-8.534 13.152-16.022 1.586-9.435-3.518-17.955-12.7-21.201z"/><path d="m258.305 194.037c-35.076 0-63.613 28.537-63.613 63.613s28.537 63.613 63.613 63.613 63.612-28.537 63.612-63.613-28.536-63.613-63.612-63.613zm0 112.608c-27.016 0-48.995-21.979-48.995-48.995s21.979-48.995 48.995-48.995c27.015 0 48.995 21.979 48.995 48.995s-21.98 48.995-48.995 48.995z"/></g></svg>