<svg id="Capa_1" enable-background="new 0 0 512 512" height="512" viewBox="0 0 512 512" width="512" xmlns="http://www.w3.org/2000/svg"><g><path d="m393.346 173.071 21.326-1.87-1.311-14.943-21.015 1.842-12.642-68.705v-89.395h-19.488l-54.749 45.465c-12.886-3.826-27.88-6.483-44.67-6.483s-31.784 2.657-44.67 6.483l-54.747-45.465h-19.49v89.396l-5.518 29.993 14.752 2.715 5.766-31.339v-74.995l42.833 35.569c-6.671 2.812-12.496 5.807-17.403 8.64l7.5 12.99c15.003-8.662 39.496-18.987 70.979-18.987s55.976 10.325 70.979 18.987l7.5-12.99c-4.907-2.833-10.732-5.827-17.403-8.64l42.832-35.568v74.994l12.632 68.652-30.317 2.658 1.311 14.943 29.727-2.606c-1.457 9.394-5.362 18.752-11.426 27.59l-22.934-8.854-5.402 13.994 18.268 7.052c-3.918 4.007-8.314 7.836-13.156 11.431-22.95 17.038-53.06 26.811-82.609 26.811s-59.66-9.772-82.609-26.811c-4.843-3.595-9.239-7.424-13.157-11.431l18.268-7.052-5.402-13.994-22.934 8.854c-6.063-8.838-9.968-18.195-11.425-27.59l29.727 2.606 1.311-14.943-30.317-2.658 4.151-22.558-14.752-2.715-4.412 23.956-21.016-1.843-1.311 14.943 21.327 1.87c1.204 11.79 5.465 23.482 12.411 34.451l-23.324 9.004 5.402 13.994 27.255-10.522c5.495 6.301 11.938 12.24 19.253 17.67 7.092 5.265 14.796 9.903 22.926 13.858-21.093 25.921-30.491 51.621-28.684 78.31.509 7.512 1.861 14.755 3.792 21.793-1.451 1.658-3.017 3.376-4.655 5.164-2.032 2.219-4.181 4.565-6.338 7.06-1.106-1.529-2.165-3.076-3.131-4.65-11.654-18.997-13.961-42.418-6.854-69.614 2.38-9.111.309-15.694-1.848-19.611-2.91-5.285-7.714-9.031-13.527-10.551-5.812-1.518-11.835-.601-16.959 2.585-3.798 2.361-8.824 7.09-11.205 16.2-10.178 38.954-6.016 75.098 12.038 104.522 5.832 9.508 13.08 18.267 21.553 26.101-.198 12.705 3.711 27.612 14.45 45.31-14.554 5.158-25.009 19.054-25.009 35.352v22.504h270.001v-22.501c0-16.298-10.455-30.194-25.009-35.352 30.818-50.785 5.366-78.587-11.82-97.352-1.638-1.788-3.203-3.506-4.655-5.164 1.931-7.038 3.283-14.281 3.792-21.793 1.807-26.689-7.591-52.389-28.684-78.31 8.13-3.955 15.834-8.593 22.926-13.858 7.314-5.43 13.758-11.369 19.253-17.67l27.255 10.522 5.402-13.994-23.324-9.004c6.948-10.971 11.209-22.663 12.413-34.453zm-88.385 87.905c-6.882 11.794-20.811 21.459-44.162 21.459-23.348 0-37.277-9.665-44.16-21.459 14.324 4.214 29.31 6.459 44.16 6.459 14.851.001 29.837-2.244 44.162-6.459zm-29.162 51.46c0 8.271-6.729 15-15 15s-15-6.729-15-15 6.729-15 15-15 15 6.728 15 15zm-102.998 55.461c4.358 10.929 9.716 21.439 14.99 31.78 9.202 18.041 17.957 35.208 20.04 52.322h-40.594c-29.767-44.176-11.451-65.502 5.564-84.102zm-45.212 6.996c-16.093-26.229-19.562-57.48-10.31-92.887.895-3.426 2.49-5.935 4.613-7.254 1.593-.991 3.453-1.278 5.245-.811 1.79.468 3.274 1.63 4.179 3.272 1.206 2.19 1.37 5.158.475 8.585-8.178 31.301-5.29 58.638 8.583 81.25 1.928 3.143 4.112 6.202 6.482 9.163-2.875 4.437-5.415 9.279-7.28 14.597-4.529-4.985-8.545-10.304-11.987-15.915zm50.71 114.606v7.501h-37.501v-7.501c0-12.406 10.094-22.499 22.5-22.499h22.519c-4.719 6.271-7.518 14.064-7.518 22.499zm15 0c0-12.406 10.094-22.499 22.5-22.499h15c12.406 0 22.5 10.093 22.5 22.499v7.501h-60zm135 7.501h-60v-7.501c0-12.406 10.094-22.499 22.5-22.499h15c12.406 0 22.5 10.093 22.5 22.499zm52.5-7.501v7.501h-37.5v-7.501c0-8.435-2.8-16.228-7.518-22.499h22.518c12.406 0 22.5 10.093 22.5 22.499zm-26.439-37.499h-40.593c2.083-17.114 10.837-34.281 20.04-52.322 5.274-10.341 10.632-20.851 14.99-31.78 17.014 18.598 35.329 39.924 5.563 84.102zm-11.219-123.176c-1.525 22.528-12.289 43.631-22.697 64.038-9.709 19.034-19.705 38.648-21.757 59.138h-7.888c-8.435 0-16.228 2.8-22.5 7.519v-23.072h-15v23.072c-6.272-4.719-14.065-7.519-22.5-7.519h-7.888c-2.052-20.49-12.048-40.103-21.757-59.138-10.408-20.407-21.172-41.51-22.697-64.038-1.469-21.698 6.054-42.987 22.934-64.774 5.937 12.674 17.372 24.532 35.662 30.085-3.915 5.069-6.253 11.415-6.253 18.301 0 16.542 13.458 30 30 30s30-13.458 30-30c0-6.885-2.337-13.232-6.253-18.3 18.291-5.553 29.726-17.41 35.663-30.084 16.878 21.786 24.4 43.074 22.931 64.772z"/><path d="m208.299 121.167c-12.406 0-22.5 10.094-22.5 22.501h15c0-4.136 3.364-7.501 7.5-7.501 4.135 0 7.499 3.365 7.499 7.501h15c0-12.407-10.093-22.501-22.499-22.501z"/><path d="m313.299 136.167c4.136 0 7.5 3.365 7.5 7.501h15c0-12.407-10.094-22.501-22.5-22.501s-22.5 10.094-22.5 22.501h15c0-4.136 3.364-7.501 7.5-7.501z"/><path d="m238.898 195.478c-5.046 0-9.775-2.706-12.343-7.062l-12.922 7.617c5.252 8.909 14.933 14.444 25.265 14.444 8.654 0 16.441-3.772 21.811-9.756 5.37 5.984 13.157 9.756 21.811 9.756 10.332 0 20.013-5.535 25.265-14.444l-12.922-7.617c-2.567 4.355-7.297 7.062-12.343 7.062-5.861 0-10.905-3.546-13.115-8.602 9.778-4.131 16.554-14.696 16.554-24.07 0-9.252-6.633-19.139-25.25-19.139s-25.251 9.887-25.251 19.139c0 9.373 6.777 19.938 16.554 24.069-2.208 5.057-7.252 8.603-13.114 8.603zm21.812-36.811c2.404 0 10.25.299 10.25 4.139 0 4.189-4.691 10.861-10.25 10.861-5.56 0-10.251-6.672-10.251-10.861 0-3.84 7.846-4.139 10.251-4.139z"/><path d="m238.299 70.794h15v15h-15z"/><path d="m268.299 70.794h15v15h-15z"/><path d="m253.299 366.952h15v24.495h-15z"/><path d="m253.299 406.447h15v15h-15z"/></g></svg>