<?xml version="1.0" encoding="iso-8859-1"?>
<!-- Generator: Adobe Illustrator 19.0.0, SVG Export Plug-In . SVG Version: 6.00 Build 0)  -->
<svg version="1.1" id="Capa_1" xmlns="http://www.w3.org/2000/svg" xmlns:xlink="http://www.w3.org/1999/xlink" x="0px" y="0px"
	 viewBox="0 0 480 480" style="enable-background:new 0 0 480 480;" xml:space="preserve">
<g>
	<g>
		<path d="M408.392,422.976l-39.568,5.848l-22.288-150.92c30.6-8.52,50.88-38.72,46.128-70.944L368.112,40.752
			c-0.64-4.368-4.608-7.384-9.088-6.744l-110.8,16.368c-4.368,0.648-7.392,4.712-6.744,9.08l2.432,16.456l-107.16-19.776
			c-4.336-0.8-8.512,2.064-9.32,6.416L96.928,227.76c-5.904,32.032,13.288,62.936,43.552,72.552l-27.696,150.016l-39.328-7.256
			l-2.904,15.736l94.408,17.432l2.904-15.736l-39.336-7.264l27.696-150.024c1.224,0.072,2.456,0.168,3.672,0.168
			c30.248,0,57.224-21.6,62.912-52.384l26.096-141.344l17.136,116c4.696,31.752,32.088,54.648,63.272,54.648
			c0.464,0,0.936-0.096,1.392-0.104L353,431.152L313.424,437l2.344,15.832l94.968-14.024L408.392,422.976z M207.072,248.088
			c-4.816,26.024-29.936,43.264-55.912,38.488c-26.024-4.8-43.296-29.888-38.496-55.912l10.92-59.152l18.824-10.096
			c10.2-5.456,22.584-3.168,30.144,5.568c7.896,9.128,19.168,14,30.656,14c5.736,0,11.512-1.264,16.952-3.776L207.072,248.088z
			 M223.776,157.616l-9.664,4.8c-10.048,4.976-22.152,2.544-29.472-5.912c-12.48-14.432-32.944-18.216-49.8-9.192l-7.536,4.048
			l14.408-78.04l94.408,17.424L223.776,157.616z M258.48,65.032L353.456,51l9.936,67.272l-7.608,7.672
			c-7.856,7.96-20.12,9.56-29.784,3.928c-16.496-9.616-37.096-6.584-50.096,7.4l-5.832,6.264L258.48,65.032z M281.864,223.312
			l-8.792-59.512l14.552-15.64c7.864-8.456,20.32-10.312,30.312-4.48c15.632,9.12,35.32,6.696,48.36-5.76l10.544,71.352
			c3.864,26.2-14.296,50.648-40.48,54.512C310.144,267.68,285.736,249.488,281.864,223.312z"/>
	</g>
</g>
<g>
	<g>
		<path d="M304,312c-22.056,0-40-17.944-40-40c0-4.416-3.576-8-8-8s-8,3.584-8,8c0,22.056-17.944,40-40,40c-4.424,0-8,3.584-8,8
			c0,4.416,3.576,8,8,8c22.056,0,40,17.944,40,40c0,4.416,3.576,8,8,8s8-3.584,8-8c0-22.056,17.944-40,40-40c4.424,0,8-3.584,8-8
			C312,315.584,308.424,312,304,312z M256,339.176c-4.728-7.848-11.336-14.448-19.176-19.176
			c7.84-4.728,14.456-11.336,19.176-19.176c4.728,7.848,11.336,14.448,19.176,19.176C267.336,324.728,260.728,331.336,256,339.176z"
			/>
	</g>
</g>
<g>
	<g>
		<path d="M72,56c-13.232,0-24-10.768-24-24c0-4.416-3.576-8-8-8s-8,3.584-8,8c0,13.232-10.768,24-24,24c-4.424,0-8,3.584-8,8
			s3.576,8,8,8c13.232,0,24,10.768,24,24c0,4.416,3.576,8,8,8s8-3.584,8-8c0-13.232,10.768-24,24-24c4.424,0,8-3.584,8-8
			S76.424,56,72,56z M40,72.024c-2.28-3.032-4.984-5.744-8.024-8.024c3.04-2.28,5.744-4.992,8.024-8.024
			c2.28,3.032,4.984,5.744,8.024,8.024C44.984,66.28,42.28,68.992,40,72.024z"/>
	</g>
</g>
<g>
	<g>
		<path d="M472,32c-13.232,0-24-10.768-24-24c0-4.416-3.576-8-8-8s-8,3.584-8,8c0,13.232-10.768,24-24,24c-4.424,0-8,3.584-8,8
			s3.576,8,8,8c13.232,0,24,10.768,24,24c0,4.416,3.576,8,8,8s8-3.584,8-8c0-13.232,10.768-24,24-24c4.424,0,8-3.584,8-8
			S476.424,32,472,32z M440,48.024c-2.28-3.032-4.984-5.744-8.024-8.024c3.04-2.28,5.744-4.992,8.024-8.024
			c2.28,3.032,4.984,5.744,8.024,8.024C444.984,42.28,442.28,44.992,440,48.024z"/>
	</g>
</g>
<g>
	<g>
		<rect x="424" y="208" width="16" height="16"/>
	</g>
</g>
<g>
	<g>
		<polygon points="77.656,309.656 66.344,298.344 56,308.688 45.656,298.344 34.344,309.656 44.688,320 34.344,330.344 
			45.656,341.656 56,331.312 66.344,341.656 77.656,330.344 67.312,320 		"/>
	</g>
</g>
<g>
	<g>
		<rect x="16" y="408" width="16" height="16"/>
	</g>
</g>
<g>
	<g>
		<rect x="256" y="432" width="16" height="16"/>
	</g>
</g>
<g>
	<g>
		<rect x="464" y="464" width="16" height="16"/>
	</g>
</g>
<g>
	<g>
		<path d="M120,0v16c13.232,0,24,10.768,24,24h16C160,17.944,142.056,0,120,0z"/>
	</g>
</g>
<g>
	<g>
		<path d="M392,312h16c0-13.232,10.768-24,24-24v-16C409.944,272,392,289.944,392,312z"/>
	</g>
</g>
<g>
	<g>
		<path d="M168,408h16c0-17.648,14.352-32,32-32v-16C189.528,360,168,381.528,168,408z"/>
	</g>
</g>
<g>
	<g>
		<path d="M280,32h16c0-8.824,7.176-16,16-16V0C294.352,0,280,14.352,280,32z"/>
	</g>
</g>
<g>
	<g>
		<path d="M24,136v16c22.056,0,40,17.944,40,40h16C80,161.12,54.872,136,24,136z"/>
	</g>
</g>
<g>
	<g>
		<path d="M208,0c-13.232,0-24,10.768-24,24s10.768,24,24,24s24-10.768,24-24S221.232,0,208,0z M208,32c-4.416,0-8-3.592-8-8
			s3.584-8,8-8s8,3.592,8,8S212.416,32,208,32z"/>
	</g>
</g>
<g>
	<g>
		<path d="M440,344c-13.232,0-24,10.768-24,24s10.768,24,24,24s24-10.768,24-24S453.232,344,440,344z M440,376c-4.416,0-8-3.592-8-8
			c0-4.408,3.584-8,8-8c4.416,0,8,3.592,8,8C448,372.408,444.416,376,440,376z"/>
	</g>
</g>
<g>
	<g>
		<rect x="184" y="208" width="16" height="16"/>
	</g>
</g>
<g>
	<g>
		<rect x="336" y="184" width="16" height="16"/>
	</g>
</g>
<g>
	<g>
		<rect x="288" y="168" width="16" height="16"/>
	</g>
</g>
<g>
	<g>
		<rect x="312" y="224" width="16" height="16"/>
	</g>
</g>
<g>
	<g>
		<rect x="136" y="192" width="16" height="16"/>
	</g>
</g>
<g>
	<g>
		<rect x="144" y="248" width="16" height="16"/>
	</g>
</g>
<g>
</g>
<g>
</g>
<g>
</g>
<g>
</g>
<g>
</g>
<g>
</g>
<g>
</g>
<g>
</g>
<g>
</g>
<g>
</g>
<g>
</g>
<g>
</g>
<g>
</g>
<g>
</g>
<g>
</g>
</svg>
