<svg height="512pt" viewBox="-19 0 512 512.001" width="512pt" xmlns="http://www.w3.org/2000/svg"><path d="m422.128906 404.417969c-2.632812 0-5.257812.277343-7.792968.820312l-31.640626 6.71875-16.074218-75.621093c10.074218-4.835938 19.238281-11.433594 27.082031-19.601563l-10.765625-10.339844c-11.011719 11.46875-25.105469 19.289063-40.761719 22.617188-5.492187 1.167969-11.097656 1.761719-16.648437 1.761719-39.398438 0-73.019532-29.300782-78.585938-68.300782l7.925782-62.425781 82.417968-17.515625-3.101562-14.601562-77.328125 16.433593 5.027343-39.578125-30.746093-6.535156-1.796875-14.164062 132.574218-28.175782 18.71875 62.148438-31.847656 6.769531 3.101563 14.601563 33.066406-7.027344 16.835937 55.886718c2.261719 7.511719 3.410157 15.246094 3.410157 22.992188 0 15.867188-4.734375 31.261719-13.691407 44.511719l12.367188 8.359375c10.632812-15.730469 16.253906-34.011719 16.253906-52.871094 0-9.203125-1.363281-18.390625-4.046875-27.296875l-43.839843-145.53125-159.441407 33.890625 2.871094 22.621094-113.234375-24.070313-43.835938 145.53125c-2.683593 8.910157-4.042968 18.09375-4.042968 27.296875 0 14.453125 3.421875 28.972656 9.902344 41.988282l13.363281-6.648438c-5.457031-10.960938-8.339844-23.179688-8.339844-35.339844 0-7.746094 1.148437-15.480468 3.410156-22.992187l16.835938-55.886719 36.757812 7.8125 3.105469-14.597656-35.542969-7.554688 18.71875-62.152344 132.574219 28.179688-8.175781 64.390625-92.972657-19.761719-3.105468 14.601563 94.191406 20.019531-7.351562 57.90625c-5.035157 39.636719-38.898438 69.53125-78.769532 69.53125-5.554687 0-11.160156-.59375-16.65625-1.761719-19.144531-4.070312-36.046875-14.992187-47.585937-30.746093l-12.042969 8.820312c9.222656 12.59375 21.332031 22.566406 35.191406 29.230469l-16.082031 75.640625-31.628906-6.71875c-2.546875-.542969-5.171875-.820313-7.800781-.820313-17.5 0-32.835938 12.433594-36.46875 29.570313l-1.546876 7.296875 180.082032 38.269531 1.546875-7.300781c4.273437-20.132813-8.625-39.984375-28.746094-44.257813l-31.640625-6.726562 16.078125-75.632813c45.964844-1.316406 84.625-36 90.777344-81.84375 15.71875 28.878907 45.960937 48.417969 80.1875 49.402344l16.078125 75.632813-31.640625 6.726562c-20.125 4.273438-33.019531 24.128906-28.75 44.257812l1.550781 7.304688 180.082031-38.28125-1.546875-7.296875c-3.632812-17.132813-18.972656-29.566406-36.46875-29.566406zm-257.808594 70.625c9.515626 2.019531 16.335938 9.847656 17.546876 18.988281l-148.367188-31.53125c3.984375-6.480469 11.152344-10.710938 19.054688-10.710938 1.582031 0 3.152343.164063 4.6875.492188l46.238281 9.820312 18.6875-87.902343c2.378906.703125 4.789062 1.335937 7.230469 1.855469 2.441406.519531 4.894531.941406 7.363281 1.265624l-18.683594 87.890626zm128.496094-13.457031c1.207032-9.136719 8.03125-16.964844 17.546875-18.988282l46.242188-9.828125-18.683594-87.890625c2.464844-.324218 4.921875-.746094 7.359375-1.265625 2.445312-.519531 4.855469-1.136719 7.234375-1.839843l18.683594 87.890624 46.253906-9.824218c1.519531-.324219 3.09375-.492188 4.675781-.492188 7.898438 0 15.0625 4.226563 19.050782 10.703125zm0 0"/><path d="m147.476562 42.703125 10.554688-10.554687 24.664062 24.664062-10.554687 10.554688zm0 0"/><path d="m182.695312 77.921875 10.554688-10.554687 10.554688 10.554687-10.554688 10.554687zm0 0"/><path d="m291.988281 56.828125 24.667969-24.667969 10.554688 10.554688-24.667969 24.667968zm0 0"/><path d="m270.878906 77.9375 10.554688-10.554688 10.554687 10.554688-10.554687 10.554688zm0 0"/><path d="m229.878906 2.59375h14.925782v33.835938h-14.925782zm0 0"/><path d="m229.878906 51.355469h14.925782v14.925781h-14.925782zm0 0"/><path d="m434.875 363.332031h14.925781v14.925781h-14.925781zm0 0"/><path d="m434.875 313.574219h14.925781v14.925781h-14.925781zm0 0"/><path d="m459.753906 338.453125h14.925782v14.925781h-14.925782zm0 0"/><path d="m409.996094 338.453125h14.929687v14.925781h-14.929687zm0 0"/><path d="m24.878906 165.296875h14.925782v14.929687h-14.925782zm0 0"/><path d="m24.878906 115.542969h14.925782v14.925781h-14.925782zm0 0"/><path d="m0 140.417969h14.925781v14.929687h-14.925781zm0 0"/><path d="m49.757812 140.417969h14.925782v14.929687h-14.925782zm0 0"/><path d="m441.945312 35.433594-35.429687-35.433594-35.433594 35.433594 35.433594 35.433594zm-35.429687-14.324219 14.324219 14.324219-14.324219 14.324218-14.324219-14.324218zm0 0"/><path d="m124.5 56.332031-35.433594-35.433593-35.433594 35.433593 35.433594 35.429688zm-35.433594-14.324219 14.324219 14.324219-14.324219 14.324219-14.324218-14.324219zm0 0"/><path d="m420.945312 147.882812c0 12.347657 10.042969 22.390626 22.390626 22.390626 12.34375 0 22.390624-10.042969 22.390624-22.390626 0-12.347656-10.046874-22.390624-22.390624-22.390624-12.347657 0-22.390626 10.046874-22.390626 22.390624zm22.390626-7.464843c4.113281 0 7.460937 3.347656 7.460937 7.464843 0 4.117188-3.347656 7.464844-7.460937 7.464844-4.117188 0-7.464844-3.347656-7.464844-7.464844 0-4.117187 3.347656-7.464843 7.464844-7.464843zm0 0"/><path d="m39.308594 409.105469c12.347656 0 22.390625-10.042969 22.390625-22.390625 0-12.34375-10.042969-22.390625-22.390625-22.390625s-22.390625 10.046875-22.390625 22.390625c0 12.347656 10.042969 22.390625 22.390625 22.390625zm0-29.851563c4.117187 0 7.464844 3.347656 7.464844 7.460938 0 4.117187-3.347657 7.464844-7.464844 7.464844-4.117188 0-7.464844-3.347657-7.464844-7.464844 0-4.113282 3.347656-7.460938 7.464844-7.460938zm0 0"/><path d="m115 338.632812c-4.796875-2.960937-9.183594-6.554687-13.042969-10.6875l10.902344-10.191406c2.957031 3.164063 6.316406 5.914063 9.980469 8.175782zm-22.835938-24.332031c-5.082031-9.40625-7.769531-19.945312-7.769531-30.484375 0-.601562.007813-1.203125.023438-1.800781l14.921875.425781c-.015625.457032-.019532.914063-.019532 1.375 0 8.183594 2.011719 16.050782 5.976563 23.386719zm0 0"/><path d="m284.277344 142.929688-3.101563-14.601563 14.597657-3.101563 3.105468 14.601563zm29.203125-6.207032-3.105469-14.597656 34.488281-7.332031 3.105469 14.601562zm0 0"/><path d="m367.03125 300.890625-9.574219-11.453125c4.316407-3.605469 7.992188-7.953125 10.929688-12.914062 2.289062-3.867188 4.042969-7.972657 5.214843-12.210938l14.386719 3.980469c-1.523437 5.507812-3.796875 10.832031-6.753906 15.832031-3.804687 6.429688-8.582031 12.070312-14.203125 16.765625zm0 0"/></svg>