<?xml version="1.0" encoding="UTF-8"?>
<svg xmlns="http://www.w3.org/2000/svg" viewBox="0 0 512 512" width="512" height="512"><g id="Layer_21" data-name="Layer 21"><path d="M256,304a40,40,0,1,0-40-40A40.047,40.047,0,0,0,256,304Zm0-64a24,24,0,1,1-24,24A24.027,24.027,0,0,1,256,240Z"/><path d="M497.57,312.156,344,281.442V256a7.994,7.994,0,0,0-2.344-5.656L264,172.688V152h8a8,8,0,0,0,8-8V88h16a8,8,0,0,0,8-8V48a8,8,0,0,0-8-8H280V16a8,8,0,0,0-8-8H240a8,8,0,0,0-8,8V40H216a8,8,0,0,0-8,8V80a8,8,0,0,0,8,8h16v56a8,8,0,0,0,8,8h8v20.688l-77.656,77.656A7.994,7.994,0,0,0,168,256v25.442L14.43,312.156A8,8,0,0,0,8,320V496a8,8,0,0,0,8,8H496a8,8,0,0,0,8-8V320A8,8,0,0,0,497.57,312.156ZM240,72H224V56h16a8,8,0,0,0,8-8V24h16V48a8,8,0,0,0,8,8h16V72H272a8,8,0,0,0-8,8v56H248V80A8,8,0,0,0,240,72Zm16,115.312,72,72V488H312V376a56,56,0,0,0-112,0V488H184V259.312ZM248,488H216V376a40.067,40.067,0,0,1,32-39.191Zm16-151.191A40.067,40.067,0,0,1,296,376V488H264ZM24,326.555l144-28.8V488H136V400a40,40,0,0,0-80,0v88H24ZM120,488H72V400a24,24,0,0,1,48,0Zm320,0H392V400a24,24,0,0,1,48,0Zm48,0H456V400a40,40,0,0,0-80,0v88H344V297.758l144,28.8Z"/><path d="M417.27,228.328a8,8,0,0,0,13.46,0l59.024-91.812A89.547,89.547,0,0,0,504,88a80,80,0,0,0-160,0,89.547,89.547,0,0,0,14.246,48.516ZM424,24a64.073,64.073,0,0,1,64,64,73.553,73.553,0,0,1-11.707,39.859L424,209.2l-52.293-81.344A73.553,73.553,0,0,1,360,88,64.073,64.073,0,0,1,424,24Z"/><path d="M424,136a48,48,0,1,0-48-48A48.052,48.052,0,0,0,424,136Zm0-80a32,32,0,1,1-32,32A32.034,32.034,0,0,1,424,56Z"/></g></svg>
