<svg id="Layer_1" enable-background="new 0 0 512.093 512.093" height="512" viewBox="0 0 512.093 512.093" width="512" xmlns="http://www.w3.org/2000/svg"><g><path d="m435.277 278.236c-.562-3.661-3.71-6.365-7.414-6.365h-91.877v-69.811c0-14.18-6.326-27.42-17.356-36.325l-29.071-23.472 13.643-13.652 6.763 6.767c9.95 9.956 23.179 15.438 37.251 15.438 2.162 0 4.163 1.327 5.222 3.462 4.887 9.855 14.749 15.977 25.738 15.977 11.063 0 21.455-6.99 26.212-16.864 1.06-2.135 3.061-3.462 5.224-3.462 14.071 0 27.301-5.483 37.25-15.439l6.763-6.767 13.643 13.652-29.073 23.471c-11.029 8.905-17.354 22.145-17.354 36.326v42.728c0 9.697 15 9.697 15 0v-42.726c0-9.625 4.293-18.612 11.777-24.655l35.562-28.709c1.875-1.633 2.801-3.495 2.778-5.586 25.576-29.994 40.076-79.397 6.657-132.034-15.188-23.91-52.407-.346-37.184 23.63 22.505 35.445 9.371 63.079-.03 76.016-2.532-.614-4.892.044-7.081 1.976l-12.067 12.075c-7.116 7.121-16.578 11.042-26.642 11.042-2.768 0-5.44.565-7.903 1.599l-3.539-12.632c11.065-7.098 18.418-19.498 18.418-33.592v-16.98c0-15.718-5.151-28.722-15.312-38.649-20.938-20.458-55.682-19.897-57.146-19.862-4.073.094-7.326 3.423-7.326 7.498v67.993c0 14.784 8.09 27.705 20.07 34.596l-2.849 12.09c-2.154-.761-4.446-1.174-6.809-1.174-10.063 0-19.524-3.921-26.641-11.042l-12.069-12.074c-2.124-1.878-4.42-2.552-6.888-2.024-9.421-12.554-23.654-40.623-.648-76.855 15.048-23.703-21.789-47.866-37.185-23.629-33.604 52.927-18.756 102.588 7.084 132.532-.003.179-.009.357 0 .537.113 2.124 1.123 4.1 2.778 5.436l35.561 28.71c7.485 6.043 11.778 15.029 11.778 24.654v76.271l-20.309 71.887c-7.401 26.2-8.346 54.13-2.73 80.77l9.249 43.882c-6.199 1.586-11.884 4.806-16.527 9.452-9.973 9.978-2.71 27.562 11.397 27.594l34.319.053c10.093 0 18.968-8.823 18.968-18.933.938-15.627-2.752-31.342-4.978-46.71-4.366-30.147.234-60.614 13.304-88.122l-.467 7.851c-1.218 20.517 1.276 40.863 7.415 60.475l15.196 48.555c-5.896 1.651-11.302 4.787-15.75 9.237-9.973 9.978-2.71 27.562 11.397 27.594l34.319.053c10.093 0 18.968-8.823 18.968-18.933 1.531-18.221-5.286-36.966-9.1-54.544-5.767-26.581-4.374-54.307 4.026-80.178 6.06-18.658 12.265-36.518 9.181-56.64zm32.814-252.455c-4.708-7.413 6.992-15.213 11.857-7.549 28.004 44.108 17.435 85.413-3.132 111.483l-10.034-10.041c11.634-15.477 29.221-49.933 1.309-93.893zm-116.289 4.399c9.925.926 27.686 4.145 39.032 15.268 5.605 5.495 8.979 12.207 10.214 20.378h-49.246zm0 50.646h49.783v9.48c0 13.725-11.166 24.891-24.892 24.891s-24.892-11.166-24.892-24.891v-9.48zm24.892 49.371c2.551 0 5.043-.251 7.462-.71l5.484 19.575c-2.523 3.856-6.777 6.195-11.465 6.195-4.744 0-9.043-2.396-11.553-6.335l4.507-19.121c1.819.255 3.675.396 5.565.396zm-100.247-111.964c4.758-7.495 16.652-.004 11.858 7.547-28.372 44.683-9.738 79.545 1.875 94.639l-10.02 10.026c-20.946-26.025-31.978-67.692-3.713-112.212zm63.906 474.803c0 1.95-1.948 3.933-3.939 3.933l-34.319-.053c-1.155-.299-1.427-.962-.816-1.99 3.983-3.985 9.275-6.18 14.905-6.186h.012c.009 0 .019-.001.028-.001h24.13v4.297zm79.405 0c0 1.95-1.948 3.933-3.939 3.933l-34.319-.053c-1.155-.299-1.427-.962-.816-1.99 3.987-3.989 9.287-6.187 14.925-6.187h24.15v4.297zm1.771-158.17-6.111 18.815c-9.219 28.393-10.747 58.82-4.418 87.992l6.956 32.066h-16.837l-16.178-51.69c-5.593-17.87-7.865-36.41-6.756-55.104l1.961-32.996c.64-10.798-14.499-14.708-19.157-4.939l-10.741 22.509c-14.434 30.253-19.523 63.781-14.719 96.958l3.659 25.263h-16.901l-9.662-45.845c-5.117-24.275-4.257-49.725 2.488-73.598l19.048-67.425h87.263l2.615 17.074c1.579 10.308.711 21-2.51 30.92z"/><path d="m272.941 299.813c-37.322-15.993-43.017-44.761-42.939-61.124 2.558-1.194 4.335-3.783 4.335-6.792.694-39.993-27.14-67.049-66.752-66.236l-2.573-10.916c11.979-6.891 20.07-19.812 20.07-34.596v-16.98c.038-23.102-17.012-41.094-39.666-41.852-.084-.003-.167-.004-.251-.004-21.982 0-39.866 17.883-39.866 39.865v18.971c0 14.094 7.354 26.494 18.418 33.592l-3.539 12.631c-28.429-5.914-56.231 16.053-76.058 30.358-2.718 1.962-3.756 5.437-2.708 8.502-6.402 4.985-12.244 10.637-17.365 16.837-6.087 7.37 5.253 17.191 11.564 9.553 3.965-4.8 8.434-9.223 13.305-13.195l7.196 12.368c-15.168 13.129-36.096 40.596-22.865 86.094 2.452 8.433-10.958 12.657-13.493 3.94-6.408-22.037-6.323-42.774.254-61.635 3.192-9.158-10.97-14.093-14.164-4.938-7.623 21.863-7.789 45.671-.493 70.764 7.909 27.187 50.23 14.949 42.3-12.319-9.943-34.192 2.451-55.893 16.207-68.71 2.351 3.119 6.755 3.874 9.991 1.829l12.198-7.709v70.217c0 .64.089 1.257.239 1.85l-2.298 15.005c-2.638 17.221 2.973 35.021 15.01 47.618 11.713 12.257 25.287 25.108 16.771 43.798l-27.968 61.375c-.429.941-.675 2.068-.675 3.11v11.797c0 10.325 8.678 18.933 18.962 18.933l34.33-.054c14.108-.03 21.36-17.62 11.392-27.594-3.983-3.986-8.737-6.917-13.921-8.673l33.859-61.818c6.994-12.769 6.361-26.767 1.361-40.04l12.249 13.551c7.356 8.139 9.463 19.549 5.496 29.778l-23.816 61.406c-.331.855-.508 1.795-.508 2.712v11.797c0 10.325 8.679 18.933 18.963 18.933l34.329-.054c14.108-.03 21.361-17.619 11.393-27.594-4.215-4.217-9.289-7.26-14.827-8.972l27.697-64.225c5.742-13.314 4.538-28.577-3.221-40.828l-39.967-63.101v-12.643c11.902 19.625 30.538 35.562 54.707 45.919 25.813 11.058 43.696-29.206 17.337-40.501zm-127.902-223.5c8.356.318 15.494 4.378 19.988 10.639-13.451 16.198-35.385 17.123-44.729 16.689-.644-14.285 9.907-27.255 24.741-27.328zm-24.741 42.373c17.607.745 36.247-3.692 49.783-15.454v16.917c0 13.725-11.166 24.892-24.892 24.892s-24.892-11.167-24.892-24.892v-1.463zm24.892 41.354c1.889 0 3.746-.141 5.566-.397l4.501 19.096c-5.231 8.128-17.662 8.343-23.013.165l5.484-19.575c2.419.461 4.911.711 7.462.711zm-72.778 68.943-14.002-24.066 19.428-14.017c10.088-7.279 21.996-11.126 34.437-11.126 2.162 0 4.163 1.327 5.223 3.462 4.884 10.138 14.849 16.864 26.212 16.864 12.079 0 23.229-8.044 27.167-19.439h3.954c14.124 0 27.542 6.801 35.894 18.192 5.482 7.479 8.45 16.295 8.605 25.543h-18.432v-9.031c0-9.386-15-9.813-15 0v86.349h-84.851v-89.945c0-9.386-15-9.813-15 0v8.596zm69.041 267.058c-.296.716-.837.717-1.063.718l-34.33.054c-3.907 0-4.539-5.37-3.934-8.23h24.149c5.638 0 10.938 2.197 14.925 6.187.151.15.551.55.253 1.271zm79.406 0c-.296.717-.838.718-1.064.718l-34.329.054c-3.908 0-4.54-5.37-3.935-8.23h24.108c.013 0 .026.002.039.002.006 0 .012-.001.018-.001 5.633.004 10.927 2.2 14.911 6.186.149.149.549.55.252 1.271zm9.453-91.013-29.564 68.554h-15.764l19.856-51.194c6.03-15.547 2.829-32.89-8.354-45.26l-28.73-31.785c-7.524-8.376-22.742-1.054-16.792 10.38l9.563 27.373c2.689 7.7 1.985 16.219-1.934 23.374l-36.76 67.113h-15.547l23.134-50.766c11.288-24.774-3.353-43.404-19.576-60.381-8.843-9.254-12.966-22.332-11.028-34.984l1.645-10.737h88.811l38.922 61.452c5.103 8.06 5.895 18.101 2.118 26.861zm40.423-82.191c-2.054 3.778-5.129 5.008-9.223 3.69-21.994-9.425-38.388-23.377-48.725-41.467-9.528-16.675-11.882-33.311-11.888-45.664h14.092c.02 8.811 1.421 19.801 6.299 31.188 8.151 19.03 23.542 33.502 45.742 43.016 3.567 1.529 5.227 5.673 3.703 9.237z"/><path d="m74.786 378.982c-5.285-1.031-8.856-6.456-7.959-12.092 1.523-9.577-13.289-11.934-14.814-2.357-2.152 13.525 6.775 26.612 19.902 29.172 9.221 1.803 12.23-12.898 2.871-14.723z"/><path d="m63.96 400.913c-13.937-2.719-23.38-16.841-21.05-31.481 1.523-9.576-13.289-11.936-14.814-2.357-3.585 22.528 11.215 44.313 32.993 48.562 9.221 1.802 12.23-12.899 2.871-14.724z"/><path d="m461.346 330.53c1.338.984 2.894 1.458 4.437 1.458 2.305 0 4.578-1.059 6.048-3.058 8.113-11.034 6.178-26.757-4.314-35.05-3.249-2.568-7.967-2.016-10.534 1.234-2.568 3.25-2.017 7.966 1.233 10.535 4.226 3.339 4.912 9.797 1.531 14.396-2.455 3.337-1.739 8.031 1.599 10.485z"/><path d="m483.766 339.235c1.339.984 2.895 1.458 4.438 1.458 2.305 0 4.578-1.059 6.048-3.058 13.515-18.378 10.348-44.523-7.06-58.282-3.249-2.568-7.967-2.017-10.534 1.233-2.568 3.25-2.017 7.966 1.233 10.535 11.14 8.805 13.058 25.685 4.276 37.628-2.454 3.337-1.738 8.032 1.599 10.486z"/><path d="m212.977 56.068c4.109 8.509 17.759 2.289 13.51-6.52-2.341-4.851-.137-10.959 4.914-13.618 8.305-4.372 1.697-17.844-6.986-13.273-12.12 6.379-17.251 21.367-11.438 33.411z"/><path d="m195.692 64.779c5.413 0 9.117-5.855 6.749-10.762-6.172-12.789-.521-28.81 12.598-35.714 8.306-4.371 1.695-17.848-6.986-13.273-20.187 10.624-28.765 35.524-19.121 55.507 1.293 2.679 3.971 4.242 6.76 4.242z"/><g><path d="m88.652 14.268c-1.974-1.432-4.522-1.814-6.829-1.025l-43.022 14.713c-2.999 1.026-5.029 3.826-5.072 6.996l-.479 35.471c-.434-.04-.869-.078-1.312-.084-9.026-.122-16.442 7.097-16.564 16.123s7.097 16.442 16.123 16.564 16.442-7.097 16.564-16.123c.003-.217-.018-.429-.024-.644l.618-45.82 27.951-9.559-.328 24.283c-.442-.042-.886-.08-1.338-.086-9.026-.122-16.442 7.097-16.564 16.123s7.097 16.442 16.123 16.564 16.442-7.097 16.564-16.123c.001-.043-.005-.085-.005-.129l.689-51.072c.034-2.438-1.121-4.741-3.095-6.172z"/><path d="m502.511 416.777-25.396-25.396c-2.132-2.132-5.331-2.781-8.127-1.645-2.793 1.135-4.636 3.832-4.676 6.847l-.48 35.507c-.322-.024-.641-.058-.967-.062-8.836-.119-16.095 6.947-16.215 15.783-.119 8.836 6.947 16.095 15.782 16.215 8.836.119 16.095-6.947 16.215-15.783.003-.218-.018-.431-.024-.647l.447-33.045 12.833 12.833c2.929 2.929 7.678 2.93 10.606 0 2.931-2.93 2.931-7.678.002-10.607z"/></g></g></svg>