<svg id="_x33_0" enable-background="new 0 0 64 64" height="512" viewBox="0 0 64 64" width="512" xmlns="http://www.w3.org/2000/svg"><g><path d="m27.5 52.379h2v4.243h-2z" transform="matrix(.707 -.707 .707 .707 -30.19 36.115)"/><path d="m32 50.172h2v5.657h-2z" transform="matrix(.707 -.707 .707 .707 -27.811 38.858)"/><path d="m35.941 26.891.401-.602 1.21.605.895-1.789-2.79-1.395-1.38 2.07c-.508.764-1.36 1.22-2.277 1.22s-1.769-.456-2.277-1.219l-1.38-2.07-2.79 1.395.895 1.789 1.21-.605.401.602c.88 1.319 2.354 2.108 3.941 2.108s3.061-.789 3.941-2.109z"/><path d="m27 20c0-.551.448-1 1-1s1 .449 1 1v1h2v-1c0-1.654-1.346-3-3-3s-3 1.346-3 3v1h2z"/><path d="m35 20c0-.551.448-1 1-1s1 .449 1 1v1h2v-1c0-1.654-1.346-3-3-3s-3 1.346-3 3v1h2z"/><path d="m32 41c1.534 0 3.036-.622 4.121-1.707l.586-.586-1.414-1.414-.586.586c-.713.713-1.699 1.121-2.707 1.121s-1.994-.408-2.707-1.121l-.586-.586-1.414 1.414.586.586c1.085 1.085 2.587 1.707 4.121 1.707z"/><path d="m63 20v-4h-2v3h-2v-3h-2v3h-2v-3h-2v4c0 2.414 1.721 4.434 4 4.899v2.441c-1.178.556-2 1.746-2 3.133 0 1.225.635 2.329 1.667 2.957l-3.737 7.473-1.267-.985c-4.104-3.192-9.005-5.184-14.172-5.758-.413-.046-.758-.347-.859-.752l-.323-1.289c3.027-1.294 5.352-3.911 6.263-7.119h1.428c1.654 0 3-1.346 3-3 0-1.094-.595-2.043-1.472-2.568.683-1.187 1.139-2.496 1.339-3.851 1.302-1.101 2.133-2.745 2.133-4.581 0-3.309-2.691-6-6-6h-.172c-.048 0-.094.006-.142.007l-.181-.227c-1.922-2.403-4.789-3.78-7.865-3.78-1.925 0-3.789.564-5.391 1.632l-.552.368h-4.461c-2.336 0-4.236 1.9-4.236 4.236 0 .594.134 1.187.377 1.73-2.036 1.111-3.377 3.253-3.377 5.693 0 1.032.244 2.065.705 2.988l.866 1.732c-.931.509-1.571 1.487-1.571 2.621 0 1.654 1.346 3 3 3h1.426c.911 3.207 3.236 5.824 6.263 7.118l-.323 1.29c-.101.404-.445.705-.858.751-5.167.574-10.067 2.565-14.172 5.758l-1.267.985-3.737-7.473c1.033-.628 1.668-1.732 1.668-2.957 0-.5-.111-.973-.302-1.403l.966-.644c.837-.557 1.336-1.49 1.336-2.495v-11.101c0-.801-.313-1.555-.879-2.122l-.999-1c-.449-.449-1.071-.707-1.708-.707-1.331 0-2.414 1.083-2.414 2.414v13.639c-2.246.265-4 2.159-4 4.474v2.585c0 4.032 1.097 7.991 3.171 11.449 2.013 3.355 5.693 5.439 9.604 5.439 2.677 0 5.206-.939 7.225-2.65v1.867c-5.118 1.262-8 3.319-8 5.784 0 4.547 9.789 7 19 7 .572 0 1.146-.01 1.719-.028.094.008.185.027.281.027.212 0 .419-.023.619-.066 8.355-.417 16.381-2.817 16.381-6.934 0-2.471-2.882-4.523-8-5.782v-1.868c2.019 1.712 4.548 2.65 7.225 2.65 3.911 0 7.592-2.084 9.604-5.438 2.074-3.458 3.171-7.416 3.171-11.449v-2.585c0-2.316-1.754-4.209-4-4.474v-2.154c2.279-.466 4-2.486 4-4.9zm-7.816 1h5.631c-.414 1.161-1.514 2-2.816 2s-2.401-.839-2.815-2zm-11.184 2h-1.051c.03-.33.051-.662.051-1v-1h1c.552 0 1 .449 1 1s-.448 1-1 1zm-.496-4.059-.039.059h-.465v-2c.532 0 1.046-.076 1.538-.207-.251.757-.591 1.484-1.034 2.148zm-20.745-8.72 1.405-.234-.328-1.973-1.405.234c-.058.01-.11.032-.167.043l-.028-.055c-.154-.309-.236-.655-.236-1 0-1.233 1.003-2.236 2.236-2.236h5.066l1.056-.704c1.273-.848 2.752-1.296 4.282-1.296 2.181 0 4.227.866 5.736 2.397-1.149.378-2.204 1.016-3.083 1.896l1.414 1.414c1.101-1.101 2.564-1.707 4.121-1.707h.172c2.206 0 4 1.794 4 4s-1.794 4-4 4h-2c-1.103 0-2-.897-2-2s.897-2 2-2 2 .897 2 2h2c0-2.206-1.794-4-4-4s-4 1.794-4 4h-6c-1.103 0-2-.897-2-2s.897-2 2-2c.853 0 1.619.474 2 1.236l.105.211 1.789-.895-.105-.21c-.722-1.445-2.174-2.342-3.789-2.342-2.206 0-4 1.794-4 4 0 .291.035.572.094.846-1.239.742-2.634 1.154-4.094 1.154-1.103 0-2 .897-2 2v4h-.382l-1.124-2.248c-.323-.646-.494-1.37-.494-2.093 0-2.209 1.581-4.075 3.759-4.438zm-2.759 12.779c-.552 0-1-.449-1-1s.448-1 1-1h1v1c0 .338.021.67.051 1zm3-1v-7c1.782 0 3.498-.47 5.02-1.358.734.826 1.791 1.358 2.98 1.358h6.556c.694 1.19 1.97 2 3.444 2v5c0 4.962-4.037 9-9 9s-9-4.038-9-9zm9 11c.826 0 1.627-.099 2.401-.272l.291 1.165c.029.116.07.227.112.337-1.713.986-3.897.986-5.61 0 .042-.11.083-.22.112-.335l.292-1.166c.775.172 1.576.271 2.402.271zm-5.271 3.147c.409-.045.792-.181 1.137-.377 1.234.802 2.66 1.23 4.134 1.23s2.9-.428 4.134-1.229c.346.196.728.331 1.137.377.733.081 1.458.204 2.177.346l-.499 1.498c-.999 2.995-3.791 5.008-6.949 5.008s-5.95-2.013-6.949-5.009l-.499-1.498c.719-.142 1.444-.264 2.177-.346zm-19.315-23.147c.109 0 .216.044.293.121l1 1c.189.189.293.441.293.708v11.101c0 .335-.166.646-.445.832l-1.176.784c-.121-.077-.248-.145-.379-.207v-13.925c0-.228.186-.414.414-.414zm-4.414 18.528c0-1.394 1.134-2.528 2.528-2.528.812 0 1.472.661 1.472 1.472 0 .561-.312 1.065-.813 1.316l-1.187.594v4.618h1.882l.247.494-3.632 1.038c-.323-1.445-.497-2.925-.497-4.419zm30.843 29.44c-.474-.078-.843-.472-.843-.968 0-.552.448-1 1-1s1 .448 1 1c0 .464-.323.837-.752.95-.136.006-.268.014-.405.018zm3.144-.844 1.013-.506c.316.362.693.661 1.12.891-.707.104-1.459.188-2.233.261.056-.208.091-.423.1-.646zm4.013-1.124c-1.103 0-2-.897-2-2s.897-2 2-2 2 .897 2 2-.897 2-2 2zm-.399-5.96c-2.016.204-3.601 1.89-3.601 3.96 0 .287.033.566.091.836l-.712.356c-.549-.719-1.406-1.192-2.379-1.192-1.302 0-2.402.839-2.816 2h-2.772c-1.34 0-2.669-.443-3.742-1.247-1.046-.784-1.67-2.033-1.67-3.341 0-1.672.993-3.178 2.531-3.837l1.104-.475c3.41-1.461 7.32-1.461 10.727 0l.567.243c1.213.52 2.167 1.504 2.672 2.697zm-25.601 2.96c0-1.149 2.036-2.731 6.437-3.829-.275.703-.437 1.457-.437 2.241 0 1.934.924 3.781 2.471 4.94.828.622 1.779 1.057 2.775 1.33-7.079-.807-11.246-3.008-11.246-4.682zm34 0c0 1.07-1.708 2.354-4.782 3.354.486-.662.782-1.471.782-2.354 0-1.55-.894-2.881-2.186-3.545-.103-.457-.243-.901-.433-1.324 4.351 1.066 6.619 2.665 6.619 3.869zm9.114-11.467c-1.653 2.755-4.676 4.467-7.889 4.467-2.457 0-4.768-.957-6.505-2.694l-.72-.72v-1.172c0-.645.251-1.251.707-1.707l-1.414-1.414c-.834.834-1.293 1.942-1.293 3.121v5.375c-.135-.025-.268-.051-.405-.075-.556-.493-1.181-.91-1.876-1.208l-.567-.243c-3.91-1.676-8.392-1.676-12.304 0l-1.104.475c-.605.259-1.148.612-1.626 1.029-.04.007-.078.015-.117.023v-5.375c0-1.179-.459-2.287-1.293-3.121l-1.414 1.414c.455.455.706 1.062.706 1.706v1.172l-.72.72c-1.737 1.737-4.048 2.694-6.505 2.694-3.213 0-6.236-1.712-7.89-4.467-.773-1.289-1.388-2.657-1.856-4.073l4.009-1.146 3.066 6.132 1.789-.895-.913-1.827 1.583-1.231c2.697-2.098 5.77-3.625 9.035-4.535l.555 1.664c1.272 3.816 4.826 6.378 8.847 6.378s7.575-2.563 8.846-6.376l.555-1.664c3.265.91 6.338 2.436 9.035 4.535l1.583 1.231-.913 1.827 1.789.895 3.066-6.132 4.009 1.146c-.467 1.414-1.082 2.782-1.856 4.071zm2.886-13.005v2.585c0 1.493-.174 2.974-.497 4.419l-3.632-1.038.247-.494h1.882v-4.618l-1.187-.593c-.501-.251-.813-.756-.813-1.317 0-.811.66-1.472 1.472-1.472 1.394 0 2.528 1.134 2.528 2.528z"/></g></svg>