<svg id="Layer_1" enable-background="new 0 0 512 512" viewBox="0 0 512 512" xmlns="http://www.w3.org/2000/svg"><path d="m266.737 284.035c14.318 6.029 22.36 15.903 23.903 29.347.516 4.489.136 8.589-.267 12.93-.315 3.397-.642 6.91-.562 10.772.5 24.705 19.723 44.058 43.764 44.058 24.13 0 43.762-19.632 43.762-43.762v-126.825c0-43.944-35.752-79.696-79.696-79.696-43.945 0-79.697 35.752-79.697 79.696-.001 32.156 19.153 60.999 48.793 73.48zm48.134-136.868c9.703 2.64 18.513 7.453 25.885 13.882l-107.595 62.12c-.797-4.103-1.218-8.322-1.218-12.614 0-5.794.762-11.411 2.176-16.766zm-77.447 89.707 113.072-65.282c4.939 6.684 8.65 14.329 10.778 22.604l-109.633 63.296c-6.025-5.9-10.85-12.902-14.217-20.618zm34.747 34.259c-2.995-1.261-5.857-2.727-8.58-4.374l99.711-57.568c.009.455.035.906.035 1.363v27.443l-74.761 43.163c-4.568-3.974-10.036-7.345-16.405-10.027zm91.166 11.857-58.464 33.754c-.033-1.591-.126-3.233-.324-4.959-.843-7.34-3.123-13.962-6.723-19.799l65.511-37.823zm-59.469 50.501 59.469-34.334v28.827l-51.46 29.711c-4.897-5.362-7.902-12.641-8.069-20.894-.023-1.112.009-2.211.06-3.31zm29.707 33.651c-2.841 0-5.567-.39-8.142-1.108l36.997-21.359c-3.262 12.895-14.96 22.467-28.855 22.467zm-43.481-221.837-45.157 26.072c10.567-14.178 26.714-23.952 45.157-26.072zm-107.399-35.727c0-40.316-32.801-73.116-73.117-73.116s-73.116 32.8-73.116 73.116 32.801 73.117 73.117 73.117 73.116-32.8 73.116-73.117zm-132.233 0c0-32.597 26.52-59.116 59.116-59.116 32.598 0 59.117 26.52 59.117 59.116 0 32.598-26.52 59.117-59.116 59.117-32.598 0-59.117-26.519-59.117-59.117zm60.066 8.95-17.782 17.783c-1.367 1.367-3.159 2.051-4.95 2.051s-3.583-.684-4.949-2.05c-2.734-2.734-2.734-7.166-.001-9.899l17.784-17.784c.186-1.771.887-3.387 1.949-4.7v-33.267c0-3.866 3.134-7 7-7s7 3.134 7 7v33.265c1.249 1.545 2 3.51 2 5.652 0 4.649-3.527 8.474-8.051 8.949zm385.472 73.705c-3.866 0-7 3.134-7 7v59.718h-13.266v-59.718c0-3.866-3.134-7-7-7s-7 3.134-7 7v59.718h-13.264v-59.718c0-3.866-3.134-7-7-7s-7 3.134-7 7v59.718h-13.266v-59.718c0-3.866-3.134-7-7-7s-7 3.134-7 7v66.718c0 17.725 11.838 33.3 28.368 38.446v21.665c-.029.068-.064.133-.092.203-29.138 74.372-99.588 122.427-179.48 122.427-81.786 0-154.739-51.708-181.826-128.757 3.112-6.812 4.801-15.403 4.801-28.053 0-25.573-4.921-47.782-13.542-64.703.021-.106.047-.21.063-.318 1.25-8.242 3.058-16.441 5.372-24.456 11.922 4.99 25 7.752 38.711 7.752 7.706 0 15.212-.874 22.425-2.523-3.219 8.243-5.604 16.786-7.118 25.552-5.425 4.383-8.903 11.083-8.903 18.584 0 6.587 2.681 12.56 7.008 16.886-4.328 4.325-7.008 10.298-7.008 16.886 0 11.059 7.556 20.384 17.775 23.091 5.537 12.862 13.003 24.66 22.271 35.186l-22.734 22.734c-2.734 2.733-2.734 7.165 0 9.898l14.128 14.128c2.732 2.734 7.166 2.734 9.898 0l9.106-9.105 4.229 4.229-6.689 6.69c-2.734 2.733-2.734 7.165 0 9.898l14.129 14.129c1.366 1.367 3.158 2.051 4.949 2.051s3.583-.684 4.949-2.051l32.235-32.236c11.601 3.23 23.61 4.877 35.77 4.877 11.127 0 22.153-1.381 32.84-4.093 11.658 11.077 27.347 17.805 44.736 17.805 36.059 0 65.395-29.336 65.395-65.396v-126.822c0-55.873-45.456-101.33-101.33-101.33-18.78 0-36.378 5.141-51.474 14.081-13.343.973-26.243 3.887-38.532 8.695 1.648-7.213 2.522-14.718 2.522-22.423 0-13.711-2.762-26.789-7.752-38.71 17.346-5.012 35.344-7.559 53.595-7.559 73.638 0 141.846 42.907 173.769 109.311 1.205 2.506 3.707 3.969 6.313 3.969 1.017 0 2.05-.223 3.028-.693 3.484-1.675 4.951-5.857 3.275-9.342-16.629-34.592-42.529-63.855-74.898-84.628-33.249-21.339-71.8-32.617-111.486-32.617-20.456 0-40.626 2.979-60.012 8.853-17.571-29.417-49.726-49.162-86.41-49.162-55.459 0-100.578 45.119-100.578 100.578 0 36.683 19.744 68.837 49.159 86.408-1.455 4.806-2.729 9.682-3.831 14.596-10.334-11.726-23.427-18.349-38.328-18.349-3.866 0-7 3.134-7 7v284.237c0 10.769 8.761 19.53 19.529 19.53s19.529-8.761 19.529-19.529v-133.992c3.021-3.009 5.828-5.645 8.358-8.021 2.916-2.738 5.588-5.25 7.999-7.767 31.448 77.586 107.125 129.001 191.585 129.001 42.384 0 83.119-12.737 117.802-36.835 25.579-17.772 46.566-40.749 61.771-67.405v125.019c0 10.769 8.762 19.529 19.53 19.529s19.528-8.761 19.528-19.529v-179.073c16.531-5.146 28.369-20.721 28.369-38.447v-66.718c0-3.866-3.134-7-7-7zm-366.017 59.538c0-5.451 4.436-9.887 9.887-9.887s9.886 4.436 9.886 9.887-4.435 9.886-9.886 9.886-9.887-4.435-9.887-9.886zm28.215 28.006c0-5.451 4.435-9.887 9.886-9.887s9.887 4.436 9.887 9.887-4.436 9.886-9.887 9.886-9.886-4.434-9.886-9.886zm-18.328-4.121c1.609 0 3.146.387 4.526 1.101-.125.99-.198 1.997-.198 3.02 0 4.399 1.2 8.52 3.283 12.063-1.847 2.221-4.62 3.588-7.611 3.588-5.451 0-9.887-4.436-9.887-9.887s4.436-9.885 9.887-9.885zm12.502 100.075-4.229-4.229 56.348-56.348 4.229 4.229zm23.955-4.156 56.349-56.348 4.229 4.229-56.348 56.349zm6.719 29.998-4.229-4.229 56.348-56.349 4.229 4.23zm201.925-191.018v126.825c0 28.34-23.056 51.396-51.395 51.396-28.236 0-50.812-22.638-51.397-51.537-.061-3.008.232-6.079.542-9.331 1.114-11.709 2.642-27.746-18.945-36.836-32.479-13.677-53.465-45.281-53.465-80.517 0-48.154 39.176-87.33 87.33-87.33s87.33 39.175 87.33 87.33zm-161.283-69.195c-16.97 18.125-27.378 42.466-27.378 69.195 0 40.882 24.349 77.551 62.031 93.419 12.109 5.099 11.552 10.95 10.442 22.606-.334 3.504-.679 7.127-.602 10.941.266 13.121 4.144 25.211 10.648 35.337-7.489 1.453-15.129 2.205-22.831 2.205-8.169 0-16.257-.843-24.172-2.474l22.414-22.414c2.734-2.733 2.734-7.165 0-9.898l-9.18-9.18 6.69-6.691c2.734-2.733 2.734-7.165 0-9.898l-14.128-14.128c-2.732-2.734-7.166-2.734-9.898 0l-9.107 9.106-9.178-9.179c-1.313-1.313-3.094-2.051-4.95-2.051s-3.637.737-4.949 2.051l-33.586 33.586c-6.908-7.965-12.68-16.725-17.236-26.179 3.474-1.393 6.581-3.587 9.061-6.391 3.122 1.499 6.616 2.34 10.304 2.34 13.171 0 23.887-10.715 23.887-23.886s-10.716-23.887-23.887-23.887c-1.636 0-3.233.166-4.777.481.292-1.49.449-3.027.449-4.601 0-13.035-10.497-23.659-23.481-23.876 2.201-9.104 5.493-17.89 9.798-26.259 22.962-10.14 41.442-28.625 51.575-51.591 7.095-3.65 14.456-6.552 22.041-8.684zm-200.688-31.782c0-47.739 38.839-86.578 86.578-86.578 47.74 0 86.579 38.839 86.579 86.578 0 47.74-38.839 86.579-86.578 86.579-47.74 0-86.579-38.839-86.579-86.579zm5.529 379.422c-3.049 0-5.529-2.48-5.529-5.529v-103.004h11.059v103.004c0 3.049-2.481 5.529-5.53 5.529zm18.306-157.748c-3.181 2.985-6.785 6.37-10.777 10.446-1.281 1.308-1.999 3.066-1.999 4.897v19.871h-11.059v-159.526c13.54 2.805 22.468 13.446 27.797 22.579 9.143 15.671 14.178 37.818 14.178 62.362 0 22.34-4.94 26.977-18.14 39.371zm419.77-39.34c-3.433.509-5.975 3.455-5.975 6.925v184.634c0 3.049-2.48 5.529-5.529 5.529s-5.529-2.48-5.529-5.529v-184.634c0-3.47-2.542-6.416-5.975-6.924-10.383-1.539-18.689-9.207-21.429-18.962h65.866c-2.738 9.755-11.045 17.424-21.429 18.961z"/></svg>