<svg id="Layer_5" enable-background="new 0 0 64 64" height="512" viewBox="0 0 64 64" width="512" xmlns="http://www.w3.org/2000/svg"><g><path d="m43 37v-3h6c3.309 0 6-2.691 6-6v-10.91l1.178.526c.395.175.808.258 1.214.258 1.15 0 2.25-.665 2.747-1.782.671-1.512-.012-3.288-1.523-3.96l-7.333-3.259c-.052-.224-.101-.449-.185-.668-.479-1.246-1.415-2.231-2.636-2.774-1.892-.839-4.032-.406-5.456.929-1.591-3.227-4.903-5.36-8.61-5.36h-4.793c-5.294 0-9.603 4.308-9.603 9.604 0 1.033.166 2.054.493 3.037l.322.966c-.505.669-.815 1.492-.815 2.393 0 2.206 1.794 4 4 4h.589c.625 1.537 1.713 2.835 3.092 3.724l-.429 1.335-3.999.333c-4.628.385-8.253 4.325-8.253 8.969v1.639h-14v26h62v-26zm6-5h-8v5h-6.184c.112-.314.184-.648.184-1 0-1.654-1.346-3-3-3-.552 0-1-.449-1-1s.448-1 1-1 1 .449 1 1h2c0-.58-.173-1.117-.458-1.576l1.939-2.424h11.105l1.707 1.707 1.414-1.414-1.707-1.707v-6.586h4v8c0 2.206-1.794 4-4 4zm-19.837-8.715.535-2.671c.071-.356.385-.614.747-.614h3.109c.362 0 .677.258.748.613l.535 2.671c-.845.456-1.811.716-2.837.716s-1.992-.26-2.837-.715zm10.248-2.285h.589c2.206 0 4-1.794 4-4 0-.901-.31-1.724-.815-2.393l.215-.645c.306.234.633.446 1 .609.65.289 1.339.433 2.029.433.191 0 .38-.031.57-.053v11.049h-10.27l-.41-1.276c1.378-.889 2.467-2.187 3.092-3.724zm2.589-4c0 1.103-.897 2-2 2h-.069c.041-.328.069-.661.069-1v-3c1.103 0 2 .897 2 2zm11 1h-4v-3.59l4 1.787zm5.311-2.72c-.224.503-.815.732-1.318.509l-6.482-2.895c.189-.268.353-.556.489-.862.138-.31.241-.63.313-.954l6.489 2.884c.505.223.732.815.509 1.318zm-11.875-8.279c.406 0 .819.083 1.214.258.732.326 1.294.917 1.581 1.665.288.748.268 1.563-.059 2.295-.325.732-.916 1.293-1.664 1.581s-1.563.266-2.295-.058c-1.512-.672-2.195-2.449-1.523-3.96.496-1.116 1.595-1.781 2.746-1.781zm-22.436 11.999c-1.103 0-2-.897-2-2s.897-2 2-2v3c0 .339.028.672.069 1zm.006-6h-.006c-.536 0-1.045.11-1.512.301l-.097-.292c-.26-.778-.391-1.587-.391-2.405 0-4.193 3.411-7.604 7.604-7.604h4.793c3.39 0 6.358 2.254 7.294 5.493-.376 1.183-.296 2.417.175 3.499-.063.342-.145.683-.255 1.017l-.098.293c-.468-.192-.977-.302-1.513-.302v-4c0-2.206-1.794-4-4-4v2c1.103 0 2 .897 2 2s-.897 2-2 2-2-.897-2-2v-2h-2v1.994c-1.489-.033-2.819-.868-3.487-2.205l-.618-1.236-1.789.895.618 1.235c.051.102.115.192.171.29-1.766 1.068-2.858 2.941-2.889 5.027zm1.994 5v-4.91c0-1.508.83-2.864 2.169-3.553 1.068.927 2.444 1.463 3.921 1.463h.466c.694 1.19 1.97 2 3.444 2 .732 0 1.409-.212 2-.556v5.556c0 1.467-.531 2.812-1.409 3.856l-.327-1.635c-.258-1.287-1.397-2.221-2.709-2.221h-3.109c-1.313 0-2.451.934-2.709 2.221l-.327 1.635c-.879-1.044-1.41-2.389-1.41-3.856zm6 8c.873 0 1.711-.145 2.498-.405l.386 1.199-1.906 2.383c-.309-.107-.634-.177-.978-.177s-.669.07-.977.177l-1.906-2.383.386-1.199c.786.26 1.624.405 2.497.405zm-15 9.361c0-3.612 2.819-6.676 6.419-6.976l4.133-.345 1.907 2.383c-.286.46-.459.997-.459 1.577 0 1.654 1.346 3 3 3 .552 0 1 .449 1 1s-.448 1-1 1-1-.449-1-1h-2c0 .352.072.686.184 1h-6.184v-5h-2v9.382l-1.447.724.895 1.789 1.356-.678 1.782 1.783-2.586 2.586-2.828-2.829c-.756-.755-1.172-1.759-1.172-2.828zm8.171 15.639c-.488 0-.946-.19-1.292-.535l-1.465-1.465 2.586-2.586 1.467 1.467c.344.344.533.805.533 1.344 0 .979-.797 1.775-1.829 1.775zm2.711-4.533-.457-.457c.785-1.817 2.551-3.01 4.575-3.01 2.757 0 5 2.243 5 5s-2.243 5-5 5c-1.416 0-2.745-.601-3.685-1.629.429-.619.685-1.371.685-2.191 0-1.028-.396-1.991-1.118-2.713zm-12.882-7.467v2.929c0 1.604.624 3.11 1.758 4.243l5.707 5.708c.723.722 1.683 1.12 2.759 1.12.555 0 1.078-.128 1.554-.344 1.319 1.48 3.21 2.344 5.222 2.344 3.859 0 7-3.14 7-7s-3.141-7-7-7c-2.567 0-4.835 1.376-6.059 3.527l-2.941-2.941v-2.586h38v18h-58v-18zm-12 22v-2h58v2z"/><path d="m32 51c1.654 0 3-1.346 3-3s-1.346-3-3-3-3 1.346-3 3 1.346 3 3 3zm0-4c.552 0 1 .449 1 1s-.448 1-1 1-1-.449-1-1 .448-1 1-1z"/><path d="m55 55h2v-2h2v-2h-2v-10h-2v10h-2v2h2z"/><path d="m47 55h2v-6h2v-2h-2v-6h-2v6h-2v2h2z"/><path d="m11 49h-6v6h6zm-2 4h-2v-2h2z"/><path d="m13 55h6v-6h-6zm2-4h2v2h-2z"/><path d="m5 45h8v2h-8z"/><path d="m5 41h8v2h-8z"/><path d="m8 26c1.654 0 3-1.346 3-3v-10c0-.551.448-1 1-1h3v-2h-3c-1.654 0-3 1.346-3 3v7.184c-.314-.112-.648-.184-1-.184-1.654 0-3 1.346-3 3s1.346 3 3 3zm0-4c.552 0 1 .449 1 1s-.448 1-1 1-1-.449-1-1 .448-1 1-1z"/></g></svg>