<svg height="512" viewBox="0 0 128 128" width="512" xmlns="http://www.w3.org/2000/svg"><g id="Outline"><path d="m59.957 35.132a11.192 11.192 0 0 0 -2.238-.893 22.93 22.93 0 0 0 -2.564-.617c-.873-.165-1.759-.277-2.646-.372-.122-.034-.254-.022-.553.133a10.271 10.271 0 0 0 -1.042.752 1.057 1.057 0 0 1 -1.431-1.542l.056-.063a7.554 7.554 0 0 1 1.061-1.081 3.136 3.136 0 0 1 2.049-.718 27.54 27.54 0 0 1 2.911.209 25.942 25.942 0 0 1 2.906.51 12.082 12.082 0 0 1 2.978 1.078 1.5 1.5 0 0 1 -1.4 2.653l-.061-.034z"/><path d="m77.48 45.715a5.057 5.057 0 0 1 -7.815-.819 6.593 6.593 0 0 1 -1.1-4.349 1.5 1.5 0 0 0 -2.8-.894 19.206 19.206 0 0 0 -2.491-.274 1.5 1.5 0 0 0 -2.917.306 6.594 6.594 0 0 1 -1.984 4.024 5.067 5.067 0 0 1 -7.819-.817 6.62 6.62 0 0 1 -1.079-4.35 1.5 1.5 0 0 0 -2.984-.314 9.673 9.673 0 0 0 1.58 6.348 8.064 8.064 0 0 0 12.372 1.3 9.634 9.634 0 0 0 2.33-3.535 16 16 0 0 1 2.872.315 9.629 9.629 0 0 0 1.542 3.929 8.056 8.056 0 0 0 5.865 3.56 8.285 8.285 0 0 0 .883.047 7.847 7.847 0 0 0 4.054-1.122c-.163-1.117-.306-2.241-.509-3.355z"/><path d="m64.664 53.126a8.688 8.688 0 0 1 -2.756-.445c-.153-.051-.363-.122-.508-.155a1.5 1.5 0 0 1 -1.784-2.391 3.086 3.086 0 0 1 3.228-.3 5.73 5.73 0 0 0 3.218.121 1.5 1.5 0 0 1 .748 2.906 8.643 8.643 0 0 1 -2.146.264z"/><path d=""/><path d="m113.1 65.891c-5.635-2.691-17.784-6.421-29.29-9.452a.036.036 0 0 1 -.024-.05 39.357 39.357 0 0 0 1.991-5.4.032.032 0 0 1 .029-.024 5.4 5.4 0 0 0 4.839-4.522l1.291-8.214a5.361 5.361 0 0 0 -.079-2.068.043.043 0 0 1 0-.016c1-3.59 3.021-17.644-5.429-26.593-8.12-8.601-18.348-10.535-23.528-7.513l-.29.1a13.181 13.181 0 0 0 -3.6 1.006 23.713 23.713 0 0 0 -8.139 4.879c-7.19 6.783-8.784 13.912-9.719 21.23a.033.033 0 0 1 -.016.025 5.409 5.409 0 0 0 -2.669 4.849v.057c-4.867-.163-7.767 4.095-13.284 13.015-1.174 1.9-5.078 5.585-8.853 9.152-4.261 4.022-8.667 8.186-10.745 11.148-3.827 5.471-4.785 13.021-2.127 16.834 2.83 4.065 7.114 4.913 13.819 4.913 1.276 0 2.642-.031 4.1-.076a2.933 2.933 0 0 0 .455.827 2.968 2.968 0 0 0 2.068 1.094c2.143.171 4.609.306 7.049.306a37.6 37.6 0 0 0 7.483-.626.036.036 0 0 1 .042.027 110.264 110.264 0 0 1 2.5 14.629c.359 2.985.7 5.666 1.212 8.058a.035.035 0 0 1 -.036.043c-2.148-.108-4.634-.178-7.5-.178-10.831 0-16.367.986-17.806 1.289a3.492 3.492 0 0 0 -2.718 2.993.035.035 0 0 1 -.034.031h-5.1a4.924 4.924 0 0 0 -4.982 4.314 4.763 4.763 0 0 0 4.738 5.2h107.931a4.924 4.924 0 0 0 4.981-4.316 4.763 4.763 0 0 0 -4.738-5.2h-5.34a.036.036 0 0 1 -.035-.031 3.49 3.49 0 0 0 -2.718-2.993 60.873 60.873 0 0 0 -7.8-.959.035.035 0 0 1 -.035-.035c.024-.475 0-1.178-.051-2.252-.017-.4-.04-.917-.057-1.443a6.254 6.254 0 0 0 4.334 1 2.112 2.112 0 0 0 1.556-1.717c.283-1.783-.863-3.025-1.873-4.121-.237-.257-.481-.521-.7-.789a9.779 9.779 0 0 0 -1.26-4.375.033.033 0 0 1 .008-.048c1-.661 2.614-1.6 4.108-2.46 7.2-4.159 18.074-10.443 18.93-17.1.872-6.81-7.699-11.975-12.889-14.448zm-24.128-28.131-1.265 8.04a2.522 2.522 0 0 1 -2.557 2.2 2.407 2.407 0 0 1 -2.222-2.774l1.264-8.044a2.526 2.526 0 0 1 2.558-2.2 2.409 2.409 0 0 1 2.222 2.778zm-25.684-32.72a1.5 1.5 0 0 0 .841-.257c3.411-2.3 12.538-1.2 20.117 6.826 6.09 6.449 5.94 16.241 5.227 21.2a5.372 5.372 0 0 0 -1.815-.72.035.035 0 0 1 -.028-.033c-.13-8.907-3.154-16.412-8.56-20.71a22.131 22.131 0 0 0 -25.546-1.659 22.962 22.962 0 0 1 9.764-4.647zm-18.788 21.972c.908-4.069 3.27-8.856 8.832-13.5 7.575-6.32 17.741-4.689 23.868.188 4.748 3.776 7.381 10.537 7.441 18.646a.038.038 0 0 1 -.023.035 5.308 5.308 0 0 0 -1.208.64 5.371 5.371 0 0 0 -2.158 3.53l-1.291 8.214a5.412 5.412 0 0 0 2.814 5.614.035.035 0 0 1 .017.041 32.625 32.625 0 0 1 -3.792 8.519.116.116 0 0 1 -.21-.091 52.826 52.826 0 0 0 1.082-5.911c.028-.24.154-1.584.171-1.85.3-4.6-.414-8.963-3.358-11.742-5.534-5.226-7.925-11.607-9.847-16.734-1.595-4.256-2.748-7.331-5.227-8.256a3.187 3.187 0 0 0 -2.723.553c-3.053 1.949-8.816 9.292-11.448 14.934a.033.033 0 0 1 -.053.01 5.336 5.336 0 0 0 -3.066-1.278.035.035 0 0 1 -.032-.039c.071-.508.133-1.022.211-1.523zm28.24 28.594c-1.028.764-6.262 3.61-9.711 3.184s-7.852-4.428-8.667-5.415a22 22 0 0 1 -3.708-6.627 26.715 26.715 0 0 1 -1.094-4.686l-.29-8.31c0-.1-.029-.184-.037-.278 1.214-4.718 8.542-14.395 11.216-16.039a.508.508 0 0 1 .62.069c1.006.953 1.958 3.493 2.958 6.16a63.8 63.8 0 0 0 4.643 10.291.033.033 0 0 1 0 .041 1.5 1.5 0 0 0 1.5 2.5l.023-.007c.029-.009.067-.013.1-.022a32.718 32.718 0 0 0 4.343 5.062c2.2 2.08 2.668 5.73 2.423 9.438a1.912 1.912 0 0 1 -.318.968 17.976 17.976 0 0 1 -3.999 3.671zm3.465 1.112c-.271 1.269-.564 2.427-.825 3.4a20.59 20.59 0 0 0 -.134-2.634.036.036 0 0 1 .014-.032c.318-.245.633-.478.947-.734zm-5.813 9.97c-1.413 1.712-3.634 2.581-6.6 2.581-2.442 0-4.189-.646-5.343-1.975-1.394-1.605-1.97-4.3-1.75-7.989a.037.037 0 0 1 .057-.03 14.386 14.386 0 0 0 5.918 2.493c3.285.4 7.218-1.2 9.66-2.461a.035.035 0 0 1 .052.031c.06 2.079-.203 5.179-1.992 7.35zm-25.072-12.977a8.123 8.123 0 0 0 -2.62-3.364.8.8 0 0 1 -.347-.485.7.7 0 0 1 .2-.475c.464-.542.916-1.137 1.346-1.755.086 0 .383.023.448.02a5.362 5.362 0 0 0 3.053-1.087.034.034 0 0 1 .053.017 25.638 25.638 0 0 0 4.163 8.144.036.036 0 0 1 -.017.056c-7.777 2.6-20.993 9.766-22.89 10.723a.037.037 0 0 1 -.051-.048 48.947 48.947 0 0 1 4.049-7.614c.019-.028 2.009-2.708 7.528-.278 2.148.947 3.47.2 4.065-.325a3.554 3.554 0 0 0 1.02-3.529zm-1.534-22.175h.086a2.406 2.406 0 0 1 2.4 2.322l.29 8.31a2.406 2.406 0 0 1 -4.81.167l-.289-8.309a2.409 2.409 0 0 1 2.323-2.49zm-26.5 44.645a1.5 1.5 0 0 0 -.7 2.238 1.583 1.583 0 0 0 1.926.5 10.528 10.528 0 0 0 2.838-1.757.035.035 0 0 1 .059.017 32.006 32.006 0 0 1 -.013 8.953.038.038 0 0 1 -.037.034c-8.992.273-13.028-.086-15.439-3.547-1.711-2.458-1.259-8.564 2.124-13.4 1.9-2.716 6.2-6.772 10.348-10.695 4.273-4.038 7.963-7.524 9.343-9.754 5.913-9.549 7.909-11.785 10.8-11.6a.037.037 0 0 1 .036.037l.182 5.222a5.373 5.373 0 0 0 1.718 3.771 5.436 5.436 0 0 0 .493.38c-.214.276-.436.556-.692.855a2.444 2.444 0 0 0 -.206.289 10.551 10.551 0 0 0 -4.246-1.441 1.562 1.562 0 0 0 -1.639 1.087 1.5 1.5 0 0 0 1.359 1.9 8.238 8.238 0 0 1 3.45 1.306c.226.139 1.37.917 1.519 1.021 1.333.933 2.757 2.126 1.92 3.214-.148.193-.45.239-.982.005-6.175-2.721-9.934-.471-11.182 1.285a52.74 52.74 0 0 0 -4.452 8.365c-2.313 5.028-4.699 10.223-8.528 11.715zm21.627 6.165a1.578 1.578 0 0 0 -1.777-1.009 1.5 1.5 0 0 0 -1.051 2.014c.6 1.511 1.1 3 1.552 4.484a.035.035 0 0 1 -.027.047 54.465 54.465 0 0 1 -13.4.261.038.038 0 0 1 -.034-.043c1.073-8.014.289-11.856-.386-13.566a.031.031 0 0 1 0-.032 32.673 32.673 0 0 0 2.754-4.608.033.033 0 0 1 .018-.017c3.389-1.553 18.993-10.029 27.25-12.664a.038.038 0 0 1 .049.04c-.637 5.522.108 9.472 2.311 12.008 1.733 2 4.292 3.007 7.607 3.008 3.908 0 6.909-1.236 8.918-3.673a11.677 11.677 0 0 0 2.336-5.212 2.342 2.342 0 0 0 1.026 1.116 2.284 2.284 0 0 0 2.85-.5 28.768 28.768 0 0 0 3.446-4.808.037.037 0 0 1 .041-.017c11.537 3.017 23.829 6.768 29.415 9.431.508.242 1 .488 1.474.736-5.172 3.557-9.769 9.2-13.993 14.883l-.249.334a21.365 21.365 0 0 0 -4.557-1.391 1.5 1.5 0 1 0 -.555 2.948 18.778 18.778 0 0 1 3.216.91.037.037 0 0 1 .014.057 54.9 54.9 0 0 0 -6.323 9.973.029.029 0 0 1 -.017.017c-1.8.727-4.694 3.97-5.231 4.563a.036.036 0 0 1 -.062-.027c.394-7.367.845-16.229.845-18.287a5.311 5.311 0 0 0 -1.852-4.191 5.13 5.13 0 0 0 -4.175-1.089c-12.006 2.26-22.127 2.429-30.085.5a4.626 4.626 0 0 0 -4.127 1.126 5.048 5.048 0 0 0 -1.684 4.357c.435 3.729 1.62 10.572 2.766 17.19.873 5.04 1.7 9.846 2.138 12.889a.034.034 0 0 1 -.039.04c-1.072-.138-2.386-.28-3.986-.406a.037.037 0 0 1 -.034-.028 77.482 77.482 0 0 1 -1.341-8.633c-.766-6.385-1.719-14.317-5.042-22.731zm40.031 31.467a.034.034 0 0 1 -.031.042 53 53 0 0 0 -5.7.785 3.492 3.492 0 0 0 -2.718 2.993.035.035 0 0 1 -.034.031h-15.254a.036.036 0 0 1 -.035-.031 3.491 3.491 0 0 0 -2.691-2.987.033.033 0 0 1 -.027-.028c-.4-3.022-1.314-8.334-2.282-13.922-1.139-6.578-2.317-13.379-2.743-17.027a2.039 2.039 0 0 1 .694-1.762 1.657 1.657 0 0 1 1.431-.456c8.492 2.058 18.746 1.905 31.347-.468a2.124 2.124 0 0 1 1.7.45 2.312 2.312 0 0 1 .767 1.882c0 2.443-.685 15.325-1.1 22.957a.033.033 0 0 1 0 .016c-1.023 1.71-2.3 4.136-3.033 5.531a2.922 2.922 0 0 0 -.292 1.994zm-61.484 3.763a94.851 94.851 0 0 1 17.188-1.225 94.842 94.842 0 0 1 17.188 1.225.438.438 0 0 1 .178.088h-34.732a.438.438 0 0 1 .178-.088zm99.462 3.088a1.761 1.761 0 0 1 1.739 2.027 1.85 1.85 0 0 1 -1.867 1.491h-107.916a1.85 1.85 0 0 1 -1.867-1.491 1.761 1.761 0 0 1 1.739-2.027zm-8.711-3.088a.438.438 0 0 1 .178.088h-34.732a.438.438 0 0 1 .178-.088 83.815 83.815 0 0 1 13.742-1.187.031.031 0 0 1 .019.006 3.353 3.353 0 0 0 1.893.514h.027a2.226 2.226 0 0 0 1.411-.55l.023-.008c2 0 3.862.035 5.581.1h.011a3.2 3.2 0 0 0 2.173.1h.011a68.014 68.014 0 0 1 9.485 1.025zm-22.511-4.134c.219-.252.445-.515.685-.8a7.2 7.2 0 0 0 -.076.779zm7.2-.079c.21-.454.419-.924.633-1.415.049-.114.1-.235.157-.36l.107.379c.153.54.287 1 .414 1.416q-.641-.012-1.311-.02zm30.111-33.413c-.667 5.188-11.177 11.26-17.455 14.888-3.6 2.08-5.2 3.033-5.888 3.906-.039.05-.172.248-.2.3a1.5 1.5 0 0 0 .5 2.061c.972.592 1.181 2.783 1.249 3.5a2.3 2.3 0 0 0 .5 1.239c.365.483 3.032 2.341 2.751 2.762-.45.676-2.873-1.642-3.486-2.343a1.668 1.668 0 0 0 -1.908-.516c-1.36.545-1.292 2.077-1.128 5.777a10.847 10.847 0 0 1 .054 2.021c-.058.18-.389.2-.542-.016a14.217 14.217 0 0 1 -.774-2.378c-.757-2.681-1.3-4.615-3.1-4.25-1.231.253-1.58 1.566-2.557 3.807-.379.87-1.122 3.866-1.82 3.464-.87-.5 1.047-5.641.422-6.828a1.172 1.172 0 0 0 -1.565-.558c-1.268.422-5.77 7.279-6.354 6.565-.722-.882 5.669-8.976 7.386-10.928a7.343 7.343 0 0 1 5.904-3.147 1.5 1.5 0 0 0 1.4-1.793 1.577 1.577 0 0 0 -1.7-1.193c-.041 0-.083.007-.126.009a81.624 81.624 0 0 1 6.088-8.9l1.037-1.39c4.405-5.922 9.2-11.8 14.482-14.985a.038.038 0 0 1 .04 0c4.66 2.963 7.146 6.156 6.79 8.926z"/></g></svg>