<svg height="511pt" viewBox="-42 0 511 511.99848" width="511pt" xmlns="http://www.w3.org/2000/svg"><path d="m417.457031 347.589844c2.320313-6.039063 4.226563-12.21875 5.671875-18.410156 4.941406-21.136719 4.914063-43.761719-.082031-65.414063-1.855469-8.085937-8.710937-13.652344-17.054687-13.851563-.15625-.003906-.308594-.007812-.460938-.007812-8.148438 0-15.042969 5.1875-17.246094 13.03125-2.644531 9.441406-6.722656 19.207031-12.453125 29.847656-3.410156 6.308594-7.464843 12.304688-12.078125 17.878906-.875-8.867187-2.886718-17.640624-6.027344-26.0625-6.578124-17.621093-17.890624-33.148437-32.472656-44.820312 19.621094-16.746094 31.34375-41.585938 31.34375-67.796875v-12.769531c0-3.296875-.183594-6.589844-.542968-9.863282l6.484374 3.125c5.648438 2.714844 11.945313 4.148438 18.21875 4.148438 24.410157 0 43.605469-20.464844 41.921876-44.914062l-2.5-36.140626c-2.917969-42.375-38.484376-75.570312-80.96875-75.570312h-18.492188c-7.136719 0-14.183594 1.890625-20.378906 5.464844l-17.378906 10.027344c-13.492188-9.898438-29.996094-15.492188-47.378907-15.492188h-43.78125c-17.378906 0-33.886719 5.59375-47.375 15.492188l-17.382812-10.027344c-6.195313-3.574219-13.242188-5.464844-20.378907-5.464844h-18.488281c-42.484375 0-78.050781 33.195312-80.96875 75.570312l-2.5 36.140626c-2.265625 32.867187 31.738281 54.421874 60.144531 40.761718l6.480469-3.117187c-.363281 3.269531-.546875 6.566406-.546875 9.863281v12.769531c0 26.199219 11.71875 51.027344 31.324219 67.773438-7.84375 6.25-14.707031 13.59375-20.488281 21.941406-2.359375 3.40625-1.511719 8.078125 1.894531 10.4375 1.300781.898437 2.789063 1.332031 4.265625 1.332031 2.375 0 4.714844-1.125 6.171875-3.226562 5.253906-7.585938 11.550781-14.203125 18.792969-19.761719 7.53125 22.554687 28.851562 38.859375 53.90625 38.859375 2.675781 0 5.3125-.183594 7.898437-.542969 8.917969 12.625 23.457031 20.273438 39.140625 20.273438s30.226563-7.648438 39.140625-20.273438c2.589844.359375 5.226563.542969 7.898438.542969 25.046875 0 46.363281-16.292969 53.902343-38.835938 13.082032 10.089844 23.226563 23.757813 29.039063 39.339844 7.066406 18.929688 7.445313 39.914063 1.070313 59.085938l-32.734376 98.449218c-2.671874-.386718-5.394531-.585937-8.15625-.585937-14.652343 0-28.261718 5.617187-38.578124 14.902344v-62.722657c0-.214843 0-.425781-.003907-.636718v-63.070313c0-4.140625-3.355469-7.5-7.5-7.5-4.140625 0-7.5 3.359375-7.5 7.5v27.371094c-9.347656-9.414063-22.296875-15.25-36.578125-15.25s-27.230468 5.835937-36.578125 15.25v-27.371094c0-4.140625-3.359375-7.5-7.5-7.5-4.144531 0-7.5 3.359375-7.5 7.5v63.070313c-.003906.210937-.003906.421875-.003906.636718v62.722657c-10.316406-9.285157-23.925781-14.902344-38.578125-14.902344-2.757812 0-5.484375.199219-8.15625.585937l-32.734375-98.449218c-3.246094-9.757813-4.761719-19.847656-4.542969-29.917969.027344-.234375.042969-.476563.046875-.71875.003907-.171875 0-.347656-.011719-.519531.28125-7.773438 1.589844-15.535156 3.9375-23.117188 1.226563-3.957031-.992187-8.15625-4.949218-9.382812-3.957032-1.226563-8.15625.992187-9.378906 4.949218-2.113282 6.820313-3.507813 13.765626-4.183594 20.746094-15.347656 1.46875-30.175782 8.308594-40.800782 18.992188-19.269531 19.386718-26.769531 49.894531-19.570312 79.617187 5.890625 24.328125 21.199219 47.917969 44.277344 68.21875 6.335937 5.570313 12.925781 10.648438 19.503906 15.296875-.203125 1.019532-.382812 2.050782-.53125 3.089844-.570312 3.945312.605469 7.941406 3.230469 10.96875 2.65625 3.070312 6.507812 4.828125 10.5625 4.828125 91.867187-.03125 86.6875.082031 88.203125-.089844.96875.152344 89.714844.125 90.515625 0 1.515625.171875-3.730469.058594 88.203125.089844 4.058594 0 7.90625-1.757813 10.5625-4.828125 2.625-3.027344 3.800781-7.023438 3.234375-10.964844-.152344-1.046875-.332031-2.078125-.539063-3.101562 7.222656-5.097656 13.636719-10.128906 19.507813-15.292969 12.554687-11.039063 22.835937-23.054687 30.558593-35.699219 2.160157-3.535156 1.042969-8.152344-2.492187-10.3125-3.53125-2.15625-8.148437-1.042968-10.308594 2.492188-6.933593 11.363281-16.242187 22.214844-27.660156 32.257812-4.511719 3.96875-9.386719 7.863282-14.765625 11.792969-6.167969-12.015625-16.429688-21.550781-28.792969-26.867187l32.519531-97.796876c2.972657-8.945312 4.691407-18.234374 5.152344-27.570312.292969.039062.585938.078125.878906.121094.28125.0625.5625.105468.847657.132812 10.636719 1.734375 20.734375 6.75 28.132812 14.191406 15.386719 15.476563 21.519531 41.191407 15.625 65.546876-.238281 1.003906-.515625 2.046874-.839843 3.195312-1.132813 3.984375 1.183593 8.132812 5.167968 9.261719.683594.195312 1.375.289062 2.050782.289062 3.269531 0 6.273437-2.15625 7.210937-5.453125.386719-1.359375.714844-2.609375.996094-3.792968 5.28125-21.8125 2.648437-44.046876-6.742188-61.996094zm-359.109375-208.632813c-4.46875 2.148438-9.613281 3.023438-14.507812 2.527344-14.558594-1.507813-25.175782-14.132813-24.167969-28.742187l2.5-36.140626c2.375-34.542968 31.371094-61.601562 66.003906-61.601562h18.488281c4.511719 0 8.964844 1.195312 12.882813 3.457031l13.144531 7.582031c-4.429687 4.851563-8.300781 10.296876-11.488281 16.25l-39.699219 74.191407c-2.449218 4.578125-4.492187 9.359375-6.117187 14.273437zm27.4375 33.027344v-12.769531c0-12.390625 3.09375-24.722656 8.941406-35.660156l39.699219-74.1875c3.882813-7.25 9.007813-13.5625 15.03125-18.726563.320313-.230469.621094-.484375.90625-.761719 11.460938-9.46875 26.023438-14.878906 41.4375-14.878906h43.78125c15.414063 0 29.980469 5.410156 41.441407 14.878906.28125.28125.585937.535156.902343.761719 6.027344 5.167969 11.148438 11.476563 15.03125 18.722656l3.628907 6.792969c1.953124 3.652344 6.5 5.03125 10.152343 3.074219 3.652344-1.953125 5.027344-6.496094 3.078125-10.148438l-3.636718-6.792969c-3.1875-5.957031-7.058594-11.398437-11.484376-16.25l13.144532-7.585937c3.914062-2.257813 8.371094-3.453125 12.878906-3.453125h18.492188c34.632812 0 63.625 27.058594 66.003906 61.605469l2.5 36.136719c1.007812 14.609374-9.609375 27.234374-24.148438 28.742187-5.015625.503906-10.0625-.382813-14.523437-2.527344l-17.042969-8.203125c-1.625-4.917968-3.671875-9.699218-6.121094-14.277344l-20.328125-37.988281c-1.953125-3.652343-6.496093-5.027343-10.152343-3.074219-3.648438 1.953126-5.027344 6.5-3.070313 10.152344l20.328125 37.988282c5.847656 10.9375 8.941406 23.269531 8.941406 35.660156v12.769531c0 21.011719-9.0625 40.964844-24.332031 54.847656-2.863281-28.667969-27.125-51.128906-56.535156-51.128906h-3.761719c.039062-.820313.0625-1.648437.0625-2.484375 0-4.742188-2.066406-13.527344-15.910156-19.074219-7.367188-2.949219-17.109375-4.574219-27.429688-4.574219-10.320312 0-20.0625 1.625-27.425781 4.574219-13.84375 5.546875-15.910156 14.332031-15.910156 19.074219 0 .835938.019531 1.664062.058593 2.484375h-3.761718c-29.410156 0-53.671875 22.460937-56.535156 51.128906-15.269532-13.882812-24.332032-33.832031-24.332032-54.847656zm100.570313 9.539063c-.015625-.0625-.03125-.128907-.046875-.195313-.621094-2.585937-.953125-5.304687-.953125-8.109375 0-3.441406 11.300781-8.648438 28.335937-8.648438 8.335938 0 16.300782 1.277344 21.851563 3.5 3.941406 1.578126 6.488281 3.601563 6.488281 5.148438 0 2.804688-.332031 5.523438-.953125 8.109375-.015625.066406-.03125.132813-.046875.195313-3.285156 13.347656-14.296875 23.183593-27.339844 23.183593-13.039062 0-24.050781-9.835937-27.335937-23.183593zm27.335937 112.550781c-8.941406 0-17.34375-3.621094-23.441406-9.808594 9.449219-4.289063 17.574219-11.117187 23.441406-19.796875 5.867188 8.679688 13.996094 15.507812 23.445313 19.796875-6.101563 6.1875-14.503907 9.808594-23.445313 9.808594zm47.039063-19.730469c-3.242188 0-6.410157-.367188-9.460938-1.066406-.230469-.066406-.457031-.121094-.6875-.164063-13.90625-3.441406-25.273437-13.835937-29.738281-27.996093-.984375-3.121094-3.878906-5.242188-7.152344-5.242188-3.273437 0-6.167968 2.121094-7.152344 5.242188-4.464843 14.160156-15.832031 24.558593-29.738281 27.996093-.226562.042969-.453125.097657-.679687.160157-3.050782.703124-6.222656 1.070312-9.464844 1.070312-21.375 0-39.054688-16.121094-41.523438-36.839844-.015624-.160156-.03125-.316406-.054687-.476562-.160156-1.476563-.242187-2.980469-.242187-4.503906 0-23.058594 18.757812-41.820313 41.816406-41.820313h6.882812c6.457032 16.992187 22.023438 29.003906 40.15625 29.003906 18.136719 0 33.703125-12.007812 40.15625-29.003906h6.882813c23.058593 0 41.820312 18.761719 41.820312 41.820313 0 1.523437-.082031 3.03125-.242187 4.515624-.023438.15625-.042969.316407-.054688.472657-2.472656 20.714843-20.152344 36.832031-41.523437 36.832031zm-47.039063 88.046875c20 0 36.300782 16.132813 36.582032 36.0625v84.660156c-1.664063 4.136719-2.859376 8.515625-3.519532 13.078125-.035156.265625-.066406.53125-.089844.796875h-65.945312c-.019531-.265625-.050781-.53125-.089844-.796875-.65625-4.5625-1.851562-8.941406-3.515625-13.078125v-84.65625c.277344-19.933593 16.582031-36.066406 36.578125-36.066406zm-51.582031 123.828125v10.769531h-9.128906c-.003907-.070312-.007813-.136719-.011719-.207031-.277344-4.34375-.785156-8.558594-1.507812-12.535156-.738282-4.074219-4.636719-6.773438-8.71875-6.035156-4.074219.738281-6.777344 4.640624-6.039063 8.71875.578125 3.179687.996094 6.5625 1.246094 10.058593h-28.828125c.246094-3.5.664062-6.878906 1.242187-10.058593.738281-4.078126-1.964843-7.980469-6.039062-8.71875-4.082031-.738282-7.980469 1.960937-8.71875 6.035156-.519531 2.851562-.925781 5.824218-1.214844 8.875-3.199219-1.960938-6.472656-4.015625-9.777344-6.171875 6.773438-14.910157 21.894531-25.152344 38.917969-25.152344 16.746094 0 31.648438 9.90625 38.578125 24.421875zm-104.738281-19.683594c-14.46875-12.726562-33.085938-33.550781-39.605469-60.480468-5.890625-24.320313.246094-50.039063 15.628906-65.515626 7.785157-7.828124 18.558594-12.980468 29.8125-14.441406.46875 9.296875 2.203125 18.550782 5.203125 27.570313l32.515625 97.796875c-12.359375 5.316406-22.625 14.851562-28.792969 26.871094-5.011718-3.671876-9.980468-7.59375-14.761718-11.800782zm287.324218 25.503906c.003907.011719.007813.027344.011719.039063.488281 1.597656.882813 3.238281 1.179688 4.910156h-12.589844c-.003906-.070312-.007813-.136719-.011719-.207031-.277344-4.34375-.78125-8.558594-1.503906-12.535156-.738281-4.074219-4.640625-6.773438-8.71875-6.035156-4.074219.738281-6.78125 4.640624-6.039062 8.71875.574218 3.175781.992187 6.554687 1.242187 10.058593h-28.828125c.25-3.5.667969-6.878906 1.242188-10.058593.742187-4.078126-1.964844-7.980469-6.039063-8.71875-4.078125-.738282-7.976563 1.960937-8.71875 6.035156-.722656 3.976562-1.226563 8.191406-1.503906 12.542968-.003907.066407-.007813.132813-.011719.199219h-9.132812v-10.769531c6.929687-14.515625 21.832031-24.421875 38.578124-24.421875 18.902344 0 35.453126 12.625 40.84375 30.242187zm35.085938-177.542968c3.421875-4.652344 6.515625-9.53125 9.25-14.585938 6.265625-11.632812 10.746094-22.402344 13.699219-32.917968.519531-1.859376 2.019531-2.121094 2.902343-2.082032.859376.019532 2.363282.332032 2.796876 2.21875 4.484374 19.441406 4.515624 39.71875.097656 58.636719-.511719 2.171875-1.082032 4.339844-1.710938 6.503906-.714844-.785156-1.445312-1.554687-2.191406-2.304687-6.859375-6.898438-15.46875-12.1875-24.84375-15.46875zm0 0"/><path d="m157.125 146.847656c4.144531 0 7.5-3.359375 7.5-7.5v-6.003906c0-4.144531-3.355469-7.5-7.5-7.5-4.140625 0-7.5 3.355469-7.5 7.5v6.003906c0 4.140625 3.359375 7.5 7.5 7.5zm0 0"/><path d="m270.257812 146.847656c4.144532 0 7.5-3.359375 7.5-7.5v-6.003906c0-4.144531-3.355468-7.5-7.5-7.5-4.140624 0-7.5 3.355469-7.5 7.5v6.003906c0 4.140625 3.359376 7.5 7.5 7.5zm0 0"/></svg>