<svg id="Layer_1" enable-background="new 0 0 450 450" height="512" viewBox="0 0 450 450" width="512" xmlns="http://www.w3.org/2000/svg"><g><g><path d="m305.923 337.957h-161.325c-10.147 0-20.808-5.319-26.526-13.236-4.105-5.683-5.247-12.192-3.214-18.329l52.753-159.326c.868-2.622 3.697-4.042 6.318-3.175 2.621.868 4.043 3.697 3.175 6.318l-52.753 159.325c-1.024 3.095-.41 6.234 1.828 9.331 3.805 5.269 11.551 9.092 18.419 9.092h161.325c6.867 0 14.613-3.823 18.419-9.092 2.237-3.098 2.852-6.236 1.827-9.331l-52.752-159.325c-.868-2.622.553-5.45 3.175-6.318 2.617-.868 5.45.553 6.318 3.175l52.753 159.326c2.031 6.137.89 12.646-3.215 18.329-5.719 7.917-16.378 13.236-26.525 13.236z"/></g><g><path d="m225.26 173.792c-46.608 0-84.526-37.918-84.526-84.526s37.918-84.526 84.526-84.526 84.526 37.918 84.526 84.526-37.918 84.526-84.526 84.526zm0-159.052c-41.094 0-74.526 33.433-74.526 74.526s33.433 74.526 74.526 74.526 74.526-33.433 74.526-74.526-33.432-74.526-74.526-74.526z"/></g><g><path d="m151.522 78.811c-1.459 0-2.934-.024-4.429-.072-2.76-.088-4.926-2.397-4.838-5.157s2.391-4.913 5.157-4.838c23.836.759 42.326-5.043 54.942-17.256 17.689-17.124 17.905-41.495 17.905-41.739.001-2.757 2.234-4.998 4.991-5.003h.009c2.753 0 4.989 2.22 5 4.974.005 1.163-.125 28.702-20.848 48.854-13.818 13.438-33.28 20.236-57.889 20.237z"/></g><g><path d="m298.998 78.811c-24.611 0-44.069-6.798-57.89-20.237-20.724-20.152-20.853-47.691-20.848-48.854.011-2.754 2.248-4.98 5-4.98h.021c2.758.011 4.985 2.253 4.979 5.01.001.314.243 24.638 17.905 41.737 12.616 12.213 31.119 18.021 54.942 17.256 2.796-.055 5.069 2.079 5.157 4.838.089 2.76-2.077 5.069-4.837 5.157-1.493.049-2.972.072-4.429.073z"/></g><g><path d="m113.877 63.312c-.877 0-1.754-.23-2.536-.691-1.526-.898-2.464-2.538-2.464-4.309 0-12.451-11.735-21.663-11.853-21.754-1.149-.888-1.855-2.232-1.936-3.682-.08-1.45.476-2.863 1.521-3.872 23.899-23.067 61.539-9.459 76.611-2.538 2.509 1.152 3.61 4.121 2.458 6.63-1.152 2.51-4.12 3.611-6.63 2.458-9.635-4.423-41.019-16.895-61.416-2.707 3.579 3.823 8.3 10.06 10.293 17.932 9.07-4.026 25.967-10.044 39.927-6.601 2.681.662 4.318 3.371 3.657 6.052-.662 2.681-3.371 4.318-6.052 3.657-13.242-3.268-32.752 5.241-39.151 8.796-.756.419-1.593.629-2.429.629z"/></g><g><path d="m336.643 63.312c-.836 0-1.672-.209-2.428-.629-.227-.125-23.248-12.722-39.15-8.796-2.682.661-5.391-.976-6.053-3.657-.661-2.681.976-5.391 3.656-6.052 13.961-3.446 30.856 2.574 39.928 6.6 1.993-7.872 6.713-14.108 10.292-17.932-20.396-14.193-51.778-1.717-61.414 2.707-2.513 1.149-5.479.052-6.631-2.458s-.052-5.478 2.457-6.63c15.072-6.921 52.709-20.53 76.611 2.538 1.045 1.008 1.6 2.422 1.52 3.872-.079 1.45-.786 2.794-1.935 3.682-.107.084-11.854 9.414-11.854 21.754 0 1.771-.938 3.411-2.464 4.309-.782.461-1.658.692-2.535.692z"/></g><g><path d="m194.301 411.301c-2.761 0-5-2.238-5-5v-73.344c0-2.762 2.239-5 5-5s5 2.238 5 5v73.344c0 2.762-2.238 5-5 5zm-40.33 0c-2.761 0-5-2.238-5-5v-73.344c0-2.762 2.239-5 5-5s5 2.238 5 5v73.344c0 2.762-2.239 5-5 5z"/></g><g><path d="m296.55 411.301c-2.762 0-5-2.238-5-5v-73.344c0-2.762 2.238-5 5-5s5 2.238 5 5v73.344c0 2.762-2.238 5-5 5zm-40.331 0c-2.762 0-5-2.238-5-5v-73.344c0-2.762 2.238-5 5-5s5 2.238 5 5v73.344c0 2.762-2.239 5-5 5z"/></g><g><path d="m95.813 298.288c-6.738 0-13.057-2.608-17.794-7.347-9.812-9.812-9.812-25.777 0-35.589l81.178-81.178c1.953-1.952 5.119-1.951 7.071 0 1.953 1.953 1.953 5.119 0 7.071l-81.178 81.177c-5.913 5.913-5.913 15.535 0 21.448 2.849 2.849 6.657 4.417 10.724 4.417s7.875-1.568 10.723-4.417l24.427-24.427c1.953-1.953 5.118-1.953 7.071 0 1.953 1.952 1.953 5.118 0 7.07l-24.427 24.427c-4.738 4.74-11.058 7.348-17.795 7.348z"/></g><g><path d="m354.708 298.288c-6.738 0-13.058-2.608-17.795-7.347l-24.426-24.427c-1.953-1.952-1.953-5.118 0-7.07 1.951-1.953 5.119-1.953 7.07 0l24.427 24.427c2.849 2.849 6.657 4.417 10.724 4.417s7.874-1.568 10.724-4.417c5.913-5.913 5.913-15.535 0-21.448l-81.178-81.177c-1.953-1.953-1.953-5.119 0-7.071 1.951-1.952 5.119-1.952 7.07 0l81.178 81.178c9.813 9.812 9.813 25.777 0 35.589-4.737 4.738-11.057 7.346-17.794 7.346z"/></g><g><path d="m201.119 446.74h-53.965c-5.889 0-10.68-4.791-10.68-10.681v-12.498c0-12.779 10.397-23.177 23.177-23.177h28.971c12.78 0 23.177 10.397 23.177 23.177v12.498c0 5.89-4.791 10.681-10.68 10.681zm-41.469-36.355c-7.266 0-13.177 5.911-13.177 13.177v12.498c0 .362.317.681.68.681h53.965c.362 0 .68-.318.68-.681v-12.498c0-7.266-5.911-13.177-13.177-13.177z"/></g><g><path d="m303.366 446.74h-53.965c-5.889 0-10.68-4.791-10.68-10.681v-12.498c0-12.779 10.397-23.177 23.177-23.177h28.971c12.78 0 23.178 10.397 23.178 23.177v12.498c0 5.89-4.791 10.681-10.681 10.681zm-41.468-36.355c-7.266 0-13.177 5.911-13.177 13.177v12.498c0 .362.317.681.68.681h53.965c.362 0 .681-.318.681-.681v-12.498c0-7.266-5.911-13.177-13.178-13.177z"/></g><g><path d="m225.26 312.963c-8.067 0-14.671-7.792-16.607-18.657-3.174 2.217-6.557 3.818-9.89 4.652-6.021 1.505-11.504.339-15.045-3.202-3.54-3.539-4.707-9.023-3.202-15.045.833-3.332 2.435-6.715 4.652-9.89-10.865-1.936-18.657-8.539-18.657-16.606s7.792-14.672 18.657-16.607c-2.217-3.175-3.818-6.557-4.651-9.889-1.505-6.022-.338-11.506 3.202-15.045 3.54-3.541 9.024-4.708 15.044-3.201 3.333.833 6.715 2.435 9.89 4.652 1.936-10.865 8.54-18.658 16.607-18.658 8.068 0 14.671 7.792 16.607 18.657 3.175-2.217 6.557-3.818 9.889-4.651 6.021-1.506 11.506-.338 15.045 3.201 3.54 3.54 4.707 9.024 3.202 15.045-.833 3.332-2.435 6.714-4.651 9.889 10.865 1.936 18.657 8.54 18.657 16.607s-7.793 14.671-18.658 16.606c2.217 3.175 3.818 6.557 4.652 9.89 1.505 6.021.338 11.506-3.202 15.045s-9.021 4.706-15.045 3.202c-3.332-.833-6.714-2.435-9.889-4.651-1.935 10.864-8.539 18.656-16.607 18.656zm-11.825-35.197c.642 0 1.291.123 1.912.381 2.119.878 3.369 3.085 3.032 5.354-.201 1.349-.302 2.748-.302 4.157 0 9.343 4.254 15.305 7.183 15.305s7.183-5.962 7.183-15.305c0-1.407-.102-2.806-.303-4.158-.336-2.269.914-4.477 3.034-5.354 2.122-.879 4.565-.199 5.93 1.645.811 1.094 1.727 2.154 2.724 3.151 6.605 6.604 13.829 7.813 15.902 5.743 2.07-2.071.863-9.296-5.743-15.902-.997-.996-2.058-1.913-3.153-2.726-1.843-1.366-2.52-3.811-1.642-5.93.878-2.12 3.095-3.363 5.353-3.033 1.353.201 2.751.303 4.158.303 9.343 0 15.306-4.254 15.306-7.183s-5.963-7.184-15.306-7.184c-1.401 0-2.801.103-4.158.304-2.259.332-4.476-.914-5.353-3.033-.878-2.119-.201-4.563 1.642-5.93 1.096-.813 2.156-1.729 3.153-2.726 6.606-6.606 7.813-13.831 5.743-15.902-2.072-2.072-9.296-.862-15.902 5.743-.993.994-1.91 2.055-2.725 3.154-1.366 1.843-3.809 2.52-5.93 1.642-2.119-.878-3.369-3.084-3.033-5.353.201-1.353.303-2.752.303-4.159 0-9.343-4.254-15.305-7.183-15.305s-7.183 5.962-7.183 15.305c0 1.41.102 2.808.302 4.157.337 2.269-.913 4.477-3.032 5.355-2.118.877-4.563.201-5.93-1.642-.813-1.098-1.73-2.158-2.726-3.154-3.157-3.157-6.93-5.459-10.353-6.314-2.493-.622-4.567-.41-5.548.571s-1.195 3.055-.571 5.548c.855 3.423 3.157 7.196 6.314 10.354.994.992 2.056 1.911 3.156 2.728 1.842 1.366 2.517 3.812 1.639 5.931-.878 2.118-3.081 3.37-5.355 3.029-1.349-.201-2.747-.303-4.155-.303-9.343 0-15.305 4.255-15.305 7.184s5.962 7.183 15.305 7.183c1.407 0 2.806-.102 4.158-.303 2.271-.333 4.476.914 5.353 3.033s.201 4.563-1.642 5.93c-1.095.813-2.157 1.729-3.154 2.727-3.156 3.156-5.458 6.93-6.313 10.353-.624 2.493-.41 4.567.571 5.548.981.982 3.058 1.196 5.549.571 3.422-.855 7.196-3.156 10.353-6.313.994-.993 1.911-2.055 2.726-3.154.964-1.304 2.469-2.023 4.016-2.023z"/></g><g><path d="m225.26 269.989c-8.698 0-15.774-7.076-15.774-15.774s7.076-15.774 15.774-15.774c8.699 0 15.775 7.076 15.775 15.774s-7.076 15.774-15.775 15.774zm0-21.549c-3.184 0-5.774 2.591-5.774 5.774s2.59 5.774 5.774 5.774 5.775-2.591 5.775-5.774-2.591-5.774-5.775-5.774z"/></g><g><path d="m189.758 105.229c-7.612 0-13.805-6.192-13.805-13.804s6.193-13.805 13.805-13.805 13.805 6.193 13.805 13.805-6.193 13.804-13.805 13.804zm0-17.609c-2.098 0-3.805 1.707-3.805 3.805s1.707 3.804 3.805 3.804 3.805-1.707 3.805-3.804c0-2.098-1.707-3.805-3.805-3.805z"/></g><g><path d="m260.763 105.229c-7.612 0-13.805-6.192-13.805-13.804s6.192-13.805 13.805-13.805 13.805 6.193 13.805 13.805-6.193 13.804-13.805 13.804zm0-17.609c-2.098 0-3.805 1.707-3.805 3.805s1.707 3.804 3.805 3.804 3.805-1.707 3.805-3.804c-.001-2.098-1.708-3.805-3.805-3.805z"/></g><g><path d="m225.26 137.317c-11.633 0-22.329-6.813-27.25-17.357-1.168-2.502-.086-5.478 2.417-6.645s5.478-.086 6.645 2.417c3.285 7.038 10.424 11.585 18.188 11.585 7.765 0 14.904-4.547 18.187-11.585 1.168-2.502 4.142-3.583 6.646-2.417 2.502 1.168 3.584 4.143 2.417 6.646-4.92 10.543-15.616 17.356-27.25 17.356z"/></g></g></svg>