<?xml version="1.0" encoding="UTF-8"?>
<svg xmlns="http://www.w3.org/2000/svg" viewBox="0 0 512 512" width="512" height="512"><g id="outline"><path d="M368,144H328V128h48a8,8,0,0,0,7.155-11.578L376.944,104l6.211-12.422A8,8,0,0,0,376,80H320a8,8,0,0,0-8,8v56H240V112h48a8,8,0,0,0,7.155-11.578L288.944,88l6.211-12.422A8,8,0,0,0,288,64H232a8,8,0,0,0-8,8v72H152V128h48a8,8,0,0,0,7.155-11.578L200.944,104l6.211-12.422A8,8,0,0,0,200,80H144a8,8,0,0,0-8,8v56.257C69.134,148.4,16,204.108,16,272v99.952A124.189,124.189,0,0,0,140.048,496h231.9A124.189,124.189,0,0,0,496,371.952V272A128.144,128.144,0,0,0,368,144ZM328,96h35.056l-2.211,4.422a8,8,0,0,0,0,7.156L363.056,112H328ZM240,80h35.056l-2.211,4.422a8,8,0,0,0,0,7.156L275.056,96H240ZM152,96h35.056l-2.211,4.422a8,8,0,0,0,0,7.156L187.056,112H152ZM440,455.813a108.051,108.051,0,0,1-32,18v-32.2a126.979,126.979,0,0,0,32-15.783Zm16-90.949a128.837,128.837,0,0,0,22.826-28.879A112.215,112.215,0,0,1,456,389.167Zm-16,40.875a111.3,111.3,0,0,1-32,18.89V393.592a127.615,127.615,0,0,0,32-15.818Zm-48,72.388a107.869,107.869,0,0,1-16,1.789V424a8,8,0,0,0-8-8H144a8,8,0,0,0-8,8v55.916a107.869,107.869,0,0,1-16-1.789V397.734A128.188,128.188,0,0,0,144,400H368a128.188,128.188,0,0,0,24-2.266Zm-320-52.3a126.979,126.979,0,0,0,32,15.783v32.2a108.051,108.051,0,0,1-32-18Zm32-1.2a111.3,111.3,0,0,1-32-18.89V377.774a127.615,127.615,0,0,0,32,15.818ZM56,389.167a112.215,112.215,0,0,1-22.826-53.182A128.837,128.837,0,0,0,56,364.864Zm-23.461-6.4A129.082,129.082,0,0,0,56,412.894v26.873A107.545,107.545,0,0,1,32.539,382.762ZM184,480v-8a8,8,0,0,1,16,0v8Zm64,0v-8a8,8,0,0,1,16,0v8Zm64,0v-8a8,8,0,0,1,16,0v8Zm32,0v-8a24,24,0,0,0-48,0v8H280v-8a24,24,0,0,0-48,0v8H216v-8a24,24,0,0,0-48,0v8H152V432H360v48Zm112-40.233V412.894a129.082,129.082,0,0,0,23.461-30.132A107.545,107.545,0,0,1,456,439.767ZM368,384H144a112,112,0,0,1,0-224H368a112,112,0,0,1,0,224Z"/><path d="M360,208H152a64,64,0,0,0,0,128H360a64,64,0,0,0,0-128Zm46.518,52.156a64.975,64.975,0,0,0-20.387-14.494l3.3-11.541A48.1,48.1,0,0,1,406.518,260.156ZM336,296.29A28.057,28.057,0,0,0,312.29,320H294.734c-3.8-11.757-15.757-20.914-30.734-23.356V288h72ZM217.266,320H199.71A28.057,28.057,0,0,0,176,296.29V288h72v8.644C233.023,299.086,221.062,308.243,217.266,320ZM106.745,287.978a48.236,48.236,0,0,1,23.576-26.735l3.8,13.316A64.141,64.141,0,0,0,107.516,290Q107.108,289,106.745,287.978Zm43.3-15.948-4.453-15.585A47.143,47.143,0,0,1,152,256h17.754l4,16S150.694,272.01,150.043,272.03ZM209.754,224l4,16H182.246l-4-16Zm76,0-4,16H230.246l-4-16Zm48,0-4,16H298.246l4-16Zm-43.508,48,4-16h31.508l-4,16Zm-52,0-4-16h43.508l-4,16Zm-20.492-16,4,16H190.246l-4-16Zm120.492,16,4-16H360a47.143,47.143,0,0,1,6.41.445l-4.453,15.585C361.306,272.01,338.246,272,338.246,272Zm43.433-10.757a48.236,48.236,0,0,1,23.576,26.735q-.361,1.023-.771,2.023a64.141,64.141,0,0,0-26.609-15.442Zm-6.688-34.833-4.153,14.537A62.943,62.943,0,0,0,360,240H346.246l4-16H360A47.79,47.79,0,0,1,374.991,226.41ZM161.754,224l4,16H152a62.943,62.943,0,0,0-10.838.947l-4.153-14.537A47.79,47.79,0,0,1,152,224Zm-39.183,10.121,3.3,11.541a64.975,64.975,0,0,0-20.387,14.494A48.1,48.1,0,0,1,122.571,234.121Zm-6.328,69.858A48.068,48.068,0,0,1,152,288h8v32h-8A47.888,47.888,0,0,1,116.243,303.979ZM176,320v-7.314A12.056,12.056,0,0,1,183.314,320Zm72-7.044V320H235.329A24.894,24.894,0,0,1,248,312.956ZM264,320v-7.044A24.894,24.894,0,0,1,276.671,320Zm64.686,0A12.056,12.056,0,0,1,336,312.686V320ZM360,320h-8V288h8a48.068,48.068,0,0,1,35.757,15.979A47.888,47.888,0,0,1,360,320Z"/><circle cx="64" cy="72" r="8"/><path d="M24,56h4.687a19.187,19.187,0,0,1,13.656,5.657A8,8,0,0,0,53.657,50.343,35.082,35.082,0,0,0,28.687,40H24a8,8,0,0,0,0,16Z"/><path d="M24,96a7.976,7.976,0,0,0,5.657-2.343A19.187,19.187,0,0,1,43.313,88a8,8,0,0,0,0-16,35.082,35.082,0,0,0-24.97,10.343A8,8,0,0,0,24,96Z"/><path d="M74.343,61.657a8,8,0,0,0,11.314,0A19.187,19.187,0,0,1,99.313,56H104a8,8,0,0,0,0-16H99.313a35.082,35.082,0,0,0-24.97,10.343A8,8,0,0,0,74.343,61.657Z"/><path d="M84.687,72a8,8,0,0,0,0,16,19.187,19.187,0,0,1,13.656,5.657,8,8,0,0,0,11.314-11.314A35.082,35.082,0,0,0,84.687,72Z"/><path d="M64,48a8,8,0,0,0,8-8V24a8,8,0,0,0-16,0V40A8,8,0,0,0,64,48Z"/><path d="M72,96a8,8,0,0,0-16,0v16a8,8,0,0,0,16,0Z"/><circle cx="448" cy="72" r="8"/><path d="M408,56h4.687a19.187,19.187,0,0,1,13.656,5.657,8,8,0,0,0,11.314-11.314A35.082,35.082,0,0,0,412.687,40H408a8,8,0,0,0,0,16Z"/><path d="M408,96a7.976,7.976,0,0,0,5.657-2.343A19.187,19.187,0,0,1,427.313,88a8,8,0,0,0,0-16,35.082,35.082,0,0,0-24.97,10.343A8,8,0,0,0,408,96Z"/><path d="M458.343,61.657a8,8,0,0,0,11.314,0A19.187,19.187,0,0,1,483.313,56H488a8,8,0,0,0,0-16h-4.687a35.082,35.082,0,0,0-24.97,10.343A8,8,0,0,0,458.343,61.657Z"/><path d="M493.657,93.657a8,8,0,0,0,0-11.314A35.082,35.082,0,0,0,468.687,72a8,8,0,0,0,0,16,19.187,19.187,0,0,1,13.656,5.657,8,8,0,0,0,11.314,0Z"/><path d="M448,48a8,8,0,0,0,8-8V24a8,8,0,0,0-16,0V40A8,8,0,0,0,448,48Z"/><path d="M456,96a8,8,0,0,0-16,0v16a8,8,0,0,0,16,0Z"/><path d="M64,128a8,8,0,0,0-8,8v8a8,8,0,0,0,16,0v-8A8,8,0,0,0,64,128Z"/><path d="M448,128a8,8,0,0,0-8,8v8a8,8,0,0,0,16,0v-8A8,8,0,0,0,448,128Z"/><path d="M24,120v40a8,8,0,0,0,16,0V120a8,8,0,0,0-16,0Z"/><path d="M472,120v32a8,8,0,0,0,16,0V120a8,8,0,0,0-16,0Z"/><path d="M193.847,37.755a7.977,7.977,0,0,0,5.756-2.443l5.557-5.755a8,8,0,0,0-11.51-11.114L188.093,24.2a8,8,0,0,0,5.754,13.556Z"/><path d="M165.667,35.907A8,8,0,1,0,176.781,24.4l-5.756-5.557a8,8,0,0,0-11.113,11.51Z"/><path d="M199.8,46.624a8,8,0,0,0-11.113,11.51l5.755,5.557a8,8,0,1,0,11.114-11.51Z"/><path d="M165.866,47.219l-5.557,5.756a8,8,0,0,0,11.51,11.113l5.557-5.755a8,8,0,1,0-11.51-11.114Z"/><path d="M328.55,40.1a8,8,0,0,0,11.1-2.173l4.465-6.638a8,8,0,0,0-13.277-8.93l-4.465,6.638A8,8,0,0,0,328.55,40.1Z"/><path d="M299.706,39.979l6.638,4.464a8,8,0,1,0,8.929-13.276L308.635,26.7a8,8,0,1,0-8.929,13.277Z"/><path d="M330.724,51.2A8,8,0,0,0,332.9,62.3l6.638,4.465a8,8,0,0,0,8.93-13.277l-6.638-4.465A8,8,0,0,0,330.724,51.2Z"/><path d="M308.518,55.546l-4.465,6.638a8,8,0,1,0,13.276,8.93l4.465-6.638a8,8,0,0,0-13.276-8.93Z"/><path d="M368,176H144a96,96,0,0,0,0,192H368a96,96,0,0,0,0-192Zm0,176H144a80,80,0,0,1,0-160H368a80,80,0,0,1,0,160Z"/></g></svg>
