<svg id="Capa_1" enable-background="new 0 0 511.937 511.937" height="512" viewBox="0 0 511.937 511.937" width="512" xmlns="http://www.w3.org/2000/svg"><g><path d="m500.919 64.307c14.675-14.691 14.674-38.588-.001-53.267-14.712-14.719-38.535-14.722-53.25-.001l-18.703 18.709c-5.222 5.223-12.842 7.554-20.381 6.246-17.465-3.045-35.392-.403-51.113 7.4l-3.164-3.165c-17.64-17.646-46.232-17.692-63.911-.008l-10.662 10.666c-7.115 7.118-11.562 16.262-12.846 26.03-26.177-4.506-51.704 6.607-66.486 27.308-42.937 60.132-94.789 112.945-154.114 156.975l-18.975 14.083c-33.145 24.599-36.665 72.921-7.518 102.076l114.753 114.79c29.056 29.064 77.386 25.735 102.05-7.521l14.078-18.98c44.016-59.345 96.813-111.213 156.925-154.163 20.978-14.989 31.749-40.66 27.295-66.514 9.761-1.284 18.904-5.726 26.023-12.847l10.662-10.666c17.616-17.622 17.616-46.295 0-63.918l-3.011-3.012c7.798-15.721 10.442-33.652 7.409-51.127-1.312-7.545 1.022-15.169 6.245-20.394zm-102.038 234.974c-61.386 43.861-115.302 96.829-160.252 157.433l-14.078 18.98c-19.133 25.798-56.717 28.537-79.394 5.851l-114.754-114.791c-22.707-22.712-19.909-60.309 5.849-79.426l18.975-14.083c60.583-44.963 113.535-98.896 157.382-160.303 18.884-26.445 56.995-29.586 79.954-6.619l112.936 112.972c23.034 23.04 19.741 61.153-6.618 79.986zm62.092-88.427-10.662 10.666c-5.311 5.312-12.306 8.396-19.683 8.796-1.017-2.421-2.166-4.787-3.463-7.08l12.432-12.436c2.928-2.93 2.928-7.679-.001-10.606-2.93-2.93-7.677-2.929-10.607.001l-10.748 10.75c-1.758-1.927-.524-.644-21.318-21.445l10.691-10.694c2.928-2.93 2.928-7.679-.002-10.606-2.929-2.93-7.678-2.927-10.606.001l-10.688 10.691-21.378-21.385 10.691-10.694c2.928-2.93 2.928-7.679-.001-10.606-2.93-2.93-7.677-2.929-10.607.001l-10.688 10.69-21.378-21.385 10.691-10.694c2.928-2.93 2.928-7.679-.002-10.606-2.929-2.93-7.678-2.929-10.606.001l-10.688 10.691c-21.7-21.707-19.587-19.636-21.438-21.325l10.751-10.754c2.928-2.93 2.928-7.679-.001-10.606-2.93-2.929-7.677-2.928-10.607.001l-12.429 12.432c-2.291-1.296-4.656-2.446-7.075-3.462.403-7.386 3.482-14.387 8.79-19.696l10.662-10.666c11.788-11.791 30.887-11.805 42.694.008l117.275 117.312c11.77 11.772 11.77 30.932-.001 42.705zm10.643-138.451c-8.669 8.673-12.562 21.222-10.416 33.566 2.19 12.621.77 25.527-3.963 37.224l-88.437-88.465c11.695-4.735 24.597-6.153 37.209-3.957 12.348 2.152 24.894-1.745 33.563-10.419l18.703-18.709c8.85-8.853 23.183-8.855 32.033.001 8.833 8.835 8.832 23.218 0 32.06z"/><path d="m325.746 297.318c-49.54-24.957-94.585-32.103-133.884-21.244-33.094 9.147-63.037 7.51-88.999-4.866-7.698-3.669-16.681-2.658-23.442 2.638-9.026 7.069-12.861 9.851-34.136 25.643-18.379 13.595-20.388 40.346-4.178 56.562l114.745 114.772c16.158 16.187 42.873 14.281 56.548-4.158l14.065-18.977c30.624-41.273 65.622-79.4 104.021-113.321 11.962-10.57 9.509-29.871-4.74-37.049zm-5.191 25.806c-39.181 34.612-74.891 73.515-106.139 115.629l-14.066 18.978c-8.147 10.984-24.152 12.243-33.887 2.49l-114.749-114.777c-9.678-9.68-8.55-25.731 2.5-33.903 17.816-13.224 24.588-18.159 34.456-25.887 2.222-1.74 5.261-2.087 7.738-.905 29.315 13.972 62.774 15.919 99.449 5.783 59.667-16.494 121.229 20.183 123.14 20.183 4.783 2.407 5.588 8.849 1.558 12.409z"/><path d="m272.457 163.13c1.919 0 3.84-.732 5.304-2.197l8.496-8.498c2.928-2.93 2.928-7.679-.001-10.606-2.93-2.93-7.678-2.929-10.607.001l-8.496 8.498c-4.737 4.739-1.317 12.802 5.304 12.802z"/><path d="m364.071 230.281-8.496 8.498c-2.928 2.93-2.928 7.679.001 10.606 2.928 2.928 7.678 2.929 10.607-.001l8.496-8.498c2.928-2.93 2.928-7.679-.001-10.606-2.929-2.93-7.678-2.929-10.607.001z"/><path d="m326.896 220.224c-2.725 2.726-7.134 2.726-9.86 0-2.72-2.721-2.72-7.148 0-9.869 2.928-2.93 2.928-7.679-.002-10.607-2.929-2.928-7.678-2.927-10.606.002-1.317 1.317-3.068 2.043-4.93 2.043-6.185 0-9.308-7.533-4.93-11.913 2.929-2.929 2.928-7.678-.002-10.606-2.93-2.93-7.679-2.929-10.607.003-8.565 8.568-8.565 22.511 0 31.079 3.811 3.812 8.78 6.027 14.112 6.368 1.232 19.018 24.232 27.311 37.433 14.106 2.928-2.93 2.928-7.679-.002-10.607-2.928-2.929-7.677-2.928-10.606.001z"/></g></svg>