<svg height="512" viewBox="0 0 60 61" width="512" xmlns="http://www.w3.org/2000/svg"><g id="Page-1" fill="none" fill-rule="evenodd"><g id="081---Girl-with-Beret" fill="rgb(0,0,0)" fill-rule="nonzero" transform="translate(0 -1)"><path id="Shape" d="m50.072 8.751c-.9455581-.55699872-1.9348133-1.03624238-2.958-1.433-2.3928458-.92091944-4.9114452-1.47386496-7.47-1.64-.3321595-.68802429-.8377458-1.27770273-1.467-1.711-2.958-2.037-7.043-1.467-10.025-1.047-2.660568.36268445-5.280447.97847656-7.824 1.839-.7051434-.64568743-1.2420154-1.45374151-1.564-2.354-.2295879-.82113071-.9724607-1.39304103-1.825-1.405h-.064c-1.6551845-.04674676-3.2671128.53246184-4.514 1.622-.4538832.43157302-.6640588 1.06022647-.561 1.678.1064021.64417889.523534 1.19449362 1.115 1.471.7469809.34111644 1.4405344.78877676 2.059 1.329-.7816636.41764176-1.540721.8762807-2.274 1.374-1.130651.77345327-2.1779334 1.662219-3.125 2.652-1.8233145 1.8093716-3.13924282 4.0660369-3.816 6.544-.17078513.6476002-.22462921 1.3204818-.159 1.987-3.272 3.382-9.121 13.58-2.723 40.573.10663062.4511823.50938857.7699116.973.77h10.122c.008 0 .015.005.024.005h32.004c.009 0 .016-.005.024-.005h10.126c.4774917-.0000007.8883666-.3375799.981-.806 1.407-7.085 3.228-17.749 2.808-28.5-.311-8.13-1.713-18.083-9.867-22.943zm-42.372 9.398c.59229083-2.1359735 1.73385724-4.0794981 3.311-5.637.8534489-.892337 1.7975454-1.6933276 2.817-2.39.7487067-.50873396 1.5263515-.97351782 2.329-1.392.1341421.311518.2201252.64162585.255.979.0457272.5176557.4803324.9140157 1 .912.0296478.001496.0593522.001496.089 0 .5481319-.0532514.9500433-.539658.899-1.088-.27-3.071-2.972-4.794-4.581-5.54.8634713-.67750139 1.9380549-1.02908674 3.035-.993.4975135 1.38476175 1.3478788 2.61567156 2.467 3.571l.022.021c.637833.59171708 1.3257392 1.12705265 2.056 1.6.3036758.1884576.6848246.20059052.9998716.0318284.3150469-.16876212.5161288-.49278028.5275-.85.0113712-.35721971-.1686958-.6933708-.4723716-.8818284-.091-.056-.205-.134-.325-.216 2.0609945-.62074372 4.1674331-1.07914488 6.3-1.371 2.657-.371 6.3-.881 8.609.71.5935409.36034229.9545324 1.00564789.951 1.7-.0966951.48115606-.3856637.90196661-.8 1.165-1.253.887-3.187 1.159-4.894 1.4l-1.272.178c-1.8678232.1921129-3.7108856.5761401-5.5 1.146-2.4512229 1.0118587-4.7374714 2.3843493-6.783 4.072-.536.4-1.069.8-1.6 1.177-.426.3-.847.617-1.267.929-1.3533386 1.0885288-2.8241418 2.0223295-4.385 2.784-.118.055-2.912 1.3-3.757-.191-.23578969-.5838893-.24683414-1.2344435-.031-1.826zm16.442 35.856c.4545933 1.7606851 2.0395884 2.9931852 3.858 3h4c1.8220506.0062983 3.4129965-1.2321131 3.854-3h3.146c2.9246807.0015757 5.4221163 2.1116385 5.912 4.995h-29.831c.4937483-2.8840134 2.9930272-4.9931362 5.919-4.995zm-16.189-18.982c.15748211.8017659.36352833 1.5932238.617 2.37v.012c.22831703.8255475.52328611 1.6311943.882 2.409-1.27301394.5203089-2.7277195-.0802085-3.263-1.347-.25646003-.613703-.25248959-1.3052821.011-1.916.24140297-.6140269.7238926-1.1022991 1.335-1.351zm2.57 1.932c-.0092694-.0477511-.0216287-.0948501-.037-.141-.3539342-1.093421-.61683023-2.2142413-.786-3.351-.089-.556-.147-1.1-.214-1.65 5.707-.551 19.833-2.624 26.306-9.936 2.9549575 5.552701 8.4643915 9.2850552 14.717 9.97-.170495 1.5984719-.4796594 3.1790915-.924 4.724-.0363.1083512-.0670071.2184965-.092.33-.2748381 1.0243553-.6639476 2.0145717-1.16 2.952-2.466 4.8-7.525 8.408-13.533 9.658-3.1651743.6480023-6.4288257.6480023-9.594 0-6.01-1.25-11.069-4.862-13.538-9.666-.4867928-.918291-.8707826-1.8874879-1.145-2.89zm40.9.45c.006-.022.042-.161.047-.184.2205406-.7262293.4041097-1.4631758.55-2.208l.442.185c1.2601349.5445776 1.856075 1.9947134 1.343 3.268-.5365462 1.2660691-1.9904391 1.8665126-3.264 1.348.3596024-.7778808.6558959-1.5834913.886-2.409zm-25.423 14.281c2.6502344.4186618 5.3497656.4186618 8 0v1.3.019.013c-.0071468 1.0994893-.9004875 1.9870232-2 1.987h-4c-1.1045695 0-2-.8954305-2-2zm29.328 7.314h-8.4c-.499517-3.9978527-3.8990624-6.9973254-7.928-6.995h-3v-.723c5.6605021-1.2656634 10.5758269-4.7510297 13.643-9.674l.123.05c.5449336.2273136 1.1295561.3442381 1.72.344 1.8169838.0002988 3.457766-1.0867293 4.166-2.76.943714-2.2936696-.1334495-4.9197013-2.416-5.89l-.859-.359c.046-.325.086-.671.127-1.014.168 0 .325.021.5.021.5522847 0 1-.4477153 1-1s-.4477153-1-1-1c-6.9806251.2153497-13.3704101-3.8983926-16.064-10.342-.1276324-.3504118-.4396484-.6006885-.8094059-.6492468s-.7358144.1126708-.9495941.4182468c-6.636 9.478-28.012 10.564-28.226 10.573-.55228473.0124264-.98992636.4702153-.97749996 1.0225.01242641.5522847.47021523.9899264 1.02249996.9775h.046c.06 0 .217-.011.445-.025.04.339.083.678.132 1.02l-.856.357c-1.10444154.4500795-1.97740047 1.3313454-2.417 2.44-.46499745 1.103342-.46499745 2.347658 0 3.451.70887321 1.6714256 2.34846573 2.7570059 4.164 2.757.58812278.0006657 1.17047537-.1159408 1.713-.343l.13-.053c3.0666375 4.9242492 7.9819621 8.4110565 13.643 9.678v.723h-3c-4.027362.0048636-7.4245473 2.9999874-7.934 6.995h-8.423c-5.566-24.08-1.143-33.779 1.857-37.365.72870914.7238225 1.72688402 1.1099672 2.753 1.065 1.0554737-.0241292 2.0944249-.2672663 3.051-.714 1.6937938-.8184101 3.2901616-1.8247357 4.759-3 .412-.3.823-.61 1.238-.906.545-.388 1.089-.794 1.636-1.2 1.8896647-1.561729 3.9976553-2.8385844 6.257-3.79 1.6602858-.5209185 3.368968-.872706 5.1-1.05l1.279-.178c1.837-.258 4.123-.579 5.773-1.749.8272098-.55720968 1.3986005-1.42077249 1.588-2.4 2.2086308.18066636 4.380006.67670167 6.448 1.473.922318.35429599 1.8139815.78373934 2.666 1.284 7.327 4.366 8.6 13.676 8.893 21.3.396 10.145-1.253 20.256-2.613 27.23z"/><path id="Shape" d="m29 40h2c.5522847 0 1-.4477153 1-1s-.4477153-1-1-1h-2c-.5522847 0-1 .4477153-1 1s.4477153 1 1 1z"/><path id="Shape" d="m30 48c2.209139 0 4-1.790861 4-4v-1c0-.5522847-.4477153-1-1-1h-6c-.5522847 0-1 .4477153-1 1v1c0 2.209139 1.790861 4 4 4zm2-4c0 1.1045695-.8954305 2-2 2s-2-.8954305-2-2z"/><path id="Shape" d="m21 41h-1c-.5522847 0-1 .4477153-1 1s.4477153 1 1 1h1c.5522847 0 1-.4477153 1-1s-.4477153-1-1-1z"/><path id="Shape" d="m40 41h-1c-.5522847 0-1 .4477153-1 1s.4477153 1 1 1h1c.5522847 0 1-.4477153 1-1s-.4477153-1-1-1z"/><path id="Shape" d="m17.726 35.962c.2552743.0727044.5289806.0409393.7608185-.0882972.231838-.1292366.4027856-.3453408.4751815-.6007028.1414179-.7377699.7867986-1.2711916 1.538-1.2711916s1.3965821.5334217 1.538 1.2711916c.0960794.3453889.3696979.6129191.7171611.7012032.3474632.0882842.7156007-.0161873.9648976-.2738223s.3416048-.6290091.2419413-.9733809c-.3853028-1.5997433-1.8165102-2.7271673-3.462-2.7271673s-3.0766972 1.127424-3.462 2.7271673c-.1508375.5309971.1571109 1.0837826.688 1.235z"/><path id="Shape" d="m36.726 35.962c.2552743.0727044.5289806.0409393.7608185-.0882972.231838-.1292366.4027856-.3453408.4751815-.6007028.1414179-.7377699.7867986-1.2711916 1.538-1.2711916s1.3965821.5334217 1.538 1.2711916c.0960794.3453889.3696979.6129191.7171611.7012032.3474632.0882842.7156007-.0161873.9648976-.2738223s.3416048-.6290091.2419413-.9733809c-.3853028-1.5997433-1.8165102-2.7271673-3.462-2.7271673s-3.0766972 1.127424-3.462 2.7271673c-.1508375.5309971.1571109 1.0837826.688 1.235z"/></g></g></svg>