<svg id="_12._GPS" height="512" viewBox="0 0 64 64" width="512" xmlns="http://www.w3.org/2000/svg"><path d="m56 4h-5.531c-1.439-2.129-3.767-3.635-6.394-3.932-.72-.09-1.44-.088-2.137-.001-2.636.298-4.966 1.805-6.406 3.934h-27.532c-3.86 0-7 3.14-7 7v45.999c0 3.86 3.14 7 7 7h48c3.86 0 7-3.14 7-7v-46c0-3.86-3.14-7-7-7zm-41.693 7 5.25 14h-11.557v-13c0-.551.449-1 1-1zm-6.307 22h24.323l5.2 13h-28.523c-.551 0-1-.449-1-1zm25.929-1.372c-.152-.379-.52-.628-.929-.628h-25v-4h13c.328 0 .635-.161.822-.43.187-.27.229-.614.115-.921l-5.494-14.649h4.864l5.756 15.351c.146.39.52.649.937.649h28v4h-16c-.332 0-.642.165-.828.439s-.224.624-.101.932l5.452 13.628h-4.846l-5.749-14.372zm12.749 14.372-5.2-13h14.523v12c0 .551-.449 1-1 1zm9.323-21h-27.308l-5.25-14h10.791c.423 1.861 1.428 3.561 2.929 4.843 2.07 1.756 3.735 3.936 4.947 5.629l.07.1c.187.268.494.428.82.428s.633-.16.82-.428l.062-.09c1.219-1.703 2.884-3.883 4.954-5.639l.002-.002c1.499-1.281 2.503-2.98 2.926-4.84h3.234c.551 0 1 .449 1 1v13zm-13.827-22.948c.278-.035.557-.052.826-.052s.548.018.838.054c3.09.349 5.647 2.829 6.083 5.899.349 2.415-.541 4.795-2.379 6.366-1.831 1.553-3.344 3.379-4.542 4.981-1.195-1.599-2.709-3.427-4.541-4.98-1.839-1.571-2.729-3.951-2.379-6.37.435-3.067 2.992-5.547 6.094-5.898zm18.826 54.948c0 2.757-2.243 5-5 5h-48c-2.757 0-5-2.243-5-5v-46c0-2.757 2.243-5 5-5h26.518c-.191.537-.336 1.092-.418 1.667-.064.447-.087.891-.086 1.333h-25.014c-1.654 0-3 1.346-3 3v33c0 1.654 1.346 3 3 3h46c1.654 0 3-1.346 3-3v-33c0-1.654-1.346-3-3-3h-3.014c0-.441-.022-.884-.086-1.33-.082-.576-.227-1.133-.418-1.67h4.518c2.757 0 5 2.243 5 5z"/><path d="m32 51c-2.206 0-4 1.794-4 4s1.794 4 4 4 4-1.794 4-4-1.794-4-4-4zm0 6c-1.103 0-2-.897-2-2s.897-2 2-2 2 .897 2 2-.897 2-2 2z"/><path d="m22 52h-6c-1.654 0-3 1.346-3 3s1.346 3 3 3h6c1.654 0 3-1.346 3-3s-1.346-3-3-3zm0 4h-6c-.551 0-1-.449-1-1s.449-1 1-1h6c.551 0 1 .449 1 1s-.449 1-1 1z"/><path d="m48 52h-6c-1.654 0-3 1.346-3 3s1.346 3 3 3h6c1.654 0 3-1.346 3-3s-1.346-3-3-3zm0 4h-6c-.551 0-1-.449-1-1s.449-1 1-1h6c.551 0 1 .449 1 1s-.449 1-1 1z"/><path d="m43 13c2.206 0 4-1.794 4-4s-1.794-4-4-4-4 1.794-4 4 1.794 4 4 4zm0-6c1.103 0 2 .897 2 2s-.897 2-2 2-2-.897-2-2 .897-2 2-2z"/></svg>