<svg id="Layer_1" enable-background="new 0 0 512 512" viewBox="0 0 512 512" xmlns="http://www.w3.org/2000/svg"><g><path d="m448.241 170.031-57.016-30.991v-25.652c.083-17.681-2.662-35.335-7.269-52.388h7.557v-61h-75v61h6.981c-4.608 17.054-7.352 34.702-7.269 52.388v25.668l-49.288 26.978h-17.888c0-7.312 0-14.572 0-14.572.619-22.941-25.729-38.252-45.07-26.464-9.014-5.348-21.048-5.347-30.061.003-9.015-5.351-21.051-5.351-30.066 0-8.891-5.271-20.7-5.357-29.679-.214-19.424-11.426-45.202 4.027-44.68 26.778v14.469h-31.506l25.356 202.844c3.717 29.733 29.116 52.156 59.082 52.156h14.059v15.916c-12.925 3.339-22.5 15.098-22.5 29.051h-14.506c-16.815 0-30.495 14.68-30.495 31.495v14.504l329.742-.033v-15h-149.712v-45.967h210v45.967h-45.288v15h60.288v-298.594c0-18.093-9.875-34.7-25.772-43.342zm-116.728-155.031h45v31h-45zm-57.243 196.706c36.799 5.009 64.713 36.402 64.713 74.294.286 44.298-39.343 79.721-83.316 74.529l1.864-14.914c35.105 4.011 66.64-24.265 66.419-59.615 0-30.207-22.455-55.256-51.547-59.364zm74.558 104.315h19.994c16.53 0 29.979 13.449 29.979 29.979s-13.449 29.979-29.979 29.979h-30.194c-10.626 0-20.312-5.653-25.665-14.512 16.45-10.712 29.195-26.653 35.865-45.446zm-39.878-30.021c.159 26.403-23.309 47.601-49.557 44.715l11.15-89.199c21.696 3.187 38.407 21.918 38.407 44.484zm-224.457-134.435c-.354-12.879 15.316-20.482 24.8-11.984l4.879 4.18c10.943-10.746 19.058-10.377 29.678.53 10.986-11.207 19.066-11.224 30.067 0 10.98-11.207 19.069-11.224 30.064 0 0 0 5.006-4.487 5.006-4.487 9.326-8.818 25.382-1.247 25.06 11.657v14.478l-37.789.022v45.039c0 4.136-3.364 7.5-7.5 7.5s-7.5-3.364-7.5-7.5v-45.03l-96.767.059c.002-.001.002-14.465.002-14.464zm104.267 81.935c29.411-1.829 21.5-32.624 22.5-52.549l20.931-.013-8.427 67.56h-129.562l-8.416-67.47 80.473-.049c1.003 19.886-6.914 50.692 22.501 52.521zm-104.769 263.5c.263-8.315 7.109-16 15.487-16h29.505v-15c0-8.271 6.729-15 15-15h7.5v-29.967h15v29.967h7.5c8.271 0 15 6.729 15 15h-30v15h59.505c8.378 0 15.225 7.685 15.487 16zm150.022-26.474c-4.551-2.854-9.858-4.526-15.525-4.526h-14.505c0-13.953-9.575-25.712-22.5-29.051v-15.916h14.059c14.559 0 28.031-5.304 38.471-14.158zm5.726-103.51c-2.781 22.244-21.781 39.018-44.197 39.018h-73.118c-22.417 0-41.417-16.773-44.198-39.018l-23.247-185.983h14.514v.005l1.179-.001 16.95 135.892 14.885-1.857-6.433-51.573h125.82l-12.058 96.668c-1.126 9.027-8.834 15.834-17.931 15.834h-65.843c-9.097 0-16.805-6.807-17.931-15.834l-3.754-30.095-14.885 1.857 3.754 30.094c2.06 16.52 16.168 28.977 32.816 28.977h65.843c16.647 0 30.754-12.457 32.815-28.977l22.575-180.99h15.691zm219.274 68.984h-210v-48.351c1.896-3.864 3.383-7.972 4.414-12.27 15.699 1.923 32.367-.643 46.304-6.791 7.946 13.656 22.706 22.392 38.897 22.392h30.194c24.802 0 44.979-20.178 44.979-44.979s-20.177-44.979-44.979-44.979h-16.1c.824-4.886 1.26-9.903 1.26-15.021 0-.005 0-.011 0-.017h29.743v-15h-31.007c-.861-5.153-2.135-10.166-3.829-14.983h110.125v179.999zm0-195h-117.022c-13.576-23.562-37.531-40.378-65.861-44.174l2.512-20.099 52.583-28.782v-34.557c-.181-17.647 3.106-35.396 7.731-52.388h29.539c4.626 16.998 7.91 34.737 7.731 52.388v34.572l64.853 35.251c11.063 6.014 17.936 17.571 17.936 30.162v27.627z"/><path d="m323.725 405.989h60v15h-60z"/><path d="m113.725 278.542h15v15h-15z"/><path d="m144.271 278.542h15v15h-15z"/></g><g/><g/><g/><g/><g/><g/><g/><g/><g/><g/><g/><g/><g/><g/><g/></svg>