<svg id="Capa_1" enable-background="new 0 0 512 512" height="512" viewBox="0 0 512 512" width="512" xmlns="http://www.w3.org/2000/svg"><g><path d="m443.013 402.082c4.156 0 7.526-3.369 7.526-7.526v-77.105c0-7.145-7.019-10.155-12.848-5.321l-49.828 49.836c-.955-3.06-3.811-5.282-7.186-5.282h-23.64v-24.181c0-11.465-8.59-20.962-19.672-22.391 2.652-8.239 4.085-17.019 4.085-26.128 0-47.117-38.332-85.449-85.449-85.449s-85.449 38.332-85.449 85.449c0 9.04 1.411 17.757 4.025 25.942h-27.921c-4.156 0-7.526 3.369-7.526 7.526s3.369 7.526 7.526 7.526h34.387c3.191 5.811 7.037 11.213 11.439 16.105h-92.326c-4.156 0-7.526 3.369-7.526 7.526v124.698c0 4.156 3.369 7.526 7.526 7.526h134.251c4.156 0 7.526-3.37 7.526-7.526s-3.369-7.526-7.526-7.526h-126.727v-31.707h203.128v31.707h-43.6c-4.156 0-7.526 3.37-7.526 7.526s3.369 7.526 7.526 7.526h51.126c4.156 0 7.526-3.37 7.526-7.526v-124.698c0-3.779-2.785-6.907-6.415-7.444 4.433-4.914 8.305-10.344 11.513-16.187 4.729-.521 11.027 1.655 11.027 7.526v156.919c0 4.15-3.376 7.526-7.526 7.526h-250.42c-4.15 0-7.526-3.376-7.526-7.526v-156.919c0-4.15 3.376-7.526 7.526-7.526h29.823c4.156 0 7.526-3.369 7.526-7.526s-3.369-7.526-7.526-7.526h-29.823c-12.45 0-22.578 10.128-22.578 22.578v156.919c.001 12.449 10.129 22.577 22.578 22.577h250.42c12.449 0 22.578-10.128 22.578-22.578v-24.199h23.64c3.37 0 6.222-2.215 7.181-5.268l49.832 49.84c4.304 4.305 12.848 1.901 12.848-5.321v-77.125c0-4.156-3.37-7.526-7.526-7.526s-7.526 3.37-7.526 7.526v58.953l-47.283-47.29v-56.1l47.283-47.29v58.933c.001 4.158 3.37 7.527 7.527 7.527zm-187.013-188.495c38.817 0 70.398 31.58 70.398 70.398s-31.58 70.398-70.398 70.398-70.398-31.58-70.398-70.398 31.581-70.398 70.398-70.398zm-148.32 205.436v-62.888h102.581c13.233 8.418 28.926 13.299 45.738 13.299s32.506-4.881 45.738-13.299h9.07v62.888zm265.471 31.149h-16.114v-78.436h16.114z"/><path d="m103.778 110.358c5.949 0 11.897-2.265 16.426-6.793 36.825-36.825 85.782-57.106 137.854-57.106s101.029 20.281 137.854 57.106c21.231 21.228 54.092-11.61 32.852-32.853-45.601-45.599-106.225-70.712-170.706-70.712s-125.106 25.113-170.707 70.714c-13.793 13.795-3.061 39.644 16.427 39.644zm-5.783-29.002c42.758-42.757 99.602-66.304 160.063-66.304s117.305 23.547 160.062 66.304c6.122 6.124-2.627 20.502-11.566 11.567-39.668-39.668-92.405-61.515-148.497-61.515s-108.829 21.846-148.496 61.514c-3.189 3.19-8.378 3.189-11.566.001-3.188-3.189-3.188-8.378 0-11.567z"/><path d="m368.252 154.45c19.329-1.81 31.952-24.13 16.433-39.652-33.812-33.826-78.783-52.454-126.627-52.454s-92.817 18.632-126.638 52.463c-9.055 9.058-9.053 23.796.006 32.852 9.058 9.056 23.797 9.054 32.852-.006 25.044-25.053 58.349-38.85 93.78-38.85s68.732 13.793 93.769 38.84c4.387 4.389 10.22 6.806 16.425 6.807zm-214.619-17.437c-3.189 3.189-8.377 3.189-11.566.002-3.189-3.189-3.19-8.377-.002-11.567 30.977-30.987 72.171-48.053 115.993-48.053 43.823 0 85.013 17.062 115.982 48.043 7.108 7.11-4.171 18.962-11.568 11.563-27.88-27.891-64.962-43.251-104.414-43.251s-76.538 15.366-104.425 43.263z"/><path d="m175.505 158.887c-21.243 21.24 11.623 54.081 32.852 32.851 13.271-13.271 30.918-20.58 49.691-20.58 18.772 0 36.42 7.309 49.691 20.58 19.965 19.965 54.058-11.647 32.852-32.851-22.046-22.046-51.361-34.188-82.543-34.188-31.183-.001-60.497 12.141-82.543 34.188zm156.838 16.425c0 6.866-9.106 10.638-13.961 5.783-16.113-16.114-37.541-24.989-60.334-24.989-22.794 0-44.221 8.875-60.334 24.989-7.477 7.477-19.043-4.088-11.566-11.565 19.203-19.204 44.738-29.78 71.9-29.78s52.697 10.576 71.9 29.78c1.544 1.544 2.395 3.597 2.395 5.782z"/><path d="m235.246 324.108 58.99-33.584c6.167-3.171 6.293-9.192 0-13.08l-58.99-33.584c-6.088-3.293-11.249-.792-11.249 6.54v67.168c0 6.286 4.784 9.672 11.249 6.54zm3.802-60.763 36.252 20.639-36.252 20.639z"/></g></svg>