<svg enable-background="new 0 0 492 492" height="512" viewBox="0 0 492 492" width="512" xmlns="http://www.w3.org/2000/svg"><g id="Layer_1"><g><g><g><path clip-rule="evenodd" d="m252.794 348.369h-13.068c-3.181 0-5.76-2.579-5.76-5.76s2.579-5.76 5.76-5.76h13.068c3.181 0 5.76 2.579 5.76 5.76s-2.579 5.76-5.76 5.76z" fill="rgb(0,0,0)" fill-rule="evenodd"/></g><g><path clip-rule="evenodd" d="m291.564 414.915h-90.609c-1.95 0-3.768-.987-4.83-2.622s-1.225-3.697-.433-5.479l20.339-45.724c.925-2.079 2.987-3.419 5.263-3.419h49.93c2.275 0 4.338 1.34 5.263 3.419l20.339 45.724c.793 1.782.63 3.844-.433 5.479-1.061 1.635-2.878 2.622-4.829 2.622zm-81.742-11.52h72.876l-15.215-34.204h-42.446z" fill="rgb(0,0,0)" fill-rule="evenodd"/></g><g><path clip-rule="evenodd" d="m311.992 414.915h-131.464c-3.181 0-5.76-2.579-5.76-5.76s2.579-5.76 5.76-5.76h131.464c3.181 0 5.76 2.579 5.76 5.76s-2.578 5.76-5.76 5.76z" fill="rgb(0,0,0)" fill-rule="evenodd"/></g><g><path clip-rule="evenodd" d="m417.048 369.191h-341.576c-7.461 0-13.532-6.07-13.532-13.532v-33.871c0-3.181 2.579-5.76 5.76-5.76h357.12c3.181 0 5.76 2.579 5.76 5.76v33.872c0 7.461-6.07 13.531-13.532 13.531zm-343.588-41.643v28.112c0 1.109.902 2.012 2.012 2.012h341.576c1.109 0 2.012-.902 2.012-2.012v-28.112z" fill="rgb(0,0,0)" fill-rule="evenodd"/></g><g><path clip-rule="evenodd" d="m417.049 369.191h-341.577c-7.461 0-13.531-6.07-13.531-13.531v-231.952c0-7.461 6.07-13.531 13.531-13.531h121.012c3.181 0 5.76 2.579 5.76 5.76s-2.579 5.76-5.76 5.76h-121.012c-1.109 0-2.011.902-2.011 2.011v231.952c0 1.109.902 2.011 2.011 2.011h341.577c1.109 0 2.011-.902 2.011-2.011v-231.952c0-1.109-.902-2.011-2.011-2.011h-121.013c-3.181 0-5.76-2.579-5.76-5.76s2.579-5.76 5.76-5.76h121.012c7.461 0 13.531 6.07 13.531 13.531v231.952c.001 7.461-6.069 13.531-13.53 13.531z" fill="rgb(0,0,0)" fill-rule="evenodd"/></g><g><g><path clip-rule="evenodd" d="m246.26 200.037c-16.223 0-31.475-6.318-42.947-17.789s-17.789-26.724-17.789-42.947 6.318-31.475 17.789-42.947c11.472-11.471 26.724-17.789 42.947-17.789s31.475 6.318 42.947 17.789c11.471 11.472 17.789 26.724 17.789 42.947s-6.318 31.475-17.789 42.947c-11.472 11.472-26.724 17.789-42.947 17.789zm0-109.951c-27.138 0-49.216 22.078-49.216 49.216 0 27.137 22.078 49.216 49.216 49.216s49.216-22.078 49.216-49.216-22.078-49.216-49.216-49.216z" fill="rgb(0,0,0)" fill-rule="evenodd"/></g><g><path clip-rule="evenodd" d="m246.26 200.037c-5.568 0-13.443-3.456-19.335-19.921-3.933-10.99-6.099-25.485-6.099-40.815 0-15.329 2.166-29.824 6.099-40.815 5.892-16.465 13.767-19.921 19.335-19.921s13.443 3.456 19.335 19.921c3.933 10.991 6.099 25.486 6.099 40.815s-2.166 29.824-6.099 40.815c-5.892 16.465-13.767 19.921-19.335 19.921zm0-109.951c-1.645 0-5.263 3.271-8.488 12.283-3.499 9.777-5.426 22.893-5.426 36.933s1.927 27.156 5.426 36.933c3.225 9.012 6.843 12.283 8.488 12.283s5.263-3.271 8.488-12.283c3.499-9.777 5.426-22.893 5.426-36.933s-1.927-27.156-5.426-36.933c-3.225-9.012-6.843-12.283-8.488-12.283z" fill="rgb(0,0,0)" fill-rule="evenodd"/></g><g><path clip-rule="evenodd" d="m301.236 145.061h-109.952c-3.181 0-5.76-2.579-5.76-5.76s2.579-5.76 5.76-5.76h109.952c3.181 0 5.76 2.579 5.76 5.76 0 3.182-2.579 5.76-5.76 5.76z" fill="rgb(0,0,0)" fill-rule="evenodd"/></g></g><g><g><path clip-rule="evenodd" d="m166.478 290.805c-1.528 0-2.993-.607-4.073-1.687s-1.687-2.545-1.687-4.073v-57.568c0-3.181 2.579-5.76 5.76-5.76s5.76 2.579 5.76 5.76v51.807l20.514-.001c3.181 0 5.76 2.579 5.76 5.76s-2.579 5.76-5.76 5.76z" fill="rgb(0,0,0)" fill-rule="evenodd"/></g><g><path clip-rule="evenodd" d="m224.045 290.805c-3.181 0-5.76-2.579-5.76-5.76v-57.568c0-3.181 2.579-5.76 5.76-5.76s5.76 2.579 5.76 5.76v57.568c0 3.181-2.579 5.76-5.76 5.76z" fill="rgb(0,0,0)" fill-rule="evenodd"/></g><g><path clip-rule="evenodd" d="m326.042 262.021h-26.276c-3.181 0-5.76-2.579-5.76-5.76s2.579-5.76 5.76-5.76h26.276c3.181 0 5.76 2.579 5.76 5.76 0 3.182-2.579 5.76-5.76 5.76z" fill="rgb(0,0,0)" fill-rule="evenodd"/></g><g><path clip-rule="evenodd" d="m326.042 290.805h-26.275c-3.181 0-5.76-2.579-5.76-5.76v-57.568c0-3.181 2.579-5.76 5.76-5.76h26.275c3.181 0 5.76 2.579 5.76 5.76s-2.579 5.76-5.76 5.76h-20.515v46.048h20.515c3.181 0 5.76 2.579 5.76 5.76s-2.579 5.76-5.76 5.76z" fill="rgb(0,0,0)" fill-rule="evenodd"/></g><g><path clip-rule="evenodd" d="m237.183 233.237h-26.276c-3.181 0-5.76-2.579-5.76-5.76s2.579-5.76 5.76-5.76h26.276c3.181 0 5.76 2.579 5.76 5.76 0 3.182-2.579 5.76-5.76 5.76z" fill="rgb(0,0,0)" fill-rule="evenodd"/></g><g><path clip-rule="evenodd" d="m237.183 290.805h-26.276c-3.181 0-5.76-2.579-5.76-5.76s2.579-5.76 5.76-5.76h26.276c3.181 0 5.76 2.579 5.76 5.76s-2.579 5.76-5.76 5.76z" fill="rgb(0,0,0)" fill-rule="evenodd"/></g><g><path clip-rule="evenodd" d="m268.474 290.805c-2.688 0-5.018-1.858-5.616-4.478l-13.137-57.568c-.708-3.101 1.233-6.189 4.334-6.897 3.102-.708 6.19 1.233 6.897 4.334l7.521 32.96 7.522-32.96c.708-3.101 3.795-5.042 6.897-4.334 3.101.708 5.042 3.796 4.334 6.897l-13.138 57.568c-.596 2.619-2.926 4.478-5.614 4.478z" fill="rgb(0,0,0)" fill-rule="evenodd"/></g></g><g><g><g><path clip-rule="evenodd" d="m334.458 206.464c-1.474 0-2.948-.562-4.073-1.687-2.249-2.249-2.249-5.896 0-8.146 9.785-9.785 9.785-25.707 0-35.493-2.249-2.249-2.249-5.897 0-8.146 2.25-2.249 5.897-2.249 8.146 0 14.277 14.277 14.277 37.508 0 51.785-1.125 1.124-2.598 1.687-4.073 1.687z" fill="rgb(0,0,0)" fill-rule="evenodd"/></g><g><path clip-rule="evenodd" d="m356.007 215.555c-1.474 0-2.948-.562-4.073-1.687-2.249-2.25-2.249-5.897 0-8.146 14.798-14.798 14.798-38.877 0-53.676-2.249-2.249-2.249-5.897 0-8.146s5.897-2.25 8.146 0c19.29 19.29 19.29 50.677 0 69.967-1.125 1.126-2.599 1.688-4.073 1.688z" fill="rgb(0,0,0)" fill-rule="evenodd"/></g><g><path clip-rule="evenodd" d="m377.53 224.957c-1.474 0-2.948-.562-4.073-1.687-2.249-2.25-2.249-5.896 0-8.146 19.811-19.811 19.811-52.047 0-71.858-2.249-2.25-2.249-5.897 0-8.146s5.897-2.249 8.146 0c11.773 11.773 18.256 27.426 18.256 44.075s-6.484 32.302-18.256 44.075c-1.125 1.125-2.599 1.687-4.073 1.687z" fill="rgb(0,0,0)" fill-rule="evenodd"/></g></g><g><g><path clip-rule="evenodd" d="m158.062 206.464c-1.474 0-2.948-.562-4.073-1.687-14.277-14.277-14.277-37.508 0-51.785 2.25-2.249 5.896-2.249 8.146 0 2.25 2.25 2.25 5.897 0 8.146-9.786 9.785-9.786 25.707 0 35.493 2.25 2.25 2.25 5.897 0 8.146-1.125 1.124-2.599 1.687-4.073 1.687z" fill="rgb(0,0,0)" fill-rule="evenodd"/></g><g><path clip-rule="evenodd" d="m136.513 215.555c-1.474 0-2.948-.562-4.073-1.687-19.29-19.29-19.29-50.677 0-69.967 2.25-2.249 5.896-2.249 8.146 0 2.25 2.25 2.25 5.897 0 8.146-14.798 14.798-14.798 38.878 0 53.676 2.25 2.25 2.25 5.897 0 8.146-1.124 1.124-2.599 1.686-4.073 1.686z" fill="rgb(0,0,0)" fill-rule="evenodd"/></g><g><path clip-rule="evenodd" d="m114.99 224.957c-1.474 0-2.948-.562-4.073-1.687-11.773-11.773-18.256-27.426-18.256-44.075s6.484-32.302 18.256-44.075c2.25-2.249 5.896-2.249 8.146 0 2.25 2.25 2.25 5.896 0 8.146-19.811 19.811-19.811 52.047 0 71.858 2.25 2.25 2.25 5.897 0 8.146-1.124 1.125-2.598 1.687-4.073 1.687z" fill="rgb(0,0,0)" fill-rule="evenodd"/></g></g></g></g></g></g></svg>