<svg id="outline" height="512" viewBox="0 0 512 512" width="512" xmlns="http://www.w3.org/2000/svg"><g><path d="m488 240h-8.966c5.958-12.878 8.966-23.58 8.966-32 0-39.701-32.299-72-72-72-36.996 0-67.551 28.052-71.545 64h-20.455c-6.617 0-12-5.383-12-12v-64c0-6.617 5.383-12 12-12h112c15.439 0 28-12.561 28-28 0-7.476-2.913-14.506-8.203-19.797-5.29-5.29-12.321-8.203-19.797-8.203h-187.754l-6.592-26.366c-2.006-8.028-9.187-13.634-17.462-13.634h-176.384c-8.275 0-15.456 5.606-17.462 13.634l-14.107 56.426c-.318 1.274-.318 2.606 0 3.881l4.119 16.478c1.751 7.003 5.998 12.83 11.642 16.661v84.92c0 4.418 3.582 8 8 8h192c4.418 0 8-3.582 8-8v-83.328c5.187-3.105 9.122-8.175 10.671-14.373l5.09-20.358c.318-1.274.318-2.606 0-3.881l-3.515-14.06h183.754c3.203 0 6.215 1.249 8.483 3.517s3.517 5.281 3.517 8.483c0 6.617-5.383 12-12 12h-112c-15.439 0-28 12.561-28 28v64c0 15.439 12.561 28 28 28h20.778c1.241 6.887 3.979 14.901 8.188 24h-328.966c-4.418 0-8 3.582-8 8v240c0 4.418 3.582 8 8 8h464c4.418 0 8-3.582 8-8v-240c0-4.418-3.582-8-8-8zm-302.246-208 12 48h-30.692l-6-48zm12 64-1.634 6.537c-1.393 5.571-6.377 9.463-12.12 9.463s-10.727-3.892-12.12-9.463l-1.634-6.537zm-70.692-64h17.875l6 48h-29.875zm22.692 64-1.634 6.537c-1.393 5.571-6.377 9.463-12.12 9.463s-10.727-3.892-12.12-9.463l-1.634-6.537zm-63.508-64h24.692l-6 48h-30.692zm15.508 64-2.605 10.419c-.821 3.286-3.761 5.581-7.149 5.581s-6.328-2.295-7.149-5.582l-2.605-10.418zm-55.886-62.485c.222-.892 1.02-1.515 1.94-1.515h21.946l-12 48h-23.508zm-2.866 77.443c-3.469-1.512-6.157-4.562-7.122-8.421l-1.634-6.537h27.508l-1.634 6.537c-1.393 5.571-6.377 9.463-12.12 9.463-1.709 0-3.348-.352-4.848-.983-.049-.021-.1-.039-.15-.059zm68.998 89.042h-32v-48h32zm112 0h-96v-56c0-4.418-3.582-8-8-8h-48c-4.418 0-8 3.582-8 8v56h-16v-72c9.578 0 18.23-4.745 23.431-12.266 4.001 7.431 11.814 12.266 20.569 12.266s16.568-4.835 20.569-12.265c5.201 7.52 13.853 12.265 23.431 12.265 9.936 0 18.875-5.107 24-13.12 5.124 8.013 14.064 13.12 24 13.12 9.578 0 18.23-4.745 23.431-12.266 3.379 6.275 9.481 10.687 16.569 11.91zm11.149-93.581c-.821 3.286-3.761 5.581-7.149 5.581s-6.328-2.295-7.149-5.582l-2.605-10.418h19.507zm-20.903-26.419-12-48h21.946c.919 0 1.717.623 1.94 1.515l11.622 46.485zm201.754 72c30.878 0 56 25.121 56 56 0 23.855-36.09 74.239-56 99.313-19.91-25.074-56-75.458-56-99.313 0-30.879 25.122-56 56-56zm-134.938 104 8.155 57.084c-2.962-.701-6.045-1.084-9.217-1.084-22.056 0-40 17.944-40 40h-46.104l20.571-96zm22.938 96c0 8.737-12.487 31.543-24.001 49.535-11.514-17.986-23.999-40.788-23.999-49.535 0-13.233 10.766-24 24-24s24 10.767 24 24zm-272-96h126.104l-11.201 52.255c-9.58-7.66-21.712-12.255-34.903-12.255-30.878 0-56 25.121-56 56h-24zm120 96c0 15.369-22.439 50.924-40 74.751-17.561-23.827-40-59.382-40-74.751 0-22.056 17.944-40 40-40s40 17.944 40 40zm-120 16h27.227c1.748 5.085 4.111 10.493 6.855 16h-34.082zm0 112v-80h42.866c12.835 21.616 27.988 41.286 30.828 44.923 1.516 1.942 3.842 3.077 6.306 3.077s4.79-1.135 6.306-3.077c2.839-3.637 17.992-23.307 30.828-44.923h36.62l20 80zm190.246 0-22.485-89.94c-.891-3.562-4.09-6.06-7.761-6.06h-34.082c5.921-11.882 10.082-23.317 10.082-32 0-10.496-2.908-20.323-7.953-28.728l14.42-67.272h23.638l-21.927 102.324c-.506 2.362.082 4.826 1.601 6.705s3.805 2.971 6.221 2.971h59.787c1.961 5.116 4.53 10.579 7.355 16h-27.142c-2.463 0-4.79 1.135-6.306 3.077-1.516 1.941-2.053 4.474-1.456 6.863l21.516 86.06zm32 0-20-80h25.925c5.796 9.617 11.127 17.478 13.247 20.547 1.494 2.162 3.955 3.453 6.583 3.453s5.089-1.291 6.583-3.453c2.119-3.069 7.451-10.93 13.247-20.547h21.925l20 80zm225.754 0h-89.754l-20-80h109.754zm0-96h-120c-2.463 0-4.79 1.135-6.306 3.077-1.516 1.941-2.053 4.474-1.456 6.863l21.516 86.06h-15.507l-22.485-89.94c-.891-3.562-4.09-6.06-7.761-6.06h-19.143c6.163-11.829 11.142-23.886 11.142-32 0-11.81-5.148-22.437-13.314-29.765l-9.462-66.235h15.838l15.019 105.132c.563 3.94 3.938 6.868 7.919 6.868h144zm0-32h-137.062l-13.714-96h32.022c4.504 7.948 9.884 16.536 16.134 25.747 16.04 23.64 31.815 42.585 32.479 43.38 1.52 1.82 3.77 2.873 6.141 2.873s4.621-1.053 6.141-2.873c.664-.795 16.439-19.74 32.479-43.38 6.25-9.211 11.629-17.799 16.134-25.747h9.246z"/><path d="m200 136h-48c-4.418 0-8 3.582-8 8v32c0 4.418 3.582 8 8 8h48c4.418 0 8-3.582 8-8v-32c0-4.418-3.582-8-8-8zm-8 32h-32v-16h32z"/><path d="m456 208c0-22.056-17.944-40-40-40s-40 17.944-40 40 17.944 40 40 40 40-17.944 40-40zm-64 0c0-13.233 10.767-24 24-24s24 10.767 24 24-10.767 24-24 24-24-10.767-24-24z"/><path d="m136 352c0-13.233-10.766-24-24-24s-24 10.767-24 24 10.766 24 24 24 24-10.767 24-24zm-32 0c0-4.411 3.589-8 8-8s8 3.589 8 8-3.589 8-8 8-8-3.589-8-8z"/><circle cx="280" cy="352" r="16"/></g></svg>