<svg height="409.6pt" viewBox="0 0 409.6 409.6" width="409.6pt" xmlns="http://www.w3.org/2000/svg"><path d="m243.910156 348.570312-9.46875-5.171874c-8.585937-4.683594-15.613281-11.699219-20.3125-20.273438l-5.179687-9.453125c-1.792969-3.28125-7.183594-3.28125-8.980469 0l-5.179688 9.453125c-4.699218 8.574219-11.722656 15.589844-20.308593 20.273438l-9.46875 5.171874c-1.648438.898438-2.667969 2.621094-2.667969 4.496094s1.019531 3.59375 2.667969 4.492188l9.46875 5.171875c8.585937 4.683593 15.609375 11.699219 20.308593 20.273437l5.179688 9.457032c.898438 1.640624 2.621094 2.660156 4.492188 2.660156 1.867187 0 3.589843-1.019532 4.488281-2.660156l5.179687-9.457032c4.699219-8.574218 11.726563-15.589844 20.3125-20.273437l9.46875-5.171875c1.644532-.898438 2.667969-2.617188 2.667969-4.492188s-1.023437-3.597656-2.667969-4.496094zm-14.375 5.167969c-10.308594 5.632813-18.742187 14.046875-24.386718 24.347657l-.6875 1.257812-.691407-1.257812c-5.640625-10.300782-14.074219-18.714844-24.382812-24.347657l-1.238281-.671875 1.238281-.675781c10.308593-5.628906 18.742187-14.046875 24.382812-24.34375l.691407-1.261719.6875 1.261719c5.644531 10.296875 14.078124 18.714844 24.386718 24.34375l1.238282.675781zm0 0"/><path d="m406.078125 353.511719-11.914063-6.507813c-11.027343-6.019531-20.050781-15.023437-26.085937-26.039062l-6.515625-11.894532c-1.796875-3.28125-7.183594-3.28125-8.980469 0l-6.515625 11.894532c-6.035156 11.015625-15.054687 20.019531-26.082031 26.039062l-11.917969 6.507813c-1.644531.898437-2.667968 2.617187-2.667968 4.492187s1.023437 3.597656 2.667968 4.496094l11.917969 6.503906c11.027344 6.019532 20.046875 15.027344 26.082031 26.042969l6.515625 11.894531c.898438 1.636719 2.621094 2.660156 4.492188 2.660156 1.867187 0 3.589843-1.023437 4.488281-2.660156l6.515625-11.894531c6.035156-11.015625 15.058594-20.023437 26.085937-26.042969l11.914063-6.503906c1.648437-.898438 2.667969-2.621094 2.667969-4.496094s-1.019532-3.59375-2.667969-4.492187zm-16.820313 6.503906c-12.753906 6.960937-23.179687 17.375-30.15625 30.109375l-2.027343 3.699219-2.027344-3.699219c-6.976563-12.734375-17.40625-23.144531-30.160156-30.109375l-3.683594-2.011719 3.683594-2.007812c12.753906-6.964844 23.183593-17.375 30.160156-30.109375l2.027344-3.703125 2.027343 3.703125c6.976563 12.734375 17.402344 23.148437 30.15625 30.109375l3.683594 2.007812zm0 0"/><path d="m0 148.664062c0 1.875 1.023438 3.597657 2.667969 4.496094l15.183593 8.289063c14.285157 7.800781 25.96875 19.460937 33.785157 33.726562l8.300781 15.152344c.898438 1.640625 2.621094 2.660156 4.488281 2.660156 1.871094 0 3.59375-1.019531 4.492188-2.660156l8.300781-15.152344c7.816406-14.265625 19.5-25.925781 33.789062-33.726562l15.179688-8.289063c1.640625-.898437 2.664062-2.621094 2.664062-4.496094s-1.023437-3.59375-2.664062-4.492187l-15.183594-8.292969c-14.285156-7.800781-25.96875-19.457031-33.785156-33.722656l-8.300781-15.15625c-1.796875-3.28125-7.183594-3.28125-8.980469 0l-8.300781 15.15625c-7.816407 14.265625-19.5 25.921875-33.785157 33.722656l-15.183593 8.292969c-1.644531.898437-2.667969 2.617187-2.667969 4.492187zm22.753906-3.792968c16.011719-8.746094 29.105469-21.8125 37.859375-37.796875l3.8125-6.960938 3.8125 6.960938c8.757813 15.984375 21.847657 29.050781 37.859375 37.796875l6.953125 3.792968-6.949219 3.796876c-16.015624 8.742187-29.105468 21.808593-37.863281 37.792968l-3.8125 6.960938-3.8125-6.960938c-8.753906-15.984375-21.847656-29.050781-37.859375-37.792968l-6.953125-3.796876zm0 0"/><path d="m148.621094 59.398438c0-15.773438-12.832032-28.609376-28.601563-28.609376-15.765625 0-28.597656 12.835938-28.597656 28.609376 0 15.78125 12.832031 28.617187 28.597656 28.617187 15.769531 0 28.601563-12.835937 28.601563-28.617187zm-28.601563 18.375c-10.121093 0-18.355469-8.242188-18.355469-18.375 0-10.128907 8.234376-18.367188 18.355469-18.367188 10.121094 0 18.359375 8.238281 18.359375 18.367188 0 10.132812-8.238281 18.375-18.359375 18.375zm0 0"/><path d="m63.550781 28.613281c0-15.777343-12.832031-28.613281-28.601562-28.613281s-28.597657 12.835938-28.597657 28.613281c0 15.777344 12.828126 28.613281 28.597657 28.613281s28.601562-12.835937 28.601562-28.613281zm-46.960937 0c0-10.128906 8.238281-18.375 18.359375-18.375 10.125 0 18.359375 8.246094 18.359375 18.375 0 10.132813-8.234375 18.371094-18.359375 18.371094-10.121094 0-18.359375-8.238281-18.359375-18.371094zm0 0"/><path d="m272.03125 274.464844c-15.769531 0-28.601562 12.835937-28.601562 28.613281s12.832031 28.613281 28.601562 28.613281c15.765625 0 28.597656-12.835937 28.597656-28.613281s-12.832031-28.613281-28.597656-28.613281zm0 46.984375c-10.125 0-18.359375-8.238281-18.359375-18.371094 0-10.128906 8.234375-18.375 18.359375-18.375 10.121094 0 18.355469 8.246094 18.355469 18.375 0 10.132813-8.234375 18.371094-18.355469 18.371094zm0 0"/><path d="m285.71875 0c-68.304688 0-123.875 55.570312-123.875 123.878906 0 15.160156 2.730469 29.980469 8.125 44.101563l-23.261719 23.265625c-2 2-2 5.238281 0 7.238281l16.15625 16.15625-92.617187 92.851563c-5.523438-1.976563-11.445313-3.105469-17.636719-3.105469-29.007813 0-52.609375 23.597656-52.609375 52.601562 0 29.011719 23.601562 52.613281 52.609375 52.613281s52.609375-23.601562 52.609375-52.613281c0-6.128906-1.109375-11.992187-3.046875-17.464843l92.671875-92.902344 16.273438 16.273437c.960937.960938 2.261718 1.5 3.621093 1.5 1.355469 0 2.660157-.539062 3.621094-1.5l23.261719-23.265625c14.121094 5.394532 28.941406 8.132813 44.097656 8.132813 68.308594 0 123.882812-55.570313 123.882812-123.882813 0-68.308594-55.574218-123.878906-123.882812-123.878906zm94.527344 186.875-49.167969.835938.855469-50.28125c.023437-1.382813-.515625-2.726563-1.5-3.703126-.980469-.980468-2.441406-1.445312-3.707032-1.5l-50.261718.867188.863281-50.265625c.023437-1.386719-.515625-2.726563-1.5-3.707031-.976563-.980469-2.296875-1.417969-3.707031-1.5l-50.257813.875.863281-49.140625c10.871094-7.269531 23.0625-12.699219 36.125-15.878907l137.269532 137.269532c-3.179688 13.066406-8.605469 25.257812-15.875 36.128906zm-327.636719 212.484375c-23.363281 0-42.371094-19.003906-42.371094-42.371094 0-23.359375 19.007813-42.363281 42.371094-42.363281 23.359375 0 42.367187 19.003906 42.367187 42.363281 0 23.367188-19.007812 42.371094-42.367187 42.371094zm44.894531-69.652344c-4.359375-7.140625-10.347656-13.148437-17.476562-17.523437l90.074218-90.300782 17.5 17.496094zm144.832032-100.808593c-1.910157-.804688-4.109376-.351563-5.574219 1.113281l-22.023438 22.023437-57.171875-57.171875 22.023438-22.023437c1.464844-1.464844 1.902344-3.664063 1.113281-5.574219-5.71875-13.832031-8.621094-28.425781-8.621094-43.386719 0-5.375.402344-10.65625 1.128907-15.835937l128.347656 128.347656c-5.179688.726563-10.460938 1.128906-15.839844 1.128906-14.953125 0-29.550781-2.898437-43.382812-8.621093zm71.34375 5.132812-138.109376-138.109375c5.90625-23.25 19.007813-43.652344 36.773438-58.71875l-.8125 46.410156c-.019531 1.390625.519531 2.730469 1.5 3.710938.984375.984375 2.339844 1.597656 3.710938 1.5l50.257812-.875-.863281 50.265625c-.023438 1.390625.515625 2.730468 1.5 3.710937.980469.984375 2.425781 1.570313 3.707031 1.5l50.261719-.871093-.855469 50.28125c-.023438 1.382812.515625 2.722656 1.5 3.703124.960938.960938 2.261719 1.5 3.621094 1.5h.085937l46.445313-.789062c-15.066406 17.769531-35.46875 30.875-58.722656 36.78125zm84.703124-95.503906-127.3125-127.3125c4.800782-.621094 9.683594-.976563 14.648438-.976563 62.664062 0 113.640625 50.980469 113.640625 113.640625 0 4.96875-.355469 9.851563-.976563 14.648438zm0 0"/></svg>