<svg id="Capa_1" enable-background="new 0 0 513.6 513.6" height="512" viewBox="0 0 513.6 513.6" width="512" xmlns="http://www.w3.org/2000/svg"><g><path d="m318.139 131.843-211.027 70.286c-4.084 1.361-7.008 5.183-7.008 9.487v196.213c-10-9.59-24.562-15.438-40.002-15.438-33.196.001-60.102 27.009-60.102 60.205s26.856 60.204 60.052 60.204 60.052-27.008 60.052-60.204v-143.404l191-63.619v112.053c-10-9.59-24.633-15.438-40.073-15.438-33.196 0-60.138 27.008-60.138 60.204s26.909 60.204 60.106 60.204 60.106-27.008 60.106-60.204c0-12.658 0-251.161 0-261.062-.001-7.176-6.763-11.547-12.966-9.487zm-257.834 360.957c-22.169 0-40.204-18.035-40.204-40.204s18.035-40.204 40.204-40.204 40.204 18.035 40.204 40.204-18.035 40.204-40.204 40.204zm59.799-273.976 191-63.62v69.286l-191 63.619zm151.059 223.772c-22.169 0-40.204-18.035-40.204-40.204s18.035-40.204 40.204-40.204 40.204 18.035 40.204 40.204-18.035 40.204-40.204 40.204z"/><path d="m359.547 43.82-24.447-13.371-13.372-24.448c-3.788-6.927-13.761-6.924-17.547.001l-13.37 24.446-24.447 13.372c-6.927 3.788-6.924 13.761.001 17.547l24.446 13.37 13.37 24.446c3.787 6.927 13.76 6.926 17.547.001l13.371-24.447 24.446-13.37c6.928-3.788 6.926-13.76.002-17.547zm-36.614 14.775c-1.679.917-3.058 2.297-3.976 3.975l-6.003 10.976-6.002-10.975c-.918-1.679-2.297-3.058-3.976-3.976l-10.975-6.002 10.976-6.003c1.678-.918 3.058-2.297 3.975-3.976l6.002-10.975 6.003 10.976c.918 1.678 2.297 3.057 3.975 3.975l10.976 6.003z"/><path d="m508.406 414.025-30.938-16.921-16.921-30.939c-3.789-6.927-13.761-6.923-17.547 0l-16.921 30.939-30.938 16.921c-6.927 3.788-6.924 13.761.001 17.547l30.936 16.92 16.921 30.939c3.789 6.927 13.761 6.923 17.547 0l16.921-30.939 30.936-16.92c6.929-3.788 6.928-13.76.003-17.547zm-43.104 18.325c-1.678.918-3.057 2.297-3.975 3.975l-9.553 17.467-9.553-17.467c-.918-1.678-2.297-3.057-3.975-3.975l-17.466-9.552 17.466-9.553c1.678-.918 3.057-2.297 3.975-3.975l9.553-17.467 9.553 17.467c.918 1.678 2.297 3.057 3.975 3.975l17.466 9.553z"/><path d="m472.104 181.494v-146.551l23.009 23.092c3.906 3.904 10.195 3.904 14.101 0 3.905-3.905 3.884-10.237-.021-14.142l-40.173-40.164c-2.86-2.859-7.083-3.715-10.821-2.168-3.736 1.548-6.095 5.194-6.095 9.239v125.928c-11-9.59-24.847-15.438-40.287-15.438-33.196 0-60.246 27.008-60.246 60.204s27.07 60.204 60.266 60.204c33.197 0 60.267-27.007 60.267-60.204zm-100.574 0c0-22.169 18.035-40.204 40.204-40.204s40.204 18.035 40.204 40.204-18.035 40.204-40.204 40.204-40.204-18.035-40.204-40.204z"/><path d="m50.104 171.412c5.523 0 10-4.478 10-10v-150.612c0-5.522-4.477-10-10-10s-10 4.477-10 10v150.612c0 5.523 4.478 10 10 10z"/><path d="m90.104 131.249c5.522 0 10-4.478 10-10v-70.286c0-5.523-4.478-10-10-10s-10 4.477-10 10v70.286c0 5.523 4.478 10 10 10z"/><path d="m130.104 151.33c5.522 0 10-4.477 10-10v-110.448c0-5.522-4.478-10-10-10s-10 4.478-10 10v110.448c0 5.523 4.478 10 10 10z"/><path d="m171.104 141.29c5.522 0 10-4.478 10-10v-80.327c0-5.523-4.478-10-10-10-5.523 0-10 4.477-10 10v80.327c0 5.523 4.478 10 10 10z"/><path d="m211.104 101.126c5.522 0 10-4.478 10-10v-50.204c0-5.522-4.478-10-10-10-5.523 0-10 4.478-10 10v50.204c0 5.523 4.478 10 10 10z"/><path d="m10.104 141.29c5.523 0 10-4.478 10-10v-90.368c0-5.522-4.477-10-10-10s-10 4.478-10 10v90.368c0 5.523 4.478 10 10 10z"/></g></svg>