<svg id="Capa_1" enable-background="new 0 0 512 512" height="512" viewBox="0 0 512 512" width="512" xmlns="http://www.w3.org/2000/svg"><g><path d="m461.177 51.226c-56.21-56.654-142.467-65.331-216.023-30.902-3.761 1.761-5.394 6.26-3.647 10.051s6.214 5.436 9.972 3.676c23.476-10.989 48.802-17.372 73.713-18.659 1.04 95.025 77.12 171.827 171.543 172.873-2.546 50.156-25.305 101.185-65.2 139.894-41.914-45.461-117.754-23.688-129.204 37.549l-101.449-102.238c-2.932-2.956-7.686-2.955-10.618 0-2.933 2.955-2.932 7.746 0 10.701l111.023 111.885c.044.536.073 1.077.128 1.61-102.94 6.77-181.52-72.415-173.985-176.818 41.22 40.403 39.732 42.56 45.342 42.56 6.627 0 10.054-8.135 5.309-12.918l-48.326-48.701c9.65-56.07 43.797-108.21 92.841-141.339 3.445-2.327 4.365-7.028 2.057-10.499-2.309-3.472-6.973-4.4-10.417-2.072-88.274 59.631-125.606 171.701-87.53 260.521-27.275 29.15-35.716 31.754-39.894 47.115-2.304 8.451-8.95 15.145-17.341 17.469-12.473 3.447-21.786 12.66-25.308 25.507-2.298 8.456-8.938 15.147-17.343 17.467-17.928 4.992-30.005 22.14-26.078 45.898 5.219 31.565 36.774 60.144 67.648 60.144 19.035 0 32.541-11.291 36.826-27.036 2.306-8.458 8.949-15.156 17.327-17.478 12.603-3.476 21.821-12.745 25.322-25.508 2.295-8.447 8.936-15.138 17.328-17.463 15.16-4.19 18.137-12.984 45.255-38.708 27.546 13.111 59.838 19.416 94.045 16.811 9.637 30.753 38.206 53.113 71.864 53.113 58.826 0 94.795-65.216 64.328-115.432 84.162-80.432 97.42-211.519 20.492-289.073zm-120.979-35.999c88.13 2.716 153.938 69.189 156.699 157.917-86.114-.953-155.752-70.998-156.699-157.917zm-178.98 394.694c-13.481 3.734-24.148 14.486-27.832 28.042-2.066 7.535-7.26 12.844-14.816 14.928-13.467 3.733-24.132 14.486-27.835 28.066-6.259 23.001-38.077 19.541-58.7-1.242-22.717-22.885-22.196-53.326-1.232-59.166 13.482-3.721 24.15-14.473 27.839-28.044 2.033-7.416 7.179-12.819 14.804-14.927 13.475-3.732 24.145-14.481 27.846-28.057 2.571-9.45 6.861-9.896 32.366-36.725 14.581 26.982 36.132 49.644 62.928 65.578-25.547 24.641-26.056 28.973-35.368 31.547zm215.139 30.676c-33.266 0-60.331-27.276-60.331-60.803s27.064-60.803 60.331-60.803c33.266 0 60.331 27.276 60.331 60.803-.001 33.527-27.065 60.803-60.331 60.803z"/><path d="m288.573 221.008c21.302 21.334 59.918-1.184 52.314-24.363-1.91-5.826-6.137-10.861-11.896-16.628-6.599-6.609-22.051-22.085-38.579-5.321-13.172 13.359-13.997 34.135-1.839 46.312zm12.491-35.645c4.121-4.179 6.405-5.566 17.343 5.388 3.485 3.49 7.187 7.484 8.223 10.643.368 1.121.983 2.997-2.768 6.801-7.337 7.439-18.419 8.372-24.704 2.077-6.285-6.294-5.43-17.468 1.906-24.909z"/><path d="m366.423 250.907c2.932 2.936 7.686 2.941 10.618-.033 8.328-8.446 8.285-22.147-.095-30.54-15.196-15.218-40.324.728-30.269 10.798 2.94 2.945 7.694 2.931 10.618-.035 2.515-2.55 6.572-2.525 9.066-.029 2.508 2.511 2.52 6.611.029 9.138-2.923 2.964-2.908 7.755.033 10.701z"/><path d="m258.386 132.037c-2.923 2.964-2.908 7.756.033 10.701 2.942 2.946 7.695 2.931 10.618-.033 1.207-1.224 2.815-1.902 4.528-1.907 5.743-.018 8.55 6.978 4.568 11.016-2.923 2.964-2.908 7.755.033 10.701 9.942 9.959 25.782-15.291 10.523-30.573-8.389-8.403-21.948-8.38-30.303.095z"/></g></svg>