<svg height="512" viewBox="0 0 128 128" width="512" xmlns="http://www.w3.org/2000/svg"><g id="Icons"><path d="m107.438 2h-86.885a7.745 7.745 0 0 0 -7.737 7.735v108.52a7.755 7.755 0 0 0 7.746 7.745h86.885a7.745 7.745 0 0 0 7.737-7.735v-108.52a7.755 7.755 0 0 0 -7.746-7.745zm5.746 116.265a5.743 5.743 0 0 1 -5.737 5.735h-86.885a5.752 5.752 0 0 1 -5.746-5.745v-108.52a5.743 5.743 0 0 1 5.737-5.735h86.885a5.752 5.752 0 0 1 5.746 5.745z"/><path d="m102.91 10.59h-77.83a3.679 3.679 0 0 0 -3.67 3.68v99.46a3.679 3.679 0 0 0 3.67 3.68h77.84a3.679 3.679 0 0 0 3.67-3.68v-99.45a3.689 3.689 0 0 0 -3.68-3.69zm-79.5 52.29h26.983c-.031.371-.057.743-.057 1.121s.027.749.058 1.119h-26.984zm40.59-10.544a11.672 11.672 0 0 1 11.664 11.655h1l-1 .008a11.664 11.664 0 1 1 -11.664-11.663zm13.608 10.544h26.982v2.24h-26.984c.031-.37.058-.742.058-1.12v-.009c0-.375-.026-.744-.056-1.111zm8.718-50.29a22.348 22.348 0 0 1 -44.652 0zm-61.246 0h14.594a24.346 24.346 0 0 0 48.652 0h14.584a1.688 1.688 0 0 1 1.68 1.69v46.6h-27.3a13.649 13.649 0 0 0 -26.583 0h-27.297v-46.61a1.677 1.677 0 0 1 1.67-1.68zm16.594 102.82a22.348 22.348 0 0 1 44.652 0zm61.246 0h-14.594a24.346 24.346 0 0 0 -48.652 0h-14.594a1.677 1.677 0 0 1 -1.67-1.68v-46.61h27.3a13.644 13.644 0 0 0 26.574 0h27.3v46.61a1.677 1.677 0 0 1 -1.664 1.68z"/></g></svg>