<svg id="Capa_1" enable-background="new 0 0 512 512" height="512" viewBox="0 0 512 512" width="512" xmlns="http://www.w3.org/2000/svg"><g><g><path d="m122.682 123.35-7.53 7.53c-2.929 2.93-2.929 7.678 0 10.607 2.93 2.929 7.678 2.928 10.606 0l7.53-7.53c2.929-2.93 2.929-7.678 0-10.607-2.929-2.928-7.678-2.928-10.606 0z"/><path d="m448.672 338.043-29.345-122.649c20.25 8.396 34.581 27.167 36.96 49.723.043.394-.281-1.578 2.066 12.107 1.174 13.91 12.805 24.596 26.769 24.596 15.429 0 27.774-13.006 26.819-28.594l-.893-12.594c-4.547-63.725-57.349-113.235-121.283-113.606-20.462-22.322-49.722-34.364-79.974-33.176-3.185.126-6.4.205-9.62.261-4.713-23.891-26.005-42.413-51.202-42.596-7.87-.072-15.57-2.983-21.681-8.195-11.154-9.517-25.669-14.868-41.257-14.359-8.508.301-16.562-2.284-22.667-7.295-15.757-12.917-36.403-17.904-55.921-14.069-4.064.799-6.712 4.741-5.913 8.806.799 4.064 4.743 6.712 8.806 5.913 15.288-3.005 31.354.979 43.515 10.947 8.928 7.328 20.532 11.125 32.689 10.689 11.777-.369 22.63 3.627 31.013 10.779 8.786 7.494 19.894 11.679 31.293 11.784 17.073.126 31.515 11.963 35.92 27.584-49.676-.936-99.262-10.393-144.583-26.029-16.451-5.684-35.011-1.419-47.291 10.861l-19.317 19.317c-10.16-19.561-7.325-44.718 9.972-61.713 2.954-2.903 2.996-7.651.093-10.606-2.902-2.953-7.65-2.995-10.606-.093-23.382 22.975-26.214 57.644-10.453 83.413l-8.93 8.924c-19.428 19.45-19.437 50.879.003 70.344 19.22 19.221 50.378 19.38 69.813.506 5.394 39.622-3.481 76.923-50.458 134.134-1.014-.6-2.004-1.191-2.953-1.766-30.834-18.684-70.056 3.7-70.056 39.454 0 16.135 8.416 31.081 22.223 39.464 96.721 58.609 210.929 78.626 321.546 56.692 4.062-.806 6.703-4.752 5.897-8.815-.806-4.062-4.752-6.702-8.815-5.897-107.09 21.231-217.486 1.768-310.848-54.804-9.334-5.67-15.003-15.754-15.003-26.64 0-24.063 26.423-39.262 47.285-26.625 119.601 72.462 269.184 71.882 387.432 0 20.821-12.617 47.283 2.521 47.283 26.625 0 10.898-5.682 20.98-14.997 26.636-33.674 20.402-69.909 36.146-107.697 46.795-3.987 1.123-6.309 5.266-5.185 9.253 1.123 3.986 5.266 6.309 9.253 5.185 39.09-11.015 76.571-27.3 111.408-48.407 13.794-8.377 22.218-23.321 22.218-39.462 0-32.559-33.054-55.072-63.328-42.802zm47.413-76.345.889 12.519c.421 6.838-5.002 12.603-11.852 12.603-6.312 0-11.411-4.891-11.835-11.04-.049-.703-.042-.394-2.109-12.486-3.477-31.975-26.411-57.293-55.958-65.058-1.06-3.477-3.022-18.121-13.607-35.475 50.344 5.965 90.786 47.278 94.472 98.937zm-310.498-145.013c41.967 9.698 84.009 13.768 124.796 12.153 14.845-.577 29.48 2.549 42.648 9.064-9.077 53.654-71.156 73.994-116.907 56.221-32.25-12.526-52.306-42.194-50.537-77.438zm108.095 96.258v56.193c-7.824-1.213-15.75-1.835-23.665-1.835-9.646 0-19.4 1.05-29.107 3.123v-58.963c17.468 4.788 35.932 4.886 52.772 1.482zm-229.418-15.029c-12.554-12.568-13.445-32.178-2.97-45.749 10.751 4.06 38.324 17.254 48.834 48.615-13.619 10.587-33.361 9.637-45.864-2.866zm22.002 152.724c52.919-65.229 59.081-108.29 50.257-154.644l14.346-14.346c2.929-2.93 2.929-7.678 0-10.607-2.929-2.928-7.678-2.928-10.607 0-6.718 6.718-11.674 11.674-18.401 18.4-11.935-28.08-35.315-42.44-49.411-48.849 1.466-1.467 29.582-29.589 31.048-31.055 8.25-8.25 20.727-11.111 31.79-7.29 11.636 4.015 23.55 7.628 35.502 10.78-3.22 40.748 18.221 76.553 55.12 93.062v68.376c-45.569 14.8-85.407 51.293-102.351 93.533-12.733-5.06-25.223-10.882-37.293-17.36zm51.354 22.611c15.919-39.119 55.123-73.901 97.839-86.021 11.503-3.269 23.13-4.926 34.558-4.926 9.931 0 19.881 1.067 29.576 3.174 44.009 9.539 80.961 39.606 97.46 78.969-83.38 35.706-176.056 37.968-259.433 8.804zm273.095-14.994c-17.703-41.85-56.043-74.157-102.033-86.022v-63.43c30.168-10.693 51.059-33.377 57.96-62.56 15.574 11.623 27.622 28.664 32.58 49.602 4.002 16.724 31.917 133.382 35.806 149.632-7.942 4.568-16.081 8.841-24.313 12.778z"/></g></g></svg>