<?xml version="1.0" encoding="iso-8859-1"?>
<!-- Generator: Adobe Illustrator 18.0.0, SVG Export Plug-In . SVG Version: 6.00 Build 0)  -->
<!DOCTYPE svg PUBLIC "-//W3C//DTD SVG 1.1//EN" "http://www.w3.org/Graphics/SVG/1.1/DTD/svg11.dtd">
<svg version="1.1" id="Capa_1" xmlns="http://www.w3.org/2000/svg" xmlns:xlink="http://www.w3.org/1999/xlink" x="0px" y="0px"
	 viewBox="0 0 469.263 469.263" style="enable-background:new 0 0 469.263 469.263;" xml:space="preserve">
<path d="M462.562,344.597c-9.404-15.676-26.303-20.34-44.192-25.279c-18.221-5.03-38.873-10.731-55.311-29.313
	c-32.527-36.77-77.262-145.924-77.709-147.022c-0.979-2.398-3.631-3.652-6.101-2.89c-0.927,0.286-93.324,28.197-149.105,0.307
	c-28.633-14.316-44.935-41.23-53.568-61.287c-9.496-22.062-12.093-40.958-12.117-41.144c-0.255-1.927-1.604-3.532-3.458-4.115
	c-1.856-0.583-3.88-0.038-5.19,1.397c-0.803,0.879-19.854,21.856-35.6,50.056c-21.215,37.995-25.829,70.82-13.362,94.966
	c2.496,7.906,40.528,130.225,43.288,244.15c0.066,2.713,2.285,4.879,4.999,4.879h29.109c1.374,0,2.687-0.565,3.631-1.563
	s1.437-2.339,1.361-3.711c-0.05-0.919-5.018-92.656-3.516-158.639c0.114-5.023,3.446-8.05,6.525-9.208
	c3.071-1.153,7.561-1.073,10.95,2.625l4.232,4.614c1.354,1.844,2.652,3.703,3.862,5.53c3.004,4.531,5.613,9.058,7.755,13.458
	c3.771,7.739,7.58,15.712,11.612,24.153c26.516,55.499,53.934,112.887,78.397,122.4c10.771,4.191,43.206,6.678,81.817,6.678
	c11.66,0,23.888-0.227,36.246-0.702c87.334-3.359,116.067-15.626,125.422-22.64c0.323-0.242,0.615-0.522,0.871-0.834
	c0.288-0.353,7.124-8.784,11.728-21.059C471.407,373.692,470.516,357.852,462.562,344.597z M56.555,49.844
	c1.828,8.028,5.119,19.883,10.722,32.957c13.326,31.094,33.52,54.104,58.395,66.542c25.031,12.515,59.028,16.354,101.059,11.409
	c23.576-2.773,42.783-7.569,51.075-9.844c0.876,2.101,2.064,4.923,3.513,8.318l-25.033,5.503c-2.697,0.593-4.403,3.26-3.811,5.957
	c0.514,2.335,2.582,3.927,4.879,3.927c0.355,0,0.717-0.038,1.078-0.118l26.925-5.919c1.811,4.148,3.842,8.742,6.062,13.675
	l-24.141,5.307c-2.697,0.593-4.403,3.26-3.811,5.957c0.514,2.335,2.582,3.927,4.879,3.927c0.355,0,0.717-0.038,1.078-0.118
	l26.229-5.766c2.043,4.444,4.201,9.07,6.454,13.809l-22.868,5.024c-2.696,0.592-4.402,3.259-3.811,5.956
	c0.514,2.336,2.582,3.928,4.879,3.928c0.355,0,0.717-0.038,1.078-0.118l25.178-5.531c2.21,4.535,4.489,9.125,6.82,13.717
	l-22.182,4.878c-2.696,0.593-4.402,3.26-3.809,5.957c0.513,2.335,2.581,3.927,4.878,3.927c0.355,0,0.717-0.038,1.079-0.118
	l24.777-5.449c2.41,4.597,4.861,9.153,7.335,13.611l-22.296,4.893c-2.696,0.592-4.403,3.258-3.812,5.956
	c0.513,2.336,2.582,3.929,4.879,3.929c0.355,0,0.716-0.038,1.077-0.117l25.321-5.557c2.715,4.667,5.442,9.164,8.158,13.422
	l-23.666,5.202c-2.697,0.593-4.403,3.26-3.811,5.957c0.514,2.335,2.582,3.927,4.879,3.927c0.355,0,0.717-0.038,1.078-0.118
	l27.458-6.036c2.676,3.846,5.324,7.402,7.921,10.581c-4.688,4.426-16.742,13.803-43.253,24.604
	c-17.264,7.034-37.508,5.54-57.003-4.208c-18.949-9.474-35.65-26.187-45.822-45.852c-20.144-38.946-76.838-107.7-118.161-106.031
	c-20.632,0.825-32.828,10.459-39.427,18.396c-3.296,3.964-5.54,7.892-7.021,11.023c-12.979-8.678-23.098-14.422-26.726-16.425
	C-5.34,132.587,39.098,71.387,56.555,49.844z M59.994,419.302c-0.05-1.517-0.105-3.035-0.167-4.554h18.929
	c0.083,1.728,0.158,3.253,0.224,4.554H59.994z M88.728,246.822c-7.83,2.943-12.813,9.971-13.005,18.34
	c-1.085,47.701,1.186,108.701,2.569,139.587H59.338C54.171,313.489,29.386,221.415,19.922,189
	c13.529,8.166,37.591,23.808,59.417,43.747c4.755,4.342,9.186,8.69,13.274,13.023C91.314,245.989,90.013,246.339,88.728,246.822z
	 M326.735,424.945c-56.444,2.17-103.154-1.062-114.054-5.303c-5.736-2.23-12.096-8.472-18.788-17.356
	c15.544,10.099,33.747,15.998,52.848,16.673c11.479,0.406,24.844,0.641,39.293,0.641c48.841,0,109.963-2.698,151.781-10.605
	C418.15,417.143,378.207,422.965,326.735,424.945z M451.726,395.664c-34.07,8.866-116.074,16.434-204.632,13.301
	c-29.252-1.034-56.178-15.612-73.013-39.277c-1.788-2.514-3.333-5.189-4.73-7.939c-5.492-10.814-21.714-42.844-29.671-59.499
	c-4.041-8.458-7.858-16.448-11.646-24.221c-2.333-4.794-5.163-9.708-8.408-14.602c-1.343-2.028-2.787-4.093-4.293-6.136
	c-0.004-0.005-0.007-0.01-0.011-0.015c-7.737-10.522-17.575-21.261-29.241-31.915c-12.04-10.999-24.576-20.634-35.766-28.506
	c3.021-7.234,12.795-24.132,38.495-25.159c0.363-0.015,0.725-0.022,1.093-0.022c33.547,0,86.835,60.15,107.785,100.655
	c11.287,21.82,29.127,39.649,50.233,50.202c12.817,6.409,25.99,9.643,38.693,9.642c9.204,0,18.164-1.699,26.555-5.117
	c27.241-11.098,40.348-20.892,46.192-26.398c17.606,17.598,38.109,23.264,56.345,28.298c16.598,4.583,30.932,8.54,38.279,20.785
	C464.05,366.512,457.532,384.859,451.726,395.664z"/>
<g>
</g>
<g>
</g>
<g>
</g>
<g>
</g>
<g>
</g>
<g>
</g>
<g>
</g>
<g>
</g>
<g>
</g>
<g>
</g>
<g>
</g>
<g>
</g>
<g>
</g>
<g>
</g>
<g>
</g>
</svg>
