<?xml version="1.0" encoding="iso-8859-1"?>
<!-- Generator: Adobe Illustrator 19.0.0, SVG Export Plug-In . SVG Version: 6.00 Build 0)  -->
<svg version="1.1" id="Capa_1" xmlns="http://www.w3.org/2000/svg" xmlns:xlink="http://www.w3.org/1999/xlink" x="0px" y="0px"
	 viewBox="0 0 463.015 463.015" style="enable-background:new 0 0 463.015 463.015;" xml:space="preserve">
<path d="M434.357,282.431l-0.145-0.042c-19.883-5.68-66.447-18.982-101.884-48.634c-2.362-1.976-5.692-2.308-8.398-0.836
	c-19.273,10.488-48.235,22.557-77.126,6.362c-18.603-10.429-33.438-25.648-41.414-42.271l9.545-8.352
	c0.194,0.003,0.386,0.015,0.58,0.015c16.151,0,29.495-12.221,31.288-27.9l10.186-8.913c9.752-8.533,10.746-23.409,2.214-33.162
	c-4.136-4.727-9.862-7.56-16.124-7.979c-6.256-0.416-12.316,1.63-17.037,5.766l-10.5,9.188c-0.009,0-0.017-0.001-0.026-0.001
	c-15.957,0-29.172,11.93-31.216,27.337l-6.928,6.063C122.422,138.932,43.836,97.31,43.033,96.884
	c-1.785-0.948-3.878-1.136-5.802-0.52c-1.925,0.615-3.52,1.982-4.424,3.79L3.891,157.984c-2.807,5.615-4.055,11.611-3.874,17.484
	c0,0.013-0.002,0.026-0.002,0.039c0,35.631,20.927,83.572,33.402,108.978c4.378,8.917,6.598,18.474,6.598,28.407v30.615
	c0,12.958,10.542,23.5,23.5,23.5h16c12.958,0,23.5-10.542,23.5-23.5v-77.352l98.565,69.949
	c28.487,20.217,62.008,30.903,96.94,30.903h132.995c17.369,0,31.5-14.131,31.5-31.5V320.41
	C463.015,302.868,451.23,287.251,434.357,282.431z M175.115,203.57c-1.553,1.357-3.539,2.104-5.592,2.104
	c-2.457,0-4.792-1.058-6.406-2.903c-3.086-3.527-2.726-8.908,0.802-11.995l23.094-20.207c2.47,5.234,6.338,9.681,11.122,12.859
	L175.115,203.57z M235.922,127.773c1.708-1.496,3.899-2.24,6.156-2.084c2.265,0.151,4.337,1.177,5.835,2.889
	c3.086,3.527,2.726,8.908-0.802,11.996l-3.26,2.853c-2.533-5.2-6.459-9.597-11.285-12.717L235.922,127.773z M215.515,140.674
	c9.098,0,16.5,7.402,16.5,16.5s-7.402,16.5-16.5,16.5s-16.5-7.402-16.5-16.5S206.417,140.674,215.515,140.674z M42.808,113.693
	c19.392,10.063,76.39,39.084,121.755,56.587l-10.521,9.206c-9.752,8.533-10.746,23.409-2.214,33.161
	c4.462,5.101,10.912,8.027,17.696,8.027c5.684,0,11.175-2.063,15.466-5.813l8.763-7.667c9.631,17.901,25.833,34.025,45.717,45.171
	c33.093,18.552,64.871,7.568,87.169-3.906c37.255,29.442,83.368,42.615,103.455,48.353l0.145,0.042
	c10.337,2.953,17.583,12.439,17.761,23.154H314.52c-31.803,0-62.323-9.729-88.261-28.137L25.055,149.198L42.808,113.693z
	 M79.515,352.008h-16c-4.687,0-8.5-3.813-8.5-8.5v-8.5h33v8.5C88.015,348.195,84.202,352.008,79.515,352.008z M88.015,320.008h-33
	v-7.115c0-12.245-2.736-24.027-8.133-35.019c-14.944-30.435-22.952-53.821-27.207-70.863l68.34,48.499V320.008z M431.515,352.008
	H298.52c-31.803,0-62.323-9.729-88.259-28.135L24.069,191.736c-8.674-6.156-11.518-17.53-6.761-27.044l0.959-1.919L217.58,304.105
	c28.488,20.217,62.009,30.903,96.94,30.903h133.495v0.5C448.015,344.606,440.613,352.008,431.515,352.008z"/>
<g>
</g>
<g>
</g>
<g>
</g>
<g>
</g>
<g>
</g>
<g>
</g>
<g>
</g>
<g>
</g>
<g>
</g>
<g>
</g>
<g>
</g>
<g>
</g>
<g>
</g>
<g>
</g>
<g>
</g>
</svg>
