<svg id="Layer_1" enable-background="new 0 0 468 468" height="512" viewBox="0 0 468 468" width="512" xmlns="http://www.w3.org/2000/svg"><g><g><path d="m184.67 447.029h-10v-73.757c.659-18.012-23.94-27.115-35.23-13.081l-16.154 18.695c-1.888 2.292-5.706 2.285-7.584-.017l-15.842-18.491c-11.297-14.115-36.15-5.156-35.529 12.992v73.658h-10v-73.658c-.608-27.389 35.835-40.594 53.128-19.483l12.059 14.075 12.353-14.296c16.92-21.039 53.734-7.343 52.801 19.605v73.758z"/><g><path d="m397.67 373.348h10v10.985h-10z"/><path d="m283.33 373.397h10v10.985h-10z"/></g></g><g><path d="m302.06 33.281c-14.793-5.725-25.803.651-31.952 7.343-6.153-6.696-17.054-12.773-31.955-7.363-19.924 6.741-30.484 30.74-22.024 49.938 3.81 10.152 11.602 19.727 20.463 28.483-7.049 6.105-14.338 12.061-21.235 17.957-21.787-18.671-51.887-41.31-61.262-66.012-8.876-19.78 1.919-44.603 22.52-51.571 23.124-8.405 33.804 11.747 34.238 12.59 1.672 3.596 7.232 3.599 8.926.017.442-.861 11.104-20.997 34.234-12.582 6.47 2.354 12.192 6.338 16.547 11.52l7.66-6.419c-5.48-6.523-12.668-11.531-20.783-14.485-20.128-7.323-34.53 1.711-42.118 10.776-7.591-9.07-21.999-18.113-42.122-10.802-25.749 8.712-39.383 39.726-28.438 64.531 10.987 28.628 43.646 52.159 67.304 72.795 1.887 1.65 4.703 1.65 6.59 0 7.954-6.939 16.955-14.21 25.257-21.442 7.633 6.882 15.558 13.183 22.932 19.607 1.887 1.65 4.703 1.65 6.59 0 17.846-15.557 42.339-33.196 50.68-54.937 3.979-9.6 8.128-38.265-22.052-49.944zm12.782 46.195c-6.711 17.952-28.665 34.657-44.707 48.338-15.987-13.63-37.918-30.355-44.67-48.189-6.39-14.175 1.329-31.98 16.105-36.978 11.186-5.316 22.699 4.286 24.07 8.807 1.672 3.588 7.221 3.594 8.922.023.783-1.513 8.11-14.624 24.073-8.812 14.701 4.979 22.471 22.659 16.207 36.811z"/><g><g><g><g><path d="m0 55.754h57.274v9.986h-57.274z"/><path d="m76.744 55.754h15.971v9.986h-15.971z"/></g></g><path d="m20.054 16.055h37.221v9.986h-37.221z"/></g><g><g><g><path d="m410.726 55.754h57.274v9.986h-57.274z"/><path d="m375.285 55.754h15.971v9.986h-15.971z"/></g></g><path d="m410.726 16.055h37.221v9.986h-37.221z"/></g></g></g><path d="m453.213 458.014-6.945-117.491c-1.69-30.071-27.736-53.101-57.769-51.688v-12.36c.103-3.52-3.901-6.095-7.068-4.546l-9.183 4.166v-11.489c15.771-9.439 25.063-27.915 23.712-47.132 21.264-13.819 27.328-46.593 6.401-71.295-13.014-17.433-35.09-27.899-60.568-28.715-19.251-.289-32.715 4.591-35.671 21.786-16.372 2.65-26.985 17.301-30.105 41.833-3.16 17.791 8.177 39.844 20.948 48.574 2.19 14.609 10.756 27.161 22.785 34.719v12.172l-10.183-4.62c-3.168-1.551-7.172 1.027-7.068 4.546v12.36c-30.033-1.414-56.079 21.617-57.769 51.688l-6.945 117.491h-13.59l-7.354-117.068c-.862-13.713-7.879-25.692-18.246-33.337 8.167-4.016 16.04-8.652 23.494-13.852l.276-.193c2.051-1.433 2.725-4.158 1.578-6.379-13.261-25.627-19.914-54.531-19.444-83.358 0-46.805-38.131-84.883-85-84.883s-85 38.078-85 84.883c.47 28.827-6.183 57.731-19.444 83.358-1.146 2.219-.474 4.942 1.573 6.376 7.54 5.281 15.507 9.984 23.773 14.049-10.365 7.644-17.382 19.623-18.244 33.335l-7.354 117.068h-14.803v9.988h468v-9.986zm-427.288-170.207c12.678-26.036 19.022-55.042 18.575-83.98 0-41.299 33.645-74.897 75-74.897s75 33.598 75 74.897c-.447 28.938 5.897 57.944 18.575 83.98-8.046 5.335-16.574 9.982-25.41 13.87-4.911-1.84-10.212-2.856-15.734-2.856h-25.69v-9.091c19.082-10.755 32.183-32.623 32.183-57.812 0-23.418-11.318-43.976-28.242-55.393 1.063-17.465-13.176-32.397-30.681-32.34-17.505-.058-31.744 14.876-30.681 32.34-16.924 11.418-28.242 31.975-28.242 55.393 0 25.629 13.557 47.833 33.183 58.377v8.526h-26.69c-5.523 0-10.825 1.016-15.737 2.856-8.833-3.885-17.358-8.531-25.409-13.87zm93.575-.965c-24.673 0-45.126-20.614-48.441-47.304l10.673-1.746c17.88-2.927 34.758-10.14 49.188-20.975 7.379 14.054 20.81 23.914 36.367 26.842-4.805 24.661-24.4 43.183-47.787 43.183zm16.74 7.302v18.542c.183 8.743-7.556 16.436-16.309 16.217-8.917-.038-16.172-7.313-16.172-16.217v-18.229c5.014 1.534 10.289 2.371 15.74 2.371 5.816.001 11.431-.947 16.741-2.684zm-16.74-117.15c27.54-.126 49.938 26.055 48.883 56.71-14.21-2.85-25.857-13.161-31.038-26.777-1.233-2.99-5.391-3.94-7.804-1.786-14.098 11.928-31.189 19.811-49.427 22.795l-9.482 1.551c1.138-29.161 22.618-52.493 48.868-52.493zm-20.373-5.983c1.822-9.574 10.257-16.84 20.373-16.84s18.551 7.266 20.373 16.84c-6.352-2.587-13.215-4.004-20.373-4.004s-14.021 1.417-20.373 4.004zm-74.304 287.003 7.315-116.442c1.154-18.373 16.497-32.764 34.931-32.764h26.69v3.879c0 14.387 11.722 26.142 26.129 26.203 14.141.355 26.648-12.078 26.352-26.203v-3.879h25.69c18.434 0 33.776 14.391 34.931 32.764l7.315 116.442zm260.946-274.703c1.95-15.317 7.575-34.046 25.222-34.501 2.736-.07 4.907-2.325 4.871-5.058-.212-14.092 11.656-16.492 25.612-16.307 22.417.719 41.688 9.722 52.871 24.703 16.687 19.878 13.576 44.829-3.529 56.68-10.217-7.108-16.521-18.503-17.032-31.057.104-4.107-5.134-6.529-8.215-3.816-18.1 13.51-41.037 18.048-62.93 12.442-3.048-.863-6.323 1.674-6.241 4.837v24.514c-5.941-7.914-13.145-23.038-10.629-32.437zm20.628 38.973v-24.861c20.248 3.604 40.91-.273 58.432-10.927 2.673 12.681 10.187 23.824 21.132 31.106 2.104 23.439-15.876 44.539-39.782 44.403-21.933 0-39.779-17.82-39.782-39.721zm55.852 47.034v11.314l-16.749 7.599-15.749-7.145v-11.89c5.147 1.803 10.672 2.794 16.428 2.794 5.623.001 11.025-.949 16.07-2.672zm-49.749 14.91 30.932 14.033c1.314.597 2.822.597 4.137 0l30.932-14.033v36.422l-30.932-14.034c-1.314-.597-2.823-.597-4.137 0l-30.932 14.034zm53.724 104.2-19.784 19.322-21.624-19.431 9.173-66.449 11.512-5.223 12.223 5.546zm41.446 69.586v-62.62h-10v62.62h-104.34v-62.62h-10v62.62h-35.526l6.91-116.902c1.38-24.823 23.044-43.667 47.786-42.29v29.582c-.103 3.52 3.901 6.096 7.068 4.546l13.651-6.194-8.672 62.823c-.227 1.64.376 3.285 1.608 4.393l27.082 24.336c1.959 1.761 4.953 1.701 6.841-.142l24.918-24.336c1.121-1.094 1.663-2.651 1.463-4.204l-8.031-62.576 13.004 5.9c3.16 1.551 7.175-1.026 7.068-4.546v-29.582c24.743-1.377 46.406 17.468 47.786 42.29l6.91 116.902z"/></g></svg>