<?xml version="1.0" encoding="iso-8859-1"?>
<!-- Generator: Adobe Illustrator 19.0.0, SVG Export Plug-In . SVG Version: 6.00 Build 0)  -->
<svg version="1.1" id="Layer_1" xmlns="http://www.w3.org/2000/svg" xmlns:xlink="http://www.w3.org/1999/xlink" x="0px" y="0px"
	 viewBox="0 0 512 512" style="enable-background:new 0 0 512 512;" xml:space="preserve">
<g>
	<g>
		<path d="M503.102,263.404c-8.225-11.091-21.433-16.972-39.256-17.482c-63.34-1.81-117.369-22.456-123.28-24.788l-39.522-24.208
			l5.325-6.272c2.727-3.212,2.333-8.026-0.878-10.752c-3.212-2.727-8.027-2.333-10.752,0.878l-6.861,8.081l-9.187-5.628l6.034-7.107
			c2.727-3.212,2.333-8.026-0.878-10.752c-3.212-2.727-8.026-2.333-10.752,0.878l-7.57,8.915l-10.954-6.709l6.761-7.962
			c2.727-3.211,2.333-8.026-0.878-10.752c-3.211-2.727-8.026-2.333-10.752,0.878l-8.297,9.772l-24.585-15.058
			c-3.146-1.929-7.222-1.326-9.677,1.427c-25.549,28.64-64.437,37.878-115.587,27.457c-39.293-8.005-71.241-25.192-71.555-25.363
			c-1.889-1.027-4.123-1.21-6.151-0.505c-2.03,0.706-3.668,2.235-4.511,4.212C-7.19,191.296,3.038,273.556,4.091,281.6v78.563
			c0,4.213,3.416,7.629,7.629,7.629h142.699c4.213,0,7.629-3.416,7.629-7.629v-23.328c49.455,19.742,116.298,30.956,185.741,30.956
			c56.907,0,111.156-7.24,156.881-20.938c3.228-0.967,5.44-3.938,5.44-7.308v-28.788
			C511.389,305.31,516.111,280.947,503.102,263.404z M49.355,178.121c11.272,4.028,24.507,8.04,38.796,10.973
			c14.411,2.958,28.085,4.427,40.951,4.427c34.855-0.001,63.742-10.785,85.018-31.949l17.288,10.59l-4.229,4.981
			c-2.727,3.212-2.333,8.026,0.878,10.752c1.434,1.218,3.189,1.814,4.933,1.814c2.162,0,4.311-0.913,5.819-2.691l5.765-6.791
			l10.954,6.709l-4.957,5.838c-2.727,3.211-2.333,8.026,0.878,10.752c1.434,1.218,3.189,1.814,4.933,1.814
			c2.162,0,4.311-0.913,5.819-2.691l6.493-7.647l9.187,5.628l-5.665,6.673c-2.727,3.211-2.333,8.026,0.878,10.752
			c1.434,1.218,3.189,1.814,4.933,1.814c2.162,0,4.311-0.913,5.819-2.691l7.202-8.481l16.038,9.824v38.667
			c-24.656-12.329-84.086-37.651-133.247-23.905c-22.173,6.201-39.52,19.572-51.625,39.78H85.234
			c-3.151-34.274-26.817-55.687-35.879-62.7V178.121z M20.671,166.253c3.492,1.662,8.034,3.728,13.427,5.973v42.019
			c0,2.564,1.305,4.968,3.446,6.38c0.305,0.201,28.449,19.159,32.335,52.436H18.45C16.32,253.603,11.45,198.275,20.671,166.253z
			 M494.852,333.825c-43.172,12.25-93.87,18.71-147.064,18.71c-72.532,0-141.873-12.45-190.242-34.158
			c-0.016-0.007-0.033-0.012-0.048-0.018c-0.175-0.077-0.354-0.144-0.535-0.208c-0.061-0.021-0.121-0.047-0.183-0.067
			c-0.163-0.053-0.331-0.096-0.498-0.138c-0.083-0.021-0.166-0.046-0.25-0.064c-0.136-0.03-0.276-0.049-0.414-0.071
			c-0.116-0.018-0.232-0.041-0.349-0.053c-0.116-0.013-0.234-0.017-0.351-0.025c-0.138-0.009-0.276-0.019-0.414-0.021
			c-0.029,0-0.057-0.004-0.086-0.004c-0.097,0-0.189,0.011-0.285,0.014c-0.124,0.005-0.247,0.008-0.37,0.018
			c-0.154,0.013-0.303,0.035-0.454,0.057c-0.088,0.013-0.175,0.024-0.261,0.04c-0.177,0.033-0.351,0.073-0.524,0.117
			c-0.058,0.015-0.116,0.029-0.173,0.045c-0.189,0.053-0.373,0.115-0.556,0.182c-0.044,0.016-0.087,0.032-0.13,0.048
			c-0.186,0.072-0.367,0.153-0.546,0.238c-0.043,0.02-0.085,0.04-0.127,0.061c-0.171,0.086-0.338,0.18-0.501,0.279
			c-0.05,0.031-0.101,0.06-0.149,0.092c-0.152,0.097-0.298,0.198-0.443,0.304c-0.057,0.043-0.115,0.084-0.171,0.128
			c-0.133,0.105-0.262,0.215-0.389,0.328c-0.059,0.053-0.118,0.105-0.176,0.16c-0.123,0.117-0.24,0.239-0.355,0.364
			c-0.051,0.056-0.103,0.11-0.153,0.168c-0.122,0.14-0.237,0.287-0.349,0.436c-0.034,0.046-0.068,0.09-0.102,0.135
			c-0.128,0.18-0.247,0.365-0.359,0.556c-0.012,0.02-0.024,0.04-0.037,0.06c-0.484,0.84-0.811,1.781-0.945,2.785
			c-0.006,0.043-0.014,0.085-0.019,0.128c-0.02,0.174-0.029,0.35-0.038,0.527c-0.004,0.081-0.011,0.164-0.012,0.245
			c-0.001,0.039-0.006,0.076-0.006,0.115v27.201H19.348V288.32h105.096c49.382,31.181,132.586,49.759,223.344,49.759
			c54.419,0,103.831-6.079,147.064-18.081V333.825z M495.926,303.801c-43.102,12.61-92.898,19.019-148.137,19.019
			c-85.285,0-163.216-16.62-210.738-44.678c9.939-15.2,23.652-25.337,40.867-30.159c56.161-15.727,132.192,28.051,132.951,28.494
			c2.36,1.378,5.276,1.39,7.646,0.029c2.37-1.36,3.832-3.884,3.832-6.617v-42.026l10.802,6.617c0.346,0.213,0.708,0.397,1.083,0.551
			c2.395,0.985,59.478,24.149,129.179,26.141c12.881,0.368,22.101,4.16,27.401,11.271
			C498.218,282.38,497.056,296.851,495.926,303.801z"/>
	</g>
</g>
<g>
</g>
<g>
</g>
<g>
</g>
<g>
</g>
<g>
</g>
<g>
</g>
<g>
</g>
<g>
</g>
<g>
</g>
<g>
</g>
<g>
</g>
<g>
</g>
<g>
</g>
<g>
</g>
<g>
</g>
</svg>
