<svg width="270" height="278" viewBox="0 0 270 278" fill="none" xmlns="http://www.w3.org/2000/svg">
<path d="M134.994 0.235046C60.4352 0.235046 0 60.676 0 135.23C0 167.01 11.0499 196.152 29.4432 219.197C36.8968 228.507 40.7483 243.397 33.956 252.179C29.1068 258.461 23.7645 262.753 17.9989 263.519C-0.800465 266.03 24.9014 288.536 68.9619 271.355C80.0698 267.022 97.3552 265.311 109.055 267.649C117.436 269.331 126.108 270.224 135 270.224C209.56 270.224 269.995 209.789 269.995 135.235C269.995 60.6818 209.548 0.235046 134.994 0.235046Z" fill="white"/>
<path d="M37.9395 223.734C40.4526 229.098 41.7335 235.103 40.9794 240.417L41.9695 240.557C41.5373 243.603 40.4618 246.47 38.581 248.902C38.5808 248.902 38.5806 248.902 38.5804 248.902L37.7894 248.291C36.7656 249.617 35.719 250.851 34.6503 251.979C32.2111 254.551 29.657 256.565 26.9963 257.834L27.4269 258.737C25.8386 259.494 24.1991 260.008 22.5122 260.232C20.3238 260.525 18.9347 261.093 18.1644 261.722C17.4504 262.306 17.2696 262.925 17.4095 263.586L16.4311 263.793C17.0515 266.726 22.0528 270.241 30.3917 271.956L30.5931 270.976C35.1087 271.905 40.652 272.299 47.0501 271.748L47.1359 272.744C52.1559 272.312 57.6827 271.307 63.6342 269.542L63.3499 268.583C65.8983 267.827 68.527 266.93 71.2294 265.876C74.0923 264.76 77.3554 263.825 80.8107 263.094L81.0179 264.072C87.2559 262.751 94.1771 262.089 100.546 262.236L100.569 261.236C104.1 261.317 107.482 261.644 110.504 262.248L110.505 262.249C112.541 262.657 114.595 263.017 116.666 263.327L116.518 264.316C120.636 264.932 124.819 265.351 129.06 265.561L129.11 264.562C131.18 264.664 133.265 264.716 135.362 264.716C138.208 264.716 141.032 264.624 143.832 264.443L143.896 265.441C149.641 265.07 155.285 264.327 160.803 263.235L160.609 262.254C166.196 261.149 171.654 259.684 176.958 257.884L177.279 258.831C182.698 256.992 187.957 254.807 193.03 252.301L192.587 251.404C197.667 248.895 202.558 246.061 207.234 242.931L207.79 243.762C212.526 240.591 217.043 237.119 221.313 233.372L220.653 232.62C224.897 228.896 228.895 224.898 232.62 220.654L233.372 221.314C237.119 217.044 240.592 212.528 243.763 207.792L242.932 207.235C246.062 202.56 248.896 197.668 251.406 192.589L252.302 193.032C254.808 187.959 256.994 182.7 258.834 177.281L257.887 176.96C259.686 171.656 261.152 166.198 262.257 160.611L263.238 160.805C264.33 155.287 265.073 149.643 265.444 143.898L264.446 143.834C264.627 141.034 264.719 138.21 264.719 135.365C264.719 132.519 264.627 129.695 264.446 126.895L265.444 126.831C265.073 121.085 264.329 115.442 263.237 109.923L262.256 110.117C261.151 104.53 259.685 99.0715 257.885 93.7678L258.832 93.4464C256.993 88.0272 254.807 82.7681 252.3 77.6954L251.404 78.1384C248.893 73.0586 246.06 68.1672 242.929 63.4911L243.76 62.9348C240.589 58.1986 237.116 53.6818 233.368 49.4119L232.617 50.0716C228.892 45.8277 224.894 41.8296 220.65 38.1048L221.31 37.3532C217.04 33.6056 212.523 30.1325 207.787 26.9616L207.23 27.7926C202.554 24.6619 197.663 21.828 192.583 19.3179L193.026 18.4214C187.953 15.9149 182.694 13.7287 177.275 11.8893L176.954 12.8363C171.65 11.0361 166.192 9.5706 160.604 8.46502L160.798 7.48404C155.28 6.39214 149.636 5.64859 143.891 5.27726L143.826 6.27517C141.027 6.09421 138.203 6.00232 135.357 6.00232C132.511 6.00232 129.687 6.09419 126.887 6.2751L126.823 5.27718C121.078 5.64841 115.434 6.39177 109.916 7.48341L110.11 8.4644C104.522 9.56975 99.0644 11.0349 93.7609 12.8348L93.4395 11.8878C88.0203 13.727 82.7612 15.9128 77.6887 18.419L78.1317 19.3156C73.0519 21.8254 68.1605 24.659 63.4845 27.7894L62.9282 26.9585C58.1921 30.1292 53.6754 33.6021 49.4056 37.3495L50.0653 38.1011C45.8215 41.8258 41.8235 45.8237 38.0989 50.0675L37.3473 49.4079C33.5999 53.6777 30.127 58.1944 26.9563 62.9306L27.7873 63.4869C24.6568 68.1629 21.8233 73.0542 19.3135 78.134L18.4169 77.6911C15.9107 82.7636 13.7248 88.0227 11.8857 93.4418L12.8326 93.7632C11.0327 99.0668 9.56754 104.525 8.46217 110.112L7.48118 109.918C6.38951 115.437 5.64612 121.08 5.27487 126.825L6.27279 126.89C6.09187 129.689 6 132.513 6 135.359C6 137.79 6.06743 140.204 6.20047 142.6L5.20201 142.655C5.4747 147.567 6.02096 152.404 6.82548 157.153L7.81143 156.986C8.62461 161.786 9.7037 166.495 11.0326 171.098L10.0719 171.376C11.4299 176.079 13.0467 180.673 14.9056 185.141L15.8289 184.757C17.6911 189.233 19.7981 193.582 22.1328 197.789L21.2584 198.274C23.6257 202.539 26.2252 206.658 29.0392 210.615L29.8541 210.035C31.2544 212.004 32.7082 213.933 34.2133 215.818C36.0019 218.053 37.5772 220.604 38.8451 223.31L37.9395 223.734Z" stroke="#F0669D" stroke-width="2" stroke-dasharray="16 16"/>
</svg>
