<svg width="486" height="334" viewBox="0 0 486 334" fill="none" xmlns="http://www.w3.org/2000/svg">
<path d="M84.2578 334H479.559C479.559 334 509.49 284.005 440.319 235.104C378.259 191.228 413.176 92.7375 296.701 78.8016C218.735 69.4724 119 30.9998 40.9999 139C-71 277 84.2578 334 84.2578 334Z" fill="#FFF9E1"/>
<g clip-path="url(#clip0_4797_17)">
<path d="M168.93 237.236C166.855 244.659 165.343 251.278 163.823 264.475C160.949 289.408 165.226 308.777 168.353 345H204.872C210.787 322.013 217.859 297.281 222.319 283.354C232.34 310.185 240.422 329.03 247.874 345H294.606C286.608 318.877 269.812 274.745 260.533 246.186C226.692 202.142 195.52 216.209 168.921 237.236H168.93Z" fill="#2C2B4D"/>
<path opacity="0.3" d="M228.374 299.193C226.434 294.233 224.421 288.966 222.324 283.349C226.439 267.558 227.369 264.308 231.078 251.308C229.466 267.454 228.579 285.698 228.374 299.193Z" fill="black"/>
<path d="M220.476 3.04877C228.138 3.04877 256.711 18.2842 254.474 38.4232C252.238 58.5621 234.153 63.9949 235.538 71.0243C236.918 78.0581 264.272 80.114 254.583 107.851C219.362 119.29 178.182 127.601 159.35 130.155C145.944 122.163 141.156 125.234 145.625 112.352C150.093 99.47 152.649 98.8313 150.731 89.5623C148.818 80.2933 154.243 72.9446 167.012 69.1084C179.78 65.2722 179.143 59.5157 179.143 48.9694C179.143 38.4232 177.068 23.2402 189.675 10.6118C202.286 -2.01221 215.688 -1.74976 220.476 3.04877Z" fill="#2C2B4D"/>
<path d="M211.276 11.7842C212.028 16.8233 211.717 21.9761 210.656 26.9409C210.097 29.5698 209.149 32.0587 208.052 34.5039C207.126 36.5729 205.86 38.4189 204.676 40.3392C207.961 36.6298 210.477 32.2731 211.534 27.3871C212.639 22.2823 212.831 16.8277 211.272 11.7842H211.276Z" fill="#444378"/>
<path d="M204.68 26.9147C204.514 30.0248 202.78 33.1086 201.037 35.5931C198.796 38.7863 195.738 41.2447 193.261 44.241C190.71 47.3292 189.247 50.798 188.88 54.7916C188.517 58.7503 188.88 62.7353 188.535 66.6939C188.325 69.1173 187.832 71.5799 186.429 73.6183C185.171 75.4468 183.38 76.6453 181.484 77.7389C184.568 76.2735 187.133 74.3095 188.316 70.9894C189.644 67.2626 189.526 63.1595 189.605 59.2621C189.684 55.2947 189.924 51.3141 191.912 47.7798C193.86 44.3197 196.896 41.7696 199.39 38.7382C200.984 36.8004 202.444 34.6964 203.4 32.365C204.095 30.6721 204.754 28.7737 204.684 26.9147H204.68Z" fill="#444378"/>
<path d="M246.817 101.39C252.989 103.271 256.178 106.998 259.799 113.87C263.416 120.742 270.013 133.313 273.206 139.919C278.74 125.217 288.394 103.053 288.53 99.4307C288.617 97.0861 289.382 94.4222 287.481 89.5231C284.555 81.9863 283.939 62.066 288.617 68.7411C297.799 77.9357 306.833 82.4368 308.323 87.9265C303.64 95.1702 302.788 97.6548 301.941 101.526C301.089 105.397 294.265 148.518 288.866 162.608C283.454 176.728 275.953 176.251 274.595 176.251C270.445 176.251 260.948 166.588 253.845 154.437C247.463 134.617 240.754 117.313 246.826 101.386L246.817 101.39Z" fill="#FFAD88"/>
<path d="M273.201 139.923C272.42 141.275 271.799 142.718 271.279 144.192C270.72 145.784 270.214 147.6 270.436 149.301C271.113 146.113 272.559 143.125 273.201 139.927V139.923Z" fill="#EF895C"/>
<path d="M292.824 75.9717C290.002 72.7085 288.836 69.4716 287.128 64.8218C285.197 59.564 284.922 45.7851 283.541 30.051H304.492C303.111 45.7851 302.836 59.564 300.905 64.8218C299.202 69.4716 298.031 72.7085 295.209 75.9717V111.154C298.262 111.657 301.836 113.765 301.836 113.765H286.193C286.193 113.765 289.77 111.652 292.82 111.154V75.9717H292.824Z" fill="#FFF9E0"/>
<path d="M302.6 44.2104C301.949 53.6325 301.412 61.0556 300.136 64.5331L300.088 64.66C298.468 69.078 297.38 72.0437 294.925 75.0269H293.117C290.662 72.0437 289.574 69.078 287.953 64.66L287.905 64.5331C286.63 61.0556 286.092 53.6325 285.441 44.2104H302.6Z" fill="#FFC757"/>
<path d="M292.732 63.6757C292.732 64.03 293.02 64.3187 293.374 64.3187C293.728 64.3187 294.016 64.03 294.016 63.6757C294.016 63.3214 293.728 63.0327 293.374 63.0327C293.02 63.0327 292.732 63.3214 292.732 63.6757Z" fill="#FFEA9E"/>
<path d="M288.613 47.1105C288.613 47.4649 288.901 47.7536 289.255 47.7536C289.609 47.7536 289.897 47.4649 289.897 47.1105C289.897 46.7562 289.609 46.4675 289.255 46.4675C288.901 46.4675 288.613 46.7562 288.613 47.1105Z" fill="#FFEA9E"/>
<path d="M294.584 66.6196C294.584 66.9739 294.873 67.2626 295.226 67.2626C295.58 67.2626 295.869 66.9739 295.869 66.6196C295.869 66.2652 295.58 65.9722 295.226 65.9722C294.873 65.9722 294.584 66.2609 294.584 66.6196Z" fill="#FFEA9E"/>
<path d="M294.584 56.8258C294.584 57.1801 294.873 57.4688 295.226 57.4688C295.58 57.4688 295.869 57.1801 295.869 56.8258C295.869 56.4714 295.58 56.1827 295.226 56.1827C294.873 56.1827 294.584 56.4714 294.584 56.8258Z" fill="#FFEA9E"/>
<path d="M290.308 55.8984C290.308 56.4102 290.723 56.8258 291.234 56.8258C291.745 56.8258 292.16 56.4102 292.16 55.8984C292.16 55.3866 291.745 54.9755 291.234 54.9755C290.723 54.9755 290.308 55.391 290.308 55.8984Z" fill="#FFEA9E"/>
<path d="M297.017 49.4464C297.017 49.9582 297.432 50.3737 297.943 50.3737C298.455 50.3737 298.869 49.9582 298.869 49.4464C298.869 48.9346 298.455 48.519 297.943 48.519C297.432 48.519 297.017 48.9346 297.017 49.4464Z" fill="#FFEA9E"/>
<path d="M287.691 56.8257C289.53 63.4002 290.552 66.309 292.156 70.6701C289.989 66.8952 288.613 64.6993 287.691 56.8257Z" fill="white"/>
<path d="M290.802 69.266C288.499 66.9608 288.473 64.0607 291.024 64.0607C289.561 58.8247 295.563 62.2367 300.464 65.7929C300.128 60.5701 300.6 52.8627 302.788 52.8627C304.977 52.8627 304.112 63.7545 304.409 68.8592C305.156 69.4847 305.732 69.9922 306.029 70.294C308.104 72.3717 307.672 73.3297 307.624 75.25C309.245 76.8772 309.432 79.0381 308.314 80.8446C310.411 82.6556 310.708 84.9477 308.314 87.9309C303.845 82.7081 294.584 77.6733 291.23 74.6507C287.757 71.5188 288.312 69.2704 290.802 69.2704V69.266Z" fill="#FFAD88"/>
<path d="M302.6 82.7649C301.036 83.2592 299.599 84.3965 298.437 85.525C297.136 86.7892 296.048 88.2283 295.227 89.8468C296.445 88.6482 297.511 87.3053 298.743 86.1155C299.957 84.9258 301.22 83.7666 302.6 82.7649Z" fill="#EF895C"/>
<path d="M289.897 73.2596C289.932 74.3619 289.976 75.4686 289.985 76.5753C289.989 77.0871 289.985 77.5989 289.985 78.1107C289.989 78.6662 290.02 78.6837 290.386 79.0992C291.942 80.8708 292.44 83.1498 292.732 85.42C293.064 82.778 292.357 80.2672 290.522 78.3294C290.544 78.4037 290.579 78.4781 290.614 78.5481C290.557 76.7853 290.4 74.9612 289.897 73.2596C290.024 73.6883 289.923 74.152 289.897 73.2596Z" fill="#EF895C"/>
<path d="M307.624 75.2456C302.548 70.9019 296.969 67.1095 291.024 64.0563C293.741 65.9897 296.541 67.805 299.28 69.7122C302.054 71.5668 304.806 73.4609 307.624 75.2412V75.2456Z" fill="#EF895C"/>
<path d="M308.314 80.8402C302.893 76.4397 297.039 72.4111 290.797 69.266C296.55 73.2378 302.334 77.2227 308.314 80.8402Z" fill="#EF895C"/>
<path d="M289.093 69.8915C287.783 71.1513 289.609 73.3734 290.483 74.2876C291.915 75.7836 293.667 76.9121 295.358 78.0888C298.402 80.1622 301.491 82.1656 304.496 84.2914C301.897 81.89 299.023 79.856 296.122 77.8395C294.501 76.7153 292.811 75.6698 291.295 74.4013C290.29 73.5571 287.914 71.3875 289.093 69.8915Z" fill="#EF895C"/>
<path d="M304.409 68.8592C303.509 67.5338 301.958 66.3571 300.464 65.7928C301.342 67.1095 302.928 68.3168 304.409 68.8592Z" fill="#EF895C"/>
<path d="M221.918 91.4827C235.643 97.2348 238.12 97.9172 246.817 101.39C244.58 108.105 245.62 120.348 249.691 126.323C254.479 133.357 262.814 144.179 254.994 159.038C249.901 168.714 249.691 199.522 260.546 246.186C248.097 249.703 236.765 246.667 230.222 240.115C223.678 233.562 212.028 221.577 205.003 223.493C197.979 225.409 187.447 235.64 168.934 237.236C161.434 225.64 177.234 209.429 184.577 195.686C191.92 181.942 181.703 159.887 178.833 144.866C178.833 130.483 176.461 108.901 167.842 91.9595C169.948 89.8511 183.271 87.4759 189.155 85.5206C196.389 87.4934 212.989 89.7286 221.926 91.4871L221.918 91.4827Z" fill="#4340B7"/>
<path d="M178.824 96.9855C181.698 96.4869 184.555 96.0626 187.473 95.9182C191.427 95.7214 195.371 95.8657 199.316 96.1894C203.413 96.5262 207.493 97.073 211.595 97.3486C214.548 97.5498 217.44 97.5192 220.375 97.996C229.086 99.4132 237.613 101.99 246.074 104.465C239.937 101.955 233.541 99.8769 227.124 98.2278C223.459 97.283 219.716 96.4387 215.924 96.255C212.796 96.1019 209.686 95.9488 206.563 95.6645C201.544 95.1833 196.468 94.7547 191.418 94.9953C187.124 95.2008 182.969 95.8745 178.82 96.9943L178.824 96.9855Z" fill="#FFDE68"/>
<path d="M246.572 118.393C240.67 115.677 234.419 113.507 228.129 111.915C226.229 111.434 224.294 111.027 222.35 110.751C220.323 110.463 218.296 110.432 216.256 110.401C212.124 110.349 207.978 110.27 203.85 110.484C199.045 110.734 194.179 111.158 189.483 112.256C187.285 112.768 185.097 113.28 182.952 113.975C181.576 114.421 180.204 114.876 178.828 115.331C181.698 114.64 184.542 113.914 187.443 113.389C191.392 112.676 195.336 112.195 199.342 111.897C203.387 111.595 207.454 111.574 211.512 111.613C215.509 111.652 219.515 111.521 223.477 112.116C231.357 113.297 239.041 115.865 246.576 118.389L246.572 118.393Z" fill="#FFDE68"/>
<path d="M252.286 130.16C245.144 129.009 237.883 128.651 230.658 128.952C226.578 129.123 222.511 129.985 218.427 129.858C214.321 129.727 210.293 129.132 206.231 128.563C201.142 127.855 196.005 127.299 190.863 127.636C186.748 127.903 182.808 128.677 178.824 129.718C181.72 129.202 184.599 128.729 187.539 128.537C191.378 128.283 195.214 128.397 199.04 128.804C203.116 129.232 207.148 129.967 211.206 130.527C215.273 131.087 219.292 131.28 223.376 130.82C226.072 130.518 228.745 130.16 231.449 129.985C234.114 129.81 236.778 129.709 239.447 129.7C242.003 129.687 244.567 129.727 247.122 129.849C247.533 129.867 252.286 130.072 252.286 130.16Z" fill="#FFDE68"/>
<path d="M258.174 145.933C251.779 144.949 245.235 144.52 238.775 144.477C234.699 144.45 230.619 144.656 226.596 145.33C222.52 146.012 218.458 146.624 214.338 146.965C207.79 147.512 201.203 147.609 194.637 147.77C189.609 147.897 184.586 148.042 179.558 148.23C186.036 148.461 192.514 148.636 198.992 148.645C207.139 148.654 215.382 148.566 223.429 147.136C226.626 146.567 229.824 145.959 233.07 145.736C236.416 145.509 239.766 145.408 243.121 145.417C248.145 145.426 253.159 145.649 258.179 145.929L258.174 145.933Z" fill="#FFDE68"/>
<path d="M253.208 164.108C246.935 162.385 240.317 161.436 233.825 161.147C229.68 160.963 225.604 161.422 221.489 161.855C217.326 162.166 213.168 162.463 208.992 162.582C204.182 162.717 199.39 162.7 194.58 162.573C190.776 162.472 186.997 162.065 183.219 161.65C186.128 162.214 189.024 162.708 191.968 163.071C195.843 163.548 199.766 163.693 203.662 163.78C207.733 163.872 211.809 163.749 215.88 163.54C217.964 163.43 220.056 163.281 222.127 163.05C224.171 162.818 226.233 162.503 228.286 162.376C236.599 161.851 245.008 162.713 253.208 164.108Z" fill="#FFDE68"/>
<path d="M251.648 178.482C244.921 178.989 238.137 179.405 231.397 178.95C229.387 178.814 227.395 178.582 225.412 178.202C223.499 177.764 221.585 177.275 219.633 177.051C215.566 176.583 211.473 176.566 207.388 176.802C200.521 177.152 193.689 178.219 186.967 179.619C193.934 178.845 200.901 178.132 207.913 177.909C212.001 177.778 216.195 177.791 220.249 178.421C222.228 178.727 224.154 179.26 226.128 179.58C228.099 179.899 230.09 180.035 232.082 180.1C238.574 180.302 245.27 179.715 251.648 178.482Z" fill="#FFDE68"/>
<path d="M252.286 196.464C245.489 195.323 238.434 194.815 231.545 195.025C229.475 195.121 227.413 195.191 225.355 195.45C223.398 195.694 221.441 195.944 219.493 196.233C216.431 196.692 213.355 196.884 210.263 197.007C202.465 197.317 194.707 196.25 186.967 195.502C193.772 196.911 200.635 197.921 207.589 198.166C211.215 198.284 214.937 198.179 218.532 197.663C221.909 197.177 225.285 196.578 228.688 196.346C236.556 195.804 244.419 196.005 252.286 196.464Z" fill="#FFDE68"/>
<path d="M254.632 215.912C247.878 215.558 241.107 215.217 234.372 214.574C230.34 214.189 226.312 213.808 222.324 213.086C219.55 212.583 216.78 211.993 213.989 211.608C206.379 210.562 198.713 210.484 191.077 211.302C187.473 211.691 183.918 212.238 180.349 212.876C177.789 213.336 175.251 214.001 172.713 214.578C175.491 214.149 178.265 213.616 181.052 213.283C184.887 212.824 188.705 212.404 192.558 212.12C196.555 211.827 200.552 211.914 204.553 211.993C208.236 212.063 212.049 212.47 215.671 213.143C218.567 213.681 221.472 214.272 224.39 214.661C228.308 215.182 232.279 215.483 236.228 215.672C242.352 215.956 248.499 216.105 254.627 215.912H254.632Z" fill="#FFDE68"/>
<path d="M257.633 232.762C250.665 233.339 243.423 232.477 236.695 230.653C232.751 229.582 229.191 227.705 225.539 225.929C221.904 224.162 218.178 222.675 214.273 221.625C201.504 218.191 187.923 220.881 175.644 224.954C172.713 225.929 169.838 227.049 166.96 228.164C173.298 226.152 179.645 224.131 186.193 222.898C190.142 222.154 194.087 221.59 198.097 221.354C201.718 221.139 205.335 221.389 208.926 221.835C214.535 222.526 219.939 224.621 225.023 226.992C226.836 227.836 228.605 228.777 230.449 229.547C232.24 230.299 234.083 230.924 235.953 231.436C239.801 232.416 243.733 232.998 247.699 233.155C250.988 233.287 254.361 233.26 257.624 232.762H257.633Z" fill="#FFDE68"/>
<path opacity="0.2" d="M204.68 185.205C216.492 197.033 241.365 211.805 246.498 206.669C251.626 201.534 246.817 235.71 204.68 185.205Z" fill="black"/>
<path d="M168.93 91.4827C163.872 92.2044 157.756 114.176 154.248 140.387C150.736 166.597 151.693 170.433 161.591 184.816C171.49 199.198 189.841 224.608 197.979 232.762C202.234 230.736 205.667 228.847 210.39 224.114C200.425 208.467 178.505 173.613 175.316 166.588C177.553 150.614 182.66 125.785 184.254 114.705C185.848 103.626 184.573 89.2431 168.934 91.4783L168.93 91.4827Z" fill="#FFAD88"/>
<path d="M228.54 13.0309C227.05 25.8168 223.193 33.3098 212.338 41.1922C201.487 49.0789 198.931 51.4191 198.08 54.4024C199.141 65.4823 200.635 78.6968 189.142 85.5163C200.325 104.977 210.385 128.629 227.159 125.291C240.208 122.697 226.168 102.563 221.913 91.4827C221.913 85.3019 222.551 82.533 223.826 78.2157C230.956 78.9068 239.788 78.6968 242.658 70.3858C245.533 62.0748 250.425 26.9147 228.535 13.0309H228.54Z" fill="#FFAD88"/>
<path d="M230.344 53.9825C232.126 54.0875 233.996 54.1488 235.691 53.4926C236.595 53.1427 237.473 52.6396 237.932 51.7473C238.417 50.7981 238.163 49.7045 237.517 48.8997C236.936 48.1779 236.084 47.7886 235.289 47.3512C234.341 46.8 233.397 46.2445 232.568 45.5184C231.148 44.2761 230.357 42.7626 229.663 41.0392C229.955 42.6358 230.414 44.0049 231.384 45.3259C232.559 46.9313 234.372 47.793 235.997 48.8297C236.665 49.2584 237.316 49.9495 237.272 50.8068C237.224 51.7254 236.359 52.3597 235.603 52.7271C233.961 53.5232 232.126 53.7332 230.344 53.9869V53.9825Z" fill="#EF895C"/>
<path d="M216.829 43.0163C216.986 44.2367 217.956 45.116 218.991 44.9804C220.026 44.8448 220.734 43.7468 220.572 42.5264C220.411 41.306 219.445 40.4268 218.41 40.5624C217.379 40.698 216.671 41.7959 216.829 43.0163Z" fill="#2C2B4D"/>
<path d="M221.24 39.3114C219.707 37.7454 216.737 38.419 215.544 40.0594C216.496 39.8975 217.409 39.5738 218.37 39.447C219.323 39.3157 220.279 39.2851 221.24 39.3114Z" fill="#EF895C"/>
<path d="M222.263 36.5337C222.59 35.2914 220.817 34.6396 218.148 35.0989C215.339 35.5757 213.26 36.8005 213.644 37.636C214.024 38.4671 216.252 37.5397 217.65 37.356C219.048 37.1723 221.935 37.7847 222.263 36.538V36.5337Z" fill="#2C2B4D"/>
<path d="M239.727 40.3961C239.88 41.6165 239.164 42.7101 238.128 42.8413C237.093 42.9682 236.132 42.0846 235.979 40.8642C235.826 39.6438 236.543 38.5502 237.578 38.419C238.613 38.2921 239.574 39.1757 239.727 40.3961Z" fill="#2C2B4D"/>
<path d="M234.529 37.9247C235.45 37.6579 236.385 37.4436 237.338 37.3298C238.299 37.2117 239.264 37.2949 240.225 37.2117C238.661 35.9213 235.621 36.0176 234.524 37.9204L234.529 37.9247Z" fill="#EF895C"/>
<path d="M232.838 35.4926C232.205 34.3728 233.76 33.2967 236.46 33.0649C239.295 32.82 241.619 33.4805 241.457 34.3816C241.295 35.2826 238.906 34.9458 237.508 35.1208C236.11 35.2958 233.467 36.6124 232.838 35.4882V35.4926Z" fill="#2C2B4D"/>
<path d="M238.744 58.851C235.092 60.1282 230.409 61.4099 225.941 59.5989C229.025 64.2881 235.695 70.9982 238.744 58.851Z" fill="white"/>
<path d="M223.831 78.2158C223.25 80.1754 222.804 81.8158 222.49 83.6048C215.61 80.8184 212.32 76.4355 208.297 70.8146C212.871 75.3944 218.191 77.4722 223.831 78.2202V78.2158Z" fill="#EF895C"/>
</g>
<g clip-path="url(#clip1_4797_17)">
<path d="M387.439 113.801C387.439 114.807 386.619 115.624 385.61 115.624C384.6 115.624 383.78 114.807 383.78 113.801C383.78 112.796 384.6 111.979 385.61 111.979C386.619 111.979 387.439 112.796 387.439 113.801Z" fill="#F7CF91"/>
<path d="M389.434 109.559C389.434 109.559 391.87 104.712 394.819 101.939C397.776 99.166 403.516 96.8329 402.554 98.8203C401.6 100.808 394.606 104.107 389.426 109.559H389.434Z" fill="#F7CF91"/>
<path d="M381.352 118.742C381.352 118.742 375.438 122.812 372.749 128.185C370.053 133.55 371.795 135.546 372.749 134.422C373.703 133.299 375.446 125.93 381.352 118.742Z" fill="#F7CF91"/>
<path d="M389 118.224C389 118.224 391.35 126.276 394.914 130.086C398.478 133.896 398.825 130.95 397.871 129.481C396.917 128.012 391.697 122.466 389 118.224Z" fill="#F7CF91"/>
<path d="M391.523 114.32C391.523 114.32 398.825 111.806 404.652 111.979C410.479 112.151 412.56 113.974 410.565 114.32C408.563 114.665 401.868 112.497 391.531 114.32H391.523Z" fill="#F7CF91"/>
<path d="M379.609 111.986C379.609 111.986 375.091 109.473 367.703 108.522C360.314 107.572 357.965 111.193 358.572 111.979C359.179 112.764 365.006 109.3 379.609 111.986Z" fill="#F7CF91"/>
<path d="M383.433 108.365C383.433 108.365 378.221 101.421 377.519 95.9688C376.826 90.5091 379.262 90.7684 379.609 92.3316C379.956 93.8949 379.782 99.551 383.433 108.365Z" fill="#F7CF91"/>
<path d="M392.304 111.68C391.925 111.405 393.431 109.732 395.387 108.648C397.342 107.564 400.213 106.095 400.82 106.652C401.427 107.218 398.036 108.601 396.254 109.551C394.472 110.502 392.777 112.018 392.296 111.672L392.304 111.68Z" fill="#E277A5"/>
<path d="M393.66 116.881C393.936 116.448 396.735 117.006 398.557 118.224C400.386 119.434 400.946 120.565 400.559 120.95C400.165 121.343 398.352 119.866 396.57 119.088C394.788 118.31 393.282 117.485 393.66 116.881Z" fill="#E277A5"/>
<path d="M385.61 121.02C385.176 120.816 383.914 123.589 383.78 126.009C383.646 128.428 385.341 129.732 385.61 128.735C385.878 127.737 385.562 126.441 385.61 124.579C385.657 122.717 385.956 121.178 385.61 121.013V121.02Z" fill="#E277A5"/>
<path d="M376.329 117.745C376.116 117.234 375.004 117.352 373.27 117.745C371.535 118.137 367.837 120.431 368.231 121.013C368.625 121.594 369.698 121.507 371.314 120.777C372.931 120.038 376.834 118.954 376.337 117.745H376.329Z" fill="#E277A5"/>
<path d="M379.609 108.365C380.114 108.004 379.183 107.006 377.401 105.317C375.611 103.628 372.907 101.986 372.284 102.285C371.661 102.591 371.834 103.455 372.828 104.194C373.822 104.932 378.568 109.119 379.609 108.365Z" fill="#E277A5"/>
<path d="M386.477 106.181C385.909 106.26 385.546 104.421 385.775 102.245C386.004 100.069 386.65 96.4794 387.699 96.393C388.748 96.3066 388.614 98.294 388.267 99.8573C387.92 101.421 387.786 106.008 386.485 106.181H386.477Z" fill="#E277A5"/>
<path d="M351.633 112.882C351.562 112.725 356.049 109.858 356.333 111.594C356.616 113.33 351.815 113.275 351.633 112.882Z" fill="#E277A5"/>
<path d="M378.529 86C378.166 85.8586 377.401 89.8964 378.529 89.8571C379.656 89.81 379.183 86.2592 378.529 86Z" fill="#E277A5"/>
<path d="M403.95 97.3514C403.185 96.4637 407.033 94.4055 407.254 94.6255C407.475 94.8454 404.951 98.5219 403.95 97.3514Z" fill="#E277A5"/>
<path d="M413.554 114.359C413.814 113.023 417.425 114.492 417.378 114.924C417.331 115.357 413.294 115.694 413.554 114.359Z" fill="#E277A5"/>
<path d="M398.912 133.055C397.926 133.951 401.285 136.81 401.75 136.402C402.215 135.993 400.299 131.783 398.912 133.055Z" fill="#E277A5"/>
<path d="M371.306 136.001C369.934 135.051 369.185 139.293 369.587 139.52C369.989 139.748 372.387 136.747 371.306 136.001Z" fill="#E277A5"/>
<path d="M386.161 132.655C386.161 133.197 385.72 133.637 385.176 133.637C384.632 133.637 384.19 133.197 384.19 132.655C384.19 132.113 384.632 131.673 385.176 131.673C385.72 131.673 386.161 132.113 386.161 132.655Z" fill="#F7CF91"/>
<path d="M366.141 121.995C366.141 122.537 365.7 122.976 365.156 122.976C364.612 122.976 364.17 122.537 364.17 121.995C364.17 121.452 364.612 121.013 365.156 121.013C365.7 121.013 366.141 121.452 366.141 121.995Z" fill="#F7CF91"/>
<path d="M404.636 122.379C404.636 122.921 404.194 123.361 403.65 123.361C403.106 123.361 402.665 122.921 402.665 122.379C402.665 121.837 403.106 121.397 403.65 121.397C404.194 121.397 404.636 121.837 404.636 122.379Z" fill="#F7CF91"/>
<path d="M389.079 93.6199C389.079 94.1619 388.637 94.6019 388.093 94.6019C387.549 94.6019 387.108 94.1619 387.108 93.6199C387.108 93.0779 387.549 92.6379 388.093 92.6379C388.637 92.6379 389.079 93.0779 389.079 93.6199Z" fill="#F7CF91"/>
<path d="M404.636 105.348C404.636 105.89 404.194 106.33 403.65 106.33C403.106 106.33 402.665 105.89 402.665 105.348C402.665 104.806 403.106 104.366 403.65 104.366C404.194 104.366 404.636 104.806 404.636 105.348Z" fill="#F7CF91"/>
<path d="M370.163 100.564C370.163 101.106 369.721 101.546 369.177 101.546C368.633 101.546 368.192 101.106 368.192 100.564C368.192 100.022 368.633 99.5824 369.177 99.5824C369.721 99.5824 370.163 100.022 370.163 100.564Z" fill="#F7CF91"/>
<path d="M362.79 158.578C363.774 158.578 364.572 157.783 364.572 156.803C364.572 155.822 363.774 155.028 362.79 155.028C361.806 155.028 361.008 155.822 361.008 156.803C361.008 157.783 361.806 158.578 362.79 158.578Z" fill="#F6D18C"/>
<path d="M357.358 155.805C357.823 156.057 354.141 151.39 349.449 150.346C344.757 149.301 342.928 151.296 344.844 152.074C346.752 152.852 352.382 153.087 357.358 155.797V155.805Z" fill="#F6D18C"/>
<path d="M360.401 162.215C360.007 161.524 355.363 166.803 354.314 169.058C353.265 171.312 354.227 173.732 356.135 171.139C358.051 168.539 360.74 162.828 360.393 162.223L360.401 162.215Z" fill="#F6D18C"/>
<path d="M366.142 160.833C365.574 160.361 369.477 161.697 372.284 164.297C375.091 166.897 375.785 172.436 373.356 170.016C370.928 167.597 368.956 163.174 366.142 160.833Z" fill="#F6D18C"/>
<path d="M368.192 155.813C367.592 155.884 372.655 153.291 376.739 153.378C380.823 153.464 382.124 155.562 379.089 155.813C376.045 156.064 371.905 155.357 368.192 155.813Z" fill="#F6D18C"/>
<path d="M364.17 151.767C364.076 152.364 367.001 147.007 367.167 143.37C367.332 139.733 365.913 136.614 365.101 138.696C364.288 140.777 364.935 146.96 364.17 151.775V151.767Z" fill="#F6D18C"/>
<path d="M367.104 153.794C367.104 153.794 367.088 153.535 367.159 153.095C367.222 152.655 367.395 152.042 367.687 151.351C367.995 150.668 368.42 149.89 369.027 149.175C369.319 148.814 369.69 148.492 370.045 148.154C370.423 147.84 370.786 147.51 371.172 147.203C371.566 146.905 371.945 146.591 372.347 146.316C372.749 146.049 373.136 145.766 373.522 145.53C373.916 145.294 374.295 145.074 374.657 144.855C375.028 144.666 375.383 144.493 375.706 144.328C376.353 143.99 376.92 143.778 377.307 143.613C377.701 143.456 377.922 143.362 377.922 143.362L377.993 143.503C377.993 143.503 377.788 143.637 377.441 143.857C377.094 144.093 376.566 144.375 375.998 144.807C375.706 145.012 375.399 145.239 375.067 145.475C374.752 145.726 374.413 145.986 374.066 146.261C373.719 146.536 373.388 146.85 373.041 147.148C372.694 147.455 372.379 147.8 372.04 148.122C371.724 148.46 371.417 148.814 371.125 149.167C370.857 149.536 370.565 149.874 370.305 150.212C370.029 150.542 369.761 150.856 369.501 151.155C369.232 151.445 369.012 151.744 368.775 152.003C367.892 153.072 367.261 153.841 367.261 153.841L367.111 153.794H367.104Z" fill="#AE48C9"/>
<path d="M368.128 158.932C368.128 158.932 368.389 158.79 368.87 158.625C369.351 158.468 370.06 158.311 370.928 158.256C371.787 158.209 372.82 158.225 373.877 158.468C374.941 158.696 375.998 159.175 377.039 159.623C377.551 159.882 378.056 160.126 378.552 160.393C379.026 160.684 379.499 160.966 379.948 161.241C380.374 161.548 380.792 161.846 381.186 162.121C381.572 162.412 381.904 162.726 382.227 162.993C382.881 163.519 383.354 164.038 383.701 164.376C384.04 164.721 384.237 164.918 384.237 164.918L384.127 165.036C384.127 165.036 383.906 164.871 383.512 164.588C383.315 164.446 383.086 164.274 382.818 164.069C382.558 163.857 382.235 163.661 381.888 163.441C381.541 163.229 381.178 162.97 380.768 162.742C380.358 162.514 379.932 162.278 379.483 162.027C379.026 161.815 378.552 161.587 378.064 161.367C377.575 161.163 377.062 160.982 376.565 160.794C376.045 160.652 375.54 160.471 375.028 160.369C374.515 160.267 374.011 160.149 373.522 160.063C373.041 159.953 372.568 159.851 372.126 159.757C371.677 159.662 371.251 159.584 370.857 159.505C369.28 159.222 368.152 159.081 368.152 159.081L368.121 158.924L368.128 158.932Z" fill="#AE48C9"/>
<path d="M363.689 163.881C363.689 163.881 363.705 165.201 364.107 167.039C364.281 167.958 364.596 169.011 364.911 170.142C365.093 170.7 365.219 171.297 365.424 171.886C365.605 172.483 365.818 173.08 366.078 173.669L366.449 174.549C366.591 174.832 366.733 175.122 366.875 175.397C367.151 175.963 367.435 176.521 367.75 177.039C368.057 177.558 368.333 178.076 368.633 178.54C368.933 179.011 369.217 179.451 369.485 179.859C370.005 180.684 370.525 181.313 370.841 181.784C371.172 182.247 371.361 182.514 371.361 182.514L371.243 182.617C371.243 182.617 371.022 182.381 370.628 181.957C370.242 181.533 369.658 180.951 369.035 180.189C368.72 179.804 368.381 179.396 368.026 178.956C367.663 178.524 367.34 178.013 366.977 177.518C366.607 177.023 366.268 176.473 365.929 175.916C365.755 175.641 365.582 175.358 365.408 175.075L364.935 174.195C364.604 173.614 364.32 173.009 364.044 172.404C363.737 171.815 363.539 171.187 363.334 170.59C363.169 169.977 363.019 169.38 362.956 168.799C362.924 168.508 362.893 168.225 362.861 167.95C362.846 167.675 362.853 167.408 362.846 167.149C362.83 166.638 362.901 166.167 362.948 165.758C363.011 165.35 363.09 164.989 363.185 164.706C363.358 164.132 363.539 163.834 363.539 163.834L363.689 163.873V163.881Z" fill="#AE48C9"/>
<path d="M357.373 160.212C357.373 160.212 357.058 160.212 356.522 160.244C356.254 160.275 355.93 160.275 355.568 160.33C355.205 160.354 354.795 160.432 354.361 160.487C354.14 160.519 353.92 160.574 353.683 160.621C353.447 160.652 353.21 160.699 352.966 160.77C352.721 160.833 352.469 160.888 352.217 160.943C351.964 161.021 351.704 161.084 351.436 161.155C350.9 161.265 350.371 161.477 349.804 161.611C349.26 161.823 348.7 162.011 348.164 162.278C347.643 162.569 347.076 162.789 346.595 163.127C346.106 163.457 345.577 163.724 345.144 164.093C344.694 164.439 344.253 164.776 343.843 165.091C343.448 165.436 343.078 165.766 342.739 166.073C342.565 166.23 342.4 166.371 342.25 166.513C342.108 166.662 341.966 166.811 341.84 166.945C341.58 167.212 341.351 167.447 341.17 167.644C340.791 168.029 340.578 168.249 340.578 168.249L340.452 168.154C340.452 168.154 340.634 167.903 340.949 167.463C341.114 167.243 341.304 166.976 341.532 166.67C341.643 166.52 341.769 166.355 341.895 166.183C342.037 166.025 342.187 165.853 342.337 165.68C342.644 165.326 342.983 164.949 343.338 164.541C343.717 164.156 344.142 163.779 344.576 163.378C344.994 162.962 345.514 162.624 345.995 162.231C346.476 161.823 347.044 161.532 347.572 161.171C348.108 160.825 348.7 160.566 349.26 160.252C349.851 160.016 350.419 159.725 351.01 159.584C351.31 159.513 351.594 159.435 351.885 159.372C352.177 159.325 352.461 159.293 352.745 159.27C353.297 159.191 353.841 159.23 354.322 159.238C355.3 159.309 356.096 159.505 356.624 159.694C357.16 159.89 357.436 160.071 357.436 160.071L357.389 160.22L357.373 160.212Z" fill="#AE48C9"/>
<path d="M359.889 152.938C359.889 152.938 359.802 152.584 359.597 152.003C359.479 151.712 359.361 151.367 359.171 150.99C359.014 150.605 358.761 150.196 358.525 149.749C358.249 149.316 357.973 148.845 357.61 148.39C357.287 147.91 356.853 147.478 356.467 146.975C356.246 146.748 356.017 146.52 355.804 146.276C355.592 146.033 355.363 145.789 355.103 145.569C354.85 145.342 354.598 145.114 354.338 144.894C354.085 144.666 353.778 144.485 353.502 144.281L352.65 143.684C352.343 143.519 352.043 143.346 351.744 143.181C351.444 143.016 351.144 142.851 350.845 142.678C350.537 142.545 350.23 142.404 349.922 142.27C349.307 142.019 348.739 141.72 348.156 141.539C347.58 141.335 347.036 141.147 346.532 140.974C346.035 140.777 345.554 140.683 345.128 140.565C344.71 140.455 344.34 140.353 344.04 140.275C343.433 140.11 343.086 140.015 343.086 140.015L343.11 139.858C343.11 139.858 343.464 139.905 344.087 140C344.403 140.047 344.781 140.102 345.215 140.165C345.649 140.235 346.145 140.282 346.674 140.424C347.202 140.55 347.777 140.683 348.385 140.825C349 140.935 349.607 141.209 350.261 141.414C350.585 141.524 350.916 141.642 351.247 141.759C351.57 141.909 351.893 142.05 352.225 142.199C352.556 142.349 352.887 142.498 353.226 142.655L354.188 143.213C354.503 143.401 354.842 143.566 355.142 143.786C355.45 144.006 355.749 144.218 356.049 144.438C356.356 144.642 356.64 144.878 356.9 145.129C357.168 145.373 357.429 145.624 357.681 145.876C358.115 146.441 358.58 146.952 358.872 147.549C359.021 147.84 359.203 148.099 359.321 148.39C359.439 148.672 359.55 148.947 359.652 149.214C359.826 149.756 359.976 150.259 360.031 150.715C360.11 151.17 360.125 151.571 360.133 151.893C360.125 152.553 360.031 152.914 360.031 152.914H359.873L359.889 152.938Z" fill="#AE48C9"/>
<path d="M353.1 174.51C352.54 173.975 351.444 174.682 350.23 176.159C349.015 177.628 348.842 178.414 349.449 178.759C350.056 179.105 351.215 178.964 352.083 177.746C352.95 176.536 353.88 175.264 353.1 174.51Z" fill="#AE48C9"/>
<path d="M377.354 172.781C376.944 173.418 377.409 174.164 377.961 175.036C378.513 175.9 379.617 176.136 379.964 175.782C380.311 175.429 380.019 174.572 379.152 173.59C378.284 172.608 377.606 172.396 377.354 172.781Z" fill="#AE48C9"/>
<path d="M382.858 155.028C382.944 155.57 383.26 155.868 384.655 156.214C386.051 156.559 386.8 156.347 386.974 155.876C387.147 155.405 386.161 154.894 385.176 154.627C384.19 154.368 382.802 154.666 382.858 155.028Z" fill="#AE48C9"/>
<path d="M365.353 135.868C364.675 135.718 364.541 135.31 364.572 134.273C364.604 133.236 365.179 132.309 365.668 132.427C366.157 132.545 366.22 133.637 366.134 134.391C366.047 135.145 365.771 135.962 365.353 135.868Z" fill="#AE48C9"/>
<path d="M341.714 150.668C341.651 149.859 341.193 149.395 340.09 149.285C338.986 149.167 338.063 149.568 338 150.063C337.945 150.558 339.049 150.966 339.853 151.021C340.665 151.076 341.738 151.045 341.706 150.675L341.714 150.668Z" fill="#AE48C9"/>
<path d="M341.13 139.466C341.13 139.819 340.847 140.102 340.492 140.102C340.137 140.102 339.853 139.819 339.853 139.466C339.853 139.112 340.137 138.829 340.492 138.829C340.847 138.829 341.13 139.112 341.13 139.466Z" fill="#F6D18C"/>
<path d="M381.399 142.364C381.399 142.718 381.115 143.001 380.76 143.001C380.405 143.001 380.122 142.718 380.122 142.364C380.122 142.011 380.405 141.728 380.76 141.728C381.115 141.728 381.399 142.011 381.399 142.364Z" fill="#F6D18C"/>
<path d="M386.8 166.308C386.8 166.662 386.516 166.945 386.161 166.945C385.807 166.945 385.523 166.662 385.523 166.308C385.523 165.955 385.807 165.672 386.161 165.672C386.516 165.672 386.8 165.955 386.8 166.308Z" fill="#F6D18C"/>
<path d="M373.545 184.447C373.545 184.8 373.262 185.083 372.907 185.083C372.552 185.083 372.268 184.8 372.268 184.447C372.268 184.093 372.552 183.811 372.907 183.811C373.262 183.811 373.545 184.093 373.545 184.447Z" fill="#F6D18C"/>
<path d="M339.853 169.977C339.853 170.33 339.569 170.613 339.214 170.613C338.86 170.613 338.576 170.33 338.576 169.977C338.576 169.623 338.86 169.341 339.214 169.341C339.569 169.341 339.853 169.623 339.853 169.977Z" fill="#F6D18C"/>
<path d="M411.512 157.541C412.47 157.541 413.246 156.768 413.246 155.813C413.246 154.859 412.47 154.085 411.512 154.085C410.554 154.085 409.777 154.859 409.777 155.813C409.777 156.768 410.554 157.541 411.512 157.541Z" fill="#AE48C9"/>
<path d="M418.072 151.343C424.396 144.116 431.926 137.643 439.022 131.162C440.016 130.259 438.533 128.79 437.548 129.693C430.451 136.166 422.929 142.639 416.597 149.874C415.714 150.88 417.189 152.357 418.072 151.343Z" fill="#AE48C9"/>
<path d="M407.214 160.786C400.094 168.264 394.835 177.314 388.622 185.507C387.809 186.576 389.623 187.613 390.427 186.552C396.538 178.5 401.703 169.6 408.697 162.255C409.619 161.281 408.145 159.812 407.222 160.786H407.214Z" fill="#AE48C9"/>
<path d="M416.597 161.045C420.311 164.171 423.394 168.256 426.808 171.721C430.412 175.381 433.668 179.411 437.635 182.695C438.66 183.544 440.142 182.082 439.109 181.226C435.466 178.21 432.454 174.549 429.174 171.163C425.515 167.384 422.077 162.954 418.072 159.576C417.055 158.72 415.564 160.181 416.597 161.045Z" fill="#AE48C9"/>
<path d="M387.344 139.56C390.727 141.83 394.102 144.092 397.5 146.339C400.512 148.327 403.737 150.055 406.434 152.474C407.427 153.37 408.91 151.901 407.908 151.005C405.409 148.759 402.507 147.125 399.7 145.302C395.899 142.836 392.154 140.29 388.401 137.769C387.281 137.015 386.24 138.821 387.344 139.568V139.56Z" fill="#AE48C9"/>
<path d="M410.384 136.755C410.171 138.68 410.597 140.565 410.842 142.474C411.157 144.957 411.307 147.502 411.425 150.008C411.488 151.343 413.578 151.351 413.515 150.008C413.404 147.753 413.183 145.507 412.994 143.252C412.813 141.084 412.229 138.939 412.474 136.755C412.624 135.428 410.534 135.436 410.384 136.755Z" fill="#AE48C9"/>
<path d="M418.379 155.632C423.568 155.593 428.583 154.03 433.763 153.983C435.111 153.975 435.111 151.893 433.763 151.901C428.575 151.94 423.56 153.504 418.379 153.551C417.031 153.559 417.031 155.64 418.379 155.632Z" fill="#AE48C9"/>
<path d="M411.378 162.145C412.15 167.007 411.756 171.957 412.852 176.78C413.152 178.084 415.162 177.534 414.863 176.23C413.767 171.422 414.153 166.45 413.388 161.595C413.183 160.275 411.173 160.841 411.378 162.145Z" fill="#AE48C9"/>
<path d="M388.22 160.487C393.605 159.937 398.975 159.254 404.321 158.374C405.645 158.154 405.078 156.151 403.769 156.371C398.612 157.227 393.424 157.879 388.227 158.413C386.903 158.547 386.887 160.629 388.227 160.487H388.22Z" fill="#AE48C9"/>
<path d="M409.107 166.945C408.878 166.717 402.791 174.572 404.297 175.672C405.803 176.772 409.107 166.945 409.107 166.945Z" fill="#E476A7"/>
<path d="M416.527 166.937C416.527 166.937 418.79 178.209 420.524 177.801C422.267 177.4 416.527 166.937 416.527 166.937Z" fill="#E476A7"/>
<path d="M421.392 158.406C421.392 158.406 436.515 161.116 435.995 162.907C435.474 164.698 421.392 158.406 421.392 158.406Z" fill="#E476A7"/>
<path d="M420.406 151.422C420.406 151.422 432.927 143.668 433.763 144.917C434.607 146.166 420.406 151.422 420.406 151.422Z" fill="#E476A7"/>
<path d="M415.659 145.931C415.659 145.931 417.512 134.901 419.602 135.538C421.691 136.174 415.659 145.931 415.659 145.931Z" fill="#E476A7"/>
<path d="M407.948 147.612C407.948 147.612 401.34 140.455 402.673 139.301C404.005 138.146 407.948 147.612 407.948 147.612Z" fill="#E476A7"/>
<path d="M402.791 153.378C402.791 153.378 392.998 148.067 392.304 149.631C391.61 151.194 402.791 153.378 402.791 153.378Z" fill="#E476A7"/>
<path d="M404.06 160.307C404.013 160.307 393.234 163.307 394.33 165.216C395.434 167.117 404.005 160.307 404.005 160.307" fill="#E476A7"/>
<path d="M440 164.038C440 164.486 439.637 164.847 439.188 164.847C438.738 164.847 438.376 164.486 438.376 164.038C438.376 163.59 438.738 163.229 439.188 163.229C439.637 163.229 440 163.59 440 164.038Z" fill="#AE48C9"/>
<path d="M404.124 178.626C404.124 179.074 403.761 179.435 403.311 179.435C402.862 179.435 402.499 179.074 402.499 178.626C402.499 178.178 402.862 177.817 403.311 177.817C403.761 177.817 404.124 178.178 404.124 178.626Z" fill="#AE48C9"/>
<path d="M422.48 180.236C422.48 180.684 422.117 181.045 421.668 181.045C421.218 181.045 420.855 180.684 420.855 180.236C420.855 179.788 421.218 179.427 421.668 179.427C422.117 179.427 422.48 179.788 422.48 180.236Z" fill="#AE48C9"/>
<path d="M436.823 143.81C436.823 144.257 436.46 144.619 436.01 144.619C435.561 144.619 435.198 144.257 435.198 143.81C435.198 143.362 435.561 143 436.01 143C436.46 143 436.823 143.362 436.823 143.81Z" fill="#AE48C9"/>
<path d="M421.668 132.82C421.668 133.267 421.305 133.629 420.855 133.629C420.406 133.629 420.043 133.267 420.043 132.82C420.043 132.372 420.406 132.01 420.855 132.01C421.305 132.01 421.668 132.372 421.668 132.82Z" fill="#AE48C9"/>
<path d="M390.333 148.908C390.333 149.356 389.97 149.717 389.52 149.717C389.071 149.717 388.708 149.356 388.708 148.908C388.708 148.46 389.071 148.099 389.52 148.099C389.97 148.099 390.333 148.46 390.333 148.908Z" fill="#AE48C9"/>
<path d="M401.9 136.323C401.9 136.771 401.537 137.132 401.088 137.132C400.638 137.132 400.276 136.771 400.276 136.323C400.276 135.876 400.638 135.514 401.088 135.514C401.537 135.514 401.9 135.876 401.9 136.323Z" fill="#AE48C9"/>
<path d="M392.73 166.945C392.73 167.392 392.367 167.754 391.918 167.754C391.468 167.754 391.105 167.392 391.105 166.945C391.105 166.497 391.468 166.135 391.918 166.135C392.367 166.135 392.73 166.497 392.73 166.945Z" fill="#AE48C9"/>
</g>
<path d="M351.959 230.783C351.56 230.174 346.225 228.781 333.513 231.023C320.801 233.264 316.263 236.398 316.097 237.106C315.931 237.815 317.291 243.452 320.314 247.721C324.354 253.417 329.408 256.016 337.663 254.56C345.919 253.105 349.777 248.927 351.627 242.199C353.008 237.154 352.364 231.391 351.959 230.783Z" fill="#D1CAFF"/>
<path d="M317.79 237.292C317.989 238.42 319.466 239.034 334.459 236.39C349.452 233.747 350.739 232.74 350.523 231.52C350.308 230.301 342.018 230.982 333.762 232.438C325.507 233.894 317.558 235.975 317.79 237.292Z" fill="#3739BA"/>
<path d="M320.66 243.383C320.66 243.383 324.929 241.339 332.933 241.609C340.937 241.879 349.973 239.122 349.973 239.122C349.973 239.122 349.849 243.454 345.968 247.467C342.546 251.003 336.44 252.967 331.476 252.222C326.519 251.475 322.653 247.692 320.655 243.39L320.66 243.383Z" fill="#F7D18C"/>
<path d="M329.293 244.645C329.409 245.303 328.965 245.933 328.301 246.05C327.637 246.167 327.004 245.727 326.887 245.069C326.771 244.41 327.216 243.78 327.88 243.663C328.544 243.546 329.177 243.986 329.293 244.645Z" fill="white"/>
<path d="M336.841 246.743C337.049 247.924 336.257 249.045 335.067 249.255C333.878 249.465 332.75 248.682 332.542 247.501C332.334 246.321 333.125 245.199 334.315 244.99C335.505 244.78 336.632 245.563 336.841 246.743Z" fill="white"/>
<path d="M331.072 248.083C331.127 248.396 330.916 248.696 330.6 248.752C330.285 248.807 329.983 248.598 329.928 248.285C329.873 247.972 330.084 247.672 330.4 247.617C330.715 247.561 331.017 247.77 331.072 248.083Z" fill="white"/>
<path d="M338.816 244.458C339.219 244.387 339.489 244.005 339.418 243.606C339.348 243.206 338.964 242.939 338.561 243.01C338.158 243.081 337.889 243.463 337.959 243.863C338.03 244.263 338.413 244.529 338.816 244.458Z" fill="white"/>
<path d="M344.552 244.045C344.678 244.763 344.197 245.453 343.467 245.582C342.738 245.71 342.05 245.233 341.923 244.509C341.795 243.785 342.278 243.102 343.007 242.973C343.737 242.844 344.424 243.322 344.552 244.045Z" fill="white"/>
<path d="M341.214 247.526C341.632 247.452 341.911 247.056 341.838 246.642C341.765 246.228 341.367 245.952 340.95 246.026C340.532 246.099 340.253 246.495 340.326 246.909C340.399 247.323 340.797 247.599 341.214 247.526Z" fill="white"/>
<path d="M319.988 241.148C319.169 241.46 319.514 244.183 321.556 246.695C323.592 249.207 326.009 250.503 326.698 249.608C327.388 248.713 325.143 247.091 323.484 245.447C321.825 243.803 321.576 240.545 319.988 241.148Z" fill="white"/>
<path d="M343.569 284.903C335.918 286.252 335.73 285.572 335.609 284.881C335.487 284.19 339.057 281.489 339.918 280.107C340.785 278.723 340.992 276.938 340.992 276.938L336.875 253.59L339.149 253.189L343.266 276.537C343.266 276.537 344.072 278.143 345.36 279.147C346.648 280.15 350.92 281.468 351.042 282.16C351.164 282.851 351.227 283.553 343.569 284.903Z" fill="#D1CAFF"/>
<path d="M342.27 277.533C342.27 277.533 341.614 280.271 340.582 281.375C339.55 282.478 337.408 284.167 337.457 284.447C337.506 284.728 339.167 284.536 343.374 283.794C347.58 283.052 348.755 282.798 348.673 282.329C348.59 281.859 346.506 281.688 345.246 280.653C343.985 279.611 342.264 277.541 342.264 277.541L342.27 277.533Z" fill="#3739BA"/>
<path d="M338.537 257.708L341.542 274.75" stroke="white" stroke-miterlimit="10" stroke-linecap="round"/>
<path d="M359.326 294.259C351.716 292.695 351.792 291.994 351.934 291.306C352.075 290.619 356.389 289.423 357.698 288.455C359.014 287.488 359.864 285.905 359.864 285.905L365.317 259.373L367.579 259.838L362.126 286.37C362.126 286.37 362.283 288.16 363.111 289.567C363.94 290.975 367.426 293.773 367.284 294.461C367.143 295.149 366.936 295.823 359.326 294.259Z" fill="#D1CAFF"/>
<path d="M360.833 286.929C360.833 286.929 359.215 289.233 357.849 289.878C356.489 290.525 353.869 291.305 353.812 291.584C353.754 291.863 355.369 292.296 359.553 293.156C363.737 294.016 364.923 294.212 365.019 293.745C365.115 293.278 363.241 292.352 362.451 290.926C361.662 289.492 360.825 286.934 360.825 286.934L360.833 286.929Z" fill="#3739BA"/>
<path d="M364.665 267.122L361.181 284.073" stroke="white" stroke-miterlimit="10" stroke-linecap="round"/>
<path d="M375.239 214.836C371.369 214.041 365.097 213.922 364.981 214.486L358.092 248.011C357.129 252.694 360.435 259.087 365.914 260.213C371.393 261.338 376.953 256.761 377.914 252.084L384.804 218.56C384.918 218.002 379.109 215.632 375.239 214.836Z" fill="#D1CAFF"/>
<path d="M365.776 215.427C365.911 214.772 371.611 215.017 375.056 215.725C378.502 216.433 383.7 218.428 383.565 219.083C383.43 219.738 378.41 218.801 374.514 218C370.617 217.199 365.636 216.074 365.769 215.426L365.776 215.427Z" fill="#3739BA"/>
<path d="M363.934 227.739C363.934 227.739 368.095 228.546 371.04 230.957C373.986 233.367 380.047 233.781 380.047 233.781L376.632 250.401C376.294 252.042 372.57 259.62 366.301 258.331C360.031 257.043 359.431 249.652 360.008 246.843L363.934 227.739Z" fill="#E476A7"/>
<path d="M368.955 239.216C370.204 239.473 371.424 238.676 371.678 237.436C371.933 236.197 371.127 234.984 369.878 234.727C368.628 234.47 367.409 235.267 367.154 236.507C366.899 237.746 367.706 238.959 368.955 239.216Z" fill="white"/>
<path d="M373.609 235.832C374.014 235.915 374.408 235.657 374.491 235.256C374.573 234.855 374.312 234.462 373.908 234.379C373.503 234.296 373.109 234.554 373.026 234.955C372.944 235.356 373.205 235.749 373.609 235.832Z" fill="white"/>
<path d="M373.966 242.585C373.806 243.364 373.044 243.856 372.259 243.695C371.475 243.534 370.97 242.774 371.128 242.002C371.287 241.23 372.05 240.731 372.835 240.892C373.619 241.054 374.124 241.813 373.966 242.585Z" fill="white"/>
<path d="M366.431 243.308C366.972 243.42 367.501 243.074 367.611 242.537C367.722 241.999 367.372 241.473 366.831 241.362C366.289 241.251 365.761 241.596 365.65 242.134C365.54 242.671 365.889 243.197 366.431 243.308Z" fill="white"/>
<path d="M368.475 249.441C368.175 250.901 366.735 251.842 365.264 251.54C363.793 251.238 362.84 249.805 363.14 248.345C363.44 246.885 364.881 245.944 366.352 246.247C367.823 246.549 368.775 247.982 368.475 249.441Z" fill="white"/>
<path d="M369.743 247.085C370.158 247.171 370.564 246.906 370.648 246.494C370.733 246.082 370.465 245.679 370.05 245.593C369.634 245.508 369.229 245.773 369.145 246.185C369.06 246.597 369.328 247 369.743 247.085Z" fill="white"/>
<path d="M372.595 252.14C372.427 252.958 371.626 253.476 370.808 253.308C369.991 253.14 369.46 252.341 369.627 251.531C369.793 250.72 370.596 250.195 371.414 250.363C372.237 250.532 372.762 251.33 372.595 252.14Z" fill="white"/>
<path d="M366.724 219.334C365.907 219.166 365.416 220.559 364.454 225.243L360.182 246.027C359.805 247.863 359.969 248.721 360.656 248.862C361.342 249.003 361.927 248.082 362.529 245.15L367.175 222.543C367.611 220.422 367.477 219.482 366.726 219.327L366.724 219.334Z" fill="white"/>
<defs>
<clipPath id="clip0_4797_17">
<rect width="166" height="345" fill="white" transform="translate(144)"/>
</clipPath>
<clipPath id="clip1_4797_17">
<rect width="102" height="101" fill="white" transform="translate(338 86)"/>
</clipPath>
</defs>
</svg>
