<svg width="190" height="207" viewBox="0 0 190 207" fill="none" xmlns="http://www.w3.org/2000/svg">
<path d="M82.29 184.686C75.84 187.516 68.45 186.916 61.47 185.946C52.25 184.666 42.81 182.706 35.19 177.366C34.17 176.646 33.16 175.846 32.53 174.766C31.94 173.756 31.6 171.826 32.43 170.816C33.27 169.796 35.55 169.796 36.8 169.696C41.76 169.336 46.78 169.776 51.61 170.996C54.75 171.786 57.81 172.906 60.98 173.616C69.84 175.596 79.2 174.286 88.02 176.436C90.4 177.016 92.71 177.846 95.1 178.356C97.15 178.796 99.25 178.986 101.33 179.186C97.39 181.226 92.57 180.466 88.36 181.856C86.24 182.556 84.34 183.776 82.29 184.676V184.686Z" fill="#971EA2"/>
<path d="M43.46 153.136C41.05 149.676 39.83 145.496 39.07 141.386C38.12 136.226 37.76 130.976 37.82 125.736C37.89 119.546 38.56 113.316 40.42 107.416C42.28 101.506 45.37 95.9157 49.85 91.6357C48.63 96.4557 48.84 101.506 48.6 106.476C48.47 109.156 48.2 111.836 48.09 114.516C47.61 125.866 49.85 137.226 48.91 148.546C48.82 149.646 48.79 151.816 48.31 153.416C48.91 152.966 49.51 152.516 50.11 152.066C52.36 150.376 54.68 148.636 56.8 146.746C58.63 145.126 60.38 143.316 62.08 141.576C62.34 141.316 62.59 141.046 62.85 140.786C61.71 140.006 60.55 137.996 60.08 137.206C58.82 135.096 58.06 132.706 57.71 130.276C57.12 126.216 57.61 122.086 58.22 118.036C58.94 113.316 59.83 108.616 60.89 103.966C61.43 101.626 62.01 99.2957 62.77 97.0157C65.37 89.2557 70.09 82.3057 75.9 76.5357C75.07 78.0857 74.97 79.9057 74.9 81.6557C74.79 84.2657 74.68 86.8857 74.57 89.4957C74.44 92.6357 74.3 95.7957 73.64 98.8757C72.94 102.126 71.65 105.216 70.83 108.446C69.43 113.986 69.45 119.776 68.9 125.476C68.64 128.226 68.23 130.976 67.47 133.636C67.26 134.386 66.87 135.866 66.35 137.316C68.31 135.476 70.39 133.756 72.71 132.336C74.88 131.006 76.95 129.556 78.96 128.046C79.06 127.486 79.4 126.956 79.93 126.476C79.69 126.476 79.45 126.406 79.21 126.266C77.99 125.556 77.56 122.986 77.31 121.746C76.25 116.526 77.05 111.096 78.36 105.936C80.5 97.5557 84.01 89.5157 88.7 82.2557C89.84 80.4957 91.06 78.7657 92.58 77.3157C94.17 75.8057 96.05 74.6357 97.95 73.5257C100.61 71.9857 103.34 70.5557 106.12 69.2357C102.99 72.9557 101.78 77.8657 100.2 82.4657C98.52 87.3157 96.34 91.9757 94.67 96.8257C93.64 99.8257 92.81 102.896 91.83 105.906C90.73 109.296 89.44 112.636 87.98 115.886C86.58 118.996 84.97 122.106 82.62 124.616C82.51 124.736 82.4 124.856 82.28 124.986C82.7 124.786 83.15 124.596 83.61 124.426C83.92 124.186 84.22 123.936 84.53 123.696C89.08 120.066 93.79 116.306 99.24 113.396L103.25 111.256C101.59 109.116 101.41 102.136 101.56 100.756C102.02 96.7757 103.38 92.9557 104.77 89.2057C105.82 86.3557 106.91 83.5057 108.42 80.8757C111.99 74.6757 118 69.9057 124.85 67.8457C123.39 69.7057 122.43 71.9057 121.51 74.0857C118.37 81.4657 115.44 88.9357 112.73 96.4857C111.8 99.0857 110.88 101.686 109.75 104.206C109.1 105.666 108.32 107.506 107.35 109.086L122.23 101.166C122 101.166 121.77 101.116 121.54 101.026C117.96 99.6457 120.05 91.6557 120.9 89.1357C122.15 85.4457 124.24 82.0857 126.54 78.9257C129.64 74.6857 133.25 70.6757 137.83 68.1157C140.49 66.6357 143.4 65.6757 146.29 64.7257C144.51 67.0457 142.73 69.3657 140.95 71.6857C138.75 74.5557 136.54 77.4357 134.83 80.6157C132.81 84.3557 131.51 88.4457 129.7 92.2857C129.01 93.7457 127.23 97.4757 125.14 99.6157L130.43 96.8057C131.45 96.2657 132.48 95.7157 133.51 95.1557C133.77 95.0157 134.03 94.8757 134.28 94.7357C132.48 92.9657 137.17 82.8857 138.48 81.0857C140.55 78.2457 142.79 75.5257 145.19 72.9557C146.56 71.4857 148.07 70.0157 149.99 69.4557C147.27 74.2857 144.94 79.3357 143.04 84.5457C142.11 87.0957 141.16 89.8457 139.54 91.9457C141.49 90.9357 143.46 89.9557 145.44 89.0557C145.37 87.7157 147.92 84.0757 148.36 83.2457C151.09 78.1857 154.3 73.3957 157.94 68.9557C157.87 74.2157 155.42 79.1257 153.03 83.8157C152.54 84.7657 152.04 85.7257 151.43 86.5957C152.99 86.0357 154.57 85.5357 156.15 85.1257C156.09 83.8357 157.43 82.4457 158.87 81.7657C164.31 79.2257 170.6 79.7657 176.59 79.3357C181.1 79.0157 185.57 78.1057 189.85 76.6457C188.18 80.6257 184.43 83.4357 180.37 84.9057C176.31 86.3657 171.94 86.6457 167.63 86.7757C165.29 86.8457 159.35 88.0357 157.32 86.8157C156.86 86.5457 156.56 86.2357 156.37 85.9057L156.69 87.1457C153.83 87.8857 150.99 88.9257 148.17 90.1357C149.81 89.9257 153.27 90.7057 154.1 90.7957C159.81 91.4157 165.46 92.5757 170.95 94.2757C166.05 96.1957 160.58 95.7757 155.33 95.3257C153.76 95.1957 152.17 95.0557 150.7 94.4657C149.55 94.0057 146.07 92.0357 147.34 90.4857C144.38 91.7957 141.45 93.2757 138.55 94.8157C141.37 94.5257 144.33 95.5757 147.1 96.4957C152.02 98.1257 157.08 99.3557 162.2 100.156C160.67 101.256 158.71 101.506 156.84 101.666C153.56 101.936 150.26 102.016 146.97 101.886C144.86 101.806 134.6 99.3557 134.52 96.9757C134.5 96.9757 134.49 96.9957 134.47 96.9957C133.43 97.5557 132.4 98.1157 131.38 98.6557L126.71 101.146C128.33 101.226 129.86 101.486 130.55 101.626C137.22 103.036 143.65 105.656 150.43 106.316C151.84 106.456 153.45 106.596 154.33 107.706C152.63 109.066 150.28 109.186 148.11 109.186C142.43 109.186 136.75 108.736 131.13 107.866C129.36 107.586 122.42 106.426 121.43 103.956L112.14 108.906C115.14 108.666 118.42 109.546 121.15 110.116C129.68 111.916 138.22 113.706 146.75 115.506C146.96 116.106 146.2 116.556 145.59 116.736C136.67 119.316 127.23 120.076 118.01 118.996C114.28 118.556 102.43 116.856 105.62 112.376L100.19 115.266C96.09 117.446 92.39 120.156 88.85 122.936C91.2 122.426 93.25 122.166 93.99 122.146C98.47 122.066 102.91 122.786 107.36 123.326C116.63 124.436 125.99 124.716 135.32 124.986C126.73 130.796 116.44 134.066 106.06 134.276C101.42 134.366 96.79 133.866 92.22 133.076C89.65 132.636 81.77 132.236 79.66 130.126C77.77 131.526 75.82 132.886 73.77 134.136C72.05 135.186 70.44 136.446 68.91 137.796C73.8 136.326 82.15 136.596 84.28 136.826C90.87 137.546 97.29 139.396 103.86 140.296C107.59 140.806 111.39 141.026 114.99 142.126C119.49 143.496 123.87 146.266 128.51 145.526C114.63 151.916 98.74 153.846 83.74 150.966C80.28 150.296 76.83 149.326 73.65 147.786C71.62 146.806 65.73 143.826 65.34 141.196C64.74 141.806 64.14 142.416 63.54 143.026C61.82 144.796 60.03 146.626 58.15 148.296C56.23 150.006 54.18 151.566 52.17 153.086C54.94 152.676 58.13 152.776 59.7 152.896C66.17 153.386 72.46 155.136 78.92 155.696C81.89 155.956 84.88 155.956 87.83 156.326C97.14 157.506 105.93 162.386 115.31 161.966C112.89 164.266 109.35 164.856 106.04 165.286C88.55 167.576 70.23 168.536 53.77 162.186C51.97 161.496 50.15 160.676 48.85 159.256C47.98 158.306 47.5 157.496 47.3 156.806C39.4 163.086 32.41 170.626 25.65 177.926C23.09 180.686 20.5 183.496 17.99 186.376C19.45 185.116 20.22 184.916 22.46 185.006C24.68 185.096 26.88 185.486 29.03 186.026C33.34 187.106 37.45 188.806 41.63 190.266C48.83 192.786 56.29 194.566 63.86 195.566C66.04 195.856 68.24 196.086 70.34 196.736C72.17 197.306 73.89 198.186 75.67 198.886C78.55 200.026 81.62 200.716 84.71 200.926C81.15 202.406 77.11 201.996 73.32 202.666C71.31 203.026 69.37 203.676 67.41 204.266C64.55 205.116 61.63 205.806 58.65 206.056C53.66 206.486 48.64 205.676 43.82 204.306C34.76 201.726 26.3 197.146 19.06 191.106C18.38 190.536 17.69 189.926 17.32 189.126C17.05 188.526 17 187.796 17.26 187.206C13.81 191.216 10.52 195.396 7.71002 199.876L5.94002 198.766C8.44002 194.776 11.29 191.046 14.3 187.456C12.08 186.706 9.73002 185.166 8.29002 183.486C7.00002 181.976 6.22002 180.096 5.53002 178.226C2.28002 169.416 0.520019 160.056 0.340019 150.666C0.240019 145.686 0.590015 140.706 0.950015 135.746C1.16002 132.886 1.37002 130.006 2.03002 127.216C2.48002 125.286 3.17002 123.366 4.41002 121.816C3.98002 131.026 7.21002 139.956 8.88002 149.016C9.43002 151.976 9.82002 154.986 10.74 157.846C11.77 161.036 13.45 163.986 14.65 167.116C15.76 169.996 16.46 173.016 17.16 176.026C17.7 178.326 18.24 180.666 18.07 183.026C18.07 183.046 18.07 183.076 18.07 183.106C20.06 180.876 22.08 178.676 24.09 176.516C25.8 174.666 27.53 172.796 29.29 170.936C26.52 169.326 23.6 162.466 22.96 160.756C21.46 156.796 20.48 152.656 19.96 148.456C19.38 143.786 19.35 139.066 19.43 134.366C19.55 127.596 19.92 120.676 22.43 114.386C24.15 110.086 26.81 106.236 29.45 102.436C28.47 104.036 28.5 106.036 28.56 107.916C28.8 115.746 29.04 123.576 29.28 131.416C29.4 135.246 29.51 139.086 29.99 142.896C30.59 147.696 31.75 152.416 32.37 157.216C32.7 159.726 32.87 162.256 32.74 164.786C32.71 165.396 32.7 166.436 32.6 167.496C36.76 163.216 41.11 159.076 45.79 155.326C44.8 155.016 43.93 153.886 43.41 153.126L43.46 153.136Z" fill="#971EA2"/>
<path d="M9.12992 199.444C12.1066 182.398 16.1371 165.548 21.1673 149.014C32.698 148.906 44.1839 145.215 53.5643 138.488C63.3654 131.466 70.8178 121.21 74.4714 109.71C69.9371 116.916 61.819 120.445 53.6776 122.922C45.5359 125.41 36.953 127.061 29.7501 131.603C28.3075 132.513 26.9481 133.616 25.7235 134.874C27.3166 130.227 29.0087 125.613 30.76 121.021C35.5182 123.449 41.6397 123.513 46.6096 121.595C53.8214 118.805 59.672 113.446 65.8862 108.85C72.1104 104.254 79.0642 100.255 86.7783 100.844C76.416 97.2903 64.9133 97.1688 54.4804 100.507C46.7291 102.988 39.6214 107.382 33.8575 113.125C36.0144 107.807 38.2695 102.542 40.6435 97.3119C50.1962 98.546 60.1249 96.7514 68.5998 92.1744C77.3291 87.4762 84.4678 79.9007 88.6537 70.9214C84.2026 76.3193 77.218 78.3368 70.3226 79.5168C63.4276 80.6869 56.2575 81.137 49.9107 84.0873C48.3137 84.832 46.8169 85.8604 45.4644 87.0539C47.6199 82.6364 49.8346 78.241 52.1476 73.8991C56.8389 76.2343 62.9462 75.8472 67.6124 73.4586C73.8473 70.2742 78.6075 64.9071 83.7751 60.1946C88.9427 55.482 94.8449 51.2254 101.835 51.0493C92.1775 48.8109 81.8174 49.7799 72.7331 53.7553C66.6566 56.4148 61.2026 60.4469 56.7872 65.3959C60.4468 58.8796 64.2928 52.4699 68.2956 46.1558C73.1822 45.7661 77.9782 42.8117 80.8772 38.8804C85.0362 33.2522 86.8991 26.323 89.4284 19.7973C91.9577 13.2716 95.3244 6.83513 101.503 3.54875C91.8665 5.85385 83.0194 11.3484 76.6698 18.9615C70.9678 25.7966 67.3383 34.3152 66.2695 43.1432C64.0676 46.5985 61.8946 50.0848 59.7905 53.6035C59.8031 53.2437 59.856 52.8753 59.8586 52.5152C59.8527 45.5207 57.2344 38.8353 55.3888 32.0868C53.5432 25.3383 52.4232 18.1548 55.4452 11.8464C49.0667 19.4284 45.2168 29.1 44.6411 38.9959C44.0678 48.8219 46.7312 58.8009 52.1068 67.0435C50.0233 70.8331 48.009 74.6451 46.0433 78.4989C46.3902 71.7169 45.0792 64.8469 42.1615 58.7114C38.3962 50.7751 32.015 44.1084 24.2538 39.995C28.8307 44.1773 30.3025 50.4525 31.028 56.6115C31.7535 62.7706 31.8214 69.1368 34.1423 74.8813C35.7634 78.8904 39.2201 82.4832 43.3129 83.9069C41.2451 88.1073 39.2458 92.3501 37.3154 96.6253C37.2275 95.9919 37.1292 95.3681 36.9802 94.7625C35.3366 87.961 31.2192 82.0837 27.8411 75.9521C24.4627 69.8304 21.6956 63.1098 23.1453 56.2662C18.723 65.1373 17.2525 75.4422 19.013 85.1996C20.6642 94.3628 25.1871 102.956 31.7303 109.568C29.5338 114.875 27.4558 120.226 25.4763 125.62C26.2669 118.453 25.3734 111.087 22.8172 104.344C19.3543 95.1976 12.8785 87.2268 4.63712 81.9659C9.33349 87.0229 10.4066 94.1147 10.6562 101.008C10.9055 107.911 10.4085 114.977 12.47 121.563C14.0275 126.531 17.9997 131.122 22.9243 132.795C19.6525 142.247 16.687 151.809 14.0881 161.474C10.7881 173.736 8.06362 186.139 5.876 198.64C5.51254 200.739 8.73543 201.572 9.09959 199.453L9.12992 199.444Z" fill="#EAAD5A"/>
</svg>
